<svg width="379" height="389" viewBox="0 0 379 389" fill="none" xmlns="http://www.w3.org/2000/svg">
<path d="M117.946 381.54V366.994H123.13C124.262 366.994 125.199 367.2 125.943 367.612C126.686 368.024 127.243 368.588 127.612 369.303C127.981 370.013 128.166 370.813 128.166 371.703C128.166 372.598 127.979 373.403 127.605 374.118C127.235 374.828 126.677 375.392 125.929 375.808C125.185 376.22 124.25 376.426 123.123 376.426H119.558V374.565H122.924C123.639 374.565 124.219 374.442 124.664 374.196C125.109 373.945 125.436 373.604 125.645 373.173C125.853 372.742 125.957 372.252 125.957 371.703C125.957 371.154 125.853 370.666 125.645 370.24C125.436 369.814 125.107 369.48 124.657 369.239C124.212 368.997 123.625 368.876 122.896 368.876H120.14V381.54H117.946ZM133.645 381.781C132.954 381.781 132.329 381.653 131.77 381.398C131.212 381.137 130.769 380.761 130.442 380.268C130.12 379.776 129.959 379.172 129.959 378.457C129.959 377.842 130.078 377.335 130.314 376.938C130.551 376.54 130.871 376.225 131.273 375.993C131.676 375.761 132.125 375.586 132.623 375.467C133.12 375.349 133.626 375.259 134.142 375.197C134.796 375.122 135.326 375.06 135.733 375.013C136.141 374.961 136.436 374.878 136.621 374.764C136.806 374.651 136.898 374.466 136.898 374.21V374.161C136.898 373.54 136.723 373.06 136.373 372.719C136.027 372.378 135.511 372.207 134.824 372.207C134.109 372.207 133.546 372.366 133.134 372.683C132.727 372.996 132.445 373.344 132.289 373.727L130.293 373.273C130.53 372.61 130.875 372.075 131.33 371.668C131.789 371.256 132.317 370.957 132.914 370.773C133.51 370.583 134.138 370.489 134.796 370.489C135.231 370.489 135.693 370.541 136.181 370.645C136.673 370.744 137.132 370.929 137.559 371.199C137.989 371.469 138.342 371.855 138.617 372.357C138.891 372.854 139.029 373.5 139.029 374.295V381.54H136.955V380.048H136.87C136.732 380.323 136.526 380.593 136.252 380.858C135.977 381.123 135.624 381.343 135.194 381.518C134.763 381.694 134.247 381.781 133.645 381.781ZM134.107 380.077C134.694 380.077 135.196 379.961 135.613 379.729C136.034 379.497 136.354 379.194 136.571 378.82C136.794 378.441 136.905 378.036 136.905 377.605V376.199C136.829 376.275 136.683 376.346 136.465 376.412C136.252 376.474 136.008 376.528 135.733 376.575C135.459 376.618 135.191 376.658 134.931 376.696C134.67 376.729 134.453 376.758 134.277 376.781C133.865 376.833 133.489 376.921 133.148 377.044C132.812 377.167 132.542 377.345 132.338 377.577C132.14 377.804 132.04 378.107 132.04 378.486C132.04 379.011 132.234 379.409 132.623 379.679C133.011 379.944 133.506 380.077 134.107 380.077ZM141.857 381.54V370.631H143.91V372.364H144.023C144.222 371.777 144.573 371.315 145.075 370.979C145.581 370.638 146.154 370.467 146.793 370.467C146.926 370.467 147.082 370.472 147.262 370.482C147.447 370.491 147.591 370.503 147.695 370.517V372.548C147.61 372.525 147.459 372.499 147.241 372.47C147.023 372.437 146.805 372.42 146.587 372.42C146.085 372.42 145.638 372.527 145.245 372.74C144.857 372.948 144.549 373.24 144.322 373.614C144.094 373.983 143.981 374.404 143.981 374.878V381.54H141.857ZM155.27 370.631V372.335H149.311V370.631H155.27ZM150.909 368.017H153.033V378.337C153.033 378.749 153.094 379.059 153.217 379.267C153.34 379.471 153.499 379.61 153.693 379.686C153.892 379.757 154.107 379.793 154.339 379.793C154.51 379.793 154.659 379.781 154.787 379.757C154.915 379.733 155.014 379.715 155.085 379.7L155.469 381.455C155.346 381.502 155.17 381.549 154.943 381.597C154.716 381.649 154.432 381.677 154.091 381.682C153.532 381.691 153.011 381.592 152.528 381.384C152.045 381.175 151.655 380.853 151.357 380.418C151.058 379.982 150.909 379.435 150.909 378.777V368.017ZM157.619 381.54V370.631H159.743V381.54H157.619ZM158.691 368.947C158.322 368.947 158.005 368.824 157.74 368.578C157.479 368.327 157.349 368.029 157.349 367.683C157.349 367.333 157.479 367.035 157.74 366.788C158.005 366.537 158.322 366.412 158.691 366.412C159.061 366.412 159.376 366.537 159.636 366.788C159.901 367.035 160.034 367.333 160.034 367.683C160.034 368.029 159.901 368.327 159.636 368.578C159.376 368.824 159.061 368.947 158.691 368.947ZM167.195 381.76C166.139 381.76 165.23 381.521 164.467 381.043C163.71 380.56 163.127 379.894 162.72 379.047C162.313 378.199 162.109 377.229 162.109 376.135C162.109 375.027 162.318 374.049 162.734 373.202C163.151 372.349 163.738 371.684 164.496 371.206C165.253 370.728 166.146 370.489 167.173 370.489C168.002 370.489 168.741 370.643 169.389 370.95C170.038 371.253 170.561 371.679 170.959 372.229C171.361 372.778 171.6 373.42 171.676 374.153H169.609C169.496 373.642 169.235 373.202 168.828 372.832C168.426 372.463 167.886 372.278 167.209 372.278C166.617 372.278 166.098 372.435 165.653 372.747C165.213 373.055 164.87 373.495 164.624 374.068C164.377 374.636 164.254 375.309 164.254 376.085C164.254 376.881 164.375 377.567 164.616 378.145C164.858 378.723 165.199 379.17 165.639 379.487C166.084 379.804 166.607 379.963 167.209 379.963C167.611 379.963 167.976 379.89 168.303 379.743C168.634 379.591 168.911 379.376 169.134 379.097C169.361 378.817 169.519 378.481 169.609 378.088H171.676C171.6 378.794 171.371 379.423 170.987 379.977C170.604 380.531 170.09 380.967 169.446 381.284C168.807 381.601 168.056 381.76 167.195 381.76ZM176.071 366.994V381.54H173.947V366.994H176.071ZM183.629 381.76C182.554 381.76 181.629 381.53 180.852 381.071C180.08 380.607 179.484 379.956 179.062 379.118C178.646 378.275 178.438 377.288 178.438 376.156C178.438 375.039 178.646 374.054 179.062 373.202C179.484 372.349 180.071 371.684 180.824 371.206C181.581 370.728 182.467 370.489 183.48 370.489C184.096 370.489 184.692 370.59 185.27 370.794C185.848 370.998 186.366 371.317 186.825 371.753C187.285 372.188 187.647 372.754 187.912 373.45C188.177 374.142 188.31 374.982 188.31 375.972V376.724H179.638V375.134H186.229C186.229 374.575 186.115 374.08 185.888 373.649C185.661 373.214 185.341 372.87 184.929 372.619C184.522 372.368 184.044 372.243 183.494 372.243C182.898 372.243 182.377 372.39 181.932 372.683C181.491 372.972 181.151 373.351 180.909 373.82C180.672 374.284 180.554 374.788 180.554 375.332V376.575C180.554 377.304 180.682 377.925 180.938 378.436C181.198 378.947 181.56 379.338 182.024 379.608C182.488 379.873 183.03 380.006 183.651 380.006C184.053 380.006 184.42 379.949 184.751 379.835C185.083 379.717 185.369 379.542 185.611 379.31C185.852 379.078 186.037 378.791 186.165 378.45L188.175 378.813C188.014 379.404 187.725 379.923 187.308 380.368C186.896 380.808 186.378 381.152 185.753 381.398C185.133 381.639 184.425 381.76 183.629 381.76ZM204.062 370.815C203.987 370.143 203.674 369.622 203.125 369.253C202.576 368.879 201.884 368.692 201.051 368.692C200.455 368.692 199.938 368.786 199.503 368.976C199.067 369.161 198.729 369.416 198.487 369.743C198.25 370.065 198.132 370.432 198.132 370.844C198.132 371.189 198.213 371.488 198.374 371.739C198.539 371.99 198.755 372.2 199.02 372.371C199.29 372.536 199.579 372.676 199.886 372.79C200.194 372.899 200.49 372.989 200.774 373.06L202.195 373.429C202.659 373.543 203.134 373.697 203.622 373.891C204.11 374.085 204.562 374.34 204.979 374.658C205.395 374.975 205.732 375.368 205.987 375.837C206.248 376.305 206.378 376.866 206.378 377.52C206.378 378.344 206.165 379.075 205.739 379.715C205.317 380.354 204.704 380.858 203.899 381.227C203.099 381.597 202.131 381.781 200.994 381.781C199.905 381.781 198.963 381.608 198.168 381.263C197.372 380.917 196.75 380.427 196.3 379.793C195.85 379.153 195.601 378.396 195.554 377.52H197.756C197.798 378.045 197.969 378.483 198.267 378.834C198.57 379.179 198.956 379.438 199.425 379.608C199.898 379.774 200.417 379.857 200.98 379.857C201.6 379.857 202.152 379.759 202.635 379.565C203.123 379.366 203.506 379.092 203.786 378.741C204.065 378.386 204.205 377.972 204.205 377.499C204.205 377.068 204.081 376.715 203.835 376.44C203.594 376.166 203.265 375.938 202.848 375.759C202.436 375.579 201.97 375.42 201.449 375.283L199.73 374.814C198.565 374.497 197.642 374.03 196.96 373.415C196.283 372.799 195.945 371.985 195.945 370.972C195.945 370.134 196.172 369.402 196.626 368.777C197.081 368.152 197.696 367.667 198.473 367.321C199.25 366.971 200.125 366.795 201.101 366.795C202.086 366.795 202.955 366.968 203.707 367.314C204.465 367.66 205.062 368.135 205.497 368.741C205.933 369.343 206.16 370.034 206.179 370.815H204.062ZM208.83 381.54V370.631H210.953V381.54H208.83ZM209.902 368.947C209.533 368.947 209.216 368.824 208.951 368.578C208.69 368.327 208.56 368.029 208.56 367.683C208.56 367.333 208.69 367.035 208.951 366.788C209.216 366.537 209.533 366.412 209.902 366.412C210.272 366.412 210.587 366.537 210.847 366.788C211.112 367.035 211.245 367.333 211.245 367.683C211.245 368.029 211.112 368.327 210.847 368.578C210.587 368.824 210.272 368.947 209.902 368.947ZM213.583 381.54V380.084L219.492 372.577V372.477H213.775V370.631H222.141V372.179L216.46 379.594V379.693H222.34V381.54H213.583ZM229.235 381.76C228.16 381.76 227.234 381.53 226.458 381.071C225.686 380.607 225.089 379.956 224.668 379.118C224.251 378.275 224.043 377.288 224.043 376.156C224.043 375.039 224.251 374.054 224.668 373.202C225.089 372.349 225.676 371.684 226.429 371.206C227.187 370.728 228.072 370.489 229.086 370.489C229.701 370.489 230.298 370.59 230.875 370.794C231.453 370.998 231.971 371.317 232.431 371.753C232.89 372.188 233.252 372.754 233.517 373.45C233.783 374.142 233.915 374.982 233.915 375.972V376.724H225.243V375.134H231.834C231.834 374.575 231.721 374.08 231.493 373.649C231.266 373.214 230.946 372.87 230.534 372.619C230.127 372.368 229.649 372.243 229.1 372.243C228.503 372.243 227.982 372.39 227.537 372.683C227.097 372.972 226.756 373.351 226.515 373.82C226.278 374.284 226.159 374.788 226.159 375.332V376.575C226.159 377.304 226.287 377.925 226.543 378.436C226.803 378.947 227.166 379.338 227.63 379.608C228.094 379.873 228.636 380.006 229.256 380.006C229.658 380.006 230.025 379.949 230.357 379.835C230.688 379.717 230.975 379.542 231.216 379.31C231.458 379.078 231.642 378.791 231.77 378.45L233.78 378.813C233.619 379.404 233.33 379.923 232.914 380.368C232.502 380.808 231.983 381.152 231.358 381.398C230.738 381.639 230.03 381.76 229.235 381.76ZM242.182 375.503C242.182 373.723 242.417 372.084 242.885 370.588C243.354 369.092 244.038 367.712 244.938 366.447H246.884C246.533 366.916 246.207 367.491 245.904 368.173C245.601 368.855 245.336 369.603 245.108 370.418C244.881 371.227 244.703 372.068 244.576 372.939C244.448 373.805 244.384 374.66 244.384 375.503C244.384 376.63 244.495 377.771 244.718 378.926C244.94 380.081 245.241 381.154 245.62 382.143C245.998 383.133 246.42 383.94 246.884 384.565H244.938C244.038 383.301 243.354 381.921 242.885 380.425C242.417 378.929 242.182 377.288 242.182 375.503ZM249.123 385.588V370.631H251.246V377.016C251.246 377.555 251.362 378.031 251.594 378.443C251.831 378.855 252.16 379.177 252.582 379.409C253.008 379.636 253.503 379.75 254.066 379.75C254.629 379.75 255.122 379.634 255.543 379.402C255.969 379.17 256.299 378.85 256.531 378.443C256.767 378.031 256.886 377.555 256.886 377.016V370.631H259.009V381.54H256.921V379.942H256.836C256.571 380.482 256.19 380.896 255.692 381.185C255.195 381.469 254.653 381.611 254.066 381.611C253.479 381.611 252.937 381.469 252.44 381.185C251.947 380.896 251.564 380.482 251.289 379.942H251.204V385.588H249.123ZM261.857 381.54V370.631H263.896V372.406H264.031C264.258 371.805 264.629 371.336 265.146 371C265.662 370.659 266.28 370.489 266.999 370.489C267.728 370.489 268.339 370.659 268.832 371C269.329 371.341 269.696 371.81 269.933 372.406H270.046C270.307 371.824 270.721 371.36 271.289 371.014C271.857 370.664 272.534 370.489 273.32 370.489C274.31 370.489 275.117 370.799 275.742 371.419C276.372 372.039 276.687 372.974 276.687 374.224V381.54H274.563V374.423C274.563 373.685 274.362 373.15 273.96 372.818C273.557 372.487 273.076 372.321 272.518 372.321C271.826 372.321 271.289 372.534 270.906 372.96C270.522 373.382 270.33 373.924 270.33 374.587V381.54H268.214V374.288C268.214 373.697 268.029 373.221 267.66 372.861C267.29 372.501 266.81 372.321 266.218 372.321C265.816 372.321 265.444 372.428 265.103 372.641C264.767 372.849 264.495 373.14 264.286 373.514C264.083 373.888 263.981 374.322 263.981 374.814V381.54H261.857ZM283.617 375.503C283.617 377.288 283.382 378.929 282.914 380.425C282.445 381.921 281.761 383.301 280.861 384.565H278.915C279.266 384.097 279.592 383.521 279.895 382.84C280.198 382.158 280.463 381.412 280.691 380.602C280.918 379.788 281.096 378.945 281.223 378.074C281.351 377.203 281.415 376.346 281.415 375.503C281.415 374.381 281.304 373.242 281.081 372.087C280.859 370.931 280.558 369.859 280.179 368.869C279.801 367.88 279.379 367.072 278.915 366.447H280.861C281.761 367.712 282.445 369.092 282.914 370.588C283.382 372.084 283.617 373.723 283.617 375.503Z" fill="white"/>
<path d="M137.61 71.6366H135.394C135.309 71.1631 135.15 70.7464 134.918 70.3866C134.686 70.0267 134.402 69.7213 134.066 69.4704C133.73 69.2194 133.354 69.03 132.937 68.9022C132.525 68.7743 132.087 68.7104 131.623 68.7104C130.785 68.7104 130.034 68.9211 129.371 69.3425C128.713 69.7639 128.193 70.3818 127.809 71.1962C127.43 72.0106 127.241 73.0049 127.241 74.1792C127.241 75.3629 127.43 76.3619 127.809 77.1763C128.193 77.9907 128.716 78.6063 129.379 79.0229C130.041 79.4396 130.787 79.6479 131.616 79.6479C132.075 79.6479 132.511 79.5864 132.923 79.4633C133.339 79.3354 133.716 79.1484 134.052 78.9022C134.388 78.656 134.672 78.3553 134.904 78.0002C135.141 77.6404 135.304 77.2284 135.394 76.7644L137.61 76.7715C137.492 77.4865 137.262 78.1446 136.921 78.7459C136.585 79.3425 136.152 79.8586 135.621 80.2942C135.096 80.7251 134.495 81.0589 133.818 81.2957C133.14 81.5324 132.402 81.6508 131.602 81.6508C130.342 81.6508 129.22 81.3525 128.235 80.7559C127.25 80.1546 126.474 79.2952 125.906 78.1778C125.342 77.0603 125.06 75.7275 125.06 74.1792C125.06 72.6261 125.345 71.2933 125.913 70.1806C126.481 69.0632 127.257 68.2062 128.242 67.6096C129.227 67.0082 130.347 66.7076 131.602 66.7076C132.373 66.7076 133.093 66.8189 133.761 67.0414C134.433 67.2592 135.037 67.5812 135.572 68.0073C136.107 68.4287 136.55 68.9448 136.9 69.5556C137.25 70.1617 137.487 70.8553 137.61 71.6366ZM144.661 81.6721C143.638 81.6721 142.746 81.4377 141.983 80.9689C141.221 80.5002 140.629 79.8444 140.208 79.0016C139.786 78.1588 139.576 77.174 139.576 76.0471C139.576 74.9154 139.786 73.9259 140.208 73.0783C140.629 72.2308 141.221 71.5726 141.983 71.1039C142.746 70.6351 143.638 70.4008 144.661 70.4008C145.684 70.4008 146.576 70.6351 147.338 71.1039C148.101 71.5726 148.693 72.2308 149.114 73.0783C149.535 73.9259 149.746 74.9154 149.746 76.0471C149.746 77.174 149.535 78.1588 149.114 79.0016C148.693 79.8444 148.101 80.5002 147.338 80.9689C146.576 81.4377 145.684 81.6721 144.661 81.6721ZM144.668 79.8894C145.331 79.8894 145.88 79.7142 146.316 79.3638C146.751 79.0135 147.073 78.5471 147.282 77.9647C147.495 77.3823 147.601 76.7407 147.601 76.04C147.601 75.3439 147.495 74.7047 147.282 74.1224C147.073 73.5352 146.751 73.0641 146.316 72.709C145.88 72.3539 145.331 72.1763 144.668 72.1763C144 72.1763 143.446 72.3539 143.006 72.709C142.57 73.0641 142.246 73.5352 142.033 74.1224C141.825 74.7047 141.721 75.3439 141.721 76.04C141.721 76.7407 141.825 77.3823 142.033 77.9647C142.246 78.5471 142.57 79.0135 143.006 79.3638C143.446 79.7142 144 79.8894 144.668 79.8894ZM154.24 74.9746V81.4519H152.117V70.5428H154.155V72.3184H154.29C154.541 71.7407 154.934 71.2767 155.469 70.9263C156.009 70.576 156.688 70.4008 157.507 70.4008C158.251 70.4008 158.902 70.557 159.46 70.8695C160.019 71.1773 160.452 71.6366 160.76 72.2474C161.068 72.8582 161.222 73.6134 161.222 74.513V81.4519H159.098V74.7687C159.098 73.9779 158.892 73.36 158.48 72.915C158.068 72.4652 157.502 72.2403 156.783 72.2403C156.29 72.2403 155.852 72.3468 155.469 72.5599C155.09 72.7729 154.789 73.0854 154.567 73.4974C154.349 73.9046 154.24 74.397 154.24 74.9746ZM164.07 85.5428V70.5428H166.144V72.3113H166.321C166.444 72.084 166.622 71.8212 166.854 71.5229C167.086 71.2246 167.408 70.9642 167.82 70.7417C168.232 70.5144 168.776 70.4008 169.453 70.4008C170.334 70.4008 171.12 70.6233 171.811 71.0684C172.502 71.5135 173.045 72.155 173.438 72.9931C173.835 73.8312 174.034 74.8397 174.034 76.0187C174.034 77.1976 173.838 78.2085 173.445 79.0513C173.052 79.8894 172.512 80.5357 171.825 80.9903C171.139 81.4401 170.355 81.665 169.474 81.665C168.812 81.665 168.269 81.5537 167.848 81.3312C167.431 81.1086 167.105 80.8482 166.868 80.5499C166.631 80.2516 166.449 79.9865 166.321 79.7545H166.193V85.5428H164.07ZM166.151 75.9974C166.151 76.7644 166.262 77.4368 166.484 78.0144C166.707 78.5921 167.029 79.0442 167.45 79.3709C167.872 79.6929 168.388 79.8539 168.999 79.8539C169.633 79.8539 170.163 79.6858 170.59 79.3496C171.016 79.0087 171.338 78.5471 171.555 77.9647C171.778 77.3823 171.889 76.7265 171.889 75.9974C171.889 75.2777 171.78 74.6314 171.563 74.0584C171.349 73.4855 171.028 73.0333 170.597 72.7019C170.17 72.3705 169.638 72.2047 168.999 72.2047C168.383 72.2047 167.862 72.3634 167.436 72.6806C167.015 72.9978 166.695 73.4405 166.477 74.0087C166.26 74.5769 166.151 75.2398 166.151 75.9974ZM179.588 81.6934C178.897 81.6934 178.272 81.5655 177.713 81.3099C177.154 81.0494 176.712 80.673 176.385 80.1806C176.063 79.6882 175.902 79.0845 175.902 78.3695C175.902 77.754 176.02 77.2474 176.257 76.8496C176.494 76.4519 176.813 76.137 177.216 75.905C177.618 75.673 178.068 75.4978 178.565 75.3795C179.063 75.2611 179.569 75.1711 180.085 75.1096C180.739 75.0338 181.269 74.9723 181.676 74.9249C182.083 74.8728 182.379 74.79 182.564 74.6763C182.749 74.5627 182.841 74.378 182.841 74.1224V74.0726C182.841 73.4524 182.666 72.9718 182.315 72.6309C181.97 72.29 181.454 72.1195 180.767 72.1195C180.052 72.1195 179.489 72.2781 179.077 72.5954C178.67 72.9079 178.388 73.2559 178.232 73.6394L176.236 73.1849C176.473 72.522 176.818 71.9869 177.273 71.5797C177.732 71.1678 178.26 70.8695 178.857 70.6849C179.453 70.4955 180.081 70.4008 180.739 70.4008C181.174 70.4008 181.636 70.4529 182.124 70.557C182.616 70.6564 183.075 70.8411 183.501 71.111C183.932 71.3809 184.285 71.7668 184.56 72.2687C184.834 72.7658 184.972 73.4121 184.972 74.2076V81.4519H182.898V79.9604H182.813C182.675 80.235 182.469 80.5049 182.195 80.7701C181.92 81.0352 181.567 81.2554 181.136 81.4306C180.706 81.6058 180.189 81.6934 179.588 81.6934ZM180.05 79.9888C180.637 79.9888 181.139 79.8728 181.555 79.6408C181.977 79.4088 182.296 79.1058 182.514 78.7317C182.737 78.3529 182.848 77.9481 182.848 77.5172V76.111C182.772 76.1868 182.626 76.2578 182.408 76.3241C182.195 76.3856 181.951 76.4401 181.676 76.4874C181.402 76.53 181.134 76.5703 180.874 76.6082C180.613 76.6413 180.395 76.6697 180.22 76.6934C179.808 76.7455 179.432 76.8331 179.091 76.9562C178.755 77.0793 178.485 77.2568 178.281 77.4888C178.082 77.7161 177.983 78.0191 177.983 78.3979C177.983 78.9235 178.177 79.3212 178.565 79.5911C178.954 79.8563 179.448 79.9888 180.05 79.9888ZM187.8 81.4519V70.5428H189.853V72.2758H189.966C190.165 71.6886 190.516 71.227 191.017 70.8908C191.524 70.5499 192.097 70.3795 192.736 70.3795C192.869 70.3795 193.025 70.3842 193.205 70.3937C193.39 70.4031 193.534 70.415 193.638 70.4292V72.4604C193.553 72.4368 193.401 72.4107 193.184 72.3823C192.966 72.3492 192.748 72.3326 192.53 72.3326C192.028 72.3326 191.581 72.4391 191.188 72.6522C190.8 72.8605 190.492 73.1517 190.265 73.5258C190.037 73.8951 189.924 74.3165 189.924 74.79V81.4519H187.8ZM201.213 70.5428V72.2474H195.254V70.5428H201.213ZM196.852 67.9292H198.976V78.2488C198.976 78.6607 199.037 78.9708 199.16 79.1792C199.283 79.3828 199.442 79.5225 199.636 79.5982C199.835 79.6692 200.05 79.7047 200.282 79.7047C200.453 79.7047 200.602 79.6929 200.73 79.6692C200.858 79.6456 200.957 79.6266 201.028 79.6124L201.412 81.3667C201.289 81.414 201.113 81.4614 200.886 81.5087C200.659 81.5608 200.375 81.5892 200.034 81.5939C199.475 81.6034 198.954 81.504 198.471 81.2957C197.988 81.0873 197.598 80.7654 197.299 80.3297C197.001 79.8941 196.852 79.3473 196.852 78.6891V67.9292ZM205.934 66.9064V68.2701C205.934 68.6725 205.858 69.0963 205.707 69.5414C205.56 69.9817 205.352 70.4055 205.082 70.8127C204.812 71.2199 204.495 71.5703 204.13 71.8638L203.079 71.111C203.358 70.7038 203.6 70.2706 203.803 69.8113C204.012 69.352 204.116 68.8454 204.116 68.2914V66.9064H205.934ZM214.783 73.2062L212.859 73.5471C212.778 73.3009 212.65 73.0665 212.475 72.8439C212.305 72.6214 212.073 72.4391 211.779 72.2971C211.486 72.155 211.119 72.084 210.678 72.084C210.077 72.084 209.575 72.2189 209.173 72.4888C208.77 72.754 208.569 73.0973 208.569 73.5187C208.569 73.8832 208.704 74.1768 208.974 74.3993C209.244 74.6219 209.679 74.8042 210.281 74.9462L212.014 75.3439C213.017 75.576 213.765 75.9334 214.258 76.4164C214.75 76.8993 214.996 77.5267 214.996 78.2985C214.996 78.9519 214.807 79.5343 214.428 80.0457C214.054 80.5523 213.531 80.95 212.859 81.2388C212.191 81.5277 211.417 81.6721 210.536 81.6721C209.315 81.6721 208.318 81.4117 207.546 80.8908C206.774 80.3653 206.301 79.6195 206.126 78.6536L208.178 78.3411C208.306 78.8761 208.569 79.281 208.967 79.5556C209.364 79.8255 209.883 79.9604 210.522 79.9604C211.218 79.9604 211.774 79.816 212.191 79.5272C212.608 79.2336 212.816 78.8761 212.816 78.4547C212.816 78.1138 212.688 77.8274 212.433 77.5954C212.182 77.3634 211.796 77.1882 211.275 77.0698L209.428 76.665C208.41 76.433 207.657 76.0636 207.17 75.557C206.687 75.0504 206.445 74.4088 206.445 73.6323C206.445 72.9884 206.625 72.4249 206.985 71.942C207.345 71.459 207.842 71.0826 208.477 70.8127C209.111 70.5381 209.838 70.4008 210.657 70.4008C211.836 70.4008 212.764 70.6564 213.441 71.1678C214.118 71.6744 214.566 72.3539 214.783 73.2062ZM222.624 85.5428V70.5428H224.698V72.3113H224.876C224.999 72.084 225.176 71.8212 225.408 71.5229C225.64 71.2246 225.962 70.9642 226.374 70.7417C226.786 70.5144 227.331 70.4008 228.008 70.4008C228.889 70.4008 229.675 70.6233 230.366 71.0684C231.057 71.5135 231.599 72.155 231.992 72.9931C232.39 73.8312 232.589 74.8397 232.589 76.0187C232.589 77.1976 232.392 78.2085 231.999 79.0513C231.606 79.8894 231.067 80.5357 230.38 80.9903C229.693 81.4401 228.91 81.665 228.029 81.665C227.366 81.665 226.824 81.5537 226.403 81.3312C225.986 81.1086 225.659 80.8482 225.423 80.5499C225.186 80.2516 225.004 79.9865 224.876 79.7545H224.748V85.5428H222.624ZM224.705 75.9974C224.705 76.7644 224.817 77.4368 225.039 78.0144C225.262 78.5921 225.584 79.0442 226.005 79.3709C226.426 79.6929 226.943 79.8539 227.553 79.8539C228.188 79.8539 228.718 79.6858 229.144 79.3496C229.57 79.0087 229.892 78.5471 230.11 77.9647C230.333 77.3823 230.444 76.7265 230.444 75.9974C230.444 75.2777 230.335 74.6314 230.117 74.0584C229.904 73.4855 229.582 73.0333 229.151 72.7019C228.725 72.3705 228.193 72.2047 227.553 72.2047C226.938 72.2047 226.417 72.3634 225.991 72.6806C225.569 72.9978 225.25 73.4405 225.032 74.0087C224.814 74.5769 224.705 75.2398 224.705 75.9974ZM238.143 81.6934C237.452 81.6934 236.827 81.5655 236.268 81.3099C235.709 81.0494 235.266 80.673 234.94 80.1806C234.618 79.6882 234.457 79.0845 234.457 78.3695C234.457 77.754 234.575 77.2474 234.812 76.8496C235.049 76.4519 235.368 76.137 235.771 75.905C236.173 75.673 236.623 75.4978 237.12 75.3795C237.617 75.2611 238.124 75.1711 238.64 75.1096C239.293 75.0338 239.824 74.9723 240.231 74.9249C240.638 74.8728 240.934 74.79 241.119 74.6763C241.303 74.5627 241.396 74.378 241.396 74.1224V74.0726C241.396 73.4524 241.22 72.9718 240.87 72.6309C240.524 72.29 240.008 72.1195 239.322 72.1195C238.607 72.1195 238.043 72.2781 237.631 72.5954C237.224 72.9079 236.943 73.2559 236.786 73.6394L234.791 73.1849C235.027 72.522 235.373 71.9869 235.827 71.5797C236.287 71.1678 236.815 70.8695 237.411 70.6849C238.008 70.4955 238.635 70.4008 239.293 70.4008C239.729 70.4008 240.191 70.4529 240.678 70.557C241.171 70.6564 241.63 70.8411 242.056 71.111C242.487 71.3809 242.84 71.7668 243.114 72.2687C243.389 72.7658 243.526 73.4121 243.526 74.2076V81.4519H241.452V79.9604H241.367C241.23 80.235 241.024 80.5049 240.749 80.7701C240.475 81.0352 240.122 81.2554 239.691 81.4306C239.26 81.6058 238.744 81.6934 238.143 81.6934ZM238.604 79.9888C239.192 79.9888 239.693 79.8728 240.11 79.6408C240.532 79.4088 240.851 79.1058 241.069 78.7317C241.291 78.3529 241.403 77.9481 241.403 77.5172V76.111C241.327 76.1868 241.18 76.2578 240.962 76.3241C240.749 76.3856 240.505 76.4401 240.231 76.4874C239.956 76.53 239.689 76.5703 239.428 76.6082C239.168 76.6413 238.95 76.6697 238.775 76.6934C238.363 76.7455 237.987 76.8331 237.646 76.9562C237.309 77.0793 237.04 77.2568 236.836 77.4888C236.637 77.7161 236.538 78.0191 236.538 78.3979C236.538 78.9235 236.732 79.3212 237.12 79.5911C237.508 79.8563 238.003 79.9888 238.604 79.9888ZM246.355 81.4519V70.5428H248.407V72.2758H248.521C248.72 71.6886 249.07 71.227 249.572 70.8908C250.079 70.5499 250.652 70.3795 251.291 70.3795C251.423 70.3795 251.58 70.3842 251.76 70.3937C251.944 70.4031 252.089 70.415 252.193 70.4292V72.4604C252.108 72.4368 251.956 72.4107 251.738 72.3823C251.521 72.3492 251.303 72.3326 251.085 72.3326C250.583 72.3326 250.136 72.4391 249.743 72.6522C249.354 72.8605 249.047 73.1517 248.819 73.5258C248.592 73.8951 248.478 74.3165 248.478 74.79V81.4519H246.355ZM259.767 70.5428V72.2474H253.809V70.5428H259.767ZM255.407 67.9292H257.53V78.2488C257.53 78.6607 257.592 78.9708 257.715 79.1792C257.838 79.3828 257.997 79.5225 258.191 79.5982C258.39 79.6692 258.605 79.7047 258.837 79.7047C259.008 79.7047 259.157 79.6929 259.284 79.6692C259.412 79.6456 259.512 79.6266 259.583 79.6124L259.966 81.3667C259.843 81.414 259.668 81.4614 259.441 81.5087C259.213 81.5608 258.929 81.5892 258.588 81.5939C258.03 81.6034 257.509 81.504 257.026 81.2957C256.543 81.0873 256.152 80.7654 255.854 80.3297C255.556 79.8941 255.407 79.3473 255.407 78.6891V67.9292ZM262.117 81.4519V70.5428H264.24V81.4519H262.117ZM263.189 68.8596C262.82 68.8596 262.502 68.7365 262.237 68.4903C261.977 68.2393 261.847 67.941 261.847 67.5954C261.847 67.245 261.977 66.9467 262.237 66.7005C262.502 66.4495 262.82 66.3241 263.189 66.3241C263.558 66.3241 263.873 66.4495 264.134 66.7005C264.399 66.9467 264.531 67.245 264.531 67.5954C264.531 67.941 264.399 68.2393 264.134 68.4903C263.873 68.7365 263.558 68.8596 263.189 68.8596ZM271.692 81.6721C270.636 81.6721 269.727 81.433 268.965 80.9547C268.207 80.4718 267.625 79.8065 267.218 78.959C266.811 78.1115 266.607 77.1408 266.607 76.0471C266.607 74.9391 266.815 73.9614 267.232 73.1138C267.649 72.2616 268.236 71.5963 268.993 71.1181C269.751 70.6399 270.643 70.4008 271.671 70.4008C272.499 70.4008 273.238 70.5547 273.887 70.8624C274.535 71.1654 275.059 71.5916 275.456 72.1408C275.859 72.6901 276.098 73.3316 276.174 74.0655H274.107C273.993 73.5542 273.733 73.1138 273.326 72.7445C272.923 72.3752 272.383 72.1905 271.706 72.1905C271.115 72.1905 270.596 72.3468 270.151 72.6593C269.711 72.9671 269.367 73.4074 269.121 73.9803C268.875 74.5485 268.752 75.2208 268.752 75.9974C268.752 76.7928 268.873 77.4794 269.114 78.057C269.356 78.6347 269.696 79.0821 270.137 79.3993C270.582 79.7166 271.105 79.8752 271.706 79.8752C272.109 79.8752 272.473 79.8018 272.8 79.655C273.132 79.5035 273.409 79.2881 273.631 79.0087C273.858 78.7294 274.017 78.3932 274.107 78.0002H276.174C276.098 78.7057 275.868 79.3354 275.485 79.8894C275.101 80.4434 274.588 80.879 273.944 81.1962C273.304 81.5135 272.554 81.6721 271.692 81.6721ZM280.568 66.9064V81.4519H278.445V66.9064H280.568ZM288.127 81.6721C287.052 81.6721 286.126 81.4424 285.35 80.9832C284.578 80.5191 283.981 79.8681 283.56 79.03C283.143 78.1872 282.935 77.2 282.935 76.0684C282.935 74.951 283.143 73.9661 283.56 73.1138C283.981 72.2616 284.569 71.5963 285.321 71.1181C286.079 70.6399 286.964 70.4008 287.978 70.4008C288.593 70.4008 289.19 70.5026 289.767 70.7062C290.345 70.9098 290.864 71.2294 291.323 71.665C291.782 72.1006 292.144 72.6664 292.409 73.3624C292.675 74.0537 292.807 74.8941 292.807 75.8837V76.6366H284.135V75.0457H290.726C290.726 74.4869 290.613 73.9922 290.385 73.5613C290.158 73.1257 289.838 72.7824 289.427 72.5314C289.019 72.2805 288.541 72.155 287.992 72.155C287.395 72.155 286.874 72.3018 286.429 72.5954C285.989 72.8842 285.648 73.263 285.407 73.7317C285.17 74.1957 285.052 74.7 285.052 75.2445V76.4874C285.052 77.2166 285.179 77.8368 285.435 78.3482C285.695 78.8596 286.058 79.2502 286.522 79.5201C286.986 79.7852 287.528 79.9178 288.148 79.9178C288.551 79.9178 288.918 79.861 289.249 79.7474C289.58 79.629 289.867 79.4538 290.108 79.2218C290.35 78.9898 290.534 78.7033 290.662 78.3624L292.672 78.7246C292.511 79.3165 292.222 79.835 291.806 80.28C291.394 80.7204 290.875 81.0636 290.25 81.3099C289.63 81.5513 288.922 81.6721 288.127 81.6721Z" fill="#D2E5F3"/>
<path d="M137.61 39.0926H135.394C135.309 38.6191 135.15 38.2025 134.918 37.8426C134.686 37.4828 134.402 37.1774 134.066 36.9264C133.73 36.6755 133.354 36.4861 132.937 36.3582C132.525 36.2304 132.087 36.1665 131.623 36.1665C130.785 36.1665 130.034 36.3772 129.371 36.7986C128.713 37.22 128.193 37.8379 127.809 38.6523C127.43 39.4667 127.241 40.461 127.241 41.6352C127.241 42.8189 127.43 43.818 127.809 44.6324C128.193 45.4468 128.716 46.0623 129.379 46.479C130.041 46.8956 130.787 47.104 131.616 47.104C132.075 47.104 132.511 47.0424 132.923 46.9193C133.339 46.7915 133.716 46.6045 134.052 46.3582C134.388 46.112 134.672 45.8114 134.904 45.4563C135.141 45.0964 135.304 44.6845 135.394 44.2205L137.61 44.2276C137.492 44.9425 137.262 45.6007 136.921 46.202C136.585 46.7986 136.152 47.3147 135.621 47.7503C135.096 48.1812 134.495 48.515 133.818 48.7517C133.14 48.9885 132.402 49.1068 131.602 49.1068C130.342 49.1068 129.22 48.8085 128.235 48.2119C127.25 47.6106 126.474 46.7512 125.906 45.6338C125.342 44.5164 125.06 43.1835 125.06 41.6352C125.06 40.0822 125.345 38.7493 125.913 37.6367C126.481 36.5192 127.257 35.6622 128.242 35.0656C129.227 34.4643 130.347 34.1636 131.602 34.1636C132.373 34.1636 133.093 34.2749 133.761 34.4974C134.433 34.7153 135.037 35.0372 135.572 35.4634C136.107 35.8848 136.55 36.4009 136.9 37.0117C137.25 37.6177 137.487 38.3114 137.61 39.0926ZM144.661 49.1281C143.638 49.1281 142.746 48.8938 141.983 48.425C141.221 47.9563 140.629 47.3005 140.208 46.4577C139.786 45.6149 139.576 44.63 139.576 43.5031C139.576 42.3715 139.786 41.3819 140.208 40.5344C140.629 39.6868 141.221 39.0287 141.983 38.5599C142.746 38.0912 143.638 37.8568 144.661 37.8568C145.684 37.8568 146.576 38.0912 147.338 38.5599C148.101 39.0287 148.693 39.6868 149.114 40.5344C149.535 41.3819 149.746 42.3715 149.746 43.5031C149.746 44.63 149.535 45.6149 149.114 46.4577C148.693 47.3005 148.101 47.9563 147.338 48.425C146.576 48.8938 145.684 49.1281 144.661 49.1281ZM144.668 47.3455C145.331 47.3455 145.88 47.1703 146.316 46.8199C146.751 46.4695 147.073 46.0031 147.282 45.4207C147.495 44.8384 147.601 44.1968 147.601 43.496C147.601 42.8 147.495 42.1608 147.282 41.5784C147.073 40.9913 146.751 40.5202 146.316 40.1651C145.88 39.8099 145.331 39.6324 144.668 39.6324C144 39.6324 143.446 39.8099 143.006 40.1651C142.57 40.5202 142.246 40.9913 142.033 41.5784C141.825 42.1608 141.721 42.8 141.721 43.496C141.721 44.1968 141.825 44.8384 142.033 45.4207C142.246 46.0031 142.57 46.4695 143.006 46.8199C143.446 47.1703 144 47.3455 144.668 47.3455ZM154.24 42.4307V48.908H152.117V37.9989H154.155V39.7744H154.29C154.541 39.1968 154.934 38.7328 155.469 38.3824C156.009 38.032 156.688 37.8568 157.507 37.8568C158.251 37.8568 158.902 38.0131 159.46 38.3256C160.019 38.6333 160.452 39.0926 160.76 39.7034C161.068 40.3142 161.222 41.0694 161.222 41.969V48.908H159.098V42.2247C159.098 41.434 158.892 40.8161 158.48 40.371C158.068 39.9212 157.502 39.6963 156.783 39.6963C156.29 39.6963 155.852 39.8028 155.469 40.0159C155.09 40.229 154.789 40.5415 154.567 40.9534C154.349 41.3606 154.24 41.853 154.24 42.4307ZM173.011 37.9989L169.055 48.908H166.783L162.82 37.9989H165.099L167.862 46.3938H167.976L170.732 37.9989H173.011ZM179.338 49.1281C178.263 49.1281 177.337 48.8985 176.561 48.4392C175.789 47.9752 175.192 47.3242 174.771 46.4861C174.354 45.6433 174.146 44.6561 174.146 43.5244C174.146 42.407 174.354 41.4222 174.771 40.5699C175.192 39.7176 175.78 39.0524 176.532 38.5742C177.29 38.0959 178.175 37.8568 179.189 37.8568C179.804 37.8568 180.401 37.9586 180.978 38.1622C181.556 38.3658 182.075 38.6854 182.534 39.121C182.993 39.5566 183.355 40.1224 183.62 40.8185C183.886 41.5098 184.018 42.3502 184.018 43.3398V44.0926H175.346V42.5017H181.937C181.937 41.943 181.824 41.4482 181.596 41.0173C181.369 40.5817 181.049 40.2385 180.637 39.9875C180.23 39.7366 179.752 39.6111 179.203 39.6111C178.606 39.6111 178.085 39.7579 177.64 40.0514C177.2 40.3403 176.859 40.719 176.618 41.1878C176.381 41.6518 176.262 42.1561 176.262 42.7006V43.9435C176.262 44.6726 176.39 45.2929 176.646 45.8043C176.906 46.3156 177.269 46.7063 177.733 46.9761C178.197 47.2413 178.739 47.3739 179.359 47.3739C179.762 47.3739 180.128 47.317 180.46 47.2034C180.791 47.085 181.078 46.9099 181.319 46.6778C181.561 46.4458 181.745 46.1594 181.873 45.8185L183.883 46.1807C183.722 46.7725 183.433 47.291 183.017 47.7361C182.605 48.1764 182.086 48.5197 181.461 48.7659C180.841 49.0074 180.133 49.1281 179.338 49.1281ZM188.498 42.4307V48.908H186.374V37.9989H188.413V39.7744H188.548C188.799 39.1968 189.192 38.7328 189.727 38.3824C190.266 38.032 190.946 37.8568 191.765 37.8568C192.508 37.8568 193.159 38.0131 193.718 38.3256C194.277 38.6333 194.71 39.0926 195.018 39.7034C195.326 40.3142 195.479 41.0694 195.479 41.969V48.908H193.356V42.2247C193.356 41.434 193.15 40.8161 192.738 40.371C192.326 39.9212 191.76 39.6963 191.041 39.6963C190.548 39.6963 190.11 39.8028 189.727 40.0159C189.348 40.229 189.047 40.5415 188.825 40.9534C188.607 41.3606 188.498 41.853 188.498 42.4307ZM203.42 37.9989V39.7034H197.461V37.9989H203.42ZM199.059 35.3852H201.183V45.7048C201.183 46.1168 201.244 46.4269 201.367 46.6352C201.49 46.8388 201.649 46.9785 201.843 47.0543C202.042 47.1253 202.257 47.1608 202.489 47.1608C202.66 47.1608 202.809 47.149 202.937 47.1253C203.065 47.1016 203.164 47.0827 203.235 47.0685L203.619 48.8227C203.496 48.8701 203.32 48.9174 203.093 48.9648C202.866 49.0169 202.582 49.0453 202.241 49.05C201.682 49.0595 201.161 48.96 200.678 48.7517C200.195 48.5434 199.805 48.2214 199.506 47.7858C199.208 47.3502 199.059 46.8033 199.059 46.1452V35.3852ZM205.769 48.908V37.9989H207.892V48.908H205.769ZM206.841 36.3156C206.472 36.3156 206.155 36.1925 205.89 35.9463C205.629 35.6954 205.499 35.3971 205.499 35.0514C205.499 34.701 205.629 34.4028 205.89 34.1565C206.155 33.9056 206.472 33.7801 206.841 33.7801C207.211 33.7801 207.525 33.9056 207.786 34.1565C208.051 34.4028 208.184 34.701 208.184 35.0514C208.184 35.3971 208.051 35.6954 207.786 35.9463C207.525 36.1925 207.211 36.3156 206.841 36.3156ZM215.345 49.1281C214.322 49.1281 213.429 48.8938 212.667 48.425C211.905 47.9563 211.313 47.3005 210.891 46.4577C210.47 45.6149 210.259 44.63 210.259 43.5031C210.259 42.3715 210.47 41.3819 210.891 40.5344C211.313 39.6868 211.905 39.0287 212.667 38.5599C213.429 38.0912 214.322 37.8568 215.345 37.8568C216.367 37.8568 217.26 38.0912 218.022 38.5599C218.784 39.0287 219.376 39.6868 219.798 40.5344C220.219 41.3819 220.43 42.3715 220.43 43.5031C220.43 44.63 220.219 45.6149 219.798 46.4577C219.376 47.3005 218.784 47.9563 218.022 48.425C217.26 48.8938 216.367 49.1281 215.345 49.1281ZM215.352 47.3455C216.014 47.3455 216.564 47.1703 216.999 46.8199C217.435 46.4695 217.757 46.0031 217.965 45.4207C218.178 44.8384 218.285 44.1968 218.285 43.496C218.285 42.8 218.178 42.1608 217.965 41.5784C217.757 40.9913 217.435 40.5202 216.999 40.1651C216.564 39.8099 216.014 39.6324 215.352 39.6324C214.684 39.6324 214.13 39.8099 213.69 40.1651C213.254 40.5202 212.93 40.9913 212.717 41.5784C212.508 42.1608 212.404 42.8 212.404 43.496C212.404 44.1968 212.508 44.8384 212.717 45.4207C212.93 46.0031 213.254 46.4695 213.69 46.8199C214.13 47.1703 214.684 47.3455 215.352 47.3455ZM224.924 42.4307V48.908H222.8V37.9989H224.838V39.7744H224.973C225.224 39.1968 225.617 38.7328 226.152 38.3824C226.692 38.032 227.372 37.8568 228.191 37.8568C228.934 37.8568 229.585 38.0131 230.144 38.3256C230.703 38.6333 231.136 39.0926 231.444 39.7034C231.751 40.3142 231.905 41.0694 231.905 41.969V48.908H229.782V42.2247C229.782 41.434 229.576 40.8161 229.164 40.371C228.752 39.9212 228.186 39.6963 227.466 39.6963C226.974 39.6963 226.536 39.8028 226.152 40.0159C225.774 40.229 225.473 40.5415 225.25 40.9534C225.033 41.3606 224.924 41.853 224.924 42.4307ZM237.928 49.1494C237.237 49.1494 236.612 49.0216 236.053 48.7659C235.494 48.5055 235.052 48.1291 234.725 47.6367C234.403 47.1442 234.242 46.5405 234.242 45.8256C234.242 45.21 234.36 44.7034 234.597 44.3057C234.834 43.908 235.153 43.5931 235.556 43.3611C235.958 43.1291 236.408 42.9539 236.905 42.8355C237.402 42.7171 237.909 42.6272 238.425 42.5656C239.079 42.4899 239.609 42.4283 240.016 42.381C240.423 42.3289 240.719 42.246 240.904 42.1324C241.088 42.0188 241.181 41.8341 241.181 41.5784V41.5287C241.181 40.9084 241.006 40.4278 240.655 40.0869C240.31 39.746 239.793 39.5756 239.107 39.5756C238.392 39.5756 237.829 39.7342 237.417 40.0514C237.009 40.3639 236.728 40.7119 236.571 41.0955L234.576 40.6409C234.812 39.978 235.158 39.443 235.613 39.0358C236.072 38.6239 236.6 38.3256 237.196 38.1409C237.793 37.9515 238.42 37.8568 239.079 37.8568C239.514 37.8568 239.976 37.9089 240.463 38.0131C240.956 38.1125 241.415 38.2972 241.841 38.567C242.272 38.8369 242.625 39.2228 242.9 39.7247C243.174 40.2219 243.311 40.8682 243.311 41.6636V48.908H241.238V47.4165H241.152C241.015 47.6911 240.809 47.961 240.534 48.2261C240.26 48.4913 239.907 48.7115 239.476 48.8867C239.045 49.0618 238.529 49.1494 237.928 49.1494ZM238.39 47.4449C238.977 47.4449 239.479 47.3289 239.895 47.0969C240.317 46.8649 240.636 46.5618 240.854 46.1878C241.077 45.809 241.188 45.4042 241.188 44.9733V43.567C241.112 43.6428 240.965 43.7138 240.748 43.7801C240.534 43.8417 240.291 43.8961 240.016 43.9435C239.741 43.9861 239.474 44.0263 239.213 44.0642C238.953 44.0974 238.735 44.1258 238.56 44.1494C238.148 44.2015 237.772 44.2891 237.431 44.4122C237.095 44.5353 236.825 44.7129 236.621 44.9449C236.422 45.1722 236.323 45.4752 236.323 45.854C236.323 46.3795 236.517 46.7773 236.905 47.0472C237.293 47.3123 237.788 47.4449 238.39 47.4449ZM248.264 34.3625V48.908H246.14V34.3625H248.264ZM256.413 48.908V37.9989H258.452V39.7744H258.587C258.814 39.1731 259.186 38.7044 259.702 38.3682C260.218 38.0273 260.836 37.8568 261.555 37.8568C262.285 37.8568 262.895 38.0273 263.388 38.3682C263.885 38.7091 264.252 39.1778 264.489 39.7744H264.602C264.863 39.192 265.277 38.728 265.845 38.3824C266.413 38.032 267.09 37.8568 267.876 37.8568C268.866 37.8568 269.673 38.167 270.298 38.7872C270.928 39.4075 271.243 40.3426 271.243 41.5926V48.908H269.119V41.7915C269.119 41.0528 268.918 40.5178 268.516 40.1864C268.113 39.8549 267.633 39.6892 267.074 39.6892C266.383 39.6892 265.845 39.9023 265.462 40.3284C265.078 40.7498 264.886 41.292 264.886 41.9548V48.908H262.77V41.6565C262.77 41.0647 262.585 40.5888 262.216 40.229C261.847 39.8691 261.366 39.6892 260.774 39.6892C260.372 39.6892 260 39.7957 259.659 40.0088C259.323 40.2171 259.051 40.5083 258.842 40.8824C258.639 41.2564 258.537 41.6897 258.537 42.1821V48.908H256.413ZM278.791 49.1281C277.716 49.1281 276.79 48.8985 276.014 48.4392C275.242 47.9752 274.646 47.3242 274.224 46.4861C273.807 45.6433 273.599 44.6561 273.599 43.5244C273.599 42.407 273.807 41.4222 274.224 40.5699C274.646 39.7176 275.233 39.0524 275.985 38.5742C276.743 38.0959 277.628 37.8568 278.642 37.8568C279.257 37.8568 279.854 37.9586 280.432 38.1622C281.009 38.3658 281.528 38.6854 281.987 39.121C282.446 39.5566 282.808 40.1224 283.074 40.8185C283.339 41.5098 283.471 42.3502 283.471 43.3398V44.0926H274.799V42.5017H281.39C281.39 41.943 281.277 41.4482 281.049 41.0173C280.822 40.5817 280.503 40.2385 280.091 39.9875C279.683 39.7366 279.205 39.6111 278.656 39.6111C278.059 39.6111 277.539 39.7579 277.093 40.0514C276.653 40.3403 276.312 40.719 276.071 41.1878C275.834 41.6518 275.716 42.1561 275.716 42.7006V43.9435C275.716 44.6726 275.843 45.2929 276.099 45.8043C276.36 46.3156 276.722 46.7063 277.186 46.9761C277.65 47.2413 278.192 47.3739 278.812 47.3739C279.215 47.3739 279.582 47.317 279.913 47.2034C280.244 47.085 280.531 46.9099 280.772 46.6778C281.014 46.4458 281.199 46.1594 281.326 45.8185L283.336 46.1807C283.175 46.7725 282.887 47.291 282.47 47.7361C282.058 48.1764 281.539 48.5197 280.914 48.7659C280.294 49.0074 279.586 49.1281 278.791 49.1281ZM290.92 37.9989V39.7034H284.961V37.9989H290.92ZM286.559 35.3852H288.683V45.7048C288.683 46.1168 288.744 46.4269 288.867 46.6352C288.99 46.8388 289.149 46.9785 289.343 47.0543C289.542 47.1253 289.757 47.1608 289.989 47.1608C290.16 47.1608 290.309 47.149 290.437 47.1253C290.565 47.1016 290.664 47.0827 290.735 47.0685L291.119 48.8227C290.996 48.8701 290.82 48.9174 290.593 48.9648C290.366 49.0169 290.082 49.0453 289.741 49.05C289.182 49.0595 288.661 48.96 288.178 48.7517C287.695 48.5434 287.305 48.2214 287.006 47.7858C286.708 47.3502 286.559 46.8033 286.559 46.1452V35.3852ZM295.627 42.4307V48.908H293.503V34.3625H295.598V39.7744H295.733C295.989 39.1873 296.38 38.7209 296.905 38.3753C297.431 38.0296 298.117 37.8568 298.965 37.8568C299.713 37.8568 300.366 38.0107 300.925 38.3185C301.489 38.6262 301.924 39.0855 302.232 39.6963C302.544 40.3024 302.701 41.0599 302.701 41.969V48.908H300.577V42.2247C300.577 41.4245 300.371 40.8043 299.959 40.3639C299.547 39.9188 298.974 39.6963 298.24 39.6963C297.739 39.6963 297.289 39.8028 296.891 40.0159C296.498 40.229 296.188 40.5415 295.961 40.9534C295.738 41.3606 295.627 41.853 295.627 42.4307ZM310.13 49.1281C309.107 49.1281 308.214 48.8938 307.452 48.425C306.69 47.9563 306.098 47.3005 305.677 46.4577C305.255 45.6149 305.044 44.63 305.044 43.5031C305.044 42.3715 305.255 41.3819 305.677 40.5344C306.098 39.6868 306.69 39.0287 307.452 38.5599C308.214 38.0912 309.107 37.8568 310.13 37.8568C311.152 37.8568 312.045 38.0912 312.807 38.5599C313.57 39.0287 314.161 39.6868 314.583 40.5344C315.004 41.3819 315.215 42.3715 315.215 43.5031C315.215 44.63 315.004 45.6149 314.583 46.4577C314.161 47.3005 313.57 47.9563 312.807 48.425C312.045 48.8938 311.152 49.1281 310.13 49.1281ZM310.137 47.3455C310.8 47.3455 311.349 47.1703 311.784 46.8199C312.22 46.4695 312.542 46.0031 312.75 45.4207C312.963 44.8384 313.07 44.1968 313.07 43.496C313.07 42.8 312.963 42.1608 312.75 41.5784C312.542 40.9913 312.22 40.5202 311.784 40.1651C311.349 39.8099 310.8 39.6324 310.137 39.6324C309.469 39.6324 308.915 39.8099 308.475 40.1651C308.039 40.5202 307.715 40.9913 307.502 41.5784C307.293 42.1608 307.189 42.8 307.189 43.496C307.189 44.1968 307.293 44.8384 307.502 45.4207C307.715 46.0031 308.039 46.4695 308.475 46.8199C308.915 47.1703 309.469 47.3455 310.137 47.3455ZM321.669 49.121C320.788 49.121 320.002 48.8961 319.311 48.4463C318.625 47.9918 318.085 47.3455 317.692 46.5074C317.304 45.6646 317.109 44.6537 317.109 43.4747C317.109 42.2957 317.306 41.2872 317.699 40.4492C318.097 39.6111 318.641 38.9695 319.332 38.5244C320.024 38.0794 320.807 37.8568 321.683 37.8568C322.36 37.8568 322.905 37.9705 323.317 38.1977C323.733 38.4203 324.055 38.6807 324.283 38.979C324.515 39.2773 324.695 39.5401 324.822 39.7673H324.95V34.3625H327.074V48.908H325V47.2105H324.822C324.695 47.4425 324.51 47.7077 324.269 48.006C324.032 48.3043 323.705 48.5647 323.288 48.7872C322.872 49.0098 322.332 49.121 321.669 49.121ZM322.138 47.3099C322.749 47.3099 323.265 47.149 323.686 46.827C324.112 46.5003 324.434 46.0481 324.652 45.4705C324.875 44.8928 324.986 44.2205 324.986 43.4534C324.986 42.6958 324.877 42.033 324.659 41.4648C324.441 40.8966 324.122 40.4539 323.7 40.1367C323.279 39.8194 322.758 39.6608 322.138 39.6608C321.499 39.6608 320.966 39.8265 320.54 40.158C320.114 40.4894 319.792 40.9416 319.574 41.5145C319.361 42.0874 319.254 42.7337 319.254 43.4534C319.254 44.1826 319.363 44.8384 319.581 45.4207C319.799 46.0031 320.121 46.4648 320.547 46.8057C320.978 47.1419 321.508 47.3099 322.138 47.3099ZM338.28 40.6622L336.355 41.0031C336.274 40.7569 336.146 40.5225 335.971 40.3C335.801 40.0775 335.569 39.8952 335.275 39.7531C334.982 39.6111 334.615 39.5401 334.174 39.5401C333.573 39.5401 333.071 39.675 332.669 39.9449C332.266 40.21 332.065 40.5533 332.065 40.9747C332.065 41.3393 332.2 41.6329 332.47 41.8554C332.74 42.0779 333.175 42.2602 333.777 42.4023L335.51 42.8C336.513 43.032 337.262 43.3895 337.754 43.8724C338.246 44.3554 338.493 44.9828 338.493 45.7545C338.493 46.408 338.303 46.9903 337.924 47.5017C337.55 48.0083 337.027 48.4061 336.355 48.6949C335.687 48.9837 334.913 49.1281 334.032 49.1281C332.811 49.1281 331.814 48.8677 331.042 48.3469C330.271 47.8213 329.797 47.0756 329.622 46.1097L331.674 45.7972C331.802 46.3322 332.065 46.737 332.463 47.0117C332.86 47.2815 333.379 47.4165 334.018 47.4165C334.714 47.4165 335.271 47.2721 335.687 46.9832C336.104 46.6897 336.312 46.3322 336.312 45.9108C336.312 45.5699 336.184 45.2834 335.929 45.0514C335.678 44.8194 335.292 44.6442 334.771 44.5259L332.924 44.121C331.906 43.889 331.154 43.5197 330.666 43.0131C330.183 42.5064 329.941 41.8649 329.941 41.0884C329.941 40.4444 330.121 39.881 330.481 39.398C330.841 38.9151 331.338 38.5386 331.973 38.2688C332.607 37.9941 333.334 37.8568 334.153 37.8568C335.332 37.8568 336.26 38.1125 336.937 38.6239C337.614 39.1305 338.062 39.8099 338.28 40.6622Z" fill="#D09E82"/>
<path d="M6.8022 299.202L21.3477 299.202L21.3477 301.219L10.68 308.612L10.68 308.747L21.3477 308.747L21.3477 310.942L6.8022 310.942L6.8022 308.911L17.484 301.51L17.484 301.375L6.8022 301.375L6.8022 299.202ZM16.8235 289.26L10.4386 289.26L10.4386 287.13L21.3477 287.13L21.3477 289.218L19.4585 289.218L19.4585 289.331C20.0408 289.582 20.5262 289.985 20.9144 290.539C21.2979 291.088 21.4897 291.772 21.4897 292.591C21.4897 293.292 21.3358 293.912 21.0281 294.452C20.7156 294.987 20.2539 295.409 19.6431 295.716C19.0323 296.019 18.2771 296.171 17.3775 296.171L10.4386 296.171L10.4386 294.047L17.1218 294.047C17.8652 294.047 18.457 293.841 18.8974 293.429C19.3377 293.017 19.5579 292.482 19.5579 291.824C19.5579 291.427 19.4585 291.031 19.2596 290.638C19.0607 290.24 18.7601 289.911 18.3576 289.651C17.9551 289.386 17.4438 289.256 16.8235 289.26ZM21.3477 284.276L10.4386 284.276L10.4386 282.238L12.2141 282.238L12.2141 282.103C11.6128 281.876 11.1441 281.504 10.8079 280.988C10.467 280.472 10.2965 279.854 10.2965 279.134C10.2965 278.405 10.467 277.794 10.8079 277.302C11.1488 276.805 11.6175 276.438 12.2141 276.201L12.2141 276.087C11.6317 275.827 11.1677 275.413 10.8221 274.844C10.4717 274.276 10.2965 273.599 10.2965 272.813C10.2965 271.824 10.6067 271.016 11.2269 270.391C11.8472 269.762 12.7823 269.447 14.0323 269.447L21.3477 269.447L21.3477 271.57L14.2312 271.57C13.4925 271.57 12.9575 271.772 12.6261 272.174C12.2946 272.576 12.1289 273.057 12.1289 273.616C12.1289 274.307 12.342 274.844 12.7681 275.228C13.1895 275.612 13.7317 275.803 14.3945 275.803L21.3477 275.803L21.3477 277.92L14.0962 277.92C13.5044 277.92 13.0285 278.104 12.6687 278.474C12.3088 278.843 12.1289 279.324 12.1289 279.916C12.1289 280.318 12.2354 280.69 12.4485 281.031C12.6568 281.367 12.948 281.639 13.3221 281.847C13.6961 282.051 14.1294 282.153 14.6218 282.153L21.3477 282.153L21.3477 284.276ZM21.3477 266.43L6.8022 266.43L6.8022 264.306L12.207 264.306L12.207 264.179C11.9798 264.056 11.717 263.878 11.4187 263.646C11.1204 263.414 10.86 263.092 10.6374 262.68C10.4102 262.268 10.2965 261.724 10.2965 261.047C10.2965 260.166 10.5191 259.38 10.9641 258.689C11.4092 257.997 12.0508 257.455 12.8888 257.062C13.7269 256.664 14.7354 256.466 15.9144 256.466C17.0934 256.466 18.1043 256.662 18.9471 257.055C19.7852 257.448 20.4315 257.988 20.886 258.674C21.3358 259.361 21.5607 260.145 21.5607 261.025C21.5607 261.688 21.4495 262.23 21.2269 262.652C21.0044 263.068 20.744 263.395 20.4457 263.632C20.1474 263.869 19.8822 264.051 19.6502 264.179L19.6502 264.356L21.3477 264.356L21.3477 266.43ZM15.8931 264.349C16.6602 264.349 17.3325 264.238 17.9102 264.015C18.4878 263.793 18.94 263.471 19.2667 263.049C19.5887 262.628 19.7496 262.112 19.7496 261.501C19.7496 260.867 19.5816 260.336 19.2454 259.91C18.9045 259.484 18.4428 259.162 17.8604 258.944C17.2781 258.722 16.6223 258.61 15.8931 258.61C15.1734 258.61 14.5271 258.719 13.9542 258.937C13.3813 259.15 12.9291 259.472 12.5977 259.903C12.2662 260.329 12.1005 260.862 12.1005 261.501C12.1005 262.117 12.2591 262.637 12.5763 263.064C12.8936 263.485 13.3363 263.805 13.9045 264.022C14.4727 264.24 15.1355 264.349 15.8931 264.349ZM21.5678 249.379C21.5678 250.454 21.3382 251.38 20.8789 252.156C20.4149 252.928 19.7638 253.525 18.9258 253.946C18.083 254.363 17.0958 254.571 15.9641 254.571C14.8467 254.571 13.8619 254.363 13.0096 253.946C12.1573 253.525 11.4921 252.938 11.0138 252.185C10.5356 251.427 10.2965 250.542 10.2965 249.528C10.2965 248.913 10.3983 248.316 10.6019 247.739C10.8055 247.161 11.1251 246.643 11.5607 246.183C11.9963 245.724 12.5621 245.362 13.2582 245.097C13.9495 244.831 14.7899 244.699 15.7795 244.699L16.5323 244.699L16.5323 253.371L14.9414 253.371L14.9414 246.78C14.3827 246.78 13.8879 246.893 13.457 247.121C13.0214 247.348 12.6781 247.668 12.4272 248.08C12.1763 248.487 12.0508 248.965 12.0508 249.514C12.0508 250.111 12.1976 250.632 12.4911 251.077C12.7799 251.517 13.1587 251.858 13.6275 252.099C14.0915 252.336 14.5958 252.455 15.1403 252.455L16.3832 252.455C17.1123 252.455 17.7326 252.327 18.244 252.071C18.7553 251.811 19.1459 251.448 19.4158 250.984C19.681 250.52 19.8136 249.978 19.8136 249.358C19.8136 248.956 19.7567 248.589 19.6431 248.257C19.5247 247.926 19.3495 247.639 19.1175 247.398C18.8855 247.156 18.5991 246.972 18.2582 246.844L18.6204 244.834C19.2122 244.995 19.7307 245.284 20.1758 245.7C20.6161 246.112 20.9594 246.631 21.2056 247.256C21.4471 247.876 21.5678 248.584 21.5678 249.379ZM21.3477 242.343L10.4386 242.343L10.4386 240.29L12.1715 240.29L12.1715 240.177C11.5844 239.978 11.1227 239.627 10.7866 239.125C10.4457 238.619 10.2752 238.046 10.2752 237.407C10.2752 237.274 10.2799 237.118 10.2894 236.938C10.2989 236.753 10.3107 236.609 10.3249 236.505L12.3562 236.505C12.3325 236.59 12.3065 236.741 12.2781 236.959C12.2449 237.177 12.2283 237.395 12.2283 237.613C12.2283 238.114 12.3349 238.562 12.5479 238.955C12.7563 239.343 13.0475 239.651 13.4215 239.878C13.7908 240.105 14.2122 240.219 14.6857 240.219L21.3477 240.219L21.3477 242.343ZM21.5678 224.779C21.5678 225.802 21.3334 226.694 20.8647 227.456C20.3959 228.219 19.7402 228.811 18.8974 229.232C18.0546 229.653 17.0697 229.864 15.9428 229.864C14.8112 229.864 13.8216 229.653 12.9741 229.232C12.1265 228.811 11.4684 228.219 10.9996 227.456C10.5309 226.694 10.2965 225.802 10.2965 224.779C10.2965 223.756 10.5309 222.864 10.9996 222.101C11.4684 221.339 12.1265 220.747 12.9741 220.326C13.8216 219.904 14.8112 219.694 15.9428 219.694C17.0697 219.694 18.0546 219.904 18.8974 220.326C19.7402 220.747 20.3959 221.339 20.8647 222.101C21.3334 222.864 21.5678 223.756 21.5678 224.779ZM19.7852 224.772C19.7852 224.109 19.61 223.56 19.2596 223.124C18.9092 222.688 18.4428 222.366 17.8604 222.158C17.278 221.945 16.6365 221.838 15.9357 221.838C15.2397 221.838 14.6005 221.945 14.0181 222.158C13.431 222.366 12.9599 222.688 12.6048 223.124C12.2496 223.56 12.0721 224.109 12.0721 224.772C12.0721 225.439 12.2496 225.993 12.6048 226.434C12.9599 226.869 13.431 227.194 14.0181 227.407C14.6005 227.615 15.2397 227.719 15.9357 227.719C16.6365 227.719 17.2781 227.615 17.8604 227.407C18.4428 227.194 18.9092 226.869 19.2596 226.434C19.61 225.993 19.7852 225.439 19.7852 224.772ZM10.4386 212.131L12.1431 212.131L12.1431 218.296L10.4386 218.296L10.4386 212.131ZM21.3477 216.606L9.17436 216.606C8.49254 216.606 7.92672 216.457 7.47691 216.158C7.02237 215.86 6.68383 215.465 6.46129 214.972C6.23401 214.48 6.12038 213.945 6.12038 213.367C6.12038 212.941 6.15589 212.576 6.22691 212.273C6.2932 211.97 6.35475 211.746 6.41157 211.599L8.13032 212.096C8.10191 212.195 8.06877 212.323 8.03089 212.479C7.98828 212.636 7.96697 212.825 7.96697 213.048C7.96697 213.564 8.09481 213.933 8.35049 214.156C8.60617 214.373 8.97549 214.482 9.45845 214.482L21.3477 214.482L21.3477 216.606ZM25.4386 204.647L10.4386 204.647L10.4386 202.574L12.207 202.574L12.207 202.396C11.9798 202.273 11.717 202.095 11.4187 201.863C11.1204 201.631 10.86 201.309 10.6374 200.897C10.4102 200.485 10.2965 199.941 10.2965 199.264C10.2965 198.383 10.5191 197.597 10.9641 196.906C11.4092 196.215 12.0508 195.672 12.8888 195.279C13.7269 194.882 14.7354 194.683 15.9144 194.683C17.0934 194.683 18.1043 194.879 18.9471 195.272C19.7852 195.665 20.4315 196.205 20.886 196.892C21.3358 197.578 21.5607 198.362 21.5607 199.243C21.5607 199.905 21.4495 200.448 21.2269 200.869C21.0044 201.286 20.744 201.612 20.4457 201.849C20.1474 202.086 19.8822 202.268 19.6502 202.396L19.6502 202.524L25.4386 202.524L25.4386 204.647ZM15.8931 202.566C16.6602 202.566 17.3325 202.455 17.9102 202.233C18.4878 202.01 18.94 201.688 19.2667 201.267C19.5887 200.845 19.7496 200.329 19.7496 199.718C19.7496 199.084 19.5816 198.554 19.2454 198.128C18.9045 197.701 18.4428 197.379 17.8604 197.162C17.278 196.939 16.6223 196.828 15.8931 196.828C15.1734 196.828 14.5271 196.937 13.9542 197.154C13.3813 197.368 12.9291 197.69 12.5977 198.12C12.2662 198.547 12.1005 199.079 12.1005 199.718C12.1005 200.334 12.2591 200.855 12.5763 201.281C12.8936 201.702 13.3363 202.022 13.9045 202.24C14.4727 202.458 15.1355 202.566 15.8931 202.566ZM21.5891 189.129C21.5891 189.82 21.4613 190.445 21.2056 191.004C20.9452 191.563 20.5688 192.005 20.0763 192.332C19.5839 192.654 18.9802 192.815 18.2653 192.815C17.6497 192.815 17.1431 192.697 16.7454 192.46C16.3477 192.223 16.0328 191.904 15.8008 191.501C15.5688 191.099 15.3936 190.649 15.2752 190.152C15.1568 189.654 15.0669 189.148 15.0053 188.632C14.9296 187.978 14.868 187.448 14.8207 187.041C14.7686 186.634 14.6857 186.338 14.5721 186.153C14.4584 185.968 14.2738 185.876 14.0181 185.876L13.9684 185.876C13.3481 185.876 12.8675 186.051 12.5266 186.402C12.1857 186.747 12.0153 187.263 12.0153 187.95C12.0153 188.665 12.1739 189.228 12.4911 189.64C12.8036 190.047 13.1516 190.329 13.5352 190.485L13.0806 192.481C12.4177 192.244 11.8827 191.899 11.4755 191.444C11.0636 190.985 10.7653 190.457 10.5806 189.86C10.3912 189.264 10.2965 188.637 10.2965 187.978C10.2965 187.543 10.3486 187.081 10.4528 186.593C10.5522 186.101 10.7369 185.642 11.0067 185.216C11.2766 184.785 11.6625 184.432 12.1644 184.157C12.6616 183.883 13.3079 183.745 14.1033 183.745L21.3477 183.745L21.3477 185.819L19.8562 185.819L19.8562 185.904C20.1308 186.042 20.4007 186.248 20.6658 186.522C20.931 186.797 21.1512 187.15 21.3263 187.581C21.5015 188.012 21.5891 188.528 21.5891 189.129ZM19.8846 188.667C19.8846 188.08 19.7686 187.578 19.5366 187.162C19.3046 186.74 19.0015 186.421 18.6275 186.203C18.2487 185.98 17.8439 185.869 17.413 185.869L16.0067 185.869C16.0825 185.945 16.1535 186.092 16.2198 186.309C16.2814 186.522 16.3358 186.766 16.3832 187.041C16.4258 187.315 16.466 187.583 16.5039 187.843C16.537 188.104 16.5655 188.322 16.5891 188.497C16.6412 188.909 16.7288 189.285 16.8519 189.626C16.975 189.962 17.1526 190.232 17.3846 190.436C17.6119 190.635 17.9149 190.734 18.2937 190.734C18.8192 190.734 19.217 190.54 19.4869 190.152C19.752 189.763 19.8846 189.269 19.8846 188.667ZM21.3477 180.917L10.4386 180.917L10.4386 178.864L12.1715 178.864L12.1715 178.751C11.5844 178.552 11.1227 178.201 10.7866 177.7C10.4457 177.193 10.2752 176.62 10.2752 175.981C10.2752 175.848 10.2799 175.692 10.2894 175.512C10.2989 175.327 10.3107 175.183 10.3249 175.079L12.3562 175.079C12.3325 175.164 12.3065 175.316 12.278 175.533C12.2449 175.751 12.2283 175.969 12.2283 176.187C12.2283 176.689 12.3349 177.136 12.5479 177.529C12.7563 177.917 13.0475 178.225 13.4215 178.452C13.7908 178.68 14.2122 178.793 14.6857 178.793L21.3477 178.793L21.3477 180.917ZM10.4386 167.504L12.1431 167.504L12.1431 173.463L10.4386 173.463L10.4386 167.504ZM7.82492 171.865L7.82492 169.741L18.1445 169.741C18.5565 169.741 18.8666 169.68 19.0749 169.557C19.2785 169.434 19.4182 169.275 19.494 169.081C19.565 168.882 19.6005 168.667 19.6005 168.435C19.6005 168.264 19.5887 168.115 19.565 167.987C19.5413 167.859 19.5224 167.76 19.5082 167.689L21.2624 167.305C21.3098 167.429 21.3571 167.604 21.4045 167.831C21.4566 168.058 21.485 168.342 21.4897 168.683C21.4992 169.242 21.3997 169.763 21.1914 170.246C20.9831 170.729 20.6611 171.119 20.2255 171.418C19.7899 171.716 19.243 171.865 18.5849 171.865L7.82492 171.865ZM21.3476 165.155L10.4386 165.155L10.4386 163.032L21.3476 163.032L21.3476 165.155ZM8.75532 164.083C8.75532 164.452 8.63221 164.769 8.386 165.034C8.13505 165.295 7.83676 165.425 7.49111 165.425C7.14074 165.425 6.84244 165.295 6.59623 165.034C6.34528 164.769 6.21981 164.452 6.21981 164.083C6.21981 163.713 6.34528 163.399 6.59623 163.138C6.84244 162.873 7.14074 162.74 7.49111 162.74C7.83676 162.74 8.13505 162.873 8.386 163.138C8.63221 163.399 8.75532 163.713 8.75532 164.083ZM21.5678 155.58C21.5678 156.635 21.3287 157.545 20.8505 158.307C20.3675 159.064 19.7023 159.647 18.8548 160.054C18.0072 160.461 17.0366 160.665 15.9428 160.665C14.8349 160.665 13.8571 160.456 13.0096 160.04C12.1573 159.623 11.4921 159.036 11.0138 158.278C10.5356 157.521 10.2965 156.628 10.2965 155.601C10.2965 154.772 10.4504 154.034 10.7582 153.385C11.0612 152.736 11.4873 152.213 12.0366 151.815C12.5858 151.413 13.2274 151.174 13.9613 151.098L13.9613 153.165C13.4499 153.278 13.0096 153.539 12.6403 153.946C12.2709 154.349 12.0863 154.888 12.0863 155.565C12.0863 156.157 12.2425 156.676 12.555 157.121C12.8628 157.561 13.3031 157.904 13.8761 158.151C14.4442 158.397 15.1166 158.52 15.8931 158.52C16.6886 158.52 17.3751 158.399 17.9528 158.158C18.5304 157.916 18.9779 157.575 19.2951 157.135C19.6123 156.69 19.7709 156.167 19.7709 155.565C19.7709 155.163 19.6976 154.798 19.5508 154.472C19.3993 154.14 19.1838 153.863 18.9045 153.641C18.6251 153.413 18.2889 153.255 17.8959 153.165L17.8959 151.098C18.6014 151.174 19.2312 151.403 19.7851 151.787C20.3391 152.17 20.7747 152.684 21.092 153.328C21.4092 153.967 21.5678 154.718 21.5678 155.58ZM6.80219 146.704L21.3476 146.704L21.3476 148.827L6.80219 148.827L6.80219 146.704ZM21.5678 139.145C21.5678 140.22 21.3382 141.145 20.8789 141.922C20.4149 142.694 19.7638 143.29 18.9258 143.712C18.083 144.128 17.0958 144.337 15.9641 144.337C14.8467 144.337 13.8619 144.128 13.0096 143.712C12.1573 143.29 11.4921 142.703 11.0138 141.95C10.5356 141.193 10.2965 140.307 10.2965 139.294C10.2965 138.679 10.3983 138.082 10.6019 137.504C10.8055 136.927 11.1251 136.408 11.5607 135.949C11.9963 135.49 12.5621 135.127 13.2582 134.862C13.9494 134.597 14.7899 134.465 15.7795 134.465L16.5323 134.465L16.5323 143.136L14.9414 143.136L14.9414 136.545C14.3827 136.545 13.8879 136.659 13.457 136.886C13.0214 137.114 12.6781 137.433 12.4272 137.845C12.1762 138.252 12.0508 138.731 12.0508 139.28C12.0508 139.876 12.1976 140.397 12.4911 140.842C12.7799 141.283 13.1587 141.624 13.6275 141.865C14.0915 142.102 14.5958 142.22 15.1403 142.22L16.3832 142.22C17.1123 142.22 17.7326 142.092 18.244 141.837C18.7553 141.576 19.1459 141.214 19.4158 140.75C19.681 140.286 19.8136 139.744 19.8136 139.124C19.8136 138.721 19.7567 138.354 19.6431 138.023C19.5247 137.691 19.3495 137.405 19.1175 137.163C18.8855 136.922 18.5991 136.737 18.2582 136.609L18.6204 134.599C19.2122 134.76 19.7307 135.049 20.1758 135.466C20.6161 135.878 20.9594 136.396 21.2056 137.021C21.4471 137.642 21.5678 138.349 21.5678 139.145ZM13.1019 123.934L13.4428 125.858C13.1966 125.939 12.9622 126.067 12.7397 126.242C12.5172 126.412 12.3349 126.644 12.1928 126.938C12.0508 127.231 11.9798 127.598 11.9798 128.039C11.9798 128.64 12.1147 129.142 12.3846 129.544C12.6497 129.947 12.993 130.148 13.4144 130.148C13.779 130.148 14.0726 130.013 14.2951 129.743C14.5176 129.473 14.6999 129.038 14.842 128.436L15.2397 126.704C15.4717 125.7 15.8292 124.952 16.3121 124.459C16.7951 123.967 17.4225 123.721 18.1942 123.721C18.8476 123.721 19.43 123.91 19.9414 124.289C20.448 124.663 20.8458 125.186 21.1346 125.858C21.4234 126.526 21.5678 127.3 21.5678 128.181C21.5678 129.402 21.3074 130.399 20.7866 131.171C20.261 131.943 19.5153 132.416 18.5494 132.591L18.2369 130.539C18.7719 130.411 19.1767 130.148 19.4513 129.75C19.7212 129.353 19.8562 128.834 19.8562 128.195C19.8562 127.499 19.7118 126.943 19.4229 126.526C19.1294 126.109 18.7719 125.901 18.3505 125.901C18.0096 125.901 17.7231 126.029 17.4911 126.284C17.2591 126.535 17.0839 126.921 16.9655 127.442L16.5607 129.289C16.3287 130.307 15.9594 131.06 15.4528 131.547C14.9461 132.03 14.3046 132.272 13.528 132.272C12.8841 132.272 12.3207 132.092 11.8377 131.732C11.3548 131.372 10.9783 130.875 10.7084 130.24C10.4338 129.606 10.2965 128.879 10.2965 128.06C10.2965 126.881 10.5522 125.953 11.0636 125.276C11.5702 124.599 12.2496 124.151 13.1019 123.934Z" fill="white"/>
<path d="M91.8477 336.54C130.348 336.54 134.848 228.04 204.348 228.04C273.848 228.04 275.348 336.54 325.348 336.54" stroke="#D09E82" stroke-width="3"/>
<path d="M314.338 335.04C306.622 332.222 300.18 326.625 294.422 319.532C287.43 310.92 281.298 299.911 275.028 288.655L275.027 288.653C273.799 286.448 272.565 284.234 271.319 282.027C255.959 254.817 238.596 228.54 204.813 228.54C171.025 228.54 152.904 254.839 138.258 282.002C136.146 285.919 134.103 289.861 132.096 293.733C127.216 303.151 122.545 312.163 117.6 319.431C112.796 326.49 107.554 332.183 101.348 335.04H314.338Z" fill="url(#paint0_linear_784_659)"/>
<path d="M170.348 336.04C202.848 347.04 184.348 110.04 202.848 110.04C221.348 110.04 207.848 345.54 238.848 336.04" stroke="#12A5DB" stroke-width="3"/>
<path d="M232.301 336.04C230.54 334.614 229.051 332.412 227.76 329.701C225.03 323.969 222.916 315.373 221.22 304.977C217.822 284.138 216.022 255.509 214.617 226.675C214.245 219.061 213.902 211.431 213.563 203.923L213.563 203.922C212.618 182.956 211.716 162.935 210.378 146.812C209.469 135.858 208.364 126.785 206.927 120.473C206.205 117.305 205.422 114.936 204.593 113.392C203.715 111.756 203.066 111.54 202.802 111.54C202.556 111.54 201.924 111.739 201.08 113.383C200.285 114.934 199.552 117.316 198.897 120.504C197.591 126.853 196.674 135.979 195.987 146.993C195.004 162.746 194.502 182.191 193.974 202.595L193.974 202.597C193.764 210.707 193.551 218.969 193.302 227.21C192.427 256.138 191.113 284.818 187.973 305.592C186.407 315.953 184.366 324.499 181.62 330.143C180.411 332.629 179.009 334.671 177.348 336.04H232.301Z" fill="url(#paint1_linear_784_659)"/>
<rect x="91.5" y="64" width="19" height="19" fill="#12A5DB"/>
<rect x="91.5" y="31" width="19" height="19" fill="#D09E82"/>
<path d="M51.8904 0.636043L37.4906 25.6556L66.3581 25.6164L51.8904 0.636043ZM54.8477 337.536L54.421 23.1326L49.421 23.1394L49.8477 337.543L54.8477 337.536Z" fill="#F5F7FA"/>
<path d="M378.348 337.54L353.348 323.106V351.974L378.348 337.54ZM52.3477 340.04L355.848 340.04V335.04L52.3477 335.04V340.04Z" fill="#F5F7FA"/>
<defs>
<linearGradient id="paint0_linear_784_659" x1="207.843" y1="228.54" x2="207.843" y2="335.04" gradientUnits="userSpaceOnUse">
<stop stop-color="#92765C"/>
<stop offset="1" stop-color="#F0F0F0"/>
<stop offset="1" stop-color="#E6E6E6"/>
</linearGradient>
<linearGradient id="paint1_linear_784_659" x1="204.824" y1="111.54" x2="204.824" y2="336.04" gradientUnits="userSpaceOnUse">
<stop stop-color="#12A5DB"/>
<stop offset="1" stop-color="#E6E6E6"/>
</linearGradient>
</defs>
</svg>
