<svg width="269" height="99" viewBox="0 0 269 99" fill="none" xmlns="http://www.w3.org/2000/svg">
<path fill-rule="evenodd" clip-rule="evenodd" d="M55 54H218V55.6289C216.252 56.629 215 59.3278 215 62.5C215 65.6722 216.252 68.371 218 69.3711V71H55V69.3711C56.7478 68.371 58 65.6722 58 62.5C58 59.3278 56.7478 56.629 55 55.6289V54Z" fill="#455A64"/>
<path fill-rule="evenodd" clip-rule="evenodd" d="M55 28H218V29.6289C216.252 30.629 215 33.3278 215 36.5C215 39.6722 216.252 42.371 218 43.3711V45H55V43.3711C56.7478 42.371 58 39.6722 58 36.5C58 33.3278 56.7478 30.629 55 29.6289V28Z" fill="#455A64"/>
<rect x="51" y="17.5" width="171" height="12" rx="3" fill="url(#paint0_linear_887_2784)"/>
<rect x="51" y="43.5" width="171" height="12" rx="3" fill="url(#paint1_linear_887_2784)"/>
<rect x="51" y="69.5" width="171" height="12" rx="3" fill="url(#paint2_linear_887_2784)"/>
<rect y="81.5" width="269" height="17" fill="#D9D9D9"/>
<rect y="81.5" width="269" height="17" fill="url(#paint3_linear_887_2784)"/>
<path d="M42 79.5C42 69.0483 45.0878 64.0985 48.0821 62.6915C54.737 59.5644 64 62.9671 64 68.5448" stroke="#E6E6E6" stroke-width="3"/>
<path d="M15 77.5C18.6746 32.9887 24.5069 6.98515 40.5 2.06869C50.25 -0.928576 63 8.56278 63 15.5564" stroke="#E6E6E6" stroke-width="3"/>
<path fill-rule="evenodd" clip-rule="evenodd" d="M67.225 17.8124C67.2685 17.5273 67.2913 17.2322 67.2913 16.9301C67.2913 14.4936 65.8072 12.5185 63.9765 12.5185C62.1457 12.5185 60.6616 14.4936 60.6616 16.9301C60.6616 17.2322 60.6844 17.5273 60.7279 17.8124H67.225Z" fill="#E6E6E6"/>
<path fill-rule="evenodd" clip-rule="evenodd" d="M18.7509 81.6183C18.7944 81.3332 18.8172 81.0381 18.8172 80.736C18.8172 78.2995 17.3331 76.3244 15.5023 76.3244C13.6716 76.3244 12.1875 78.2995 12.1875 80.736C12.1875 81.0381 12.2103 81.3332 12.2538 81.6183H18.7509Z" fill="#E6E6E6"/>
<path fill-rule="evenodd" clip-rule="evenodd" d="M45.3876 81.7939C45.4311 81.5088 45.4539 81.2137 45.4539 80.9116C45.4539 78.4751 43.9698 76.5 42.1391 76.5C40.3083 76.5 38.8242 78.4751 38.8242 80.9116C38.8242 81.2137 38.847 81.5088 38.8905 81.7939H45.3876Z" fill="#E6E6E6"/>
<path fill-rule="evenodd" clip-rule="evenodd" d="M67.4267 69.7939C67.4702 69.5088 67.493 69.2137 67.493 68.9116C67.493 66.4751 66.0089 64.5 64.1781 64.5C62.3474 64.5 60.8633 66.4751 60.8633 68.9116C60.8633 69.2137 60.8861 69.5088 60.9296 69.7939H67.4267Z" fill="#E6E6E6"/>
<path d="M31 78.5C32.2925 63.6434 34.7808 42.8172 46.5517 37.8059C54.5172 34.4147 64 38.0796 64 43.6193" stroke="#E6E6E6" stroke-width="3"/>
<path fill-rule="evenodd" clip-rule="evenodd" d="M34.662 81.6183C34.7055 81.3332 34.7283 81.0381 34.7283 80.736C34.7283 78.2995 33.2442 76.3244 31.4135 76.3244C29.5827 76.3244 28.0986 78.2995 28.0986 80.736C28.0986 81.0381 28.1215 81.3332 28.1649 81.6183H34.662Z" fill="#E6E6E6"/>
<path fill-rule="evenodd" clip-rule="evenodd" d="M67.225 43.7957C67.2685 43.5106 67.2913 43.2156 67.2913 42.9134C67.2913 40.477 65.8072 38.5018 63.9765 38.5018C62.1457 38.5018 60.6616 40.477 60.6616 42.9134C60.6616 43.2156 60.6844 43.5106 60.7279 43.7957H67.225Z" fill="#E6E6E6"/>
<circle cx="83.6665" cy="36.5" r="7" fill="url(#paint4_radial_887_2784)"/>
<circle cx="135" cy="36.5" r="7" fill="url(#paint5_radial_887_2784)"/>
<circle cx="186.333" cy="36.5" r="7" fill="url(#paint6_radial_887_2784)"/>
<circle cx="109.333" cy="36.5" r="7" fill="url(#paint7_radial_887_2784)"/>
<circle cx="160.667" cy="36.5" r="7" fill="url(#paint8_radial_887_2784)"/>
<circle cx="83.6665" cy="62.5" r="7" fill="url(#paint9_radial_887_2784)"/>
<circle cx="135" cy="62.5" r="7" fill="url(#paint10_radial_887_2784)"/>
<circle cx="186.333" cy="62.5" r="7" fill="url(#paint11_radial_887_2784)"/>
<circle cx="109.333" cy="62.5" r="7" fill="url(#paint12_radial_887_2784)"/>
<circle cx="160.667" cy="62.5" r="7" fill="url(#paint13_radial_887_2784)"/>
<defs>
<linearGradient id="paint0_linear_887_2784" x1="136.5" y1="17.5" x2="136.5" y2="29.5" gradientUnits="userSpaceOnUse">
<stop offset="0.046875" stop-color="#D2E5F3"/>
<stop offset="1" stop-color="#A0A2A3"/>
</linearGradient>
<linearGradient id="paint1_linear_887_2784" x1="136.5" y1="43.5" x2="136.5" y2="55.5" gradientUnits="userSpaceOnUse">
<stop offset="0.046875" stop-color="#D2E5F3"/>
<stop offset="1" stop-color="#A0A2A3"/>
</linearGradient>
<linearGradient id="paint2_linear_887_2784" x1="136.5" y1="69.5" x2="136.5" y2="81.5" gradientUnits="userSpaceOnUse">
<stop offset="0.046875" stop-color="#D2E5F3"/>
<stop offset="1" stop-color="#A0A2A3"/>
</linearGradient>
<linearGradient id="paint3_linear_887_2784" x1="134.5" y1="81.5" x2="134.5" y2="98.5" gradientUnits="userSpaceOnUse">
<stop stop-color="#1B8842"/>
<stop offset="1" stop-color="#15779F"/>
</linearGradient>
<radialGradient id="paint4_radial_887_2784" cx="0" cy="0" r="1" gradientUnits="userSpaceOnUse" gradientTransform="translate(86.1204 34.3641) rotate(130.515) scale(8.45391)">
<stop stop-color="#D2F7E5"/>
<stop offset="1" stop-color="#A8D1E3"/>
</radialGradient>
<radialGradient id="paint5_radial_887_2784" cx="0" cy="0" r="1" gradientUnits="userSpaceOnUse" gradientTransform="translate(137.453 34.3641) rotate(130.515) scale(8.45391)">
<stop stop-color="#D2F7E5"/>
<stop offset="1" stop-color="#A8D1E3"/>
</radialGradient>
<radialGradient id="paint6_radial_887_2784" cx="0" cy="0" r="1" gradientUnits="userSpaceOnUse" gradientTransform="translate(188.787 34.3641) rotate(130.515) scale(8.45391)">
<stop stop-color="#D2F7E5"/>
<stop offset="1" stop-color="#A8D1E3"/>
</radialGradient>
<radialGradient id="paint7_radial_887_2784" cx="0" cy="0" r="1" gradientUnits="userSpaceOnUse" gradientTransform="translate(111.787 34.3641) rotate(130.515) scale(8.45391)">
<stop stop-color="#D2F7E5"/>
<stop offset="1" stop-color="#A8D1E3"/>
</radialGradient>
<radialGradient id="paint8_radial_887_2784" cx="0" cy="0" r="1" gradientUnits="userSpaceOnUse" gradientTransform="translate(163.12 34.3641) rotate(130.515) scale(8.45391)">
<stop stop-color="#D2F7E5"/>
<stop offset="1" stop-color="#A8D1E3"/>
</radialGradient>
<radialGradient id="paint9_radial_887_2784" cx="0" cy="0" r="1" gradientUnits="userSpaceOnUse" gradientTransform="translate(86.1204 60.3641) rotate(130.515) scale(8.45391)">
<stop stop-color="#D2F7E5"/>
<stop offset="1" stop-color="#A8D1E3"/>
</radialGradient>
<radialGradient id="paint10_radial_887_2784" cx="0" cy="0" r="1" gradientUnits="userSpaceOnUse" gradientTransform="translate(137.453 60.3641) rotate(130.515) scale(8.45391)">
<stop stop-color="#D2F7E5"/>
<stop offset="1" stop-color="#A8D1E3"/>
</radialGradient>
<radialGradient id="paint11_radial_887_2784" cx="0" cy="0" r="1" gradientUnits="userSpaceOnUse" gradientTransform="translate(188.787 60.3641) rotate(130.515) scale(8.45391)">
<stop stop-color="#D2F7E5"/>
<stop offset="1" stop-color="#A8D1E3"/>
</radialGradient>
<radialGradient id="paint12_radial_887_2784" cx="0" cy="0" r="1" gradientUnits="userSpaceOnUse" gradientTransform="translate(111.787 60.3641) rotate(130.515) scale(8.45391)">
<stop stop-color="#D2F7E5"/>
<stop offset="1" stop-color="#A8D1E3"/>
</radialGradient>
<radialGradient id="paint13_radial_887_2784" cx="0" cy="0" r="1" gradientUnits="userSpaceOnUse" gradientTransform="translate(163.12 60.3641) rotate(130.515) scale(8.45391)">
<stop stop-color="#D2F7E5"/>
<stop offset="1" stop-color="#A8D1E3"/>
</radialGradient>
</defs>
</svg>
