<svg width="163" height="163" viewBox="0 0 163 163" fill="none" xmlns="http://www.w3.org/2000/svg">
<circle cx="81.5781" cy="81.2744" r="81" fill="url(#paint0_radial_666_3526)"/>
<circle cx="81.5781" cy="81.2744" r="70.4348" fill="url(#paint1_radial_666_3526)"/>
<path d="M162.578 81.2744C162.578 94.5949 159.293 107.71 153.014 119.458C146.734 131.205 137.655 141.223 126.579 148.623C115.504 156.024 102.774 160.579 89.5175 161.884C76.2611 163.19 62.8873 161.206 50.5808 156.109C38.2742 151.011 27.4147 142.957 18.9643 132.66C10.5138 122.363 4.73322 110.141 2.13452 97.0767C-0.46419 84.0121 0.199214 70.5083 4.06596 57.7613C7.93271 45.0144 14.8834 33.4178 24.3025 23.9988L81.5781 81.2744H162.578Z" fill="url(#paint2_radial_666_3526)"/>
<path d="M81.9237 63.9873V55.3186H84.8528C85.5329 55.3186 86.0888 55.4414 86.5205 55.6869C86.9551 55.9295 87.2768 56.2583 87.4856 56.6731C87.6944 57.0879 87.7988 57.5507 87.7988 58.0614C87.7988 58.5722 87.6944 59.0364 87.4856 59.454C87.2796 59.8717 86.9607 60.2046 86.529 60.453C86.0972 60.6985 85.5442 60.8212 84.8697 60.8212H82.7703V59.89H84.8359C85.3015 59.89 85.6754 59.8096 85.9576 59.6487C86.2397 59.4879 86.4443 59.2706 86.5713 58.9969C86.7011 58.7203 86.766 58.4085 86.766 58.0614C86.766 57.7144 86.7011 57.404 86.5713 57.1302C86.4443 56.8565 86.2383 56.6421 85.9533 56.4869C85.6683 56.3288 85.2902 56.2498 84.819 56.2498H82.9735V63.9873H81.9237ZM91.9257 64.1228C91.3388 64.1228 90.8238 63.9831 90.3808 63.7037C89.9406 63.4243 89.5963 63.0335 89.348 62.5312C89.1025 62.0289 88.9798 61.442 88.9798 60.7704C88.9798 60.0932 89.1025 59.502 89.348 58.9969C89.5963 58.4918 89.9406 58.0995 90.3808 57.8202C90.8238 57.5408 91.3388 57.4011 91.9257 57.4011C92.5127 57.4011 93.0263 57.5408 93.4665 57.8202C93.9095 58.0995 94.2538 58.4918 94.4993 58.9969C94.7476 59.502 94.8717 60.0932 94.8717 60.7704C94.8717 61.442 94.7476 62.0289 94.4993 62.5312C94.2538 63.0335 93.9095 63.4243 93.4665 63.7037C93.0263 63.9831 92.5127 64.1228 91.9257 64.1228ZM91.9257 63.2254C92.3716 63.2254 92.7384 63.1111 93.0263 62.8826C93.3141 62.654 93.5271 62.3535 93.6654 61.981C93.8037 61.6085 93.8728 61.205 93.8728 60.7704C93.8728 60.3358 93.8037 59.9309 93.6654 59.5556C93.5271 59.1803 93.3141 58.877 93.0263 58.6456C92.7384 58.4142 92.3716 58.2985 91.9257 58.2985C91.4799 58.2985 91.1131 58.4142 90.8252 58.6456C90.5374 58.877 90.3244 59.1803 90.1861 59.5556C90.0478 59.9309 89.9787 60.3358 89.9787 60.7704C89.9787 61.205 90.0478 61.6085 90.1861 61.981C90.3244 62.3535 90.5374 62.654 90.8252 62.8826C91.1131 63.1111 91.4799 63.2254 91.9257 63.2254ZM97.3955 55.3186V63.9873H96.3966V55.3186H97.3955ZM99.8685 66.4254C99.6992 66.4254 99.5482 66.4113 99.4156 66.383C99.283 66.3576 99.1913 66.3323 99.1405 66.3069L99.3944 65.4264C99.6371 65.4885 99.8516 65.5111 100.038 65.4942C100.224 65.4772 100.389 65.394 100.533 65.2444C100.68 65.0977 100.814 64.8593 100.935 64.5291L101.121 64.0212L98.7172 57.4858H99.8008L101.595 62.6667H101.663L103.458 57.4858H104.541L101.782 64.9354C101.658 65.2712 101.504 65.5492 101.32 65.7693C101.137 65.9922 100.924 66.1573 100.681 66.2645C100.441 66.3718 100.17 66.4254 99.8685 66.4254ZM105.86 63.9873V57.4858H106.825V58.5017H106.91C107.045 58.1546 107.264 57.8851 107.566 57.6932C107.868 57.4985 108.23 57.4011 108.654 57.4011C109.083 57.4011 109.439 57.4985 109.724 57.6932C110.012 57.8851 110.237 58.1546 110.397 58.5017H110.465C110.632 58.1659 110.881 57.8992 111.214 57.7017C111.547 57.5013 111.947 57.4011 112.412 57.4011C112.994 57.4011 113.469 57.5831 113.839 57.9472C114.208 58.3084 114.393 58.8713 114.393 59.636V63.9873H113.394V59.636C113.394 59.1563 113.263 58.8135 113.001 58.6075C112.738 58.4015 112.429 58.2985 112.074 58.2985C111.617 58.2985 111.262 58.4368 111.011 58.7133C110.76 58.987 110.635 59.3341 110.635 59.7545V63.9873H109.619V59.5344C109.619 59.1648 109.499 58.8671 109.259 58.6413C109.019 58.4128 108.71 58.2985 108.332 58.2985C108.072 58.2985 107.83 58.3676 107.604 58.5059C107.381 58.6442 107.2 58.836 107.062 59.0815C106.927 59.3242 106.859 59.605 106.859 59.9239V63.9873H105.86ZM118.946 64.1228C118.319 64.1228 117.779 63.9845 117.324 63.7079C116.873 63.4286 116.524 63.0392 116.279 62.5397C116.036 62.0374 115.915 61.4533 115.915 60.7873C115.915 60.1214 116.036 59.5344 116.279 59.0265C116.524 58.5158 116.866 58.1179 117.303 57.8329C117.743 57.545 118.257 57.4011 118.844 57.4011C119.183 57.4011 119.517 57.4576 119.847 57.5704C120.177 57.6833 120.478 57.8667 120.749 58.1207C121.02 58.3718 121.235 58.7048 121.396 59.1196C121.557 59.5344 121.638 60.0452 121.638 60.6519V61.0752H116.626V60.2117H120.622C120.622 59.8448 120.548 59.5175 120.402 59.2297C120.258 58.9419 120.052 58.7147 119.784 58.5482C119.518 58.3817 119.205 58.2985 118.844 58.2985C118.446 58.2985 118.102 58.3972 117.811 58.5948C117.523 58.7895 117.302 59.0434 117.147 59.3567C116.991 59.6699 116.914 60.0057 116.914 60.3641V60.9397C116.914 61.4307 116.998 61.8469 117.168 62.1884C117.34 62.527 117.578 62.7852 117.883 62.963C118.188 63.1379 118.542 63.2254 118.946 63.2254C119.208 63.2254 119.445 63.1887 119.657 63.1154C119.871 63.0392 120.056 62.9263 120.211 62.7767C120.366 62.6244 120.486 62.4353 120.571 62.2095L121.536 62.4804C121.434 62.8078 121.264 63.0956 121.024 63.3439C120.784 63.5894 120.488 63.7813 120.135 63.9196C119.782 64.055 119.386 64.1228 118.946 64.1228ZM123.157 63.9873V57.4858H124.122V58.4678H124.19C124.308 58.1461 124.523 57.8851 124.833 57.6847C125.144 57.4844 125.494 57.3842 125.883 57.3842C125.956 57.3842 126.048 57.3856 126.158 57.3884C126.268 57.3913 126.351 57.3955 126.408 57.4011V58.417C126.374 58.4085 126.296 58.3958 126.175 58.3789C126.057 58.3591 125.931 58.3493 125.798 58.3493C125.482 58.3493 125.2 58.4156 124.952 58.5482C124.706 58.678 124.512 58.8586 124.368 59.09C124.227 59.3186 124.156 59.5796 124.156 59.8731V63.9873H123.157Z" fill="#263238"/>
<path d="M87.3685 108.199C87.3177 107.77 87.1117 107.437 86.7506 107.2C86.3894 106.963 85.9463 106.844 85.4215 106.844C85.0377 106.844 84.7019 106.907 84.4141 107.031C84.1291 107.155 83.9061 107.326 83.7453 107.543C83.5873 107.76 83.5083 108.007 83.5083 108.284C83.5083 108.515 83.5633 108.714 83.6733 108.88C83.7862 109.044 83.9301 109.181 84.1051 109.291C84.28 109.398 84.4635 109.487 84.6553 109.558C84.8472 109.625 85.0236 109.68 85.1844 109.723L86.0648 109.96C86.2906 110.019 86.5417 110.101 86.8183 110.205C87.0976 110.31 87.3643 110.452 87.6183 110.633C87.8751 110.811 88.0867 111.039 88.2532 111.318C88.4197 111.598 88.5029 111.941 88.5029 112.347C88.5029 112.815 88.3802 113.239 88.1347 113.617C87.892 113.995 87.5364 114.296 87.068 114.518C86.6024 114.741 86.0366 114.853 85.3707 114.853C84.7499 114.853 84.2123 114.753 83.758 114.552C83.3065 114.352 82.9509 114.073 82.6913 113.714C82.4346 113.356 82.2892 112.94 82.2554 112.466H83.339C83.3672 112.793 83.4772 113.064 83.6691 113.278C83.8638 113.49 84.1093 113.648 84.4056 113.752C84.7047 113.854 85.0264 113.905 85.3707 113.905C85.7714 113.905 86.1312 113.84 86.45 113.71C86.7689 113.577 87.0214 113.394 87.2077 113.16C87.3939 112.923 87.4871 112.646 87.4871 112.33C87.4871 112.042 87.4066 111.808 87.2458 111.627C87.0849 111.447 86.8733 111.3 86.6109 111.187C86.3484 111.074 86.0648 110.976 85.7601 110.891L84.6934 110.586C84.0162 110.391 83.48 110.114 83.085 109.752C82.6899 109.391 82.4924 108.918 82.4924 108.334C82.4924 107.849 82.6236 107.426 82.886 107.065C83.1513 106.701 83.5069 106.418 83.9527 106.218C84.4014 106.015 84.9022 105.913 85.4553 105.913C86.0141 105.913 86.5107 106.013 86.9453 106.214C87.3798 106.411 87.7241 106.682 87.9781 107.026C88.2348 107.371 88.3703 107.762 88.3844 108.199H87.3685ZM90.0934 114.7V108.199H91.0923V114.7H90.0934ZM90.6013 107.115C90.4066 107.115 90.2387 107.049 90.0976 106.916C89.9593 106.784 89.8902 106.624 89.8902 106.438C89.8902 106.252 89.9593 106.092 90.0976 105.96C90.2387 105.827 90.4066 105.761 90.6013 105.761C90.796 105.761 90.9625 105.827 91.1008 105.96C91.2419 106.092 91.3124 106.252 91.3124 106.438C91.3124 106.624 91.2419 106.784 91.1008 106.916C90.9625 107.049 90.796 107.115 90.6013 107.115ZM93.9208 106.032V114.7H92.9219V106.032H93.9208ZM101.067 108.199L98.6626 114.7H97.6467L95.2425 108.199H96.3261L98.1208 113.38H98.1885L99.9832 108.199H101.067ZM104.878 114.836C104.252 114.836 103.712 114.698 103.257 114.421C102.806 114.142 102.457 113.752 102.212 113.253C101.969 112.751 101.848 112.166 101.848 111.5C101.848 110.835 101.969 110.248 102.212 109.74C102.457 109.229 102.799 108.831 103.236 108.546C103.676 108.258 104.19 108.114 104.777 108.114C105.115 108.114 105.45 108.171 105.78 108.284C106.11 108.396 106.411 108.58 106.682 108.834C106.952 109.085 107.168 109.418 107.329 109.833C107.49 110.248 107.57 110.758 107.57 111.365V111.788H102.559V110.925H106.555C106.555 110.558 106.481 110.231 106.334 109.943C106.191 109.655 105.985 109.428 105.716 109.261C105.451 109.095 105.138 109.012 104.777 109.012C104.379 109.012 104.035 109.11 103.744 109.308C103.456 109.503 103.235 109.757 103.079 110.07C102.924 110.383 102.847 110.719 102.847 111.077V111.653C102.847 112.144 102.931 112.56 103.101 112.902C103.273 113.24 103.511 113.498 103.816 113.676C104.121 113.851 104.475 113.939 104.878 113.939C105.141 113.939 105.378 113.902 105.589 113.828C105.804 113.752 105.989 113.639 106.144 113.49C106.299 113.337 106.419 113.148 106.504 112.923L107.469 113.194C107.367 113.521 107.197 113.809 106.957 114.057C106.717 114.303 106.421 114.494 106.068 114.633C105.715 114.768 105.319 114.836 104.878 114.836ZM109.09 114.7V108.199H110.055V109.181H110.123C110.241 108.859 110.456 108.598 110.766 108.398C111.077 108.198 111.426 108.097 111.816 108.097C111.889 108.097 111.981 108.099 112.091 108.102C112.201 108.104 112.284 108.109 112.341 108.114V109.13C112.307 109.122 112.229 109.109 112.108 109.092C111.989 109.072 111.864 109.062 111.731 109.062C111.415 109.062 111.133 109.129 110.885 109.261C110.639 109.391 110.444 109.572 110.301 109.803C110.159 110.032 110.089 110.293 110.089 110.586V114.7H109.09ZM117.233 111.043C117.233 109.977 117.371 108.996 117.648 108.102C117.927 107.204 118.325 106.379 118.841 105.625H119.722C119.518 105.905 119.328 106.249 119.15 106.658C118.975 107.065 118.821 107.512 118.689 108C118.556 108.485 118.452 108.988 118.376 109.507C118.302 110.026 118.266 110.538 118.266 111.043C118.266 111.715 118.33 112.396 118.46 113.088C118.59 113.779 118.765 114.421 118.985 115.014C119.205 115.606 119.451 116.089 119.722 116.461H118.841C118.325 115.708 117.927 114.884 117.648 113.989C117.371 113.092 117.233 112.11 117.233 111.043ZM123.109 114.853C122.697 114.853 122.323 114.775 121.987 114.62C121.651 114.462 121.385 114.235 121.187 113.939C120.99 113.639 120.891 113.278 120.891 112.855C120.891 112.482 120.964 112.181 121.111 111.949C121.258 111.715 121.454 111.532 121.699 111.399C121.945 111.266 122.216 111.167 122.512 111.103C122.811 111.035 123.112 110.981 123.414 110.942C123.809 110.891 124.129 110.853 124.374 110.827C124.623 110.799 124.803 110.753 124.916 110.688C125.032 110.623 125.09 110.51 125.09 110.349V110.315C125.09 109.898 124.976 109.573 124.747 109.342C124.521 109.11 124.178 108.995 123.718 108.995C123.241 108.995 122.868 109.099 122.597 109.308C122.326 109.517 122.135 109.74 122.025 109.977L121.077 109.638C121.246 109.243 121.472 108.935 121.754 108.715C122.039 108.492 122.35 108.337 122.686 108.25C123.024 108.159 123.357 108.114 123.685 108.114C123.893 108.114 124.133 108.14 124.404 108.19C124.678 108.238 124.942 108.339 125.196 108.491C125.452 108.643 125.665 108.873 125.835 109.181C126.004 109.489 126.089 109.9 126.089 110.417V114.7H125.09V113.82H125.039C124.971 113.961 124.858 114.112 124.7 114.273C124.542 114.434 124.332 114.571 124.07 114.684C123.807 114.796 123.487 114.853 123.109 114.853ZM123.261 113.955C123.656 113.955 123.989 113.878 124.26 113.723C124.534 113.567 124.74 113.367 124.878 113.122C125.019 112.876 125.09 112.618 125.09 112.347V111.433C125.047 111.484 124.954 111.53 124.81 111.572C124.669 111.612 124.506 111.647 124.319 111.678C124.136 111.706 123.957 111.732 123.782 111.754C123.61 111.774 123.47 111.791 123.363 111.805C123.103 111.839 122.861 111.894 122.635 111.97C122.412 112.044 122.231 112.155 122.093 112.305C121.958 112.451 121.89 112.652 121.89 112.906C121.89 113.253 122.018 113.515 122.275 113.693C122.535 113.868 122.863 113.955 123.261 113.955ZM130.536 117.274C130.054 117.274 129.639 117.212 129.292 117.088C128.945 116.966 128.656 116.806 128.424 116.605C128.196 116.408 128.014 116.196 127.878 115.97L128.674 115.412C128.764 115.53 128.878 115.666 129.017 115.818C129.155 115.973 129.344 116.107 129.584 116.22C129.827 116.336 130.144 116.394 130.536 116.394C131.061 116.394 131.494 116.267 131.836 116.013C132.177 115.759 132.348 115.361 132.348 114.819V113.498H132.263C132.19 113.617 132.085 113.764 131.95 113.939C131.817 114.111 131.626 114.264 131.374 114.4C131.126 114.533 130.79 114.599 130.367 114.599C129.842 114.599 129.371 114.475 128.953 114.226C128.538 113.978 128.21 113.617 127.967 113.143C127.727 112.669 127.607 112.093 127.607 111.416C127.607 110.75 127.724 110.17 127.959 109.676C128.193 109.18 128.519 108.796 128.936 108.525C129.354 108.251 129.836 108.114 130.384 108.114C130.807 108.114 131.143 108.185 131.391 108.326C131.642 108.464 131.834 108.622 131.967 108.8C132.102 108.975 132.207 109.119 132.28 109.232H132.382V108.199H133.347V114.887C133.347 115.445 133.22 115.9 132.966 116.25C132.715 116.602 132.376 116.861 131.95 117.024C131.527 117.191 131.056 117.274 130.536 117.274ZM130.502 113.702C130.903 113.702 131.242 113.61 131.518 113.426C131.795 113.243 132.005 112.979 132.149 112.635C132.293 112.291 132.365 111.879 132.365 111.399C132.365 110.93 132.294 110.517 132.153 110.159C132.012 109.8 131.803 109.52 131.527 109.316C131.25 109.113 130.909 109.012 130.502 109.012C130.079 109.012 129.726 109.119 129.444 109.333C129.165 109.548 128.955 109.836 128.814 110.197C128.675 110.558 128.606 110.959 128.606 111.399C128.606 111.85 128.677 112.25 128.818 112.597C128.962 112.941 129.173 113.212 129.453 113.409C129.735 113.604 130.085 113.702 130.502 113.702ZM137.309 111.043C137.309 112.11 137.169 113.092 136.89 113.989C136.613 114.884 136.217 115.708 135.7 116.461H134.82C135.023 116.182 135.212 115.838 135.387 115.428C135.565 115.022 135.72 114.576 135.853 114.091C135.985 113.603 136.088 113.099 136.162 112.58C136.238 112.058 136.276 111.546 136.276 111.043C136.276 110.372 136.211 109.69 136.081 108.999C135.951 108.308 135.776 107.666 135.556 107.073C135.336 106.48 135.091 105.998 134.82 105.625H135.7C136.217 106.379 136.613 107.204 136.89 108.102C137.169 108.996 137.309 109.977 137.309 111.043Z" fill="black"/>
<defs>
<radialGradient id="paint0_radial_666_3526" cx="0" cy="0" r="1" gradientUnits="userSpaceOnUse" gradientTransform="translate(81.5781 81.2744) rotate(90) scale(81)">
<stop offset="0.46875" stop-color="white"/>
<stop offset="1" stop-color="#92999C"/>
</radialGradient>
<radialGradient id="paint1_radial_666_3526" cx="0" cy="0" r="1" gradientUnits="userSpaceOnUse" gradientTransform="translate(106.27 59.783) rotate(130.515) scale(85.0642)">
<stop stop-color="#D2F7E5"/>
<stop offset="1" stop-color="#A8D1E3"/>
</radialGradient>
<radialGradient id="paint2_radial_666_3526" cx="0" cy="0" r="1" gradientUnits="userSpaceOnUse" gradientTransform="translate(81.5781 81.2744) rotate(90) scale(81)">
<stop offset="0.197917" stop-color="#FCFCFC"/>
<stop offset="0.786458" stop-color="#BEBEBE"/>
<stop offset="1" stop-color="#9C9C9C"/>
</radialGradient>
</defs>
</svg>
