<svg width="163" height="163" viewBox="0 0 163 163" fill="none" xmlns="http://www.w3.org/2000/svg">
<circle cx="81.2322" cy="81.8428" r="81" fill="url(#paint0_radial_669_3595)"/>
<path d="M157 81.0586C157 100.513 149.54 119.227 136.155 133.346C122.77 147.465 104.481 155.913 85.0537 156.95C65.6267 157.988 46.5415 151.536 31.729 138.923C16.9166 126.311 7.50493 108.498 5.43263 89.154C3.36033 69.81 8.78518 50.4078 20.5898 34.9437C32.3944 19.4797 49.6799 9.13139 68.8859 6.03032C88.0919 2.92924 107.756 7.31154 123.827 18.2746C139.899 29.2376 151.155 45.9466 155.276 64.9598L81.0002 81.0586H157Z" fill="url(#paint1_radial_669_3595)"/>
<path d="M151.667 81.8427C151.667 99.8729 144.753 117.216 132.348 130.301C119.943 143.386 102.993 151.216 84.9888 152.177C66.9844 153.139 49.2967 147.159 35.5689 135.47C21.8411 123.781 13.1186 107.273 11.1981 89.3454C9.27754 71.4178 14.3051 53.4364 25.2454 39.1047C36.1856 24.773 52.2053 15.1825 70.0049 12.3085C87.8045 9.43453 106.028 13.4959 120.923 23.6562C135.818 33.8165 146.249 49.3018 150.069 66.9228L81.2321 81.8427H151.667Z" fill="url(#paint2_radial_669_3595)"/>
<path d="M126.803 21.4113C136.777 28.9436 144.739 38.8193 149.984 50.1637C155.229 61.5081 157.595 73.971 156.873 86.4484C156.151 98.9258 152.364 111.033 145.845 121.696C139.327 132.36 130.279 141.252 119.503 147.584C108.728 153.915 96.5566 157.492 84.0686 157.997C71.5805 158.501 59.1607 155.918 47.9093 150.476C36.658 145.035 26.9223 136.902 19.5648 126.799C12.2072 116.696 7.45484 104.934 5.72863 92.5554L81.0002 82.0586L126.803 21.4113Z" fill="url(#paint3_radial_669_3595)"/>
<path d="M162.232 81.8428C162.232 95.1633 158.947 108.278 152.668 120.026C146.389 131.774 137.309 141.791 126.233 149.192C115.158 156.592 102.428 161.147 89.1716 162.453C75.9152 163.758 62.5414 161.775 50.2348 156.677C37.9282 151.579 27.0688 143.526 18.6183 133.229C10.1679 122.932 4.38727 110.71 1.78857 97.6451C-0.810137 84.5805 -0.146734 71.0767 3.72001 58.3297C7.58676 45.5828 14.5375 33.9861 23.9565 24.5671L81.2322 81.8428H162.232Z" fill="url(#paint4_radial_669_3595)"/>
<path d="M53.1812 43.0586V33.3063H56.4764C57.2415 33.3063 57.8668 33.4444 58.3526 33.7206C58.8414 33.9936 59.2033 34.3635 59.4383 34.8301C59.6732 35.2968 59.7906 35.8174 59.7906 36.392C59.7906 36.9666 59.6732 37.4888 59.4383 37.9587C59.2065 38.4285 58.8478 38.8031 58.3621 39.0824C57.8764 39.3586 57.2542 39.4967 56.4954 39.4967H54.1336V38.4491H56.4573C56.9811 38.4491 57.4018 38.3586 57.7192 38.1777C58.0367 37.9967 58.2668 37.7523 58.4097 37.4444C58.5557 37.1333 58.6287 36.7825 58.6287 36.392C58.6287 36.0015 58.5557 35.6523 58.4097 35.3444C58.2668 35.0365 58.0351 34.7952 57.7145 34.6206C57.3938 34.4428 56.9684 34.3539 56.4383 34.3539H54.3621V43.0586H53.1812ZM64.4334 43.211C63.7731 43.211 63.1938 43.0538 62.6954 42.7395C62.2001 42.4253 61.8128 41.9856 61.5335 41.4205C61.2573 40.8554 61.1192 40.1951 61.1192 39.4396C61.1192 38.6777 61.2573 38.0126 61.5335 37.4444C61.8128 36.8761 62.2001 36.4349 62.6954 36.1206C63.1938 35.8063 63.7731 35.6492 64.4334 35.6492C65.0937 35.6492 65.6715 35.8063 66.1667 36.1206C66.6652 36.4349 67.0525 36.8761 67.3286 37.4444C67.608 38.0126 67.7477 38.6777 67.7477 39.4396C67.7477 40.1951 67.608 40.8554 67.3286 41.4205C67.0525 41.9856 66.6652 42.4253 66.1667 42.7395C65.6715 43.0538 65.0937 43.211 64.4334 43.211ZM64.4334 42.2015C64.935 42.2015 65.3477 42.0729 65.6715 41.8158C65.9953 41.5586 66.235 41.2205 66.3906 40.8015C66.5461 40.3824 66.6239 39.9285 66.6239 39.4396C66.6239 38.9507 66.5461 38.4952 66.3906 38.0729C66.235 37.6507 65.9953 37.3095 65.6715 37.0491C65.3477 36.7888 64.935 36.6587 64.4334 36.6587C63.9319 36.6587 63.5192 36.7888 63.1954 37.0491C62.8715 37.3095 62.6319 37.6507 62.4763 38.0729C62.3208 38.4952 62.243 38.9507 62.243 39.4396C62.243 39.9285 62.3208 40.3824 62.4763 40.8015C62.6319 41.2205 62.8715 41.5586 63.1954 41.8158C63.5192 42.0729 63.9319 42.2015 64.4334 42.2015ZM70.5869 33.3063V43.0586H69.4631V33.3063H70.5869ZM73.369 45.8014C73.1786 45.8014 73.0087 45.7855 72.8595 45.7538C72.7103 45.7252 72.6072 45.6967 72.55 45.6681L72.8357 44.6776C73.1087 44.7475 73.35 44.7729 73.5595 44.7538C73.769 44.7348 73.9548 44.6411 74.1167 44.4729C74.2817 44.3078 74.4325 44.0395 74.569 43.6681L74.7786 43.0967L72.0738 35.7444H73.2929L75.3119 41.5729H75.3881L77.4071 35.7444H78.6261L75.5214 44.1252C75.3817 44.503 75.2087 44.8157 75.0024 45.0633C74.796 45.3141 74.5563 45.4998 74.2833 45.6205C74.0135 45.7411 73.7087 45.8014 73.369 45.8014ZM80.1094 43.0586V35.7444H81.1952V36.8872H81.2904C81.4428 36.4968 81.6888 36.1936 82.0285 35.9777C82.3682 35.7587 82.7761 35.6492 83.2523 35.6492C83.7348 35.6492 84.1364 35.7587 84.457 35.9777C84.7808 36.1936 85.0332 36.4968 85.2142 36.8872H85.2903C85.4776 36.5095 85.7586 36.2095 86.1332 35.9872C86.5078 35.7619 86.957 35.6492 87.4808 35.6492C88.1348 35.6492 88.6697 35.8539 89.0855 36.2634C89.5014 36.6698 89.7093 37.3031 89.7093 38.1634V43.0586H88.5855V38.1634C88.5855 37.6237 88.4379 37.238 88.1427 37.0063C87.8475 36.7745 87.4998 36.6587 87.0998 36.6587C86.5856 36.6587 86.1872 36.8142 85.9046 37.1253C85.6221 37.4333 85.4808 37.8237 85.4808 38.2967V43.0586H84.338V38.0491C84.338 37.6333 84.2031 37.2983 83.9332 37.0444C83.6634 36.7872 83.3158 36.6587 82.8904 36.6587C82.5983 36.6587 82.3253 36.7364 82.0713 36.892C81.8205 37.0476 81.6174 37.2634 81.4618 37.5396C81.3094 37.8126 81.2332 38.1285 81.2332 38.4872V43.0586H80.1094ZM94.8307 43.211C94.126 43.211 93.518 43.0554 93.0069 42.7443C92.499 42.43 92.1069 41.9919 91.8307 41.43C91.5577 40.865 91.4212 40.2078 91.4212 39.4586C91.4212 38.7094 91.5577 38.0491 91.8307 37.4777C92.1069 36.9031 92.4911 36.4555 92.9831 36.1349C93.4783 35.8111 94.0561 35.6492 94.7164 35.6492C95.0974 35.6492 95.4736 35.7126 95.845 35.8396C96.2164 35.9666 96.5545 36.173 96.8593 36.4587C97.164 36.7412 97.4069 37.1158 97.5878 37.5825C97.7688 38.0491 97.8592 38.6237 97.8592 39.3063V39.7824H92.2212V38.811H96.7164C96.7164 38.3983 96.6339 38.0301 96.4688 37.7063C96.3069 37.3825 96.0751 37.1269 95.7736 36.9396C95.4751 36.7523 95.1228 36.6587 94.7164 36.6587C94.2688 36.6587 93.8815 36.7698 93.5545 36.992C93.2307 37.211 92.9815 37.4968 92.8069 37.8491C92.6323 38.2015 92.545 38.5793 92.545 38.9824V39.6301C92.545 40.1824 92.6403 40.6507 92.8307 41.0348C93.0244 41.4158 93.2926 41.7062 93.6355 41.9062C93.9783 42.103 94.3767 42.2015 94.8307 42.2015C95.1259 42.2015 95.3926 42.1602 95.6307 42.0777C95.872 41.9919 96.0799 41.865 96.2545 41.6967C96.4291 41.5253 96.564 41.3126 96.6593 41.0586L97.745 41.3634C97.6307 41.7316 97.4386 42.0554 97.1688 42.3348C96.8989 42.611 96.5656 42.8269 96.1688 42.9824C95.772 43.1348 95.3259 43.211 94.8307 43.211ZM99.5688 43.0586V35.7444H100.654V36.8491H100.731C100.864 36.4872 101.105 36.1936 101.454 35.9682C101.804 35.7428 102.197 35.6301 102.635 35.6301C102.718 35.6301 102.821 35.6317 102.945 35.6349C103.069 35.638 103.162 35.6428 103.226 35.6492V36.792C103.188 36.7825 103.1 36.7682 102.964 36.7491C102.831 36.7269 102.689 36.7158 102.54 36.7158C102.185 36.7158 101.867 36.7904 101.588 36.9396C101.312 37.0856 101.093 37.2888 100.931 37.5491C100.772 37.8063 100.693 38.0999 100.693 38.4301V43.0586H99.5688Z" fill="black" fill-opacity="0.8"/>
<path d="M102.914 65.3063V75.0586H101.772L96.4574 67.4015H96.3621V75.0586H95.1812V65.3063H96.324L101.657 72.9824H101.753V65.3063H102.914ZM105.125 75.0586V67.7444H106.249V75.0586H105.125ZM105.697 66.5254C105.477 66.5254 105.289 66.4508 105.13 66.3016C104.974 66.1523 104.897 65.973 104.897 65.7635C104.897 65.5539 104.974 65.3746 105.13 65.2254C105.289 65.0762 105.477 65.0016 105.697 65.0016C105.916 65.0016 106.103 65.0762 106.258 65.2254C106.417 65.3746 106.497 65.5539 106.497 65.7635C106.497 65.973 106.417 66.1523 106.258 66.3016C106.103 66.4508 105.916 66.5254 105.697 66.5254ZM111.279 75.211C110.593 75.211 110.002 75.0491 109.507 74.7253C109.012 74.4015 108.631 73.9554 108.364 73.3872C108.098 72.8189 107.964 72.1697 107.964 71.4396C107.964 70.6967 108.101 70.0412 108.374 69.4729C108.65 68.9015 109.034 68.4555 109.526 68.1349C110.021 67.8111 110.599 67.6492 111.26 67.6492C111.774 67.6492 112.237 67.7444 112.65 67.9349C113.063 68.1253 113.401 68.392 113.664 68.7349C113.928 69.0777 114.091 69.4777 114.155 69.9348H113.031C112.945 69.6015 112.755 69.3063 112.46 69.0491C112.167 68.7888 111.774 68.6587 111.279 68.6587C110.841 68.6587 110.456 68.773 110.126 69.0015C109.799 69.2269 109.544 69.546 109.36 69.9587C109.179 70.3682 109.088 70.8491 109.088 71.4015C109.088 71.9666 109.177 72.4586 109.355 72.8777C109.536 73.2967 109.79 73.6221 110.117 73.8538C110.447 74.0856 110.834 74.2015 111.279 74.2015C111.571 74.2015 111.836 74.1507 112.074 74.0491C112.312 73.9475 112.514 73.8015 112.679 73.611C112.844 73.4205 112.961 73.1919 113.031 72.9253H114.155C114.091 73.357 113.934 73.7459 113.683 74.0919C113.436 74.4348 113.107 74.7078 112.698 74.911C112.291 75.111 111.818 75.211 111.279 75.211ZM116.845 72.392L116.826 71.0015H117.055L120.255 67.7444H121.645L118.236 71.192H118.14L116.845 72.392ZM115.798 75.0586V65.3063H116.921V75.0586H115.798ZM120.445 75.0586L117.588 71.4396L118.388 70.6586L121.874 75.0586H120.445ZM125.857 75.211C125.152 75.211 124.544 75.0554 124.033 74.7443C123.525 74.43 123.133 73.9919 122.857 73.43C122.584 72.865 122.448 72.2078 122.448 71.4586C122.448 70.7094 122.584 70.0491 122.857 69.4777C123.133 68.9031 123.517 68.4555 124.009 68.1349C124.505 67.8111 125.082 67.6492 125.743 67.6492C126.124 67.6492 126.5 67.7126 126.871 67.8396C127.243 67.9666 127.581 68.173 127.886 68.4587C128.19 68.7412 128.433 69.1158 128.614 69.5825C128.795 70.0491 128.886 70.6237 128.886 71.3063V71.7824H123.248V70.811H127.743C127.743 70.3983 127.66 70.0301 127.495 69.7063C127.333 69.3825 127.101 69.1269 126.8 68.9396C126.501 68.7523 126.149 68.6587 125.743 68.6587C125.295 68.6587 124.908 68.7698 124.581 68.992C124.257 69.211 124.008 69.4968 123.833 69.8491C123.659 70.2015 123.571 70.5793 123.571 70.9824V71.6301C123.571 72.1824 123.667 72.6507 123.857 73.0348C124.051 73.4158 124.319 73.7062 124.662 73.9062C125.005 74.103 125.403 74.2015 125.857 74.2015C126.152 74.2015 126.419 74.1602 126.657 74.0777C126.898 73.9919 127.106 73.865 127.281 73.6967C127.455 73.5253 127.59 73.3126 127.686 73.0586L128.771 73.3634C128.657 73.7316 128.465 74.0554 128.195 74.3348C127.925 74.611 127.592 74.8269 127.195 74.9824C126.798 75.1348 126.352 75.211 125.857 75.211ZM131.719 65.3063V75.0586H130.595V65.3063H131.719ZM134.177 70.9444C134.177 69.7444 134.333 68.6412 134.644 67.6349C134.958 66.6254 135.406 65.6968 135.987 64.8492H136.977C136.749 65.1635 136.534 65.5508 136.334 66.0111C136.137 66.4682 135.964 66.9714 135.815 67.5206C135.666 68.0666 135.549 68.6317 135.463 69.2158C135.38 69.7999 135.339 70.3761 135.339 70.9444C135.339 71.6999 135.412 72.4666 135.558 73.2443C135.704 74.0221 135.901 74.7443 136.149 75.411C136.396 76.0776 136.672 76.6205 136.977 77.0395H135.987C135.406 76.1919 134.958 75.2649 134.644 74.2586C134.333 73.2491 134.177 72.1443 134.177 70.9444ZM146.521 65.3063V75.0586H145.378L140.064 67.4015H139.969V75.0586H138.788V65.3063H139.931L145.264 72.9824H145.359V65.3063H146.521ZM148.732 75.0586V67.7444H149.856V75.0586H148.732ZM149.303 66.5254C149.084 66.5254 148.895 66.4508 148.737 66.3016C148.581 66.1523 148.503 65.973 148.503 65.7635C148.503 65.5539 148.581 65.3746 148.737 65.2254C148.895 65.0762 149.084 65.0016 149.303 65.0016C149.522 65.0016 149.71 65.0762 149.865 65.2254C150.024 65.3746 150.103 65.5539 150.103 65.7635C150.103 65.973 150.024 66.1523 149.865 66.3016C149.71 66.4508 149.522 66.5254 149.303 66.5254ZM154.772 70.9444C154.772 72.1443 154.615 73.2491 154.301 74.2586C153.99 75.2649 153.544 76.1919 152.963 77.0395H151.972C152.201 76.7252 152.413 76.3379 152.61 75.8776C152.81 75.4205 152.985 74.9189 153.134 74.3729C153.283 73.8237 153.399 73.257 153.482 72.6729C153.567 72.0856 153.61 71.5094 153.61 70.9444C153.61 70.1888 153.537 69.4221 153.391 68.6444C153.245 67.8666 153.048 67.1444 152.801 66.4777C152.553 65.8111 152.277 65.2682 151.972 64.8492H152.963C153.544 65.6968 153.99 66.6254 154.301 67.6349C154.615 68.6412 154.772 69.7444 154.772 70.9444Z" fill="white"/>
<path d="M89.0797 108.564C88.9749 108.243 88.8369 107.956 88.6654 107.702C88.4972 107.445 88.2956 107.226 88.0607 107.045C87.8289 106.864 87.5654 106.726 87.2702 106.631C86.975 106.536 86.6512 106.488 86.2988 106.488C85.721 106.488 85.1956 106.637 84.7226 106.936C84.2496 107.234 83.8734 107.674 83.5941 108.255C83.3147 108.836 83.175 109.548 83.175 110.393C83.175 111.237 83.3163 111.95 83.5988 112.531C83.8814 113.112 84.2639 113.551 84.7464 113.85C85.229 114.148 85.7718 114.297 86.375 114.297C86.9337 114.297 87.4258 114.178 87.8512 113.94C88.2797 113.699 88.613 113.359 88.8511 112.921C89.0924 112.48 89.213 111.961 89.213 111.364L89.5749 111.44H86.6416V110.393H90.3559V111.44C90.3559 112.243 90.1845 112.942 89.8416 113.535C89.5019 114.129 89.0321 114.589 88.4321 114.916C87.8353 115.24 87.1496 115.402 86.375 115.402C85.5115 115.402 84.7528 115.199 84.0988 114.793C83.448 114.386 82.9401 113.808 82.575 113.059C82.2131 112.31 82.0322 111.421 82.0322 110.393C82.0322 109.621 82.1353 108.928 82.3417 108.312C82.5512 107.693 82.8464 107.166 83.2274 106.731C83.6083 106.296 84.0591 105.963 84.5798 105.731C85.1004 105.499 85.6734 105.383 86.2988 105.383C86.8131 105.383 87.2924 105.461 87.7369 105.617C88.1845 105.769 88.5829 105.986 88.9321 106.269C89.2845 106.548 89.5781 106.883 89.813 107.274C90.048 107.661 90.2099 108.091 90.2987 108.564H89.0797ZM95.1975 115.421C94.5372 115.421 93.9578 115.264 93.4594 114.95C92.9642 114.635 92.5769 114.196 92.2975 113.631C92.0213 113.066 91.8832 112.405 91.8832 111.65C91.8832 110.888 92.0213 110.223 92.2975 109.655C92.5769 109.086 92.9642 108.645 93.4594 108.331C93.9578 108.017 94.5372 107.859 95.1975 107.859C95.8578 107.859 96.4356 108.017 96.9308 108.331C97.4292 108.645 97.8165 109.086 98.0927 109.655C98.3721 110.223 98.5117 110.888 98.5117 111.65C98.5117 112.405 98.3721 113.066 98.0927 113.631C97.8165 114.196 97.4292 114.635 96.9308 114.95C96.4356 115.264 95.8578 115.421 95.1975 115.421ZM95.1975 114.412C95.6991 114.412 96.1118 114.283 96.4356 114.026C96.7594 113.769 96.9991 113.431 97.1546 113.012C97.3102 112.593 97.3879 112.139 97.3879 111.65C97.3879 111.161 97.3102 110.705 97.1546 110.283C96.9991 109.861 96.7594 109.52 96.4356 109.259C96.1118 108.999 95.6991 108.869 95.1975 108.869C94.6959 108.869 94.2832 108.999 93.9594 109.259C93.6356 109.52 93.3959 109.861 93.2404 110.283C93.0848 110.705 93.007 111.161 93.007 111.65C93.007 112.139 93.0848 112.593 93.2404 113.012C93.3959 113.431 93.6356 113.769 93.9594 114.026C94.2832 114.283 94.6959 114.412 95.1975 114.412ZM101.351 105.517V115.269H100.227V105.517H101.351ZM106.171 115.421C105.562 115.421 105.024 115.267 104.557 114.959C104.09 114.648 103.725 114.21 103.462 113.645C103.198 113.077 103.066 112.405 103.066 111.631C103.066 110.862 103.198 110.196 103.462 109.631C103.725 109.066 104.092 108.629 104.562 108.321C105.032 108.013 105.574 107.859 106.19 107.859C106.666 107.859 107.043 107.939 107.319 108.097C107.598 108.253 107.811 108.431 107.957 108.631C108.106 108.828 108.222 108.99 108.304 109.116H108.4V105.517H109.524V115.269H108.438V114.145H108.304C108.222 114.278 108.104 114.447 107.952 114.65C107.8 114.85 107.582 115.029 107.3 115.188C107.017 115.343 106.641 115.421 106.171 115.421ZM106.324 114.412C106.774 114.412 107.155 114.294 107.466 114.059C107.778 113.821 108.014 113.493 108.176 113.074C108.338 112.651 108.419 112.164 108.419 111.612C108.419 111.066 108.339 110.588 108.181 110.178C108.022 109.766 107.787 109.445 107.476 109.216C107.165 108.985 106.781 108.869 106.324 108.869C105.847 108.869 105.451 108.991 105.133 109.236C104.819 109.477 104.582 109.805 104.424 110.221C104.268 110.634 104.19 111.097 104.19 111.612C104.19 112.132 104.27 112.605 104.428 113.031C104.59 113.453 104.828 113.789 105.143 114.04C105.46 114.288 105.854 114.412 106.324 114.412ZM112.138 111.155C112.138 109.955 112.293 108.851 112.604 107.845C112.919 106.836 113.366 105.907 113.947 105.059H114.938C114.709 105.374 114.495 105.761 114.295 106.221C114.098 106.678 113.925 107.182 113.776 107.731C113.627 108.277 113.509 108.842 113.423 109.426C113.341 110.01 113.3 110.586 113.3 111.155C113.3 111.91 113.373 112.677 113.519 113.455C113.665 114.232 113.862 114.955 114.109 115.621C114.357 116.288 114.633 116.831 114.938 117.25H113.947C113.366 116.402 112.919 115.475 112.604 114.469C112.293 113.459 112.138 112.355 112.138 111.155ZM117.148 115.269H115.91L119.491 105.517H120.71L124.291 115.269H123.053L120.139 107.059H120.063L117.148 115.269ZM117.606 111.459H122.596V112.507H117.606V111.459ZM130.267 112.278V107.955H131.391V115.269H130.267V114.031H130.191C130.02 114.402 129.753 114.718 129.391 114.978C129.029 115.235 128.572 115.364 128.02 115.364C127.563 115.364 127.156 115.264 126.801 115.064C126.445 114.861 126.166 114.556 125.963 114.15C125.759 113.74 125.658 113.224 125.658 112.602V107.955H126.782V112.526C126.782 113.059 126.931 113.485 127.229 113.802C127.531 114.12 127.915 114.278 128.382 114.278C128.661 114.278 128.945 114.207 129.234 114.064C129.526 113.921 129.771 113.702 129.967 113.407C130.167 113.112 130.267 112.735 130.267 112.278ZM135.849 111.155C135.849 112.355 135.692 113.459 135.378 114.469C135.067 115.475 134.621 116.402 134.04 117.25H133.049C133.278 116.935 133.491 116.548 133.688 116.088C133.888 115.631 134.062 115.129 134.211 114.583C134.361 114.034 134.476 113.467 134.559 112.883C134.645 112.296 134.688 111.72 134.688 111.155C134.688 110.399 134.615 109.632 134.468 108.855C134.322 108.077 134.126 107.355 133.878 106.688C133.63 106.021 133.354 105.478 133.049 105.059H134.04C134.621 105.907 135.067 106.836 135.378 107.845C135.692 108.851 135.849 109.955 135.849 111.155Z" fill="black"/>
<defs>
<radialGradient id="paint0_radial_669_3595" cx="0" cy="0" r="1" gradientUnits="userSpaceOnUse" gradientTransform="translate(104.433 63.155) rotate(103.101) scale(102.352)">
<stop stop-color="#FFF5D2"/>
<stop offset="1" stop-color="#8D7932"/>
</radialGradient>
<radialGradient id="paint1_radial_669_3595" cx="0" cy="0" r="1" gradientUnits="userSpaceOnUse" gradientTransform="translate(81.0002 81.0586) rotate(90) scale(76)">
<stop offset="0.189998" stop-color="#A5BDCE"/>
<stop offset="1" stop-color="#616A6D"/>
</radialGradient>
<radialGradient id="paint2_radial_669_3595" cx="0" cy="0" r="1" gradientUnits="userSpaceOnUse" gradientTransform="translate(105.924 60.3514) rotate(130.515) scale(85.0642)">
<stop stop-color="#D2F7E5"/>
<stop offset="1" stop-color="#A8D1E3"/>
</radialGradient>
<radialGradient id="paint3_radial_669_3595" cx="0" cy="0" r="1" gradientUnits="userSpaceOnUse" gradientTransform="translate(81.0002 82.0586) rotate(90) scale(76)">
<stop offset="0.189998" stop-color="#A5BDCE"/>
<stop offset="1" stop-color="#616A6D"/>
</radialGradient>
<radialGradient id="paint4_radial_669_3595" cx="0" cy="0" r="1" gradientUnits="userSpaceOnUse" gradientTransform="translate(104.433 63.155) rotate(103.101) scale(102.352)">
<stop stop-color="#FFF5D2"/>
<stop offset="1" stop-color="#8D7932"/>
</radialGradient>
</defs>
</svg>
