<svg width="395" height="154" viewBox="0 0 395 154" fill="none" xmlns="http://www.w3.org/2000/svg">
<g clip-path="url(#clip0_729_2961)">
<rect y="53.5" width="395" height="82" rx="25.9651" fill="#F0F2F2"/>
<circle cx="169.503" cy="77.0031" r="22.5031" fill="url(#paint0_radial_729_2961)"/>
<circle cx="115.503" cy="77.0031" r="22.5031" fill="url(#paint1_radial_729_2961)"/>
<circle cx="61.5031" cy="77.0031" r="22.5031" fill="url(#paint2_radial_729_2961)"/>
<circle cx="223.503" cy="77.0031" r="22.5031" fill="url(#paint3_radial_729_2961)"/>
<circle cx="277.503" cy="77.0031" r="22.5031" fill="url(#paint4_radial_729_2961)"/>
<circle cx="331.503" cy="77.0031" r="22.5031" fill="url(#paint5_radial_729_2961)"/>
<rect x="395" y="54.1614" width="395" height="53.6613" rx="4.32752" transform="rotate(-180 395 54.1614)" fill="#728389"/>
<path d="M160.249 24.218C160.184 23.636 159.913 23.1852 159.438 22.8656C158.963 22.5419 158.364 22.38 157.643 22.38C157.127 22.38 156.68 22.4619 156.303 22.6259C155.926 22.7857 155.633 23.007 155.424 23.2897C155.219 23.5684 155.117 23.886 155.117 24.2425C155.117 24.5417 155.186 24.7999 155.326 25.0171C155.469 25.2343 155.655 25.4166 155.885 25.5642C156.119 25.7076 156.369 25.8285 156.635 25.9268C156.901 26.0211 157.157 26.099 157.403 26.1604L158.633 26.4801C159.034 26.5784 159.446 26.7116 159.868 26.8796C160.29 27.0476 160.682 27.2689 161.042 27.5435C161.403 27.8181 161.694 28.1582 161.915 28.5639C162.141 28.9696 162.253 29.4552 162.253 30.0208C162.253 30.7338 162.069 31.367 161.7 31.9202C161.335 32.4734 160.805 32.9099 160.108 33.2295C159.415 33.5492 158.577 33.709 157.594 33.709C156.651 33.709 155.836 33.5594 155.147 33.2603C154.459 32.9611 153.92 32.537 153.531 31.9878C153.141 31.4346 152.926 30.7789 152.885 30.0208H154.791C154.828 30.4757 154.975 30.8547 155.233 31.158C155.496 31.4571 155.83 31.6805 156.235 31.828C156.645 31.9714 157.094 32.0431 157.582 32.0431C158.118 32.0431 158.596 31.9591 159.014 31.7911C159.436 31.619 159.768 31.3813 160.01 31.0781C160.251 30.7707 160.372 30.4121 160.372 30.0023C160.372 29.6294 160.266 29.3241 160.053 29.0864C159.844 28.8487 159.559 28.652 159.198 28.4963C158.842 28.3406 158.438 28.2033 157.987 28.0844L156.5 27.6787C155.492 27.4042 154.692 27.0005 154.102 26.4678C153.516 25.935 153.223 25.2302 153.223 24.3532C153.223 23.6278 153.42 22.9947 153.813 22.4538C154.207 21.9128 154.74 21.4928 155.412 21.1936C156.084 20.8904 156.842 20.7387 157.686 20.7387C158.538 20.7387 159.29 20.8883 159.942 21.1875C160.598 21.4866 161.114 21.8985 161.491 22.423C161.868 22.9435 162.065 23.5418 162.081 24.218H160.249ZM170.357 29.5843V24.0581H172.201V33.5H170.394V31.8649H170.295C170.078 32.3689 169.73 32.789 169.25 33.125C168.775 33.457 168.183 33.6229 167.474 33.6229C166.867 33.6229 166.33 33.4898 165.863 33.2234C165.4 32.9529 165.035 32.5534 164.769 32.0247C164.507 31.4961 164.376 30.8424 164.376 30.0638V24.0581H166.214V29.8425C166.214 30.4859 166.392 30.9982 166.748 31.3793C167.105 31.7604 167.568 31.9509 168.138 31.9509C168.482 31.9509 168.824 31.8649 169.164 31.6928C169.508 31.5206 169.793 31.2604 170.019 30.9121C170.248 30.5638 170.361 30.1212 170.357 29.5843ZM174.818 33.5V20.9108H176.656V25.5887H176.766C176.873 25.392 177.027 25.1646 177.227 24.9064C177.428 24.6482 177.707 24.4229 178.063 24.2302C178.42 24.0335 178.891 23.9352 179.477 23.9352C180.24 23.9352 180.92 24.1278 181.518 24.513C182.116 24.8982 182.586 25.4535 182.926 26.1789C183.27 26.9042 183.442 27.7771 183.442 28.7975C183.442 29.8179 183.272 30.6928 182.932 31.4223C182.592 32.1476 182.125 32.707 181.53 33.1004C180.936 33.4898 180.258 33.6844 179.496 33.6844C178.922 33.6844 178.453 33.5881 178.088 33.3955C177.727 33.2029 177.445 32.9775 177.24 32.7193C177.035 32.4611 176.877 32.2317 176.766 32.0309H176.613V33.5H174.818ZM176.619 28.7791C176.619 29.4429 176.715 30.0249 176.908 30.5248C177.1 31.0248 177.379 31.4161 177.744 31.6989C178.109 31.9776 178.555 32.1169 179.084 32.1169C179.633 32.1169 180.092 31.9714 180.461 31.6805C180.83 31.3854 181.108 30.9859 181.297 30.4818C181.489 29.9777 181.586 29.4102 181.586 28.7791C181.586 28.1562 181.491 27.5968 181.303 27.1009C181.119 26.6051 180.84 26.2137 180.467 25.9268C180.098 25.64 179.637 25.4965 179.084 25.4965C178.551 25.4965 178.1 25.6338 177.732 25.9084C177.367 26.183 177.09 26.5661 176.902 27.0579C176.713 27.5497 176.619 28.1234 176.619 28.7791ZM192.581 26.3633L190.915 26.6583C190.846 26.4452 190.735 26.2424 190.583 26.0498C190.436 25.8572 190.235 25.6994 189.981 25.5765C189.727 25.4535 189.409 25.392 189.028 25.392C188.508 25.392 188.073 25.5088 187.725 25.7424C187.377 25.9719 187.203 26.269 187.203 26.6337C187.203 26.9493 187.319 27.2034 187.553 27.396C187.787 27.5886 188.164 27.7464 188.684 27.8693L190.184 28.2135C191.053 28.4143 191.7 28.7237 192.126 29.1417C192.553 29.5597 192.766 30.1027 192.766 30.7707C192.766 31.3362 192.602 31.8403 192.274 32.2829C191.95 32.7214 191.497 33.0656 190.915 33.3156C190.338 33.5656 189.668 33.6906 188.905 33.6906C187.848 33.6906 186.985 33.4652 186.317 33.0144C185.649 32.5595 185.24 31.9141 185.088 31.0781L186.865 30.8076C186.975 31.2707 187.203 31.6211 187.547 31.8587C187.891 32.0923 188.34 32.2091 188.893 32.2091C189.495 32.2091 189.977 32.0841 190.338 31.8341C190.698 31.5801 190.879 31.2707 190.879 30.9059C190.879 30.6109 190.768 30.363 190.547 30.1622C190.329 29.9613 189.995 29.8097 189.545 29.7073L187.946 29.3569C187.065 29.1561 186.414 28.8364 185.992 28.3979C185.574 27.9595 185.365 27.4042 185.365 26.7321C185.365 26.1748 185.52 25.6871 185.832 25.2691C186.143 24.8511 186.574 24.5253 187.123 24.2917C187.672 24.054 188.301 23.9352 189.01 23.9352C190.03 23.9352 190.833 24.1565 191.419 24.5991C192.006 25.0376 192.393 25.6256 192.581 26.3633ZM199.194 24.0581V25.5334H194.037V24.0581H199.194ZM195.42 21.796H197.258V30.7277C197.258 31.0842 197.311 31.3526 197.417 31.5329C197.524 31.7092 197.661 31.8301 197.829 31.8956C198.001 31.9571 198.188 31.9878 198.389 31.9878C198.536 31.9878 198.665 31.9776 198.776 31.9571C198.887 31.9366 198.973 31.9202 199.034 31.9079L199.366 33.4262C199.26 33.4672 199.108 33.5082 198.911 33.5492C198.715 33.5943 198.469 33.6188 198.174 33.6229C197.69 33.6311 197.239 33.5451 196.821 33.3648C196.403 33.1845 196.065 32.9058 195.807 32.5288C195.549 32.1517 195.42 31.6784 195.42 31.1088V21.796ZM201.227 33.5V24.0581H203.004V25.558H203.102C203.274 25.0499 203.577 24.6503 204.012 24.3593C204.45 24.0643 204.946 23.9167 205.499 23.9167C205.614 23.9167 205.749 23.9208 205.905 23.929C206.065 23.9372 206.19 23.9475 206.28 23.9598V25.7178C206.206 25.6973 206.075 25.6748 205.887 25.6502C205.698 25.6215 205.51 25.6072 205.321 25.6072C204.887 25.6072 204.499 25.6994 204.159 25.8838C203.823 26.0641 203.557 26.3161 203.36 26.6399C203.163 26.9595 203.065 27.3243 203.065 27.7341V33.5H201.227ZM210.534 33.709C209.935 33.709 209.394 33.5984 208.911 33.3771C208.427 33.1517 208.044 32.8259 207.761 32.3997C207.483 31.9735 207.343 31.451 207.343 30.8322C207.343 30.2994 207.446 29.8609 207.651 29.5167C207.856 29.1725 208.132 28.9 208.481 28.6992C208.829 28.4984 209.218 28.3467 209.649 28.2443C210.079 28.1418 210.517 28.064 210.964 28.0107C211.53 27.9451 211.989 27.8918 212.341 27.8509C212.693 27.8058 212.95 27.7341 213.109 27.6357C213.269 27.5374 213.349 27.3775 213.349 27.1562V27.1132C213.349 26.5764 213.197 26.1604 212.894 25.8654C212.595 25.5703 212.148 25.4228 211.554 25.4228C210.935 25.4228 210.448 25.5601 210.091 25.8346C209.739 26.1051 209.495 26.4063 209.36 26.7382L207.632 26.3448C207.837 25.7711 208.136 25.308 208.53 24.9556C208.927 24.5991 209.384 24.3409 209.901 24.1811C210.417 24.0172 210.96 23.9352 211.53 23.9352C211.907 23.9352 212.306 23.9803 212.728 24.0704C213.154 24.1565 213.552 24.3163 213.921 24.5499C214.294 24.7835 214.599 25.1175 214.837 25.5519C215.074 25.9822 215.193 26.5415 215.193 27.23V33.5H213.398V32.2091H213.325C213.206 32.4468 213.027 32.6804 212.79 32.9099C212.552 33.1394 212.247 33.3299 211.874 33.4816C211.501 33.6332 211.054 33.709 210.534 33.709ZM210.933 32.2337C211.441 32.2337 211.876 32.1333 212.236 31.9325C212.601 31.7317 212.878 31.4694 213.066 31.1457C213.259 30.8178 213.355 30.4675 213.355 30.0945V28.8774C213.29 28.943 213.163 29.0045 212.974 29.0618C212.79 29.1151 212.579 29.1622 212.341 29.2032C212.103 29.2401 211.872 29.2749 211.646 29.3077C211.421 29.3364 211.232 29.361 211.081 29.3815C210.724 29.4266 210.399 29.5024 210.103 29.6089C209.812 29.7155 209.579 29.8691 209.403 30.0699C209.231 30.2667 209.145 30.5289 209.145 30.8568C209.145 31.3117 209.313 31.6559 209.649 31.8895C209.985 32.119 210.413 32.2337 210.933 32.2337ZM222.049 24.0581V25.5334H216.891V24.0581H222.049ZM218.274 21.796H220.112V30.7277C220.112 31.0842 220.166 31.3526 220.272 31.5329C220.379 31.7092 220.516 31.8301 220.684 31.8956C220.856 31.9571 221.043 31.9878 221.243 31.9878C221.391 31.9878 221.52 31.9776 221.631 31.9571C221.741 31.9366 221.827 31.9202 221.889 31.9079L222.221 33.4262C222.114 33.4672 221.963 33.5082 221.766 33.5492C221.569 33.5943 221.323 33.6188 221.028 33.6229C220.545 33.6311 220.094 33.5451 219.676 33.3648C219.258 33.1845 218.92 32.9058 218.662 32.5288C218.404 32.1517 218.274 31.6784 218.274 31.1088V21.796ZM228.05 33.6906C227.12 33.6906 226.318 33.4918 225.646 33.0943C224.978 32.6927 224.462 32.1292 224.097 31.4039C223.737 30.6744 223.556 29.82 223.556 28.8405C223.556 27.8734 223.737 27.021 224.097 26.2834C224.462 25.5457 224.97 24.9699 225.622 24.556C226.277 24.1421 227.044 23.9352 227.921 23.9352C228.453 23.9352 228.97 24.0233 229.47 24.1995C229.97 24.3757 230.418 24.6523 230.816 25.0294C231.213 25.4064 231.527 25.8961 231.756 26.4985C231.986 27.0968 232.101 27.8242 232.101 28.6807V29.3323H224.595V27.9554H230.3C230.3 27.4718 230.201 27.0435 230.005 26.6706C229.808 26.2936 229.531 25.9965 229.175 25.7793C228.822 25.5621 228.408 25.4535 227.933 25.4535C227.417 25.4535 226.966 25.5806 226.581 25.8346C226.2 26.0846 225.904 26.4125 225.695 26.8182C225.491 27.2198 225.388 27.6562 225.388 28.1275V29.2032C225.388 29.8343 225.499 30.3712 225.72 30.8137C225.945 31.2563 226.259 31.5944 226.661 31.828C227.062 32.0575 227.531 32.1722 228.068 32.1722C228.417 32.1722 228.734 32.1231 229.021 32.0247C229.308 31.9223 229.556 31.7706 229.765 31.5698C229.974 31.369 230.134 31.1211 230.244 30.826L231.984 31.1395C231.845 31.6518 231.595 32.1005 231.234 32.4857C230.877 32.8669 230.429 33.164 229.888 33.3771C229.351 33.5861 228.738 33.6906 228.05 33.6906Z" fill="white"/>
<rect y="99.2212" width="395" height="53.6613" rx="4.32752" fill="#728389"/>
<path d="M160.249 122.218C160.184 121.636 159.913 121.185 159.438 120.866C158.963 120.542 158.364 120.38 157.643 120.38C157.127 120.38 156.68 120.462 156.303 120.626C155.926 120.786 155.633 121.007 155.424 121.29C155.219 121.568 155.117 121.886 155.117 122.243C155.117 122.542 155.186 122.8 155.326 123.017C155.469 123.234 155.655 123.417 155.885 123.564C156.119 123.708 156.369 123.828 156.635 123.927C156.901 124.021 157.157 124.099 157.403 124.16L158.633 124.48C159.034 124.578 159.446 124.712 159.868 124.88C160.29 125.048 160.682 125.269 161.042 125.544C161.403 125.818 161.694 126.158 161.915 126.564C162.141 126.97 162.253 127.455 162.253 128.021C162.253 128.734 162.069 129.367 161.7 129.92C161.335 130.473 160.805 130.91 160.108 131.23C159.415 131.549 158.577 131.709 157.594 131.709C156.651 131.709 155.836 131.559 155.147 131.26C154.459 130.961 153.92 130.537 153.531 129.988C153.141 129.435 152.926 128.779 152.885 128.021H154.791C154.828 128.476 154.975 128.855 155.233 129.158C155.496 129.457 155.83 129.68 156.235 129.828C156.645 129.971 157.094 130.043 157.582 130.043C158.118 130.043 158.596 129.959 159.014 129.791C159.436 129.619 159.768 129.381 160.01 129.078C160.251 128.771 160.372 128.412 160.372 128.002C160.372 127.629 160.266 127.324 160.053 127.086C159.844 126.849 159.559 126.652 159.198 126.496C158.842 126.341 158.438 126.203 157.987 126.084L156.5 125.679C155.492 125.404 154.692 125.001 154.102 124.468C153.516 123.935 153.223 123.23 153.223 122.353C153.223 121.628 153.42 120.995 153.813 120.454C154.207 119.913 154.74 119.493 155.412 119.194C156.084 118.89 156.842 118.739 157.686 118.739C158.538 118.739 159.29 118.888 159.942 119.187C160.598 119.487 161.114 119.898 161.491 120.423C161.868 120.943 162.065 121.542 162.081 122.218H160.249ZM170.357 127.584V122.058H172.201V131.5H170.394V129.865H170.295C170.078 130.369 169.73 130.789 169.25 131.125C168.775 131.457 168.183 131.623 167.474 131.623C166.867 131.623 166.33 131.49 165.863 131.223C165.4 130.953 165.035 130.553 164.769 130.025C164.507 129.496 164.376 128.842 164.376 128.064V122.058H166.214V127.843C166.214 128.486 166.392 128.998 166.748 129.379C167.105 129.76 167.568 129.951 168.138 129.951C168.482 129.951 168.824 129.865 169.164 129.693C169.508 129.521 169.793 129.26 170.019 128.912C170.248 128.564 170.361 128.121 170.357 127.584ZM174.818 131.5V118.911H176.656V123.589H176.766C176.873 123.392 177.027 123.165 177.227 122.906C177.428 122.648 177.707 122.423 178.063 122.23C178.42 122.034 178.891 121.935 179.477 121.935C180.24 121.935 180.92 122.128 181.518 122.513C182.116 122.898 182.586 123.454 182.926 124.179C183.27 124.904 183.442 125.777 183.442 126.798C183.442 127.818 183.272 128.693 182.932 129.422C182.592 130.148 182.125 130.707 181.53 131.1C180.936 131.49 180.258 131.684 179.496 131.684C178.922 131.684 178.453 131.588 178.088 131.396C177.727 131.203 177.445 130.978 177.24 130.719C177.035 130.461 176.877 130.232 176.766 130.031H176.613V131.5H174.818ZM176.619 126.779C176.619 127.443 176.715 128.025 176.908 128.525C177.1 129.025 177.379 129.416 177.744 129.699C178.109 129.978 178.555 130.117 179.084 130.117C179.633 130.117 180.092 129.971 180.461 129.68C180.83 129.385 181.108 128.986 181.297 128.482C181.489 127.978 181.586 127.41 181.586 126.779C181.586 126.156 181.491 125.597 181.303 125.101C181.119 124.605 180.84 124.214 180.467 123.927C180.098 123.64 179.637 123.497 179.084 123.497C178.551 123.497 178.1 123.634 177.732 123.908C177.367 124.183 177.09 124.566 176.902 125.058C176.713 125.55 176.619 126.123 176.619 126.779ZM192.581 124.363L190.915 124.658C190.846 124.445 190.735 124.242 190.583 124.05C190.436 123.857 190.235 123.699 189.981 123.576C189.727 123.454 189.409 123.392 189.028 123.392C188.508 123.392 188.073 123.509 187.725 123.742C187.377 123.972 187.203 124.269 187.203 124.634C187.203 124.949 187.319 125.203 187.553 125.396C187.787 125.589 188.164 125.746 188.684 125.869L190.184 126.214C191.053 126.414 191.7 126.724 192.126 127.142C192.553 127.56 192.766 128.103 192.766 128.771C192.766 129.336 192.602 129.84 192.274 130.283C191.95 130.721 191.497 131.066 190.915 131.316C190.338 131.566 189.668 131.691 188.905 131.691C187.848 131.691 186.985 131.465 186.317 131.014C185.649 130.56 185.24 129.914 185.088 129.078L186.865 128.808C186.975 129.271 187.203 129.621 187.547 129.859C187.891 130.092 188.34 130.209 188.893 130.209C189.495 130.209 189.977 130.084 190.338 129.834C190.698 129.58 190.879 129.271 190.879 128.906C190.879 128.611 190.768 128.363 190.547 128.162C190.329 127.961 189.995 127.81 189.545 127.707L187.946 127.357C187.065 127.156 186.414 126.836 185.992 126.398C185.574 125.959 185.365 125.404 185.365 124.732C185.365 124.175 185.52 123.687 185.832 123.269C186.143 122.851 186.574 122.525 187.123 122.292C187.672 122.054 188.301 121.935 189.01 121.935C190.03 121.935 190.833 122.156 191.419 122.599C192.006 123.038 192.393 123.626 192.581 124.363ZM199.194 122.058V123.533H194.037V122.058H199.194ZM195.42 119.796H197.258V128.728C197.258 129.084 197.311 129.353 197.417 129.533C197.524 129.709 197.661 129.83 197.829 129.896C198.001 129.957 198.188 129.988 198.389 129.988C198.536 129.988 198.665 129.978 198.776 129.957C198.887 129.937 198.973 129.92 199.034 129.908L199.366 131.426C199.26 131.467 199.108 131.508 198.911 131.549C198.715 131.594 198.469 131.619 198.174 131.623C197.69 131.631 197.239 131.545 196.821 131.365C196.403 131.184 196.065 130.906 195.807 130.529C195.549 130.152 195.42 129.678 195.42 129.109V119.796ZM201.227 131.5V122.058H203.004V123.558H203.102C203.274 123.05 203.577 122.65 204.012 122.359C204.45 122.064 204.946 121.917 205.499 121.917C205.614 121.917 205.749 121.921 205.905 121.929C206.065 121.937 206.19 121.947 206.28 121.96V123.718C206.206 123.697 206.075 123.675 205.887 123.65C205.698 123.622 205.51 123.607 205.321 123.607C204.887 123.607 204.499 123.699 204.159 123.884C203.823 124.064 203.557 124.316 203.36 124.64C203.163 124.96 203.065 125.324 203.065 125.734V131.5H201.227ZM210.534 131.709C209.935 131.709 209.394 131.598 208.911 131.377C208.427 131.152 208.044 130.826 207.761 130.4C207.483 129.973 207.343 129.451 207.343 128.832C207.343 128.299 207.446 127.861 207.651 127.517C207.856 127.172 208.132 126.9 208.481 126.699C208.829 126.498 209.218 126.347 209.649 126.244C210.079 126.142 210.517 126.064 210.964 126.011C211.53 125.945 211.989 125.892 212.341 125.851C212.693 125.806 212.95 125.734 213.109 125.636C213.269 125.537 213.349 125.378 213.349 125.156V125.113C213.349 124.576 213.197 124.16 212.894 123.865C212.595 123.57 212.148 123.423 211.554 123.423C210.935 123.423 210.448 123.56 210.091 123.835C209.739 124.105 209.495 124.406 209.36 124.738L207.632 124.345C207.837 123.771 208.136 123.308 208.53 122.956C208.927 122.599 209.384 122.341 209.901 122.181C210.417 122.017 210.96 121.935 211.53 121.935C211.907 121.935 212.306 121.98 212.728 122.07C213.154 122.156 213.552 122.316 213.921 122.55C214.294 122.783 214.599 123.117 214.837 123.552C215.074 123.982 215.193 124.542 215.193 125.23V131.5H213.398V130.209H213.325C213.206 130.447 213.027 130.68 212.79 130.91C212.552 131.139 212.247 131.33 211.874 131.482C211.501 131.633 211.054 131.709 210.534 131.709ZM210.933 130.234C211.441 130.234 211.876 130.133 212.236 129.933C212.601 129.732 212.878 129.469 213.066 129.146C213.259 128.818 213.355 128.467 213.355 128.095V126.877C213.29 126.943 213.163 127.004 212.974 127.062C212.79 127.115 212.579 127.162 212.341 127.203C212.103 127.24 211.872 127.275 211.646 127.308C211.421 127.336 211.232 127.361 211.081 127.381C210.724 127.427 210.399 127.502 210.103 127.609C209.812 127.715 209.579 127.869 209.403 128.07C209.231 128.267 209.145 128.529 209.145 128.857C209.145 129.312 209.313 129.656 209.649 129.889C209.985 130.119 210.413 130.234 210.933 130.234ZM222.049 122.058V123.533H216.891V122.058H222.049ZM218.274 119.796H220.112V128.728C220.112 129.084 220.166 129.353 220.272 129.533C220.379 129.709 220.516 129.83 220.684 129.896C220.856 129.957 221.043 129.988 221.243 129.988C221.391 129.988 221.52 129.978 221.631 129.957C221.741 129.937 221.827 129.92 221.889 129.908L222.221 131.426C222.114 131.467 221.963 131.508 221.766 131.549C221.569 131.594 221.323 131.619 221.028 131.623C220.545 131.631 220.094 131.545 219.676 131.365C219.258 131.184 218.92 130.906 218.662 130.529C218.404 130.152 218.274 129.678 218.274 129.109V119.796ZM228.05 131.691C227.12 131.691 226.318 131.492 225.646 131.094C224.978 130.693 224.462 130.129 224.097 129.404C223.737 128.674 223.556 127.82 223.556 126.841C223.556 125.873 223.737 125.021 224.097 124.283C224.462 123.546 224.97 122.97 225.622 122.556C226.277 122.142 227.044 121.935 227.921 121.935C228.453 121.935 228.97 122.023 229.47 122.2C229.97 122.376 230.418 122.652 230.816 123.029C231.213 123.406 231.527 123.896 231.756 124.499C231.986 125.097 232.101 125.824 232.101 126.681V127.332H224.595V125.955H230.3C230.3 125.472 230.201 125.044 230.005 124.671C229.808 124.294 229.531 123.997 229.175 123.779C228.822 123.562 228.408 123.454 227.933 123.454C227.417 123.454 226.966 123.581 226.581 123.835C226.2 124.085 225.904 124.412 225.695 124.818C225.491 125.22 225.388 125.656 225.388 126.127V127.203C225.388 127.834 225.499 128.371 225.72 128.814C225.945 129.256 226.259 129.594 226.661 129.828C227.062 130.057 227.531 130.172 228.068 130.172C228.417 130.172 228.734 130.123 229.021 130.025C229.308 129.922 229.556 129.771 229.765 129.57C229.974 129.369 230.134 129.121 230.244 128.826L231.984 129.14C231.845 129.652 231.595 130.101 231.234 130.486C230.877 130.867 230.429 131.164 229.888 131.377C229.351 131.586 228.738 131.691 228.05 131.691Z" fill="white"/>
</g>
<defs>
<radialGradient id="paint0_radial_729_2961" cx="0" cy="0" r="1" gradientUnits="userSpaceOnUse" gradientTransform="translate(177.392 70.1369) rotate(130.515) scale(27.1771)">
<stop stop-color="#D2F7E5"/>
<stop offset="1" stop-color="#A8D1E3"/>
</radialGradient>
<radialGradient id="paint1_radial_729_2961" cx="0" cy="0" r="1" gradientUnits="userSpaceOnUse" gradientTransform="translate(123.392 70.1369) rotate(130.515) scale(27.1771)">
<stop stop-color="#D2F7E5"/>
<stop offset="1" stop-color="#A8D1E3"/>
</radialGradient>
<radialGradient id="paint2_radial_729_2961" cx="0" cy="0" r="1" gradientUnits="userSpaceOnUse" gradientTransform="translate(69.3919 70.1369) rotate(130.515) scale(27.1771)">
<stop stop-color="#D2F7E5"/>
<stop offset="1" stop-color="#A8D1E3"/>
</radialGradient>
<radialGradient id="paint3_radial_729_2961" cx="0" cy="0" r="1" gradientUnits="userSpaceOnUse" gradientTransform="translate(231.392 70.1369) rotate(130.515) scale(27.1771)">
<stop stop-color="#D2F7E5"/>
<stop offset="1" stop-color="#A8D1E3"/>
</radialGradient>
<radialGradient id="paint4_radial_729_2961" cx="0" cy="0" r="1" gradientUnits="userSpaceOnUse" gradientTransform="translate(285.392 70.1369) rotate(130.515) scale(27.1771)">
<stop stop-color="#D2F7E5"/>
<stop offset="1" stop-color="#A8D1E3"/>
</radialGradient>
<radialGradient id="paint5_radial_729_2961" cx="0" cy="0" r="1" gradientUnits="userSpaceOnUse" gradientTransform="translate(339.392 70.1369) rotate(130.515) scale(27.1771)">
<stop stop-color="#D2F7E5"/>
<stop offset="1" stop-color="#A8D1E3"/>
</radialGradient>
<clipPath id="clip0_729_2961">
<rect width="395" height="153" fill="white" transform="translate(0 0.5)"/>
</clipPath>
</defs>
</svg>
