<svg width="269" height="106" viewBox="0 0 269 106" fill="none" xmlns="http://www.w3.org/2000/svg">
<path fill-rule="evenodd" clip-rule="evenodd" d="M90.9927 68.7319C94.8965 68.0753 97.9482 62.3559 97.9482 55.3974C97.9482 48.439 94.8965 42.7195 90.9927 42.0629V42H181.985V42.0629C178.081 42.7196 175.03 48.439 175.03 55.3974C175.03 62.3558 178.081 68.0752 181.985 68.7319V69.4999H90.9927V68.7319Z" fill="#455A64"/>
<rect x="99.1846" y="41.4999" width="74.3883" height="27" rx="3" fill="url(#paint0_linear_887_2754)"/>
<path fill-rule="evenodd" clip-rule="evenodd" d="M229 86.5745C223.955 84.6403 220.306 79.0278 220.306 72.4057C220.306 72.2951 220.307 72.1848 220.309 72.0748H51.5497C51.6004 72.618 51.6264 73.17 51.6264 73.7292C51.6264 81.1708 47.0191 87.3373 41 88.4421V88.6183H229V86.5745Z" fill="#455A64"/>
<rect x="51" y="67.4999" width="170.567" height="22" rx="3" fill="url(#paint1_linear_887_2754)"/>
<rect y="88.4999" width="269" height="17" fill="#D9D9D9"/>
<rect y="88.4999" width="269" height="17" fill="url(#paint2_linear_887_2754)"/>
<rect x="51" y="20.4997" width="170.567" height="22" rx="3" fill="url(#paint3_linear_887_2754)"/>
<path fill-rule="evenodd" clip-rule="evenodd" d="M18.9994 88.6183C19.0429 88.3332 19.0657 88.0381 19.0657 87.736C19.0657 85.2995 17.5816 83.3244 15.7509 83.3244C13.9201 83.3244 12.436 85.2995 12.436 87.736C12.436 88.0381 12.4589 88.3332 12.5023 88.6183H18.9994Z" fill="#E6E6E6"/>
<path fill-rule="evenodd" clip-rule="evenodd" d="M34.911 88.6183C34.9545 88.3332 34.9774 88.0381 34.9774 87.736C34.9774 85.2995 33.4932 83.3244 31.6625 83.3244C29.8318 83.3244 28.3477 85.2995 28.3477 87.736C28.3477 88.0381 28.3705 88.3332 28.414 88.6183H34.911Z" fill="#E6E6E6"/>
<path fill-rule="evenodd" clip-rule="evenodd" d="M67.225 67.7957C67.2685 67.5106 67.2913 67.2155 67.2913 66.9134C67.2913 64.4769 65.8072 62.5018 63.9765 62.5018C62.1457 62.5018 60.6616 64.4769 60.6616 66.9134C60.6616 67.2155 60.6844 67.5106 60.7279 67.7957H67.225Z" fill="#E6E6E6"/>
<path fill-rule="evenodd" clip-rule="evenodd" d="M67.225 20.7955C67.2685 20.5105 67.2913 20.2154 67.2913 19.9132C67.2913 17.4768 65.8072 15.5016 63.9765 15.5016C62.1457 15.5016 60.6616 17.4768 60.6616 19.9132C60.6616 20.2154 60.6844 20.5105 60.7279 20.7955H67.225Z" fill="#E6E6E6"/>
<path d="M15 88.5002C18.7512 37.5465 24.705 7.77923 41.0312 2.15118C50.9844 -1.2799 64 9.58521 64 17.5911" stroke="#E6E6E6" stroke-width="3"/>
<path d="M31 88.5002C32.2925 77.8576 34.7808 62.9385 46.5517 59.3487C54.5172 56.9193 64 60.0858 64 64.0543" stroke="#E6E6E6" stroke-width="3"/>
<defs>
<linearGradient id="paint0_linear_887_2754" x1="136.379" y1="41.4999" x2="136.379" y2="68.4999" gradientUnits="userSpaceOnUse">
<stop offset="0.046875" stop-color="#D2E5F3"/>
<stop offset="1" stop-color="#A0A2A3"/>
</linearGradient>
<linearGradient id="paint1_linear_887_2754" x1="136.284" y1="67.4999" x2="136.284" y2="89.4999" gradientUnits="userSpaceOnUse">
<stop offset="0.046875" stop-color="#D2E5F3"/>
<stop offset="1" stop-color="#A0A2A3"/>
</linearGradient>
<linearGradient id="paint2_linear_887_2754" x1="134.5" y1="88.4999" x2="134.5" y2="105.5" gradientUnits="userSpaceOnUse">
<stop stop-color="#1B8842"/>
<stop offset="1" stop-color="#15779F"/>
</linearGradient>
<linearGradient id="paint3_linear_887_2754" x1="136.284" y1="20.4997" x2="136.284" y2="42.4997" gradientUnits="userSpaceOnUse">
<stop offset="0.046875" stop-color="#D2E5F3"/>
<stop offset="1" stop-color="#A0A2A3"/>
</linearGradient>
</defs>
</svg>
