<svg width="289" height="166" viewBox="0 0 289 166" fill="none" xmlns="http://www.w3.org/2000/svg">
<path fill-rule="evenodd" clip-rule="evenodd" d="M119.696 125.496L255.865 46.8787V49.0034L119.696 127.62V125.496Z" fill="url(#paint0_linear_863_2393)"/>
<path fill-rule="evenodd" clip-rule="evenodd" d="M255.865 46.8787L287.147 64.9393V67.0641L255.865 49.0034V46.8787Z" fill="url(#paint1_linear_863_2393)"/>
<path fill-rule="evenodd" clip-rule="evenodd" d="M287.147 64.9393L150.978 143.556V145.681L287.147 67.0641V64.9393Z" fill="url(#paint2_linear_863_2393)"/>
<path fill-rule="evenodd" clip-rule="evenodd" d="M150.978 143.556L119.696 125.496V127.621L150.978 145.681V143.556Z" fill="url(#paint3_linear_863_2393)"/>
<path d="M119.696 125.496L255.865 46.8787L287.147 64.9393L150.978 143.556L119.696 125.496Z" fill="url(#paint4_linear_863_2393)"/>
<path fill-rule="evenodd" clip-rule="evenodd" d="M83.575 105.664L219.744 27.0474V29.1721L83.575 107.789V105.664Z" fill="#5A7F9B"/>
<path fill-rule="evenodd" clip-rule="evenodd" d="M219.743 27.0474L242.438 40.1502V42.275L219.743 29.1721V27.0474Z" fill="#5A7F9B"/>
<path fill-rule="evenodd" clip-rule="evenodd" d="M242.438 40.1503L106.27 118.767V120.892L242.438 42.2751V40.1503Z" fill="#5A7F9B"/>
<path fill-rule="evenodd" clip-rule="evenodd" d="M106.27 118.767L83.575 105.664V107.789L106.27 120.892V118.767Z" fill="#5A7F9B"/>
<path d="M83.575 105.664L219.744 27.0474L242.438 40.1502L106.27 118.767L83.575 105.664Z" fill="url(#paint5_linear_863_2393)"/>
<path fill-rule="evenodd" clip-rule="evenodd" d="M52.4114 95.0405L188.58 16.4235V18.5482L52.4114 97.1653V95.0405Z" fill="#5A7F9B"/>
<path fill-rule="evenodd" clip-rule="evenodd" d="M188.58 16.4235L206.981 27.0474V29.1722L188.58 18.5482V16.4235Z" fill="#5A7F9B"/>
<path fill-rule="evenodd" clip-rule="evenodd" d="M206.981 27.0474L70.8125 105.664V107.789L206.981 29.1721V27.0474Z" fill="#5A7F9B"/>
<path fill-rule="evenodd" clip-rule="evenodd" d="M70.8125 105.664L52.4114 95.0404V97.1652L70.8125 107.789V105.664Z" fill="#5A7F9B"/>
<path d="M52.4114 95.0405L188.58 16.4235L206.981 27.0474L70.8125 105.664L52.4114 95.0405Z" fill="url(#paint6_linear_863_2393)"/>
<path fill-rule="evenodd" clip-rule="evenodd" d="M26.9138 86.5413L163.082 7.92432V10.0491L26.9138 88.6661V86.5413Z" fill="#5A7F9B"/>
<path fill-rule="evenodd" clip-rule="evenodd" d="M163.083 7.92432L179.03 17.1317V19.2565L163.083 10.0491V7.92432Z" fill="#5A7F9B"/>
<path fill-rule="evenodd" clip-rule="evenodd" d="M179.03 17.1317L42.8616 95.7487V97.8735L179.03 19.2565V17.1317Z" fill="#5A7F9B"/>
<path fill-rule="evenodd" clip-rule="evenodd" d="M42.8615 95.7487L26.9138 86.5413V88.666L42.8615 97.8734V95.7487Z" fill="#5A7F9B"/>
<path d="M26.9138 86.5413L163.082 7.92432L179.03 17.1317L42.8615 95.7487L26.9138 86.5413Z" fill="url(#paint7_linear_863_2393)"/>
<path fill-rule="evenodd" clip-rule="evenodd" d="M7.79077 79.4587L143.959 0.841675V2.96646L7.79077 81.5835V79.4587Z" fill="#5A7F9B"/>
<path fill-rule="evenodd" clip-rule="evenodd" d="M143.959 0.841675L157.454 8.63255V10.7573L143.959 2.96646V0.841675Z" fill="#5A7F9B"/>
<path fill-rule="evenodd" clip-rule="evenodd" d="M157.454 8.63257L21.2849 87.2496V89.3744L157.454 10.7574V8.63257Z" fill="#5A7F9B"/>
<path fill-rule="evenodd" clip-rule="evenodd" d="M21.285 87.2496L7.79077 79.4587V81.5835L21.285 89.3744V87.2496Z" fill="#5A7F9B"/>
<path d="M7.79077 79.4587L143.959 0.841675L157.454 8.63255L21.285 87.2496L7.79077 79.4587Z" fill="url(#paint8_linear_863_2393)"/>
<rect x="117.899" y="119.059" width="145.051" height="2.47891" transform="rotate(-29.8614 117.899 119.059)" fill="url(#paint9_linear_863_2393)"/>
<rect x="82.8665" y="103.451" width="145.051" height="1.41652" transform="rotate(-30.4777 82.8665 103.451)" fill="url(#paint10_linear_863_2393)"/>
<rect x="46.364" y="96.4138" width="145.051" height="0.708261" transform="rotate(-29.8738 46.364 96.4138)" fill="url(#paint11_linear_863_2393)"/>
<g filter="url(#filter0_d_863_2393)">
<path d="M75.7839 146.035L113.322 123.371" stroke="#728389" stroke-width="0.708261"/>
</g>
<path d="M18.5635 154.619H17.1544C17.0711 154.213 16.9252 153.857 16.7169 153.551C16.5124 153.244 16.2624 152.986 15.9669 152.778C15.6752 152.566 15.3514 152.407 14.9953 152.301C14.6393 152.195 14.268 152.142 13.8817 152.142C13.1771 152.142 12.5389 152.32 11.9669 152.676C11.3987 153.032 10.9461 153.556 10.609 154.249C10.2756 154.943 10.109 155.793 10.109 156.801C10.109 157.808 10.2756 158.659 10.609 159.352C10.9461 160.045 11.3987 160.57 11.9669 160.926C12.5389 161.282 13.1771 161.46 13.8817 161.46C14.268 161.46 14.6393 161.407 14.9953 161.301C15.3514 161.195 15.6752 161.037 15.9669 160.829C16.2624 160.617 16.5124 160.357 16.7169 160.051C16.9252 159.74 17.0711 159.384 17.1544 158.982H18.5635C18.4574 159.577 18.2643 160.109 17.984 160.579C17.7037 161.049 17.3552 161.448 16.9385 161.778C16.5218 162.104 16.054 162.352 15.5351 162.522C15.0199 162.693 14.4688 162.778 13.8817 162.778C12.8893 162.778 12.0067 162.535 11.234 162.051C10.4612 161.566 9.85327 160.876 9.41009 159.982C8.96691 159.088 8.74532 158.028 8.74532 156.801C8.74532 155.573 8.96691 154.513 9.41009 153.619C9.85327 152.725 10.4612 152.035 11.234 151.551C12.0067 151.066 12.8893 150.823 13.8817 150.823C14.4688 150.823 15.0199 150.909 15.5351 151.079C16.054 151.249 16.5218 151.499 16.9385 151.829C17.3552 152.155 17.7037 152.552 17.984 153.022C18.2643 153.488 18.4574 154.02 18.5635 154.619ZM24.2041 162.801C23.4162 162.801 22.725 162.613 22.1303 162.238C21.5394 161.863 21.0772 161.338 20.7439 160.664C20.4144 159.99 20.2496 159.202 20.2496 158.301C20.2496 157.392 20.4144 156.598 20.7439 155.92C21.0772 155.242 21.5394 154.715 22.1303 154.34C22.725 153.965 23.4162 153.778 24.2041 153.778C24.992 153.778 25.6814 153.965 26.2723 154.34C26.867 154.715 27.3291 155.242 27.6587 155.92C27.992 156.598 28.1587 157.392 28.1587 158.301C28.1587 159.202 27.992 159.99 27.6587 160.664C27.3291 161.338 26.867 161.863 26.2723 162.238C25.6814 162.613 24.992 162.801 24.2041 162.801ZM24.2041 161.596C24.8026 161.596 25.295 161.443 25.6814 161.136C26.0678 160.829 26.3537 160.426 26.5394 159.926C26.725 159.426 26.8178 158.884 26.8178 158.301C26.8178 157.717 26.725 157.174 26.5394 156.67C26.3537 156.166 26.0678 155.759 25.6814 155.448C25.295 155.138 24.8026 154.982 24.2041 154.982C23.6056 154.982 23.1132 155.138 22.7269 155.448C22.3405 155.759 22.0545 156.166 21.8689 156.67C21.6833 157.174 21.5905 157.717 21.5905 158.301C21.5905 158.884 21.6833 159.426 21.8689 159.926C22.0545 160.426 22.3405 160.829 22.7269 161.136C23.1132 161.443 23.6056 161.596 24.2041 161.596ZM31.5465 157.369V162.619H30.2055V153.892H31.501V155.255H31.6146C31.8192 154.812 32.1298 154.456 32.5465 154.187C32.9631 153.914 33.501 153.778 34.1601 153.778C34.751 153.778 35.268 153.899 35.7112 154.142C36.1544 154.38 36.4991 154.744 36.7453 155.232C36.9915 155.717 37.1146 156.331 37.1146 157.073V162.619H35.7737V157.164C35.7737 156.479 35.5957 155.945 35.2396 155.562C34.8836 155.176 34.3949 154.982 33.7737 154.982C33.3457 154.982 32.9631 155.075 32.626 155.261C32.2927 155.446 32.0294 155.717 31.8362 156.073C31.643 156.429 31.5465 156.861 31.5465 157.369ZM42.8604 162.801C42.1331 162.801 41.4911 162.617 40.9342 162.249C40.3774 161.878 39.9418 161.356 39.6274 160.681C39.313 160.003 39.1558 159.202 39.1558 158.278C39.1558 157.361 39.313 156.566 39.6274 155.892C39.9418 155.217 40.3793 154.696 40.9399 154.329C41.5005 153.962 42.1483 153.778 42.8831 153.778C43.4513 153.778 43.9001 153.873 44.2297 154.062C44.563 154.248 44.8168 154.46 44.9911 154.698C45.1691 154.933 45.3073 155.126 45.4058 155.278H45.5195V150.982H46.8604V162.619H45.5649V161.278H45.4058C45.3073 161.437 45.1672 161.638 44.9854 161.88C44.8036 162.119 44.5441 162.333 44.207 162.522C43.8698 162.708 43.421 162.801 42.8604 162.801ZM43.0422 161.596C43.5801 161.596 44.0346 161.456 44.4058 161.176C44.777 160.892 45.0592 160.499 45.2524 159.999C45.4456 159.496 45.5422 158.914 45.5422 158.255C45.5422 157.604 45.4475 157.034 45.2581 156.545C45.0687 156.052 44.7884 155.67 44.4172 155.397C44.046 155.121 43.5876 154.982 43.0422 154.982C42.474 154.982 42.0005 155.128 41.6217 155.42C41.2467 155.708 40.9645 156.1 40.7751 156.596C40.5895 157.088 40.4967 157.642 40.4967 158.255C40.4967 158.876 40.5914 159.441 40.7808 159.948C40.974 160.452 41.2581 160.854 41.6331 161.153C42.0119 161.448 42.4816 161.596 43.0422 161.596ZM55.0024 159.051V153.892H56.3433V162.619H55.0024V161.142H54.9115C54.707 161.585 54.3888 161.962 53.957 162.272C53.5251 162.579 52.9797 162.732 52.3206 162.732C51.7751 162.732 51.2903 162.613 50.8661 162.374C50.4418 162.132 50.1085 161.768 49.8661 161.284C49.6236 160.795 49.5024 160.179 49.5024 159.437V153.892H50.8433V159.346C50.8433 159.982 51.0214 160.49 51.3774 160.869C51.7373 161.248 52.1956 161.437 52.7524 161.437C53.0858 161.437 53.4248 161.352 53.7695 161.181C54.1179 161.011 54.4096 160.749 54.6445 160.397C54.8831 160.045 55.0024 159.596 55.0024 159.051ZM62.3447 162.801C61.5266 162.801 60.822 162.607 60.2311 162.221C59.6402 161.835 59.1857 161.302 58.8675 160.624C58.5493 159.946 58.3902 159.172 58.3902 158.301C58.3902 157.414 58.5531 156.632 58.8788 155.954C59.2084 155.272 59.6667 154.74 60.2538 154.357C60.8447 153.971 61.5341 153.778 62.322 153.778C62.9357 153.778 63.4887 153.892 63.9811 154.119C64.4735 154.346 64.8769 154.664 65.1913 155.073C65.5057 155.482 65.7008 155.96 65.7766 156.505H64.4357C64.3334 156.107 64.1061 155.755 63.7538 155.448C63.4054 155.138 62.9357 154.982 62.3447 154.982C61.822 154.982 61.3637 155.119 60.9697 155.392C60.5796 155.66 60.2747 156.041 60.055 156.534C59.8391 157.022 59.7311 157.596 59.7311 158.255C59.7311 158.929 59.8372 159.517 60.0493 160.017C60.2652 160.517 60.5682 160.905 60.9584 161.181C61.3523 161.458 61.8144 161.596 62.3447 161.596C62.6932 161.596 63.0095 161.535 63.2936 161.414C63.5777 161.293 63.8182 161.119 64.0152 160.892C64.2122 160.664 64.3523 160.392 64.4357 160.073H65.7766C65.7008 160.588 65.5133 161.052 65.2141 161.465C64.9186 161.874 64.5266 162.2 64.0379 162.443C63.5531 162.681 62.9887 162.801 62.3447 162.801ZM71.5322 153.892V155.028H67.0095V153.892H71.5322ZM68.3277 151.801H69.6686V160.119C69.6686 160.498 69.7235 160.782 69.8334 160.971C69.947 161.157 70.091 161.282 70.2652 161.346C70.4432 161.407 70.6307 161.437 70.8277 161.437C70.9754 161.437 71.0966 161.429 71.1913 161.414C71.286 161.395 71.3618 161.38 71.4186 161.369L71.6913 162.573C71.6004 162.607 71.4735 162.642 71.3107 162.676C71.1478 162.713 70.9413 162.732 70.6913 162.732C70.3126 162.732 69.9413 162.651 69.5777 162.488C69.2179 162.325 68.9186 162.077 68.68 161.744C68.4451 161.41 68.3277 160.99 68.3277 160.482V151.801ZM73.5493 162.619V153.892H74.8902V162.619H73.5493ZM74.2311 152.437C73.9697 152.437 73.7444 152.348 73.555 152.17C73.3694 151.992 73.2766 151.778 73.2766 151.528C73.2766 151.278 73.3694 151.064 73.555 150.886C73.7444 150.708 73.9697 150.619 74.2311 150.619C74.4925 150.619 74.716 150.708 74.9016 150.886C75.091 151.064 75.1857 151.278 75.1857 151.528C75.1857 151.778 75.091 151.992 74.9016 152.17C74.716 152.348 74.4925 152.437 74.2311 152.437ZM84.4825 153.892L81.2553 162.619H79.8916L76.6644 153.892H78.1189L80.528 160.846H80.6189L83.028 153.892H84.4825ZM89.599 162.801C88.7581 162.801 88.0327 162.615 87.4229 162.244C86.8168 161.869 86.349 161.346 86.0195 160.676C85.6937 160.001 85.5308 159.217 85.5308 158.323C85.5308 157.429 85.6937 156.642 86.0195 155.96C86.349 155.274 86.8073 154.74 87.3945 154.357C87.9854 153.971 88.6748 153.778 89.4626 153.778C89.9172 153.778 90.3661 153.854 90.8092 154.005C91.2524 154.157 91.6558 154.403 92.0195 154.744C92.3831 155.081 92.6729 155.528 92.8888 156.085C93.1047 156.642 93.2126 157.327 93.2126 158.142V158.71H86.4854V157.551H91.849C91.849 157.058 91.7505 156.619 91.5536 156.232C91.3604 155.846 91.0839 155.541 90.724 155.318C90.3679 155.094 89.9475 154.982 89.4626 154.982C88.9286 154.982 88.4664 155.115 88.0763 155.38C87.6899 155.642 87.3926 155.982 87.1842 156.403C86.9759 156.823 86.8717 157.274 86.8717 157.755V158.528C86.8717 159.187 86.9854 159.746 87.2126 160.204C87.4437 160.659 87.7638 161.005 88.1729 161.244C88.582 161.479 89.0573 161.596 89.599 161.596C89.9513 161.596 90.2695 161.547 90.5536 161.448C90.8414 161.346 91.0895 161.195 91.2979 160.994C91.5062 160.789 91.6672 160.535 91.7808 160.232L93.0763 160.596C92.9399 161.035 92.7108 161.422 92.3888 161.755C92.0668 162.085 91.6691 162.342 91.1956 162.528C90.7221 162.71 90.1899 162.801 89.599 162.801ZM102.321 162.823C101.768 162.823 101.266 162.719 100.815 162.511C100.364 162.299 100.006 161.994 99.7411 161.596C99.4759 161.195 99.3433 160.71 99.3433 160.142C99.3433 159.642 99.4418 159.236 99.6388 158.926C99.8358 158.611 100.099 158.365 100.429 158.187C100.758 158.009 101.122 157.876 101.519 157.789C101.921 157.698 102.324 157.626 102.73 157.573C103.26 157.505 103.69 157.454 104.019 157.42C104.353 157.382 104.595 157.32 104.747 157.232C104.902 157.145 104.98 156.994 104.98 156.778V156.732C104.98 156.172 104.826 155.736 104.519 155.426C104.216 155.115 103.756 154.96 103.139 154.96C102.499 154.96 101.997 155.1 101.633 155.38C101.269 155.66 101.014 155.96 100.866 156.278L99.5933 155.823C99.8206 155.293 100.124 154.88 100.502 154.585C100.885 154.285 101.302 154.077 101.752 153.96C102.207 153.838 102.654 153.778 103.093 153.778C103.374 153.778 103.696 153.812 104.059 153.88C104.427 153.945 104.781 154.079 105.122 154.284C105.466 154.488 105.752 154.797 105.98 155.21C106.207 155.623 106.321 156.176 106.321 156.869V162.619H104.98V161.437H104.912C104.821 161.626 104.669 161.829 104.457 162.045C104.245 162.261 103.963 162.445 103.61 162.596C103.258 162.748 102.828 162.823 102.321 162.823ZM102.525 161.619C103.055 161.619 103.502 161.515 103.866 161.306C104.233 161.098 104.51 160.829 104.696 160.499C104.885 160.17 104.98 159.823 104.98 159.46V158.232C104.923 158.301 104.798 158.363 104.605 158.42C104.415 158.473 104.196 158.52 103.946 158.562C103.699 158.6 103.459 158.634 103.224 158.664C102.993 158.691 102.805 158.713 102.662 158.732C102.313 158.778 101.987 158.852 101.684 158.954C101.385 159.052 101.143 159.202 100.957 159.403C100.775 159.6 100.684 159.869 100.684 160.21C100.684 160.676 100.857 161.028 101.201 161.267C101.55 161.501 101.991 161.619 102.525 161.619ZM112.063 162.801C111.336 162.801 110.694 162.617 110.137 162.249C109.581 161.878 109.145 161.356 108.831 160.681C108.516 160.003 108.359 159.202 108.359 158.278C108.359 157.361 108.516 156.566 108.831 155.892C109.145 155.217 109.582 154.696 110.143 154.329C110.704 153.962 111.351 153.778 112.086 153.778C112.654 153.778 113.103 153.873 113.433 154.062C113.766 154.248 114.02 154.46 114.194 154.698C114.372 154.933 114.51 155.126 114.609 155.278H114.723V150.982H116.063V162.619H114.768V161.278H114.609C114.51 161.437 114.37 161.638 114.188 161.88C114.007 162.119 113.747 162.333 113.41 162.522C113.073 162.708 112.624 162.801 112.063 162.801ZM112.245 161.596C112.783 161.596 113.238 161.456 113.609 161.176C113.98 160.892 114.262 160.499 114.456 159.999C114.649 159.496 114.745 158.914 114.745 158.255C114.745 157.604 114.651 157.034 114.461 156.545C114.272 156.052 113.992 155.67 113.62 155.397C113.249 155.121 112.791 154.982 112.245 154.982C111.677 154.982 111.204 155.128 110.825 155.42C110.45 155.708 110.168 156.1 109.978 156.596C109.793 157.088 109.7 157.642 109.7 158.255C109.7 158.876 109.795 159.441 109.984 159.948C110.177 160.452 110.461 160.854 110.836 161.153C111.215 161.448 111.685 161.596 112.245 161.596ZM120.046 157.369V162.619H118.706V150.982H120.046V155.255H120.16C120.365 154.804 120.671 154.446 121.081 154.181C121.493 153.912 122.043 153.778 122.728 153.778C123.323 153.778 123.844 153.897 124.291 154.136C124.738 154.371 125.084 154.732 125.331 155.221C125.581 155.706 125.706 156.323 125.706 157.073V162.619H124.365V157.164C124.365 156.471 124.185 155.935 123.825 155.556C123.469 155.174 122.974 154.982 122.342 154.982C121.903 154.982 121.509 155.075 121.16 155.261C120.815 155.446 120.543 155.717 120.342 156.073C120.145 156.429 120.046 156.861 120.046 157.369ZM131.818 162.801C130.977 162.801 130.251 162.615 129.642 162.244C129.036 161.869 128.568 161.346 128.238 160.676C127.912 160.001 127.75 159.217 127.75 158.323C127.75 157.429 127.912 156.642 128.238 155.96C128.568 155.274 129.026 154.74 129.613 154.357C130.204 153.971 130.894 153.778 131.681 153.778C132.136 153.778 132.585 153.854 133.028 154.005C133.471 154.157 133.875 154.403 134.238 154.744C134.602 155.081 134.892 155.528 135.108 156.085C135.323 156.642 135.431 157.327 135.431 158.142V158.71H128.704V157.551H134.068C134.068 157.058 133.969 156.619 133.772 156.232C133.579 155.846 133.303 155.541 132.943 155.318C132.587 155.094 132.166 154.982 131.681 154.982C131.147 154.982 130.685 155.115 130.295 155.38C129.909 155.642 129.611 155.982 129.403 156.403C129.195 156.823 129.09 157.274 129.09 157.755V158.528C129.09 159.187 129.204 159.746 129.431 160.204C129.662 160.659 129.983 161.005 130.392 161.244C130.801 161.479 131.276 161.596 131.818 161.596C132.17 161.596 132.488 161.547 132.772 161.448C133.06 161.346 133.308 161.195 133.517 160.994C133.725 160.789 133.886 160.535 134 160.232L135.295 160.596C135.159 161.035 134.93 161.422 134.608 161.755C134.286 162.085 133.888 162.342 133.414 162.528C132.941 162.71 132.409 162.801 131.818 162.801ZM143.653 155.846L142.448 156.187C142.373 155.986 142.261 155.791 142.113 155.602C141.969 155.409 141.772 155.249 141.522 155.124C141.272 154.999 140.952 154.937 140.562 154.937C140.028 154.937 139.583 155.06 139.227 155.306C138.875 155.549 138.698 155.857 138.698 156.232C138.698 156.566 138.82 156.829 139.062 157.022C139.305 157.215 139.683 157.376 140.198 157.505L141.494 157.823C142.274 158.013 142.856 158.302 143.238 158.693C143.621 159.079 143.812 159.577 143.812 160.187C143.812 160.687 143.668 161.134 143.38 161.528C143.096 161.922 142.698 162.232 142.187 162.46C141.676 162.687 141.081 162.801 140.403 162.801C139.513 162.801 138.776 162.607 138.193 162.221C137.609 161.835 137.24 161.27 137.085 160.528L138.358 160.21C138.479 160.679 138.708 161.032 139.045 161.267C139.386 161.501 139.831 161.619 140.38 161.619C141.005 161.619 141.501 161.486 141.869 161.221C142.24 160.952 142.426 160.63 142.426 160.255C142.426 159.952 142.32 159.698 142.108 159.494C141.895 159.285 141.57 159.13 141.13 159.028L139.676 158.687C138.876 158.498 138.289 158.204 137.914 157.806C137.543 157.405 137.358 156.903 137.358 156.301C137.358 155.808 137.496 155.373 137.772 154.994C138.053 154.615 138.433 154.318 138.914 154.102C139.399 153.886 139.948 153.778 140.562 153.778C141.426 153.778 142.104 153.967 142.596 154.346C143.092 154.725 143.445 155.225 143.653 155.846ZM145.831 162.619V153.892H147.171V162.619H145.831ZM146.512 152.437C146.251 152.437 146.026 152.348 145.836 152.17C145.651 151.992 145.558 151.778 145.558 151.528C145.558 151.278 145.651 151.064 145.836 150.886C146.026 150.708 146.251 150.619 146.512 150.619C146.774 150.619 146.997 150.708 147.183 150.886C147.372 151.064 147.467 151.278 147.467 151.528C147.467 151.778 147.372 151.992 147.183 152.17C146.997 152.348 146.774 152.437 146.512 152.437ZM156.764 153.892L153.537 162.619H152.173L148.946 153.892H150.4L152.809 160.846H152.9L155.309 153.892H156.764ZM161.88 162.801C161.039 162.801 160.314 162.615 159.704 162.244C159.098 161.869 158.63 161.346 158.301 160.676C157.975 160.001 157.812 159.217 157.812 158.323C157.812 157.429 157.975 156.642 158.301 155.96C158.63 155.274 159.089 154.74 159.676 154.357C160.267 153.971 160.956 153.778 161.744 153.778C162.198 153.778 162.647 153.854 163.09 154.005C163.534 154.157 163.937 154.403 164.301 154.744C164.664 155.081 164.954 155.528 165.17 156.085C165.386 156.642 165.494 157.327 165.494 158.142V158.71H158.767V157.551H164.13C164.13 157.058 164.032 156.619 163.835 156.232C163.642 155.846 163.365 155.541 163.005 155.318C162.649 155.094 162.229 154.982 161.744 154.982C161.21 154.982 160.748 155.115 160.358 155.38C159.971 155.642 159.674 155.982 159.465 156.403C159.257 156.823 159.153 157.274 159.153 157.755V158.528C159.153 159.187 159.267 159.746 159.494 160.204C159.725 160.659 160.045 161.005 160.454 161.244C160.863 161.479 161.339 161.596 161.88 161.596C162.233 161.596 162.551 161.547 162.835 161.448C163.123 161.346 163.371 161.195 163.579 160.994C163.787 160.789 163.948 160.535 164.062 160.232L165.358 160.596C165.221 161.035 164.992 161.422 164.67 161.755C164.348 162.085 163.95 162.342 163.477 162.528C163.003 162.71 162.471 162.801 161.88 162.801Z" fill="#455A64"/>
<defs>
<filter id="filter0_d_863_2393" x="74.1843" y="123.068" width="40.7371" height="27.5202" filterUnits="userSpaceOnUse" color-interpolation-filters="sRGB">
<feFlood flood-opacity="0" result="BackgroundImageFix"/>
<feColorMatrix in="SourceAlpha" type="matrix" values="0 0 0 0 0 0 0 0 0 0 0 0 0 0 0 0 0 0 127 0" result="hardAlpha"/>
<feOffset dy="2.83305"/>
<feGaussianBlur stdDeviation="0.708261"/>
<feComposite in2="hardAlpha" operator="out"/>
<feColorMatrix type="matrix" values="0 0 0 0 0 0 0 0 0 0 0 0 0 0 0 0 0 0 0.4 0"/>
<feBlend mode="normal" in2="BackgroundImageFix" result="effect1_dropShadow_863_2393"/>
<feBlend mode="normal" in="SourceGraphic" in2="effect1_dropShadow_863_2393" result="shape"/>
</filter>
<linearGradient id="paint0_linear_863_2393" x1="187.781" y1="46.8787" x2="187.781" y2="127.62" gradientUnits="userSpaceOnUse">
<stop stop-color="#316489"/>
<stop offset="1" stop-color="#4C96CC"/>
</linearGradient>
<linearGradient id="paint1_linear_863_2393" x1="271.506" y1="46.8787" x2="271.506" y2="67.0641" gradientUnits="userSpaceOnUse">
<stop stop-color="#316489"/>
<stop offset="1" stop-color="#4C96CC"/>
</linearGradient>
<linearGradient id="paint2_linear_863_2393" x1="219.062" y1="64.9393" x2="219.062" y2="145.681" gradientUnits="userSpaceOnUse">
<stop stop-color="#316489"/>
<stop offset="1" stop-color="#4C96CC"/>
</linearGradient>
<linearGradient id="paint3_linear_863_2393" x1="135.337" y1="125.496" x2="135.337" y2="145.681" gradientUnits="userSpaceOnUse">
<stop stop-color="#316489"/>
<stop offset="1" stop-color="#4C96CC"/>
</linearGradient>
<linearGradient id="paint4_linear_863_2393" x1="203.422" y1="46.8787" x2="203.422" y2="143.556" gradientUnits="userSpaceOnUse">
<stop stop-color="#316489"/>
<stop offset="1" stop-color="#4C96CC"/>
</linearGradient>
<linearGradient id="paint5_linear_863_2393" x1="163.007" y1="27.0474" x2="163.007" y2="118.767" gradientUnits="userSpaceOnUse">
<stop stop-color="#316489"/>
<stop offset="1" stop-color="#4C96CC"/>
</linearGradient>
<linearGradient id="paint6_linear_863_2393" x1="129.696" y1="16.4235" x2="129.696" y2="105.664" gradientUnits="userSpaceOnUse">
<stop stop-color="#316489"/>
<stop offset="1" stop-color="#4C96CC"/>
</linearGradient>
<linearGradient id="paint7_linear_863_2393" x1="102.972" y1="7.92432" x2="102.972" y2="95.7487" gradientUnits="userSpaceOnUse">
<stop stop-color="#316489"/>
<stop offset="1" stop-color="#4C96CC"/>
</linearGradient>
<linearGradient id="paint8_linear_863_2393" x1="82.6222" y1="0.841675" x2="82.6222" y2="87.2496" gradientUnits="userSpaceOnUse">
<stop stop-color="#316489"/>
<stop offset="1" stop-color="#4C96CC"/>
</linearGradient>
<linearGradient id="paint9_linear_863_2393" x1="190.425" y1="119.059" x2="190.425" y2="121.538" gradientUnits="userSpaceOnUse">
<stop stop-color="#ADAAAA"/>
<stop offset="1" stop-color="#E0E0E0"/>
</linearGradient>
<linearGradient id="paint10_linear_863_2393" x1="155.392" y1="103.451" x2="155.392" y2="104.867" gradientUnits="userSpaceOnUse">
<stop stop-color="#ADAAAA"/>
<stop offset="1" stop-color="#E0E0E0"/>
</linearGradient>
<linearGradient id="paint11_linear_863_2393" x1="118.89" y1="96.4138" x2="118.89" y2="97.1221" gradientUnits="userSpaceOnUse">
<stop stop-color="#ADAAAA"/>
<stop offset="1" stop-color="#E0E0E0"/>
</linearGradient>
</defs>
</svg>
