<svg width="564" height="139" viewBox="0 0 564 139" fill="none" xmlns="http://www.w3.org/2000/svg">
<rect x="98" y="31" width="332" height="85" fill="#717171"/>
<rect x="98" y="45" width="224" height="32" rx="5" fill="#F0F0F0"/>
<rect x="99" y="84" width="223" height="32" fill="#455A64"/>
<rect x="98" width="332" height="38" rx="5" fill="#D9D9D9"/>
<rect x="98" width="332" height="38" rx="5" fill="url(#paint0_linear_797_639)"/>
<rect x="430" y="139" width="332" height="38" rx="5" transform="rotate(-180 430 139)" fill="#D9D9D9"/>
<rect x="430" y="139" width="332" height="38" rx="5" transform="rotate(-180 430 139)" fill="url(#paint1_linear_797_639)"/>
<rect x="98" y="38" width="224" height="7" fill="#728389"/>
<rect x="98" y="77" width="224" height="7" fill="#728389"/>
<rect x="107" y="89" width="37" height="12" fill="#687ECA"/>
<rect x="162" y="89" width="37" height="12" fill="#BB6868"/>
<rect x="217" y="89" width="37" height="12" fill="#5FC282"/>
<rect x="272" y="89" width="37" height="12" fill="#687ECA"/>
<circle cx="142" cy="61" r="16" fill="url(#paint2_radial_797_639)"/>
<circle cx="206" cy="61" r="16" fill="url(#paint3_radial_797_639)"/>
<circle cx="270" cy="61" r="16" fill="url(#paint4_radial_797_639)"/>
<circle cx="377.5" cy="69.5" r="31.5" fill="url(#paint5_radial_797_639)"/>
<path d="M214.364 118C214.239 117.617 214.074 117.275 213.869 116.972C213.669 116.665 213.428 116.403 213.148 116.188C212.871 115.972 212.557 115.807 212.205 115.693C211.852 115.58 211.466 115.523 211.045 115.523C210.356 115.523 209.729 115.701 209.165 116.057C208.6 116.413 208.152 116.938 207.818 117.631C207.485 118.324 207.318 119.174 207.318 120.182C207.318 121.189 207.487 122.04 207.824 122.733C208.161 123.426 208.617 123.951 209.193 124.307C209.769 124.663 210.417 124.841 211.136 124.841C211.803 124.841 212.39 124.699 212.898 124.415C213.409 124.127 213.807 123.722 214.091 123.199C214.379 122.672 214.523 122.053 214.523 121.341L214.955 121.432H211.455V120.182H215.886V121.432C215.886 122.39 215.682 123.223 215.273 123.932C214.867 124.64 214.307 125.189 213.591 125.58C212.879 125.966 212.061 126.159 211.136 126.159C210.106 126.159 209.201 125.917 208.42 125.432C207.644 124.947 207.038 124.258 206.602 123.364C206.17 122.47 205.955 121.409 205.955 120.182C205.955 119.261 206.078 118.434 206.324 117.699C206.574 116.96 206.926 116.331 207.381 115.812C207.835 115.294 208.373 114.896 208.994 114.619C209.616 114.343 210.299 114.205 211.045 114.205C211.659 114.205 212.231 114.297 212.761 114.483C213.295 114.665 213.771 114.924 214.188 115.261C214.608 115.595 214.958 115.994 215.239 116.46C215.519 116.922 215.712 117.436 215.818 118H214.364ZM219.459 114.364V126H218.118V114.364H219.459ZM224.483 126.205C223.93 126.205 223.428 126.1 222.977 125.892C222.527 125.68 222.169 125.375 221.903 124.977C221.638 124.576 221.506 124.091 221.506 123.523C221.506 123.023 221.604 122.617 221.801 122.307C221.998 121.992 222.261 121.746 222.591 121.568C222.92 121.39 223.284 121.258 223.682 121.17C224.083 121.08 224.487 121.008 224.892 120.955C225.422 120.886 225.852 120.835 226.182 120.801C226.515 120.763 226.758 120.701 226.909 120.614C227.064 120.527 227.142 120.375 227.142 120.159V120.114C227.142 119.553 226.989 119.117 226.682 118.807C226.379 118.496 225.919 118.341 225.301 118.341C224.661 118.341 224.159 118.481 223.795 118.761C223.432 119.042 223.176 119.341 223.028 119.659L221.756 119.205C221.983 118.674 222.286 118.261 222.665 117.966C223.047 117.667 223.464 117.458 223.915 117.341C224.369 117.22 224.816 117.159 225.256 117.159C225.536 117.159 225.858 117.193 226.222 117.261C226.589 117.326 226.943 117.46 227.284 117.665C227.629 117.869 227.915 118.178 228.142 118.591C228.369 119.004 228.483 119.557 228.483 120.25V126H227.142V124.818H227.074C226.983 125.008 226.831 125.21 226.619 125.426C226.407 125.642 226.125 125.826 225.773 125.977C225.42 126.129 224.991 126.205 224.483 126.205ZM224.688 125C225.218 125 225.665 124.896 226.028 124.688C226.396 124.479 226.672 124.21 226.858 123.881C227.047 123.551 227.142 123.205 227.142 122.841V121.614C227.085 121.682 226.96 121.744 226.767 121.801C226.578 121.854 226.358 121.902 226.108 121.943C225.862 121.981 225.621 122.015 225.386 122.045C225.155 122.072 224.968 122.095 224.824 122.114C224.475 122.159 224.15 122.233 223.847 122.335C223.547 122.434 223.305 122.583 223.119 122.784C222.938 122.981 222.847 123.25 222.847 123.591C222.847 124.057 223.019 124.409 223.364 124.648C223.712 124.883 224.153 125 224.688 125ZM237.112 119.227L235.908 119.568C235.832 119.367 235.72 119.172 235.572 118.983C235.429 118.79 235.232 118.631 234.982 118.506C234.732 118.381 234.411 118.318 234.021 118.318C233.487 118.318 233.042 118.441 232.686 118.688C232.334 118.93 232.158 119.239 232.158 119.614C232.158 119.947 232.279 120.21 232.521 120.403C232.764 120.597 233.143 120.758 233.658 120.886L234.953 121.205C235.733 121.394 236.315 121.684 236.697 122.074C237.08 122.46 237.271 122.958 237.271 123.568C237.271 124.068 237.127 124.515 236.839 124.909C236.555 125.303 236.158 125.614 235.646 125.841C235.135 126.068 234.54 126.182 233.862 126.182C232.972 126.182 232.235 125.989 231.652 125.602C231.069 125.216 230.699 124.652 230.544 123.909L231.817 123.591C231.938 124.061 232.167 124.413 232.504 124.648C232.845 124.883 233.29 125 233.839 125C234.464 125 234.961 124.867 235.328 124.602C235.699 124.333 235.885 124.011 235.885 123.636C235.885 123.333 235.779 123.08 235.567 122.875C235.355 122.667 235.029 122.511 234.589 122.409L233.135 122.068C232.336 121.879 231.749 121.585 231.374 121.188C231.002 120.786 230.817 120.284 230.817 119.682C230.817 119.189 230.955 118.754 231.232 118.375C231.512 117.996 231.893 117.699 232.374 117.483C232.858 117.267 233.408 117.159 234.021 117.159C234.885 117.159 235.563 117.348 236.055 117.727C236.552 118.106 236.904 118.606 237.112 119.227ZM245.472 119.227L244.267 119.568C244.191 119.367 244.08 119.172 243.932 118.983C243.788 118.79 243.591 118.631 243.341 118.506C243.091 118.381 242.771 118.318 242.381 118.318C241.847 118.318 241.402 118.441 241.045 118.688C240.693 118.93 240.517 119.239 240.517 119.614C240.517 119.947 240.638 120.21 240.881 120.403C241.123 120.597 241.502 120.758 242.017 120.886L243.312 121.205C244.093 121.394 244.674 121.684 245.057 122.074C245.439 122.46 245.631 122.958 245.631 123.568C245.631 124.068 245.487 124.515 245.199 124.909C244.915 125.303 244.517 125.614 244.006 125.841C243.494 126.068 242.9 126.182 242.222 126.182C241.331 126.182 240.595 125.989 240.011 125.602C239.428 125.216 239.059 124.652 238.903 123.909L240.176 123.591C240.297 124.061 240.527 124.413 240.864 124.648C241.205 124.883 241.65 125 242.199 125C242.824 125 243.32 124.867 243.688 124.602C244.059 124.333 244.244 124.011 244.244 123.636C244.244 123.333 244.138 123.08 243.926 122.875C243.714 122.667 243.388 122.511 242.949 122.409L241.494 122.068C240.695 121.879 240.108 121.585 239.733 121.188C239.362 120.786 239.176 120.284 239.176 119.682C239.176 119.189 239.314 118.754 239.591 118.375C239.871 117.996 240.252 117.699 240.733 117.483C241.218 117.267 241.767 117.159 242.381 117.159C243.244 117.159 243.922 117.348 244.415 117.727C244.911 118.106 245.263 118.606 245.472 119.227ZM258.331 119.227L257.126 119.568C257.051 119.367 256.939 119.172 256.791 118.983C256.647 118.79 256.45 118.631 256.2 118.506C255.95 118.381 255.63 118.318 255.24 118.318C254.706 118.318 254.261 118.441 253.905 118.688C253.553 118.93 253.376 119.239 253.376 119.614C253.376 119.947 253.498 120.21 253.74 120.403C253.982 120.597 254.361 120.758 254.876 120.886L256.172 121.205C256.952 121.394 257.534 121.684 257.916 122.074C258.299 122.46 258.49 122.958 258.49 123.568C258.49 124.068 258.346 124.515 258.058 124.909C257.774 125.303 257.376 125.614 256.865 125.841C256.354 126.068 255.759 126.182 255.081 126.182C254.191 126.182 253.454 125.989 252.871 125.602C252.287 125.216 251.918 124.652 251.763 123.909L253.036 123.591C253.157 124.061 253.386 124.413 253.723 124.648C254.064 124.883 254.509 125 255.058 125C255.683 125 256.179 124.867 256.547 124.602C256.918 124.333 257.104 124.011 257.104 123.636C257.104 123.333 256.998 123.08 256.786 122.875C256.573 122.667 256.248 122.511 255.808 122.409L254.354 122.068C253.554 121.879 252.967 121.585 252.592 121.188C252.221 120.786 252.036 120.284 252.036 119.682C252.036 119.189 252.174 118.754 252.45 118.375C252.731 117.996 253.111 117.699 253.592 117.483C254.077 117.267 254.626 117.159 255.24 117.159C256.104 117.159 256.782 117.348 257.274 117.727C257.77 118.106 258.123 118.606 258.331 119.227ZM266.009 122.432V117.273H267.349V126H266.009V124.523H265.918C265.713 124.966 265.395 125.343 264.963 125.653C264.531 125.96 263.986 126.114 263.327 126.114C262.781 126.114 262.296 125.994 261.872 125.756C261.448 125.513 261.115 125.15 260.872 124.665C260.63 124.176 260.509 123.561 260.509 122.818V117.273H261.849V122.727C261.849 123.364 262.027 123.871 262.384 124.25C262.743 124.629 263.202 124.818 263.759 124.818C264.092 124.818 264.431 124.733 264.776 124.562C265.124 124.392 265.416 124.131 265.651 123.778C265.889 123.426 266.009 122.977 266.009 122.432ZM269.987 126V114.364H271.328V118.659H271.442C271.54 118.508 271.677 118.314 271.851 118.08C272.029 117.841 272.283 117.629 272.612 117.443C272.946 117.254 273.396 117.159 273.964 117.159C274.699 117.159 275.347 117.343 275.908 117.71C276.468 118.078 276.906 118.598 277.22 119.273C277.535 119.947 277.692 120.742 277.692 121.659C277.692 122.583 277.535 123.384 277.22 124.062C276.906 124.737 276.47 125.259 275.913 125.631C275.357 125.998 274.714 126.182 273.987 126.182C273.427 126.182 272.978 126.089 272.641 125.903C272.304 125.714 272.044 125.5 271.862 125.261C271.68 125.019 271.54 124.818 271.442 124.659H271.283V126H269.987ZM271.305 121.636C271.305 122.295 271.402 122.877 271.595 123.381C271.788 123.881 272.071 124.273 272.442 124.557C272.813 124.837 273.268 124.977 273.805 124.977C274.366 124.977 274.834 124.83 275.209 124.534C275.588 124.235 275.872 123.833 276.061 123.33C276.254 122.822 276.351 122.258 276.351 121.636C276.351 121.023 276.256 120.47 276.067 119.977C275.881 119.481 275.599 119.089 275.22 118.801C274.845 118.509 274.374 118.364 273.805 118.364C273.26 118.364 272.802 118.502 272.43 118.778C272.059 119.051 271.779 119.434 271.589 119.926C271.4 120.415 271.305 120.985 271.305 121.636ZM285.925 119.227L284.72 119.568C284.644 119.367 284.533 119.172 284.385 118.983C284.241 118.79 284.044 118.631 283.794 118.506C283.544 118.381 283.224 118.318 282.834 118.318C282.3 118.318 281.855 118.441 281.499 118.688C281.146 118.93 280.97 119.239 280.97 119.614C280.97 119.947 281.091 120.21 281.334 120.403C281.576 120.597 281.955 120.758 282.47 120.886L283.766 121.205C284.546 121.394 285.127 121.684 285.51 122.074C285.893 122.46 286.084 122.958 286.084 123.568C286.084 124.068 285.94 124.515 285.652 124.909C285.368 125.303 284.97 125.614 284.459 125.841C283.947 126.068 283.353 126.182 282.675 126.182C281.785 126.182 281.048 125.989 280.464 125.602C279.881 125.216 279.512 124.652 279.357 123.909L280.629 123.591C280.75 124.061 280.98 124.413 281.317 124.648C281.658 124.883 282.103 125 282.652 125C283.277 125 283.773 124.867 284.141 124.602C284.512 124.333 284.697 124.011 284.697 123.636C284.697 123.333 284.591 123.08 284.379 122.875C284.167 122.667 283.841 122.511 283.402 122.409L281.947 122.068C281.148 121.879 280.561 121.585 280.186 121.188C279.815 120.786 279.629 120.284 279.629 119.682C279.629 119.189 279.768 118.754 280.044 118.375C280.324 117.996 280.705 117.699 281.186 117.483C281.671 117.267 282.22 117.159 282.834 117.159C283.697 117.159 284.375 117.348 284.868 117.727C285.364 118.106 285.716 118.606 285.925 119.227ZM291.898 117.273V118.409H287.375V117.273H291.898ZM288.693 115.182H290.034V123.5C290.034 123.879 290.089 124.163 290.199 124.352C290.313 124.538 290.456 124.663 290.631 124.727C290.809 124.788 290.996 124.818 291.193 124.818C291.341 124.818 291.462 124.811 291.557 124.795C291.652 124.777 291.727 124.761 291.784 124.75L292.057 125.955C291.966 125.989 291.839 126.023 291.676 126.057C291.513 126.095 291.307 126.114 291.057 126.114C290.678 126.114 290.307 126.032 289.943 125.869C289.583 125.706 289.284 125.458 289.045 125.125C288.811 124.792 288.693 124.371 288.693 123.864V115.182ZM293.915 126V117.273H295.21V118.591H295.301C295.46 118.159 295.748 117.809 296.165 117.54C296.581 117.271 297.051 117.136 297.574 117.136C297.672 117.136 297.795 117.138 297.943 117.142C298.091 117.146 298.203 117.152 298.278 117.159V118.523C298.233 118.511 298.129 118.494 297.966 118.472C297.807 118.445 297.638 118.432 297.46 118.432C297.036 118.432 296.657 118.521 296.324 118.699C295.994 118.873 295.733 119.116 295.54 119.426C295.35 119.733 295.256 120.083 295.256 120.477V126H293.915ZM302.436 126.205C301.883 126.205 301.381 126.1 300.93 125.892C300.48 125.68 300.122 125.375 299.857 124.977C299.591 124.576 299.459 124.091 299.459 123.523C299.459 123.023 299.557 122.617 299.754 122.307C299.951 121.992 300.214 121.746 300.544 121.568C300.874 121.39 301.237 121.258 301.635 121.17C302.036 121.08 302.44 121.008 302.845 120.955C303.375 120.886 303.805 120.835 304.135 120.801C304.468 120.763 304.711 120.701 304.862 120.614C305.018 120.527 305.095 120.375 305.095 120.159V120.114C305.095 119.553 304.942 119.117 304.635 118.807C304.332 118.496 303.872 118.341 303.254 118.341C302.614 118.341 302.112 118.481 301.749 118.761C301.385 119.042 301.129 119.341 300.982 119.659L299.709 119.205C299.936 118.674 300.239 118.261 300.618 117.966C301 117.667 301.417 117.458 301.868 117.341C302.322 117.22 302.769 117.159 303.209 117.159C303.489 117.159 303.811 117.193 304.175 117.261C304.542 117.326 304.896 117.46 305.237 117.665C305.582 117.869 305.868 118.178 306.095 118.591C306.322 119.004 306.436 119.557 306.436 120.25V126H305.095V124.818H305.027C304.936 125.008 304.785 125.21 304.572 125.426C304.36 125.642 304.078 125.826 303.726 125.977C303.374 126.129 302.944 126.205 302.436 126.205ZM302.641 125C303.171 125 303.618 124.896 303.982 124.688C304.349 124.479 304.625 124.21 304.811 123.881C305 123.551 305.095 123.205 305.095 122.841V121.614C305.038 121.682 304.913 121.744 304.72 121.801C304.531 121.854 304.311 121.902 304.061 121.943C303.815 121.981 303.574 122.015 303.339 122.045C303.108 122.072 302.921 122.095 302.777 122.114C302.429 122.159 302.103 122.233 301.8 122.335C301.5 122.434 301.258 122.583 301.072 122.784C300.891 122.981 300.8 123.25 300.8 123.591C300.8 124.057 300.972 124.409 301.317 124.648C301.665 124.883 302.107 125 302.641 125ZM312.679 117.273V118.409H308.156V117.273H312.679ZM309.474 115.182H310.815V123.5C310.815 123.879 310.87 124.163 310.98 124.352C311.094 124.538 311.238 124.663 311.412 124.727C311.59 124.788 311.777 124.818 311.974 124.818C312.122 124.818 312.243 124.811 312.338 124.795C312.433 124.777 312.509 124.761 312.565 124.75L312.838 125.955C312.747 125.989 312.62 126.023 312.457 126.057C312.295 126.095 312.088 126.114 311.838 126.114C311.459 126.114 311.088 126.032 310.724 125.869C310.365 125.706 310.065 125.458 309.827 125.125C309.592 124.792 309.474 124.371 309.474 123.864V115.182ZM318.261 126.182C317.42 126.182 316.695 125.996 316.085 125.625C315.479 125.25 315.011 124.727 314.682 124.057C314.356 123.383 314.193 122.598 314.193 121.705C314.193 120.811 314.356 120.023 314.682 119.341C315.011 118.655 315.47 118.121 316.057 117.739C316.648 117.352 317.337 117.159 318.125 117.159C318.58 117.159 319.028 117.235 319.472 117.386C319.915 117.538 320.318 117.784 320.682 118.125C321.045 118.462 321.335 118.909 321.551 119.466C321.767 120.023 321.875 120.708 321.875 121.523V122.091H315.148V120.932H320.511C320.511 120.439 320.413 120 320.216 119.614C320.023 119.227 319.746 118.922 319.386 118.699C319.03 118.475 318.61 118.364 318.125 118.364C317.591 118.364 317.129 118.496 316.739 118.761C316.352 119.023 316.055 119.364 315.847 119.784C315.638 120.205 315.534 120.655 315.534 121.136V121.909C315.534 122.568 315.648 123.127 315.875 123.585C316.106 124.04 316.426 124.386 316.835 124.625C317.244 124.86 317.72 124.977 318.261 124.977C318.614 124.977 318.932 124.928 319.216 124.83C319.504 124.727 319.752 124.576 319.96 124.375C320.169 124.17 320.33 123.917 320.443 123.614L321.739 123.977C321.602 124.417 321.373 124.803 321.051 125.136C320.729 125.466 320.331 125.723 319.858 125.909C319.384 126.091 318.852 126.182 318.261 126.182Z" fill="white"/>
<path d="M214.364 17C214.239 16.6174 214.074 16.2746 213.869 15.9716C213.669 15.6648 213.428 15.4034 213.148 15.1875C212.871 14.9716 212.557 14.8068 212.205 14.6932C211.852 14.5795 211.466 14.5227 211.045 14.5227C210.356 14.5227 209.729 14.7008 209.165 15.0568C208.6 15.4129 208.152 15.9375 207.818 16.6307C207.485 17.3239 207.318 18.1742 207.318 19.1818C207.318 20.1894 207.487 21.0398 207.824 21.733C208.161 22.4261 208.617 22.9508 209.193 23.3068C209.769 23.6629 210.417 23.8409 211.136 23.8409C211.803 23.8409 212.39 23.6989 212.898 23.4148C213.409 23.1269 213.807 22.7216 214.091 22.1989C214.379 21.6723 214.523 21.053 214.523 20.3409L214.955 20.4318H211.455V19.1818H215.886V20.4318C215.886 21.3902 215.682 22.2235 215.273 22.9318C214.867 23.6402 214.307 24.1894 213.591 24.5795C212.879 24.9659 212.061 25.1591 211.136 25.1591C210.106 25.1591 209.201 24.9167 208.42 24.4318C207.644 23.947 207.038 23.2576 206.602 22.3636C206.17 21.4697 205.955 20.4091 205.955 19.1818C205.955 18.2614 206.078 17.4337 206.324 16.6989C206.574 15.9602 206.926 15.3314 207.381 14.8125C207.835 14.2936 208.373 13.8958 208.994 13.6193C209.616 13.3428 210.299 13.2045 211.045 13.2045C211.659 13.2045 212.231 13.2973 212.761 13.483C213.295 13.6648 213.771 13.9242 214.188 14.2614C214.608 14.5947 214.958 14.9943 215.239 15.4602C215.519 15.9223 215.712 16.4356 215.818 17H214.364ZM219.459 13.3636V25H218.118V13.3636H219.459ZM224.483 25.2045C223.93 25.2045 223.428 25.1004 222.977 24.892C222.527 24.6799 222.169 24.375 221.903 23.9773C221.638 23.5758 221.506 23.0909 221.506 22.5227C221.506 22.0227 221.604 21.6174 221.801 21.3068C221.998 20.9924 222.261 20.7462 222.591 20.5682C222.92 20.3902 223.284 20.2576 223.682 20.1705C224.083 20.0795 224.487 20.0076 224.892 19.9545C225.422 19.8864 225.852 19.8352 226.182 19.8011C226.515 19.7633 226.758 19.7008 226.909 19.6136C227.064 19.5265 227.142 19.375 227.142 19.1591V19.1136C227.142 18.553 226.989 18.1174 226.682 17.8068C226.379 17.4962 225.919 17.3409 225.301 17.3409C224.661 17.3409 224.159 17.4811 223.795 17.7614C223.432 18.0417 223.176 18.3409 223.028 18.6591L221.756 18.2045C221.983 17.6742 222.286 17.2614 222.665 16.9659C223.047 16.6667 223.464 16.4583 223.915 16.3409C224.369 16.2197 224.816 16.1591 225.256 16.1591C225.536 16.1591 225.858 16.1932 226.222 16.2614C226.589 16.3258 226.943 16.4602 227.284 16.6648C227.629 16.8693 227.915 17.178 228.142 17.5909C228.369 18.0038 228.483 18.5568 228.483 19.25V25H227.142V23.8182H227.074C226.983 24.0076 226.831 24.2102 226.619 24.4261C226.407 24.642 226.125 24.8258 225.773 24.9773C225.42 25.1288 224.991 25.2045 224.483 25.2045ZM224.688 24C225.218 24 225.665 23.8958 226.028 23.6875C226.396 23.4792 226.672 23.2102 226.858 22.8807C227.047 22.5511 227.142 22.2045 227.142 21.8409V20.6136C227.085 20.6818 226.96 20.7443 226.767 20.8011C226.578 20.8542 226.358 20.9015 226.108 20.9432C225.862 20.9811 225.621 21.0152 225.386 21.0455C225.155 21.072 224.968 21.0947 224.824 21.1136C224.475 21.1591 224.15 21.233 223.847 21.3352C223.547 21.4337 223.305 21.5833 223.119 21.7841C222.938 21.9811 222.847 22.25 222.847 22.5909C222.847 23.0568 223.019 23.4091 223.364 23.6477C223.712 23.8826 224.153 24 224.688 24ZM237.112 18.2273L235.908 18.5682C235.832 18.3674 235.72 18.1723 235.572 17.983C235.429 17.7898 235.232 17.6307 234.982 17.5057C234.732 17.3807 234.411 17.3182 234.021 17.3182C233.487 17.3182 233.042 17.4413 232.686 17.6875C232.334 17.9299 232.158 18.2386 232.158 18.6136C232.158 18.947 232.279 19.2102 232.521 19.4034C232.764 19.5966 233.143 19.7576 233.658 19.8864L234.953 20.2045C235.733 20.3939 236.315 20.6837 236.697 21.0739C237.08 21.4602 237.271 21.9583 237.271 22.5682C237.271 23.0682 237.127 23.5152 236.839 23.9091C236.555 24.303 236.158 24.6136 235.646 24.8409C235.135 25.0682 234.54 25.1818 233.862 25.1818C232.972 25.1818 232.235 24.9886 231.652 24.6023C231.069 24.2159 230.699 23.6515 230.544 22.9091L231.817 22.5909C231.938 23.0606 232.167 23.4129 232.504 23.6477C232.845 23.8826 233.29 24 233.839 24C234.464 24 234.961 23.8674 235.328 23.6023C235.699 23.3333 235.885 23.0114 235.885 22.6364C235.885 22.3333 235.779 22.0795 235.567 21.875C235.355 21.6667 235.029 21.5114 234.589 21.4091L233.135 21.0682C232.336 20.8788 231.749 20.5852 231.374 20.1875C231.002 19.786 230.817 19.2841 230.817 18.6818C230.817 18.1894 230.955 17.7538 231.232 17.375C231.512 16.9962 231.893 16.6989 232.374 16.483C232.858 16.267 233.408 16.1591 234.021 16.1591C234.885 16.1591 235.563 16.3485 236.055 16.7273C236.552 17.1061 236.904 17.6061 237.112 18.2273ZM245.472 18.2273L244.267 18.5682C244.191 18.3674 244.08 18.1723 243.932 17.983C243.788 17.7898 243.591 17.6307 243.341 17.5057C243.091 17.3807 242.771 17.3182 242.381 17.3182C241.847 17.3182 241.402 17.4413 241.045 17.6875C240.693 17.9299 240.517 18.2386 240.517 18.6136C240.517 18.947 240.638 19.2102 240.881 19.4034C241.123 19.5966 241.502 19.7576 242.017 19.8864L243.312 20.2045C244.093 20.3939 244.674 20.6837 245.057 21.0739C245.439 21.4602 245.631 21.9583 245.631 22.5682C245.631 23.0682 245.487 23.5152 245.199 23.9091C244.915 24.303 244.517 24.6136 244.006 24.8409C243.494 25.0682 242.9 25.1818 242.222 25.1818C241.331 25.1818 240.595 24.9886 240.011 24.6023C239.428 24.2159 239.059 23.6515 238.903 22.9091L240.176 22.5909C240.297 23.0606 240.527 23.4129 240.864 23.6477C241.205 23.8826 241.65 24 242.199 24C242.824 24 243.32 23.8674 243.688 23.6023C244.059 23.3333 244.244 23.0114 244.244 22.6364C244.244 22.3333 244.138 22.0795 243.926 21.875C243.714 21.6667 243.388 21.5114 242.949 21.4091L241.494 21.0682C240.695 20.8788 240.108 20.5852 239.733 20.1875C239.362 19.786 239.176 19.2841 239.176 18.6818C239.176 18.1894 239.314 17.7538 239.591 17.375C239.871 16.9962 240.252 16.6989 240.733 16.483C241.218 16.267 241.767 16.1591 242.381 16.1591C243.244 16.1591 243.922 16.3485 244.415 16.7273C244.911 17.1061 245.263 17.6061 245.472 18.2273ZM258.331 18.2273L257.126 18.5682C257.051 18.3674 256.939 18.1723 256.791 17.983C256.647 17.7898 256.45 17.6307 256.2 17.5057C255.95 17.3807 255.63 17.3182 255.24 17.3182C254.706 17.3182 254.261 17.4413 253.905 17.6875C253.553 17.9299 253.376 18.2386 253.376 18.6136C253.376 18.947 253.498 19.2102 253.74 19.4034C253.982 19.5966 254.361 19.7576 254.876 19.8864L256.172 20.2045C256.952 20.3939 257.534 20.6837 257.916 21.0739C258.299 21.4602 258.49 21.9583 258.49 22.5682C258.49 23.0682 258.346 23.5152 258.058 23.9091C257.774 24.303 257.376 24.6136 256.865 24.8409C256.354 25.0682 255.759 25.1818 255.081 25.1818C254.191 25.1818 253.454 24.9886 252.871 24.6023C252.287 24.2159 251.918 23.6515 251.763 22.9091L253.036 22.5909C253.157 23.0606 253.386 23.4129 253.723 23.6477C254.064 23.8826 254.509 24 255.058 24C255.683 24 256.179 23.8674 256.547 23.6023C256.918 23.3333 257.104 23.0114 257.104 22.6364C257.104 22.3333 256.998 22.0795 256.786 21.875C256.573 21.6667 256.248 21.5114 255.808 21.4091L254.354 21.0682C253.554 20.8788 252.967 20.5852 252.592 20.1875C252.221 19.786 252.036 19.2841 252.036 18.6818C252.036 18.1894 252.174 17.7538 252.45 17.375C252.731 16.9962 253.111 16.6989 253.592 16.483C254.077 16.267 254.626 16.1591 255.24 16.1591C256.104 16.1591 256.782 16.3485 257.274 16.7273C257.77 17.1061 258.123 17.6061 258.331 18.2273ZM266.009 21.4318V16.2727H267.349V25H266.009V23.5227H265.918C265.713 23.9659 265.395 24.3428 264.963 24.6534C264.531 24.9602 263.986 25.1136 263.327 25.1136C262.781 25.1136 262.296 24.9943 261.872 24.7557C261.448 24.5133 261.115 24.1496 260.872 23.6648C260.63 23.1761 260.509 22.5606 260.509 21.8182V16.2727H261.849V21.7273C261.849 22.3636 262.027 22.8712 262.384 23.25C262.743 23.6288 263.202 23.8182 263.759 23.8182C264.092 23.8182 264.431 23.733 264.776 23.5625C265.124 23.392 265.416 23.1307 265.651 22.7784C265.889 22.4261 266.009 21.9773 266.009 21.4318ZM269.987 25V13.3636H271.328V17.6591H271.442C271.54 17.5076 271.677 17.3144 271.851 17.0795C272.029 16.8409 272.283 16.6288 272.612 16.4432C272.946 16.2538 273.396 16.1591 273.964 16.1591C274.699 16.1591 275.347 16.3428 275.908 16.7102C276.468 17.0777 276.906 17.5985 277.22 18.2727C277.535 18.947 277.692 19.7424 277.692 20.6591C277.692 21.5833 277.535 22.3845 277.22 23.0625C276.906 23.7367 276.47 24.2595 275.913 24.6307C275.357 24.9981 274.714 25.1818 273.987 25.1818C273.427 25.1818 272.978 25.089 272.641 24.9034C272.304 24.714 272.044 24.5 271.862 24.2614C271.68 24.0189 271.54 23.8182 271.442 23.6591H271.283V25H269.987ZM271.305 20.6364C271.305 21.2955 271.402 21.8769 271.595 22.3807C271.788 22.8807 272.071 23.2727 272.442 23.5568C272.813 23.8371 273.268 23.9773 273.805 23.9773C274.366 23.9773 274.834 23.8295 275.209 23.5341C275.588 23.2348 275.872 22.8333 276.061 22.3295C276.254 21.822 276.351 21.2576 276.351 20.6364C276.351 20.0227 276.256 19.4697 276.067 18.9773C275.881 18.4811 275.599 18.089 275.22 17.8011C274.845 17.5095 274.374 17.3636 273.805 17.3636C273.26 17.3636 272.802 17.5019 272.43 17.7784C272.059 18.0511 271.779 18.4337 271.589 18.9261C271.4 19.4148 271.305 19.9848 271.305 20.6364ZM285.925 18.2273L284.72 18.5682C284.644 18.3674 284.533 18.1723 284.385 17.983C284.241 17.7898 284.044 17.6307 283.794 17.5057C283.544 17.3807 283.224 17.3182 282.834 17.3182C282.3 17.3182 281.855 17.4413 281.499 17.6875C281.146 17.9299 280.97 18.2386 280.97 18.6136C280.97 18.947 281.091 19.2102 281.334 19.4034C281.576 19.5966 281.955 19.7576 282.47 19.8864L283.766 20.2045C284.546 20.3939 285.127 20.6837 285.51 21.0739C285.893 21.4602 286.084 21.9583 286.084 22.5682C286.084 23.0682 285.94 23.5152 285.652 23.9091C285.368 24.303 284.97 24.6136 284.459 24.8409C283.947 25.0682 283.353 25.1818 282.675 25.1818C281.785 25.1818 281.048 24.9886 280.464 24.6023C279.881 24.2159 279.512 23.6515 279.357 22.9091L280.629 22.5909C280.75 23.0606 280.98 23.4129 281.317 23.6477C281.658 23.8826 282.103 24 282.652 24C283.277 24 283.773 23.8674 284.141 23.6023C284.512 23.3333 284.697 23.0114 284.697 22.6364C284.697 22.3333 284.591 22.0795 284.379 21.875C284.167 21.6667 283.841 21.5114 283.402 21.4091L281.947 21.0682C281.148 20.8788 280.561 20.5852 280.186 20.1875C279.815 19.786 279.629 19.2841 279.629 18.6818C279.629 18.1894 279.768 17.7538 280.044 17.375C280.324 16.9962 280.705 16.6989 281.186 16.483C281.671 16.267 282.22 16.1591 282.834 16.1591C283.697 16.1591 284.375 16.3485 284.868 16.7273C285.364 17.1061 285.716 17.6061 285.925 18.2273ZM291.898 16.2727V17.4091H287.375V16.2727H291.898ZM288.693 14.1818H290.034V22.5C290.034 22.8788 290.089 23.1629 290.199 23.3523C290.313 23.5379 290.456 23.6629 290.631 23.7273C290.809 23.7879 290.996 23.8182 291.193 23.8182C291.341 23.8182 291.462 23.8106 291.557 23.7955C291.652 23.7765 291.727 23.7614 291.784 23.75L292.057 24.9545C291.966 24.9886 291.839 25.0227 291.676 25.0568C291.513 25.0947 291.307 25.1136 291.057 25.1136C290.678 25.1136 290.307 25.0322 289.943 24.8693C289.583 24.7064 289.284 24.4583 289.045 24.125C288.811 23.7917 288.693 23.3712 288.693 22.8636V14.1818ZM293.915 25V16.2727H295.21V17.5909H295.301C295.46 17.1591 295.748 16.8087 296.165 16.5398C296.581 16.2708 297.051 16.1364 297.574 16.1364C297.672 16.1364 297.795 16.1383 297.943 16.142C298.091 16.1458 298.203 16.1515 298.278 16.1591V17.5227C298.233 17.5114 298.129 17.4943 297.966 17.4716C297.807 17.4451 297.638 17.4318 297.46 17.4318C297.036 17.4318 296.657 17.5208 296.324 17.6989C295.994 17.8731 295.733 18.1155 295.54 18.4261C295.35 18.733 295.256 19.0833 295.256 19.4773V25H293.915ZM302.436 25.2045C301.883 25.2045 301.381 25.1004 300.93 24.892C300.48 24.6799 300.122 24.375 299.857 23.9773C299.591 23.5758 299.459 23.0909 299.459 22.5227C299.459 22.0227 299.557 21.6174 299.754 21.3068C299.951 20.9924 300.214 20.7462 300.544 20.5682C300.874 20.3902 301.237 20.2576 301.635 20.1705C302.036 20.0795 302.44 20.0076 302.845 19.9545C303.375 19.8864 303.805 19.8352 304.135 19.8011C304.468 19.7633 304.711 19.7008 304.862 19.6136C305.018 19.5265 305.095 19.375 305.095 19.1591V19.1136C305.095 18.553 304.942 18.1174 304.635 17.8068C304.332 17.4962 303.872 17.3409 303.254 17.3409C302.614 17.3409 302.112 17.4811 301.749 17.7614C301.385 18.0417 301.129 18.3409 300.982 18.6591L299.709 18.2045C299.936 17.6742 300.239 17.2614 300.618 16.9659C301 16.6667 301.417 16.4583 301.868 16.3409C302.322 16.2197 302.769 16.1591 303.209 16.1591C303.489 16.1591 303.811 16.1932 304.175 16.2614C304.542 16.3258 304.896 16.4602 305.237 16.6648C305.582 16.8693 305.868 17.178 306.095 17.5909C306.322 18.0038 306.436 18.5568 306.436 19.25V25H305.095V23.8182H305.027C304.936 24.0076 304.785 24.2102 304.572 24.4261C304.36 24.642 304.078 24.8258 303.726 24.9773C303.374 25.1288 302.944 25.2045 302.436 25.2045ZM302.641 24C303.171 24 303.618 23.8958 303.982 23.6875C304.349 23.4792 304.625 23.2102 304.811 22.8807C305 22.5511 305.095 22.2045 305.095 21.8409V20.6136C305.038 20.6818 304.913 20.7443 304.72 20.8011C304.531 20.8542 304.311 20.9015 304.061 20.9432C303.815 20.9811 303.574 21.0152 303.339 21.0455C303.108 21.072 302.921 21.0947 302.777 21.1136C302.429 21.1591 302.103 21.233 301.8 21.3352C301.5 21.4337 301.258 21.5833 301.072 21.7841C300.891 21.9811 300.8 22.25 300.8 22.5909C300.8 23.0568 300.972 23.4091 301.317 23.6477C301.665 23.8826 302.107 24 302.641 24ZM312.679 16.2727V17.4091H308.156V16.2727H312.679ZM309.474 14.1818H310.815V22.5C310.815 22.8788 310.87 23.1629 310.98 23.3523C311.094 23.5379 311.238 23.6629 311.412 23.7273C311.59 23.7879 311.777 23.8182 311.974 23.8182C312.122 23.8182 312.243 23.8106 312.338 23.7955C312.433 23.7765 312.509 23.7614 312.565 23.75L312.838 24.9545C312.747 24.9886 312.62 25.0227 312.457 25.0568C312.295 25.0947 312.088 25.1136 311.838 25.1136C311.459 25.1136 311.088 25.0322 310.724 24.8693C310.365 24.7064 310.065 24.4583 309.827 24.125C309.592 23.7917 309.474 23.3712 309.474 22.8636V14.1818ZM318.261 25.1818C317.42 25.1818 316.695 24.9962 316.085 24.625C315.479 24.25 315.011 23.7273 314.682 23.0568C314.356 22.3826 314.193 21.5985 314.193 20.7045C314.193 19.8106 314.356 19.0227 314.682 18.3409C315.011 17.6553 315.47 17.1212 316.057 16.7386C316.648 16.3523 317.337 16.1591 318.125 16.1591C318.58 16.1591 319.028 16.2348 319.472 16.3864C319.915 16.5379 320.318 16.7841 320.682 17.125C321.045 17.4621 321.335 17.9091 321.551 18.4659C321.767 19.0227 321.875 19.7083 321.875 20.5227V21.0909H315.148V19.9318H320.511C320.511 19.4394 320.413 19 320.216 18.6136C320.023 18.2273 319.746 17.9223 319.386 17.6989C319.03 17.4754 318.61 17.3636 318.125 17.3636C317.591 17.3636 317.129 17.4962 316.739 17.7614C316.352 18.0227 316.055 18.3636 315.847 18.7841C315.638 19.2045 315.534 19.6553 315.534 20.1364V20.9091C315.534 21.5682 315.648 22.1269 315.875 22.5852C316.106 23.0398 316.426 23.3864 316.835 23.625C317.244 23.8598 317.72 23.9773 318.261 23.9773C318.614 23.9773 318.932 23.928 319.216 23.8295C319.504 23.7273 319.752 23.5758 319.96 23.375C320.169 23.1705 320.33 22.9167 320.443 22.6136L321.739 22.9773C321.602 23.4167 321.373 23.803 321.051 24.1364C320.729 24.4659 320.331 24.7235 319.858 24.9091C319.384 25.0909 318.852 25.1818 318.261 25.1818Z" fill="white"/>
<path d="M451.278 90V78.3636H458.574V79.875H453.034V83.4205H458.193V84.9261H453.034V88.4886H458.642V90H451.278ZM460.783 93.2727V81.2727H462.442V82.6875H462.584C462.682 82.5057 462.824 82.2955 463.01 82.0568C463.196 81.8182 463.453 81.6098 463.783 81.4318C464.112 81.25 464.548 81.1591 465.089 81.1591C465.794 81.1591 466.423 81.3371 466.976 81.6932C467.529 82.0492 467.963 82.5625 468.277 83.233C468.595 83.9034 468.754 84.7102 468.754 85.6534C468.754 86.5966 468.597 87.4053 468.283 88.0795C467.968 88.75 467.536 89.267 466.987 89.6307C466.438 89.9905 465.811 90.1705 465.107 90.1705C464.576 90.1705 464.143 90.0814 463.805 89.9034C463.472 89.7254 463.211 89.517 463.021 89.2784C462.832 89.0398 462.686 88.8277 462.584 88.642H462.482V93.2727H460.783ZM462.447 85.6364C462.447 86.25 462.536 86.7879 462.714 87.25C462.893 87.7121 463.15 88.0739 463.487 88.3352C463.824 88.5928 464.237 88.7216 464.726 88.7216C465.233 88.7216 465.658 88.5871 465.999 88.3182C466.339 88.0455 466.597 87.6761 466.771 87.2102C466.949 86.7443 467.038 86.2197 467.038 85.6364C467.038 85.0606 466.951 84.5436 466.777 84.0852C466.607 83.6269 466.349 83.2652 466.004 83C465.663 82.7348 465.237 82.6023 464.726 82.6023C464.233 82.6023 463.817 82.7292 463.476 82.983C463.139 83.2367 462.883 83.5909 462.709 84.0455C462.535 84.5 462.447 85.0303 462.447 85.6364ZM472.357 78.3636V90H470.658V78.3636H472.357ZM478.318 90.1761C477.5 90.1761 476.786 89.9886 476.176 89.6136C475.566 89.2386 475.093 88.714 474.756 88.0398C474.419 87.3655 474.25 86.5777 474.25 85.6761C474.25 84.7708 474.419 83.9792 474.756 83.3011C475.093 82.6231 475.566 82.0966 476.176 81.7216C476.786 81.3466 477.5 81.1591 478.318 81.1591C479.136 81.1591 479.85 81.3466 480.46 81.7216C481.07 82.0966 481.544 82.6231 481.881 83.3011C482.218 83.9792 482.386 84.7708 482.386 85.6761C482.386 86.5777 482.218 87.3655 481.881 88.0398C481.544 88.714 481.07 89.2386 480.46 89.6136C479.85 89.9886 479.136 90.1761 478.318 90.1761ZM478.324 88.75C478.854 88.75 479.294 88.6098 479.642 88.3295C479.991 88.0492 480.248 87.6761 480.415 87.2102C480.585 86.7443 480.67 86.2311 480.67 85.6705C480.67 85.1136 480.585 84.6023 480.415 84.1364C480.248 83.6667 479.991 83.2898 479.642 83.0057C479.294 82.7216 478.854 82.5795 478.324 82.5795C477.79 82.5795 477.347 82.7216 476.994 83.0057C476.646 83.2898 476.386 83.6667 476.216 84.1364C476.049 84.6023 475.966 85.1136 475.966 85.6705C475.966 86.2311 476.049 86.7443 476.216 87.2102C476.386 87.6761 476.646 88.0492 476.994 88.3295C477.347 88.6098 477.79 88.75 478.324 88.75ZM485.28 81.2727L487.206 84.6705L489.149 81.2727H491.007L488.286 85.6364L491.03 90H489.172L487.206 86.7386L485.246 90H483.382L486.098 85.6364L483.416 81.2727H485.28ZM493.825 93.2727C493.571 93.2727 493.34 93.2519 493.132 93.2102C492.924 93.1723 492.768 93.1307 492.666 93.0852L493.075 91.6932C493.386 91.7765 493.662 91.8125 493.905 91.8011C494.147 91.7898 494.361 91.6989 494.547 91.5284C494.736 91.358 494.903 91.0795 495.047 90.6932L495.257 90.1136L492.064 81.2727H493.882L496.092 88.0455H496.183L498.393 81.2727H500.217L496.621 91.1648C496.454 91.6193 496.242 92.0038 495.984 92.3182C495.727 92.6364 495.42 92.875 495.064 93.0341C494.708 93.1932 494.295 93.2727 493.825 93.2727ZM512.588 83.4034L511.048 83.6761C510.984 83.4792 510.882 83.2917 510.741 83.1136C510.605 82.9356 510.42 82.7898 510.185 82.6761C509.95 82.5625 509.656 82.5057 509.304 82.5057C508.823 82.5057 508.421 82.6136 508.099 82.8295C507.777 83.0417 507.616 83.3163 507.616 83.6534C507.616 83.9451 507.724 84.1799 507.94 84.358C508.156 84.536 508.505 84.6818 508.986 84.7955L510.372 85.1136C511.175 85.2992 511.774 85.5852 512.168 85.9716C512.562 86.358 512.759 86.8598 512.759 87.4773C512.759 88 512.607 88.4659 512.304 88.875C512.005 89.2803 511.586 89.5985 511.048 89.8295C510.514 90.0606 509.895 90.1761 509.19 90.1761C508.213 90.1761 507.416 89.9678 506.798 89.5511C506.181 89.1307 505.802 88.5341 505.662 87.7614L507.304 87.5114C507.406 87.9394 507.616 88.2633 507.935 88.483C508.253 88.6989 508.668 88.8068 509.179 88.8068C509.736 88.8068 510.181 88.6913 510.514 88.4602C510.848 88.2254 511.014 87.9394 511.014 87.6023C511.014 87.3295 510.912 87.1004 510.707 86.9148C510.507 86.7292 510.198 86.589 509.781 86.4943L508.304 86.1705C507.49 85.9848 506.887 85.6894 506.497 85.2841C506.111 84.8788 505.918 84.3655 505.918 83.7443C505.918 83.2292 506.062 82.7784 506.349 82.392C506.637 82.0057 507.035 81.7045 507.543 81.4886C508.05 81.2689 508.632 81.1591 509.287 81.1591C510.23 81.1591 510.973 81.3636 511.514 81.7727C512.056 82.178 512.414 82.7216 512.588 83.4034ZM518.388 90.1761C517.528 90.1761 516.787 89.9924 516.166 89.625C515.549 89.2538 515.071 88.733 514.734 88.0625C514.401 87.3883 514.234 86.5985 514.234 85.6932C514.234 84.7992 514.401 84.0114 514.734 83.3295C515.071 82.6477 515.541 82.1155 516.143 81.733C516.75 81.3504 517.458 81.1591 518.268 81.1591C518.761 81.1591 519.238 81.2405 519.7 81.4034C520.162 81.5663 520.577 81.822 520.945 82.1705C521.312 82.5189 521.602 82.9716 521.814 83.5284C522.026 84.0814 522.132 84.7538 522.132 85.5455V86.1477H515.195V84.875H520.467C520.467 84.428 520.376 84.0322 520.195 83.6875C520.013 83.339 519.757 83.0644 519.428 82.8636C519.102 82.6629 518.719 82.5625 518.28 82.5625C517.803 82.5625 517.386 82.6799 517.03 82.9148C516.678 83.1458 516.405 83.4489 516.212 83.8239C516.022 84.1951 515.928 84.5985 515.928 85.0341V86.0284C515.928 86.6117 516.03 87.108 516.234 87.517C516.443 87.9261 516.732 88.2386 517.104 88.4545C517.475 88.6667 517.909 88.7727 518.405 88.7727C518.727 88.7727 519.02 88.7273 519.286 88.6364C519.551 88.5417 519.78 88.4015 519.973 88.2159C520.166 88.0303 520.314 87.8011 520.416 87.5284L522.024 87.8182C521.895 88.2917 521.664 88.7064 521.331 89.0625C521.001 89.4148 520.587 89.6894 520.087 89.8864C519.59 90.0795 519.024 90.1761 518.388 90.1761ZM526.557 90.1932C526.004 90.1932 525.504 90.0909 525.057 89.8864C524.61 89.678 524.256 89.3769 523.994 88.983C523.737 88.589 523.608 88.1061 523.608 87.5341C523.608 87.0417 523.703 86.6364 523.892 86.3182C524.081 86 524.337 85.7481 524.659 85.5625C524.981 85.3769 525.341 85.2367 525.739 85.142C526.136 85.0473 526.542 84.9754 526.955 84.9261C527.477 84.8655 527.902 84.8163 528.227 84.7784C528.553 84.7367 528.79 84.6705 528.938 84.5795C529.085 84.4886 529.159 84.3409 529.159 84.1364V84.0966C529.159 83.6004 529.019 83.2159 528.739 82.9432C528.462 82.6705 528.049 82.5341 527.5 82.5341C526.928 82.5341 526.477 82.661 526.148 82.9148C525.822 83.1648 525.597 83.4432 525.472 83.75L523.875 83.3864C524.064 82.8561 524.341 82.428 524.705 82.1023C525.072 81.7727 525.494 81.5341 525.972 81.3864C526.449 81.2348 526.951 81.1591 527.477 81.1591C527.826 81.1591 528.195 81.2008 528.585 81.2841C528.979 81.3636 529.347 81.5114 529.688 81.7273C530.032 81.9432 530.314 82.2519 530.534 82.6534C530.754 83.0511 530.864 83.5682 530.864 84.2045V90H529.205V88.8068H529.136C529.027 89.0265 528.862 89.2424 528.642 89.4545C528.422 89.6667 528.14 89.8428 527.795 89.983C527.451 90.1231 527.038 90.1932 526.557 90.1932ZM526.926 88.8295C527.396 88.8295 527.797 88.7367 528.131 88.5511C528.468 88.3655 528.723 88.1231 528.898 87.8239C529.076 87.5208 529.165 87.197 529.165 86.8523V85.7273C529.104 85.7879 528.987 85.8447 528.812 85.8977C528.642 85.947 528.447 85.9905 528.227 86.0284C528.008 86.0625 527.794 86.0947 527.585 86.125C527.377 86.1515 527.203 86.1742 527.062 86.1932C526.733 86.2348 526.432 86.3049 526.159 86.4034C525.89 86.5019 525.674 86.6439 525.511 86.8295C525.352 87.0114 525.273 87.2538 525.273 87.5568C525.273 87.9773 525.428 88.2955 525.739 88.5114C526.049 88.7235 526.445 88.8295 526.926 88.8295ZM534.825 78.3636V90H533.126V78.3636H534.825ZM539.651 90.1932C539.098 90.1932 538.598 90.0909 538.151 89.8864C537.704 89.678 537.349 89.3769 537.088 88.983C536.83 88.589 536.702 88.1061 536.702 87.5341C536.702 87.0417 536.796 86.6364 536.986 86.3182C537.175 86 537.431 85.7481 537.753 85.5625C538.075 85.3769 538.435 85.2367 538.832 85.142C539.23 85.0473 539.635 84.9754 540.048 84.9261C540.571 84.8655 540.995 84.8163 541.321 84.7784C541.647 84.7367 541.884 84.6705 542.031 84.5795C542.179 84.4886 542.253 84.3409 542.253 84.1364V84.0966C542.253 83.6004 542.113 83.2159 541.832 82.9432C541.556 82.6705 541.143 82.5341 540.594 82.5341C540.022 82.5341 539.571 82.661 539.241 82.9148C538.916 83.1648 538.69 83.4432 538.565 83.75L536.969 83.3864C537.158 82.8561 537.435 82.428 537.798 82.1023C538.166 81.7727 538.588 81.5341 539.065 81.3864C539.543 81.2348 540.045 81.1591 540.571 81.1591C540.92 81.1591 541.289 81.2008 541.679 81.2841C542.073 81.3636 542.44 81.5114 542.781 81.7273C543.126 81.9432 543.408 82.2519 543.628 82.6534C543.848 83.0511 543.957 83.5682 543.957 84.2045V90H542.298V88.8068H542.23C542.12 89.0265 541.955 89.2424 541.736 89.4545C541.516 89.6667 541.234 89.8428 540.889 89.983C540.545 90.1231 540.132 90.1932 539.651 90.1932ZM540.02 88.8295C540.49 88.8295 540.891 88.7367 541.224 88.5511C541.562 88.3655 541.817 88.1231 541.991 87.8239C542.17 87.5208 542.259 87.197 542.259 86.8523V85.7273C542.198 85.7879 542.08 85.8447 541.906 85.8977C541.736 85.947 541.541 85.9905 541.321 86.0284C541.101 86.0625 540.887 86.0947 540.679 86.125C540.471 86.1515 540.296 86.1742 540.156 86.1932C539.827 86.2348 539.526 86.3049 539.253 86.4034C538.984 86.5019 538.768 86.6439 538.605 86.8295C538.446 87.0114 538.366 87.2538 538.366 87.5568C538.366 87.9773 538.522 88.2955 538.832 88.5114C539.143 88.7235 539.539 88.8295 540.02 88.8295ZM547.919 84.8182V90H546.22V81.2727H547.851V82.6932H547.959C548.16 82.2311 548.474 81.8598 548.902 81.5795C549.334 81.2992 549.877 81.1591 550.533 81.1591C551.127 81.1591 551.648 81.2841 552.095 81.5341C552.542 81.7803 552.889 82.1477 553.135 82.6364C553.381 83.125 553.504 83.7292 553.504 84.4489V90H551.805V84.6534C551.805 84.0208 551.641 83.5265 551.311 83.1705C550.982 82.8106 550.529 82.6307 549.953 82.6307C549.559 82.6307 549.209 82.7159 548.902 82.8864C548.599 83.0568 548.358 83.3068 548.18 83.6364C548.006 83.9621 547.919 84.3561 547.919 84.8182ZM559.857 81.2727V82.6364H555.089V81.2727H559.857ZM556.368 79.1818H558.067V87.4375C558.067 87.767 558.116 88.0152 558.214 88.1818C558.313 88.3447 558.44 88.4564 558.595 88.517C558.754 88.5739 558.927 88.6023 559.112 88.6023C559.249 88.6023 559.368 88.5928 559.47 88.5739C559.572 88.5549 559.652 88.5398 559.709 88.5284L560.016 89.9318C559.917 89.9697 559.777 90.0076 559.595 90.0455C559.413 90.0871 559.186 90.1098 558.913 90.1136C558.466 90.1212 558.05 90.0417 557.663 89.875C557.277 89.7083 556.964 89.4508 556.726 89.1023C556.487 88.7538 556.368 88.3163 556.368 87.7898V79.1818Z" fill="#728389"/>
<path d="M457.625 61.4205C457.564 60.8826 457.314 60.4659 456.875 60.1705C456.436 59.8712 455.883 59.7216 455.216 59.7216C454.739 59.7216 454.326 59.7973 453.977 59.9489C453.629 60.0966 453.358 60.3011 453.165 60.5625C452.975 60.8201 452.881 61.1136 452.881 61.4432C452.881 61.7197 452.945 61.9583 453.074 62.1591C453.206 62.3598 453.379 62.5284 453.591 62.6648C453.807 62.7973 454.038 62.9091 454.284 63C454.53 63.0871 454.767 63.1591 454.994 63.2159L456.131 63.5114C456.502 63.6023 456.883 63.7254 457.273 63.8807C457.663 64.036 458.025 64.2405 458.358 64.4943C458.691 64.7481 458.96 65.0625 459.165 65.4375C459.373 65.8125 459.477 66.2614 459.477 66.7841C459.477 67.4432 459.307 68.0284 458.966 68.5398C458.629 69.0511 458.138 69.4545 457.494 69.75C456.854 70.0455 456.08 70.1932 455.17 70.1932C454.299 70.1932 453.545 70.0549 452.909 69.7784C452.273 69.5019 451.775 69.1098 451.415 68.6023C451.055 68.0909 450.856 67.4848 450.818 66.7841H452.58C452.614 67.2045 452.75 67.5549 452.989 67.8352C453.231 68.1117 453.54 68.3182 453.915 68.4545C454.294 68.5871 454.708 68.6534 455.159 68.6534C455.655 68.6534 456.097 68.5758 456.483 68.4205C456.873 68.2614 457.18 68.0417 457.403 67.7614C457.627 67.4773 457.739 67.1458 457.739 66.767C457.739 66.4223 457.64 66.1402 457.443 65.9205C457.25 65.7008 456.987 65.5189 456.653 65.375C456.324 65.2311 455.951 65.1042 455.534 64.9943L454.159 64.6193C453.227 64.3655 452.489 63.9924 451.943 63.5C451.402 63.0076 451.131 62.3561 451.131 61.5455C451.131 60.875 451.313 60.2898 451.676 59.7898C452.04 59.2898 452.532 58.9015 453.153 58.625C453.775 58.3447 454.475 58.2045 455.256 58.2045C456.044 58.2045 456.739 58.3428 457.341 58.6193C457.947 58.8958 458.424 59.2765 458.773 59.7614C459.121 60.2424 459.303 60.7955 459.318 61.4205H457.625ZM465.2 70.1761C464.34 70.1761 463.6 69.9924 462.979 69.625C462.361 69.2538 461.884 68.733 461.547 68.0625C461.214 67.3883 461.047 66.5985 461.047 65.6932C461.047 64.7992 461.214 64.0114 461.547 63.3295C461.884 62.6477 462.354 62.1155 462.956 61.733C463.562 61.3504 464.27 61.1591 465.081 61.1591C465.573 61.1591 466.051 61.2405 466.513 61.4034C466.975 61.5663 467.39 61.822 467.757 62.1705C468.125 62.5189 468.414 62.9716 468.626 63.5284C468.839 64.0814 468.945 64.7538 468.945 65.5455V66.1477H462.007V64.875H467.28C467.28 64.428 467.189 64.0322 467.007 63.6875C466.825 63.339 466.57 63.0644 466.24 62.8636C465.914 62.6629 465.532 62.5625 465.092 62.5625C464.615 62.5625 464.198 62.6799 463.842 62.9148C463.49 63.1458 463.217 63.4489 463.024 63.8239C462.835 64.1951 462.74 64.5985 462.74 65.0341V66.0284C462.74 66.6117 462.842 67.108 463.047 67.517C463.255 67.9261 463.545 68.2386 463.916 68.4545C464.287 68.6667 464.721 68.7727 465.217 68.7727C465.539 68.7727 465.833 68.7273 466.098 68.6364C466.363 68.5417 466.592 68.4015 466.786 68.2159C466.979 68.0303 467.126 67.8011 467.229 67.5284L468.837 67.8182C468.708 68.2917 468.477 68.7064 468.143 69.0625C467.814 69.4148 467.399 69.6894 466.899 69.8864C466.403 70.0795 465.837 70.1761 465.2 70.1761ZM473.369 70.1932C472.816 70.1932 472.316 70.0909 471.869 69.8864C471.422 69.678 471.068 69.3769 470.807 68.983C470.549 68.589 470.42 68.1061 470.42 67.5341C470.42 67.0417 470.515 66.6364 470.705 66.3182C470.894 66 471.15 65.7481 471.472 65.5625C471.794 65.3769 472.153 65.2367 472.551 65.142C472.949 65.0473 473.354 64.9754 473.767 64.9261C474.29 64.8655 474.714 64.8163 475.04 64.7784C475.366 64.7367 475.602 64.6705 475.75 64.5795C475.898 64.4886 475.972 64.3409 475.972 64.1364V64.0966C475.972 63.6004 475.831 63.2159 475.551 62.9432C475.275 62.6705 474.862 62.5341 474.312 62.5341C473.741 62.5341 473.29 62.661 472.96 62.9148C472.634 63.1648 472.409 63.4432 472.284 63.75L470.688 63.3864C470.877 62.8561 471.153 62.428 471.517 62.1023C471.884 61.7727 472.307 61.5341 472.784 61.3864C473.261 61.2348 473.763 61.1591 474.29 61.1591C474.638 61.1591 475.008 61.2008 475.398 61.2841C475.792 61.3636 476.159 61.5114 476.5 61.7273C476.845 61.9432 477.127 62.2519 477.347 62.6534C477.566 63.0511 477.676 63.5682 477.676 64.2045V70H476.017V68.8068H475.949C475.839 69.0265 475.674 69.2424 475.455 69.4545C475.235 69.6667 474.953 69.8428 474.608 69.983C474.263 70.1231 473.85 70.1932 473.369 70.1932ZM473.739 68.8295C474.208 68.8295 474.61 68.7367 474.943 68.5511C475.28 68.3655 475.536 68.1231 475.71 67.8239C475.888 67.5208 475.977 67.197 475.977 66.8523V65.7273C475.917 65.7879 475.799 65.8447 475.625 65.8977C475.455 65.947 475.259 65.9905 475.04 66.0284C474.82 66.0625 474.606 66.0947 474.398 66.125C474.189 66.1515 474.015 66.1742 473.875 66.1932C473.545 66.2348 473.244 66.3049 472.972 66.4034C472.703 66.5019 472.487 66.6439 472.324 66.8295C472.165 67.0114 472.085 67.2538 472.085 67.5568C472.085 67.9773 472.241 68.2955 472.551 68.5114C472.862 68.7235 473.258 68.8295 473.739 68.8295ZM481.638 58.3636V70H479.939V58.3636H481.638ZM486.463 70.1932C485.91 70.1932 485.41 70.0909 484.963 69.8864C484.516 69.678 484.162 69.3769 483.901 68.983C483.643 68.589 483.514 68.1061 483.514 67.5341C483.514 67.0417 483.609 66.6364 483.798 66.3182C483.988 66 484.243 65.7481 484.565 65.5625C484.887 65.3769 485.247 65.2367 485.645 65.142C486.043 65.0473 486.448 64.9754 486.861 64.9261C487.384 64.8655 487.808 64.8163 488.134 64.7784C488.459 64.7367 488.696 64.6705 488.844 64.5795C488.991 64.4886 489.065 64.3409 489.065 64.1364V64.0966C489.065 63.6004 488.925 63.2159 488.645 62.9432C488.368 62.6705 487.955 62.5341 487.406 62.5341C486.834 62.5341 486.384 62.661 486.054 62.9148C485.728 63.1648 485.503 63.4432 485.378 63.75L483.781 63.3864C483.971 62.8561 484.247 62.428 484.611 62.1023C484.978 61.7727 485.401 61.5341 485.878 61.3864C486.355 61.2348 486.857 61.1591 487.384 61.1591C487.732 61.1591 488.101 61.2008 488.491 61.2841C488.885 61.3636 489.253 61.5114 489.594 61.7273C489.938 61.9432 490.221 62.2519 490.44 62.6534C490.66 63.0511 490.77 63.5682 490.77 64.2045V70H489.111V68.8068H489.043C488.933 69.0265 488.768 69.2424 488.548 69.4545C488.329 69.6667 488.046 69.8428 487.702 69.983C487.357 70.1231 486.944 70.1932 486.463 70.1932ZM486.832 68.8295C487.302 68.8295 487.704 68.7367 488.037 68.5511C488.374 68.3655 488.63 68.1231 488.804 67.8239C488.982 67.5208 489.071 67.197 489.071 66.8523V65.7273C489.01 65.7879 488.893 65.8447 488.719 65.8977C488.548 65.947 488.353 65.9905 488.134 66.0284C487.914 66.0625 487.7 66.0947 487.491 66.125C487.283 66.1515 487.109 66.1742 486.969 66.1932C486.639 66.2348 486.338 66.3049 486.065 66.4034C485.796 66.5019 485.58 66.6439 485.418 66.8295C485.259 67.0114 485.179 67.2538 485.179 67.5568C485.179 67.9773 485.334 68.2955 485.645 68.5114C485.955 68.7235 486.351 68.8295 486.832 68.8295ZM494.732 64.8182V70H493.033V61.2727H494.663V62.6932H494.771C494.972 62.2311 495.286 61.8598 495.714 61.5795C496.146 61.2992 496.69 61.1591 497.345 61.1591C497.94 61.1591 498.461 61.2841 498.908 61.5341C499.355 61.7803 499.701 62.1477 499.947 62.6364C500.194 63.125 500.317 63.7292 500.317 64.4489V70H498.618V64.6534C498.618 64.0208 498.453 63.5265 498.124 63.1705C497.794 62.8106 497.341 62.6307 496.766 62.6307C496.372 62.6307 496.021 62.7159 495.714 62.8864C495.411 63.0568 495.171 63.3068 494.993 63.6364C494.819 63.9621 494.732 64.3561 494.732 64.8182ZM506.669 61.2727V62.6364H501.902V61.2727H506.669ZM503.18 59.1818H504.879V67.4375C504.879 67.767 504.929 68.0152 505.027 68.1818C505.125 68.3447 505.252 68.4564 505.408 68.517C505.567 68.5739 505.739 68.6023 505.925 68.6023C506.061 68.6023 506.18 68.5928 506.283 68.5739C506.385 68.5549 506.464 68.5398 506.521 68.5284L506.828 69.9318C506.73 69.9697 506.589 70.0076 506.408 70.0455C506.226 70.0871 505.999 70.1098 505.726 70.1136C505.279 70.1212 504.862 70.0417 504.476 69.875C504.089 69.7083 503.777 69.4508 503.538 69.1023C503.3 68.7538 503.18 68.3163 503.18 67.7898V59.1818ZM519.322 63.4034L517.783 63.6761C517.718 63.4792 517.616 63.2917 517.476 63.1136C517.339 62.9356 517.154 62.7898 516.919 62.6761C516.684 62.5625 516.391 62.5057 516.038 62.5057C515.557 62.5057 515.156 62.6136 514.834 62.8295C514.512 63.0417 514.351 63.3163 514.351 63.6534C514.351 63.9451 514.459 64.1799 514.675 64.358C514.891 64.536 515.239 64.6818 515.72 64.7955L517.107 65.1136C517.91 65.2992 518.508 65.5852 518.902 65.9716C519.296 66.358 519.493 66.8598 519.493 67.4773C519.493 68 519.341 68.4659 519.038 68.875C518.739 69.2803 518.321 69.5985 517.783 69.8295C517.249 70.0606 516.629 70.1761 515.925 70.1761C514.947 70.1761 514.15 69.9678 513.533 69.5511C512.915 69.1307 512.536 68.5341 512.396 67.7614L514.038 67.5114C514.141 67.9394 514.351 68.2633 514.669 68.483C514.987 68.6989 515.402 68.8068 515.913 68.8068C516.47 68.8068 516.915 68.6913 517.249 68.4602C517.582 68.2254 517.749 67.9394 517.749 67.6023C517.749 67.3295 517.646 67.1004 517.442 66.9148C517.241 66.7292 516.932 66.589 516.516 66.4943L515.038 66.1705C514.224 65.9848 513.622 65.6894 513.232 65.2841C512.845 64.8788 512.652 64.3655 512.652 63.7443C512.652 63.2292 512.796 62.7784 513.084 62.392C513.372 62.0057 513.769 61.7045 514.277 61.4886C514.785 61.2689 515.366 61.1591 516.021 61.1591C516.964 61.1591 517.707 61.3636 518.249 61.7727C518.79 62.178 519.148 62.7216 519.322 63.4034ZM521.361 73.2727V61.2727H523.02V62.6875H523.162C523.26 62.5057 523.402 62.2955 523.588 62.0568C523.774 61.8182 524.031 61.6098 524.361 61.4318C524.69 61.25 525.126 61.1591 525.668 61.1591C526.372 61.1591 527.001 61.3371 527.554 61.6932C528.107 62.0492 528.541 62.5625 528.855 63.233C529.173 63.9034 529.332 64.7102 529.332 65.6534C529.332 66.5966 529.175 67.4053 528.861 68.0795C528.546 68.75 528.115 69.267 527.565 69.6307C527.016 69.9905 526.389 70.1705 525.685 70.1705C525.154 70.1705 524.721 70.0814 524.384 69.9034C524.05 69.7254 523.789 69.517 523.599 69.2784C523.41 69.0398 523.264 68.8277 523.162 68.642H523.06V73.2727H521.361ZM523.026 65.6364C523.026 66.25 523.115 66.7879 523.293 67.25C523.471 67.7121 523.728 68.0739 524.065 68.3352C524.402 68.5928 524.815 68.7216 525.304 68.7216C525.812 68.7216 526.236 68.5871 526.577 68.3182C526.918 68.0455 527.175 67.6761 527.349 67.2102C527.527 66.7443 527.616 66.2197 527.616 65.6364C527.616 65.0606 527.529 64.5436 527.355 64.0852C527.185 63.6269 526.927 63.2652 526.582 63C526.241 62.7348 525.815 62.6023 525.304 62.6023C524.812 62.6023 524.395 62.7292 524.054 62.983C523.717 63.2367 523.461 63.5909 523.287 64.0455C523.113 64.5 523.026 65.0303 523.026 65.6364ZM533.776 70.1932C533.223 70.1932 532.723 70.0909 532.276 69.8864C531.829 69.678 531.474 69.3769 531.213 68.983C530.955 68.589 530.827 68.1061 530.827 67.5341C530.827 67.0417 530.921 66.6364 531.111 66.3182C531.3 66 531.556 65.7481 531.878 65.5625C532.2 65.3769 532.56 65.2367 532.957 65.142C533.355 65.0473 533.76 64.9754 534.173 64.9261C534.696 64.8655 535.12 64.8163 535.446 64.7784C535.772 64.7367 536.009 64.6705 536.156 64.5795C536.304 64.4886 536.378 64.3409 536.378 64.1364V64.0966C536.378 63.6004 536.238 63.2159 535.957 62.9432C535.681 62.6705 535.268 62.5341 534.719 62.5341C534.147 62.5341 533.696 62.661 533.366 62.9148C533.041 63.1648 532.815 63.4432 532.69 63.75L531.094 63.3864C531.283 62.8561 531.56 62.428 531.923 62.1023C532.291 61.7727 532.713 61.5341 533.19 61.3864C533.668 61.2348 534.17 61.1591 534.696 61.1591C535.045 61.1591 535.414 61.2008 535.804 61.2841C536.198 61.3636 536.565 61.5114 536.906 61.7273C537.251 61.9432 537.533 62.2519 537.753 62.6534C537.973 63.0511 538.082 63.5682 538.082 64.2045V70H536.423V68.8068H536.355C536.245 69.0265 536.08 69.2424 535.861 69.4545C535.641 69.6667 535.359 69.8428 535.014 69.983C534.67 70.1231 534.257 70.1932 533.776 70.1932ZM534.145 68.8295C534.615 68.8295 535.016 68.7367 535.349 68.5511C535.687 68.3655 535.942 68.1231 536.116 67.8239C536.295 67.5208 536.384 67.197 536.384 66.8523V65.7273C536.323 65.7879 536.205 65.8447 536.031 65.8977C535.861 65.947 535.666 65.9905 535.446 66.0284C535.226 66.0625 535.012 66.0947 534.804 66.125C534.596 66.1515 534.421 66.1742 534.281 66.1932C533.952 66.2348 533.651 66.3049 533.378 66.4034C533.109 66.5019 532.893 66.6439 532.73 66.8295C532.571 67.0114 532.491 67.2538 532.491 67.5568C532.491 67.9773 532.647 68.2955 532.957 68.5114C533.268 68.7235 533.664 68.8295 534.145 68.8295ZM544.021 70.1761C543.177 70.1761 542.449 69.9848 541.839 69.6023C541.233 69.2159 540.768 68.6837 540.442 68.0057C540.116 67.3277 539.953 66.5511 539.953 65.6761C539.953 64.7898 540.12 64.0076 540.453 63.3295C540.786 62.6477 541.256 62.1155 541.862 61.733C542.468 61.3504 543.182 61.1591 544.004 61.1591C544.667 61.1591 545.258 61.2822 545.777 61.5284C546.296 61.7708 546.714 62.1117 547.033 62.5511C547.355 62.9905 547.546 63.5038 547.607 64.0909H545.953C545.862 63.6818 545.654 63.3295 545.328 63.0341C545.006 62.7386 544.574 62.5909 544.033 62.5909C543.559 62.5909 543.144 62.7159 542.788 62.9659C542.436 63.2121 542.161 63.5644 541.964 64.0227C541.768 64.4773 541.669 65.0152 541.669 65.6364C541.669 66.2727 541.766 66.822 541.959 67.2841C542.152 67.7462 542.425 68.1042 542.777 68.358C543.133 68.6117 543.552 68.7386 544.033 68.7386C544.355 68.7386 544.646 68.6799 544.908 68.5625C545.173 68.4413 545.394 68.2689 545.572 68.0455C545.754 67.822 545.881 67.553 545.953 67.2386H547.607C547.546 67.803 547.362 68.3068 547.055 68.75C546.749 69.1932 546.338 69.5417 545.822 69.7955C545.311 70.0492 544.711 70.1761 544.021 70.1761ZM553.185 70.1761C552.325 70.1761 551.584 69.9924 550.963 69.625C550.346 69.2538 549.868 68.733 549.531 68.0625C549.198 67.3883 549.031 66.5985 549.031 65.6932C549.031 64.7992 549.198 64.0114 549.531 63.3295C549.868 62.6477 550.338 62.1155 550.94 61.733C551.546 61.3504 552.255 61.1591 553.065 61.1591C553.558 61.1591 554.035 61.2405 554.497 61.4034C554.959 61.5663 555.374 61.822 555.741 62.1705C556.109 62.5189 556.399 62.9716 556.611 63.5284C556.823 64.0814 556.929 64.7538 556.929 65.5455V66.1477H549.991V64.875H555.264C555.264 64.428 555.173 64.0322 554.991 63.6875C554.81 63.339 554.554 63.0644 554.224 62.8636C553.899 62.6629 553.516 62.5625 553.077 62.5625C552.599 62.5625 552.183 62.6799 551.827 62.9148C551.474 63.1458 551.202 63.4489 551.009 63.8239C550.819 64.1951 550.724 64.5985 550.724 65.0341V66.0284C550.724 66.6117 550.827 67.108 551.031 67.517C551.24 67.9261 551.529 68.2386 551.901 68.4545C552.272 68.6667 552.705 68.7727 553.202 68.7727C553.524 68.7727 553.817 68.7273 554.082 68.6364C554.348 68.5417 554.577 68.4015 554.77 68.2159C554.963 68.0303 555.111 67.8011 555.213 67.5284L556.821 67.8182C556.692 68.2917 556.461 68.7064 556.128 69.0625C555.798 69.4148 555.384 69.6894 554.884 69.8864C554.387 70.0795 553.821 70.1761 553.185 70.1761ZM558.814 70V61.2727H560.456V62.6591H560.547C560.706 62.1894 560.986 61.8201 561.388 61.5511C561.793 61.2784 562.251 61.142 562.763 61.142C562.869 61.142 562.994 61.1458 563.138 61.1534C563.286 61.161 563.401 61.1705 563.484 61.1818V62.8068C563.416 62.7879 563.295 62.767 563.121 62.7443C562.946 62.7178 562.772 62.7045 562.598 62.7045C562.196 62.7045 561.839 62.7898 561.524 62.9602C561.214 63.1269 560.967 63.3598 560.786 63.6591C560.604 63.9545 560.513 64.2917 560.513 64.6705V70H558.814Z" fill="#728389"/>
<path d="M10.9432 59.1477H9.17045C9.10227 58.7689 8.97538 58.4356 8.78977 58.1477C8.60417 57.8598 8.37689 57.6155 8.10795 57.4148C7.83902 57.214 7.53788 57.0625 7.20455 56.9602C6.875 56.858 6.52462 56.8068 6.15341 56.8068C5.48295 56.8068 4.88258 56.9754 4.35227 57.3125C3.82576 57.6496 3.40909 58.1439 3.10227 58.7955C2.79924 59.447 2.64773 60.2424 2.64773 61.1818C2.64773 62.1288 2.79924 62.928 3.10227 63.5795C3.40909 64.2311 3.82765 64.7235 4.35795 65.0568C4.88826 65.3902 5.48485 65.5568 6.14773 65.5568C6.51515 65.5568 6.86364 65.5076 7.19318 65.4091C7.52652 65.3068 7.82765 65.1572 8.09659 64.9602C8.36553 64.7633 8.5928 64.5227 8.77841 64.2386C8.9678 63.9508 9.09848 63.6212 9.17045 63.25L10.9432 63.2557C10.8485 63.8277 10.6648 64.3542 10.392 64.8352C10.1231 65.3125 9.77652 65.7254 9.35227 66.0739C8.93182 66.4186 8.45076 66.6856 7.90909 66.875C7.36742 67.0644 6.77652 67.1591 6.13636 67.1591C5.12879 67.1591 4.23106 66.9205 3.44318 66.4432C2.6553 65.9621 2.03409 65.2746 1.57955 64.3807C1.12879 63.4867 0.903409 62.4205 0.903409 61.1818C0.903409 59.9394 1.13068 58.8731 1.58523 57.983C2.03977 57.089 2.66098 56.4034 3.44886 55.9261C4.23674 55.4451 5.13258 55.2045 6.13636 55.2045C6.75379 55.2045 7.32955 55.2936 7.86364 55.4716C8.40152 55.6458 8.88447 55.9034 9.3125 56.2443C9.74053 56.5814 10.0947 56.9943 10.375 57.483C10.6553 57.9678 10.8447 58.5227 10.9432 59.1477ZM16.669 67.1761C15.8092 67.1761 15.0687 66.9924 14.4474 66.625C13.83 66.2538 13.3527 65.733 13.0156 65.0625C12.6823 64.3883 12.5156 63.5985 12.5156 62.6932C12.5156 61.7992 12.6823 61.0114 13.0156 60.3295C13.3527 59.6477 13.8224 59.1155 14.4247 58.733C15.0308 58.3504 15.7391 58.1591 16.5497 58.1591C17.0421 58.1591 17.5194 58.2405 17.9815 58.4034C18.4437 58.5663 18.8584 58.822 19.2259 59.1705C19.5933 59.5189 19.883 59.9716 20.0952 60.5284C20.3073 61.0814 20.4134 61.7538 20.4134 62.5455V63.1477H13.4759V61.875H18.7486C18.7486 61.428 18.6577 61.0322 18.4759 60.6875C18.294 60.339 18.0384 60.0644 17.7088 59.8636C17.383 59.6629 17.0005 59.5625 16.5611 59.5625C16.0838 59.5625 15.6671 59.6799 15.3111 59.9148C14.9588 60.1458 14.6861 60.4489 14.4929 60.8239C14.3035 61.1951 14.2088 61.5985 14.2088 62.0341V63.0284C14.2088 63.6117 14.3111 64.108 14.5156 64.517C14.724 64.9261 15.0137 65.2386 15.3849 65.4545C15.7562 65.6667 16.1899 65.7727 16.6861 65.7727C17.008 65.7727 17.3016 65.7273 17.5668 65.6364C17.8319 65.5417 18.0611 65.4015 18.2543 65.2159C18.4474 65.0303 18.5952 64.8011 18.6974 64.5284L20.3054 64.8182C20.1766 65.2917 19.9455 65.7064 19.6122 66.0625C19.2827 66.4148 18.8679 66.6894 18.3679 66.8864C17.8717 67.0795 17.3054 67.1761 16.669 67.1761ZM23.9972 55.3636V67H22.2983V55.3636H23.9972ZM27.9815 55.3636V67H26.2827V55.3636H27.9815ZM41.0412 60.4034L39.5014 60.6761C39.437 60.4792 39.3348 60.2917 39.1946 60.1136C39.0582 59.9356 38.8726 59.7898 38.6378 59.6761C38.4029 59.5625 38.1094 59.5057 37.7571 59.5057C37.276 59.5057 36.8745 59.6136 36.5526 59.8295C36.2306 60.0417 36.0696 60.3163 36.0696 60.6534C36.0696 60.9451 36.1776 61.1799 36.3935 61.358C36.6094 61.536 36.9579 61.6818 37.4389 61.7955L38.8253 62.1136C39.6283 62.2992 40.2268 62.5852 40.6207 62.9716C41.0147 63.358 41.2116 63.8598 41.2116 64.4773C41.2116 65 41.0601 65.4659 40.7571 65.875C40.4579 66.2803 40.0393 66.5985 39.5014 66.8295C38.9673 67.0606 38.348 67.1761 37.6435 67.1761C36.6662 67.1761 35.8688 66.9678 35.2514 66.5511C34.634 66.1307 34.2552 65.5341 34.1151 64.7614L35.7571 64.5114C35.8594 64.9394 36.0696 65.2633 36.3878 65.483C36.706 65.6989 37.1207 65.8068 37.6321 65.8068C38.1889 65.8068 38.634 65.6913 38.9673 65.4602C39.3007 65.2254 39.4673 64.9394 39.4673 64.6023C39.4673 64.3295 39.3651 64.1004 39.1605 63.9148C38.9598 63.7292 38.651 63.589 38.2344 63.4943L36.7571 63.1705C35.9427 62.9848 35.3404 62.6894 34.9503 62.2841C34.5639 61.8788 34.3707 61.3655 34.3707 60.7443C34.3707 60.2292 34.5147 59.7784 34.8026 59.392C35.0904 59.0057 35.4882 58.7045 35.9957 58.4886C36.5033 58.2689 37.0848 58.1591 37.7401 58.1591C38.6832 58.1591 39.4257 58.3636 39.9673 58.7727C40.509 59.178 40.867 59.7216 41.0412 60.4034ZM43.0795 70.2727V58.2727H44.7386V59.6875H44.8807C44.9792 59.5057 45.1212 59.2955 45.3068 59.0568C45.4924 58.8182 45.75 58.6098 46.0795 58.4318C46.4091 58.25 46.8447 58.1591 47.3864 58.1591C48.0909 58.1591 48.7197 58.3371 49.2727 58.6932C49.8258 59.0492 50.2595 59.5625 50.5739 60.233C50.892 60.9034 51.0511 61.7102 51.0511 62.6534C51.0511 63.5966 50.8939 64.4053 50.5795 65.0795C50.2652 65.75 49.8333 66.267 49.2841 66.6307C48.7348 66.9905 48.108 67.1705 47.4034 67.1705C46.8731 67.1705 46.4394 67.0814 46.1023 66.9034C45.7689 66.7254 45.5076 66.517 45.3182 66.2784C45.1288 66.0398 44.983 65.8277 44.8807 65.642H44.7784V70.2727H43.0795ZM44.7443 62.6364C44.7443 63.25 44.8333 63.7879 45.0114 64.25C45.1894 64.7121 45.447 65.0739 45.7841 65.3352C46.1212 65.5928 46.5341 65.7216 47.0227 65.7216C47.5303 65.7216 47.9545 65.5871 48.2955 65.3182C48.6364 65.0455 48.8939 64.6761 49.0682 64.2102C49.2462 63.7443 49.3352 63.2197 49.3352 62.6364C49.3352 62.0606 49.2481 61.5436 49.0739 61.0852C48.9034 60.6269 48.6458 60.2652 48.3011 60C47.9602 59.7348 47.5341 59.6023 47.0227 59.6023C46.5303 59.6023 46.1136 59.7292 45.7727 59.983C45.4356 60.2367 45.1799 60.5909 45.0057 61.0455C44.8314 61.5 44.7443 62.0303 44.7443 62.6364ZM55.4943 67.1932C54.9413 67.1932 54.4413 67.0909 53.9943 66.8864C53.5473 66.678 53.1932 66.3769 52.9318 65.983C52.6742 65.589 52.5455 65.1061 52.5455 64.5341C52.5455 64.0417 52.6402 63.6364 52.8295 63.3182C53.0189 63 53.2746 62.7481 53.5966 62.5625C53.9186 62.3769 54.2784 62.2367 54.6761 62.142C55.0739 62.0473 55.4792 61.9754 55.892 61.9261C56.4148 61.8655 56.839 61.8163 57.1648 61.7784C57.4905 61.7367 57.7273 61.6705 57.875 61.5795C58.0227 61.4886 58.0966 61.3409 58.0966 61.1364V61.0966C58.0966 60.6004 57.9564 60.2159 57.6761 59.9432C57.3996 59.6705 56.9867 59.5341 56.4375 59.5341C55.8655 59.5341 55.4148 59.661 55.0852 59.9148C54.7595 60.1648 54.5341 60.4432 54.4091 60.75L52.8125 60.3864C53.0019 59.8561 53.2784 59.428 53.642 59.1023C54.0095 58.7727 54.4318 58.5341 54.9091 58.3864C55.3864 58.2348 55.8883 58.1591 56.4148 58.1591C56.7633 58.1591 57.1326 58.2008 57.5227 58.2841C57.9167 58.3636 58.2841 58.5114 58.625 58.7273C58.9697 58.9432 59.2519 59.2519 59.4716 59.6534C59.6913 60.0511 59.8011 60.5682 59.8011 61.2045V67H58.142V65.8068H58.0739C57.964 66.0265 57.7992 66.2424 57.5795 66.4545C57.3598 66.6667 57.0777 66.8428 56.733 66.983C56.3883 67.1231 55.9754 67.1932 55.4943 67.1932ZM55.8636 65.8295C56.3333 65.8295 56.7348 65.7367 57.0682 65.5511C57.4053 65.3655 57.661 65.1231 57.8352 64.8239C58.0133 64.5208 58.1023 64.197 58.1023 63.8523V62.7273C58.0417 62.7879 57.9242 62.8447 57.75 62.8977C57.5795 62.947 57.3845 62.9905 57.1648 63.0284C56.9451 63.0625 56.7311 63.0947 56.5227 63.125C56.3144 63.1515 56.1402 63.1742 56 63.1932C55.6705 63.2348 55.3693 63.3049 55.0966 63.4034C54.8277 63.5019 54.6117 63.6439 54.4489 63.8295C54.2898 64.0114 54.2102 64.2538 54.2102 64.5568C54.2102 64.9773 54.3655 65.2955 54.6761 65.5114C54.9867 65.7235 55.3826 65.8295 55.8636 65.8295ZM65.7401 67.1761C64.8954 67.1761 64.1681 66.9848 63.5582 66.6023C62.9522 66.2159 62.4863 65.6837 62.1605 65.0057C61.8348 64.3277 61.6719 63.5511 61.6719 62.6761C61.6719 61.7898 61.8385 61.0076 62.1719 60.3295C62.5052 59.6477 62.9749 59.1155 63.581 58.733C64.187 58.3504 64.901 58.1591 65.723 58.1591C66.3859 58.1591 66.9768 58.2822 67.4957 58.5284C68.0147 58.7708 68.4332 59.1117 68.7514 59.5511C69.0734 59.9905 69.2647 60.5038 69.3253 61.0909H67.6719C67.581 60.6818 67.3726 60.3295 67.0469 60.0341C66.7249 59.7386 66.2931 59.5909 65.7514 59.5909C65.2779 59.5909 64.8632 59.7159 64.5071 59.9659C64.1548 60.2121 63.8802 60.5644 63.6832 61.0227C63.4863 61.4773 63.3878 62.0152 63.3878 62.6364C63.3878 63.2727 63.4844 63.822 63.6776 64.2841C63.8707 64.7462 64.1435 65.1042 64.4957 65.358C64.8518 65.6117 65.2704 65.7386 65.7514 65.7386C66.0734 65.7386 66.3651 65.6799 66.6264 65.5625C66.8916 65.4413 67.1132 65.2689 67.2912 65.0455C67.473 64.822 67.5999 64.553 67.6719 64.2386H69.3253C69.2647 64.803 69.081 65.3068 68.7741 65.75C68.4673 66.1932 68.0563 66.5417 67.5412 66.7955C67.0298 67.0492 66.4295 67.1761 65.7401 67.1761ZM74.9034 67.1761C74.0436 67.1761 73.303 66.9924 72.6818 66.625C72.0644 66.2538 71.5871 65.733 71.25 65.0625C70.9167 64.3883 70.75 63.5985 70.75 62.6932C70.75 61.7992 70.9167 61.0114 71.25 60.3295C71.5871 59.6477 72.0568 59.1155 72.6591 58.733C73.2652 58.3504 73.9735 58.1591 74.7841 58.1591C75.2765 58.1591 75.7538 58.2405 76.2159 58.4034C76.678 58.5663 77.0928 58.822 77.4602 59.1705C77.8277 59.5189 78.1174 59.9716 78.3295 60.5284C78.5417 61.0814 78.6477 61.7538 78.6477 62.5455V63.1477H71.7102V61.875H76.983C76.983 61.428 76.892 61.0322 76.7102 60.6875C76.5284 60.339 76.2727 60.0644 75.9432 59.8636C75.6174 59.6629 75.2348 59.5625 74.7955 59.5625C74.3182 59.5625 73.9015 59.6799 73.5455 59.9148C73.1932 60.1458 72.9205 60.4489 72.7273 60.8239C72.5379 61.1951 72.4432 61.5985 72.4432 62.0341V63.0284C72.4432 63.6117 72.5455 64.108 72.75 64.517C72.9583 64.9261 73.2481 65.2386 73.6193 65.4545C73.9905 65.6667 74.4242 65.7727 74.9205 65.7727C75.2424 65.7727 75.536 65.7273 75.8011 65.6364C76.0663 65.5417 76.2955 65.4015 76.4886 65.2159C76.6818 65.0303 76.8295 64.8011 76.9318 64.5284L78.5398 64.8182C78.411 65.2917 78.1799 65.7064 77.8466 66.0625C77.517 66.4148 77.1023 66.6894 76.6023 66.8864C76.1061 67.0795 75.5398 67.1761 74.9034 67.1761ZM80.5327 67V58.2727H82.1747V59.6591H82.2656C82.4247 59.1894 82.705 58.8201 83.1065 58.5511C83.5118 58.2784 83.9702 58.142 84.4815 58.142C84.5876 58.142 84.7126 58.1458 84.8565 58.1534C85.0043 58.161 85.1198 58.1705 85.2031 58.1818V59.8068C85.1349 59.7879 85.0137 59.767 84.8395 59.7443C84.6652 59.7178 84.491 59.7045 84.3168 59.7045C83.9152 59.7045 83.5573 59.7898 83.2429 59.9602C82.9323 60.1269 82.6861 60.3598 82.5043 60.6591C82.3224 60.9545 82.2315 61.2917 82.2315 61.6705V67H80.5327Z" fill="#728389"/>
<path d="M10.9432 94.1477H9.17045C9.10227 93.7689 8.97538 93.4356 8.78977 93.1477C8.60417 92.8598 8.37689 92.6155 8.10795 92.4148C7.83902 92.214 7.53788 92.0625 7.20455 91.9602C6.875 91.858 6.52462 91.8068 6.15341 91.8068C5.48295 91.8068 4.88258 91.9754 4.35227 92.3125C3.82576 92.6496 3.40909 93.1439 3.10227 93.7955C2.79924 94.447 2.64773 95.2424 2.64773 96.1818C2.64773 97.1288 2.79924 97.928 3.10227 98.5795C3.40909 99.2311 3.82765 99.7235 4.35795 100.057C4.88826 100.39 5.48485 100.557 6.14773 100.557C6.51515 100.557 6.86364 100.508 7.19318 100.409C7.52652 100.307 7.82765 100.157 8.09659 99.9602C8.36553 99.7633 8.5928 99.5227 8.77841 99.2386C8.9678 98.9508 9.09848 98.6212 9.17045 98.25L10.9432 98.2557C10.8485 98.8277 10.6648 99.3542 10.392 99.8352C10.1231 100.312 9.77652 100.725 9.35227 101.074C8.93182 101.419 8.45076 101.686 7.90909 101.875C7.36742 102.064 6.77652 102.159 6.13636 102.159C5.12879 102.159 4.23106 101.92 3.44318 101.443C2.6553 100.962 2.03409 100.275 1.57955 99.3807C1.12879 98.4867 0.903409 97.4205 0.903409 96.1818C0.903409 94.9394 1.13068 93.8731 1.58523 92.983C2.03977 92.089 2.66098 91.4034 3.44886 90.9261C4.23674 90.4451 5.13258 90.2045 6.13636 90.2045C6.75379 90.2045 7.32955 90.2936 7.86364 90.4716C8.40152 90.6458 8.88447 90.9034 9.3125 91.2443C9.74053 91.5814 10.0947 91.9943 10.375 92.483C10.6553 92.9678 10.8447 93.5227 10.9432 94.1477ZM16.5838 102.176C15.7656 102.176 15.0516 101.989 14.4418 101.614C13.8319 101.239 13.3584 100.714 13.0213 100.04C12.6842 99.3655 12.5156 98.5777 12.5156 97.6761C12.5156 96.7708 12.6842 95.9792 13.0213 95.3011C13.3584 94.6231 13.8319 94.0966 14.4418 93.7216C15.0516 93.3466 15.7656 93.1591 16.5838 93.1591C17.402 93.1591 18.116 93.3466 18.7259 93.7216C19.3357 94.0966 19.8092 94.6231 20.1463 95.3011C20.4834 95.9792 20.652 96.7708 20.652 97.6761C20.652 98.5777 20.4834 99.3655 20.1463 100.04C19.8092 100.714 19.3357 101.239 18.7259 101.614C18.116 101.989 17.402 102.176 16.5838 102.176ZM16.5895 100.75C17.1198 100.75 17.5592 100.61 17.9077 100.33C18.2562 100.049 18.5137 99.6761 18.6804 99.2102C18.8509 98.7443 18.9361 98.2311 18.9361 97.6705C18.9361 97.1136 18.8509 96.6023 18.6804 96.1364C18.5137 95.6667 18.2562 95.2898 17.9077 95.0057C17.5592 94.7216 17.1198 94.5795 16.5895 94.5795C16.0554 94.5795 15.6122 94.7216 15.2599 95.0057C14.9115 95.2898 14.652 95.6667 14.4815 96.1364C14.3149 96.6023 14.2315 97.1136 14.2315 97.6705C14.2315 98.2311 14.3149 98.7443 14.4815 99.2102C14.652 99.6761 14.9115 100.049 15.2599 100.33C15.6122 100.61 16.0554 100.75 16.5895 100.75ZM24.2472 90.3636V102H22.5483V90.3636H24.2472ZM30.2088 102.176C29.3906 102.176 28.6766 101.989 28.0668 101.614C27.4569 101.239 26.9834 100.714 26.6463 100.04C26.3092 99.3655 26.1406 98.5777 26.1406 97.6761C26.1406 96.7708 26.3092 95.9792 26.6463 95.3011C26.9834 94.6231 27.4569 94.0966 28.0668 93.7216C28.6766 93.3466 29.3906 93.1591 30.2088 93.1591C31.027 93.1591 31.741 93.3466 32.3509 93.7216C32.9607 94.0966 33.4342 94.6231 33.7713 95.3011C34.1084 95.9792 34.277 96.7708 34.277 97.6761C34.277 98.5777 34.1084 99.3655 33.7713 100.04C33.4342 100.714 32.9607 101.239 32.3509 101.614C31.741 101.989 31.027 102.176 30.2088 102.176ZM30.2145 100.75C30.7448 100.75 31.1842 100.61 31.5327 100.33C31.8812 100.049 32.1387 99.6761 32.3054 99.2102C32.4759 98.7443 32.5611 98.2311 32.5611 97.6705C32.5611 97.1136 32.4759 96.6023 32.3054 96.1364C32.1387 95.6667 31.8812 95.2898 31.5327 95.0057C31.1842 94.7216 30.7448 94.5795 30.2145 94.5795C29.6804 94.5795 29.2372 94.7216 28.8849 95.0057C28.5365 95.2898 28.277 95.6667 28.1065 96.1364C27.9399 96.6023 27.8565 97.1136 27.8565 97.6705C27.8565 98.2311 27.9399 98.7443 28.1065 99.2102C28.277 99.6761 28.5365 100.049 28.8849 100.33C29.2372 100.61 29.6804 100.75 30.2145 100.75ZM36.1733 102V93.2727H37.8153V94.6591H37.9062C38.0653 94.1894 38.3456 93.8201 38.7472 93.5511C39.1525 93.2784 39.6108 93.142 40.1222 93.142C40.2282 93.142 40.3532 93.1458 40.4972 93.1534C40.6449 93.161 40.7604 93.1705 40.8438 93.1818V94.8068C40.7756 94.7879 40.6544 94.767 40.4801 94.7443C40.3059 94.7178 40.1316 94.7045 39.9574 94.7045C39.5559 94.7045 39.1979 94.7898 38.8835 94.9602C38.5729 95.1269 38.3267 95.3598 38.1449 95.6591C37.9631 95.9545 37.8722 96.2917 37.8722 96.6705V102H36.1733ZM50.7017 93.2727V94.6364H45.7699V93.2727H50.7017ZM47.1222 102V92.2614C47.1222 91.7159 47.2415 91.2633 47.4801 90.9034C47.7188 90.5398 48.035 90.2689 48.429 90.0909C48.8229 89.9091 49.2509 89.8182 49.7131 89.8182C50.054 89.8182 50.3456 89.8466 50.5881 89.9034C50.8305 89.9564 51.0104 90.0057 51.1278 90.0511L50.7301 91.4261C50.6506 91.4034 50.5483 91.3769 50.4233 91.3466C50.2983 91.3125 50.1468 91.2955 49.9688 91.2955C49.5559 91.2955 49.2604 91.3977 49.0824 91.6023C48.9081 91.8068 48.821 92.1023 48.821 92.4886V102H47.1222ZM52.4545 102V93.2727H54.1534V102H52.4545ZM53.3125 91.9261C53.017 91.9261 52.7633 91.8277 52.5511 91.6307C52.3428 91.4299 52.2386 91.1913 52.2386 90.9148C52.2386 90.6345 52.3428 90.3958 52.5511 90.1989C52.7633 89.9981 53.017 89.8977 53.3125 89.8977C53.608 89.8977 53.8598 89.9981 54.0682 90.1989C54.2803 90.3958 54.3864 90.6345 54.3864 90.9148C54.3864 91.1913 54.2803 91.4299 54.0682 91.6307C53.8598 91.8277 53.608 91.9261 53.3125 91.9261ZM58.1378 90.3636V102H56.4389V90.3636H58.1378ZM64.4972 93.2727V94.6364H59.7301V93.2727H64.4972ZM61.0085 91.1818H62.7074V99.4375C62.7074 99.767 62.7566 100.015 62.8551 100.182C62.9536 100.345 63.0805 100.456 63.2358 100.517C63.3949 100.574 63.5672 100.602 63.7528 100.602C63.8892 100.602 64.0085 100.593 64.1108 100.574C64.2131 100.555 64.2926 100.54 64.3494 100.528L64.6562 101.932C64.5578 101.97 64.4176 102.008 64.2358 102.045C64.054 102.087 63.8267 102.11 63.554 102.114C63.107 102.121 62.6903 102.042 62.304 101.875C61.9176 101.708 61.6051 101.451 61.3665 101.102C61.1278 100.754 61.0085 100.316 61.0085 99.7898V91.1818ZM70.044 102.176C69.1842 102.176 68.4437 101.992 67.8224 101.625C67.205 101.254 66.7277 100.733 66.3906 100.062C66.0573 99.3883 65.8906 98.5985 65.8906 97.6932C65.8906 96.7992 66.0573 96.0114 66.3906 95.3295C66.7277 94.6477 67.1974 94.1155 67.7997 93.733C68.4058 93.3504 69.1141 93.1591 69.9247 93.1591C70.4171 93.1591 70.8944 93.2405 71.3565 93.4034C71.8187 93.5663 72.2334 93.822 72.6009 94.1705C72.9683 94.5189 73.258 94.9716 73.4702 95.5284C73.6823 96.0814 73.7884 96.7538 73.7884 97.5455V98.1477H66.8509V96.875H72.1236C72.1236 96.428 72.0327 96.0322 71.8509 95.6875C71.669 95.339 71.4134 95.0644 71.0838 94.8636C70.758 94.6629 70.3755 94.5625 69.9361 94.5625C69.4588 94.5625 69.0421 94.6799 68.6861 94.9148C68.3338 95.1458 68.0611 95.4489 67.8679 95.8239C67.6785 96.1951 67.5838 96.5985 67.5838 97.0341V98.0284C67.5838 98.6117 67.6861 99.108 67.8906 99.517C68.099 99.9261 68.3887 100.239 68.7599 100.455C69.1312 100.667 69.5649 100.773 70.0611 100.773C70.383 100.773 70.6766 100.727 70.9418 100.636C71.2069 100.542 71.4361 100.402 71.6293 100.216C71.8224 100.03 71.9702 99.8011 72.0724 99.5284L73.6804 99.8182C73.5516 100.292 73.3205 100.706 72.9872 101.062C72.6577 101.415 72.2429 101.689 71.7429 101.886C71.2467 102.08 70.6804 102.176 70.044 102.176ZM75.6733 102V93.2727H77.3153V94.6591H77.4062C77.5653 94.1894 77.8456 93.8201 78.2472 93.5511C78.6525 93.2784 79.1108 93.142 79.6222 93.142C79.7282 93.142 79.8532 93.1458 79.9972 93.1534C80.1449 93.161 80.2604 93.1705 80.3438 93.1818V94.8068C80.2756 94.7879 80.1544 94.767 79.9801 94.7443C79.8059 94.7178 79.6316 94.7045 79.4574 94.7045C79.0559 94.7045 78.6979 94.7898 78.3835 94.9602C78.0729 95.1269 77.8267 95.3598 77.6449 95.6591C77.4631 95.9545 77.3722 96.2917 77.3722 96.6705V102H75.6733Z" fill="#728389"/>
<line x1="85" y1="63.5" x2="142" y2="63.5" stroke="#728389"/>
<line x1="85" y1="95.5" x2="142" y2="95.5" stroke="#728389"/>
<line x1="378" y1="66.5" x2="444" y2="66.5" stroke="#728389"/>
<line x1="419" y1="83.5" x2="444" y2="83.5" stroke="#728389"/>
<defs>
<linearGradient id="paint0_linear_797_639" x1="264" y1="0" x2="264" y2="38" gradientUnits="userSpaceOnUse">
<stop offset="0.537888" stop-color="#1B8842"/>
<stop offset="1" stop-color="#15779F"/>
</linearGradient>
<linearGradient id="paint1_linear_797_639" x1="596" y1="139" x2="596" y2="177" gradientUnits="userSpaceOnUse">
<stop stop-color="#1B8842"/>
<stop offset="1" stop-color="#15779F"/>
</linearGradient>
<radialGradient id="paint2_radial_797_639" cx="0" cy="0" r="1" gradientUnits="userSpaceOnUse" gradientTransform="translate(147.609 56.118) rotate(130.515) scale(19.3232)">
<stop stop-color="#D2F7E5"/>
<stop offset="1" stop-color="#A8D1E3"/>
</radialGradient>
<radialGradient id="paint3_radial_797_639" cx="0" cy="0" r="1" gradientUnits="userSpaceOnUse" gradientTransform="translate(211.609 56.118) rotate(130.515) scale(19.3232)">
<stop stop-color="#D2F7E5"/>
<stop offset="1" stop-color="#A8D1E3"/>
</radialGradient>
<radialGradient id="paint4_radial_797_639" cx="0" cy="0" r="1" gradientUnits="userSpaceOnUse" gradientTransform="translate(275.609 56.118) rotate(130.515) scale(19.3232)">
<stop stop-color="#D2F7E5"/>
<stop offset="1" stop-color="#A8D1E3"/>
</radialGradient>
<radialGradient id="paint5_radial_797_639" cx="0" cy="0" r="1" gradientUnits="userSpaceOnUse" gradientTransform="translate(388.543 59.8886) rotate(130.515) scale(38.0426)">
<stop stop-color="#D2F7E5"/>
<stop offset="1" stop-color="#A8D1E3"/>
</radialGradient>
</defs>
</svg>
