<svg width="396" height="274" viewBox="0 0 396 274" fill="none" xmlns="http://www.w3.org/2000/svg">
<mask id="mask0_24_347" style="mask-type:alpha" maskUnits="userSpaceOnUse" x="0" y="53" width="305" height="221">
<rect x="0.5" y="53" width="304" height="221" rx="42.8375" fill="#D9D9D9"/>
</mask>
<g mask="url(#mask0_24_347)">
<circle cx="109.063" cy="87.3587" r="16.9611" fill="url(#paint0_radial_24_347)" stroke="#616A6D" stroke-width="1.90005"/>
<circle cx="145.164" cy="87.3587" r="16.9611" fill="url(#paint1_radial_24_347)" stroke="#616A6D" stroke-width="1.90005"/>
<circle cx="181.265" cy="87.3587" r="16.9611" fill="url(#paint2_radial_24_347)" stroke="#616A6D" stroke-width="1.90005"/>
<circle cx="72.9619" cy="87.3587" r="16.9611" fill="url(#paint3_radial_24_347)" stroke="#616A6D" stroke-width="1.90005"/>
<circle cx="36.8609" cy="87.3587" r="16.9611" fill="url(#paint4_radial_24_347)" stroke="#616A6D" stroke-width="1.90005"/>
<circle cx="0.759777" cy="87.3587" r="16.9611" fill="url(#paint5_radial_24_347)" stroke="#616A6D" stroke-width="1.90005"/>
<circle cx="109.063" cy="212.311" r="16.9611" fill="url(#paint6_radial_24_347)" stroke="#616A6D" stroke-width="1.90005"/>
<circle cx="145.164" cy="212.311" r="16.9611" fill="url(#paint7_radial_24_347)" stroke="#616A6D" stroke-width="1.90005"/>
<circle cx="181.265" cy="212.311" r="16.9611" fill="url(#paint8_radial_24_347)" stroke="#616A6D" stroke-width="1.90005"/>
<circle cx="72.9619" cy="212.311" r="16.9611" fill="url(#paint9_radial_24_347)" stroke="#616A6D" stroke-width="1.90005"/>
<circle cx="36.8609" cy="212.311" r="16.9611" fill="url(#paint10_radial_24_347)" stroke="#616A6D" stroke-width="1.90005"/>
<circle cx="0.759777" cy="212.311" r="16.9611" fill="url(#paint11_radial_24_347)" stroke="#616A6D" stroke-width="1.90005"/>
<circle cx="109.063" cy="149.834" r="16.9611" fill="url(#paint12_radial_24_347)" stroke="#616A6D" stroke-width="1.90005"/>
<circle cx="145.164" cy="149.834" r="16.9611" fill="url(#paint13_radial_24_347)" stroke="#616A6D" stroke-width="1.90005"/>
<circle cx="181.265" cy="149.834" r="16.9611" fill="url(#paint14_radial_24_347)" stroke="#616A6D" stroke-width="1.90005"/>
<circle cx="72.9619" cy="149.834" r="16.9611" fill="url(#paint15_radial_24_347)" stroke="#616A6D" stroke-width="1.90005"/>
<circle cx="36.8609" cy="149.834" r="16.9611" fill="url(#paint16_radial_24_347)" stroke="#616A6D" stroke-width="1.90005"/>
<circle cx="0.759777" cy="149.834" r="16.9611" fill="url(#paint17_radial_24_347)" stroke="#616A6D" stroke-width="1.90005"/>
<circle cx="91.1514" cy="118.49" r="16.9611" fill="url(#paint18_radial_24_347)" stroke="#616A6D" stroke-width="1.90005"/>
<circle cx="91.1514" cy="56.0078" r="16.9611" fill="url(#paint19_radial_24_347)" stroke="#616A6D" stroke-width="1.90005"/>
<circle cx="127.253" cy="118.49" r="16.9611" fill="url(#paint20_radial_24_347)" stroke="#616A6D" stroke-width="1.90005"/>
<circle cx="127.253" cy="56.0078" r="16.9611" fill="url(#paint21_radial_24_347)" stroke="#616A6D" stroke-width="1.90005"/>
<circle cx="163.354" cy="118.49" r="16.9611" fill="url(#paint22_radial_24_347)" stroke="#616A6D" stroke-width="1.90005"/>
<circle cx="163.354" cy="56.0078" r="16.9611" fill="url(#paint23_radial_24_347)" stroke="#616A6D" stroke-width="1.90005"/>
<circle cx="55.0503" cy="118.49" r="16.9611" fill="url(#paint24_radial_24_347)" stroke="#616A6D" stroke-width="1.90005"/>
<circle cx="55.0503" cy="56.0078" r="16.9611" fill="url(#paint25_radial_24_347)" stroke="#616A6D" stroke-width="1.90005"/>
<circle cx="18.9492" cy="118.49" r="16.9611" fill="url(#paint26_radial_24_347)" stroke="#616A6D" stroke-width="1.90005"/>
<circle cx="18.9492" cy="56.0078" r="16.9611" fill="url(#paint27_radial_24_347)" stroke="#616A6D" stroke-width="1.90005"/>
<circle cx="-17.1514" cy="118.49" r="16.9611" fill="url(#paint28_radial_24_347)" stroke="#616A6D" stroke-width="1.90005"/>
<circle cx="-17.1514" cy="56.0078" r="16.9611" fill="url(#paint29_radial_24_347)" stroke="#616A6D" stroke-width="1.90005"/>
<circle cx="91.1514" cy="243.442" r="16.9611" fill="url(#paint30_radial_24_347)" stroke="#616A6D" stroke-width="1.90005"/>
<circle cx="109.202" cy="274.514" r="16.9611" fill="url(#paint31_radial_24_347)" stroke="#616A6D" stroke-width="1.90005"/>
<circle cx="127.253" cy="243.442" r="16.9611" fill="url(#paint32_radial_24_347)" stroke="#616A6D" stroke-width="1.90005"/>
<circle cx="145.303" cy="274.514" r="16.9611" fill="url(#paint33_radial_24_347)" stroke="#616A6D" stroke-width="1.90005"/>
<circle cx="163.354" cy="243.442" r="16.9611" fill="url(#paint34_radial_24_347)" stroke="#616A6D" stroke-width="1.90005"/>
<circle cx="181.404" cy="274.514" r="16.9611" fill="url(#paint35_radial_24_347)" stroke="#616A6D" stroke-width="1.90005"/>
<circle cx="55.0503" cy="243.442" r="16.9611" fill="url(#paint36_radial_24_347)" stroke="#616A6D" stroke-width="1.90005"/>
<circle cx="73.1006" cy="274.514" r="16.9611" fill="url(#paint37_radial_24_347)" stroke="#616A6D" stroke-width="1.90005"/>
<circle cx="18.9492" cy="243.442" r="16.9611" fill="url(#paint38_radial_24_347)" stroke="#616A6D" stroke-width="1.90005"/>
<circle cx="37" cy="274.514" r="16.9611" fill="url(#paint39_radial_24_347)" stroke="#616A6D" stroke-width="1.90005"/>
<circle cx="-17.1514" cy="243.442" r="16.9611" fill="url(#paint40_radial_24_347)" stroke="#616A6D" stroke-width="1.90005"/>
<circle cx="0.898937" cy="274.514" r="16.9611" fill="url(#paint41_radial_24_347)" stroke="#616A6D" stroke-width="1.90005"/>
<circle cx="91.1514" cy="180.966" r="16.9611" fill="url(#paint42_radial_24_347)" stroke="#616A6D" stroke-width="1.90005"/>
<circle cx="127.253" cy="180.966" r="16.9611" fill="url(#paint43_radial_24_347)" stroke="#616A6D" stroke-width="1.90005"/>
<circle cx="163.354" cy="180.966" r="16.9611" fill="url(#paint44_radial_24_347)" stroke="#616A6D" stroke-width="1.90005"/>
<circle cx="55.0503" cy="180.966" r="16.9611" fill="url(#paint45_radial_24_347)" stroke="#616A6D" stroke-width="1.90005"/>
<circle cx="18.9492" cy="180.966" r="16.9611" fill="url(#paint46_radial_24_347)" stroke="#616A6D" stroke-width="1.90005"/>
<circle cx="-17.1514" cy="180.966" r="16.9611" fill="url(#paint47_radial_24_347)" stroke="#616A6D" stroke-width="1.90005"/>
</g>
<g filter="url(#filter0_d_24_347)">
<path d="M108 116.5L153 70.6007L153 162.399L108 116.5Z" fill="url(#paint48_linear_24_347)"/>
<circle cx="262" cy="119" r="119" fill="url(#paint49_radial_24_347)"/>
<path d="M373.314 117.848C373.314 146.429 362.353 173.923 342.689 194.665C323.025 215.407 296.155 227.819 267.614 229.343C239.073 230.868 211.035 221.389 189.273 202.859C167.512 184.329 153.685 158.16 150.64 129.741C147.596 101.322 155.565 72.8176 172.908 50.0988C190.251 27.38 215.645 12.1769 243.862 7.62101C272.078 3.06512 300.967 9.50331 324.578 25.6095C348.19 41.7157 364.725 66.2634 370.78 94.1964L261.659 117.848H373.314Z" fill="url(#paint50_radial_24_347)"/>
<path d="M365.478 119C365.478 145.489 355.32 170.969 337.096 190.192C318.872 209.416 293.97 220.918 267.519 222.331C241.068 223.744 215.082 214.959 194.914 197.786C174.746 180.614 161.932 156.36 159.11 130.022C156.289 103.684 163.675 77.2673 179.748 56.2121C195.82 35.1569 219.355 21.0671 245.505 16.8448C271.655 12.6226 298.429 18.5893 320.311 33.5161C342.194 48.4429 357.519 71.1931 363.13 97.0807L262 119H365.478Z" fill="url(#paint51_radial_24_347)"/>
<path d="M329.3 28.8279C347.577 42.6929 361.205 61.831 368.364 83.6845C375.522 105.538 375.87 129.065 369.36 151.123C362.851 173.18 349.794 192.716 331.935 207.12C314.076 221.524 292.266 230.109 269.42 231.729C246.573 233.348 223.779 227.925 204.083 216.183C184.387 204.441 168.728 186.941 159.199 166.021C149.67 145.1 146.725 121.757 150.757 99.1102C154.789 76.4635 165.607 55.5925 181.764 39.2865L261.5 119.004L329.3 28.8279Z" fill="url(#paint52_radial_24_347)"/>
<path d="M220.235 55.9218V46.1695H223.53C224.295 46.1695 224.921 46.3076 225.407 46.5838C225.895 46.8568 226.257 47.2267 226.492 47.6933C226.727 48.16 226.845 48.6806 226.845 49.2552C226.845 49.8298 226.727 50.352 226.492 50.8219C226.26 51.2917 225.902 51.6663 225.416 51.9457C224.93 52.2219 224.308 52.3599 223.549 52.3599H221.188V51.3123H223.511C224.035 51.3123 224.456 51.2219 224.773 51.0409C225.091 50.86 225.321 50.6155 225.464 50.3076C225.61 49.9965 225.683 49.6457 225.683 49.2552C225.683 48.8648 225.61 48.5155 225.464 48.2076C225.321 47.8997 225.089 47.6584 224.768 47.4838C224.448 47.306 224.022 47.2172 223.492 47.2172H221.416V55.9218H220.235ZM231.487 56.0742C230.827 56.0742 230.248 55.9171 229.749 55.6028C229.254 55.2885 228.867 54.8488 228.587 54.2837C228.311 53.7187 228.173 53.0584 228.173 52.3028C228.173 51.5409 228.311 50.8758 228.587 50.3076C228.867 49.7393 229.254 49.2981 229.749 48.9838C230.248 48.6695 230.827 48.5124 231.487 48.5124C232.148 48.5124 232.725 48.6695 233.221 48.9838C233.719 49.2981 234.106 49.7393 234.383 50.3076C234.662 50.8758 234.802 51.5409 234.802 52.3028C234.802 53.0584 234.662 53.7187 234.383 54.2837C234.106 54.8488 233.719 55.2885 233.221 55.6028C232.725 55.9171 232.148 56.0742 231.487 56.0742ZM231.487 55.0647C231.989 55.0647 232.402 54.9361 232.725 54.679C233.049 54.4218 233.289 54.0837 233.445 53.6647C233.6 53.2457 233.678 52.7917 233.678 52.3028C233.678 51.8139 233.6 51.3584 233.445 50.9362C233.289 50.5139 233.049 50.1727 232.725 49.9124C232.402 49.652 231.989 49.5219 231.487 49.5219C230.986 49.5219 230.573 49.652 230.249 49.9124C229.926 50.1727 229.686 50.5139 229.53 50.9362C229.375 51.3584 229.297 51.8139 229.297 52.3028C229.297 52.7917 229.375 53.2457 229.53 53.6647C229.686 54.0837 229.926 54.4218 230.249 54.679C230.573 54.9361 230.986 55.0647 231.487 55.0647ZM237.641 46.1695V55.9218H236.517V46.1695H237.641ZM240.423 58.6646C240.233 58.6646 240.063 58.6488 239.913 58.617C239.764 58.5885 239.661 58.5599 239.604 58.5313L239.89 57.5408C240.163 57.6107 240.404 57.6361 240.613 57.617C240.823 57.598 241.009 57.5043 241.171 57.3361C241.336 57.171 241.486 56.9028 241.623 56.5313L241.833 55.9599L239.128 48.6076H240.347L242.366 54.4361H242.442L244.461 48.6076H245.68L242.575 56.9885C242.436 57.3662 242.263 57.6789 242.056 57.9266C241.85 58.1773 241.61 58.3631 241.337 58.4837C241.067 58.6043 240.763 58.6646 240.423 58.6646ZM247.163 55.9218V48.6076H248.249V49.7505H248.344C248.497 49.36 248.743 49.0568 249.082 48.8409C249.422 48.6219 249.83 48.5124 250.306 48.5124C250.789 48.5124 251.19 48.6219 251.511 48.8409C251.835 49.0568 252.087 49.36 252.268 49.7505H252.344C252.532 49.3727 252.813 49.0727 253.187 48.8505C253.562 48.6251 254.011 48.5124 254.535 48.5124C255.189 48.5124 255.724 48.7171 256.139 49.1267C256.555 49.533 256.763 50.1663 256.763 51.0266V55.9218H255.639V51.0266C255.639 50.487 255.492 50.1012 255.197 49.8695C254.901 49.6378 254.554 49.5219 254.154 49.5219C253.64 49.5219 253.241 49.6774 252.959 49.9885C252.676 50.2965 252.535 50.687 252.535 51.16V55.9218H251.392V50.9123C251.392 50.4965 251.257 50.1616 250.987 49.9076C250.717 49.6505 250.37 49.5219 249.944 49.5219C249.652 49.5219 249.379 49.5997 249.125 49.7552C248.874 49.9108 248.671 50.1266 248.516 50.4028C248.363 50.6758 248.287 50.9917 248.287 51.3504V55.9218H247.163ZM261.885 56.0742C261.18 56.0742 260.572 55.9186 260.061 55.6075C259.553 55.2932 259.161 54.8552 258.885 54.2933C258.612 53.7282 258.475 53.0711 258.475 52.3219C258.475 51.5727 258.612 50.9123 258.885 50.3409C259.161 49.7663 259.545 49.3187 260.037 48.9981C260.532 48.6743 261.11 48.5124 261.77 48.5124C262.151 48.5124 262.528 48.5759 262.899 48.7028C263.27 48.8298 263.608 49.0362 263.913 49.3219C264.218 49.6044 264.461 49.979 264.642 50.4457C264.823 50.9123 264.913 51.4869 264.913 52.1695V52.6457H259.275V51.6742H263.77C263.77 51.2615 263.688 50.8933 263.523 50.5695C263.361 50.2457 263.129 49.9901 262.828 49.8028C262.529 49.6155 262.177 49.5219 261.77 49.5219C261.323 49.5219 260.935 49.633 260.608 49.8552C260.285 50.0743 260.035 50.36 259.861 50.7123C259.686 51.0647 259.599 51.4425 259.599 51.8457V52.4933C259.599 53.0457 259.694 53.5139 259.885 53.898C260.078 54.279 260.347 54.5694 260.689 54.7694C261.032 54.9663 261.431 55.0647 261.885 55.0647C262.18 55.0647 262.447 55.0234 262.685 54.9409C262.926 54.8552 263.134 54.7282 263.308 54.5599C263.483 54.3885 263.618 54.1758 263.713 53.9218L264.799 54.2266C264.685 54.5948 264.493 54.9187 264.223 55.198C263.953 55.4742 263.62 55.6901 263.223 55.8456C262.826 55.998 262.38 56.0742 261.885 56.0742ZM266.623 55.9218V48.6076H267.708V49.7124H267.785C267.918 49.3505 268.159 49.0568 268.508 48.8314C268.858 48.606 269.251 48.4933 269.689 48.4933C269.772 48.4933 269.875 48.4949 269.999 48.4981C270.123 48.5013 270.216 48.506 270.28 48.5124V49.6552C270.242 49.6457 270.154 49.6314 270.018 49.6124C269.885 49.5901 269.743 49.579 269.594 49.579C269.239 49.579 268.921 49.6536 268.642 49.8028C268.366 49.9489 268.146 50.152 267.985 50.4124C267.826 50.6695 267.747 50.9631 267.747 51.2933V55.9218H266.623Z" fill="black" fill-opacity="0.8"/>
<path d="M300.672 94.1819V103.934H299.529L294.215 96.2771H294.12V103.934H292.939V94.1819H294.082L299.415 101.858H299.51V94.1819H300.672ZM302.883 103.934V96.62H304.006V103.934H302.883ZM303.454 95.401C303.235 95.401 303.046 95.3264 302.887 95.1772C302.732 95.028 302.654 94.8486 302.654 94.6391C302.654 94.4296 302.732 94.2502 302.887 94.101C303.046 93.9518 303.235 93.8772 303.454 93.8772C303.673 93.8772 303.86 93.9518 304.016 94.101C304.175 94.2502 304.254 94.4296 304.254 94.6391C304.254 94.8486 304.175 95.028 304.016 95.1772C303.86 95.3264 303.673 95.401 303.454 95.401ZM309.036 104.087C308.35 104.087 307.76 103.925 307.265 103.601C306.77 103.277 306.389 102.831 306.122 102.263C305.855 101.695 305.722 101.045 305.722 100.315C305.722 99.5723 305.858 98.9168 306.131 98.3486C306.408 97.7771 306.792 97.3311 307.284 97.0105C307.779 96.6867 308.357 96.5248 309.017 96.5248C309.531 96.5248 309.995 96.62 310.408 96.8105C310.82 97.0009 311.158 97.2676 311.422 97.6105C311.685 97.9533 311.849 98.3533 311.912 98.8105H310.789C310.703 98.4771 310.512 98.1819 310.217 97.9247C309.925 97.6644 309.531 97.5343 309.036 97.5343C308.598 97.5343 308.214 97.6486 307.884 97.8771C307.557 98.1025 307.301 98.4216 307.117 98.8343C306.936 99.2438 306.846 99.7247 306.846 100.277C306.846 100.842 306.935 101.334 307.112 101.753C307.293 102.172 307.547 102.498 307.874 102.729C308.204 102.961 308.592 103.077 309.036 103.077C309.328 103.077 309.593 103.026 309.831 102.925C310.07 102.823 310.271 102.677 310.436 102.487C310.601 102.296 310.719 102.068 310.789 101.801H311.912C311.849 102.233 311.692 102.622 311.441 102.968C311.193 103.31 310.865 103.583 310.455 103.787C310.049 103.987 309.576 104.087 309.036 104.087ZM314.603 101.268L314.584 99.8771H314.812L318.012 96.62H319.403L315.993 100.068H315.898L314.603 101.268ZM313.555 103.934V94.1819H314.679V103.934H313.555ZM318.203 103.934L315.346 100.315L316.146 99.5343L319.631 103.934H318.203ZM323.615 104.087C322.91 104.087 322.302 103.931 321.791 103.62C321.283 103.306 320.891 102.868 320.615 102.306C320.342 101.741 320.205 101.083 320.205 100.334C320.205 99.585 320.342 98.9247 320.615 98.3533C320.891 97.7787 321.275 97.3311 321.767 97.0105C322.262 96.6867 322.84 96.5248 323.5 96.5248C323.881 96.5248 324.257 96.5883 324.629 96.7152C325 96.8422 325.338 97.0486 325.643 97.3343C325.948 97.6168 326.191 97.9914 326.372 98.4581C326.553 98.9247 326.643 99.4993 326.643 100.182V100.658H321.005V99.6866H325.5C325.5 99.2739 325.418 98.9057 325.253 98.5819C325.091 98.2581 324.859 98.0025 324.557 97.8152C324.259 97.6279 323.907 97.5343 323.5 97.5343C323.053 97.5343 322.665 97.6454 322.338 97.8676C322.015 98.0867 321.765 98.3724 321.591 98.7247C321.416 99.0771 321.329 99.4549 321.329 99.8581V100.506C321.329 101.058 321.424 101.526 321.615 101.91C321.808 102.291 322.077 102.582 322.419 102.782C322.762 102.979 323.161 103.077 323.615 103.077C323.91 103.077 324.176 103.036 324.415 102.953C324.656 102.868 324.864 102.741 325.038 102.572C325.213 102.401 325.348 102.188 325.443 101.934L326.529 102.239C326.415 102.607 326.223 102.931 325.953 103.21C325.683 103.487 325.349 103.702 324.953 103.858C324.556 104.01 324.11 104.087 323.615 104.087ZM329.476 94.1819V103.934H328.353V94.1819H329.476ZM331.935 99.82C331.935 98.62 332.09 97.5168 332.401 96.5105C332.716 95.501 333.163 94.5724 333.744 93.7248H334.735C334.506 94.0391 334.292 94.4264 334.092 94.8867C333.895 95.3438 333.722 95.847 333.573 96.3962C333.424 96.9422 333.306 97.5073 333.22 98.0914C333.138 98.6755 333.097 99.2517 333.097 99.82C333.097 100.576 333.17 101.342 333.316 102.12C333.462 102.898 333.659 103.62 333.906 104.287C334.154 104.953 334.43 105.496 334.735 105.915H333.744C333.163 105.068 332.716 104.141 332.401 103.134C332.09 102.125 331.935 101.02 331.935 99.82ZM344.279 94.1819V103.934H343.136L337.822 96.2771H337.726V103.934H336.545V94.1819H337.688L343.022 101.858H343.117V94.1819H344.279ZM346.489 103.934V96.62H347.613V103.934H346.489ZM347.061 95.401C346.842 95.401 346.653 95.3264 346.494 95.1772C346.339 95.028 346.261 94.8486 346.261 94.6391C346.261 94.4296 346.339 94.2502 346.494 94.101C346.653 93.9518 346.842 93.8772 347.061 93.8772C347.28 93.8772 347.467 93.9518 347.623 94.101C347.781 94.2502 347.861 94.4296 347.861 94.6391C347.861 94.8486 347.781 95.028 347.623 95.1772C347.467 95.3264 347.28 95.401 347.061 95.401ZM352.53 99.82C352.53 101.02 352.373 102.125 352.058 103.134C351.747 104.141 351.301 105.068 350.72 105.915H349.73C349.958 105.601 350.171 105.214 350.368 104.753C350.568 104.296 350.742 103.795 350.892 103.248C351.041 102.699 351.157 102.133 351.239 101.549C351.325 100.961 351.368 100.385 351.368 99.82C351.368 99.0644 351.295 98.2978 351.149 97.52C351.003 96.7422 350.806 96.02 350.558 95.3533C350.311 94.6867 350.035 94.1438 349.73 93.7248H350.72C351.301 94.5724 351.747 95.501 352.058 96.5105C352.373 97.5168 352.53 98.62 352.53 99.82Z" fill="white"/>
</g>
<defs>
<filter id="filter0_d_24_347" x="103" y="0" width="293" height="258" filterUnits="userSpaceOnUse" color-interpolation-filters="sRGB">
<feFlood flood-opacity="0" result="BackgroundImageFix"/>
<feColorMatrix in="SourceAlpha" type="matrix" values="0 0 0 0 0 0 0 0 0 0 0 0 0 0 0 0 0 0 127 0" result="hardAlpha"/>
<feOffset dx="5" dy="10"/>
<feGaussianBlur stdDeviation="5"/>
<feComposite in2="hardAlpha" operator="out"/>
<feColorMatrix type="matrix" values="0 0 0 0 0 0 0 0 0 0 0 0 0 0 0 0 0 0 0.2 0"/>
<feBlend mode="normal" in2="BackgroundImageFix" result="effect1_dropShadow_24_347"/>
<feBlend mode="normal" in="SourceGraphic" in2="effect1_dropShadow_24_347" result="shape"/>
</filter>
<radialGradient id="paint0_radial_24_347" cx="0" cy="0" r="1" gradientUnits="userSpaceOnUse" gradientTransform="translate(109.063 87.3587) rotate(90) scale(17.9111)">
<stop offset="0.189998" stop-color="#A5BDCE"/>
<stop offset="1" stop-color="#616A6D"/>
</radialGradient>
<radialGradient id="paint1_radial_24_347" cx="0" cy="0" r="1" gradientUnits="userSpaceOnUse" gradientTransform="translate(145.164 87.3587) rotate(90) scale(17.9111)">
<stop offset="0.189998" stop-color="#A5BDCE"/>
<stop offset="1" stop-color="#616A6D"/>
</radialGradient>
<radialGradient id="paint2_radial_24_347" cx="0" cy="0" r="1" gradientUnits="userSpaceOnUse" gradientTransform="translate(181.265 87.3587) rotate(90) scale(17.9111)">
<stop offset="0.189998" stop-color="#A5BDCE"/>
<stop offset="1" stop-color="#616A6D"/>
</radialGradient>
<radialGradient id="paint3_radial_24_347" cx="0" cy="0" r="1" gradientUnits="userSpaceOnUse" gradientTransform="translate(72.9619 87.3587) rotate(90) scale(17.9111)">
<stop offset="0.189998" stop-color="#A5BDCE"/>
<stop offset="1" stop-color="#616A6D"/>
</radialGradient>
<radialGradient id="paint4_radial_24_347" cx="0" cy="0" r="1" gradientUnits="userSpaceOnUse" gradientTransform="translate(36.8608 87.3587) rotate(90) scale(17.9111)">
<stop offset="0.189998" stop-color="#A5BDCE"/>
<stop offset="1" stop-color="#616A6D"/>
</radialGradient>
<radialGradient id="paint5_radial_24_347" cx="0" cy="0" r="1" gradientUnits="userSpaceOnUse" gradientTransform="translate(0.759776 87.3587) rotate(90) scale(17.9111)">
<stop offset="0.189998" stop-color="#A5BDCE"/>
<stop offset="1" stop-color="#616A6D"/>
</radialGradient>
<radialGradient id="paint6_radial_24_347" cx="0" cy="0" r="1" gradientUnits="userSpaceOnUse" gradientTransform="translate(109.063 212.311) rotate(90) scale(17.9111)">
<stop offset="0.189998" stop-color="#A5BDCE"/>
<stop offset="1" stop-color="#616A6D"/>
</radialGradient>
<radialGradient id="paint7_radial_24_347" cx="0" cy="0" r="1" gradientUnits="userSpaceOnUse" gradientTransform="translate(145.164 212.311) rotate(90) scale(17.9111)">
<stop offset="0.189998" stop-color="#A5BDCE"/>
<stop offset="1" stop-color="#616A6D"/>
</radialGradient>
<radialGradient id="paint8_radial_24_347" cx="0" cy="0" r="1" gradientUnits="userSpaceOnUse" gradientTransform="translate(181.265 212.311) rotate(90) scale(17.9111)">
<stop offset="0.189998" stop-color="#A5BDCE"/>
<stop offset="1" stop-color="#616A6D"/>
</radialGradient>
<radialGradient id="paint9_radial_24_347" cx="0" cy="0" r="1" gradientUnits="userSpaceOnUse" gradientTransform="translate(72.9619 212.311) rotate(90) scale(17.9111)">
<stop offset="0.189998" stop-color="#A5BDCE"/>
<stop offset="1" stop-color="#616A6D"/>
</radialGradient>
<radialGradient id="paint10_radial_24_347" cx="0" cy="0" r="1" gradientUnits="userSpaceOnUse" gradientTransform="translate(36.8608 212.311) rotate(90) scale(17.9111)">
<stop offset="0.189998" stop-color="#A5BDCE"/>
<stop offset="1" stop-color="#616A6D"/>
</radialGradient>
<radialGradient id="paint11_radial_24_347" cx="0" cy="0" r="1" gradientUnits="userSpaceOnUse" gradientTransform="translate(0.759776 212.311) rotate(90) scale(17.9111)">
<stop offset="0.189998" stop-color="#A5BDCE"/>
<stop offset="1" stop-color="#616A6D"/>
</radialGradient>
<radialGradient id="paint12_radial_24_347" cx="0" cy="0" r="1" gradientUnits="userSpaceOnUse" gradientTransform="translate(109.063 149.834) rotate(90) scale(17.9111)">
<stop offset="0.189998" stop-color="#A5BDCE"/>
<stop offset="1" stop-color="#616A6D"/>
</radialGradient>
<radialGradient id="paint13_radial_24_347" cx="0" cy="0" r="1" gradientUnits="userSpaceOnUse" gradientTransform="translate(145.164 149.834) rotate(90) scale(17.9111)">
<stop offset="0.189998" stop-color="#A5BDCE"/>
<stop offset="1" stop-color="#616A6D"/>
</radialGradient>
<radialGradient id="paint14_radial_24_347" cx="0" cy="0" r="1" gradientUnits="userSpaceOnUse" gradientTransform="translate(181.265 149.834) rotate(90) scale(17.9111)">
<stop offset="0.189998" stop-color="#A5BDCE"/>
<stop offset="1" stop-color="#616A6D"/>
</radialGradient>
<radialGradient id="paint15_radial_24_347" cx="0" cy="0" r="1" gradientUnits="userSpaceOnUse" gradientTransform="translate(72.9619 149.834) rotate(90) scale(17.9111)">
<stop offset="0.189998" stop-color="#A5BDCE"/>
<stop offset="1" stop-color="#616A6D"/>
</radialGradient>
<radialGradient id="paint16_radial_24_347" cx="0" cy="0" r="1" gradientUnits="userSpaceOnUse" gradientTransform="translate(36.8608 149.834) rotate(90) scale(17.9111)">
<stop offset="0.189998" stop-color="#A5BDCE"/>
<stop offset="1" stop-color="#616A6D"/>
</radialGradient>
<radialGradient id="paint17_radial_24_347" cx="0" cy="0" r="1" gradientUnits="userSpaceOnUse" gradientTransform="translate(0.759776 149.834) rotate(90) scale(17.9111)">
<stop offset="0.189998" stop-color="#A5BDCE"/>
<stop offset="1" stop-color="#616A6D"/>
</radialGradient>
<radialGradient id="paint18_radial_24_347" cx="0" cy="0" r="1" gradientUnits="userSpaceOnUse" gradientTransform="translate(91.1514 118.49) rotate(90) scale(17.9111)">
<stop offset="0.189998" stop-color="#A5BDCE"/>
<stop offset="1" stop-color="#616A6D"/>
</radialGradient>
<radialGradient id="paint19_radial_24_347" cx="0" cy="0" r="1" gradientUnits="userSpaceOnUse" gradientTransform="translate(91.1514 56.0078) rotate(90) scale(17.9111)">
<stop offset="0.189998" stop-color="#A5BDCE"/>
<stop offset="1" stop-color="#616A6D"/>
</radialGradient>
<radialGradient id="paint20_radial_24_347" cx="0" cy="0" r="1" gradientUnits="userSpaceOnUse" gradientTransform="translate(127.253 118.49) rotate(90) scale(17.9111)">
<stop offset="0.189998" stop-color="#A5BDCE"/>
<stop offset="1" stop-color="#616A6D"/>
</radialGradient>
<radialGradient id="paint21_radial_24_347" cx="0" cy="0" r="1" gradientUnits="userSpaceOnUse" gradientTransform="translate(127.253 56.0078) rotate(90) scale(17.9111)">
<stop offset="0.189998" stop-color="#A5BDCE"/>
<stop offset="1" stop-color="#616A6D"/>
</radialGradient>
<radialGradient id="paint22_radial_24_347" cx="0" cy="0" r="1" gradientUnits="userSpaceOnUse" gradientTransform="translate(163.354 118.49) rotate(90) scale(17.9111)">
<stop offset="0.189998" stop-color="#A5BDCE"/>
<stop offset="1" stop-color="#616A6D"/>
</radialGradient>
<radialGradient id="paint23_radial_24_347" cx="0" cy="0" r="1" gradientUnits="userSpaceOnUse" gradientTransform="translate(163.354 56.0078) rotate(90) scale(17.9111)">
<stop offset="0.189998" stop-color="#A5BDCE"/>
<stop offset="1" stop-color="#616A6D"/>
</radialGradient>
<radialGradient id="paint24_radial_24_347" cx="0" cy="0" r="1" gradientUnits="userSpaceOnUse" gradientTransform="translate(55.0503 118.49) rotate(90) scale(17.9111)">
<stop offset="0.189998" stop-color="#A5BDCE"/>
<stop offset="1" stop-color="#616A6D"/>
</radialGradient>
<radialGradient id="paint25_radial_24_347" cx="0" cy="0" r="1" gradientUnits="userSpaceOnUse" gradientTransform="translate(55.0503 56.0078) rotate(90) scale(17.9111)">
<stop offset="0.189998" stop-color="#A5BDCE"/>
<stop offset="1" stop-color="#616A6D"/>
</radialGradient>
<radialGradient id="paint26_radial_24_347" cx="0" cy="0" r="1" gradientUnits="userSpaceOnUse" gradientTransform="translate(18.9492 118.49) rotate(90) scale(17.9111)">
<stop offset="0.189998" stop-color="#A5BDCE"/>
<stop offset="1" stop-color="#616A6D"/>
</radialGradient>
<radialGradient id="paint27_radial_24_347" cx="0" cy="0" r="1" gradientUnits="userSpaceOnUse" gradientTransform="translate(18.9492 56.0078) rotate(90) scale(17.9111)">
<stop offset="0.189998" stop-color="#A5BDCE"/>
<stop offset="1" stop-color="#616A6D"/>
</radialGradient>
<radialGradient id="paint28_radial_24_347" cx="0" cy="0" r="1" gradientUnits="userSpaceOnUse" gradientTransform="translate(-17.1514 118.49) rotate(90) scale(17.9111)">
<stop offset="0.189998" stop-color="#A5BDCE"/>
<stop offset="1" stop-color="#616A6D"/>
</radialGradient>
<radialGradient id="paint29_radial_24_347" cx="0" cy="0" r="1" gradientUnits="userSpaceOnUse" gradientTransform="translate(-17.1514 56.0078) rotate(90) scale(17.9111)">
<stop offset="0.189998" stop-color="#A5BDCE"/>
<stop offset="1" stop-color="#616A6D"/>
</radialGradient>
<radialGradient id="paint30_radial_24_347" cx="0" cy="0" r="1" gradientUnits="userSpaceOnUse" gradientTransform="translate(91.1514 243.442) rotate(90) scale(17.9111)">
<stop offset="0.189998" stop-color="#A5BDCE"/>
<stop offset="1" stop-color="#616A6D"/>
</radialGradient>
<radialGradient id="paint31_radial_24_347" cx="0" cy="0" r="1" gradientUnits="userSpaceOnUse" gradientTransform="translate(109.202 274.514) rotate(90) scale(17.9111)">
<stop offset="0.189998" stop-color="#A5BDCE"/>
<stop offset="1" stop-color="#616A6D"/>
</radialGradient>
<radialGradient id="paint32_radial_24_347" cx="0" cy="0" r="1" gradientUnits="userSpaceOnUse" gradientTransform="translate(127.253 243.442) rotate(90) scale(17.9111)">
<stop offset="0.189998" stop-color="#A5BDCE"/>
<stop offset="1" stop-color="#616A6D"/>
</radialGradient>
<radialGradient id="paint33_radial_24_347" cx="0" cy="0" r="1" gradientUnits="userSpaceOnUse" gradientTransform="translate(145.303 274.514) rotate(90) scale(17.9111)">
<stop offset="0.189998" stop-color="#A5BDCE"/>
<stop offset="1" stop-color="#616A6D"/>
</radialGradient>
<radialGradient id="paint34_radial_24_347" cx="0" cy="0" r="1" gradientUnits="userSpaceOnUse" gradientTransform="translate(163.354 243.442) rotate(90) scale(17.9111)">
<stop offset="0.189998" stop-color="#A5BDCE"/>
<stop offset="1" stop-color="#616A6D"/>
</radialGradient>
<radialGradient id="paint35_radial_24_347" cx="0" cy="0" r="1" gradientUnits="userSpaceOnUse" gradientTransform="translate(181.404 274.514) rotate(90) scale(17.9111)">
<stop offset="0.189998" stop-color="#A5BDCE"/>
<stop offset="1" stop-color="#616A6D"/>
</radialGradient>
<radialGradient id="paint36_radial_24_347" cx="0" cy="0" r="1" gradientUnits="userSpaceOnUse" gradientTransform="translate(55.0503 243.442) rotate(90) scale(17.9111)">
<stop offset="0.189998" stop-color="#A5BDCE"/>
<stop offset="1" stop-color="#616A6D"/>
</radialGradient>
<radialGradient id="paint37_radial_24_347" cx="0" cy="0" r="1" gradientUnits="userSpaceOnUse" gradientTransform="translate(73.1006 274.514) rotate(90) scale(17.9111)">
<stop offset="0.189998" stop-color="#A5BDCE"/>
<stop offset="1" stop-color="#616A6D"/>
</radialGradient>
<radialGradient id="paint38_radial_24_347" cx="0" cy="0" r="1" gradientUnits="userSpaceOnUse" gradientTransform="translate(18.9492 243.442) rotate(90) scale(17.9111)">
<stop offset="0.189998" stop-color="#A5BDCE"/>
<stop offset="1" stop-color="#616A6D"/>
</radialGradient>
<radialGradient id="paint39_radial_24_347" cx="0" cy="0" r="1" gradientUnits="userSpaceOnUse" gradientTransform="translate(37 274.514) rotate(90) scale(17.9111)">
<stop offset="0.189998" stop-color="#A5BDCE"/>
<stop offset="1" stop-color="#616A6D"/>
</radialGradient>
<radialGradient id="paint40_radial_24_347" cx="0" cy="0" r="1" gradientUnits="userSpaceOnUse" gradientTransform="translate(-17.1514 243.442) rotate(90) scale(17.9111)">
<stop offset="0.189998" stop-color="#A5BDCE"/>
<stop offset="1" stop-color="#616A6D"/>
</radialGradient>
<radialGradient id="paint41_radial_24_347" cx="0" cy="0" r="1" gradientUnits="userSpaceOnUse" gradientTransform="translate(0.898936 274.514) rotate(90) scale(17.9111)">
<stop offset="0.189998" stop-color="#A5BDCE"/>
<stop offset="1" stop-color="#616A6D"/>
</radialGradient>
<radialGradient id="paint42_radial_24_347" cx="0" cy="0" r="1" gradientUnits="userSpaceOnUse" gradientTransform="translate(91.1514 180.966) rotate(90) scale(17.9111)">
<stop offset="0.189998" stop-color="#A5BDCE"/>
<stop offset="1" stop-color="#616A6D"/>
</radialGradient>
<radialGradient id="paint43_radial_24_347" cx="0" cy="0" r="1" gradientUnits="userSpaceOnUse" gradientTransform="translate(127.253 180.966) rotate(90) scale(17.9111)">
<stop offset="0.189998" stop-color="#A5BDCE"/>
<stop offset="1" stop-color="#616A6D"/>
</radialGradient>
<radialGradient id="paint44_radial_24_347" cx="0" cy="0" r="1" gradientUnits="userSpaceOnUse" gradientTransform="translate(163.354 180.966) rotate(90) scale(17.9111)">
<stop offset="0.189998" stop-color="#A5BDCE"/>
<stop offset="1" stop-color="#616A6D"/>
</radialGradient>
<radialGradient id="paint45_radial_24_347" cx="0" cy="0" r="1" gradientUnits="userSpaceOnUse" gradientTransform="translate(55.0503 180.966) rotate(90) scale(17.9111)">
<stop offset="0.189998" stop-color="#A5BDCE"/>
<stop offset="1" stop-color="#616A6D"/>
</radialGradient>
<radialGradient id="paint46_radial_24_347" cx="0" cy="0" r="1" gradientUnits="userSpaceOnUse" gradientTransform="translate(18.9492 180.966) rotate(90) scale(17.9111)">
<stop offset="0.189998" stop-color="#A5BDCE"/>
<stop offset="1" stop-color="#616A6D"/>
</radialGradient>
<radialGradient id="paint47_radial_24_347" cx="0" cy="0" r="1" gradientUnits="userSpaceOnUse" gradientTransform="translate(-17.1514 180.966) rotate(90) scale(17.9111)">
<stop offset="0.189998" stop-color="#A5BDCE"/>
<stop offset="1" stop-color="#616A6D"/>
</radialGradient>
<linearGradient id="paint48_linear_24_347" x1="108" y1="116.5" x2="168" y2="116.5" gradientUnits="userSpaceOnUse">
<stop stop-color="#158D44"/>
<stop offset="0.791667" stop-color="white" stop-opacity="0.5"/>
</linearGradient>
<radialGradient id="paint49_radial_24_347" cx="0" cy="0" r="1" gradientUnits="userSpaceOnUse" gradientTransform="translate(262 119) rotate(90) scale(119)">
<stop offset="0.189998" stop-color="#A5BDCE"/>
<stop offset="1" stop-color="#616A6D"/>
</radialGradient>
<radialGradient id="paint50_radial_24_347" cx="0" cy="0" r="1" gradientUnits="userSpaceOnUse" gradientTransform="translate(300.801 83.7793) rotate(130.515) scale(134.845)">
<stop stop-color="#D2F7E5"/>
<stop offset="1" stop-color="#A8D1E3"/>
</radialGradient>
<radialGradient id="paint51_radial_24_347" cx="0" cy="0" r="1" gradientUnits="userSpaceOnUse" gradientTransform="translate(298.275 87.4264) rotate(130.515) scale(124.971)">
<stop stop-color="#D2F7E5"/>
<stop offset="1" stop-color="#A8D1E3"/>
</radialGradient>
<radialGradient id="paint52_radial_24_347" cx="0" cy="0" r="1" gradientUnits="userSpaceOnUse" gradientTransform="translate(261.5 119.004) rotate(90) scale(113.004 112.5)">
<stop offset="0.189998" stop-color="#A5BDCE"/>
<stop offset="1" stop-color="#616A6D"/>
</radialGradient>
</defs>
</svg>
