<svg width="437" height="271" viewBox="0 0 437 271" fill="none" xmlns="http://www.w3.org/2000/svg">
<mask id="mask0_30_333" style="mask-type:alpha" maskUnits="userSpaceOnUse" x="0" y="49" width="305" height="222">
<rect x="0.5" y="49.5" width="304" height="221" rx="42.8375" fill="#D9D9D9"/>
</mask>
<g mask="url(#mask0_30_333)">
<circle cx="109.063" cy="83.8584" r="16.9611" fill="url(#paint0_radial_30_333)"/>
<circle cx="109.063" cy="83.8584" r="16.9611" fill="black" fill-opacity="0.1"/>
<circle cx="109.063" cy="83.8584" r="16.9611" stroke="white" stroke-width="1.90005"/>
<circle cx="145.164" cy="83.8584" r="16.9611" fill="url(#paint1_radial_30_333)"/>
<circle cx="145.164" cy="83.8584" r="16.9611" fill="black" fill-opacity="0.1"/>
<circle cx="145.164" cy="83.8584" r="16.9611" stroke="white" stroke-width="1.90005"/>
<circle cx="181.265" cy="83.8584" r="16.9611" fill="url(#paint2_radial_30_333)"/>
<circle cx="181.265" cy="83.8584" r="16.9611" fill="black" fill-opacity="0.1"/>
<circle cx="181.265" cy="83.8584" r="16.9611" stroke="white" stroke-width="1.90005"/>
<circle cx="72.9622" cy="83.8584" r="16.9611" fill="url(#paint3_radial_30_333)"/>
<circle cx="72.9622" cy="83.8584" r="16.9611" fill="black" fill-opacity="0.1"/>
<circle cx="72.9622" cy="83.8584" r="16.9611" stroke="white" stroke-width="1.90005"/>
<circle cx="36.8611" cy="83.8584" r="16.9611" fill="url(#paint4_radial_30_333)"/>
<circle cx="36.8611" cy="83.8584" r="16.9611" fill="black" fill-opacity="0.1"/>
<circle cx="36.8611" cy="83.8584" r="16.9611" stroke="white" stroke-width="1.90005"/>
<circle cx="0.759533" cy="83.8584" r="16.9611" fill="url(#paint5_radial_30_333)"/>
<circle cx="0.759533" cy="83.8584" r="16.9611" fill="black" fill-opacity="0.1"/>
<circle cx="0.759533" cy="83.8584" r="16.9611" stroke="white" stroke-width="1.90005"/>
<circle cx="109.063" cy="208.811" r="16.9611" fill="url(#paint6_radial_30_333)"/>
<circle cx="109.063" cy="208.811" r="16.9611" fill="black" fill-opacity="0.1"/>
<circle cx="109.063" cy="208.811" r="16.9611" stroke="white" stroke-width="1.90005"/>
<circle cx="145.164" cy="208.811" r="16.9611" fill="url(#paint7_radial_30_333)"/>
<circle cx="145.164" cy="208.811" r="16.9611" fill="black" fill-opacity="0.1"/>
<circle cx="145.164" cy="208.811" r="16.9611" stroke="white" stroke-width="1.90005"/>
<circle cx="181.265" cy="208.811" r="16.9611" fill="url(#paint8_radial_30_333)"/>
<circle cx="181.265" cy="208.811" r="16.9611" fill="black" fill-opacity="0.1"/>
<circle cx="181.265" cy="208.811" r="16.9611" stroke="white" stroke-width="1.90005"/>
<circle cx="72.9622" cy="208.811" r="16.9611" fill="url(#paint9_radial_30_333)"/>
<circle cx="72.9622" cy="208.811" r="16.9611" fill="black" fill-opacity="0.1"/>
<circle cx="72.9622" cy="208.811" r="16.9611" stroke="white" stroke-width="1.90005"/>
<circle cx="36.8611" cy="208.811" r="16.9611" fill="url(#paint10_radial_30_333)"/>
<circle cx="36.8611" cy="208.811" r="16.9611" fill="black" fill-opacity="0.1"/>
<circle cx="36.8611" cy="208.811" r="16.9611" stroke="white" stroke-width="1.90005"/>
<circle cx="0.759533" cy="208.811" r="16.9611" fill="url(#paint11_radial_30_333)"/>
<circle cx="0.759533" cy="208.811" r="16.9611" fill="black" fill-opacity="0.1"/>
<circle cx="0.759533" cy="208.811" r="16.9611" stroke="white" stroke-width="1.90005"/>
<circle cx="109.063" cy="146.334" r="16.9611" fill="url(#paint12_radial_30_333)"/>
<circle cx="109.063" cy="146.334" r="16.9611" fill="black" fill-opacity="0.1"/>
<circle cx="109.063" cy="146.334" r="16.9611" stroke="white" stroke-width="1.90005"/>
<circle cx="145.164" cy="146.334" r="16.9611" fill="url(#paint13_radial_30_333)"/>
<circle cx="145.164" cy="146.334" r="16.9611" fill="black" fill-opacity="0.1"/>
<circle cx="145.164" cy="146.334" r="16.9611" stroke="white" stroke-width="1.90005"/>
<circle cx="181.265" cy="146.334" r="16.9611" fill="url(#paint14_radial_30_333)"/>
<circle cx="181.265" cy="146.334" r="16.9611" fill="black" fill-opacity="0.1"/>
<circle cx="181.265" cy="146.334" r="16.9611" stroke="white" stroke-width="1.90005"/>
<circle cx="72.9622" cy="146.334" r="16.9611" fill="url(#paint15_radial_30_333)"/>
<circle cx="72.9622" cy="146.334" r="16.9611" fill="black" fill-opacity="0.1"/>
<circle cx="72.9622" cy="146.334" r="16.9611" stroke="white" stroke-width="1.90005"/>
<circle cx="36.8611" cy="146.334" r="16.9611" fill="url(#paint16_radial_30_333)"/>
<circle cx="36.8611" cy="146.334" r="16.9611" fill="black" fill-opacity="0.1"/>
<circle cx="36.8611" cy="146.334" r="16.9611" stroke="white" stroke-width="1.90005"/>
<circle cx="0.759533" cy="146.334" r="16.9611" fill="url(#paint17_radial_30_333)"/>
<circle cx="0.759533" cy="146.334" r="16.9611" fill="black" fill-opacity="0.1"/>
<circle cx="0.759533" cy="146.334" r="16.9611" stroke="white" stroke-width="1.90005"/>
<circle cx="91.1514" cy="114.99" r="16.9611" fill="url(#paint18_radial_30_333)"/>
<circle cx="91.1514" cy="114.99" r="16.9611" fill="black" fill-opacity="0.1"/>
<circle cx="91.1514" cy="114.99" r="16.9611" stroke="white" stroke-width="1.90005"/>
<circle cx="91.1514" cy="52.5078" r="16.9611" fill="url(#paint19_radial_30_333)"/>
<circle cx="91.1514" cy="52.5078" r="16.9611" fill="black" fill-opacity="0.1"/>
<circle cx="91.1514" cy="52.5078" r="16.9611" stroke="white" stroke-width="1.90005"/>
<circle cx="127.253" cy="114.99" r="16.9611" fill="url(#paint20_radial_30_333)"/>
<circle cx="127.253" cy="114.99" r="16.9611" fill="black" fill-opacity="0.1"/>
<circle cx="127.253" cy="114.99" r="16.9611" stroke="white" stroke-width="1.90005"/>
<circle cx="127.253" cy="52.5078" r="16.9611" fill="url(#paint21_radial_30_333)"/>
<circle cx="127.253" cy="52.5078" r="16.9611" fill="black" fill-opacity="0.1"/>
<circle cx="127.253" cy="52.5078" r="16.9611" stroke="white" stroke-width="1.90005"/>
<circle cx="163.354" cy="114.99" r="16.9611" fill="url(#paint22_radial_30_333)"/>
<circle cx="163.354" cy="114.99" r="16.9611" fill="black" fill-opacity="0.1"/>
<circle cx="163.354" cy="114.99" r="16.9611" stroke="white" stroke-width="1.90005"/>
<circle cx="163.354" cy="52.5078" r="16.9611" fill="url(#paint23_radial_30_333)"/>
<circle cx="163.354" cy="52.5078" r="16.9611" fill="black" fill-opacity="0.1"/>
<circle cx="163.354" cy="52.5078" r="16.9611" stroke="white" stroke-width="1.90005"/>
<circle cx="55.0503" cy="114.99" r="16.9611" fill="url(#paint24_radial_30_333)"/>
<circle cx="55.0503" cy="114.99" r="16.9611" fill="black" fill-opacity="0.1"/>
<circle cx="55.0503" cy="114.99" r="16.9611" stroke="white" stroke-width="1.90005"/>
<circle cx="55.0503" cy="52.5078" r="16.9611" fill="url(#paint25_radial_30_333)"/>
<circle cx="55.0503" cy="52.5078" r="16.9611" fill="black" fill-opacity="0.1"/>
<circle cx="55.0503" cy="52.5078" r="16.9611" stroke="white" stroke-width="1.90005"/>
<circle cx="18.9492" cy="114.99" r="16.9611" fill="url(#paint26_radial_30_333)"/>
<circle cx="18.9492" cy="114.99" r="16.9611" fill="black" fill-opacity="0.1"/>
<circle cx="18.9492" cy="114.99" r="16.9611" stroke="white" stroke-width="1.90005"/>
<circle cx="18.9492" cy="52.5078" r="16.9611" fill="url(#paint27_radial_30_333)"/>
<circle cx="18.9492" cy="52.5078" r="16.9611" fill="black" fill-opacity="0.1"/>
<circle cx="18.9492" cy="52.5078" r="16.9611" stroke="white" stroke-width="1.90005"/>
<circle cx="-17.1511" cy="114.99" r="16.9611" fill="url(#paint28_radial_30_333)"/>
<circle cx="-17.1511" cy="114.99" r="16.9611" fill="black" fill-opacity="0.1"/>
<circle cx="-17.1511" cy="114.99" r="16.9611" stroke="white" stroke-width="1.90005"/>
<circle cx="-17.1511" cy="52.5078" r="16.9611" fill="url(#paint29_radial_30_333)"/>
<circle cx="-17.1511" cy="52.5078" r="16.9611" fill="black" fill-opacity="0.1"/>
<circle cx="-17.1511" cy="52.5078" r="16.9611" stroke="white" stroke-width="1.90005"/>
<circle cx="91.1514" cy="239.941" r="16.9611" fill="url(#paint30_radial_30_333)"/>
<circle cx="91.1514" cy="239.941" r="16.9611" fill="black" fill-opacity="0.1"/>
<circle cx="91.1514" cy="239.941" r="16.9611" stroke="white" stroke-width="1.90005"/>
<circle cx="109.202" cy="271.014" r="16.9611" fill="url(#paint31_radial_30_333)"/>
<circle cx="109.202" cy="271.014" r="16.9611" fill="black" fill-opacity="0.1"/>
<circle cx="109.202" cy="271.014" r="16.9611" stroke="white" stroke-width="1.90005"/>
<circle cx="127.253" cy="239.941" r="16.9611" fill="url(#paint32_radial_30_333)"/>
<circle cx="127.253" cy="239.941" r="16.9611" fill="black" fill-opacity="0.1"/>
<circle cx="127.253" cy="239.941" r="16.9611" stroke="white" stroke-width="1.90005"/>
<circle cx="145.303" cy="271.014" r="16.9611" fill="url(#paint33_radial_30_333)"/>
<circle cx="145.303" cy="271.014" r="16.9611" fill="black" fill-opacity="0.1"/>
<circle cx="145.303" cy="271.014" r="16.9611" stroke="white" stroke-width="1.90005"/>
<circle cx="163.354" cy="239.941" r="16.9611" fill="url(#paint34_radial_30_333)"/>
<circle cx="163.354" cy="239.941" r="16.9611" fill="black" fill-opacity="0.1"/>
<circle cx="163.354" cy="239.941" r="16.9611" stroke="white" stroke-width="1.90005"/>
<circle cx="181.404" cy="271.014" r="16.9611" fill="url(#paint35_radial_30_333)"/>
<circle cx="181.404" cy="271.014" r="16.9611" fill="black" fill-opacity="0.1"/>
<circle cx="181.404" cy="271.014" r="16.9611" stroke="white" stroke-width="1.90005"/>
<circle cx="55.0503" cy="239.941" r="16.9611" fill="url(#paint36_radial_30_333)"/>
<circle cx="55.0503" cy="239.941" r="16.9611" fill="black" fill-opacity="0.1"/>
<circle cx="55.0503" cy="239.941" r="16.9611" stroke="white" stroke-width="1.90005"/>
<circle cx="73.1008" cy="271.014" r="16.9611" fill="url(#paint37_radial_30_333)"/>
<circle cx="73.1008" cy="271.014" r="16.9611" fill="black" fill-opacity="0.1"/>
<circle cx="73.1008" cy="271.014" r="16.9611" stroke="white" stroke-width="1.90005"/>
<circle cx="18.9492" cy="239.941" r="16.9611" fill="url(#paint38_radial_30_333)"/>
<circle cx="18.9492" cy="239.941" r="16.9611" fill="black" fill-opacity="0.1"/>
<circle cx="18.9492" cy="239.941" r="16.9611" stroke="white" stroke-width="1.90005"/>
<circle cx="36.9998" cy="271.014" r="16.9611" fill="url(#paint39_radial_30_333)"/>
<circle cx="36.9998" cy="271.014" r="16.9611" fill="black" fill-opacity="0.1"/>
<circle cx="36.9998" cy="271.014" r="16.9611" stroke="white" stroke-width="1.90005"/>
<circle cx="-17.1511" cy="239.941" r="16.9611" fill="url(#paint40_radial_30_333)"/>
<circle cx="-17.1511" cy="239.941" r="16.9611" fill="black" fill-opacity="0.1"/>
<circle cx="-17.1511" cy="239.941" r="16.9611" stroke="white" stroke-width="1.90005"/>
<circle cx="0.898693" cy="271.014" r="16.9611" fill="url(#paint41_radial_30_333)"/>
<circle cx="0.898693" cy="271.014" r="16.9611" fill="black" fill-opacity="0.1"/>
<circle cx="0.898693" cy="271.014" r="16.9611" stroke="white" stroke-width="1.90005"/>
<circle cx="91.1514" cy="177.466" r="16.9611" fill="url(#paint42_radial_30_333)"/>
<circle cx="91.1514" cy="177.466" r="16.9611" fill="black" fill-opacity="0.1"/>
<circle cx="91.1514" cy="177.466" r="16.9611" stroke="white" stroke-width="1.90005"/>
<circle cx="127.253" cy="177.466" r="16.9611" fill="url(#paint43_radial_30_333)"/>
<circle cx="127.253" cy="177.466" r="16.9611" fill="black" fill-opacity="0.1"/>
<circle cx="127.253" cy="177.466" r="16.9611" stroke="white" stroke-width="1.90005"/>
<circle cx="163.354" cy="177.466" r="16.9611" fill="url(#paint44_radial_30_333)"/>
<circle cx="163.354" cy="177.466" r="16.9611" fill="black" fill-opacity="0.1"/>
<circle cx="163.354" cy="177.466" r="16.9611" stroke="white" stroke-width="1.90005"/>
<circle cx="55.0503" cy="177.466" r="16.9611" fill="url(#paint45_radial_30_333)"/>
<circle cx="55.0503" cy="177.466" r="16.9611" fill="black" fill-opacity="0.1"/>
<circle cx="55.0503" cy="177.466" r="16.9611" stroke="white" stroke-width="1.90005"/>
<circle cx="18.9492" cy="177.466" r="16.9611" fill="url(#paint46_radial_30_333)"/>
<circle cx="18.9492" cy="177.466" r="16.9611" fill="black" fill-opacity="0.1"/>
<circle cx="18.9492" cy="177.466" r="16.9611" stroke="white" stroke-width="1.90005"/>
<circle cx="-17.1511" cy="177.466" r="16.9611" fill="url(#paint47_radial_30_333)"/>
<circle cx="-17.1511" cy="177.466" r="16.9611" fill="black" fill-opacity="0.1"/>
<circle cx="-17.1511" cy="177.466" r="16.9611" stroke="white" stroke-width="1.90005"/>
</g>
<g filter="url(#filter0_d_30_333)">
<path d="M158 113L203 67.1007L203 158.899L158 113Z" fill="url(#paint48_linear_30_333)"/>
<circle cx="307" cy="115" r="115" fill="url(#paint49_linear_30_333)"/>
<circle cx="307" cy="115" r="100" fill="url(#paint50_radial_30_333)"/>
<path d="M422 115C422 133.912 417.336 152.532 408.421 169.211C399.506 185.889 386.615 200.112 370.891 210.619C355.166 221.126 337.093 227.593 318.272 229.446C299.451 231.3 280.464 228.483 262.991 221.246C245.519 214.009 230.101 202.574 218.104 187.955C206.106 173.336 197.899 155.984 194.21 137.435C190.52 118.887 191.462 99.7148 196.952 81.6172C202.442 63.5197 212.31 47.0554 225.683 33.6827L307 115H422Z" fill="url(#paint51_radial_30_333)"/>
<path d="M307.585 90V76.9091H312.009C313.031 76.9091 313.871 77.0838 314.527 77.4332C315.183 77.7784 315.669 78.2536 315.984 78.8587C316.3 79.4638 316.457 80.152 316.457 80.9233C316.457 81.6946 316.3 82.3786 315.984 82.9751C315.669 83.5717 315.185 84.0405 314.533 84.3814C313.881 84.718 313.048 84.8864 312.034 84.8864H308.455V83.4545H311.983C312.682 83.4545 313.244 83.3523 313.67 83.1477C314.101 82.9432 314.412 82.6534 314.604 82.2784C314.8 81.8991 314.898 81.4474 314.898 80.9233C314.898 80.3991 314.8 79.9411 314.604 79.549C314.408 79.157 314.094 78.8544 313.664 78.6413C313.234 78.424 312.665 78.3153 311.957 78.3153H309.17V90H307.585ZM313.747 84.1193L316.969 90H315.128L311.957 84.1193H313.747ZM322.905 90.2045C321.959 90.2045 321.143 89.9957 320.457 89.5781C319.775 89.1562 319.249 88.5682 318.878 87.8139C318.512 87.0554 318.329 86.1733 318.329 85.1676C318.329 84.1619 318.512 83.2756 318.878 82.5085C319.249 81.7372 319.765 81.1364 320.425 80.706C321.09 80.2713 321.866 80.054 322.752 80.054C323.263 80.054 323.768 80.1392 324.267 80.3097C324.765 80.4801 325.219 80.7571 325.628 81.1406C326.037 81.5199 326.363 82.0227 326.606 82.6491C326.849 83.2756 326.971 84.0469 326.971 84.9631V85.6023H319.403V84.2983H325.437C325.437 83.7443 325.326 83.25 325.104 82.8153C324.887 82.3807 324.576 82.0376 324.171 81.7862C323.77 81.5348 323.297 81.4091 322.752 81.4091C322.151 81.4091 321.631 81.5582 321.192 81.8565C320.758 82.1506 320.423 82.5341 320.189 83.0071C319.954 83.4801 319.837 83.9872 319.837 84.5284V85.3977C319.837 86.1392 319.965 86.7678 320.221 87.2834C320.481 87.7947 320.841 88.1847 321.301 88.4531C321.761 88.7173 322.296 88.8494 322.905 88.8494C323.302 88.8494 323.66 88.794 323.979 88.6832C324.303 88.5682 324.582 88.3977 324.817 88.1719C325.051 87.9418 325.232 87.6562 325.36 87.3153L326.817 87.7244C326.664 88.2188 326.406 88.6534 326.044 89.0284C325.682 89.3991 325.234 89.6889 324.702 89.8977C324.169 90.1023 323.57 90.2045 322.905 90.2045ZM336.22 82.3807L334.865 82.7642C334.78 82.5384 334.654 82.3189 334.488 82.1058C334.326 81.8885 334.104 81.7095 333.823 81.5689C333.542 81.4283 333.182 81.358 332.743 81.358C332.142 81.358 331.641 81.4964 331.241 81.7734C330.844 82.0462 330.646 82.3935 330.646 82.8153C330.646 83.1903 330.782 83.4865 331.055 83.7038C331.328 83.9212 331.754 84.1023 332.334 84.2472L333.791 84.6051C334.669 84.8182 335.323 85.1442 335.753 85.5831C336.184 86.0178 336.399 86.5781 336.399 87.2642C336.399 87.8267 336.237 88.3295 335.913 88.7727C335.594 89.2159 335.146 89.5653 334.571 89.821C333.996 90.0767 333.327 90.2045 332.564 90.2045C331.562 90.2045 330.733 89.9872 330.077 89.5526C329.421 89.1179 329.006 88.483 328.831 87.6477L330.263 87.2898C330.399 87.8182 330.657 88.2145 331.036 88.4787C331.42 88.7429 331.92 88.875 332.538 88.875C333.241 88.875 333.8 88.7259 334.213 88.4276C334.631 88.125 334.839 87.7628 334.839 87.3409C334.839 87 334.72 86.7145 334.481 86.4844C334.243 86.25 333.876 86.0753 333.382 85.9602L331.746 85.5767C330.846 85.3636 330.186 85.0334 329.764 84.5859C329.346 84.1342 329.138 83.5696 329.138 82.892C329.138 82.3381 329.293 81.848 329.604 81.4219C329.92 80.9957 330.348 80.6612 330.889 80.4183C331.434 80.1754 332.052 80.054 332.743 80.054C333.714 80.054 334.477 80.267 335.031 80.6932C335.589 81.1193 335.986 81.6818 336.22 82.3807ZM338.67 90V80.1818H340.178V90H338.67ZM339.437 78.5455C339.143 78.5455 338.889 78.4453 338.676 78.245C338.467 78.0447 338.363 77.804 338.363 77.5227C338.363 77.2415 338.467 77.0007 338.676 76.8004C338.889 76.6001 339.143 76.5 339.437 76.5C339.731 76.5 339.982 76.6001 340.191 76.8004C340.404 77.0007 340.511 77.2415 340.511 77.5227C340.511 77.804 340.404 78.0447 340.191 78.245C339.982 78.4453 339.731 78.5455 339.437 78.5455ZM344.45 84.0938V90H342.941V80.1818H344.399V81.7159H344.526C344.757 81.2173 345.106 80.8168 345.575 80.5142C346.044 80.2074 346.649 80.054 347.39 80.054C348.055 80.054 348.637 80.1903 349.135 80.4631C349.634 80.7315 350.021 81.1406 350.298 81.6903C350.575 82.2358 350.714 82.9261 350.714 83.7614V90H349.205V83.8636C349.205 83.0923 349.005 82.4915 348.605 82.0611C348.204 81.6264 347.654 81.4091 346.955 81.4091C346.474 81.4091 346.044 81.5135 345.664 81.7223C345.289 81.9311 344.993 82.2358 344.776 82.6364C344.558 83.0369 344.45 83.5227 344.45 84.0938ZM362.522 90.2045C361.601 90.2045 360.809 89.9872 360.144 89.5526C359.479 89.1179 358.968 88.5192 358.61 87.7564C358.252 86.9936 358.073 86.1222 358.073 85.142C358.073 84.1449 358.256 83.2649 358.623 82.5021C358.993 81.7351 359.509 81.1364 360.169 80.706C360.834 80.2713 361.61 80.054 362.496 80.054C363.186 80.054 363.809 80.1818 364.363 80.4375C364.917 80.6932 365.37 81.0511 365.724 81.5114C366.078 81.9716 366.297 82.5085 366.382 83.1222H364.874C364.759 82.6747 364.503 82.2784 364.107 81.9332C363.715 81.5838 363.186 81.4091 362.522 81.4091C361.934 81.4091 361.418 81.5625 360.975 81.8693C360.536 82.1719 360.193 82.6001 359.946 83.1541C359.703 83.7038 359.581 84.3494 359.581 85.0909C359.581 85.8494 359.701 86.5099 359.939 87.0724C360.182 87.6349 360.523 88.0717 360.962 88.3828C361.405 88.6939 361.925 88.8494 362.522 88.8494C362.914 88.8494 363.27 88.7812 363.589 88.6449C363.909 88.5085 364.179 88.3125 364.401 88.0568C364.623 87.8011 364.78 87.4943 364.874 87.1364H366.382C366.297 87.7159 366.086 88.2379 365.75 88.7024C365.417 89.1626 364.976 89.5291 364.426 89.8018C363.881 90.0703 363.246 90.2045 362.522 90.2045ZM372.576 90.2045C371.69 90.2045 370.912 89.9936 370.243 89.5717C369.578 89.1499 369.059 88.5597 368.684 87.8011C368.313 87.0426 368.127 86.1562 368.127 85.142C368.127 84.1193 368.313 83.2266 368.684 82.4638C369.059 81.701 369.578 81.1087 370.243 80.6868C370.912 80.2649 371.69 80.054 372.576 80.054C373.463 80.054 374.238 80.2649 374.903 80.6868C375.572 81.1087 376.092 81.701 376.463 82.4638C376.838 83.2266 377.025 84.1193 377.025 85.142C377.025 86.1562 376.838 87.0426 376.463 87.8011C376.092 88.5597 375.572 89.1499 374.903 89.5717C374.238 89.9936 373.463 90.2045 372.576 90.2045ZM372.576 88.8494C373.25 88.8494 373.804 88.6768 374.238 88.3317C374.673 87.9865 374.995 87.5327 375.203 86.9702C375.412 86.4077 375.517 85.7983 375.517 85.142C375.517 84.4858 375.412 83.8743 375.203 83.3075C374.995 82.7408 374.673 82.2827 374.238 81.9332C373.804 81.5838 373.25 81.4091 372.576 81.4091C371.903 81.4091 371.349 81.5838 370.914 81.9332C370.48 82.2827 370.158 82.7408 369.949 83.3075C369.74 83.8743 369.636 84.4858 369.636 85.142C369.636 85.7983 369.74 86.4077 369.949 86.9702C370.158 87.5327 370.48 87.9865 370.914 88.3317C371.349 88.6768 371.903 88.8494 372.576 88.8494ZM379.328 90V80.1818H380.785V81.6648H380.888C381.067 81.179 381.39 80.7848 381.859 80.4822C382.328 80.1797 382.856 80.0284 383.444 80.0284C383.555 80.0284 383.694 80.0305 383.86 80.0348C384.026 80.0391 384.152 80.0455 384.237 80.054V81.5881C384.186 81.5753 384.069 81.5561 383.885 81.5305C383.706 81.5007 383.517 81.4858 383.317 81.4858C382.839 81.4858 382.413 81.5859 382.038 81.7862C381.667 81.9822 381.373 82.255 381.156 82.6044C380.943 82.9496 380.836 83.3437 380.836 83.7869V90H379.328ZM389.843 90.2045C388.897 90.2045 388.081 89.9957 387.395 89.5781C386.713 89.1562 386.187 88.5682 385.816 87.8139C385.449 87.0554 385.266 86.1733 385.266 85.1676C385.266 84.1619 385.449 83.2756 385.816 82.5085C386.187 81.7372 386.702 81.1364 387.363 80.706C388.028 80.2713 388.803 80.054 389.689 80.054C390.201 80.054 390.706 80.1392 391.204 80.3097C391.703 80.4801 392.157 80.7571 392.566 81.1406C392.975 81.5199 393.301 82.0227 393.544 82.6491C393.787 83.2756 393.908 84.0469 393.908 84.9631V85.6023H386.34V84.2983H392.374C392.374 83.7443 392.263 83.25 392.042 82.8153C391.824 82.3807 391.513 82.0376 391.108 81.7862C390.708 81.5348 390.235 81.4091 389.689 81.4091C389.089 81.4091 388.569 81.5582 388.13 81.8565C387.695 82.1506 387.361 82.5341 387.126 83.0071C386.892 83.4801 386.775 83.9872 386.775 84.5284V85.3977C386.775 86.1392 386.903 86.7678 387.158 87.2834C387.418 87.7947 387.778 88.1847 388.238 88.4531C388.699 88.7173 389.233 88.8494 389.843 88.8494C390.239 88.8494 390.597 88.794 390.917 88.6832C391.241 88.5682 391.52 88.3977 391.754 88.1719C391.988 87.9418 392.17 87.6562 392.297 87.3153L393.755 87.7244C393.601 88.2188 393.344 88.6534 392.981 89.0284C392.619 89.3991 392.172 89.6889 391.639 89.8977C391.106 90.1023 390.508 90.2045 389.843 90.2045Z" fill="black"/>
<path d="M308.585 148.909H310.477L314.926 159.776H315.08L319.528 148.909H321.42V162H319.938V152.054H319.81L315.719 162H314.287L310.196 152.054H310.068V162H308.585V148.909ZM328.511 162.205C327.565 162.205 326.749 161.996 326.063 161.578C325.381 161.156 324.855 160.568 324.484 159.814C324.117 159.055 323.934 158.173 323.934 157.168C323.934 156.162 324.117 155.276 324.484 154.509C324.855 153.737 325.37 153.136 326.031 152.706C326.695 152.271 327.471 152.054 328.357 152.054C328.869 152.054 329.374 152.139 329.872 152.31C330.371 152.48 330.825 152.757 331.234 153.141C331.643 153.52 331.969 154.023 332.212 154.649C332.455 155.276 332.576 156.047 332.576 156.963V157.602H325.008V156.298H331.042C331.042 155.744 330.931 155.25 330.71 154.815C330.492 154.381 330.181 154.038 329.776 153.786C329.376 153.535 328.903 153.409 328.357 153.409C327.757 153.409 327.237 153.558 326.798 153.857C326.363 154.151 326.029 154.534 325.794 155.007C325.56 155.48 325.443 155.987 325.443 156.528V157.398C325.443 158.139 325.57 158.768 325.826 159.283C326.086 159.795 326.446 160.185 326.906 160.453C327.367 160.717 327.901 160.849 328.511 160.849C328.907 160.849 329.265 160.794 329.585 160.683C329.909 160.568 330.188 160.398 330.422 160.172C330.656 159.942 330.838 159.656 330.965 159.315L332.423 159.724C332.269 160.219 332.012 160.653 331.649 161.028C331.287 161.399 330.84 161.689 330.307 161.898C329.774 162.102 329.176 162.205 328.511 162.205ZM339.141 152.182V153.46H334.053V152.182H339.141ZM335.536 149.83H337.044V159.188C337.044 159.614 337.106 159.933 337.23 160.146C337.357 160.355 337.519 160.496 337.715 160.568C337.916 160.636 338.127 160.67 338.348 160.67C338.514 160.67 338.651 160.662 338.757 160.645C338.864 160.624 338.949 160.607 339.013 160.594L339.32 161.949C339.218 161.987 339.075 162.026 338.892 162.064C338.708 162.107 338.476 162.128 338.195 162.128C337.769 162.128 337.351 162.036 336.942 161.853C336.537 161.67 336.2 161.391 335.932 161.016C335.668 160.641 335.536 160.168 335.536 159.597V149.83ZM344.299 162.23C343.677 162.23 343.112 162.113 342.605 161.879C342.098 161.64 341.695 161.297 341.397 160.849C341.099 160.398 340.95 159.852 340.95 159.213C340.95 158.651 341.061 158.195 341.282 157.845C341.504 157.491 341.8 157.214 342.171 157.014C342.541 156.814 342.95 156.665 343.398 156.567C343.85 156.464 344.303 156.384 344.759 156.324C345.356 156.247 345.84 156.19 346.21 156.151C346.585 156.109 346.858 156.038 347.029 155.94C347.203 155.842 347.291 155.672 347.291 155.429V155.378C347.291 154.747 347.118 154.257 346.773 153.908C346.432 153.558 345.914 153.384 345.22 153.384C344.499 153.384 343.935 153.541 343.526 153.857C343.117 154.172 342.829 154.509 342.663 154.866L341.231 154.355C341.487 153.759 341.828 153.294 342.254 152.962C342.684 152.625 343.153 152.391 343.66 152.259C344.171 152.122 344.674 152.054 345.169 152.054C345.484 152.054 345.846 152.092 346.255 152.169C346.669 152.241 347.067 152.393 347.45 152.623C347.838 152.853 348.16 153.2 348.416 153.665C348.671 154.129 348.799 154.751 348.799 155.531V162H347.291V160.67H347.214C347.112 160.884 346.941 161.112 346.703 161.354C346.464 161.597 346.146 161.804 345.75 161.974C345.354 162.145 344.87 162.23 344.299 162.23ZM344.529 160.875C345.126 160.875 345.629 160.758 346.038 160.523C346.451 160.289 346.762 159.987 346.971 159.616C347.184 159.245 347.291 158.855 347.291 158.446V157.065C347.227 157.142 347.086 157.212 346.869 157.276C346.656 157.336 346.409 157.389 346.127 157.436C345.85 157.479 345.58 157.517 345.316 157.551C345.056 157.581 344.845 157.607 344.683 157.628C344.291 157.679 343.924 157.762 343.583 157.877C343.247 157.988 342.974 158.156 342.765 158.382C342.561 158.604 342.458 158.906 342.458 159.29C342.458 159.814 342.652 160.21 343.04 160.479C343.432 160.743 343.928 160.875 344.529 160.875ZM353.061 148.909V162H351.553V148.909H353.061ZM362.395 148.909V162H360.887V148.909H362.395ZM368.047 162.23C367.425 162.23 366.86 162.113 366.353 161.879C365.846 161.64 365.444 161.297 365.145 160.849C364.847 160.398 364.698 159.852 364.698 159.213C364.698 158.651 364.809 158.195 365.03 157.845C365.252 157.491 365.548 157.214 365.919 157.014C366.289 156.814 366.699 156.665 367.146 156.567C367.598 156.464 368.051 156.384 368.507 156.324C369.104 156.247 369.588 156.19 369.958 156.151C370.333 156.109 370.606 156.038 370.777 155.94C370.951 155.842 371.039 155.672 371.039 155.429V155.378C371.039 154.747 370.866 154.257 370.521 153.908C370.18 153.558 369.662 153.384 368.968 153.384C368.248 153.384 367.683 153.541 367.274 153.857C366.865 154.172 366.577 154.509 366.411 154.866L364.979 154.355C365.235 153.759 365.576 153.294 366.002 152.962C366.432 152.625 366.901 152.391 367.408 152.259C367.919 152.122 368.422 152.054 368.917 152.054C369.232 152.054 369.594 152.092 370.003 152.169C370.417 152.241 370.815 152.393 371.199 152.623C371.586 152.853 371.908 153.2 372.164 153.665C372.419 154.129 372.547 154.751 372.547 155.531V162H371.039V160.67H370.962C370.86 160.884 370.689 161.112 370.451 161.354C370.212 161.597 369.895 161.804 369.498 161.974C369.102 162.145 368.618 162.23 368.047 162.23ZM368.277 160.875C368.874 160.875 369.377 160.758 369.786 160.523C370.199 160.289 370.51 159.987 370.719 159.616C370.932 159.245 371.039 158.855 371.039 158.446V157.065C370.975 157.142 370.834 157.212 370.617 157.276C370.404 157.336 370.157 157.389 369.875 157.436C369.598 157.479 369.328 157.517 369.064 157.551C368.804 157.581 368.593 157.607 368.431 157.628C368.039 157.679 367.672 157.762 367.331 157.877C366.995 157.988 366.722 158.156 366.513 158.382C366.309 158.604 366.206 158.906 366.206 159.29C366.206 159.814 366.4 160.21 366.788 160.479C367.18 160.743 367.676 160.875 368.277 160.875ZM375.921 165.682C375.665 165.682 375.437 165.661 375.237 165.618C375.036 165.58 374.898 165.541 374.821 165.503L375.205 164.173C375.571 164.267 375.895 164.301 376.176 164.276C376.458 164.25 376.707 164.124 376.924 163.898C377.146 163.677 377.348 163.317 377.531 162.818L377.813 162.051L374.182 152.182H375.818L378.529 160.006H378.631L381.341 152.182H382.977L378.81 163.432C378.622 163.939 378.39 164.359 378.113 164.691C377.836 165.028 377.514 165.277 377.148 165.439C376.786 165.601 376.377 165.682 375.921 165.682ZM388.733 162.205C387.787 162.205 386.971 161.996 386.285 161.578C385.604 161.156 385.077 160.568 384.706 159.814C384.34 159.055 384.157 158.173 384.157 157.168C384.157 156.162 384.34 155.276 384.706 154.509C385.077 153.737 385.593 153.136 386.253 152.706C386.918 152.271 387.694 152.054 388.58 152.054C389.091 152.054 389.596 152.139 390.095 152.31C390.594 152.48 391.047 152.757 391.456 153.141C391.866 153.52 392.192 154.023 392.434 154.649C392.677 155.276 392.799 156.047 392.799 156.963V157.602H385.231V156.298H391.265C391.265 155.744 391.154 155.25 390.932 154.815C390.715 154.381 390.404 154.038 389.999 153.786C389.599 153.535 389.126 153.409 388.58 153.409C387.979 153.409 387.459 153.558 387.02 153.857C386.586 154.151 386.251 154.534 386.017 155.007C385.782 155.48 385.665 155.987 385.665 156.528V157.398C385.665 158.139 385.793 158.768 386.049 159.283C386.309 159.795 386.669 160.185 387.129 160.453C387.589 160.717 388.124 160.849 388.733 160.849C389.13 160.849 389.488 160.794 389.807 160.683C390.131 160.568 390.41 160.398 390.645 160.172C390.879 159.942 391.06 159.656 391.188 159.315L392.645 159.724C392.492 160.219 392.234 160.653 391.872 161.028C391.51 161.399 391.062 161.689 390.53 161.898C389.997 162.102 389.398 162.205 388.733 162.205ZM395.094 162V152.182H396.551V153.665H396.653C396.832 153.179 397.156 152.785 397.625 152.482C398.094 152.18 398.622 152.028 399.21 152.028C399.321 152.028 399.459 152.031 399.626 152.035C399.792 152.039 399.917 152.045 400.003 152.054V153.588C399.952 153.575 399.834 153.556 399.651 153.531C399.472 153.501 399.282 153.486 399.082 153.486C398.605 153.486 398.179 153.586 397.804 153.786C397.433 153.982 397.139 154.255 396.922 154.604C396.709 154.95 396.602 155.344 396.602 155.787V162H395.094Z" fill="black"/>
</g>
<defs>
<filter id="filter0_d_30_333" x="153" y="0" width="284" height="250" filterUnits="userSpaceOnUse" color-interpolation-filters="sRGB">
<feFlood flood-opacity="0" result="BackgroundImageFix"/>
<feColorMatrix in="SourceAlpha" type="matrix" values="0 0 0 0 0 0 0 0 0 0 0 0 0 0 0 0 0 0 127 0" result="hardAlpha"/>
<feOffset dx="5" dy="10"/>
<feGaussianBlur stdDeviation="5"/>
<feComposite in2="hardAlpha" operator="out"/>
<feColorMatrix type="matrix" values="0 0 0 0 0 0 0 0 0 0 0 0 0 0 0 0 0 0 0.2 0"/>
<feBlend mode="normal" in2="BackgroundImageFix" result="effect1_dropShadow_30_333"/>
<feBlend mode="normal" in="SourceGraphic" in2="effect1_dropShadow_30_333" result="shape"/>
</filter>
<radialGradient id="paint0_radial_30_333" cx="0" cy="0" r="1" gradientUnits="userSpaceOnUse" gradientTransform="translate(109.063 83.8584) rotate(90) scale(17.9111)">
<stop offset="0.171875" stop-color="#BFBEBE" stop-opacity="0.71"/>
<stop offset="0.739583" stop-color="#F6F6F6" stop-opacity="0.820075"/>
<stop offset="1" stop-color="white"/>
</radialGradient>
<radialGradient id="paint1_radial_30_333" cx="0" cy="0" r="1" gradientUnits="userSpaceOnUse" gradientTransform="translate(145.164 83.8584) rotate(90) scale(17.9111)">
<stop offset="0.171875" stop-color="#BFBEBE" stop-opacity="0.71"/>
<stop offset="0.739583" stop-color="#F6F6F6" stop-opacity="0.820075"/>
<stop offset="1" stop-color="white"/>
</radialGradient>
<radialGradient id="paint2_radial_30_333" cx="0" cy="0" r="1" gradientUnits="userSpaceOnUse" gradientTransform="translate(181.265 83.8584) rotate(90) scale(17.9111)">
<stop offset="0.171875" stop-color="#BFBEBE" stop-opacity="0.71"/>
<stop offset="0.739583" stop-color="#F6F6F6" stop-opacity="0.820075"/>
<stop offset="1" stop-color="white"/>
</radialGradient>
<radialGradient id="paint3_radial_30_333" cx="0" cy="0" r="1" gradientUnits="userSpaceOnUse" gradientTransform="translate(72.9622 83.8584) rotate(90) scale(17.9111)">
<stop offset="0.171875" stop-color="#BFBEBE" stop-opacity="0.71"/>
<stop offset="0.739583" stop-color="#F6F6F6" stop-opacity="0.820075"/>
<stop offset="1" stop-color="white"/>
</radialGradient>
<radialGradient id="paint4_radial_30_333" cx="0" cy="0" r="1" gradientUnits="userSpaceOnUse" gradientTransform="translate(36.8611 83.8584) rotate(90) scale(17.9111)">
<stop offset="0.171875" stop-color="#BFBEBE" stop-opacity="0.71"/>
<stop offset="0.739583" stop-color="#F6F6F6" stop-opacity="0.820075"/>
<stop offset="1" stop-color="white"/>
</radialGradient>
<radialGradient id="paint5_radial_30_333" cx="0" cy="0" r="1" gradientUnits="userSpaceOnUse" gradientTransform="translate(0.759533 83.8584) rotate(90) scale(17.9111)">
<stop offset="0.171875" stop-color="#BFBEBE" stop-opacity="0.71"/>
<stop offset="0.739583" stop-color="#F6F6F6" stop-opacity="0.820075"/>
<stop offset="1" stop-color="white"/>
</radialGradient>
<radialGradient id="paint6_radial_30_333" cx="0" cy="0" r="1" gradientUnits="userSpaceOnUse" gradientTransform="translate(109.063 208.811) rotate(90) scale(17.9111)">
<stop offset="0.171875" stop-color="#BFBEBE" stop-opacity="0.71"/>
<stop offset="0.739583" stop-color="#F6F6F6" stop-opacity="0.820075"/>
<stop offset="1" stop-color="white"/>
</radialGradient>
<radialGradient id="paint7_radial_30_333" cx="0" cy="0" r="1" gradientUnits="userSpaceOnUse" gradientTransform="translate(145.164 208.811) rotate(90) scale(17.9111)">
<stop offset="0.171875" stop-color="#BFBEBE" stop-opacity="0.71"/>
<stop offset="0.739583" stop-color="#F6F6F6" stop-opacity="0.820075"/>
<stop offset="1" stop-color="white"/>
</radialGradient>
<radialGradient id="paint8_radial_30_333" cx="0" cy="0" r="1" gradientUnits="userSpaceOnUse" gradientTransform="translate(181.265 208.811) rotate(90) scale(17.9111)">
<stop offset="0.171875" stop-color="#BFBEBE" stop-opacity="0.71"/>
<stop offset="0.739583" stop-color="#F6F6F6" stop-opacity="0.820075"/>
<stop offset="1" stop-color="white"/>
</radialGradient>
<radialGradient id="paint9_radial_30_333" cx="0" cy="0" r="1" gradientUnits="userSpaceOnUse" gradientTransform="translate(72.9622 208.811) rotate(90) scale(17.9111)">
<stop offset="0.171875" stop-color="#BFBEBE" stop-opacity="0.71"/>
<stop offset="0.739583" stop-color="#F6F6F6" stop-opacity="0.820075"/>
<stop offset="1" stop-color="white"/>
</radialGradient>
<radialGradient id="paint10_radial_30_333" cx="0" cy="0" r="1" gradientUnits="userSpaceOnUse" gradientTransform="translate(36.8611 208.811) rotate(90) scale(17.9111)">
<stop offset="0.171875" stop-color="#BFBEBE" stop-opacity="0.71"/>
<stop offset="0.739583" stop-color="#F6F6F6" stop-opacity="0.820075"/>
<stop offset="1" stop-color="white"/>
</radialGradient>
<radialGradient id="paint11_radial_30_333" cx="0" cy="0" r="1" gradientUnits="userSpaceOnUse" gradientTransform="translate(0.759533 208.811) rotate(90) scale(17.9111)">
<stop offset="0.171875" stop-color="#BFBEBE" stop-opacity="0.71"/>
<stop offset="0.739583" stop-color="#F6F6F6" stop-opacity="0.820075"/>
<stop offset="1" stop-color="white"/>
</radialGradient>
<radialGradient id="paint12_radial_30_333" cx="0" cy="0" r="1" gradientUnits="userSpaceOnUse" gradientTransform="translate(109.063 146.334) rotate(90) scale(17.9111)">
<stop offset="0.171875" stop-color="#BFBEBE" stop-opacity="0.71"/>
<stop offset="0.739583" stop-color="#F6F6F6" stop-opacity="0.820075"/>
<stop offset="1" stop-color="white"/>
</radialGradient>
<radialGradient id="paint13_radial_30_333" cx="0" cy="0" r="1" gradientUnits="userSpaceOnUse" gradientTransform="translate(145.164 146.334) rotate(90) scale(17.9111)">
<stop offset="0.171875" stop-color="#BFBEBE" stop-opacity="0.71"/>
<stop offset="0.739583" stop-color="#F6F6F6" stop-opacity="0.820075"/>
<stop offset="1" stop-color="white"/>
</radialGradient>
<radialGradient id="paint14_radial_30_333" cx="0" cy="0" r="1" gradientUnits="userSpaceOnUse" gradientTransform="translate(181.265 146.334) rotate(90) scale(17.9111)">
<stop offset="0.171875" stop-color="#BFBEBE" stop-opacity="0.71"/>
<stop offset="0.739583" stop-color="#F6F6F6" stop-opacity="0.820075"/>
<stop offset="1" stop-color="white"/>
</radialGradient>
<radialGradient id="paint15_radial_30_333" cx="0" cy="0" r="1" gradientUnits="userSpaceOnUse" gradientTransform="translate(72.9622 146.334) rotate(90) scale(17.9111)">
<stop offset="0.171875" stop-color="#BFBEBE" stop-opacity="0.71"/>
<stop offset="0.739583" stop-color="#F6F6F6" stop-opacity="0.820075"/>
<stop offset="1" stop-color="white"/>
</radialGradient>
<radialGradient id="paint16_radial_30_333" cx="0" cy="0" r="1" gradientUnits="userSpaceOnUse" gradientTransform="translate(36.8611 146.334) rotate(90) scale(17.9111)">
<stop offset="0.171875" stop-color="#BFBEBE" stop-opacity="0.71"/>
<stop offset="0.739583" stop-color="#F6F6F6" stop-opacity="0.820075"/>
<stop offset="1" stop-color="white"/>
</radialGradient>
<radialGradient id="paint17_radial_30_333" cx="0" cy="0" r="1" gradientUnits="userSpaceOnUse" gradientTransform="translate(0.759533 146.334) rotate(90) scale(17.9111)">
<stop offset="0.171875" stop-color="#BFBEBE" stop-opacity="0.71"/>
<stop offset="0.739583" stop-color="#F6F6F6" stop-opacity="0.820075"/>
<stop offset="1" stop-color="white"/>
</radialGradient>
<radialGradient id="paint18_radial_30_333" cx="0" cy="0" r="1" gradientUnits="userSpaceOnUse" gradientTransform="translate(91.1514 114.99) rotate(90) scale(17.9111)">
<stop offset="0.171875" stop-color="#BFBEBE" stop-opacity="0.71"/>
<stop offset="0.739583" stop-color="#F6F6F6" stop-opacity="0.820075"/>
<stop offset="1" stop-color="white"/>
</radialGradient>
<radialGradient id="paint19_radial_30_333" cx="0" cy="0" r="1" gradientUnits="userSpaceOnUse" gradientTransform="translate(91.1514 52.5078) rotate(90) scale(17.9111)">
<stop offset="0.171875" stop-color="#BFBEBE" stop-opacity="0.71"/>
<stop offset="0.739583" stop-color="#F6F6F6" stop-opacity="0.820075"/>
<stop offset="1" stop-color="white"/>
</radialGradient>
<radialGradient id="paint20_radial_30_333" cx="0" cy="0" r="1" gradientUnits="userSpaceOnUse" gradientTransform="translate(127.253 114.99) rotate(90) scale(17.9111)">
<stop offset="0.171875" stop-color="#BFBEBE" stop-opacity="0.71"/>
<stop offset="0.739583" stop-color="#F6F6F6" stop-opacity="0.820075"/>
<stop offset="1" stop-color="white"/>
</radialGradient>
<radialGradient id="paint21_radial_30_333" cx="0" cy="0" r="1" gradientUnits="userSpaceOnUse" gradientTransform="translate(127.253 52.5078) rotate(90) scale(17.9111)">
<stop offset="0.171875" stop-color="#BFBEBE" stop-opacity="0.71"/>
<stop offset="0.739583" stop-color="#F6F6F6" stop-opacity="0.820075"/>
<stop offset="1" stop-color="white"/>
</radialGradient>
<radialGradient id="paint22_radial_30_333" cx="0" cy="0" r="1" gradientUnits="userSpaceOnUse" gradientTransform="translate(163.354 114.99) rotate(90) scale(17.9111)">
<stop offset="0.171875" stop-color="#BFBEBE" stop-opacity="0.71"/>
<stop offset="0.739583" stop-color="#F6F6F6" stop-opacity="0.820075"/>
<stop offset="1" stop-color="white"/>
</radialGradient>
<radialGradient id="paint23_radial_30_333" cx="0" cy="0" r="1" gradientUnits="userSpaceOnUse" gradientTransform="translate(163.354 52.5078) rotate(90) scale(17.9111)">
<stop offset="0.171875" stop-color="#BFBEBE" stop-opacity="0.71"/>
<stop offset="0.739583" stop-color="#F6F6F6" stop-opacity="0.820075"/>
<stop offset="1" stop-color="white"/>
</radialGradient>
<radialGradient id="paint24_radial_30_333" cx="0" cy="0" r="1" gradientUnits="userSpaceOnUse" gradientTransform="translate(55.0503 114.99) rotate(90) scale(17.9111)">
<stop offset="0.171875" stop-color="#BFBEBE" stop-opacity="0.71"/>
<stop offset="0.739583" stop-color="#F6F6F6" stop-opacity="0.820075"/>
<stop offset="1" stop-color="white"/>
</radialGradient>
<radialGradient id="paint25_radial_30_333" cx="0" cy="0" r="1" gradientUnits="userSpaceOnUse" gradientTransform="translate(55.0503 52.5078) rotate(90) scale(17.9111)">
<stop offset="0.171875" stop-color="#BFBEBE" stop-opacity="0.71"/>
<stop offset="0.739583" stop-color="#F6F6F6" stop-opacity="0.820075"/>
<stop offset="1" stop-color="white"/>
</radialGradient>
<radialGradient id="paint26_radial_30_333" cx="0" cy="0" r="1" gradientUnits="userSpaceOnUse" gradientTransform="translate(18.9492 114.99) rotate(90) scale(17.9111)">
<stop offset="0.171875" stop-color="#BFBEBE" stop-opacity="0.71"/>
<stop offset="0.739583" stop-color="#F6F6F6" stop-opacity="0.820075"/>
<stop offset="1" stop-color="white"/>
</radialGradient>
<radialGradient id="paint27_radial_30_333" cx="0" cy="0" r="1" gradientUnits="userSpaceOnUse" gradientTransform="translate(18.9492 52.5078) rotate(90) scale(17.9111)">
<stop offset="0.171875" stop-color="#BFBEBE" stop-opacity="0.71"/>
<stop offset="0.739583" stop-color="#F6F6F6" stop-opacity="0.820075"/>
<stop offset="1" stop-color="white"/>
</radialGradient>
<radialGradient id="paint28_radial_30_333" cx="0" cy="0" r="1" gradientUnits="userSpaceOnUse" gradientTransform="translate(-17.1511 114.99) rotate(90) scale(17.9111)">
<stop offset="0.171875" stop-color="#BFBEBE" stop-opacity="0.71"/>
<stop offset="0.739583" stop-color="#F6F6F6" stop-opacity="0.820075"/>
<stop offset="1" stop-color="white"/>
</radialGradient>
<radialGradient id="paint29_radial_30_333" cx="0" cy="0" r="1" gradientUnits="userSpaceOnUse" gradientTransform="translate(-17.1511 52.5078) rotate(90) scale(17.9111)">
<stop offset="0.171875" stop-color="#BFBEBE" stop-opacity="0.71"/>
<stop offset="0.739583" stop-color="#F6F6F6" stop-opacity="0.820075"/>
<stop offset="1" stop-color="white"/>
</radialGradient>
<radialGradient id="paint30_radial_30_333" cx="0" cy="0" r="1" gradientUnits="userSpaceOnUse" gradientTransform="translate(91.1514 239.941) rotate(90) scale(17.9111)">
<stop offset="0.171875" stop-color="#BFBEBE" stop-opacity="0.71"/>
<stop offset="0.739583" stop-color="#F6F6F6" stop-opacity="0.820075"/>
<stop offset="1" stop-color="white"/>
</radialGradient>
<radialGradient id="paint31_radial_30_333" cx="0" cy="0" r="1" gradientUnits="userSpaceOnUse" gradientTransform="translate(109.202 271.014) rotate(90) scale(17.9111)">
<stop offset="0.171875" stop-color="#BFBEBE" stop-opacity="0.71"/>
<stop offset="0.739583" stop-color="#F6F6F6" stop-opacity="0.820075"/>
<stop offset="1" stop-color="white"/>
</radialGradient>
<radialGradient id="paint32_radial_30_333" cx="0" cy="0" r="1" gradientUnits="userSpaceOnUse" gradientTransform="translate(127.253 239.941) rotate(90) scale(17.9111)">
<stop offset="0.171875" stop-color="#BFBEBE" stop-opacity="0.71"/>
<stop offset="0.739583" stop-color="#F6F6F6" stop-opacity="0.820075"/>
<stop offset="1" stop-color="white"/>
</radialGradient>
<radialGradient id="paint33_radial_30_333" cx="0" cy="0" r="1" gradientUnits="userSpaceOnUse" gradientTransform="translate(145.303 271.014) rotate(90) scale(17.9111)">
<stop offset="0.171875" stop-color="#BFBEBE" stop-opacity="0.71"/>
<stop offset="0.739583" stop-color="#F6F6F6" stop-opacity="0.820075"/>
<stop offset="1" stop-color="white"/>
</radialGradient>
<radialGradient id="paint34_radial_30_333" cx="0" cy="0" r="1" gradientUnits="userSpaceOnUse" gradientTransform="translate(163.354 239.941) rotate(90) scale(17.9111)">
<stop offset="0.171875" stop-color="#BFBEBE" stop-opacity="0.71"/>
<stop offset="0.739583" stop-color="#F6F6F6" stop-opacity="0.820075"/>
<stop offset="1" stop-color="white"/>
</radialGradient>
<radialGradient id="paint35_radial_30_333" cx="0" cy="0" r="1" gradientUnits="userSpaceOnUse" gradientTransform="translate(181.404 271.014) rotate(90) scale(17.9111)">
<stop offset="0.171875" stop-color="#BFBEBE" stop-opacity="0.71"/>
<stop offset="0.739583" stop-color="#F6F6F6" stop-opacity="0.820075"/>
<stop offset="1" stop-color="white"/>
</radialGradient>
<radialGradient id="paint36_radial_30_333" cx="0" cy="0" r="1" gradientUnits="userSpaceOnUse" gradientTransform="translate(55.0503 239.941) rotate(90) scale(17.9111)">
<stop offset="0.171875" stop-color="#BFBEBE" stop-opacity="0.71"/>
<stop offset="0.739583" stop-color="#F6F6F6" stop-opacity="0.820075"/>
<stop offset="1" stop-color="white"/>
</radialGradient>
<radialGradient id="paint37_radial_30_333" cx="0" cy="0" r="1" gradientUnits="userSpaceOnUse" gradientTransform="translate(73.1008 271.014) rotate(90) scale(17.9111)">
<stop offset="0.171875" stop-color="#BFBEBE" stop-opacity="0.71"/>
<stop offset="0.739583" stop-color="#F6F6F6" stop-opacity="0.820075"/>
<stop offset="1" stop-color="white"/>
</radialGradient>
<radialGradient id="paint38_radial_30_333" cx="0" cy="0" r="1" gradientUnits="userSpaceOnUse" gradientTransform="translate(18.9492 239.941) rotate(90) scale(17.9111)">
<stop offset="0.171875" stop-color="#BFBEBE" stop-opacity="0.71"/>
<stop offset="0.739583" stop-color="#F6F6F6" stop-opacity="0.820075"/>
<stop offset="1" stop-color="white"/>
</radialGradient>
<radialGradient id="paint39_radial_30_333" cx="0" cy="0" r="1" gradientUnits="userSpaceOnUse" gradientTransform="translate(36.9998 271.014) rotate(90) scale(17.9111)">
<stop offset="0.171875" stop-color="#BFBEBE" stop-opacity="0.71"/>
<stop offset="0.739583" stop-color="#F6F6F6" stop-opacity="0.820075"/>
<stop offset="1" stop-color="white"/>
</radialGradient>
<radialGradient id="paint40_radial_30_333" cx="0" cy="0" r="1" gradientUnits="userSpaceOnUse" gradientTransform="translate(-17.1511 239.941) rotate(90) scale(17.9111)">
<stop offset="0.171875" stop-color="#BFBEBE" stop-opacity="0.71"/>
<stop offset="0.739583" stop-color="#F6F6F6" stop-opacity="0.820075"/>
<stop offset="1" stop-color="white"/>
</radialGradient>
<radialGradient id="paint41_radial_30_333" cx="0" cy="0" r="1" gradientUnits="userSpaceOnUse" gradientTransform="translate(0.898693 271.014) rotate(90) scale(17.9111)">
<stop offset="0.171875" stop-color="#BFBEBE" stop-opacity="0.71"/>
<stop offset="0.739583" stop-color="#F6F6F6" stop-opacity="0.820075"/>
<stop offset="1" stop-color="white"/>
</radialGradient>
<radialGradient id="paint42_radial_30_333" cx="0" cy="0" r="1" gradientUnits="userSpaceOnUse" gradientTransform="translate(91.1514 177.466) rotate(90) scale(17.9111)">
<stop offset="0.171875" stop-color="#BFBEBE" stop-opacity="0.71"/>
<stop offset="0.739583" stop-color="#F6F6F6" stop-opacity="0.820075"/>
<stop offset="1" stop-color="white"/>
</radialGradient>
<radialGradient id="paint43_radial_30_333" cx="0" cy="0" r="1" gradientUnits="userSpaceOnUse" gradientTransform="translate(127.253 177.466) rotate(90) scale(17.9111)">
<stop offset="0.171875" stop-color="#BFBEBE" stop-opacity="0.71"/>
<stop offset="0.739583" stop-color="#F6F6F6" stop-opacity="0.820075"/>
<stop offset="1" stop-color="white"/>
</radialGradient>
<radialGradient id="paint44_radial_30_333" cx="0" cy="0" r="1" gradientUnits="userSpaceOnUse" gradientTransform="translate(163.354 177.466) rotate(90) scale(17.9111)">
<stop offset="0.171875" stop-color="#BFBEBE" stop-opacity="0.71"/>
<stop offset="0.739583" stop-color="#F6F6F6" stop-opacity="0.820075"/>
<stop offset="1" stop-color="white"/>
</radialGradient>
<radialGradient id="paint45_radial_30_333" cx="0" cy="0" r="1" gradientUnits="userSpaceOnUse" gradientTransform="translate(55.0503 177.466) rotate(90) scale(17.9111)">
<stop offset="0.171875" stop-color="#BFBEBE" stop-opacity="0.71"/>
<stop offset="0.739583" stop-color="#F6F6F6" stop-opacity="0.820075"/>
<stop offset="1" stop-color="white"/>
</radialGradient>
<radialGradient id="paint46_radial_30_333" cx="0" cy="0" r="1" gradientUnits="userSpaceOnUse" gradientTransform="translate(18.9492 177.466) rotate(90) scale(17.9111)">
<stop offset="0.171875" stop-color="#BFBEBE" stop-opacity="0.71"/>
<stop offset="0.739583" stop-color="#F6F6F6" stop-opacity="0.820075"/>
<stop offset="1" stop-color="white"/>
</radialGradient>
<radialGradient id="paint47_radial_30_333" cx="0" cy="0" r="1" gradientUnits="userSpaceOnUse" gradientTransform="translate(-17.1511 177.466) rotate(90) scale(17.9111)">
<stop offset="0.171875" stop-color="#BFBEBE" stop-opacity="0.71"/>
<stop offset="0.739583" stop-color="#F6F6F6" stop-opacity="0.820075"/>
<stop offset="1" stop-color="white"/>
</radialGradient>
<linearGradient id="paint48_linear_30_333" x1="158" y1="113" x2="218" y2="113" gradientUnits="userSpaceOnUse">
<stop stop-color="#158D44"/>
<stop offset="0.791667" stop-color="white" stop-opacity="0.5"/>
</linearGradient>
<linearGradient id="paint49_linear_30_333" x1="341.5" y1="9" x2="307" y2="115" gradientUnits="userSpaceOnUse">
<stop offset="0.0721754" stop-color="#158D44"/>
<stop offset="1" stop-color="#D2E5F3"/>
</linearGradient>
<radialGradient id="paint50_radial_30_333" cx="0" cy="0" r="1" gradientUnits="userSpaceOnUse" gradientTransform="translate(342.056 84.4876) rotate(130.515) scale(120.77)">
<stop stop-color="#D2F7E5"/>
<stop offset="1" stop-color="#A8D1E3"/>
</radialGradient>
<radialGradient id="paint51_radial_30_333" cx="0" cy="0" r="1" gradientUnits="userSpaceOnUse" gradientTransform="translate(307 115) rotate(90) scale(115)">
<stop offset="0.197917" stop-color="#FCFCFC"/>
<stop offset="0.786458" stop-color="#BEBEBE"/>
<stop offset="1" stop-color="#9C9C9C"/>
</radialGradient>
</defs>
</svg>
