<svg width="163" height="163" viewBox="0 0 163 163" fill="none" xmlns="http://www.w3.org/2000/svg">
<circle cx="81.5781" cy="81.8428" r="81" fill="url(#paint0_radial_30_148)"/>
<circle cx="81.5781" cy="81.8427" r="70.4348" fill="url(#paint1_radial_30_148)"/>
<path d="M162.578 81.8428C162.578 95.1633 159.293 108.278 153.014 120.026C146.734 131.774 137.655 141.791 126.579 149.192C115.504 156.592 102.774 161.147 89.5175 162.453C76.2611 163.758 62.8873 161.775 50.5808 156.677C38.2742 151.579 27.4147 143.526 18.9643 133.229C10.5138 122.932 4.73322 110.71 2.13452 97.6451C-0.46419 84.5805 0.199214 71.0767 4.06596 58.3297C7.93271 45.5828 14.8834 33.9862 24.3025 24.5671L81.5781 81.8428H162.578Z" fill="url(#paint2_radial_30_148)"/>
<defs>
<radialGradient id="paint0_radial_30_148" cx="0" cy="0" r="1" gradientUnits="userSpaceOnUse" gradientTransform="translate(81.5781 81.8428) rotate(90) scale(81)">
<stop offset="0.46875" stop-color="white"/>
<stop offset="1" stop-color="#92999C"/>
</radialGradient>
<radialGradient id="paint1_radial_30_148" cx="0" cy="0" r="1" gradientUnits="userSpaceOnUse" gradientTransform="translate(106.27 60.3514) rotate(130.515) scale(85.0642)">
<stop stop-color="#D2F7E5"/>
<stop offset="1" stop-color="#A8D1E3"/>
</radialGradient>
<radialGradient id="paint2_radial_30_148" cx="0" cy="0" r="1" gradientUnits="userSpaceOnUse" gradientTransform="translate(81.5781 81.8428) rotate(90) scale(81)">
<stop offset="0.197917" stop-color="#FCFCFC"/>
<stop offset="0.786458" stop-color="#BEBEBE"/>
<stop offset="1" stop-color="#9C9C9C"/>
</radialGradient>
</defs>
</svg>
