<svg width="396" height="275" viewBox="0 0 396 275" fill="none" xmlns="http://www.w3.org/2000/svg">
<mask id="mask0_32_334" style="mask-type:alpha" maskUnits="userSpaceOnUse" x="0" y="53" width="305" height="222">
<rect x="0.5" y="53.5" width="304" height="221" rx="42.8375" fill="#D9D9D9"/>
</mask>
<g mask="url(#mask0_32_334)">
<circle cx="109.063" cy="87.8587" r="16.9611" fill="url(#paint0_radial_32_334)" stroke="#FCE77A" stroke-width="1.90005"/>
<circle cx="145.164" cy="87.8587" r="16.9611" fill="url(#paint1_radial_32_334)" stroke="#FCE77A" stroke-width="1.90005"/>
<circle cx="181.265" cy="87.8587" r="16.9611" fill="url(#paint2_radial_32_334)" stroke="#FCE77A" stroke-width="1.90005"/>
<circle cx="72.9619" cy="87.8587" r="16.9611" fill="url(#paint3_radial_32_334)" stroke="#FCE77A" stroke-width="1.90005"/>
<circle cx="36.8609" cy="87.8587" r="16.9611" fill="url(#paint4_radial_32_334)" stroke="#FCE77A" stroke-width="1.90005"/>
<circle cx="0.759777" cy="87.8587" r="16.9611" fill="url(#paint5_radial_32_334)" stroke="#FCE77A" stroke-width="1.90005"/>
<circle cx="109.063" cy="212.811" r="16.9611" fill="url(#paint6_radial_32_334)" stroke="#FCE77A" stroke-width="1.90005"/>
<circle cx="145.164" cy="212.811" r="16.9611" fill="url(#paint7_radial_32_334)" stroke="#FCE77A" stroke-width="1.90005"/>
<circle cx="181.265" cy="212.811" r="16.9611" fill="url(#paint8_radial_32_334)" stroke="#FCE77A" stroke-width="1.90005"/>
<circle cx="72.9619" cy="212.811" r="16.9611" fill="url(#paint9_radial_32_334)" stroke="#FCE77A" stroke-width="1.90005"/>
<circle cx="36.8609" cy="212.811" r="16.9611" fill="url(#paint10_radial_32_334)" stroke="#FCE77A" stroke-width="1.90005"/>
<circle cx="0.759777" cy="212.811" r="16.9611" fill="url(#paint11_radial_32_334)" stroke="#FCE77A" stroke-width="1.90005"/>
<circle cx="109.063" cy="150.334" r="16.9611" fill="url(#paint12_radial_32_334)" stroke="#FCE77A" stroke-width="1.90005"/>
<circle cx="145.164" cy="150.334" r="16.9611" fill="url(#paint13_radial_32_334)" stroke="#FCE77A" stroke-width="1.90005"/>
<circle cx="181.265" cy="150.334" r="16.9611" fill="url(#paint14_radial_32_334)" stroke="#FCE77A" stroke-width="1.90005"/>
<circle cx="72.9619" cy="150.334" r="16.9611" fill="url(#paint15_radial_32_334)" stroke="#FCE77A" stroke-width="1.90005"/>
<circle cx="36.8609" cy="150.334" r="16.9611" fill="url(#paint16_radial_32_334)" stroke="#FCE77A" stroke-width="1.90005"/>
<circle cx="0.759777" cy="150.334" r="16.9611" fill="url(#paint17_radial_32_334)" stroke="#FCE77A" stroke-width="1.90005"/>
<circle cx="91.1514" cy="118.99" r="16.9611" fill="url(#paint18_radial_32_334)" stroke="#FCE77A" stroke-width="1.90005"/>
<circle cx="91.1514" cy="56.5079" r="16.9611" fill="url(#paint19_radial_32_334)" stroke="#FCE77A" stroke-width="1.90005"/>
<circle cx="127.253" cy="118.99" r="16.9611" fill="url(#paint20_radial_32_334)" stroke="#FCE77A" stroke-width="1.90005"/>
<circle cx="127.253" cy="56.5079" r="16.9611" fill="url(#paint21_radial_32_334)" stroke="#FCE77A" stroke-width="1.90005"/>
<circle cx="163.354" cy="118.99" r="16.9611" fill="url(#paint22_radial_32_334)" stroke="#FCE77A" stroke-width="1.90005"/>
<circle cx="163.354" cy="56.5079" r="16.9611" fill="url(#paint23_radial_32_334)" stroke="#FCE77A" stroke-width="1.90005"/>
<circle cx="55.0503" cy="118.99" r="16.9611" fill="url(#paint24_radial_32_334)" stroke="#FCE77A" stroke-width="1.90005"/>
<circle cx="55.0503" cy="56.5079" r="16.9611" fill="url(#paint25_radial_32_334)" stroke="#FCE77A" stroke-width="1.90005"/>
<circle cx="18.9492" cy="118.99" r="16.9611" fill="url(#paint26_radial_32_334)" stroke="#FCE77A" stroke-width="1.90005"/>
<circle cx="18.9492" cy="56.5079" r="16.9611" fill="url(#paint27_radial_32_334)" stroke="#FCE77A" stroke-width="1.90005"/>
<circle cx="-17.1514" cy="118.99" r="16.9611" fill="url(#paint28_radial_32_334)" stroke="#FCE77A" stroke-width="1.90005"/>
<circle cx="-17.1514" cy="56.5079" r="16.9611" fill="url(#paint29_radial_32_334)" stroke="#FCE77A" stroke-width="1.90005"/>
<circle cx="91.1514" cy="243.942" r="16.9611" fill="url(#paint30_radial_32_334)" stroke="#FCE77A" stroke-width="1.90005"/>
<circle cx="109.202" cy="275.014" r="16.9611" fill="url(#paint31_radial_32_334)" stroke="#FCE77A" stroke-width="1.90005"/>
<circle cx="127.253" cy="243.942" r="16.9611" fill="url(#paint32_radial_32_334)" stroke="#FCE77A" stroke-width="1.90005"/>
<circle cx="145.303" cy="275.014" r="16.9611" fill="url(#paint33_radial_32_334)" stroke="#FCE77A" stroke-width="1.90005"/>
<circle cx="163.354" cy="243.942" r="16.9611" fill="url(#paint34_radial_32_334)" stroke="#FCE77A" stroke-width="1.90005"/>
<circle cx="181.404" cy="275.014" r="16.9611" fill="url(#paint35_radial_32_334)" stroke="#FCE77A" stroke-width="1.90005"/>
<circle cx="55.0503" cy="243.942" r="16.9611" fill="url(#paint36_radial_32_334)" stroke="#FCE77A" stroke-width="1.90005"/>
<circle cx="73.1006" cy="275.014" r="16.9611" fill="url(#paint37_radial_32_334)" stroke="#FCE77A" stroke-width="1.90005"/>
<circle cx="18.9492" cy="243.942" r="16.9611" fill="url(#paint38_radial_32_334)" stroke="#FCE77A" stroke-width="1.90005"/>
<circle cx="37" cy="275.014" r="16.9611" fill="url(#paint39_radial_32_334)" stroke="#FCE77A" stroke-width="1.90005"/>
<circle cx="-17.1514" cy="243.942" r="16.9611" fill="url(#paint40_radial_32_334)" stroke="#FCE77A" stroke-width="1.90005"/>
<circle cx="0.898937" cy="275.014" r="16.9611" fill="url(#paint41_radial_32_334)" stroke="#FCE77A" stroke-width="1.90005"/>
<circle cx="91.1514" cy="181.466" r="16.9611" fill="url(#paint42_radial_32_334)" stroke="#FCE77A" stroke-width="1.90005"/>
<circle cx="127.253" cy="181.466" r="16.9611" fill="url(#paint43_radial_32_334)" stroke="#FCE77A" stroke-width="1.90005"/>
<circle cx="163.354" cy="181.466" r="16.9611" fill="url(#paint44_radial_32_334)" stroke="#FCE77A" stroke-width="1.90005"/>
<circle cx="55.0503" cy="181.466" r="16.9611" fill="url(#paint45_radial_32_334)" stroke="#FCE77A" stroke-width="1.90005"/>
<circle cx="18.9492" cy="181.466" r="16.9611" fill="url(#paint46_radial_32_334)" stroke="#FCE77A" stroke-width="1.90005"/>
<circle cx="-17.1514" cy="181.466" r="16.9611" fill="url(#paint47_radial_32_334)" stroke="#FCE77A" stroke-width="1.90005"/>
</g>
<g filter="url(#filter0_d_32_334)">
<path d="M108 117L153 71.1007L153 162.899L108 117Z" fill="url(#paint48_linear_32_334)"/>
<circle cx="262" cy="119.5" r="119" fill="url(#paint49_radial_32_334)"/>
<path d="M373.314 118.348C373.314 146.929 362.353 174.423 342.689 195.165C323.025 215.907 296.155 228.319 267.614 229.843C239.073 231.368 211.035 221.889 189.273 203.359C167.512 184.83 153.685 158.66 150.64 130.241C147.596 101.822 155.565 73.3176 172.908 50.5988C190.251 27.88 215.645 12.677 243.862 8.12108C272.078 3.56518 300.967 10.0034 324.578 26.1096C348.19 42.2158 364.725 66.7635 370.78 94.6965L261.659 118.348H373.314Z" fill="url(#paint50_radial_32_334)"/>
<path d="M365.478 119.5C365.478 145.989 355.32 171.469 337.096 190.692C318.872 209.916 293.97 221.418 267.519 222.831C241.068 224.244 215.082 215.459 194.914 198.286C174.746 181.114 161.932 156.86 159.11 130.522C156.289 104.184 163.675 77.7672 179.748 56.712C195.82 35.6569 219.355 21.5671 245.505 17.3448C271.655 13.1225 298.429 19.0892 320.311 34.016C342.194 48.9428 357.519 71.693 363.13 97.5806L262 119.5H365.478Z" fill="url(#paint51_radial_32_334)"/>
<path d="M328.95 30.7177C343.602 41.7837 355.299 56.2925 363.005 72.959C370.711 89.6254 374.188 107.935 373.127 126.266C372.067 144.597 366.502 162.384 356.925 178.05C347.349 193.717 334.056 206.78 318.225 216.082C302.394 225.384 284.514 230.639 266.167 231.38C247.82 232.122 229.574 228.327 213.044 220.332C196.514 212.337 182.211 200.389 171.402 185.546C160.593 170.703 153.611 153.424 151.075 135.238L261.659 119.817L328.95 30.7177Z" fill="url(#paint52_radial_32_334)"/>
<path d="M381 119.5C381 139.07 376.174 158.337 366.949 175.596C357.724 192.855 344.384 207.573 328.113 218.445C311.841 229.317 293.139 236.009 273.664 237.927C254.189 239.845 234.541 236.931 216.461 229.442C198.381 221.953 182.427 210.12 170.012 194.993C157.597 179.865 149.104 161.909 145.287 142.716C141.469 123.522 142.443 103.683 148.124 84.9561C153.805 66.2291 164.016 49.1921 177.854 35.3543L262 119.5H381Z" fill="url(#paint53_radial_32_334)"/>
<path d="M220.235 56.4219V46.6696H223.53C224.295 46.6696 224.921 46.8077 225.407 47.0839C225.895 47.3569 226.257 47.7267 226.492 48.1934C226.727 48.6601 226.845 49.1807 226.845 49.7553C226.845 50.3299 226.727 50.8521 226.492 51.3219C226.26 51.7918 225.902 52.1664 225.416 52.4457C224.93 52.7219 224.308 52.86 223.549 52.86H221.188V51.8124H223.511C224.035 51.8124 224.456 51.7219 224.773 51.541C225.091 51.36 225.321 51.1156 225.464 50.8077C225.61 50.4965 225.683 50.1458 225.683 49.7553C225.683 49.3648 225.61 49.0156 225.464 48.7077C225.321 48.3997 225.089 48.1585 224.768 47.9839C224.448 47.8061 224.022 47.7172 223.492 47.7172H221.416V56.4219H220.235ZM231.487 56.5743C230.827 56.5743 230.248 56.4171 229.749 56.1028C229.254 55.7885 228.867 55.3489 228.587 54.7838C228.311 54.2187 228.173 53.5584 228.173 52.8029C228.173 52.041 228.311 51.3759 228.587 50.8077C228.867 50.2394 229.254 49.7981 229.749 49.4839C230.248 49.1696 230.827 49.0124 231.487 49.0124C232.148 49.0124 232.725 49.1696 233.221 49.4839C233.719 49.7981 234.106 50.2394 234.383 50.8077C234.662 51.3759 234.802 52.041 234.802 52.8029C234.802 53.5584 234.662 54.2187 234.383 54.7838C234.106 55.3489 233.719 55.7885 233.221 56.1028C232.725 56.4171 232.148 56.5743 231.487 56.5743ZM231.487 55.5647C231.989 55.5647 232.402 55.4362 232.725 55.179C233.049 54.9219 233.289 54.5838 233.445 54.1648C233.6 53.7457 233.678 53.2918 233.678 52.8029C233.678 52.314 233.6 51.8584 233.445 51.4362C233.289 51.014 233.049 50.6727 232.725 50.4124C232.402 50.1521 231.989 50.0219 231.487 50.0219C230.986 50.0219 230.573 50.1521 230.249 50.4124C229.926 50.6727 229.686 51.014 229.53 51.4362C229.375 51.8584 229.297 52.314 229.297 52.8029C229.297 53.2918 229.375 53.7457 229.53 54.1648C229.686 54.5838 229.926 54.9219 230.249 55.179C230.573 55.4362 230.986 55.5647 231.487 55.5647ZM237.641 46.6696V56.4219H236.517V46.6696H237.641ZM240.423 59.1647C240.233 59.1647 240.063 59.1488 239.913 59.1171C239.764 59.0885 239.661 59.0599 239.604 59.0314L239.89 58.0409C240.163 58.1107 240.404 58.1361 240.613 58.1171C240.823 58.098 241.009 58.0044 241.171 57.8361C241.336 57.6711 241.486 57.4028 241.623 57.0314L241.833 56.46L239.128 49.1077H240.347L242.366 54.9362H242.442L244.461 49.1077H245.68L242.575 57.4885C242.436 57.8663 242.263 58.179 242.056 58.4266C241.85 58.6774 241.61 58.8631 241.337 58.9838C241.067 59.1044 240.763 59.1647 240.423 59.1647ZM247.163 56.4219V49.1077H248.249V50.2505H248.344C248.497 49.86 248.743 49.5569 249.082 49.341C249.422 49.122 249.83 49.0124 250.306 49.0124C250.789 49.0124 251.19 49.122 251.511 49.341C251.835 49.5569 252.087 49.86 252.268 50.2505H252.344C252.532 49.8727 252.813 49.5727 253.187 49.3505C253.562 49.1251 254.011 49.0124 254.535 49.0124C255.189 49.0124 255.724 49.2172 256.139 49.6267C256.555 50.0331 256.763 50.6664 256.763 51.5267V56.4219H255.639V51.5267C255.639 50.987 255.492 50.6013 255.197 50.3696C254.901 50.1378 254.554 50.0219 254.154 50.0219C253.64 50.0219 253.241 50.1775 252.959 50.4886C252.676 50.7965 252.535 51.187 252.535 51.66V56.4219H251.392V51.4124C251.392 50.9965 251.257 50.6616 250.987 50.4077C250.717 50.1505 250.37 50.0219 249.944 50.0219C249.652 50.0219 249.379 50.0997 249.125 50.2553C248.874 50.4108 248.671 50.6267 248.516 50.9029C248.363 51.1759 248.287 51.4918 248.287 51.8505V56.4219H247.163ZM261.885 56.5743C261.18 56.5743 260.572 56.4187 260.061 56.1076C259.553 55.7933 259.161 55.3552 258.885 54.7933C258.612 54.2282 258.475 53.5711 258.475 52.8219C258.475 52.0727 258.612 51.4124 258.885 50.841C259.161 50.2664 259.545 49.8188 260.037 49.4981C260.532 49.1743 261.11 49.0124 261.77 49.0124C262.151 49.0124 262.528 49.0759 262.899 49.2029C263.27 49.3299 263.608 49.5362 263.913 49.822C264.218 50.1045 264.461 50.4791 264.642 50.9457C264.823 51.4124 264.913 51.987 264.913 52.6695V53.1457H259.275V52.1743H263.77C263.77 51.7616 263.688 51.3934 263.523 51.0696C263.361 50.7457 263.129 50.4902 262.828 50.3029C262.529 50.1156 262.177 50.0219 261.77 50.0219C261.323 50.0219 260.935 50.1331 260.608 50.3553C260.285 50.5743 260.035 50.86 259.861 51.2124C259.686 51.5648 259.599 51.9426 259.599 52.3457V52.9933C259.599 53.5457 259.694 54.014 259.885 54.3981C260.078 54.779 260.347 55.0695 260.689 55.2695C261.032 55.4663 261.431 55.5647 261.885 55.5647C262.18 55.5647 262.447 55.5235 262.685 55.4409C262.926 55.3552 263.134 55.2282 263.308 55.06C263.483 54.8886 263.618 54.6759 263.713 54.4219L264.799 54.7267C264.685 55.0949 264.493 55.4187 264.223 55.6981C263.953 55.9743 263.62 56.1901 263.223 56.3457C262.826 56.4981 262.38 56.5743 261.885 56.5743ZM266.623 56.4219V49.1077H267.708V50.2124H267.785C267.918 49.8505 268.159 49.5569 268.508 49.3315C268.858 49.1061 269.251 48.9934 269.689 48.9934C269.772 48.9934 269.875 48.995 269.999 48.9981C270.123 49.0013 270.216 49.0061 270.28 49.0124V50.1553C270.242 50.1458 270.154 50.1315 270.018 50.1124C269.885 50.0902 269.743 50.0791 269.594 50.0791C269.239 50.0791 268.921 50.1537 268.642 50.3029C268.366 50.4489 268.146 50.6521 267.985 50.9124C267.826 51.1696 267.747 51.4632 267.747 51.7934V56.4219H266.623Z" fill="black" fill-opacity="0.8"/>
<path d="M289.672 93.6819V103.434H288.529L283.215 95.7771H283.12V103.434H281.939V93.6819H283.082L288.415 101.358H288.51V93.6819H289.672ZM291.883 103.434V96.12H293.006V103.434H291.883ZM292.454 94.901C292.235 94.901 292.046 94.8264 291.887 94.6772C291.732 94.528 291.654 94.3486 291.654 94.1391C291.654 93.9296 291.732 93.7502 291.887 93.601C292.046 93.4518 292.235 93.3772 292.454 93.3772C292.673 93.3772 292.86 93.4518 293.016 93.601C293.175 93.7502 293.254 93.9296 293.254 94.1391C293.254 94.3486 293.175 94.528 293.016 94.6772C292.86 94.8264 292.673 94.901 292.454 94.901ZM298.036 103.587C297.35 103.587 296.76 103.425 296.265 103.101C295.77 102.777 295.389 102.331 295.122 101.763C294.855 101.195 294.722 100.545 294.722 99.8152C294.722 99.0723 294.858 98.4168 295.131 97.8486C295.408 97.2771 295.792 96.8311 296.284 96.5105C296.779 96.1867 297.357 96.0248 298.017 96.0248C298.531 96.0248 298.995 96.12 299.408 96.3105C299.82 96.5009 300.158 96.7676 300.422 97.1105C300.685 97.4533 300.849 97.8533 300.912 98.3105H299.789C299.703 97.9771 299.512 97.6819 299.217 97.4247C298.925 97.1644 298.531 97.0343 298.036 97.0343C297.598 97.0343 297.214 97.1486 296.884 97.3771C296.557 97.6025 296.301 97.9216 296.117 98.3343C295.936 98.7438 295.846 99.2247 295.846 99.7771C295.846 100.342 295.935 100.834 296.112 101.253C296.293 101.672 296.547 101.998 296.874 102.229C297.204 102.461 297.592 102.577 298.036 102.577C298.328 102.577 298.593 102.526 298.831 102.425C299.07 102.323 299.271 102.177 299.436 101.987C299.601 101.796 299.719 101.568 299.789 101.301H300.912C300.849 101.733 300.692 102.122 300.441 102.468C300.193 102.81 299.865 103.083 299.455 103.287C299.049 103.487 298.576 103.587 298.036 103.587ZM303.603 100.768L303.584 99.3771H303.812L307.012 96.12H308.403L304.993 99.5676H304.898L303.603 100.768ZM302.555 103.434V93.6819H303.679V103.434H302.555ZM307.203 103.434L304.346 99.8152L305.146 99.0343L308.631 103.434H307.203ZM312.615 103.587C311.91 103.587 311.302 103.431 310.791 103.12C310.283 102.806 309.891 102.368 309.615 101.806C309.342 101.241 309.205 100.583 309.205 99.8342C309.205 99.085 309.342 98.4247 309.615 97.8533C309.891 97.2787 310.275 96.8311 310.767 96.5105C311.262 96.1867 311.84 96.0248 312.5 96.0248C312.881 96.0248 313.257 96.0883 313.629 96.2152C314 96.3422 314.338 96.5486 314.643 96.8343C314.948 97.1168 315.191 97.4914 315.372 97.9581C315.553 98.4247 315.643 98.9993 315.643 99.6819V100.158H310.005V99.1866H314.5C314.5 98.7739 314.418 98.4057 314.253 98.0819C314.091 97.7581 313.859 97.5025 313.557 97.3152C313.259 97.1279 312.907 97.0343 312.5 97.0343C312.053 97.0343 311.665 97.1454 311.338 97.3676C311.015 97.5867 310.765 97.8724 310.591 98.2247C310.416 98.5771 310.329 98.9549 310.329 99.3581V100.006C310.329 100.558 310.424 101.026 310.615 101.41C310.808 101.791 311.077 102.082 311.419 102.282C311.762 102.479 312.161 102.577 312.615 102.577C312.91 102.577 313.176 102.536 313.415 102.453C313.656 102.368 313.864 102.241 314.038 102.072C314.213 101.901 314.348 101.688 314.443 101.434L315.529 101.739C315.415 102.107 315.223 102.431 314.953 102.71C314.683 102.987 314.349 103.202 313.953 103.358C313.556 103.51 313.11 103.587 312.615 103.587ZM318.476 93.6819V103.434H317.353V93.6819H318.476ZM320.935 99.32C320.935 98.12 321.09 97.0168 321.401 96.0105C321.716 95.001 322.163 94.0724 322.744 93.2248H323.735C323.506 93.5391 323.292 93.9264 323.092 94.3867C322.895 94.8438 322.722 95.347 322.573 95.8962C322.424 96.4422 322.306 97.0073 322.22 97.5914C322.138 98.1755 322.097 98.7517 322.097 99.32C322.097 100.076 322.17 100.842 322.316 101.62C322.462 102.398 322.659 103.12 322.906 103.787C323.154 104.453 323.43 104.996 323.735 105.415H322.744C322.163 104.568 321.716 103.641 321.401 102.634C321.09 101.625 320.935 100.52 320.935 99.32ZM333.279 93.6819V103.434H332.136L326.822 95.7771H326.726V103.434H325.545V93.6819H326.688L332.022 101.358H332.117V93.6819H333.279ZM335.489 103.434V96.12H336.613V103.434H335.489ZM336.061 94.901C335.842 94.901 335.653 94.8264 335.494 94.6772C335.339 94.528 335.261 94.3486 335.261 94.1391C335.261 93.9296 335.339 93.7502 335.494 93.601C335.653 93.4518 335.842 93.3772 336.061 93.3772C336.28 93.3772 336.467 93.4518 336.623 93.601C336.781 93.7502 336.861 93.9296 336.861 94.1391C336.861 94.3486 336.781 94.528 336.623 94.6772C336.467 94.8264 336.28 94.901 336.061 94.901ZM341.53 99.32C341.53 100.52 341.373 101.625 341.058 102.634C340.747 103.641 340.301 104.568 339.72 105.415H338.73C338.958 105.101 339.171 104.714 339.368 104.253C339.568 103.796 339.742 103.295 339.892 102.748C340.041 102.199 340.157 101.633 340.239 101.049C340.325 100.461 340.368 99.885 340.368 99.32C340.368 98.5644 340.295 97.7978 340.149 97.02C340.003 96.2422 339.806 95.52 339.558 94.8533C339.311 94.1867 339.035 93.6438 338.73 93.2248H339.72C340.301 94.0724 340.747 95.001 341.058 96.0105C341.373 97.0168 341.53 98.12 341.53 99.32Z" fill="white"/>
<path d="M269.848 155.804C269.743 155.483 269.605 155.196 269.433 154.942C269.265 154.685 269.063 154.466 268.828 154.285C268.597 154.104 268.333 153.966 268.038 153.871C267.743 153.775 267.419 153.728 267.067 153.728C266.489 153.728 265.963 153.877 265.49 154.175C265.017 154.474 264.641 154.914 264.362 155.495C264.083 156.075 263.943 156.788 263.943 157.633C263.943 158.477 264.084 159.19 264.367 159.771C264.649 160.352 265.032 160.791 265.514 161.09C265.997 161.388 266.54 161.537 267.143 161.537C267.702 161.537 268.194 161.418 268.619 161.18C269.048 160.939 269.381 160.599 269.619 160.161C269.86 159.72 269.981 159.201 269.981 158.604L270.343 158.68H267.409V157.633H271.124V158.68C271.124 159.483 270.952 160.182 270.609 160.775C270.27 161.369 269.8 161.829 269.2 162.156C268.603 162.48 267.917 162.642 267.143 162.642C266.279 162.642 265.521 162.439 264.867 162.033C264.216 161.626 263.708 161.048 263.343 160.299C262.981 159.55 262.8 158.661 262.8 157.633C262.8 156.861 262.903 156.168 263.11 155.552C263.319 154.933 263.614 154.406 263.995 153.971C264.376 153.536 264.827 153.202 265.348 152.971C265.868 152.739 266.441 152.623 267.067 152.623C267.581 152.623 268.06 152.701 268.505 152.856C268.952 153.009 269.351 153.226 269.7 153.509C270.052 153.788 270.346 154.123 270.581 154.514C270.816 154.901 270.978 155.331 271.067 155.804H269.848ZM275.965 162.661C275.305 162.661 274.726 162.504 274.227 162.19C273.732 161.875 273.345 161.436 273.065 160.871C272.789 160.306 272.651 159.645 272.651 158.89C272.651 158.128 272.789 157.463 273.065 156.895C273.345 156.326 273.732 155.885 274.227 155.571C274.726 155.256 275.305 155.099 275.965 155.099C276.626 155.099 277.203 155.256 277.699 155.571C278.197 155.885 278.584 156.326 278.861 156.895C279.14 157.463 279.28 158.128 279.28 158.89C279.28 159.645 279.14 160.306 278.861 160.871C278.584 161.436 278.197 161.875 277.699 162.19C277.203 162.504 276.626 162.661 275.965 162.661ZM275.965 161.652C276.467 161.652 276.88 161.523 277.203 161.266C277.527 161.009 277.767 160.671 277.922 160.252C278.078 159.833 278.156 159.379 278.156 158.89C278.156 158.401 278.078 157.945 277.922 157.523C277.767 157.101 277.527 156.76 277.203 156.499C276.88 156.239 276.467 156.109 275.965 156.109C275.464 156.109 275.051 156.239 274.727 156.499C274.403 156.76 274.164 157.101 274.008 157.523C273.853 157.945 273.775 158.401 273.775 158.89C273.775 159.379 273.853 159.833 274.008 160.252C274.164 160.671 274.403 161.009 274.727 161.266C275.051 161.523 275.464 161.652 275.965 161.652ZM282.119 152.756V162.509H280.995V152.756H282.119ZM286.939 162.661C286.329 162.661 285.791 162.507 285.325 162.199C284.858 161.888 284.493 161.45 284.23 160.885C283.966 160.317 283.834 159.645 283.834 158.871C283.834 158.102 283.966 157.436 284.23 156.871C284.493 156.306 284.86 155.869 285.329 155.561C285.799 155.253 286.342 155.099 286.958 155.099C287.434 155.099 287.81 155.179 288.087 155.337C288.366 155.493 288.579 155.671 288.725 155.871C288.874 156.068 288.99 156.229 289.072 156.356H289.168V152.756H290.291V162.509H289.206V161.385H289.072C288.99 161.518 288.872 161.687 288.72 161.89C288.568 162.09 288.35 162.269 288.068 162.428C287.785 162.583 287.409 162.661 286.939 162.661ZM287.091 161.652C287.542 161.652 287.923 161.534 288.234 161.299C288.545 161.061 288.782 160.733 288.944 160.314C289.106 159.891 289.187 159.404 289.187 158.852C289.187 158.306 289.107 157.828 288.949 157.418C288.79 157.006 288.555 156.685 288.244 156.456C287.933 156.225 287.549 156.109 287.091 156.109C286.615 156.109 286.218 156.231 285.901 156.475C285.587 156.717 285.35 157.045 285.191 157.461C285.036 157.874 284.958 158.337 284.958 158.852C284.958 159.372 285.037 159.845 285.196 160.271C285.358 160.693 285.596 161.029 285.91 161.28C286.228 161.528 286.622 161.652 287.091 161.652ZM292.906 158.394C292.906 157.195 293.061 156.091 293.372 155.085C293.687 154.075 294.134 153.147 294.715 152.299H295.706C295.477 152.614 295.263 153.001 295.063 153.461C294.866 153.918 294.693 154.422 294.544 154.971C294.394 155.517 294.277 156.082 294.191 156.666C294.109 157.25 294.067 157.826 294.067 158.394C294.067 159.15 294.141 159.917 294.287 160.694C294.433 161.472 294.629 162.194 294.877 162.861C295.125 163.528 295.401 164.071 295.706 164.49H294.715C294.134 163.642 293.687 162.715 293.372 161.709C293.061 160.699 292.906 159.594 292.906 158.394ZM297.916 162.509H296.678L300.259 152.756H301.478L305.059 162.509H303.821L300.907 154.299H300.831L297.916 162.509ZM298.373 158.699H303.364V159.747H298.373V158.699ZM311.035 159.518V155.195H312.159V162.509H311.035V161.271H310.959C310.788 161.642 310.521 161.958 310.159 162.218C309.797 162.475 309.34 162.604 308.788 162.604C308.33 162.604 307.924 162.504 307.569 162.304C307.213 162.101 306.934 161.796 306.73 161.39C306.527 160.98 306.426 160.464 306.426 159.842V155.195H307.549V159.766C307.549 160.299 307.699 160.725 307.997 161.042C308.299 161.36 308.683 161.518 309.149 161.518C309.429 161.518 309.713 161.447 310.002 161.304C310.294 161.161 310.538 160.942 310.735 160.647C310.935 160.352 311.035 159.975 311.035 159.518ZM316.617 158.394C316.617 159.594 316.46 160.699 316.146 161.709C315.835 162.715 315.389 163.642 314.808 164.49H313.817C314.046 164.175 314.259 163.788 314.455 163.328C314.655 162.871 314.83 162.369 314.979 161.823C315.128 161.274 315.244 160.707 315.327 160.123C315.412 159.536 315.455 158.96 315.455 158.394C315.455 157.639 315.382 156.872 315.236 156.095C315.09 155.317 314.893 154.595 314.646 153.928C314.398 153.261 314.122 152.718 313.817 152.299H314.808C315.389 153.147 315.835 154.075 316.146 155.085C316.46 156.091 316.617 157.195 316.617 158.394Z" fill="black"/>
</g>
<defs>
<filter id="filter0_d_32_334" x="103" y="0.5" width="293" height="258" filterUnits="userSpaceOnUse" color-interpolation-filters="sRGB">
<feFlood flood-opacity="0" result="BackgroundImageFix"/>
<feColorMatrix in="SourceAlpha" type="matrix" values="0 0 0 0 0 0 0 0 0 0 0 0 0 0 0 0 0 0 127 0" result="hardAlpha"/>
<feOffset dx="5" dy="10"/>
<feGaussianBlur stdDeviation="5"/>
<feComposite in2="hardAlpha" operator="out"/>
<feColorMatrix type="matrix" values="0 0 0 0 0 0 0 0 0 0 0 0 0 0 0 0 0 0 0.2 0"/>
<feBlend mode="normal" in2="BackgroundImageFix" result="effect1_dropShadow_32_334"/>
<feBlend mode="normal" in="SourceGraphic" in2="effect1_dropShadow_32_334" result="shape"/>
</filter>
<radialGradient id="paint0_radial_32_334" cx="0" cy="0" r="1" gradientUnits="userSpaceOnUse" gradientTransform="translate(109.063 87.8587) rotate(90) scale(17.9111)">
<stop offset="0.145833" stop-color="#A28F4A"/>
<stop offset="0.739583" stop-color="#E6D267"/>
<stop offset="0.973858" stop-color="#FFF2B1"/>
</radialGradient>
<radialGradient id="paint1_radial_32_334" cx="0" cy="0" r="1" gradientUnits="userSpaceOnUse" gradientTransform="translate(145.164 87.8587) rotate(90) scale(17.9111)">
<stop offset="0.145833" stop-color="#A28F4A"/>
<stop offset="0.739583" stop-color="#E6D267"/>
<stop offset="0.973858" stop-color="#FFF2B1"/>
</radialGradient>
<radialGradient id="paint2_radial_32_334" cx="0" cy="0" r="1" gradientUnits="userSpaceOnUse" gradientTransform="translate(181.265 87.8587) rotate(90) scale(17.9111)">
<stop offset="0.145833" stop-color="#A28F4A"/>
<stop offset="0.739583" stop-color="#E6D267"/>
<stop offset="0.973858" stop-color="#FFF2B1"/>
</radialGradient>
<radialGradient id="paint3_radial_32_334" cx="0" cy="0" r="1" gradientUnits="userSpaceOnUse" gradientTransform="translate(72.9619 87.8587) rotate(90) scale(17.9111)">
<stop offset="0.145833" stop-color="#A28F4A"/>
<stop offset="0.739583" stop-color="#E6D267"/>
<stop offset="0.973858" stop-color="#FFF2B1"/>
</radialGradient>
<radialGradient id="paint4_radial_32_334" cx="0" cy="0" r="1" gradientUnits="userSpaceOnUse" gradientTransform="translate(36.8609 87.8587) rotate(90) scale(17.9111)">
<stop offset="0.145833" stop-color="#A28F4A"/>
<stop offset="0.739583" stop-color="#E6D267"/>
<stop offset="0.973858" stop-color="#FFF2B1"/>
</radialGradient>
<radialGradient id="paint5_radial_32_334" cx="0" cy="0" r="1" gradientUnits="userSpaceOnUse" gradientTransform="translate(0.759777 87.8587) rotate(90) scale(17.9111)">
<stop offset="0.145833" stop-color="#A28F4A"/>
<stop offset="0.739583" stop-color="#E6D267"/>
<stop offset="0.973858" stop-color="#FFF2B1"/>
</radialGradient>
<radialGradient id="paint6_radial_32_334" cx="0" cy="0" r="1" gradientUnits="userSpaceOnUse" gradientTransform="translate(109.063 212.811) rotate(90) scale(17.9111)">
<stop offset="0.145833" stop-color="#A28F4A"/>
<stop offset="0.739583" stop-color="#E6D267"/>
<stop offset="0.973858" stop-color="#FFF2B1"/>
</radialGradient>
<radialGradient id="paint7_radial_32_334" cx="0" cy="0" r="1" gradientUnits="userSpaceOnUse" gradientTransform="translate(145.164 212.811) rotate(90) scale(17.9111)">
<stop offset="0.145833" stop-color="#A28F4A"/>
<stop offset="0.739583" stop-color="#E6D267"/>
<stop offset="0.973858" stop-color="#FFF2B1"/>
</radialGradient>
<radialGradient id="paint8_radial_32_334" cx="0" cy="0" r="1" gradientUnits="userSpaceOnUse" gradientTransform="translate(181.265 212.811) rotate(90) scale(17.9111)">
<stop offset="0.145833" stop-color="#A28F4A"/>
<stop offset="0.739583" stop-color="#E6D267"/>
<stop offset="0.973858" stop-color="#FFF2B1"/>
</radialGradient>
<radialGradient id="paint9_radial_32_334" cx="0" cy="0" r="1" gradientUnits="userSpaceOnUse" gradientTransform="translate(72.9619 212.811) rotate(90) scale(17.9111)">
<stop offset="0.145833" stop-color="#A28F4A"/>
<stop offset="0.739583" stop-color="#E6D267"/>
<stop offset="0.973858" stop-color="#FFF2B1"/>
</radialGradient>
<radialGradient id="paint10_radial_32_334" cx="0" cy="0" r="1" gradientUnits="userSpaceOnUse" gradientTransform="translate(36.8609 212.811) rotate(90) scale(17.9111)">
<stop offset="0.145833" stop-color="#A28F4A"/>
<stop offset="0.739583" stop-color="#E6D267"/>
<stop offset="0.973858" stop-color="#FFF2B1"/>
</radialGradient>
<radialGradient id="paint11_radial_32_334" cx="0" cy="0" r="1" gradientUnits="userSpaceOnUse" gradientTransform="translate(0.759777 212.811) rotate(90) scale(17.9111)">
<stop offset="0.145833" stop-color="#A28F4A"/>
<stop offset="0.739583" stop-color="#E6D267"/>
<stop offset="0.973858" stop-color="#FFF2B1"/>
</radialGradient>
<radialGradient id="paint12_radial_32_334" cx="0" cy="0" r="1" gradientUnits="userSpaceOnUse" gradientTransform="translate(109.063 150.334) rotate(90) scale(17.9111)">
<stop offset="0.145833" stop-color="#A28F4A"/>
<stop offset="0.739583" stop-color="#E6D267"/>
<stop offset="0.973858" stop-color="#FFF2B1"/>
</radialGradient>
<radialGradient id="paint13_radial_32_334" cx="0" cy="0" r="1" gradientUnits="userSpaceOnUse" gradientTransform="translate(145.164 150.334) rotate(90) scale(17.9111)">
<stop offset="0.145833" stop-color="#A28F4A"/>
<stop offset="0.739583" stop-color="#E6D267"/>
<stop offset="0.973858" stop-color="#FFF2B1"/>
</radialGradient>
<radialGradient id="paint14_radial_32_334" cx="0" cy="0" r="1" gradientUnits="userSpaceOnUse" gradientTransform="translate(181.265 150.334) rotate(90) scale(17.9111)">
<stop offset="0.145833" stop-color="#A28F4A"/>
<stop offset="0.739583" stop-color="#E6D267"/>
<stop offset="0.973858" stop-color="#FFF2B1"/>
</radialGradient>
<radialGradient id="paint15_radial_32_334" cx="0" cy="0" r="1" gradientUnits="userSpaceOnUse" gradientTransform="translate(72.9619 150.334) rotate(90) scale(17.9111)">
<stop offset="0.145833" stop-color="#A28F4A"/>
<stop offset="0.739583" stop-color="#E6D267"/>
<stop offset="0.973858" stop-color="#FFF2B1"/>
</radialGradient>
<radialGradient id="paint16_radial_32_334" cx="0" cy="0" r="1" gradientUnits="userSpaceOnUse" gradientTransform="translate(36.8609 150.334) rotate(90) scale(17.9111)">
<stop offset="0.145833" stop-color="#A28F4A"/>
<stop offset="0.739583" stop-color="#E6D267"/>
<stop offset="0.973858" stop-color="#FFF2B1"/>
</radialGradient>
<radialGradient id="paint17_radial_32_334" cx="0" cy="0" r="1" gradientUnits="userSpaceOnUse" gradientTransform="translate(0.759777 150.334) rotate(90) scale(17.9111)">
<stop offset="0.145833" stop-color="#A28F4A"/>
<stop offset="0.739583" stop-color="#E6D267"/>
<stop offset="0.973858" stop-color="#FFF2B1"/>
</radialGradient>
<radialGradient id="paint18_radial_32_334" cx="0" cy="0" r="1" gradientUnits="userSpaceOnUse" gradientTransform="translate(91.1514 118.99) rotate(90) scale(17.9111)">
<stop offset="0.145833" stop-color="#A28F4A"/>
<stop offset="0.739583" stop-color="#E6D267"/>
<stop offset="0.973858" stop-color="#FFF2B1"/>
</radialGradient>
<radialGradient id="paint19_radial_32_334" cx="0" cy="0" r="1" gradientUnits="userSpaceOnUse" gradientTransform="translate(91.1514 56.5079) rotate(90) scale(17.9111)">
<stop offset="0.145833" stop-color="#A28F4A"/>
<stop offset="0.739583" stop-color="#E6D267"/>
<stop offset="0.973858" stop-color="#FFF2B1"/>
</radialGradient>
<radialGradient id="paint20_radial_32_334" cx="0" cy="0" r="1" gradientUnits="userSpaceOnUse" gradientTransform="translate(127.253 118.99) rotate(90) scale(17.9111)">
<stop offset="0.145833" stop-color="#A28F4A"/>
<stop offset="0.739583" stop-color="#E6D267"/>
<stop offset="0.973858" stop-color="#FFF2B1"/>
</radialGradient>
<radialGradient id="paint21_radial_32_334" cx="0" cy="0" r="1" gradientUnits="userSpaceOnUse" gradientTransform="translate(127.253 56.5079) rotate(90) scale(17.9111)">
<stop offset="0.145833" stop-color="#A28F4A"/>
<stop offset="0.739583" stop-color="#E6D267"/>
<stop offset="0.973858" stop-color="#FFF2B1"/>
</radialGradient>
<radialGradient id="paint22_radial_32_334" cx="0" cy="0" r="1" gradientUnits="userSpaceOnUse" gradientTransform="translate(163.354 118.99) rotate(90) scale(17.9111)">
<stop offset="0.145833" stop-color="#A28F4A"/>
<stop offset="0.739583" stop-color="#E6D267"/>
<stop offset="0.973858" stop-color="#FFF2B1"/>
</radialGradient>
<radialGradient id="paint23_radial_32_334" cx="0" cy="0" r="1" gradientUnits="userSpaceOnUse" gradientTransform="translate(163.354 56.5079) rotate(90) scale(17.9111)">
<stop offset="0.145833" stop-color="#A28F4A"/>
<stop offset="0.739583" stop-color="#E6D267"/>
<stop offset="0.973858" stop-color="#FFF2B1"/>
</radialGradient>
<radialGradient id="paint24_radial_32_334" cx="0" cy="0" r="1" gradientUnits="userSpaceOnUse" gradientTransform="translate(55.0503 118.99) rotate(90) scale(17.9111)">
<stop offset="0.145833" stop-color="#A28F4A"/>
<stop offset="0.739583" stop-color="#E6D267"/>
<stop offset="0.973858" stop-color="#FFF2B1"/>
</radialGradient>
<radialGradient id="paint25_radial_32_334" cx="0" cy="0" r="1" gradientUnits="userSpaceOnUse" gradientTransform="translate(55.0503 56.5079) rotate(90) scale(17.9111)">
<stop offset="0.145833" stop-color="#A28F4A"/>
<stop offset="0.739583" stop-color="#E6D267"/>
<stop offset="0.973858" stop-color="#FFF2B1"/>
</radialGradient>
<radialGradient id="paint26_radial_32_334" cx="0" cy="0" r="1" gradientUnits="userSpaceOnUse" gradientTransform="translate(18.9492 118.99) rotate(90) scale(17.9111)">
<stop offset="0.145833" stop-color="#A28F4A"/>
<stop offset="0.739583" stop-color="#E6D267"/>
<stop offset="0.973858" stop-color="#FFF2B1"/>
</radialGradient>
<radialGradient id="paint27_radial_32_334" cx="0" cy="0" r="1" gradientUnits="userSpaceOnUse" gradientTransform="translate(18.9492 56.5079) rotate(90) scale(17.9111)">
<stop offset="0.145833" stop-color="#A28F4A"/>
<stop offset="0.739583" stop-color="#E6D267"/>
<stop offset="0.973858" stop-color="#FFF2B1"/>
</radialGradient>
<radialGradient id="paint28_radial_32_334" cx="0" cy="0" r="1" gradientUnits="userSpaceOnUse" gradientTransform="translate(-17.1514 118.99) rotate(90) scale(17.9111)">
<stop offset="0.145833" stop-color="#A28F4A"/>
<stop offset="0.739583" stop-color="#E6D267"/>
<stop offset="0.973858" stop-color="#FFF2B1"/>
</radialGradient>
<radialGradient id="paint29_radial_32_334" cx="0" cy="0" r="1" gradientUnits="userSpaceOnUse" gradientTransform="translate(-17.1514 56.5079) rotate(90) scale(17.9111)">
<stop offset="0.145833" stop-color="#A28F4A"/>
<stop offset="0.739583" stop-color="#E6D267"/>
<stop offset="0.973858" stop-color="#FFF2B1"/>
</radialGradient>
<radialGradient id="paint30_radial_32_334" cx="0" cy="0" r="1" gradientUnits="userSpaceOnUse" gradientTransform="translate(91.1514 243.942) rotate(90) scale(17.9111)">
<stop offset="0.145833" stop-color="#A28F4A"/>
<stop offset="0.739583" stop-color="#E6D267"/>
<stop offset="0.973858" stop-color="#FFF2B1"/>
</radialGradient>
<radialGradient id="paint31_radial_32_334" cx="0" cy="0" r="1" gradientUnits="userSpaceOnUse" gradientTransform="translate(109.202 275.014) rotate(90) scale(17.9111)">
<stop offset="0.145833" stop-color="#A28F4A"/>
<stop offset="0.739583" stop-color="#E6D267"/>
<stop offset="0.973858" stop-color="#FFF2B1"/>
</radialGradient>
<radialGradient id="paint32_radial_32_334" cx="0" cy="0" r="1" gradientUnits="userSpaceOnUse" gradientTransform="translate(127.253 243.942) rotate(90) scale(17.9111)">
<stop offset="0.145833" stop-color="#A28F4A"/>
<stop offset="0.739583" stop-color="#E6D267"/>
<stop offset="0.973858" stop-color="#FFF2B1"/>
</radialGradient>
<radialGradient id="paint33_radial_32_334" cx="0" cy="0" r="1" gradientUnits="userSpaceOnUse" gradientTransform="translate(145.303 275.014) rotate(90) scale(17.9111)">
<stop offset="0.145833" stop-color="#A28F4A"/>
<stop offset="0.739583" stop-color="#E6D267"/>
<stop offset="0.973858" stop-color="#FFF2B1"/>
</radialGradient>
<radialGradient id="paint34_radial_32_334" cx="0" cy="0" r="1" gradientUnits="userSpaceOnUse" gradientTransform="translate(163.354 243.942) rotate(90) scale(17.9111)">
<stop offset="0.145833" stop-color="#A28F4A"/>
<stop offset="0.739583" stop-color="#E6D267"/>
<stop offset="0.973858" stop-color="#FFF2B1"/>
</radialGradient>
<radialGradient id="paint35_radial_32_334" cx="0" cy="0" r="1" gradientUnits="userSpaceOnUse" gradientTransform="translate(181.404 275.014) rotate(90) scale(17.9111)">
<stop offset="0.145833" stop-color="#A28F4A"/>
<stop offset="0.739583" stop-color="#E6D267"/>
<stop offset="0.973858" stop-color="#FFF2B1"/>
</radialGradient>
<radialGradient id="paint36_radial_32_334" cx="0" cy="0" r="1" gradientUnits="userSpaceOnUse" gradientTransform="translate(55.0503 243.942) rotate(90) scale(17.9111)">
<stop offset="0.145833" stop-color="#A28F4A"/>
<stop offset="0.739583" stop-color="#E6D267"/>
<stop offset="0.973858" stop-color="#FFF2B1"/>
</radialGradient>
<radialGradient id="paint37_radial_32_334" cx="0" cy="0" r="1" gradientUnits="userSpaceOnUse" gradientTransform="translate(73.1006 275.014) rotate(90) scale(17.9111)">
<stop offset="0.145833" stop-color="#A28F4A"/>
<stop offset="0.739583" stop-color="#E6D267"/>
<stop offset="0.973858" stop-color="#FFF2B1"/>
</radialGradient>
<radialGradient id="paint38_radial_32_334" cx="0" cy="0" r="1" gradientUnits="userSpaceOnUse" gradientTransform="translate(18.9492 243.942) rotate(90) scale(17.9111)">
<stop offset="0.145833" stop-color="#A28F4A"/>
<stop offset="0.739583" stop-color="#E6D267"/>
<stop offset="0.973858" stop-color="#FFF2B1"/>
</radialGradient>
<radialGradient id="paint39_radial_32_334" cx="0" cy="0" r="1" gradientUnits="userSpaceOnUse" gradientTransform="translate(37 275.014) rotate(90) scale(17.9111)">
<stop offset="0.145833" stop-color="#A28F4A"/>
<stop offset="0.739583" stop-color="#E6D267"/>
<stop offset="0.973858" stop-color="#FFF2B1"/>
</radialGradient>
<radialGradient id="paint40_radial_32_334" cx="0" cy="0" r="1" gradientUnits="userSpaceOnUse" gradientTransform="translate(-17.1514 243.942) rotate(90) scale(17.9111)">
<stop offset="0.145833" stop-color="#A28F4A"/>
<stop offset="0.739583" stop-color="#E6D267"/>
<stop offset="0.973858" stop-color="#FFF2B1"/>
</radialGradient>
<radialGradient id="paint41_radial_32_334" cx="0" cy="0" r="1" gradientUnits="userSpaceOnUse" gradientTransform="translate(0.898937 275.014) rotate(90) scale(17.9111)">
<stop offset="0.145833" stop-color="#A28F4A"/>
<stop offset="0.739583" stop-color="#E6D267"/>
<stop offset="0.973858" stop-color="#FFF2B1"/>
</radialGradient>
<radialGradient id="paint42_radial_32_334" cx="0" cy="0" r="1" gradientUnits="userSpaceOnUse" gradientTransform="translate(91.1514 181.466) rotate(90) scale(17.9111)">
<stop offset="0.145833" stop-color="#A28F4A"/>
<stop offset="0.739583" stop-color="#E6D267"/>
<stop offset="0.973858" stop-color="#FFF2B1"/>
</radialGradient>
<radialGradient id="paint43_radial_32_334" cx="0" cy="0" r="1" gradientUnits="userSpaceOnUse" gradientTransform="translate(127.253 181.466) rotate(90) scale(17.9111)">
<stop offset="0.145833" stop-color="#A28F4A"/>
<stop offset="0.739583" stop-color="#E6D267"/>
<stop offset="0.973858" stop-color="#FFF2B1"/>
</radialGradient>
<radialGradient id="paint44_radial_32_334" cx="0" cy="0" r="1" gradientUnits="userSpaceOnUse" gradientTransform="translate(163.354 181.466) rotate(90) scale(17.9111)">
<stop offset="0.145833" stop-color="#A28F4A"/>
<stop offset="0.739583" stop-color="#E6D267"/>
<stop offset="0.973858" stop-color="#FFF2B1"/>
</radialGradient>
<radialGradient id="paint45_radial_32_334" cx="0" cy="0" r="1" gradientUnits="userSpaceOnUse" gradientTransform="translate(55.0503 181.466) rotate(90) scale(17.9111)">
<stop offset="0.145833" stop-color="#A28F4A"/>
<stop offset="0.739583" stop-color="#E6D267"/>
<stop offset="0.973858" stop-color="#FFF2B1"/>
</radialGradient>
<radialGradient id="paint46_radial_32_334" cx="0" cy="0" r="1" gradientUnits="userSpaceOnUse" gradientTransform="translate(18.9492 181.466) rotate(90) scale(17.9111)">
<stop offset="0.145833" stop-color="#A28F4A"/>
<stop offset="0.739583" stop-color="#E6D267"/>
<stop offset="0.973858" stop-color="#FFF2B1"/>
</radialGradient>
<radialGradient id="paint47_radial_32_334" cx="0" cy="0" r="1" gradientUnits="userSpaceOnUse" gradientTransform="translate(-17.1514 181.466) rotate(90) scale(17.9111)">
<stop offset="0.145833" stop-color="#A28F4A"/>
<stop offset="0.739583" stop-color="#E6D267"/>
<stop offset="0.973858" stop-color="#FFF2B1"/>
</radialGradient>
<linearGradient id="paint48_linear_32_334" x1="108" y1="117" x2="168" y2="117" gradientUnits="userSpaceOnUse">
<stop stop-color="#158D44"/>
<stop offset="0.791667" stop-color="white" stop-opacity="0.5"/>
</linearGradient>
<radialGradient id="paint49_radial_32_334" cx="0" cy="0" r="1" gradientUnits="userSpaceOnUse" gradientTransform="translate(296.085 92.0452) rotate(103.101) scale(150.369)">
<stop stop-color="#FFF5D2"/>
<stop offset="1" stop-color="#8D7932"/>
</radialGradient>
<radialGradient id="paint50_radial_32_334" cx="0" cy="0" r="1" gradientUnits="userSpaceOnUse" gradientTransform="translate(261.659 118.348) rotate(90) scale(111.654)">
<stop offset="0.189998" stop-color="#A5BDCE"/>
<stop offset="1" stop-color="#616A6D"/>
</radialGradient>
<radialGradient id="paint51_radial_32_334" cx="0" cy="0" r="1" gradientUnits="userSpaceOnUse" gradientTransform="translate(298.275 87.9263) rotate(130.515) scale(124.971)">
<stop stop-color="#D2F7E5"/>
<stop offset="1" stop-color="#A8D1E3"/>
</radialGradient>
<radialGradient id="paint52_radial_32_334" cx="0" cy="0" r="1" gradientUnits="userSpaceOnUse" gradientTransform="translate(261.659 119.817) rotate(90) scale(111.654)">
<stop offset="0.189998" stop-color="#A5BDCE"/>
<stop offset="1" stop-color="#616A6D"/>
</radialGradient>
<radialGradient id="paint53_radial_32_334" cx="0" cy="0" r="1" gradientUnits="userSpaceOnUse" gradientTransform="translate(296.085 92.0452) rotate(103.101) scale(150.369)">
<stop stop-color="#FFF5D2"/>
<stop offset="1" stop-color="#8D7932"/>
</radialGradient>
</defs>
</svg>
