<svg width="453" height="246" viewBox="0 0 453 246" fill="none" xmlns="http://www.w3.org/2000/svg">
<mask id="mask0_873_2596" style="mask-type:alpha" maskUnits="userSpaceOnUse" x="0" y="0" width="453" height="246">
<rect y="0.482056" width="453" height="245.036" fill="#D9D9D9"/>
</mask>
<g mask="url(#mask0_873_2596)">
<path d="M18.9218 23.7423C16.987 22.7372 17.4928 19.8393 19.6537 19.5489L136.598 3.83744C137.006 3.7826 137.422 3.84176 137.798 4.00835L214.785 38.0602C216.835 38.9671 216.419 41.9919 214.2 42.3113L89.9887 60.1889C89.5268 60.2554 89.0557 60.1755 88.6416 59.9603L18.9218 23.7423Z" fill="url(#paint0_linear_873_2596)"/>
<path d="M18.9218 27.1614C16.987 26.1563 17.4928 23.2583 19.6537 22.968L136.598 7.25651C137.006 7.20167 137.422 7.26082 137.798 7.42741L214.785 41.4793C216.835 42.3862 216.419 45.411 214.2 45.7303L89.9887 63.608C89.5268 63.6745 89.0557 63.5945 88.6416 63.3794L18.9218 27.1614Z" fill="url(#paint1_linear_873_2596)"/>
<path fill-rule="evenodd" clip-rule="evenodd" d="M17.6318 26.2515V19.9222L85.8409 59.4644L216.102 39.3623V45.6916L85.8409 66.488L17.6318 26.2515Z" fill="url(#paint2_linear_873_2596)"/>
<path fill-rule="evenodd" clip-rule="evenodd" d="M171.142 37.7306C170.91 37.7623 170.674 37.7239 170.464 37.6203L119.948 12.6993C118.91 12.1871 119.161 10.6403 120.308 10.4833C120.541 10.4515 120.777 10.49 120.987 10.5936L171.503 35.5146C172.541 36.0268 172.289 37.5736 171.142 37.7306Z" fill="#B9B9B9"/>
<path fill-rule="evenodd" clip-rule="evenodd" d="M99.5883 47.5132C99.3562 47.5449 99.1199 47.5065 98.9098 47.4029L48.3942 22.4819C47.356 21.9697 47.6074 20.4229 48.7545 20.2659C48.9866 20.2341 49.2229 20.2726 49.433 20.3762L99.9486 45.2972C100.987 45.8094 100.735 47.3562 99.5883 47.5132Z" fill="#B9B9B9"/>
<path fill-rule="evenodd" clip-rule="evenodd" d="M174.818 46.1722C174.488 46.2275 174.149 46.1762 173.851 46.0257L105.691 11.6919C104.333 11.0081 104.639 8.98738 106.138 8.73602C106.468 8.6807 106.807 8.73202 107.106 8.88252L175.266 43.2163C176.623 43.9001 176.318 45.9208 174.818 46.1722Z" fill="#717171"/>
<path fill-rule="evenodd" clip-rule="evenodd" d="M101.998 55.9547C101.668 56.01 101.329 55.9587 101.03 55.8082L32.8703 21.4745C31.5127 20.7906 31.8186 18.7699 33.3178 18.5186C33.6477 18.4632 33.9867 18.5146 34.2854 18.665L102.446 52.9988C103.803 53.6827 103.497 55.7033 101.998 55.9547Z" fill="#717171"/>
<path fill-rule="evenodd" clip-rule="evenodd" d="M114.519 0.243588L123.209 -0.939941L192.215 31.6508C192.258 31.6686 192.304 31.6877 192.354 31.7083C193.072 32.0027 194.574 32.6188 196.187 34.3591C197.884 36.1906 199.585 39.1086 201.106 43.9071C202.513 48.344 206.807 59.119 210.807 68.9175C212.796 73.7873 214.694 78.3731 216.096 81.7418C216.796 83.426 217.373 84.8056 217.774 85.7639C217.882 86.0217 217.977 86.249 218.058 86.4436L302.336 128.575L294.144 129.998L213.737 90.1815L213.394 89.3666L215.897 88.3123C213.394 89.3666 213.394 89.3666 213.394 89.3666L213.394 89.3649L213.392 89.3601L213.23 88.9756C213.123 88.7204 212.966 88.3451 212.765 87.8644C212.362 86.9031 211.785 85.52 211.082 83.8319C209.678 80.4559 207.775 75.8585 205.78 70.9743C201.816 61.2648 197.419 50.2485 195.93 45.552C194.555 41.2172 193.178 39.1064 192.205 38.0565C191.412 37.2004 190.832 36.9609 190.256 36.7227C190.179 36.6912 190.103 36.6597 190.026 36.6268L189.972 36.6034L114.519 0.243588Z" fill="#F5F5F5"/>
<path fill-rule="evenodd" clip-rule="evenodd" d="M48.9775 15.378L57.4077 14.239L124.355 45.6027C124.396 45.6198 124.441 45.6382 124.49 45.6581C125.186 45.9413 126.644 46.5343 128.208 48.2091C129.855 49.9716 131.505 52.7797 132.981 57.3975C134.346 61.6674 138.511 72.0368 142.393 81.4663C144.322 86.1527 146.163 90.5659 147.523 93.8078C148.203 95.4286 148.762 96.7562 149.151 97.6784C149.256 97.9266 149.348 98.1453 149.427 98.3326L231.417 138.719L223.47 140.088L145.235 101.93L144.902 101.146L147.33 100.131C144.902 101.146 144.902 101.146 144.902 101.146L144.902 101.144L144.9 101.139L144.743 100.769C144.639 100.524 144.486 100.162 144.291 99.6999C143.901 98.7748 143.341 97.4437 142.659 95.8192C141.297 92.5703 139.45 88.146 137.515 83.4457C133.669 74.1017 129.404 63.5002 127.959 58.9806C126.625 54.8089 125.29 52.7776 124.346 51.7672C123.576 50.9434 123.013 50.7129 122.454 50.4837C122.38 50.4534 122.306 50.4231 122.232 50.3914L122.179 50.3688L48.9775 15.378Z" fill="#F5F5F5"/>
<path d="M121.141 108.232C119.206 107.227 119.712 104.329 121.873 104.039L238.818 88.3272C239.226 88.2724 239.641 88.3316 240.018 88.4982L317.005 122.55C319.055 123.457 318.639 126.482 316.42 126.801L192.208 144.679C191.746 144.745 191.275 144.665 190.861 144.45L121.141 108.232Z" fill="url(#paint3_linear_873_2596)"/>
<path d="M121.141 111.651C119.206 110.646 119.712 107.748 121.873 107.458L238.818 91.7462C239.226 91.6914 239.641 91.7505 240.018 91.9171L317.005 125.969C319.055 126.876 318.639 129.901 316.42 130.22L192.208 148.098C191.746 148.164 191.275 148.084 190.861 147.869L121.141 111.651Z" fill="url(#paint4_linear_873_2596)"/>
<path fill-rule="evenodd" clip-rule="evenodd" d="M119.926 111.246V105.368L192.428 143.328L318.275 123.904L318.275 130.234L192.428 151.482L119.926 111.246Z" fill="url(#paint5_linear_873_2596)"/>
<g filter="url(#filter0_d_873_2596)">
<path fill-rule="evenodd" clip-rule="evenodd" d="M273.362 122.221C273.13 122.252 272.894 122.214 272.684 122.11L222.168 97.1892C221.13 96.677 221.381 95.1302 222.528 94.9732C222.761 94.9415 222.997 94.9799 223.207 95.0835L273.722 120.005C274.761 120.517 274.509 122.064 273.362 122.221Z" fill="#B9B9B9"/>
</g>
<g filter="url(#filter1_d_873_2596)">
<path fill-rule="evenodd" clip-rule="evenodd" d="M201.808 132.003C201.576 132.035 201.34 131.996 201.129 131.893L150.614 106.972C149.576 106.46 149.827 104.913 150.974 104.756C151.206 104.724 151.443 104.762 151.653 104.866L202.168 129.787C203.207 130.299 202.955 131.846 201.808 132.003Z" fill="#B9B9B9"/>
</g>
<path fill-rule="evenodd" clip-rule="evenodd" d="M277.039 130.662C276.709 130.717 276.37 130.666 276.071 130.516L207.911 96.1818C206.553 95.4979 206.859 93.4773 208.358 93.2259C208.688 93.1706 209.027 93.2219 209.326 93.3724L277.486 127.706C278.844 128.39 278.538 130.411 277.039 130.662Z" fill="#717171"/>
<path fill-rule="evenodd" clip-rule="evenodd" d="M204.218 140.445C203.888 140.5 203.549 140.449 203.25 140.298L135.09 105.964C133.733 105.281 134.039 103.26 135.538 103.008C135.868 102.953 136.207 103.004 136.505 103.155L204.666 137.489C206.023 138.173 205.717 140.193 204.218 140.445Z" fill="#717171"/>
<path fill-rule="evenodd" clip-rule="evenodd" d="M143.902 98.3572L152.592 97.1737L221.598 129.764C221.641 129.782 221.687 129.801 221.737 129.822C222.455 130.116 223.957 130.732 225.57 132.473C227.267 134.304 228.968 137.222 230.489 142.021C231.897 146.458 236.19 157.233 240.19 167.031C242.179 171.901 244.077 176.487 245.479 179.855C246.179 181.54 246.756 182.919 247.157 183.878C247.265 184.135 247.36 184.363 247.441 184.557L324.117 230.912L315.926 232.335L243.12 188.295L242.777 187.48L245.28 186.426C242.777 187.48 242.777 187.48 242.777 187.48L242.777 187.479L242.775 187.474L242.613 187.089C242.506 186.834 242.349 186.459 242.148 185.978C241.745 185.017 241.168 183.634 240.465 181.946C239.061 178.57 237.158 173.972 235.163 169.088C231.199 159.378 226.803 148.362 225.313 143.666C223.938 139.331 222.561 137.22 221.588 136.17C220.795 135.314 220.215 135.075 219.639 134.836C219.562 134.805 219.486 134.773 219.409 134.74L219.355 134.717L143.902 98.3572Z" fill="#F5F5F5"/>
<path fill-rule="evenodd" clip-rule="evenodd" d="M217.849 88.5629L226.539 87.3794L295.545 119.97C295.587 119.988 295.634 120.007 295.684 120.028C296.402 120.322 297.904 120.938 299.517 122.678C301.214 124.51 302.914 127.428 304.436 132.226C305.843 136.663 310.136 147.438 314.137 157.237C316.126 162.107 318.024 166.692 319.426 170.061C320.126 171.745 320.703 173.125 321.104 174.083C321.211 174.341 321.307 174.568 321.388 174.763L398.064 221.118L389.872 222.541L317.067 178.501L316.724 177.686L319.227 176.632C316.724 177.686 316.724 177.685 316.724 177.685L316.723 177.684L316.721 177.679L316.56 177.295C316.453 177.04 316.296 176.664 316.094 176.184C315.692 175.222 315.114 173.839 314.412 172.151C313.008 168.775 311.104 164.178 309.11 159.294C305.146 149.584 300.749 138.568 299.26 133.871C297.885 129.536 296.508 127.426 295.535 126.376C294.742 125.52 294.162 125.28 293.585 125.042C293.509 125.011 293.433 124.979 293.356 124.946L293.302 124.923L217.849 88.5629Z" fill="#F5F5F5"/>
<path d="M222.276 193.807C220.341 192.802 220.847 189.904 223.008 189.614L339.952 173.902C340.361 173.848 340.776 173.907 341.153 174.073L418.139 208.125C420.19 209.032 419.773 212.057 417.554 212.376L293.343 230.254C292.881 230.32 292.41 230.24 291.996 230.025L222.276 193.807Z" fill="url(#paint6_linear_873_2596)"/>
<path d="M222.276 197.226C220.341 196.221 220.847 193.323 223.008 193.033L339.952 177.322C340.361 177.267 340.776 177.326 341.153 177.493L418.139 211.544C420.19 212.451 419.773 215.476 417.554 215.795L293.343 233.673C292.881 233.74 292.41 233.66 291.996 233.445L222.276 197.226Z" fill="url(#paint7_linear_873_2596)"/>
<path fill-rule="evenodd" clip-rule="evenodd" d="M221.075 196.692V190.362L293.562 228.903L419.545 209.803V216.132L292.608 236.332L221.075 196.692Z" fill="url(#paint8_linear_873_2596)"/>
<path fill-rule="evenodd" clip-rule="evenodd" d="M374.497 207.796C374.265 207.828 374.029 207.789 373.818 207.686L323.303 182.765C322.265 182.252 322.516 180.706 323.663 180.549C323.895 180.517 324.132 180.555 324.342 180.659L374.857 205.58C375.896 206.092 375.644 207.639 374.497 207.796Z" fill="#B9B9B9"/>
<path fill-rule="evenodd" clip-rule="evenodd" d="M302.942 217.578C302.71 217.61 302.474 217.572 302.264 217.468L251.748 192.547C250.71 192.035 250.961 190.488 252.108 190.331C252.341 190.299 252.577 190.338 252.787 190.441L303.303 215.362C304.341 215.875 304.089 217.421 302.942 217.578Z" fill="#B9B9B9"/>
<path fill-rule="evenodd" clip-rule="evenodd" d="M378.173 216.237C377.843 216.293 377.504 216.241 377.205 216.091L309.045 181.757C307.688 181.073 307.994 179.053 309.493 178.801C309.823 178.746 310.162 178.797 310.46 178.948L378.621 213.281C379.978 213.965 379.672 215.986 378.173 216.237Z" fill="#717171"/>
<path fill-rule="evenodd" clip-rule="evenodd" d="M305.352 226.02C305.022 226.075 304.683 226.024 304.385 225.873L236.225 191.54C234.867 190.856 235.173 188.835 236.672 188.584C237.002 188.528 237.341 188.58 237.64 188.73L305.8 223.064C307.157 223.748 306.851 225.768 305.352 226.02Z" fill="#717171"/>
<path fill-rule="evenodd" clip-rule="evenodd" d="M250.17 186.016L258.86 184.833L327.866 217.424C327.908 217.441 327.955 217.46 328.005 217.481C328.723 217.775 330.225 218.391 331.838 220.132C333.535 221.963 335.236 224.881 336.757 229.68C338.164 234.117 342.458 244.892 346.458 254.69C348.447 259.56 350.345 264.146 351.747 267.514C352.447 269.199 353.024 270.578 353.425 271.537C353.532 271.794 353.628 272.022 353.709 272.216L430.385 318.571L422.193 319.994L349.388 275.954L349.045 275.139L351.548 274.085C349.045 275.139 349.045 275.139 349.045 275.139L349.044 275.138L349.042 275.133L348.881 274.748C348.774 274.493 348.617 274.118 348.415 273.637C348.013 272.676 347.435 271.293 346.733 269.605C345.329 266.229 343.425 261.631 341.431 256.747C337.467 247.037 333.07 236.021 331.581 231.325C330.206 226.99 328.829 224.879 327.856 223.829C327.063 222.973 326.483 222.734 325.906 222.495C325.83 222.464 325.754 222.432 325.677 222.4L325.623 222.376L250.17 186.016Z" fill="#F5F5F5"/>
<path fill-rule="evenodd" clip-rule="evenodd" d="M324.607 176.222L333.296 175.039L402.303 207.629C402.345 207.647 402.392 207.666 402.442 207.687C403.16 207.981 404.662 208.597 406.275 210.338C407.972 212.169 409.672 215.087 411.194 219.886C412.601 224.322 416.894 235.098 420.895 244.896C422.883 249.766 424.782 254.352 426.183 257.72C426.884 259.404 427.46 260.784 427.861 261.742C427.969 262 428.064 262.228 428.146 262.422L504.822 308.777L496.63 310.2L423.824 266.16L423.482 265.345L425.985 264.291C423.482 265.345 423.482 265.345 423.482 265.345L423.481 265.343L423.479 265.339L423.318 264.954C423.211 264.699 423.053 264.324 422.852 263.843C422.45 262.882 421.872 261.499 421.17 259.81C419.765 256.434 417.862 251.837 415.868 246.953C411.903 237.243 407.507 226.227 406.018 221.531C404.643 217.196 403.266 215.085 402.293 214.035C401.5 213.179 400.92 212.939 400.343 212.701C400.267 212.67 400.191 212.638 400.114 212.605L400.059 212.582L324.607 176.222Z" fill="#F5F5F5"/>
<path d="M300.114 58.4042H298.705C298.622 57.9989 298.476 57.6429 298.267 57.3361C298.063 57.0292 297.813 56.7717 297.517 56.5633C297.226 56.3512 296.902 56.1921 296.546 56.0861C296.19 55.98 295.819 55.927 295.432 55.927C294.728 55.927 294.089 56.105 293.517 56.4611C292.949 56.8171 292.497 57.3417 292.159 58.0349C291.826 58.7281 291.659 59.5785 291.659 60.5861C291.659 61.5936 291.826 62.444 292.159 63.1372C292.497 63.8304 292.949 64.355 293.517 64.7111C294.089 65.0671 294.728 65.2451 295.432 65.2451C295.819 65.2451 296.19 65.1921 296.546 65.0861C296.902 64.98 297.226 64.8228 297.517 64.6145C297.813 64.4023 298.063 64.1429 298.267 63.8361C298.476 63.5254 298.622 63.1694 298.705 62.7679H300.114C300.008 63.3626 299.815 63.8948 299.534 64.3645C299.254 64.8342 298.906 65.2338 298.489 65.5633C298.072 65.8891 297.605 66.1372 297.086 66.3076C296.57 66.4781 296.019 66.5633 295.432 66.5633C294.44 66.5633 293.557 66.3209 292.784 65.8361C292.012 65.3512 291.404 64.6618 290.961 63.7679C290.517 62.8739 290.296 61.8133 290.296 60.5861C290.296 59.3588 290.517 58.2982 290.961 57.4042C291.404 56.5103 292.012 55.8209 292.784 55.3361C293.557 54.8512 294.44 54.6088 295.432 54.6088C296.019 54.6088 296.57 54.694 297.086 54.8645C297.605 55.0349 298.072 55.2849 298.489 55.6145C298.906 55.9402 299.254 56.3379 299.534 56.8076C299.815 57.2736 300.008 57.8058 300.114 58.4042ZM305.755 66.5861C304.967 66.5861 304.275 66.3986 303.681 66.0236C303.09 65.6486 302.628 65.1239 302.294 64.4497C301.965 63.7754 301.8 62.9876 301.8 62.0861C301.8 61.177 301.965 60.3834 302.294 59.7054C302.628 59.0273 303.09 58.5008 303.681 58.1258C304.275 57.7508 304.967 57.5633 305.755 57.5633C306.543 57.5633 307.232 57.7508 307.823 58.1258C308.418 58.5008 308.88 59.0273 309.209 59.7054C309.543 60.3834 309.709 61.177 309.709 62.0861C309.709 62.9876 309.543 63.7754 309.209 64.4497C308.88 65.1239 308.418 65.6486 307.823 66.0236C307.232 66.3986 306.543 66.5861 305.755 66.5861ZM305.755 65.3815C306.353 65.3815 306.846 65.2281 307.232 64.9213C307.618 64.6145 307.904 64.2111 308.09 63.7111C308.275 63.2111 308.368 62.6694 308.368 62.0861C308.368 61.5027 308.275 60.9592 308.09 60.4554C307.904 59.9516 307.618 59.5444 307.232 59.2338C306.846 58.9232 306.353 58.7679 305.755 58.7679C305.156 58.7679 304.664 58.9232 304.277 59.2338C303.891 59.5444 303.605 59.9516 303.419 60.4554C303.234 60.9592 303.141 61.5027 303.141 62.0861C303.141 62.6694 303.234 63.2111 303.419 63.7111C303.605 64.2111 303.891 64.6145 304.277 64.9213C304.664 65.2281 305.156 65.3815 305.755 65.3815ZM313.097 61.1542V66.4042H311.756V57.677H313.052V59.0406H313.165C313.37 58.5974 313.68 58.2414 314.097 57.9724C314.514 57.6997 315.052 57.5633 315.711 57.5633C316.302 57.5633 316.819 57.6845 317.262 57.927C317.705 58.1656 318.05 58.5292 318.296 59.0179C318.542 59.5027 318.665 60.1164 318.665 60.8588V66.4042H317.324V60.9497C317.324 60.2641 317.146 59.73 316.79 59.3474C316.434 58.9611 315.945 58.7679 315.324 58.7679C314.896 58.7679 314.514 58.8607 314.177 59.0463C313.843 59.2319 313.58 59.5027 313.387 59.8588C313.194 60.2148 313.097 60.6467 313.097 61.1542ZM324.411 66.5861C323.684 66.5861 323.042 66.4023 322.485 66.0349C321.928 65.6637 321.492 65.141 321.178 64.4667C320.864 63.7887 320.706 62.9876 320.706 62.0633C320.706 61.1467 320.864 60.3512 321.178 59.677C321.492 59.0027 321.93 58.4819 322.49 58.1145C323.051 57.747 323.699 57.5633 324.434 57.5633C325.002 57.5633 325.451 57.658 325.78 57.8474C326.114 58.033 326.367 58.2451 326.542 58.4838C326.72 58.7186 326.858 58.9118 326.956 59.0633H327.07V54.7679H328.411V66.4042H327.115V65.0633H326.956C326.858 65.2224 326.718 65.4232 326.536 65.6656C326.354 65.9042 326.095 66.1183 325.758 66.3076C325.42 66.4933 324.972 66.5861 324.411 66.5861ZM324.593 65.3815C325.131 65.3815 325.585 65.2414 325.956 64.9611C326.328 64.677 326.61 64.2849 326.803 63.7849C326.996 63.2811 327.093 62.6997 327.093 62.0406C327.093 61.3891 326.998 60.819 326.809 60.3304C326.619 59.8379 326.339 59.4554 325.968 59.1826C325.597 58.9061 325.138 58.7679 324.593 58.7679C324.025 58.7679 323.551 58.9137 323.172 59.2054C322.797 59.4933 322.515 59.8853 322.326 60.3815C322.14 60.8739 322.047 61.427 322.047 62.0406C322.047 62.6618 322.142 63.2262 322.331 63.7338C322.525 64.2376 322.809 64.6391 323.184 64.9383C323.562 65.2338 324.032 65.3815 324.593 65.3815ZM336.553 62.8361V57.677H337.894V66.4042H336.553V64.927H336.462C336.258 65.3701 335.939 65.747 335.508 66.0576C335.076 66.3645 334.53 66.5179 333.871 66.5179C333.326 66.5179 332.841 66.3986 332.417 66.1599C331.992 65.9175 331.659 65.5539 331.417 65.069C331.174 64.5804 331.053 63.9648 331.053 63.2224V57.677H332.394V63.1315C332.394 63.7679 332.572 64.2754 332.928 64.6542C333.288 65.033 333.746 65.2224 334.303 65.2224C334.636 65.2224 334.975 65.1372 335.32 64.9667C335.668 64.7963 335.96 64.5349 336.195 64.1826C336.434 63.8304 336.553 63.3815 336.553 62.8361ZM343.895 66.5861C343.077 66.5861 342.373 66.3929 341.782 66.0065C341.191 65.6201 340.736 65.0879 340.418 64.4099C340.1 63.7319 339.941 62.9573 339.941 62.0861C339.941 61.1997 340.104 60.4175 340.429 59.7395C340.759 59.0576 341.217 58.5254 341.804 58.1429C342.395 57.7565 343.085 57.5633 343.873 57.5633C344.486 57.5633 345.039 57.677 345.532 57.9042C346.024 58.1315 346.427 58.4497 346.742 58.8588C347.056 59.2679 347.251 59.7451 347.327 60.2906H345.986C345.884 59.8929 345.657 59.5406 345.304 59.2338C344.956 58.9232 344.486 58.7679 343.895 58.7679C343.373 58.7679 342.914 58.9042 342.52 59.177C342.13 59.4459 341.825 59.8266 341.606 60.319C341.39 60.8076 341.282 61.3815 341.282 62.0406C341.282 62.7148 341.388 63.302 341.6 63.802C341.816 64.302 342.119 64.6902 342.509 64.9667C342.903 65.2433 343.365 65.3815 343.895 65.3815C344.244 65.3815 344.56 65.3209 344.844 65.1997C345.128 65.0785 345.369 64.9042 345.566 64.677C345.763 64.4497 345.903 64.177 345.986 63.8588H347.327C347.251 64.3739 347.064 64.8379 346.765 65.2508C346.469 65.6599 346.077 65.9857 345.588 66.2281C345.104 66.4667 344.539 66.5861 343.895 66.5861ZM353.083 57.677V58.8133H348.56V57.677H353.083ZM349.878 55.5861H351.219V63.9042C351.219 64.283 351.274 64.5671 351.384 64.7565C351.498 64.9421 351.641 65.0671 351.816 65.1315C351.994 65.1921 352.181 65.2224 352.378 65.2224C352.526 65.2224 352.647 65.2148 352.742 65.1997C352.837 65.1808 352.912 65.1656 352.969 65.1542L353.242 66.3588C353.151 66.3929 353.024 66.427 352.861 66.4611C352.698 66.4989 352.492 66.5179 352.242 66.5179C351.863 66.5179 351.492 66.4364 351.128 66.2736C350.768 66.1107 350.469 65.8626 350.231 65.5292C349.996 65.1959 349.878 64.7754 349.878 64.2679V55.5861ZM355.1 66.4042V57.677H356.441V66.4042H355.1ZM355.782 56.2224C355.52 56.2224 355.295 56.1334 355.106 55.9554C354.92 55.7773 354.827 55.5633 354.827 55.3133C354.827 55.0633 354.92 54.8493 355.106 54.6713C355.295 54.4933 355.52 54.4042 355.782 54.4042C356.043 54.4042 356.266 54.4933 356.452 54.6713C356.641 54.8493 356.736 55.0633 356.736 55.3133C356.736 55.5633 356.641 55.7773 356.452 55.9554C356.266 56.1334 356.043 56.2224 355.782 56.2224ZM366.033 57.677L362.806 66.4042H361.442L358.215 57.677H359.669L362.079 64.6315H362.169L364.579 57.677H366.033ZM371.15 66.5861C370.309 66.5861 369.583 66.4004 368.973 66.0292C368.367 65.6542 367.9 65.1315 367.57 64.4611C367.244 63.7868 367.081 63.0027 367.081 62.1088C367.081 61.2148 367.244 60.427 367.57 59.7451C367.9 59.0595 368.358 58.5254 368.945 58.1429C369.536 57.7565 370.225 57.5633 371.013 57.5633C371.468 57.5633 371.917 57.6391 372.36 57.7906C372.803 57.9421 373.206 58.1883 373.57 58.5292C373.934 58.8664 374.223 59.3133 374.439 59.8701C374.655 60.427 374.763 61.1126 374.763 61.927V62.4951H368.036V61.3361H373.4C373.4 60.8436 373.301 60.4042 373.104 60.0179C372.911 59.6315 372.634 59.3266 372.275 59.1031C371.918 58.8796 371.498 58.7679 371.013 58.7679C370.479 58.7679 370.017 58.9004 369.627 59.1656C369.24 59.427 368.943 59.7679 368.735 60.1883C368.526 60.6088 368.422 61.0595 368.422 61.5406V62.3133C368.422 62.9724 368.536 63.5311 368.763 63.9895C368.994 64.444 369.314 64.7906 369.723 65.0292C370.133 65.2641 370.608 65.3815 371.15 65.3815C371.502 65.3815 371.82 65.3323 372.104 65.2338C372.392 65.1315 372.64 64.98 372.848 64.7792C373.057 64.5747 373.218 64.3209 373.331 64.0179L374.627 64.3815C374.49 64.8209 374.261 65.2073 373.939 65.5406C373.617 65.8701 373.22 66.1277 372.746 66.3133C372.273 66.4951 371.74 66.5861 371.15 66.5861ZM383.871 66.6088C383.318 66.6088 382.816 66.5046 382.365 66.2963C381.915 66.0842 381.557 65.7792 381.292 65.3815C381.026 64.98 380.894 64.4951 380.894 63.927C380.894 63.427 380.992 63.0217 381.189 62.7111C381.386 62.3967 381.65 62.1504 381.979 61.9724C382.309 61.7944 382.672 61.6618 383.07 61.5747C383.472 61.4838 383.875 61.4118 384.28 61.3588C384.811 61.2906 385.24 61.2395 385.57 61.2054C385.903 61.1675 386.146 61.105 386.297 61.0179C386.453 60.9308 386.53 60.7792 386.53 60.5633V60.5179C386.53 59.9573 386.377 59.5217 386.07 59.2111C385.767 58.9004 385.307 58.7451 384.689 58.7451C384.049 58.7451 383.547 58.8853 383.184 59.1656C382.82 59.4459 382.564 59.7451 382.417 60.0633L381.144 59.6088C381.371 59.0785 381.674 58.6656 382.053 58.3701C382.436 58.0709 382.852 57.8626 383.303 57.7451C383.758 57.6239 384.204 57.5633 384.644 57.5633C384.924 57.5633 385.246 57.5974 385.61 57.6656C385.977 57.73 386.331 57.8645 386.672 58.069C387.017 58.2736 387.303 58.5823 387.53 58.9951C387.758 59.408 387.871 59.9611 387.871 60.6542V66.4042H386.53V65.2224H386.462C386.371 65.4118 386.22 65.6145 386.008 65.8304C385.795 66.0463 385.513 66.23 385.161 66.3815C384.809 66.533 384.379 66.6088 383.871 66.6088ZM384.076 65.4042C384.606 65.4042 385.053 65.3001 385.417 65.0917C385.784 64.8834 386.061 64.6145 386.246 64.2849C386.436 63.9554 386.53 63.6088 386.53 63.2451V62.0179C386.473 62.0861 386.348 62.1486 386.155 62.2054C385.966 62.2584 385.746 62.3058 385.496 62.3474C385.25 62.3853 385.009 62.4194 384.775 62.4497C384.543 62.4762 384.356 62.4989 384.212 62.5179C383.864 62.5633 383.538 62.6372 383.235 62.7395C382.936 62.8379 382.693 62.9876 382.508 63.1883C382.326 63.3853 382.235 63.6542 382.235 63.9951C382.235 64.4611 382.407 64.8133 382.752 65.052C383.1 65.2868 383.542 65.4042 384.076 65.4042ZM393.614 66.5861C392.887 66.5861 392.245 66.4023 391.688 66.0349C391.131 65.6637 390.695 65.141 390.381 64.4667C390.067 63.7887 389.909 62.9876 389.909 62.0633C389.909 61.1467 390.067 60.3512 390.381 59.677C390.695 59.0027 391.133 58.4819 391.694 58.1145C392.254 57.747 392.902 57.5633 393.637 57.5633C394.205 57.5633 394.654 57.658 394.983 57.8474C395.317 58.033 395.57 58.2451 395.745 58.4838C395.923 58.7186 396.061 58.9118 396.159 59.0633H396.273V54.7679H397.614V66.4042H396.319V65.0633H396.159C396.061 65.2224 395.921 65.4232 395.739 65.6656C395.557 65.9042 395.298 66.1183 394.961 66.3076C394.624 66.4933 394.175 66.5861 393.614 66.5861ZM393.796 65.3815C394.334 65.3815 394.788 65.2414 395.159 64.9611C395.531 64.677 395.813 64.2849 396.006 63.7849C396.199 63.2811 396.296 62.6997 396.296 62.0406C396.296 61.3891 396.201 60.819 396.012 60.3304C395.822 59.8379 395.542 59.4554 395.171 59.1826C394.8 58.9061 394.341 58.7679 393.796 58.7679C393.228 58.7679 392.754 58.9137 392.375 59.2054C392 59.4933 391.718 59.8853 391.529 60.3815C391.343 60.8739 391.25 61.427 391.25 62.0406C391.25 62.6618 391.345 63.2262 391.534 63.7338C391.728 64.2376 392.012 64.6391 392.387 64.9383C392.766 65.2338 393.235 65.3815 393.796 65.3815ZM401.597 61.1542V66.4042H400.256V54.7679H401.597V59.0406H401.711C401.915 58.5898 402.222 58.2319 402.631 57.9667C403.044 57.6978 403.593 57.5633 404.279 57.5633C404.874 57.5633 405.394 57.6826 405.841 57.9213C406.288 58.1561 406.635 58.5179 406.881 59.0065C407.131 59.4914 407.256 60.1088 407.256 60.8588V66.4042H405.915V60.9497C405.915 60.2565 405.735 59.7205 405.375 59.3417C405.019 58.9592 404.525 58.7679 403.892 58.7679C403.453 58.7679 403.059 58.8607 402.711 59.0463C402.366 59.2319 402.093 59.5027 401.892 59.8588C401.695 60.2148 401.597 60.6467 401.597 61.1542ZM413.368 66.5861C412.527 66.5861 411.802 66.4004 411.192 66.0292C410.586 65.6542 410.118 65.1315 409.789 64.4611C409.463 63.7868 409.3 63.0027 409.3 62.1088C409.3 61.2148 409.463 60.427 409.789 59.7451C410.118 59.0595 410.577 58.5254 411.164 58.1429C411.755 57.7565 412.444 57.5633 413.232 57.5633C413.686 57.5633 414.135 57.6391 414.579 57.7906C415.022 57.9421 415.425 58.1883 415.789 58.5292C416.152 58.8664 416.442 59.3133 416.658 59.8701C416.874 60.427 416.982 61.1126 416.982 61.927V62.4951H410.255V61.3361H415.618C415.618 60.8436 415.52 60.4042 415.323 60.0179C415.13 59.6315 414.853 59.3266 414.493 59.1031C414.137 58.8796 413.717 58.7679 413.232 58.7679C412.698 58.7679 412.236 58.9004 411.846 59.1656C411.459 59.427 411.162 59.7679 410.954 60.1883C410.745 60.6088 410.641 61.0595 410.641 61.5406V62.3133C410.641 62.9724 410.755 63.5311 410.982 63.9895C411.213 64.444 411.533 64.7906 411.942 65.0292C412.351 65.2641 412.827 65.3815 413.368 65.3815C413.721 65.3815 414.039 65.3323 414.323 65.2338C414.611 65.1315 414.859 64.98 415.067 64.7792C415.275 64.5747 415.436 64.3209 415.55 64.0179L416.846 64.3815C416.709 64.8209 416.48 65.2073 416.158 65.5406C415.836 65.8701 415.438 66.1277 414.965 66.3133C414.491 66.4951 413.959 66.5861 413.368 66.5861ZM425.204 59.6315L423.999 59.9724C423.923 59.7717 423.811 59.5766 423.664 59.3872C423.52 59.194 423.323 59.0349 423.073 58.9099C422.823 58.7849 422.503 58.7224 422.113 58.7224C421.579 58.7224 421.133 58.8455 420.777 59.0917C420.425 59.3342 420.249 59.6429 420.249 60.0179C420.249 60.3512 420.37 60.6145 420.613 60.8076C420.855 61.0008 421.234 61.1618 421.749 61.2906L423.044 61.6088C423.825 61.7982 424.406 62.0879 424.789 62.4781C425.171 62.8645 425.363 63.3626 425.363 63.9724C425.363 64.4724 425.219 64.9194 424.931 65.3133C424.647 65.7073 424.249 66.0179 423.738 66.2451C423.226 66.4724 422.632 66.5861 421.954 66.5861C421.063 66.5861 420.327 66.3929 419.743 66.0065C419.16 65.6201 418.791 65.0558 418.635 64.3133L419.908 63.9951C420.029 64.4648 420.258 64.8171 420.596 65.052C420.936 65.2868 421.382 65.4042 421.931 65.4042C422.556 65.4042 423.052 65.2717 423.419 65.0065C423.791 64.7376 423.976 64.4156 423.976 64.0406C423.976 63.7376 423.87 63.4838 423.658 63.2792C423.446 63.0709 423.12 62.9156 422.681 62.8133L421.226 62.4724C420.427 62.283 419.84 61.9895 419.465 61.5917C419.094 61.1902 418.908 60.6883 418.908 60.0861C418.908 59.5936 419.046 59.158 419.323 58.7792C419.603 58.4004 419.984 58.1031 420.465 57.8872C420.95 57.6713 421.499 57.5633 422.113 57.5633C422.976 57.5633 423.654 57.7527 424.147 58.1315C424.643 58.5103 424.995 59.0103 425.204 59.6315ZM427.381 66.4042V57.677H428.722V66.4042H427.381ZM428.063 56.2224C427.802 56.2224 427.576 56.1334 427.387 55.9554C427.201 55.7773 427.108 55.5633 427.108 55.3133C427.108 55.0633 427.201 54.8493 427.387 54.6713C427.576 54.4933 427.802 54.4042 428.063 54.4042C428.324 54.4042 428.548 54.4933 428.733 54.6713C428.923 54.8493 429.017 55.0633 429.017 55.3133C429.017 55.5633 428.923 55.7773 428.733 55.9554C428.548 56.1334 428.324 56.2224 428.063 56.2224ZM438.314 57.677L435.087 66.4042H433.723L430.496 57.677H431.951L434.36 64.6315H434.451L436.86 57.677H438.314ZM443.431 66.5861C442.59 66.5861 441.865 66.4004 441.255 66.0292C440.649 65.6542 440.181 65.1315 439.851 64.4611C439.525 63.7868 439.363 63.0027 439.363 62.1088C439.363 61.2148 439.525 60.427 439.851 59.7451C440.181 59.0595 440.639 58.5254 441.226 58.1429C441.817 57.7565 442.507 57.5633 443.294 57.5633C443.749 57.5633 444.198 57.6391 444.641 57.7906C445.084 57.9421 445.488 58.1883 445.851 58.5292C446.215 58.8664 446.505 59.3133 446.721 59.8701C446.936 60.427 447.044 61.1126 447.044 61.927V62.4951H440.317V61.3361H445.681C445.681 60.8436 445.582 60.4042 445.385 60.0179C445.192 59.6315 444.916 59.3266 444.556 59.1031C444.2 58.8796 443.779 58.7679 443.294 58.7679C442.76 58.7679 442.298 58.9004 441.908 59.1656C441.522 59.427 441.224 59.7679 441.016 60.1883C440.808 60.6088 440.704 61.0595 440.704 61.5406V62.3133C440.704 62.9724 440.817 63.5311 441.044 63.9895C441.275 64.444 441.596 64.7906 442.005 65.0292C442.414 65.2641 442.889 65.3815 443.431 65.3815C443.783 65.3815 444.101 65.3323 444.385 65.2338C444.673 65.1315 444.921 64.98 445.13 64.7792C445.338 64.5747 445.499 64.3209 445.613 64.0179L446.908 64.3815C446.772 64.8209 446.543 65.2073 446.221 65.5406C445.899 65.8701 445.501 66.1277 445.027 66.3133C444.554 66.4951 444.022 66.5861 443.431 66.5861Z" fill="#455A64"/>
<g filter="url(#filter2_d_873_2596)">
<line x1="263.261" y1="116.077" x2="292.576" y2="69.8627" stroke="#728389" stroke-width="0.904192"/>
</g>
<g filter="url(#filter3_d_873_2596)">
<line x1="190.177" y1="125.758" x2="285.48" y2="64.2997" stroke="#728389" stroke-width="0.904192"/>
</g>
</g>
<defs>
<filter id="filter0_d_873_2596" x="218.8" y="94.9624" width="58.2899" height="32.6941" filterUnits="userSpaceOnUse" color-interpolation-filters="sRGB">
<feFlood flood-opacity="0" result="BackgroundImageFix"/>
<feColorMatrix in="SourceAlpha" type="matrix" values="0 0 0 0 0 0 0 0 0 0 0 0 0 0 0 0 0 0 127 0" result="hardAlpha"/>
<feOffset dy="2.71257"/>
<feGaussianBlur stdDeviation="1.35629"/>
<feComposite in2="hardAlpha" operator="out"/>
<feColorMatrix type="matrix" values="0 0 0 0 0 0 0 0 0 0 0 0 0 0 0 0 0 0 0.3 0"/>
<feBlend mode="normal" in2="BackgroundImageFix" result="effect1_dropShadow_873_2596"/>
<feBlend mode="normal" in="SourceGraphic" in2="effect1_dropShadow_873_2596" result="shape"/>
</filter>
<filter id="filter1_d_873_2596" x="146.342" y="104.745" width="60.0983" height="34.5026" filterUnits="userSpaceOnUse" color-interpolation-filters="sRGB">
<feFlood flood-opacity="0" result="BackgroundImageFix"/>
<feColorMatrix in="SourceAlpha" type="matrix" values="0 0 0 0 0 0 0 0 0 0 0 0 0 0 0 0 0 0 127 0" result="hardAlpha"/>
<feOffset dy="3.61677"/>
<feGaussianBlur stdDeviation="1.80838"/>
<feComposite in2="hardAlpha" operator="out"/>
<feColorMatrix type="matrix" values="0 0 0 0 0 0 0 0 0 0 0 0 0 0 0 0 0 0 0.4 0"/>
<feBlend mode="normal" in2="BackgroundImageFix" result="effect1_dropShadow_873_2596"/>
<feBlend mode="normal" in="SourceGraphic" in2="effect1_dropShadow_873_2596" result="shape"/>
</filter>
<filter id="filter2_d_873_2596" x="261.071" y="69.6205" width="33.6961" height="50.3151" filterUnits="userSpaceOnUse" color-interpolation-filters="sRGB">
<feFlood flood-opacity="0" result="BackgroundImageFix"/>
<feColorMatrix in="SourceAlpha" type="matrix" values="0 0 0 0 0 0 0 0 0 0 0 0 0 0 0 0 0 0 127 0" result="hardAlpha"/>
<feOffset dy="1.80838"/>
<feGaussianBlur stdDeviation="0.904192"/>
<feComposite in2="hardAlpha" operator="out"/>
<feColorMatrix type="matrix" values="0 0 0 0 0 0 0 0 0 0 0 0 0 0 0 0 0 0 0.4 0"/>
<feBlend mode="normal" in2="BackgroundImageFix" result="effect1_dropShadow_873_2596"/>
<feBlend mode="normal" in="SourceGraphic" in2="effect1_dropShadow_873_2596" result="shape"/>
</filter>
<filter id="filter3_d_873_2596" x="188.123" y="63.9197" width="99.4097" height="65.8352" filterUnits="userSpaceOnUse" color-interpolation-filters="sRGB">
<feFlood flood-opacity="0" result="BackgroundImageFix"/>
<feColorMatrix in="SourceAlpha" type="matrix" values="0 0 0 0 0 0 0 0 0 0 0 0 0 0 0 0 0 0 127 0" result="hardAlpha"/>
<feOffset dy="1.80838"/>
<feGaussianBlur stdDeviation="0.904192"/>
<feComposite in2="hardAlpha" operator="out"/>
<feColorMatrix type="matrix" values="0 0 0 0 0 0 0 0 0 0 0 0 0 0 0 0 0 0 0.4 0"/>
<feBlend mode="normal" in2="BackgroundImageFix" result="effect1_dropShadow_873_2596"/>
<feBlend mode="normal" in="SourceGraphic" in2="effect1_dropShadow_873_2596" result="shape"/>
</filter>
<linearGradient id="paint0_linear_873_2596" x1="73.8876" y1="-26.1343" x2="160.664" y2="87.8271" gradientUnits="userSpaceOnUse">
<stop stop-color="#316489"/>
<stop offset="1" stop-color="#4C96CC"/>
</linearGradient>
<linearGradient id="paint1_linear_873_2596" x1="73.8876" y1="-22.7153" x2="160.664" y2="91.2462" gradientUnits="userSpaceOnUse">
<stop stop-color="#316489"/>
<stop offset="1" stop-color="#4C96CC"/>
</linearGradient>
<linearGradient id="paint2_linear_873_2596" x1="116.867" y1="19.9222" x2="116.867" y2="66.488" gradientUnits="userSpaceOnUse">
<stop stop-color="#316489"/>
<stop offset="1" stop-color="#4C96CC"/>
</linearGradient>
<linearGradient id="paint3_linear_873_2596" x1="176.107" y1="58.3555" x2="262.884" y2="172.317" gradientUnits="userSpaceOnUse">
<stop stop-color="#316489"/>
<stop offset="1" stop-color="#4C96CC"/>
</linearGradient>
<linearGradient id="paint4_linear_873_2596" x1="176.107" y1="61.7744" x2="262.884" y2="175.736" gradientUnits="userSpaceOnUse">
<stop stop-color="#316489"/>
<stop offset="1" stop-color="#4C96CC"/>
</linearGradient>
<linearGradient id="paint5_linear_873_2596" x1="219.101" y1="105.368" x2="219.101" y2="151.482" gradientUnits="userSpaceOnUse">
<stop stop-color="#316489"/>
<stop offset="1" stop-color="#4C96CC"/>
</linearGradient>
<linearGradient id="paint6_linear_873_2596" x1="277.242" y1="143.931" x2="364.018" y2="257.892" gradientUnits="userSpaceOnUse">
<stop stop-color="#316489"/>
<stop offset="1" stop-color="#4C96CC"/>
</linearGradient>
<linearGradient id="paint7_linear_873_2596" x1="277.242" y1="147.35" x2="364.018" y2="261.311" gradientUnits="userSpaceOnUse">
<stop stop-color="#316489"/>
<stop offset="1" stop-color="#4C96CC"/>
</linearGradient>
<linearGradient id="paint8_linear_873_2596" x1="320.31" y1="190.362" x2="320.31" y2="236.332" gradientUnits="userSpaceOnUse">
<stop stop-color="#316489"/>
<stop offset="1" stop-color="#4C96CC"/>
</linearGradient>
</defs>
</svg>
