<svg width="563" height="139" viewBox="0 0 563 139" fill="none" xmlns="http://www.w3.org/2000/svg">
<rect x="99" y="35" width="331" height="81" fill="#717171"/>
<rect x="99" y="45" width="223" height="32" rx="5" fill="#F0F0F0"/>
<rect x="99" y="84" width="223" height="32" fill="#455A64"/>
<rect x="98" width="332" height="38" rx="5" fill="#D9D9D9"/>
<rect x="98" width="332" height="38" rx="5" fill="url(#paint0_linear_797_639)"/>
<rect x="430" y="139" width="332" height="38" rx="5" transform="rotate(-180 430 139)" fill="#D9D9D9"/>
<rect x="430" y="139" width="332" height="38" rx="5" transform="rotate(-180 430 139)" fill="url(#paint1_linear_797_639)"/>
<rect x="98" y="38" width="224" height="7" fill="#728389"/>
<rect x="98" y="77" width="224" height="7" fill="#728389"/>
<rect x="107" y="89" width="37" height="12" fill="#687ECA"/>
<rect x="162" y="89" width="37" height="12" fill="#BB6868"/>
<rect x="217" y="89" width="37" height="12" fill="#5FC282"/>
<rect x="272" y="89" width="37" height="12" fill="#687ECA"/>
<circle cx="142" cy="61" r="16" fill="url(#paint2_radial_797_639)"/>
<circle cx="206" cy="61" r="16" fill="url(#paint3_radial_797_639)"/>
<circle cx="270" cy="61" r="16" fill="url(#paint4_radial_797_639)"/>
<circle cx="377.5" cy="69.5" r="31.5" fill="url(#paint5_radial_797_639)"/>
<path d="M214.364 118C214.239 117.617 214.074 117.275 213.869 116.972C213.669 116.665 213.428 116.403 213.148 116.188C212.871 115.972 212.557 115.807 212.205 115.693C211.852 115.58 211.466 115.523 211.045 115.523C210.356 115.523 209.729 115.701 209.165 116.057C208.6 116.413 208.152 116.938 207.818 117.631C207.485 118.324 207.318 119.174 207.318 120.182C207.318 121.189 207.487 122.04 207.824 122.733C208.161 123.426 208.617 123.951 209.193 124.307C209.769 124.663 210.417 124.841 211.136 124.841C211.803 124.841 212.39 124.699 212.898 124.415C213.409 124.127 213.807 123.722 214.091 123.199C214.379 122.672 214.523 122.053 214.523 121.341L214.955 121.432H211.455V120.182H215.886V121.432C215.886 122.39 215.682 123.223 215.273 123.932C214.867 124.64 214.307 125.189 213.591 125.58C212.879 125.966 212.061 126.159 211.136 126.159C210.106 126.159 209.201 125.917 208.42 125.432C207.644 124.947 207.038 124.258 206.602 123.364C206.17 122.47 205.955 121.409 205.955 120.182C205.955 119.261 206.078 118.434 206.324 117.699C206.574 116.96 206.926 116.331 207.381 115.812C207.835 115.294 208.373 114.896 208.994 114.619C209.616 114.343 210.299 114.205 211.045 114.205C211.659 114.205 212.231 114.297 212.761 114.483C213.295 114.665 213.771 114.924 214.188 115.261C214.608 115.595 214.958 115.994 215.239 116.46C215.519 116.922 215.712 117.436 215.818 118H214.364ZM219.459 114.364V126H218.118V114.364H219.459ZM224.483 126.205C223.93 126.205 223.428 126.1 222.977 125.892C222.527 125.68 222.169 125.375 221.903 124.977C221.638 124.576 221.506 124.091 221.506 123.523C221.506 123.023 221.604 122.617 221.801 122.307C221.998 121.992 222.261 121.746 222.591 121.568C222.92 121.39 223.284 121.258 223.682 121.17C224.083 121.08 224.487 121.008 224.892 120.955C225.422 120.886 225.852 120.835 226.182 120.801C226.515 120.763 226.758 120.701 226.909 120.614C227.064 120.527 227.142 120.375 227.142 120.159V120.114C227.142 119.553 226.989 119.117 226.682 118.807C226.379 118.496 225.919 118.341 225.301 118.341C224.661 118.341 224.159 118.481 223.795 118.761C223.432 119.042 223.176 119.341 223.028 119.659L221.756 119.205C221.983 118.674 222.286 118.261 222.665 117.966C223.047 117.667 223.464 117.458 223.915 117.341C224.369 117.22 224.816 117.159 225.256 117.159C225.536 117.159 225.858 117.193 226.222 117.261C226.589 117.326 226.943 117.46 227.284 117.665C227.629 117.869 227.915 118.178 228.142 118.591C228.369 119.004 228.483 119.557 228.483 120.25V126H227.142V124.818H227.074C226.983 125.008 226.831 125.21 226.619 125.426C226.407 125.642 226.125 125.826 225.773 125.977C225.42 126.129 224.991 126.205 224.483 126.205ZM224.688 125C225.218 125 225.665 124.896 226.028 124.688C226.396 124.479 226.672 124.21 226.858 123.881C227.047 123.551 227.142 123.205 227.142 122.841V121.614C227.085 121.682 226.96 121.744 226.767 121.801C226.578 121.854 226.358 121.902 226.108 121.943C225.862 121.981 225.621 122.015 225.386 122.045C225.155 122.072 224.968 122.095 224.824 122.114C224.475 122.159 224.15 122.233 223.847 122.335C223.547 122.434 223.305 122.583 223.119 122.784C222.938 122.981 222.847 123.25 222.847 123.591C222.847 124.057 223.019 124.409 223.364 124.648C223.712 124.883 224.153 125 224.688 125ZM237.112 119.227L235.908 119.568C235.832 119.367 235.72 119.172 235.572 118.983C235.429 118.79 235.232 118.631 234.982 118.506C234.732 118.381 234.411 118.318 234.021 118.318C233.487 118.318 233.042 118.441 232.686 118.688C232.334 118.93 232.158 119.239 232.158 119.614C232.158 119.947 232.279 120.21 232.521 120.403C232.764 120.597 233.143 120.758 233.658 120.886L234.953 121.205C235.733 121.394 236.315 121.684 236.697 122.074C237.08 122.46 237.271 122.958 237.271 123.568C237.271 124.068 237.127 124.515 236.839 124.909C236.555 125.303 236.158 125.614 235.646 125.841C235.135 126.068 234.54 126.182 233.862 126.182C232.972 126.182 232.235 125.989 231.652 125.602C231.069 125.216 230.699 124.652 230.544 123.909L231.817 123.591C231.938 124.061 232.167 124.413 232.504 124.648C232.845 124.883 233.29 125 233.839 125C234.464 125 234.961 124.867 235.328 124.602C235.699 124.333 235.885 124.011 235.885 123.636C235.885 123.333 235.779 123.08 235.567 122.875C235.355 122.667 235.029 122.511 234.589 122.409L233.135 122.068C232.336 121.879 231.749 121.585 231.374 121.188C231.002 120.786 230.817 120.284 230.817 119.682C230.817 119.189 230.955 118.754 231.232 118.375C231.512 117.996 231.893 117.699 232.374 117.483C232.858 117.267 233.408 117.159 234.021 117.159C234.885 117.159 235.563 117.348 236.055 117.727C236.552 118.106 236.904 118.606 237.112 119.227ZM245.472 119.227L244.267 119.568C244.191 119.367 244.08 119.172 243.932 118.983C243.788 118.79 243.591 118.631 243.341 118.506C243.091 118.381 242.771 118.318 242.381 118.318C241.847 118.318 241.402 118.441 241.045 118.688C240.693 118.93 240.517 119.239 240.517 119.614C240.517 119.947 240.638 120.21 240.881 120.403C241.123 120.597 241.502 120.758 242.017 120.886L243.312 121.205C244.093 121.394 244.674 121.684 245.057 122.074C245.439 122.46 245.631 122.958 245.631 123.568C245.631 124.068 245.487 124.515 245.199 124.909C244.915 125.303 244.517 125.614 244.006 125.841C243.494 126.068 242.9 126.182 242.222 126.182C241.331 126.182 240.595 125.989 240.011 125.602C239.428 125.216 239.059 124.652 238.903 123.909L240.176 123.591C240.297 124.061 240.527 124.413 240.864 124.648C241.205 124.883 241.65 125 242.199 125C242.824 125 243.32 124.867 243.688 124.602C244.059 124.333 244.244 124.011 244.244 123.636C244.244 123.333 244.138 123.08 243.926 122.875C243.714 122.667 243.388 122.511 242.949 122.409L241.494 122.068C240.695 121.879 240.108 121.585 239.733 121.188C239.362 120.786 239.176 120.284 239.176 119.682C239.176 119.189 239.314 118.754 239.591 118.375C239.871 117.996 240.252 117.699 240.733 117.483C241.218 117.267 241.767 117.159 242.381 117.159C243.244 117.159 243.922 117.348 244.415 117.727C244.911 118.106 245.263 118.606 245.472 119.227ZM258.331 119.227L257.126 119.568C257.051 119.367 256.939 119.172 256.791 118.983C256.647 118.79 256.45 118.631 256.2 118.506C255.95 118.381 255.63 118.318 255.24 118.318C254.706 118.318 254.261 118.441 253.905 118.688C253.553 118.93 253.376 119.239 253.376 119.614C253.376 119.947 253.498 120.21 253.74 120.403C253.982 120.597 254.361 120.758 254.876 120.886L256.172 121.205C256.952 121.394 257.534 121.684 257.916 122.074C258.299 122.46 258.49 122.958 258.49 123.568C258.49 124.068 258.346 124.515 258.058 124.909C257.774 125.303 257.376 125.614 256.865 125.841C256.354 126.068 255.759 126.182 255.081 126.182C254.191 126.182 253.454 125.989 252.871 125.602C252.287 125.216 251.918 124.652 251.763 123.909L253.036 123.591C253.157 124.061 253.386 124.413 253.723 124.648C254.064 124.883 254.509 125 255.058 125C255.683 125 256.179 124.867 256.547 124.602C256.918 124.333 257.104 124.011 257.104 123.636C257.104 123.333 256.998 123.08 256.786 122.875C256.573 122.667 256.248 122.511 255.808 122.409L254.354 122.068C253.554 121.879 252.967 121.585 252.592 121.188C252.221 120.786 252.036 120.284 252.036 119.682C252.036 119.189 252.174 118.754 252.45 118.375C252.731 117.996 253.111 117.699 253.592 117.483C254.077 117.267 254.626 117.159 255.24 117.159C256.104 117.159 256.782 117.348 257.274 117.727C257.77 118.106 258.123 118.606 258.331 119.227ZM266.009 122.432V117.273H267.349V126H266.009V124.523H265.918C265.713 124.966 265.395 125.343 264.963 125.653C264.531 125.96 263.986 126.114 263.327 126.114C262.781 126.114 262.296 125.994 261.872 125.756C261.448 125.513 261.115 125.15 260.872 124.665C260.63 124.176 260.509 123.561 260.509 122.818V117.273H261.849V122.727C261.849 123.364 262.027 123.871 262.384 124.25C262.743 124.629 263.202 124.818 263.759 124.818C264.092 124.818 264.431 124.733 264.776 124.562C265.124 124.392 265.416 124.131 265.651 123.778C265.889 123.426 266.009 122.977 266.009 122.432ZM269.987 126V114.364H271.328V118.659H271.442C271.54 118.508 271.677 118.314 271.851 118.08C272.029 117.841 272.283 117.629 272.612 117.443C272.946 117.254 273.396 117.159 273.964 117.159C274.699 117.159 275.347 117.343 275.908 117.71C276.468 118.078 276.906 118.598 277.22 119.273C277.535 119.947 277.692 120.742 277.692 121.659C277.692 122.583 277.535 123.384 277.22 124.062C276.906 124.737 276.47 125.259 275.913 125.631C275.357 125.998 274.714 126.182 273.987 126.182C273.427 126.182 272.978 126.089 272.641 125.903C272.304 125.714 272.044 125.5 271.862 125.261C271.68 125.019 271.54 124.818 271.442 124.659H271.283V126H269.987ZM271.305 121.636C271.305 122.295 271.402 122.877 271.595 123.381C271.788 123.881 272.071 124.273 272.442 124.557C272.813 124.837 273.268 124.977 273.805 124.977C274.366 124.977 274.834 124.83 275.209 124.534C275.588 124.235 275.872 123.833 276.061 123.33C276.254 122.822 276.351 122.258 276.351 121.636C276.351 121.023 276.256 120.47 276.067 119.977C275.881 119.481 275.599 119.089 275.22 118.801C274.845 118.509 274.374 118.364 273.805 118.364C273.26 118.364 272.802 118.502 272.43 118.778C272.059 119.051 271.779 119.434 271.589 119.926C271.4 120.415 271.305 120.985 271.305 121.636ZM285.925 119.227L284.72 119.568C284.644 119.367 284.533 119.172 284.385 118.983C284.241 118.79 284.044 118.631 283.794 118.506C283.544 118.381 283.224 118.318 282.834 118.318C282.3 118.318 281.855 118.441 281.499 118.688C281.146 118.93 280.97 119.239 280.97 119.614C280.97 119.947 281.091 120.21 281.334 120.403C281.576 120.597 281.955 120.758 282.47 120.886L283.766 121.205C284.546 121.394 285.127 121.684 285.51 122.074C285.893 122.46 286.084 122.958 286.084 123.568C286.084 124.068 285.94 124.515 285.652 124.909C285.368 125.303 284.97 125.614 284.459 125.841C283.947 126.068 283.353 126.182 282.675 126.182C281.785 126.182 281.048 125.989 280.464 125.602C279.881 125.216 279.512 124.652 279.357 123.909L280.629 123.591C280.75 124.061 280.98 124.413 281.317 124.648C281.658 124.883 282.103 125 282.652 125C283.277 125 283.773 124.867 284.141 124.602C284.512 124.333 284.697 124.011 284.697 123.636C284.697 123.333 284.591 123.08 284.379 122.875C284.167 122.667 283.841 122.511 283.402 122.409L281.947 122.068C281.148 121.879 280.561 121.585 280.186 121.188C279.815 120.786 279.629 120.284 279.629 119.682C279.629 119.189 279.768 118.754 280.044 118.375C280.324 117.996 280.705 117.699 281.186 117.483C281.671 117.267 282.22 117.159 282.834 117.159C283.697 117.159 284.375 117.348 284.868 117.727C285.364 118.106 285.716 118.606 285.925 119.227ZM291.898 117.273V118.409H287.375V117.273H291.898ZM288.693 115.182H290.034V123.5C290.034 123.879 290.089 124.163 290.199 124.352C290.313 124.538 290.456 124.663 290.631 124.727C290.809 124.788 290.996 124.818 291.193 124.818C291.341 124.818 291.462 124.811 291.557 124.795C291.652 124.777 291.727 124.761 291.784 124.75L292.057 125.955C291.966 125.989 291.839 126.023 291.676 126.057C291.513 126.095 291.307 126.114 291.057 126.114C290.678 126.114 290.307 126.032 289.943 125.869C289.583 125.706 289.284 125.458 289.045 125.125C288.811 124.792 288.693 124.371 288.693 123.864V115.182ZM293.915 126V117.273H295.21V118.591H295.301C295.46 118.159 295.748 117.809 296.165 117.54C296.581 117.271 297.051 117.136 297.574 117.136C297.672 117.136 297.795 117.138 297.943 117.142C298.091 117.146 298.203 117.152 298.278 117.159V118.523C298.233 118.511 298.129 118.494 297.966 118.472C297.807 118.445 297.638 118.432 297.46 118.432C297.036 118.432 296.657 118.521 296.324 118.699C295.994 118.873 295.733 119.116 295.54 119.426C295.35 119.733 295.256 120.083 295.256 120.477V126H293.915ZM302.436 126.205C301.883 126.205 301.381 126.1 300.93 125.892C300.48 125.68 300.122 125.375 299.857 124.977C299.591 124.576 299.459 124.091 299.459 123.523C299.459 123.023 299.557 122.617 299.754 122.307C299.951 121.992 300.214 121.746 300.544 121.568C300.874 121.39 301.237 121.258 301.635 121.17C302.036 121.08 302.44 121.008 302.845 120.955C303.375 120.886 303.805 120.835 304.135 120.801C304.468 120.763 304.711 120.701 304.862 120.614C305.018 120.527 305.095 120.375 305.095 120.159V120.114C305.095 119.553 304.942 119.117 304.635 118.807C304.332 118.496 303.872 118.341 303.254 118.341C302.614 118.341 302.112 118.481 301.749 118.761C301.385 119.042 301.129 119.341 300.982 119.659L299.709 119.205C299.936 118.674 300.239 118.261 300.618 117.966C301 117.667 301.417 117.458 301.868 117.341C302.322 117.22 302.769 117.159 303.209 117.159C303.489 117.159 303.811 117.193 304.175 117.261C304.542 117.326 304.896 117.46 305.237 117.665C305.582 117.869 305.868 118.178 306.095 118.591C306.322 119.004 306.436 119.557 306.436 120.25V126H305.095V124.818H305.027C304.936 125.008 304.785 125.21 304.572 125.426C304.36 125.642 304.078 125.826 303.726 125.977C303.374 126.129 302.944 126.205 302.436 126.205ZM302.641 125C303.171 125 303.618 124.896 303.982 124.688C304.349 124.479 304.625 124.21 304.811 123.881C305 123.551 305.095 123.205 305.095 122.841V121.614C305.038 121.682 304.913 121.744 304.72 121.801C304.531 121.854 304.311 121.902 304.061 121.943C303.815 121.981 303.574 122.015 303.339 122.045C303.108 122.072 302.921 122.095 302.777 122.114C302.429 122.159 302.103 122.233 301.8 122.335C301.5 122.434 301.258 122.583 301.072 122.784C300.891 122.981 300.8 123.25 300.8 123.591C300.8 124.057 300.972 124.409 301.317 124.648C301.665 124.883 302.107 125 302.641 125ZM312.679 117.273V118.409H308.156V117.273H312.679ZM309.474 115.182H310.815V123.5C310.815 123.879 310.87 124.163 310.98 124.352C311.094 124.538 311.238 124.663 311.412 124.727C311.59 124.788 311.777 124.818 311.974 124.818C312.122 124.818 312.243 124.811 312.338 124.795C312.433 124.777 312.509 124.761 312.565 124.75L312.838 125.955C312.747 125.989 312.62 126.023 312.457 126.057C312.295 126.095 312.088 126.114 311.838 126.114C311.459 126.114 311.088 126.032 310.724 125.869C310.365 125.706 310.065 125.458 309.827 125.125C309.592 124.792 309.474 124.371 309.474 123.864V115.182ZM318.261 126.182C317.42 126.182 316.695 125.996 316.085 125.625C315.479 125.25 315.011 124.727 314.682 124.057C314.356 123.383 314.193 122.598 314.193 121.705C314.193 120.811 314.356 120.023 314.682 119.341C315.011 118.655 315.47 118.121 316.057 117.739C316.648 117.352 317.337 117.159 318.125 117.159C318.58 117.159 319.028 117.235 319.472 117.386C319.915 117.538 320.318 117.784 320.682 118.125C321.045 118.462 321.335 118.909 321.551 119.466C321.767 120.023 321.875 120.708 321.875 121.523V122.091H315.148V120.932H320.511C320.511 120.439 320.413 120 320.216 119.614C320.023 119.227 319.746 118.922 319.386 118.699C319.03 118.475 318.61 118.364 318.125 118.364C317.591 118.364 317.129 118.496 316.739 118.761C316.352 119.023 316.055 119.364 315.847 119.784C315.638 120.205 315.534 120.655 315.534 121.136V121.909C315.534 122.568 315.648 123.127 315.875 123.585C316.106 124.04 316.426 124.386 316.835 124.625C317.244 124.86 317.72 124.977 318.261 124.977C318.614 124.977 318.932 124.928 319.216 124.83C319.504 124.727 319.752 124.576 319.96 124.375C320.169 124.17 320.33 123.917 320.443 123.614L321.739 123.977C321.602 124.417 321.373 124.803 321.051 125.136C320.729 125.466 320.331 125.723 319.858 125.909C319.384 126.091 318.852 126.182 318.261 126.182Z" fill="white"/>
<path d="M214.364 17C214.239 16.6174 214.074 16.2746 213.869 15.9716C213.669 15.6648 213.428 15.4034 213.148 15.1875C212.871 14.9716 212.557 14.8068 212.205 14.6932C211.852 14.5795 211.466 14.5227 211.045 14.5227C210.356 14.5227 209.729 14.7008 209.165 15.0568C208.6 15.4129 208.152 15.9375 207.818 16.6307C207.485 17.3239 207.318 18.1742 207.318 19.1818C207.318 20.1894 207.487 21.0398 207.824 21.733C208.161 22.4261 208.617 22.9508 209.193 23.3068C209.769 23.6629 210.417 23.8409 211.136 23.8409C211.803 23.8409 212.39 23.6989 212.898 23.4148C213.409 23.1269 213.807 22.7216 214.091 22.1989C214.379 21.6723 214.523 21.053 214.523 20.3409L214.955 20.4318H211.455V19.1818H215.886V20.4318C215.886 21.3902 215.682 22.2235 215.273 22.9318C214.867 23.6402 214.307 24.1894 213.591 24.5795C212.879 24.9659 212.061 25.1591 211.136 25.1591C210.106 25.1591 209.201 24.9167 208.42 24.4318C207.644 23.947 207.038 23.2576 206.602 22.3636C206.17 21.4697 205.955 20.4091 205.955 19.1818C205.955 18.2614 206.078 17.4337 206.324 16.6989C206.574 15.9602 206.926 15.3314 207.381 14.8125C207.835 14.2936 208.373 13.8958 208.994 13.6193C209.616 13.3428 210.299 13.2045 211.045 13.2045C211.659 13.2045 212.231 13.2973 212.761 13.483C213.295 13.6648 213.771 13.9242 214.188 14.2614C214.608 14.5947 214.958 14.9943 215.239 15.4602C215.519 15.9223 215.712 16.4356 215.818 17H214.364ZM219.459 13.3636V25H218.118V13.3636H219.459ZM224.483 25.2045C223.93 25.2045 223.428 25.1004 222.977 24.892C222.527 24.6799 222.169 24.375 221.903 23.9773C221.638 23.5758 221.506 23.0909 221.506 22.5227C221.506 22.0227 221.604 21.6174 221.801 21.3068C221.998 20.9924 222.261 20.7462 222.591 20.5682C222.92 20.3902 223.284 20.2576 223.682 20.1705C224.083 20.0795 224.487 20.0076 224.892 19.9545C225.422 19.8864 225.852 19.8352 226.182 19.8011C226.515 19.7633 226.758 19.7008 226.909 19.6136C227.064 19.5265 227.142 19.375 227.142 19.1591V19.1136C227.142 18.553 226.989 18.1174 226.682 17.8068C226.379 17.4962 225.919 17.3409 225.301 17.3409C224.661 17.3409 224.159 17.4811 223.795 17.7614C223.432 18.0417 223.176 18.3409 223.028 18.6591L221.756 18.2045C221.983 17.6742 222.286 17.2614 222.665 16.9659C223.047 16.6667 223.464 16.4583 223.915 16.3409C224.369 16.2197 224.816 16.1591 225.256 16.1591C225.536 16.1591 225.858 16.1932 226.222 16.2614C226.589 16.3258 226.943 16.4602 227.284 16.6648C227.629 16.8693 227.915 17.178 228.142 17.5909C228.369 18.0038 228.483 18.5568 228.483 19.25V25H227.142V23.8182H227.074C226.983 24.0076 226.831 24.2102 226.619 24.4261C226.407 24.642 226.125 24.8258 225.773 24.9773C225.42 25.1288 224.991 25.2045 224.483 25.2045ZM224.688 24C225.218 24 225.665 23.8958 226.028 23.6875C226.396 23.4792 226.672 23.2102 226.858 22.8807C227.047 22.5511 227.142 22.2045 227.142 21.8409V20.6136C227.085 20.6818 226.96 20.7443 226.767 20.8011C226.578 20.8542 226.358 20.9015 226.108 20.9432C225.862 20.9811 225.621 21.0152 225.386 21.0455C225.155 21.072 224.968 21.0947 224.824 21.1136C224.475 21.1591 224.15 21.233 223.847 21.3352C223.547 21.4337 223.305 21.5833 223.119 21.7841C222.938 21.9811 222.847 22.25 222.847 22.5909C222.847 23.0568 223.019 23.4091 223.364 23.6477C223.712 23.8826 224.153 24 224.688 24ZM237.112 18.2273L235.908 18.5682C235.832 18.3674 235.72 18.1723 235.572 17.983C235.429 17.7898 235.232 17.6307 234.982 17.5057C234.732 17.3807 234.411 17.3182 234.021 17.3182C233.487 17.3182 233.042 17.4413 232.686 17.6875C232.334 17.9299 232.158 18.2386 232.158 18.6136C232.158 18.947 232.279 19.2102 232.521 19.4034C232.764 19.5966 233.143 19.7576 233.658 19.8864L234.953 20.2045C235.733 20.3939 236.315 20.6837 236.697 21.0739C237.08 21.4602 237.271 21.9583 237.271 22.5682C237.271 23.0682 237.127 23.5152 236.839 23.9091C236.555 24.303 236.158 24.6136 235.646 24.8409C235.135 25.0682 234.54 25.1818 233.862 25.1818C232.972 25.1818 232.235 24.9886 231.652 24.6023C231.069 24.2159 230.699 23.6515 230.544 22.9091L231.817 22.5909C231.938 23.0606 232.167 23.4129 232.504 23.6477C232.845 23.8826 233.29 24 233.839 24C234.464 24 234.961 23.8674 235.328 23.6023C235.699 23.3333 235.885 23.0114 235.885 22.6364C235.885 22.3333 235.779 22.0795 235.567 21.875C235.355 21.6667 235.029 21.5114 234.589 21.4091L233.135 21.0682C232.336 20.8788 231.749 20.5852 231.374 20.1875C231.002 19.786 230.817 19.2841 230.817 18.6818C230.817 18.1894 230.955 17.7538 231.232 17.375C231.512 16.9962 231.893 16.6989 232.374 16.483C232.858 16.267 233.408 16.1591 234.021 16.1591C234.885 16.1591 235.563 16.3485 236.055 16.7273C236.552 17.1061 236.904 17.6061 237.112 18.2273ZM245.472 18.2273L244.267 18.5682C244.191 18.3674 244.08 18.1723 243.932 17.983C243.788 17.7898 243.591 17.6307 243.341 17.5057C243.091 17.3807 242.771 17.3182 242.381 17.3182C241.847 17.3182 241.402 17.4413 241.045 17.6875C240.693 17.9299 240.517 18.2386 240.517 18.6136C240.517 18.947 240.638 19.2102 240.881 19.4034C241.123 19.5966 241.502 19.7576 242.017 19.8864L243.312 20.2045C244.093 20.3939 244.674 20.6837 245.057 21.0739C245.439 21.4602 245.631 21.9583 245.631 22.5682C245.631 23.0682 245.487 23.5152 245.199 23.9091C244.915 24.303 244.517 24.6136 244.006 24.8409C243.494 25.0682 242.9 25.1818 242.222 25.1818C241.331 25.1818 240.595 24.9886 240.011 24.6023C239.428 24.2159 239.059 23.6515 238.903 22.9091L240.176 22.5909C240.297 23.0606 240.527 23.4129 240.864 23.6477C241.205 23.8826 241.65 24 242.199 24C242.824 24 243.32 23.8674 243.688 23.6023C244.059 23.3333 244.244 23.0114 244.244 22.6364C244.244 22.3333 244.138 22.0795 243.926 21.875C243.714 21.6667 243.388 21.5114 242.949 21.4091L241.494 21.0682C240.695 20.8788 240.108 20.5852 239.733 20.1875C239.362 19.786 239.176 19.2841 239.176 18.6818C239.176 18.1894 239.314 17.7538 239.591 17.375C239.871 16.9962 240.252 16.6989 240.733 16.483C241.218 16.267 241.767 16.1591 242.381 16.1591C243.244 16.1591 243.922 16.3485 244.415 16.7273C244.911 17.1061 245.263 17.6061 245.472 18.2273ZM258.331 18.2273L257.126 18.5682C257.051 18.3674 256.939 18.1723 256.791 17.983C256.647 17.7898 256.45 17.6307 256.2 17.5057C255.95 17.3807 255.63 17.3182 255.24 17.3182C254.706 17.3182 254.261 17.4413 253.905 17.6875C253.553 17.9299 253.376 18.2386 253.376 18.6136C253.376 18.947 253.498 19.2102 253.74 19.4034C253.982 19.5966 254.361 19.7576 254.876 19.8864L256.172 20.2045C256.952 20.3939 257.534 20.6837 257.916 21.0739C258.299 21.4602 258.49 21.9583 258.49 22.5682C258.49 23.0682 258.346 23.5152 258.058 23.9091C257.774 24.303 257.376 24.6136 256.865 24.8409C256.354 25.0682 255.759 25.1818 255.081 25.1818C254.191 25.1818 253.454 24.9886 252.871 24.6023C252.287 24.2159 251.918 23.6515 251.763 22.9091L253.036 22.5909C253.157 23.0606 253.386 23.4129 253.723 23.6477C254.064 23.8826 254.509 24 255.058 24C255.683 24 256.179 23.8674 256.547 23.6023C256.918 23.3333 257.104 23.0114 257.104 22.6364C257.104 22.3333 256.998 22.0795 256.786 21.875C256.573 21.6667 256.248 21.5114 255.808 21.4091L254.354 21.0682C253.554 20.8788 252.967 20.5852 252.592 20.1875C252.221 19.786 252.036 19.2841 252.036 18.6818C252.036 18.1894 252.174 17.7538 252.45 17.375C252.731 16.9962 253.111 16.6989 253.592 16.483C254.077 16.267 254.626 16.1591 255.24 16.1591C256.104 16.1591 256.782 16.3485 257.274 16.7273C257.77 17.1061 258.123 17.6061 258.331 18.2273ZM266.009 21.4318V16.2727H267.349V25H266.009V23.5227H265.918C265.713 23.9659 265.395 24.3428 264.963 24.6534C264.531 24.9602 263.986 25.1136 263.327 25.1136C262.781 25.1136 262.296 24.9943 261.872 24.7557C261.448 24.5133 261.115 24.1496 260.872 23.6648C260.63 23.1761 260.509 22.5606 260.509 21.8182V16.2727H261.849V21.7273C261.849 22.3636 262.027 22.8712 262.384 23.25C262.743 23.6288 263.202 23.8182 263.759 23.8182C264.092 23.8182 264.431 23.733 264.776 23.5625C265.124 23.392 265.416 23.1307 265.651 22.7784C265.889 22.4261 266.009 21.9773 266.009 21.4318ZM269.987 25V13.3636H271.328V17.6591H271.442C271.54 17.5076 271.677 17.3144 271.851 17.0795C272.029 16.8409 272.283 16.6288 272.612 16.4432C272.946 16.2538 273.396 16.1591 273.964 16.1591C274.699 16.1591 275.347 16.3428 275.908 16.7102C276.468 17.0777 276.906 17.5985 277.22 18.2727C277.535 18.947 277.692 19.7424 277.692 20.6591C277.692 21.5833 277.535 22.3845 277.22 23.0625C276.906 23.7367 276.47 24.2595 275.913 24.6307C275.357 24.9981 274.714 25.1818 273.987 25.1818C273.427 25.1818 272.978 25.089 272.641 24.9034C272.304 24.714 272.044 24.5 271.862 24.2614C271.68 24.0189 271.54 23.8182 271.442 23.6591H271.283V25H269.987ZM271.305 20.6364C271.305 21.2955 271.402 21.8769 271.595 22.3807C271.788 22.8807 272.071 23.2727 272.442 23.5568C272.813 23.8371 273.268 23.9773 273.805 23.9773C274.366 23.9773 274.834 23.8295 275.209 23.5341C275.588 23.2348 275.872 22.8333 276.061 22.3295C276.254 21.822 276.351 21.2576 276.351 20.6364C276.351 20.0227 276.256 19.4697 276.067 18.9773C275.881 18.4811 275.599 18.089 275.22 17.8011C274.845 17.5095 274.374 17.3636 273.805 17.3636C273.26 17.3636 272.802 17.5019 272.43 17.7784C272.059 18.0511 271.779 18.4337 271.589 18.9261C271.4 19.4148 271.305 19.9848 271.305 20.6364ZM285.925 18.2273L284.72 18.5682C284.644 18.3674 284.533 18.1723 284.385 17.983C284.241 17.7898 284.044 17.6307 283.794 17.5057C283.544 17.3807 283.224 17.3182 282.834 17.3182C282.3 17.3182 281.855 17.4413 281.499 17.6875C281.146 17.9299 280.97 18.2386 280.97 18.6136C280.97 18.947 281.091 19.2102 281.334 19.4034C281.576 19.5966 281.955 19.7576 282.47 19.8864L283.766 20.2045C284.546 20.3939 285.127 20.6837 285.51 21.0739C285.893 21.4602 286.084 21.9583 286.084 22.5682C286.084 23.0682 285.94 23.5152 285.652 23.9091C285.368 24.303 284.97 24.6136 284.459 24.8409C283.947 25.0682 283.353 25.1818 282.675 25.1818C281.785 25.1818 281.048 24.9886 280.464 24.6023C279.881 24.2159 279.512 23.6515 279.357 22.9091L280.629 22.5909C280.75 23.0606 280.98 23.4129 281.317 23.6477C281.658 23.8826 282.103 24 282.652 24C283.277 24 283.773 23.8674 284.141 23.6023C284.512 23.3333 284.697 23.0114 284.697 22.6364C284.697 22.3333 284.591 22.0795 284.379 21.875C284.167 21.6667 283.841 21.5114 283.402 21.4091L281.947 21.0682C281.148 20.8788 280.561 20.5852 280.186 20.1875C279.815 19.786 279.629 19.2841 279.629 18.6818C279.629 18.1894 279.768 17.7538 280.044 17.375C280.324 16.9962 280.705 16.6989 281.186 16.483C281.671 16.267 282.22 16.1591 282.834 16.1591C283.697 16.1591 284.375 16.3485 284.868 16.7273C285.364 17.1061 285.716 17.6061 285.925 18.2273ZM291.898 16.2727V17.4091H287.375V16.2727H291.898ZM288.693 14.1818H290.034V22.5C290.034 22.8788 290.089 23.1629 290.199 23.3523C290.313 23.5379 290.456 23.6629 290.631 23.7273C290.809 23.7879 290.996 23.8182 291.193 23.8182C291.341 23.8182 291.462 23.8106 291.557 23.7955C291.652 23.7765 291.727 23.7614 291.784 23.75L292.057 24.9545C291.966 24.9886 291.839 25.0227 291.676 25.0568C291.513 25.0947 291.307 25.1136 291.057 25.1136C290.678 25.1136 290.307 25.0322 289.943 24.8693C289.583 24.7064 289.284 24.4583 289.045 24.125C288.811 23.7917 288.693 23.3712 288.693 22.8636V14.1818ZM293.915 25V16.2727H295.21V17.5909H295.301C295.46 17.1591 295.748 16.8087 296.165 16.5398C296.581 16.2708 297.051 16.1364 297.574 16.1364C297.672 16.1364 297.795 16.1383 297.943 16.142C298.091 16.1458 298.203 16.1515 298.278 16.1591V17.5227C298.233 17.5114 298.129 17.4943 297.966 17.4716C297.807 17.4451 297.638 17.4318 297.46 17.4318C297.036 17.4318 296.657 17.5208 296.324 17.6989C295.994 17.8731 295.733 18.1155 295.54 18.4261C295.35 18.733 295.256 19.0833 295.256 19.4773V25H293.915ZM302.436 25.2045C301.883 25.2045 301.381 25.1004 300.93 24.892C300.48 24.6799 300.122 24.375 299.857 23.9773C299.591 23.5758 299.459 23.0909 299.459 22.5227C299.459 22.0227 299.557 21.6174 299.754 21.3068C299.951 20.9924 300.214 20.7462 300.544 20.5682C300.874 20.3902 301.237 20.2576 301.635 20.1705C302.036 20.0795 302.44 20.0076 302.845 19.9545C303.375 19.8864 303.805 19.8352 304.135 19.8011C304.468 19.7633 304.711 19.7008 304.862 19.6136C305.018 19.5265 305.095 19.375 305.095 19.1591V19.1136C305.095 18.553 304.942 18.1174 304.635 17.8068C304.332 17.4962 303.872 17.3409 303.254 17.3409C302.614 17.3409 302.112 17.4811 301.749 17.7614C301.385 18.0417 301.129 18.3409 300.982 18.6591L299.709 18.2045C299.936 17.6742 300.239 17.2614 300.618 16.9659C301 16.6667 301.417 16.4583 301.868 16.3409C302.322 16.2197 302.769 16.1591 303.209 16.1591C303.489 16.1591 303.811 16.1932 304.175 16.2614C304.542 16.3258 304.896 16.4602 305.237 16.6648C305.582 16.8693 305.868 17.178 306.095 17.5909C306.322 18.0038 306.436 18.5568 306.436 19.25V25H305.095V23.8182H305.027C304.936 24.0076 304.785 24.2102 304.572 24.4261C304.36 24.642 304.078 24.8258 303.726 24.9773C303.374 25.1288 302.944 25.2045 302.436 25.2045ZM302.641 24C303.171 24 303.618 23.8958 303.982 23.6875C304.349 23.4792 304.625 23.2102 304.811 22.8807C305 22.5511 305.095 22.2045 305.095 21.8409V20.6136C305.038 20.6818 304.913 20.7443 304.72 20.8011C304.531 20.8542 304.311 20.9015 304.061 20.9432C303.815 20.9811 303.574 21.0152 303.339 21.0455C303.108 21.072 302.921 21.0947 302.777 21.1136C302.429 21.1591 302.103 21.233 301.8 21.3352C301.5 21.4337 301.258 21.5833 301.072 21.7841C300.891 21.9811 300.8 22.25 300.8 22.5909C300.8 23.0568 300.972 23.4091 301.317 23.6477C301.665 23.8826 302.107 24 302.641 24ZM312.679 16.2727V17.4091H308.156V16.2727H312.679ZM309.474 14.1818H310.815V22.5C310.815 22.8788 310.87 23.1629 310.98 23.3523C311.094 23.5379 311.238 23.6629 311.412 23.7273C311.59 23.7879 311.777 23.8182 311.974 23.8182C312.122 23.8182 312.243 23.8106 312.338 23.7955C312.433 23.7765 312.509 23.7614 312.565 23.75L312.838 24.9545C312.747 24.9886 312.62 25.0227 312.457 25.0568C312.295 25.0947 312.088 25.1136 311.838 25.1136C311.459 25.1136 311.088 25.0322 310.724 24.8693C310.365 24.7064 310.065 24.4583 309.827 24.125C309.592 23.7917 309.474 23.3712 309.474 22.8636V14.1818ZM318.261 25.1818C317.42 25.1818 316.695 24.9962 316.085 24.625C315.479 24.25 315.011 23.7273 314.682 23.0568C314.356 22.3826 314.193 21.5985 314.193 20.7045C314.193 19.8106 314.356 19.0227 314.682 18.3409C315.011 17.6553 315.47 17.1212 316.057 16.7386C316.648 16.3523 317.337 16.1591 318.125 16.1591C318.58 16.1591 319.028 16.2348 319.472 16.3864C319.915 16.5379 320.318 16.7841 320.682 17.125C321.045 17.4621 321.335 17.9091 321.551 18.4659C321.767 19.0227 321.875 19.7083 321.875 20.5227V21.0909H315.148V19.9318H320.511C320.511 19.4394 320.413 19 320.216 18.6136C320.023 18.2273 319.746 17.9223 319.386 17.6989C319.03 17.4754 318.61 17.3636 318.125 17.3636C317.591 17.3636 317.129 17.4962 316.739 17.7614C316.352 18.0227 316.055 18.3636 315.847 18.7841C315.638 19.2045 315.534 19.6553 315.534 20.1364V20.9091C315.534 21.5682 315.648 22.1269 315.875 22.5852C316.106 23.0398 316.426 23.3864 316.835 23.625C317.244 23.8598 317.72 23.9773 318.261 23.9773C318.614 23.9773 318.932 23.928 319.216 23.8295C319.504 23.7273 319.752 23.5758 319.96 23.375C320.169 23.1705 320.33 22.9167 320.443 22.6136L321.739 22.9773C321.602 23.4167 321.373 23.803 321.051 24.1364C320.729 24.4659 320.331 24.7235 319.858 24.9091C319.384 25.0909 318.852 25.1818 318.261 25.1818Z" fill="white"/>
<path d="M451.409 90V78.3636H458.432V79.6136H452.818V83.5455H458.068V84.7955H452.818V88.75H458.523V90H451.409ZM460.79 93.2727V81.2727H462.085V82.6591H462.244C462.343 82.5076 462.479 82.3144 462.653 82.0795C462.831 81.8409 463.085 81.6288 463.415 81.4432C463.748 81.2538 464.199 81.1591 464.767 81.1591C465.502 81.1591 466.15 81.3428 466.71 81.7102C467.271 82.0777 467.708 82.5985 468.023 83.2727C468.337 83.947 468.494 84.7424 468.494 85.6591C468.494 86.5833 468.337 87.3845 468.023 88.0625C467.708 88.7367 467.273 89.2595 466.716 89.6307C466.159 89.9981 465.517 90.1818 464.79 90.1818C464.229 90.1818 463.78 90.089 463.443 89.9034C463.106 89.714 462.847 89.5 462.665 89.2614C462.483 89.0189 462.343 88.8182 462.244 88.6591H462.131V93.2727H460.79ZM462.108 85.6364C462.108 86.2955 462.205 86.8769 462.398 87.3807C462.591 87.8807 462.873 88.2727 463.244 88.5568C463.616 88.8371 464.07 88.9773 464.608 88.9773C465.169 88.9773 465.636 88.8295 466.011 88.5341C466.39 88.2348 466.674 87.8333 466.864 87.3295C467.057 86.822 467.153 86.2576 467.153 85.6364C467.153 85.0227 467.059 84.4697 466.869 83.9773C466.684 83.4811 466.402 83.089 466.023 82.8011C465.648 82.5095 465.176 82.3636 464.608 82.3636C464.063 82.3636 463.604 82.5019 463.233 82.7784C462.862 83.0511 462.581 83.4337 462.392 83.9261C462.203 84.4148 462.108 84.9848 462.108 85.6364ZM471.881 78.3636V90H470.54V78.3636H471.881ZM477.882 90.1818C477.094 90.1818 476.403 89.9943 475.808 89.6193C475.217 89.2443 474.755 88.7197 474.422 88.0455C474.092 87.3712 473.928 86.5833 473.928 85.6818C473.928 84.7727 474.092 83.9792 474.422 83.3011C474.755 82.6231 475.217 82.0966 475.808 81.7216C476.403 81.3466 477.094 81.1591 477.882 81.1591C478.67 81.1591 479.359 81.3466 479.95 81.7216C480.545 82.0966 481.007 82.6231 481.337 83.3011C481.67 83.9792 481.837 84.7727 481.837 85.6818C481.837 86.5833 481.67 87.3712 481.337 88.0455C481.007 88.7197 480.545 89.2443 479.95 89.6193C479.359 89.9943 478.67 90.1818 477.882 90.1818ZM477.882 88.9773C478.481 88.9773 478.973 88.8239 479.359 88.517C479.746 88.2102 480.032 87.8068 480.217 87.3068C480.403 86.8068 480.496 86.2652 480.496 85.6818C480.496 85.0985 480.403 84.5549 480.217 84.0511C480.032 83.5473 479.746 83.1402 479.359 82.8295C478.973 82.5189 478.481 82.3636 477.882 82.3636C477.284 82.3636 476.791 82.5189 476.405 82.8295C476.018 83.1402 475.732 83.5473 475.547 84.0511C475.361 84.5549 475.268 85.0985 475.268 85.6818C475.268 86.2652 475.361 86.8068 475.547 87.3068C475.732 87.8068 476.018 88.2102 476.405 88.517C476.791 88.8239 477.284 88.9773 477.882 88.9773ZM484.524 81.2727L486.615 84.8409L488.706 81.2727H490.251L487.433 85.6364L490.251 90H488.706L486.615 86.6136L484.524 90H482.979L485.751 85.6364L482.979 81.2727H484.524ZM493.028 93.2727C492.801 93.2727 492.598 93.2538 492.42 93.2159C492.242 93.1818 492.119 93.1477 492.051 93.1136L492.392 91.9318C492.718 92.0152 493.006 92.0455 493.256 92.0227C493.506 92 493.727 91.8883 493.92 91.6875C494.117 91.4905 494.297 91.1705 494.46 90.7273L494.71 90.0455L491.483 81.2727H492.938L495.347 88.2273H495.438L497.847 81.2727H499.301L495.597 91.2727C495.43 91.7235 495.223 92.0966 494.977 92.392C494.731 92.6913 494.445 92.9129 494.119 93.0568C493.797 93.2008 493.434 93.2727 493.028 93.2727ZM511.753 83.2273L510.548 83.5682C510.473 83.3674 510.361 83.1723 510.213 82.983C510.069 82.7898 509.872 82.6307 509.622 82.5057C509.372 82.3807 509.052 82.3182 508.662 82.3182C508.128 82.3182 507.683 82.4413 507.327 82.6875C506.974 82.9299 506.798 83.2386 506.798 83.6136C506.798 83.947 506.92 84.2102 507.162 84.4034C507.404 84.5966 507.783 84.7576 508.298 84.8864L509.594 85.2045C510.374 85.3939 510.955 85.6837 511.338 86.0739C511.721 86.4602 511.912 86.9583 511.912 87.5682C511.912 88.0682 511.768 88.5152 511.48 88.9091C511.196 89.303 510.798 89.6136 510.287 89.8409C509.776 90.0682 509.181 90.1818 508.503 90.1818C507.613 90.1818 506.876 89.9886 506.293 89.6023C505.709 89.2159 505.34 88.6515 505.185 87.9091L506.457 87.5909C506.579 88.0606 506.808 88.4129 507.145 88.6477C507.486 88.8826 507.931 89 508.48 89C509.105 89 509.601 88.8674 509.969 88.6023C510.34 88.3333 510.526 88.0114 510.526 87.6364C510.526 87.3333 510.42 87.0795 510.207 86.875C509.995 86.6667 509.67 86.5114 509.23 86.4091L507.776 86.0682C506.976 85.8788 506.389 85.5852 506.014 85.1875C505.643 84.786 505.457 84.2841 505.457 83.6818C505.457 83.1894 505.596 82.7538 505.872 82.375C506.152 81.9962 506.533 81.6989 507.014 81.483C507.499 81.267 508.048 81.1591 508.662 81.1591C509.526 81.1591 510.204 81.3485 510.696 81.7273C511.192 82.1061 511.545 82.6061 511.753 83.2273ZM517.589 90.1818C516.749 90.1818 516.023 89.9962 515.413 89.625C514.807 89.25 514.339 88.7273 514.01 88.0568C513.684 87.3826 513.521 86.5985 513.521 85.7045C513.521 84.8106 513.684 84.0227 514.01 83.3409C514.339 82.6553 514.798 82.1212 515.385 81.7386C515.976 81.3523 516.665 81.1591 517.453 81.1591C517.908 81.1591 518.357 81.2348 518.8 81.3864C519.243 81.5379 519.646 81.7841 520.01 82.125C520.374 82.4621 520.663 82.9091 520.879 83.4659C521.095 84.0227 521.203 84.7083 521.203 85.5227V86.0909H514.476V84.9318H519.839C519.839 84.4394 519.741 84 519.544 83.6136C519.351 83.2273 519.074 82.9223 518.714 82.6989C518.358 82.4754 517.938 82.3636 517.453 82.3636C516.919 82.3636 516.457 82.4962 516.067 82.7614C515.68 83.0227 515.383 83.3636 515.175 83.7841C514.966 84.2045 514.862 84.6553 514.862 85.1364V85.9091C514.862 86.5682 514.976 87.1269 515.203 87.5852C515.434 88.0398 515.754 88.3864 516.163 88.625C516.572 88.8598 517.048 88.9773 517.589 88.9773C517.942 88.9773 518.26 88.928 518.544 88.8295C518.832 88.7273 519.08 88.5758 519.288 88.375C519.497 88.1705 519.658 87.9167 519.771 87.6136L521.067 87.9773C520.93 88.4167 520.701 88.803 520.379 89.1364C520.057 89.4659 519.66 89.7235 519.186 89.9091C518.713 90.0909 518.18 90.1818 517.589 90.1818ZM525.811 90.2045C525.258 90.2045 524.756 90.1004 524.305 89.892C523.855 89.6799 523.497 89.375 523.232 88.9773C522.966 88.5758 522.834 88.0909 522.834 87.5227C522.834 87.0227 522.932 86.6174 523.129 86.3068C523.326 85.9924 523.589 85.7462 523.919 85.5682C524.249 85.3902 524.612 85.2576 525.01 85.1705C525.411 85.0795 525.815 85.0076 526.22 84.9545C526.75 84.8864 527.18 84.8352 527.51 84.8011C527.843 84.7633 528.086 84.7008 528.237 84.6136C528.393 84.5265 528.47 84.375 528.47 84.1591V84.1136C528.47 83.553 528.317 83.1174 528.01 82.8068C527.707 82.4962 527.247 82.3409 526.629 82.3409C525.989 82.3409 525.487 82.4811 525.124 82.7614C524.76 83.0417 524.504 83.3409 524.357 83.6591L523.084 83.2045C523.311 82.6742 523.614 82.2614 523.993 81.9659C524.375 81.6667 524.792 81.4583 525.243 81.3409C525.697 81.2197 526.144 81.1591 526.584 81.1591C526.864 81.1591 527.186 81.1932 527.55 81.2614C527.917 81.3258 528.271 81.4602 528.612 81.6648C528.957 81.8693 529.243 82.178 529.47 82.5909C529.697 83.0038 529.811 83.5568 529.811 84.25V90H528.47V88.8182H528.402C528.311 89.0076 528.16 89.2102 527.947 89.4261C527.735 89.642 527.453 89.8258 527.101 89.9773C526.749 90.1288 526.319 90.2045 525.811 90.2045ZM526.016 89C526.546 89 526.993 88.8958 527.357 88.6875C527.724 88.4792 528 88.2102 528.186 87.8807C528.375 87.5511 528.47 87.2045 528.47 86.8409V85.6136C528.413 85.6818 528.288 85.7443 528.095 85.8011C527.906 85.8542 527.686 85.9015 527.436 85.9432C527.19 85.9811 526.949 86.0152 526.714 86.0455C526.483 86.072 526.296 86.0947 526.152 86.1136C525.804 86.1591 525.478 86.233 525.175 86.3352C524.875 86.4337 524.633 86.5833 524.447 86.7841C524.266 86.9811 524.175 87.25 524.175 87.5909C524.175 88.0568 524.347 88.4091 524.692 88.6477C525.04 88.8826 525.482 89 526.016 89ZM533.599 78.3636V90H532.259V78.3636H533.599ZM538.624 90.2045C538.071 90.2045 537.569 90.1004 537.118 89.892C536.667 89.6799 536.309 89.375 536.044 88.9773C535.779 88.5758 535.646 88.0909 535.646 87.5227C535.646 87.0227 535.745 86.6174 535.942 86.3068C536.139 85.9924 536.402 85.7462 536.732 85.5682C537.061 85.3902 537.425 85.2576 537.822 85.1705C538.224 85.0795 538.627 85.0076 539.033 84.9545C539.563 84.8864 539.993 84.8352 540.322 84.8011C540.656 84.7633 540.898 84.7008 541.05 84.6136C541.205 84.5265 541.283 84.375 541.283 84.1591V84.1136C541.283 83.553 541.129 83.1174 540.822 82.8068C540.519 82.4962 540.059 82.3409 539.442 82.3409C538.802 82.3409 538.3 82.4811 537.936 82.7614C537.572 83.0417 537.317 83.3409 537.169 83.6591L535.896 83.2045C536.124 82.6742 536.427 82.2614 536.805 81.9659C537.188 81.6667 537.605 81.4583 538.055 81.3409C538.51 81.2197 538.957 81.1591 539.396 81.1591C539.677 81.1591 539.999 81.1932 540.362 81.2614C540.73 81.3258 541.084 81.4602 541.425 81.6648C541.769 81.8693 542.055 82.178 542.283 82.5909C542.51 83.0038 542.624 83.5568 542.624 84.25V90H541.283V88.8182H541.214C541.124 89.0076 540.972 89.2102 540.76 89.4261C540.548 89.642 540.266 89.8258 539.913 89.9773C539.561 90.1288 539.131 90.2045 538.624 90.2045ZM538.828 89C539.358 89 539.805 88.8958 540.169 88.6875C540.536 88.4792 540.813 88.2102 540.999 87.8807C541.188 87.5511 541.283 87.2045 541.283 86.8409V85.6136C541.226 85.6818 541.101 85.7443 540.908 85.8011C540.718 85.8542 540.499 85.9015 540.249 85.9432C540.002 85.9811 539.762 86.0152 539.527 86.0455C539.296 86.072 539.108 86.0947 538.964 86.1136C538.616 86.1591 538.29 86.233 537.987 86.3352C537.688 86.4337 537.446 86.5833 537.26 86.7841C537.078 86.9811 536.987 87.25 536.987 87.5909C536.987 88.0568 537.16 88.4091 537.504 88.6477C537.853 88.8826 538.294 89 538.828 89ZM546.412 84.75V90H545.071V81.2727H546.366V82.6364H546.48C546.685 82.1932 546.995 81.8371 547.412 81.5682C547.829 81.2955 548.366 81.1591 549.026 81.1591C549.616 81.1591 550.134 81.2803 550.577 81.5227C551.02 81.7614 551.365 82.125 551.611 82.6136C551.857 83.0985 551.98 83.7121 551.98 84.4545V90H550.639V84.5455C550.639 83.8598 550.461 83.3258 550.105 82.9432C549.749 82.5568 549.26 82.3636 548.639 82.3636C548.211 82.3636 547.829 82.4564 547.491 82.642C547.158 82.8277 546.895 83.0985 546.702 83.4545C546.509 83.8106 546.412 84.2424 546.412 84.75ZM558.226 81.2727V82.4091H553.703V81.2727H558.226ZM555.021 79.1818H556.362V87.5C556.362 87.8788 556.417 88.1629 556.527 88.3523C556.641 88.5379 556.785 88.6629 556.959 88.7273C557.137 88.7879 557.324 88.8182 557.521 88.8182C557.669 88.8182 557.79 88.8106 557.885 88.7955C557.98 88.7765 558.055 88.7614 558.112 88.75L558.385 89.9545C558.294 89.9886 558.167 90.0227 558.004 90.0568C557.841 90.0947 557.635 90.1136 557.385 90.1136C557.006 90.1136 556.635 90.0322 556.271 89.8693C555.911 89.7064 555.612 89.4583 555.374 89.125C555.139 88.7917 555.021 88.3712 555.021 87.8636V79.1818Z" fill="#728389"/>
<path d="M457.773 61.2727C457.705 60.697 457.428 60.25 456.943 59.9318C456.458 59.6136 455.864 59.4545 455.159 59.4545C454.644 59.4545 454.193 59.5379 453.807 59.7045C453.424 59.8712 453.125 60.1004 452.909 60.392C452.697 60.6837 452.591 61.0152 452.591 61.3864C452.591 61.697 452.665 61.964 452.812 62.1875C452.964 62.4072 453.157 62.5909 453.392 62.7386C453.627 62.8826 453.873 63.0019 454.131 63.0966C454.388 63.1875 454.625 63.2614 454.841 63.3182L456.023 63.6364C456.326 63.7159 456.663 63.8258 457.034 63.9659C457.409 64.1061 457.767 64.2973 458.108 64.5398C458.453 64.7784 458.737 65.0852 458.96 65.4602C459.184 65.8352 459.295 66.2955 459.295 66.8409C459.295 67.4697 459.131 68.0379 458.801 68.5455C458.475 69.053 457.998 69.4564 457.369 69.7557C456.744 70.0549 455.985 70.2045 455.091 70.2045C454.258 70.2045 453.536 70.0701 452.926 69.8011C452.32 69.5322 451.843 69.1572 451.494 68.6761C451.15 68.1951 450.955 67.6364 450.909 67H452.364C452.402 67.4394 452.549 67.803 452.807 68.0909C453.068 68.375 453.398 68.5871 453.795 68.7273C454.197 68.8636 454.629 68.9318 455.091 68.9318C455.629 68.9318 456.112 68.8447 456.54 68.6705C456.968 68.4924 457.307 68.2462 457.557 67.9318C457.807 67.6136 457.932 67.2424 457.932 66.8182C457.932 66.4318 457.824 66.1174 457.608 65.875C457.392 65.6326 457.108 65.4356 456.756 65.2841C456.403 65.1326 456.023 65 455.614 64.8864L454.182 64.4773C453.273 64.2159 452.553 63.8428 452.023 63.358C451.492 62.8731 451.227 62.2386 451.227 61.4545C451.227 60.803 451.403 60.2348 451.756 59.75C452.112 59.2614 452.589 58.8826 453.188 58.6136C453.79 58.3409 454.462 58.2045 455.205 58.2045C455.955 58.2045 456.621 58.339 457.205 58.608C457.788 58.8731 458.25 59.2367 458.591 59.6989C458.936 60.161 459.117 60.6856 459.136 61.2727H457.773ZM465.089 70.1818C464.249 70.1818 463.523 69.9962 462.913 69.625C462.307 69.25 461.839 68.7273 461.51 68.0568C461.184 67.3826 461.021 66.5985 461.021 65.7045C461.021 64.8106 461.184 64.0227 461.51 63.3409C461.839 62.6553 462.298 62.1212 462.885 61.7386C463.476 61.3523 464.165 61.1591 464.953 61.1591C465.408 61.1591 465.857 61.2348 466.3 61.3864C466.743 61.5379 467.146 61.7841 467.51 62.125C467.874 62.4621 468.163 62.9091 468.379 63.4659C468.595 64.0227 468.703 64.7083 468.703 65.5227V66.0909H461.976V64.9318H467.339C467.339 64.4394 467.241 64 467.044 63.6136C466.851 63.2273 466.574 62.9223 466.214 62.6989C465.858 62.4754 465.438 62.3636 464.953 62.3636C464.419 62.3636 463.957 62.4962 463.567 62.7614C463.18 63.0227 462.883 63.3636 462.675 63.7841C462.466 64.2045 462.362 64.6553 462.362 65.1364V65.9091C462.362 66.5682 462.476 67.1269 462.703 67.5852C462.934 68.0398 463.254 68.3864 463.663 68.625C464.072 68.8598 464.548 68.9773 465.089 68.9773C465.442 68.9773 465.76 68.928 466.044 68.8295C466.332 68.7273 466.58 68.5758 466.788 68.375C466.997 68.1705 467.158 67.9167 467.271 67.6136L468.567 67.9773C468.43 68.4167 468.201 68.803 467.879 69.1364C467.557 69.4659 467.16 69.7235 466.686 69.9091C466.213 70.0909 465.68 70.1818 465.089 70.1818ZM473.311 70.2045C472.758 70.2045 472.256 70.1004 471.805 69.892C471.355 69.6799 470.997 69.375 470.732 68.9773C470.466 68.5758 470.334 68.0909 470.334 67.5227C470.334 67.0227 470.432 66.6174 470.629 66.3068C470.826 65.9924 471.089 65.7462 471.419 65.5682C471.749 65.3902 472.112 65.2576 472.51 65.1705C472.911 65.0795 473.315 65.0076 473.72 64.9545C474.25 64.8864 474.68 64.8352 475.01 64.8011C475.343 64.7633 475.586 64.7008 475.737 64.6136C475.893 64.5265 475.97 64.375 475.97 64.1591V64.1136C475.97 63.553 475.817 63.1174 475.51 62.8068C475.207 62.4962 474.747 62.3409 474.129 62.3409C473.489 62.3409 472.987 62.4811 472.624 62.7614C472.26 63.0417 472.004 63.3409 471.857 63.6591L470.584 63.2045C470.811 62.6742 471.114 62.2614 471.493 61.9659C471.875 61.6667 472.292 61.4583 472.743 61.3409C473.197 61.2197 473.644 61.1591 474.084 61.1591C474.364 61.1591 474.686 61.1932 475.05 61.2614C475.417 61.3258 475.771 61.4602 476.112 61.6648C476.457 61.8693 476.743 62.178 476.97 62.5909C477.197 63.0038 477.311 63.5568 477.311 64.25V70H475.97V68.8182H475.902C475.811 69.0076 475.66 69.2102 475.447 69.4261C475.235 69.642 474.953 69.8258 474.601 69.9773C474.249 70.1288 473.819 70.2045 473.311 70.2045ZM473.516 69C474.046 69 474.493 68.8958 474.857 68.6875C475.224 68.4792 475.5 68.2102 475.686 67.8807C475.875 67.5511 475.97 67.2045 475.97 66.8409V65.6136C475.913 65.6818 475.788 65.7443 475.595 65.8011C475.406 65.8542 475.186 65.9015 474.936 65.9432C474.69 65.9811 474.449 66.0152 474.214 66.0455C473.983 66.072 473.796 66.0947 473.652 66.1136C473.304 66.1591 472.978 66.233 472.675 66.3352C472.375 66.4337 472.133 66.5833 471.947 66.7841C471.766 66.9811 471.675 67.25 471.675 67.5909C471.675 68.0568 471.847 68.4091 472.192 68.6477C472.54 68.8826 472.982 69 473.516 69ZM481.099 58.3636V70H479.759V58.3636H481.099ZM486.124 70.2045C485.571 70.2045 485.069 70.1004 484.618 69.892C484.167 69.6799 483.809 69.375 483.544 68.9773C483.279 68.5758 483.146 68.0909 483.146 67.5227C483.146 67.0227 483.245 66.6174 483.442 66.3068C483.639 65.9924 483.902 65.7462 484.232 65.5682C484.561 65.3902 484.925 65.2576 485.322 65.1705C485.724 65.0795 486.127 65.0076 486.533 64.9545C487.063 64.8864 487.493 64.8352 487.822 64.8011C488.156 64.7633 488.398 64.7008 488.55 64.6136C488.705 64.5265 488.783 64.375 488.783 64.1591V64.1136C488.783 63.553 488.629 63.1174 488.322 62.8068C488.019 62.4962 487.559 62.3409 486.942 62.3409C486.302 62.3409 485.8 62.4811 485.436 62.7614C485.072 63.0417 484.817 63.3409 484.669 63.6591L483.396 63.2045C483.624 62.6742 483.927 62.2614 484.305 61.9659C484.688 61.6667 485.105 61.4583 485.555 61.3409C486.01 61.2197 486.457 61.1591 486.896 61.1591C487.177 61.1591 487.499 61.1932 487.862 61.2614C488.23 61.3258 488.584 61.4602 488.925 61.6648C489.269 61.8693 489.555 62.178 489.783 62.5909C490.01 63.0038 490.124 63.5568 490.124 64.25V70H488.783V68.8182H488.714C488.624 69.0076 488.472 69.2102 488.26 69.4261C488.048 69.642 487.766 69.8258 487.413 69.9773C487.061 70.1288 486.631 70.2045 486.124 70.2045ZM486.328 69C486.858 69 487.305 68.8958 487.669 68.6875C488.036 68.4792 488.313 68.2102 488.499 67.8807C488.688 67.5511 488.783 67.2045 488.783 66.8409V65.6136C488.726 65.6818 488.601 65.7443 488.408 65.8011C488.218 65.8542 487.999 65.9015 487.749 65.9432C487.502 65.9811 487.262 66.0152 487.027 66.0455C486.796 66.072 486.608 66.0947 486.464 66.1136C486.116 66.1591 485.79 66.233 485.487 66.3352C485.188 66.4337 484.946 66.5833 484.76 66.7841C484.578 66.9811 484.487 67.25 484.487 67.5909C484.487 68.0568 484.66 68.4091 485.004 68.6477C485.353 68.8826 485.794 69 486.328 69ZM493.912 64.75V70H492.571V61.2727H493.866V62.6364H493.98C494.185 62.1932 494.495 61.8371 494.912 61.5682C495.329 61.2955 495.866 61.1591 496.526 61.1591C497.116 61.1591 497.634 61.2803 498.077 61.5227C498.52 61.7614 498.865 62.125 499.111 62.6136C499.357 63.0985 499.48 63.7121 499.48 64.4545V70H498.139V64.5455C498.139 63.8598 497.961 63.3258 497.605 62.9432C497.249 62.5568 496.76 62.3636 496.139 62.3636C495.711 62.3636 495.329 62.4564 494.991 62.642C494.658 62.8277 494.395 63.0985 494.202 63.4545C494.009 63.8106 493.912 64.2424 493.912 64.75ZM505.726 61.2727V62.4091H501.203V61.2727H505.726ZM502.521 59.1818H503.862V67.5C503.862 67.8788 503.917 68.1629 504.027 68.3523C504.141 68.5379 504.285 68.6629 504.459 68.7273C504.637 68.7879 504.824 68.8182 505.021 68.8182C505.169 68.8182 505.29 68.8106 505.385 68.7955C505.48 68.7765 505.555 68.7614 505.612 68.75L505.885 69.9545C505.794 69.9886 505.667 70.0227 505.504 70.0568C505.341 70.0947 505.135 70.1136 504.885 70.1136C504.506 70.1136 504.135 70.0322 503.771 69.8693C503.411 69.7064 503.112 69.4583 502.874 69.125C502.639 68.7917 502.521 68.3712 502.521 67.8636V59.1818ZM518.425 63.2273L517.22 63.5682C517.144 63.3674 517.033 63.1723 516.885 62.983C516.741 62.7898 516.544 62.6307 516.294 62.5057C516.044 62.3807 515.724 62.3182 515.334 62.3182C514.8 62.3182 514.355 62.4413 513.999 62.6875C513.646 62.9299 513.47 63.2386 513.47 63.6136C513.47 63.947 513.591 64.2102 513.834 64.4034C514.076 64.5966 514.455 64.7576 514.97 64.8864L516.266 65.2045C517.046 65.3939 517.627 65.6837 518.01 66.0739C518.393 66.4602 518.584 66.9583 518.584 67.5682C518.584 68.0682 518.44 68.5152 518.152 68.9091C517.868 69.303 517.47 69.6136 516.959 69.8409C516.447 70.0682 515.853 70.1818 515.175 70.1818C514.285 70.1818 513.548 69.9886 512.964 69.6023C512.381 69.2159 512.012 68.6515 511.857 67.9091L513.129 67.5909C513.25 68.0606 513.48 68.4129 513.817 68.6477C514.158 68.8826 514.603 69 515.152 69C515.777 69 516.273 68.8674 516.641 68.6023C517.012 68.3333 517.197 68.0114 517.197 67.6364C517.197 67.3333 517.091 67.0795 516.879 66.875C516.667 66.6667 516.341 66.5114 515.902 66.4091L514.447 66.0682C513.648 65.8788 513.061 65.5852 512.686 65.1875C512.315 64.786 512.129 64.2841 512.129 63.6818C512.129 63.1894 512.268 62.7538 512.544 62.375C512.824 61.9962 513.205 61.6989 513.686 61.483C514.171 61.267 514.72 61.1591 515.334 61.1591C516.197 61.1591 516.875 61.3485 517.368 61.7273C517.864 62.1061 518.216 62.6061 518.425 63.2273ZM520.602 73.2727V61.2727H521.898V62.6591H522.057C522.155 62.5076 522.292 62.3144 522.466 62.0795C522.644 61.8409 522.898 61.6288 523.227 61.4432C523.561 61.2538 524.011 61.1591 524.58 61.1591C525.314 61.1591 525.962 61.3428 526.523 61.7102C527.083 62.0777 527.521 62.5985 527.835 63.2727C528.15 63.947 528.307 64.7424 528.307 65.6591C528.307 66.5833 528.15 67.3845 527.835 68.0625C527.521 68.7367 527.085 69.2595 526.528 69.6307C525.972 69.9981 525.33 70.1818 524.602 70.1818C524.042 70.1818 523.593 70.089 523.256 69.9034C522.919 69.714 522.659 69.5 522.477 69.2614C522.295 69.0189 522.155 68.8182 522.057 68.6591H521.943V73.2727H520.602ZM521.92 65.6364C521.92 66.2955 522.017 66.8769 522.21 67.3807C522.403 67.8807 522.686 68.2727 523.057 68.5568C523.428 68.8371 523.883 68.9773 524.42 68.9773C524.981 68.9773 525.449 68.8295 525.824 68.5341C526.203 68.2348 526.487 67.8333 526.676 67.3295C526.869 66.822 526.966 66.2576 526.966 65.6364C526.966 65.0227 526.871 64.4697 526.682 63.9773C526.496 63.4811 526.214 63.089 525.835 62.8011C525.46 62.5095 524.989 62.3636 524.42 62.3636C523.875 62.3636 523.417 62.5019 523.045 62.7784C522.674 63.0511 522.394 63.4337 522.205 63.9261C522.015 64.4148 521.92 64.9848 521.92 65.6364ZM532.92 70.2045C532.367 70.2045 531.866 70.1004 531.415 69.892C530.964 69.6799 530.606 69.375 530.341 68.9773C530.076 68.5758 529.943 68.0909 529.943 67.5227C529.943 67.0227 530.042 66.6174 530.239 66.3068C530.436 65.9924 530.699 65.7462 531.028 65.5682C531.358 65.3902 531.722 65.2576 532.119 65.1705C532.521 65.0795 532.924 65.0076 533.33 64.9545C533.86 64.8864 534.29 64.8352 534.619 64.8011C534.953 64.7633 535.195 64.7008 535.347 64.6136C535.502 64.5265 535.58 64.375 535.58 64.1591V64.1136C535.58 63.553 535.426 63.1174 535.119 62.8068C534.816 62.4962 534.356 62.3409 533.739 62.3409C533.098 62.3409 532.597 62.4811 532.233 62.7614C531.869 63.0417 531.614 63.3409 531.466 63.6591L530.193 63.2045C530.42 62.6742 530.723 62.2614 531.102 61.9659C531.485 61.6667 531.902 61.4583 532.352 61.3409C532.807 61.2197 533.254 61.1591 533.693 61.1591C533.973 61.1591 534.295 61.1932 534.659 61.2614C535.027 61.3258 535.381 61.4602 535.722 61.6648C536.066 61.8693 536.352 62.178 536.58 62.5909C536.807 63.0038 536.92 63.5568 536.92 64.25V70H535.58V68.8182H535.511C535.42 69.0076 535.269 69.2102 535.057 69.4261C534.845 69.642 534.563 69.8258 534.21 69.9773C533.858 70.1288 533.428 70.2045 532.92 70.2045ZM533.125 69C533.655 69 534.102 68.8958 534.466 68.6875C534.833 68.4792 535.11 68.2102 535.295 67.8807C535.485 67.5511 535.58 67.2045 535.58 66.8409V65.6136C535.523 65.6818 535.398 65.7443 535.205 65.8011C535.015 65.8542 534.795 65.9015 534.545 65.9432C534.299 65.9811 534.059 66.0152 533.824 66.0455C533.593 66.072 533.405 66.0947 533.261 66.1136C532.913 66.1591 532.587 66.233 532.284 66.3352C531.985 66.4337 531.742 66.5833 531.557 66.7841C531.375 66.9811 531.284 67.25 531.284 67.5909C531.284 68.0568 531.456 68.4091 531.801 68.6477C532.15 68.8826 532.591 69 533.125 69ZM542.913 70.1818C542.095 70.1818 541.391 69.9886 540.8 69.6023C540.209 69.2159 539.754 68.6837 539.436 68.0057C539.118 67.3277 538.959 66.553 538.959 65.6818C538.959 64.7955 539.122 64.0133 539.447 63.3352C539.777 62.6534 540.235 62.1212 540.822 61.7386C541.413 61.3523 542.103 61.1591 542.891 61.1591C543.504 61.1591 544.057 61.2727 544.55 61.5C545.042 61.7273 545.446 62.0455 545.76 62.4545C546.074 62.8636 546.269 63.3409 546.345 63.8864H545.004C544.902 63.4886 544.675 63.1364 544.322 62.8295C543.974 62.5189 543.504 62.3636 542.913 62.3636C542.391 62.3636 541.932 62.5 541.538 62.7727C541.148 63.0417 540.843 63.4223 540.624 63.9148C540.408 64.4034 540.3 64.9773 540.3 65.6364C540.3 66.3106 540.406 66.8977 540.618 67.3977C540.834 67.8977 541.137 68.286 541.527 68.5625C541.921 68.839 542.383 68.9773 542.913 68.9773C543.262 68.9773 543.578 68.9167 543.862 68.7955C544.146 68.6742 544.387 68.5 544.584 68.2727C544.781 68.0455 544.921 67.7727 545.004 67.4545H546.345C546.269 67.9697 546.082 68.4337 545.783 68.8466C545.487 69.2557 545.095 69.5814 544.607 69.8239C544.122 70.0625 543.557 70.1818 542.913 70.1818ZM551.964 70.1818C551.124 70.1818 550.398 69.9962 549.788 69.625C549.182 69.25 548.714 68.7273 548.385 68.0568C548.059 67.3826 547.896 66.5985 547.896 65.7045C547.896 64.8106 548.059 64.0227 548.385 63.3409C548.714 62.6553 549.173 62.1212 549.76 61.7386C550.351 61.3523 551.04 61.1591 551.828 61.1591C552.283 61.1591 552.732 61.2348 553.175 61.3864C553.618 61.5379 554.021 61.7841 554.385 62.125C554.749 62.4621 555.038 62.9091 555.254 63.4659C555.47 64.0227 555.578 64.7083 555.578 65.5227V66.0909H548.851V64.9318H554.214C554.214 64.4394 554.116 64 553.919 63.6136C553.726 63.2273 553.449 62.9223 553.089 62.6989C552.733 62.4754 552.313 62.3636 551.828 62.3636C551.294 62.3636 550.832 62.4962 550.442 62.7614C550.055 63.0227 549.758 63.3636 549.55 63.7841C549.341 64.2045 549.237 64.6553 549.237 65.1364V65.9091C549.237 66.5682 549.351 67.1269 549.578 67.5852C549.809 68.0398 550.129 68.3864 550.538 68.625C550.947 68.8598 551.423 68.9773 551.964 68.9773C552.317 68.9773 552.635 68.928 552.919 68.8295C553.207 68.7273 553.455 68.5758 553.663 68.375C553.872 68.1705 554.033 67.9167 554.146 67.6136L555.442 67.9773C555.305 68.4167 555.076 68.803 554.754 69.1364C554.432 69.4659 554.035 69.7235 553.561 69.9091C553.088 70.0909 552.555 70.1818 551.964 70.1818ZM557.618 70V61.2727H558.913V62.5909H559.004C559.163 62.1591 559.451 61.8087 559.868 61.5398C560.285 61.2708 560.754 61.1364 561.277 61.1364C561.375 61.1364 561.499 61.1383 561.646 61.142C561.794 61.1458 561.906 61.1515 561.982 61.1591V62.5227C561.936 62.5114 561.832 62.4943 561.669 62.4716C561.51 62.4451 561.341 62.4318 561.163 62.4318C560.739 62.4318 560.36 62.5208 560.027 62.6989C559.697 62.8731 559.436 63.1155 559.243 63.4261C559.054 63.733 558.959 64.0833 558.959 64.4773V70H557.618Z" fill="#728389"/>
<path d="M10.7727 59H9.36364C9.2803 58.5947 9.13447 58.2386 8.92614 57.9318C8.72159 57.625 8.47159 57.3674 8.17614 57.1591C7.88447 56.947 7.56061 56.7879 7.20455 56.6818C6.84849 56.5758 6.47727 56.5227 6.09091 56.5227C5.38636 56.5227 4.74811 56.7008 4.17614 57.0568C3.60795 57.4129 3.1553 57.9375 2.81818 58.6307C2.48485 59.3239 2.31818 60.1742 2.31818 61.1818C2.31818 62.1894 2.48485 63.0398 2.81818 63.733C3.1553 64.4261 3.60795 64.9508 4.17614 65.3068C4.74811 65.6629 5.38636 65.8409 6.09091 65.8409C6.47727 65.8409 6.84849 65.7879 7.20455 65.6818C7.56061 65.5758 7.88447 65.4186 8.17614 65.2102C8.47159 64.9981 8.72159 64.7386 8.92614 64.4318C9.13447 64.1212 9.2803 63.7652 9.36364 63.3636H10.7727C10.6667 63.9583 10.4735 64.4905 10.1932 64.9602C9.91288 65.4299 9.56439 65.8295 9.14773 66.1591C8.73106 66.4848 8.26326 66.733 7.74432 66.9034C7.22917 67.0739 6.67803 67.1591 6.09091 67.1591C5.09849 67.1591 4.21591 66.9167 3.44318 66.4318C2.67045 65.947 2.0625 65.2576 1.61932 64.3636C1.17614 63.4697 0.954545 62.4091 0.954545 61.1818C0.954545 59.9545 1.17614 58.8939 1.61932 58C2.0625 57.1061 2.67045 56.4167 3.44318 55.9318C4.21591 55.447 5.09849 55.2045 6.09091 55.2045C6.67803 55.2045 7.22917 55.2898 7.74432 55.4602C8.26326 55.6307 8.73106 55.8807 9.14773 56.2102C9.56439 56.536 9.91288 56.9337 10.1932 57.4034C10.4735 57.8693 10.6667 58.4015 10.7727 59ZM16.527 67.1818C15.6861 67.1818 14.9607 66.9962 14.3509 66.625C13.7448 66.25 13.277 65.7273 12.9474 65.0568C12.6217 64.3826 12.4588 63.5985 12.4588 62.7045C12.4588 61.8106 12.6217 61.0227 12.9474 60.3409C13.277 59.6553 13.7353 59.1212 14.3224 58.7386C14.9134 58.3523 15.6027 58.1591 16.3906 58.1591C16.8452 58.1591 17.294 58.2348 17.7372 58.3864C18.1804 58.5379 18.5838 58.7841 18.9474 59.125C19.3111 59.4621 19.6009 59.9091 19.8168 60.4659C20.0327 61.0227 20.1406 61.7083 20.1406 62.5227V63.0909H13.4134V61.9318H18.777C18.777 61.4394 18.6785 61 18.4815 60.6136C18.2884 60.2273 18.0118 59.9223 17.652 59.6989C17.2959 59.4754 16.8755 59.3636 16.3906 59.3636C15.8565 59.3636 15.3944 59.4962 15.0043 59.7614C14.6179 60.0227 14.3205 60.3636 14.1122 60.7841C13.9039 61.2045 13.7997 61.6553 13.7997 62.1364V62.9091C13.7997 63.5682 13.9134 64.1269 14.1406 64.5852C14.3717 65.0398 14.6918 65.3864 15.1009 65.625C15.5099 65.8598 15.9853 65.9773 16.527 65.9773C16.8793 65.9773 17.1974 65.928 17.4815 65.8295C17.7694 65.7273 18.0175 65.5758 18.2259 65.375C18.4342 65.1705 18.5952 64.9167 18.7088 64.6136L20.0043 64.9773C19.8679 65.4167 19.6387 65.803 19.3168 66.1364C18.9948 66.4659 18.5971 66.7235 18.1236 66.9091C17.6501 67.0909 17.1179 67.1818 16.527 67.1818ZM23.5213 55.3636V67H22.1804V55.3636H23.5213ZM27.3182 55.3636V67H25.9773V55.3636H27.3182ZM40.456 60.2273L39.2514 60.5682C39.1757 60.3674 39.0639 60.1723 38.9162 59.983C38.7723 59.7898 38.5753 59.6307 38.3253 59.5057C38.0753 59.3807 37.7552 59.3182 37.3651 59.3182C36.831 59.3182 36.3859 59.4413 36.0298 59.6875C35.6776 59.9299 35.5014 60.2386 35.5014 60.6136C35.5014 60.947 35.6226 61.2102 35.8651 61.4034C36.1075 61.5966 36.4863 61.7576 37.0014 61.8864L38.2969 62.2045C39.0772 62.3939 39.6586 62.6837 40.0412 63.0739C40.4238 63.4602 40.6151 63.9583 40.6151 64.5682C40.6151 65.0682 40.4711 65.5152 40.1832 65.9091C39.8991 66.303 39.5014 66.6136 38.9901 66.8409C38.4787 67.0682 37.884 67.1818 37.206 67.1818C36.3158 67.1818 35.5791 66.9886 34.9957 66.6023C34.4124 66.2159 34.0431 65.6515 33.8878 64.9091L35.1605 64.5909C35.2817 65.0606 35.5109 65.4129 35.848 65.6477C36.1889 65.8826 36.634 66 37.1832 66C37.8082 66 38.3045 65.8674 38.6719 65.6023C39.0431 65.3333 39.2287 65.0114 39.2287 64.6364C39.2287 64.3333 39.1226 64.0795 38.9105 63.875C38.6984 63.6667 38.3726 63.5114 37.9332 63.4091L36.4787 63.0682C35.6795 62.8788 35.0923 62.5852 34.7173 62.1875C34.3461 61.786 34.1605 61.2841 34.1605 60.6818C34.1605 60.1894 34.2988 59.7538 34.5753 59.375C34.8556 58.9962 35.2363 58.6989 35.7173 58.483C36.2022 58.267 36.7514 58.1591 37.3651 58.1591C38.2287 58.1591 38.9067 58.3485 39.3991 58.7273C39.8954 59.1061 40.2476 59.6061 40.456 60.2273ZM42.6335 70.2727V58.2727H43.929V59.6591H44.0881C44.1866 59.5076 44.3229 59.3144 44.4972 59.0795C44.6752 58.8409 44.929 58.6288 45.2585 58.4432C45.5919 58.2538 46.0426 58.1591 46.6108 58.1591C47.3456 58.1591 47.9934 58.3428 48.554 58.7102C49.1146 59.0777 49.5521 59.5985 49.8665 60.2727C50.1809 60.947 50.3381 61.7424 50.3381 62.6591C50.3381 63.5833 50.1809 64.3845 49.8665 65.0625C49.5521 65.7367 49.1165 66.2595 48.5597 66.6307C48.0028 66.9981 47.3608 67.1818 46.6335 67.1818C46.0729 67.1818 45.6241 67.089 45.2869 66.9034C44.9498 66.714 44.6903 66.5 44.5085 66.2614C44.3267 66.0189 44.1866 65.8182 44.0881 65.6591H43.9744V70.2727H42.6335ZM43.9517 62.6364C43.9517 63.2955 44.0483 63.8769 44.2415 64.3807C44.4347 64.8807 44.7169 65.2727 45.0881 65.5568C45.4593 65.8371 45.9138 65.9773 46.4517 65.9773C47.0123 65.9773 47.4801 65.8295 47.8551 65.5341C48.2339 65.2348 48.518 64.8333 48.7074 64.3295C48.9006 63.822 48.9972 63.2576 48.9972 62.6364C48.9972 62.0227 48.9025 61.4697 48.7131 60.9773C48.5275 60.4811 48.2453 60.089 47.8665 59.8011C47.4915 59.5095 47.0199 59.3636 46.4517 59.3636C45.9063 59.3636 45.4479 59.5019 45.0767 59.7784C44.7055 60.0511 44.4252 60.4337 44.2358 60.9261C44.0464 61.4148 43.9517 61.9848 43.9517 62.6364ZM54.9517 67.2045C54.3987 67.2045 53.8968 67.1004 53.446 66.892C52.9953 66.6799 52.6373 66.375 52.3722 65.9773C52.107 65.5758 51.9744 65.0909 51.9744 64.5227C51.9744 64.0227 52.0729 63.6174 52.2699 63.3068C52.4669 62.9924 52.7301 62.7462 53.0597 62.5682C53.3892 62.3902 53.7528 62.2576 54.1506 62.1705C54.5521 62.0795 54.9555 62.0076 55.3608 61.9545C55.8911 61.8864 56.321 61.8352 56.6506 61.8011C56.9839 61.7633 57.2263 61.7008 57.3778 61.6136C57.5331 61.5265 57.6108 61.375 57.6108 61.1591V61.1136C57.6108 60.553 57.4574 60.1174 57.1506 59.8068C56.8475 59.4962 56.3873 59.3409 55.7699 59.3409C55.1297 59.3409 54.6278 59.4811 54.2642 59.7614C53.9006 60.0417 53.6449 60.3409 53.4972 60.6591L52.2244 60.2045C52.4517 59.6742 52.7547 59.2614 53.1335 58.9659C53.5161 58.6667 53.9328 58.4583 54.3835 58.3409C54.8381 58.2197 55.285 58.1591 55.7244 58.1591C56.0047 58.1591 56.3267 58.1932 56.6903 58.2614C57.0578 58.3258 57.4119 58.4602 57.7528 58.6648C58.0975 58.8693 58.3835 59.178 58.6108 59.5909C58.8381 60.0038 58.9517 60.5568 58.9517 61.25V67H57.6108V65.8182H57.5426C57.4517 66.0076 57.3002 66.2102 57.0881 66.4261C56.8759 66.642 56.5938 66.8258 56.2415 66.9773C55.8892 67.1288 55.4593 67.2045 54.9517 67.2045ZM55.1562 66C55.6866 66 56.1335 65.8958 56.4972 65.6875C56.8646 65.4792 57.1411 65.2102 57.3267 64.8807C57.5161 64.5511 57.6108 64.2045 57.6108 63.8409V62.6136C57.554 62.6818 57.429 62.7443 57.2358 62.8011C57.0464 62.8542 56.8267 62.9015 56.5767 62.9432C56.3305 62.9811 56.09 63.0152 55.8551 63.0455C55.6241 63.072 55.4366 63.0947 55.2926 63.1136C54.9441 63.1591 54.6184 63.233 54.3153 63.3352C54.0161 63.4337 53.7737 63.5833 53.5881 63.7841C53.4063 63.9811 53.3153 64.25 53.3153 64.5909C53.3153 65.0568 53.4877 65.4091 53.8324 65.6477C54.1809 65.8826 54.6222 66 55.1562 66ZM64.9446 67.1818C64.1264 67.1818 63.4219 66.9886 62.831 66.6023C62.2401 66.2159 61.7855 65.6837 61.4673 65.0057C61.1491 64.3277 60.9901 63.553 60.9901 62.6818C60.9901 61.7955 61.1529 61.0133 61.4787 60.3352C61.8082 59.6534 62.2666 59.1212 62.8537 58.7386C63.4446 58.3523 64.134 58.1591 64.9219 58.1591C65.5355 58.1591 66.0885 58.2727 66.581 58.5C67.0734 58.7273 67.4768 59.0455 67.7912 59.4545C68.1056 59.8636 68.3007 60.3409 68.3764 60.8864H67.0355C66.9332 60.4886 66.706 60.1364 66.3537 59.8295C66.0052 59.5189 65.5355 59.3636 64.9446 59.3636C64.4219 59.3636 63.9635 59.5 63.5696 59.7727C63.1795 60.0417 62.8745 60.4223 62.6548 60.9148C62.4389 61.4034 62.331 61.9773 62.331 62.6364C62.331 63.3106 62.437 63.8977 62.6491 64.3977C62.8651 64.8977 63.1681 65.286 63.5582 65.5625C63.9522 65.839 64.4143 65.9773 64.9446 65.9773C65.2931 65.9773 65.6094 65.9167 65.8935 65.7955C66.1776 65.6742 66.4181 65.5 66.6151 65.2727C66.812 65.0455 66.9522 64.7727 67.0355 64.4545H68.3764C68.3007 64.9697 68.1132 65.4337 67.8139 65.8466C67.5185 66.2557 67.1264 66.5814 66.6378 66.8239C66.1529 67.0625 65.5885 67.1818 64.9446 67.1818ZM73.9957 67.1818C73.1548 67.1818 72.4295 66.9962 71.8196 66.625C71.2135 66.25 70.7457 65.7273 70.4162 65.0568C70.0904 64.3826 69.9276 63.5985 69.9276 62.7045C69.9276 61.8106 70.0904 61.0227 70.4162 60.3409C70.7457 59.6553 71.2041 59.1212 71.7912 58.7386C72.3821 58.3523 73.0715 58.1591 73.8594 58.1591C74.3139 58.1591 74.7628 58.2348 75.206 58.3864C75.6491 58.5379 76.0526 58.7841 76.4162 59.125C76.7798 59.4621 77.0696 59.9091 77.2855 60.4659C77.5014 61.0227 77.6094 61.7083 77.6094 62.5227V63.0909H70.8821V61.9318H76.2457C76.2457 61.4394 76.1473 61 75.9503 60.6136C75.7571 60.2273 75.4806 59.9223 75.1207 59.6989C74.7647 59.4754 74.3442 59.3636 73.8594 59.3636C73.3253 59.3636 72.8632 59.4962 72.473 59.7614C72.0866 60.0227 71.7893 60.3636 71.581 60.7841C71.3726 61.2045 71.2685 61.6553 71.2685 62.1364V62.9091C71.2685 63.5682 71.3821 64.1269 71.6094 64.5852C71.8404 65.0398 72.1605 65.3864 72.5696 65.625C72.9787 65.8598 73.4541 65.9773 73.9957 65.9773C74.348 65.9773 74.6662 65.928 74.9503 65.8295C75.2382 65.7273 75.4863 65.5758 75.6946 65.375C75.9029 65.1705 76.0639 64.9167 76.1776 64.6136L77.473 64.9773C77.3366 65.4167 77.1075 65.803 76.7855 66.1364C76.4635 66.4659 76.0658 66.7235 75.5923 66.9091C75.1188 67.0909 74.5866 67.1818 73.9957 67.1818ZM79.6491 67V58.2727H80.9446V59.5909H81.0355C81.1946 59.1591 81.4825 58.8087 81.8991 58.5398C82.3158 58.2708 82.7855 58.1364 83.3082 58.1364C83.4067 58.1364 83.5298 58.1383 83.6776 58.142C83.8253 58.1458 83.937 58.1515 84.0128 58.1591V59.5227C83.9673 59.5114 83.8632 59.4943 83.7003 59.4716C83.5412 59.4451 83.3726 59.4318 83.1946 59.4318C82.7704 59.4318 82.3916 59.5208 82.0582 59.6989C81.7287 59.8731 81.4673 60.1155 81.2741 60.4261C81.0848 60.733 80.9901 61.0833 80.9901 61.4773V67H79.6491Z" fill="#728389"/>
<path d="M10.7727 94H9.36364C9.2803 93.5947 9.13447 93.2386 8.92614 92.9318C8.72159 92.625 8.47159 92.3674 8.17614 92.1591C7.88447 91.947 7.56061 91.7879 7.20455 91.6818C6.84849 91.5758 6.47727 91.5227 6.09091 91.5227C5.38636 91.5227 4.74811 91.7008 4.17614 92.0568C3.60795 92.4129 3.1553 92.9375 2.81818 93.6307C2.48485 94.3239 2.31818 95.1742 2.31818 96.1818C2.31818 97.1894 2.48485 98.0398 2.81818 98.733C3.1553 99.4261 3.60795 99.9508 4.17614 100.307C4.74811 100.663 5.38636 100.841 6.09091 100.841C6.47727 100.841 6.84849 100.788 7.20455 100.682C7.56061 100.576 7.88447 100.419 8.17614 100.21C8.47159 99.9981 8.72159 99.7386 8.92614 99.4318C9.13447 99.1212 9.2803 98.7652 9.36364 98.3636H10.7727C10.6667 98.9583 10.4735 99.4905 10.1932 99.9602C9.91288 100.43 9.56439 100.83 9.14773 101.159C8.73106 101.485 8.26326 101.733 7.74432 101.903C7.22917 102.074 6.67803 102.159 6.09091 102.159C5.09849 102.159 4.21591 101.917 3.44318 101.432C2.67045 100.947 2.0625 100.258 1.61932 99.3636C1.17614 98.4697 0.954545 97.4091 0.954545 96.1818C0.954545 94.9545 1.17614 93.8939 1.61932 93C2.0625 92.1061 2.67045 91.4167 3.44318 90.9318C4.21591 90.447 5.09849 90.2045 6.09091 90.2045C6.67803 90.2045 7.22917 90.2898 7.74432 90.4602C8.26326 90.6307 8.73106 90.8807 9.14773 91.2102C9.56439 91.536 9.91288 91.9337 10.1932 92.4034C10.4735 92.8693 10.6667 93.4015 10.7727 94ZM16.4134 102.182C15.6255 102.182 14.9342 101.994 14.3395 101.619C13.7486 101.244 13.2865 100.72 12.9531 100.045C12.6236 99.3712 12.4588 98.5833 12.4588 97.6818C12.4588 96.7727 12.6236 95.9792 12.9531 95.3011C13.2865 94.6231 13.7486 94.0966 14.3395 93.7216C14.9342 93.3466 15.6255 93.1591 16.4134 93.1591C17.2012 93.1591 17.8906 93.3466 18.4815 93.7216C19.0762 94.0966 19.5384 94.6231 19.8679 95.3011C20.2012 95.9792 20.3679 96.7727 20.3679 97.6818C20.3679 98.5833 20.2012 99.3712 19.8679 100.045C19.5384 100.72 19.0762 101.244 18.4815 101.619C17.8906 101.994 17.2012 102.182 16.4134 102.182ZM16.4134 100.977C17.0118 100.977 17.5043 100.824 17.8906 100.517C18.277 100.21 18.563 99.8068 18.7486 99.3068C18.9342 98.8068 19.027 98.2652 19.027 97.6818C19.027 97.0985 18.9342 96.5549 18.7486 96.0511C18.563 95.5473 18.277 95.1402 17.8906 94.8295C17.5043 94.5189 17.0118 94.3636 16.4134 94.3636C15.8149 94.3636 15.3224 94.5189 14.9361 94.8295C14.5497 95.1402 14.2637 95.5473 14.0781 96.0511C13.8925 96.5549 13.7997 97.0985 13.7997 97.6818C13.7997 98.2652 13.8925 98.8068 14.0781 99.3068C14.2637 99.8068 14.5497 100.21 14.9361 100.517C15.3224 100.824 15.8149 100.977 16.4134 100.977ZM23.7557 90.3636V102H22.4148V90.3636H23.7557ZM29.7571 102.182C28.9692 102.182 28.2779 101.994 27.6832 101.619C27.0923 101.244 26.6302 100.72 26.2969 100.045C25.9673 99.3712 25.8026 98.5833 25.8026 97.6818C25.8026 96.7727 25.9673 95.9792 26.2969 95.3011C26.6302 94.6231 27.0923 94.0966 27.6832 93.7216C28.2779 93.3466 28.9692 93.1591 29.7571 93.1591C30.545 93.1591 31.2344 93.3466 31.8253 93.7216C32.42 94.0966 32.8821 94.6231 33.2116 95.3011C33.545 95.9792 33.7116 96.7727 33.7116 97.6818C33.7116 98.5833 33.545 99.3712 33.2116 100.045C32.8821 100.72 32.42 101.244 31.8253 101.619C31.2344 101.994 30.545 102.182 29.7571 102.182ZM29.7571 100.977C30.3556 100.977 30.848 100.824 31.2344 100.517C31.6207 100.21 31.9067 99.8068 32.0923 99.3068C32.2779 98.8068 32.3707 98.2652 32.3707 97.6818C32.3707 97.0985 32.2779 96.5549 32.0923 96.0511C31.9067 95.5473 31.6207 95.1402 31.2344 94.8295C30.848 94.5189 30.3556 94.3636 29.7571 94.3636C29.1586 94.3636 28.6662 94.5189 28.2798 94.8295C27.8935 95.1402 27.6075 95.5473 27.4219 96.0511C27.2363 96.5549 27.1435 97.0985 27.1435 97.6818C27.1435 98.2652 27.2363 98.8068 27.4219 99.3068C27.6075 99.8068 27.8935 100.21 28.2798 100.517C28.6662 100.824 29.1586 100.977 29.7571 100.977ZM35.7585 102V93.2727H37.054V94.5909H37.1449C37.304 94.1591 37.5919 93.8087 38.0085 93.5398C38.4252 93.2708 38.8949 93.1364 39.4176 93.1364C39.5161 93.1364 39.6392 93.1383 39.7869 93.142C39.9347 93.1458 40.0464 93.1515 40.1222 93.1591V94.5227C40.0767 94.5114 39.9725 94.4943 39.8097 94.4716C39.6506 94.4451 39.482 94.4318 39.304 94.4318C38.8797 94.4318 38.5009 94.5208 38.1676 94.6989C37.8381 94.8731 37.5767 95.1155 37.3835 95.4261C37.1941 95.733 37.0994 96.0833 37.0994 96.4773V102H35.7585ZM50.098 93.2727V94.4091H45.3935V93.2727H50.098ZM46.8026 102V92.0682C46.8026 91.5682 46.92 91.1515 47.1548 90.8182C47.3897 90.4848 47.6946 90.2348 48.0696 90.0682C48.4446 89.9015 48.8404 89.8182 49.2571 89.8182C49.5866 89.8182 49.8556 89.8447 50.0639 89.8977C50.2723 89.9508 50.4276 90 50.5298 90.0455L50.1435 91.2045C50.0753 91.1818 49.9806 91.1534 49.8594 91.1193C49.742 91.0852 49.5866 91.0682 49.3935 91.0682C48.9503 91.0682 48.6302 91.1799 48.4332 91.4034C48.2401 91.6269 48.1435 91.9545 48.1435 92.3864V102H46.8026ZM51.9773 102V93.2727H53.3182V102H51.9773ZM52.6591 91.8182C52.3977 91.8182 52.1723 91.7292 51.983 91.5511C51.7973 91.3731 51.7045 91.1591 51.7045 90.9091C51.7045 90.6591 51.7973 90.4451 51.983 90.267C52.1723 90.089 52.3977 90 52.6591 90C52.9205 90 53.1439 90.089 53.3295 90.267C53.5189 90.4451 53.6136 90.6591 53.6136 90.9091C53.6136 91.1591 53.5189 91.3731 53.3295 91.5511C53.1439 91.7292 52.9205 91.8182 52.6591 91.8182ZM57.1151 90.3636V102H55.7741V90.3636H57.1151ZM63.3665 93.2727V94.4091H58.8438V93.2727H63.3665ZM60.1619 91.1818H61.5028V99.5C61.5028 99.8788 61.5578 100.163 61.6676 100.352C61.7813 100.538 61.9252 100.663 62.0994 100.727C62.2775 100.788 62.465 100.818 62.6619 100.818C62.8097 100.818 62.9309 100.811 63.0256 100.795C63.1203 100.777 63.196 100.761 63.2528 100.75L63.5256 101.955C63.4347 101.989 63.3078 102.023 63.1449 102.057C62.982 102.095 62.7756 102.114 62.5256 102.114C62.1468 102.114 61.7756 102.032 61.4119 101.869C61.0521 101.706 60.7528 101.458 60.5142 101.125C60.2794 100.792 60.1619 100.371 60.1619 99.8636V91.1818ZM68.9489 102.182C68.108 102.182 67.3826 101.996 66.7727 101.625C66.1667 101.25 65.6989 100.727 65.3693 100.057C65.0436 99.3826 64.8807 98.5985 64.8807 97.7045C64.8807 96.8106 65.0436 96.0227 65.3693 95.3409C65.6989 94.6553 66.1572 94.1212 66.7443 93.7386C67.3352 93.3523 68.0246 93.1591 68.8125 93.1591C69.267 93.1591 69.7159 93.2348 70.1591 93.3864C70.6023 93.5379 71.0057 93.7841 71.3693 94.125C71.733 94.4621 72.0227 94.9091 72.2386 95.4659C72.4545 96.0227 72.5625 96.7083 72.5625 97.5227V98.0909H65.8352V96.9318H71.1989C71.1989 96.4394 71.1004 96 70.9034 95.6136C70.7102 95.2273 70.4337 94.9223 70.0739 94.6989C69.7178 94.4754 69.2973 94.3636 68.8125 94.3636C68.2784 94.3636 67.8163 94.4962 67.4261 94.7614C67.0398 95.0227 66.7424 95.3636 66.5341 95.7841C66.3258 96.2045 66.2216 96.6553 66.2216 97.1364V97.9091C66.2216 98.5682 66.3352 99.1269 66.5625 99.5852C66.7936 100.04 67.1136 100.386 67.5227 100.625C67.9318 100.86 68.4072 100.977 68.9489 100.977C69.3011 100.977 69.6193 100.928 69.9034 100.83C70.1913 100.727 70.4394 100.576 70.6477 100.375C70.8561 100.17 71.017 99.9167 71.1307 99.6136L72.4261 99.9773C72.2898 100.417 72.0606 100.803 71.7386 101.136C71.4167 101.466 71.0189 101.723 70.5455 101.909C70.072 102.091 69.5398 102.182 68.9489 102.182ZM74.6023 102V93.2727H75.8977V94.5909H75.9886C76.1477 94.1591 76.4356 93.8087 76.8523 93.5398C77.2689 93.2708 77.7386 93.1364 78.2614 93.1364C78.3598 93.1364 78.483 93.1383 78.6307 93.142C78.7784 93.1458 78.8902 93.1515 78.9659 93.1591V94.5227C78.9205 94.5114 78.8163 94.4943 78.6534 94.4716C78.4943 94.4451 78.3258 94.4318 78.1477 94.4318C77.7235 94.4318 77.3447 94.5208 77.0114 94.6989C76.6818 94.8731 76.4205 95.1155 76.2273 95.4261C76.0379 95.733 75.9432 96.0833 75.9432 96.4773V102H74.6023Z" fill="#728389"/>
<line x1="85" y1="63.5" x2="142" y2="63.5" stroke="#728389"/>
<line x1="85" y1="95.5" x2="142" y2="95.5" stroke="#728389"/>
<line x1="378" y1="66.5" x2="444" y2="66.5" stroke="#728389"/>
<line x1="419" y1="83.5" x2="444" y2="83.5" stroke="#728389"/>
<defs>
<linearGradient id="paint0_linear_797_639" x1="264" y1="0" x2="264" y2="38" gradientUnits="userSpaceOnUse">
<stop offset="0.537888" stop-color="#1B8842"/>
<stop offset="1" stop-color="#15779F"/>
</linearGradient>
<linearGradient id="paint1_linear_797_639" x1="596" y1="139" x2="596" y2="177" gradientUnits="userSpaceOnUse">
<stop stop-color="#1B8842"/>
<stop offset="1" stop-color="#15779F"/>
</linearGradient>
<radialGradient id="paint2_radial_797_639" cx="0" cy="0" r="1" gradientUnits="userSpaceOnUse" gradientTransform="translate(147.609 56.118) rotate(130.515) scale(19.3232)">
<stop stop-color="#D2F7E5"/>
<stop offset="1" stop-color="#A8D1E3"/>
</radialGradient>
<radialGradient id="paint3_radial_797_639" cx="0" cy="0" r="1" gradientUnits="userSpaceOnUse" gradientTransform="translate(211.609 56.118) rotate(130.515) scale(19.3232)">
<stop stop-color="#D2F7E5"/>
<stop offset="1" stop-color="#A8D1E3"/>
</radialGradient>
<radialGradient id="paint4_radial_797_639" cx="0" cy="0" r="1" gradientUnits="userSpaceOnUse" gradientTransform="translate(275.609 56.118) rotate(130.515) scale(19.3232)">
<stop stop-color="#D2F7E5"/>
<stop offset="1" stop-color="#A8D1E3"/>
</radialGradient>
<radialGradient id="paint5_radial_797_639" cx="0" cy="0" r="1" gradientUnits="userSpaceOnUse" gradientTransform="translate(388.543 59.8886) rotate(130.515) scale(38.0426)">
<stop stop-color="#D2F7E5"/>
<stop offset="1" stop-color="#A8D1E3"/>
</radialGradient>
</defs>
</svg>
