<svg width="126" height="126" viewBox="0 0 126 126" fill="none" xmlns="http://www.w3.org/2000/svg">
<circle cx="63" cy="63" r="63" fill="#D9D9D9"/>
<path d="M33.5 41C33.5 40.1716 34.1716 39.5 35 39.5H90.7027C91.5311 39.5 92.2027 40.1716 92.2027 41V84C92.2027 84.8284 91.5311 85.5 90.7027 85.5H35C34.1716 85.5 33.5 84.8284 33.5 84V41Z" fill="#15779F" stroke="#15779F"/>
<path d="M62.1571 69.8857L61.087 70.9368L62.1571 72.0263L63.2272 70.9368L62.1571 69.8857ZM89.6075 44.0797C90.188 43.4887 90.1795 42.539 89.5885 41.9584C88.9975 41.3779 88.0478 41.3864 87.4673 41.9774L89.6075 44.0797ZM34.7067 44.0797L61.087 70.9368L63.2272 68.8346L36.847 41.9774L34.7067 44.0797ZM63.2272 70.9368L89.6075 44.0797L87.4673 41.9774L61.087 68.8346L63.2272 70.9368Z" fill="white"/>
<line y1="-1.5" x2="21.2201" y2="-1.5" transform="matrix(0.699589 -0.714545 0.737456 0.675395 37.5929 81.0199)" stroke="white" stroke-width="3"/>
<line y1="-1.5" x2="21.2201" y2="-1.5" transform="matrix(0.699589 0.714545 0.737456 -0.675395 73.692 65.8572)" stroke="white" stroke-width="3"/>
</svg>
