<svg width="127" height="126" viewBox="0 0 127 126" fill="none" xmlns="http://www.w3.org/2000/svg">
<circle cx="63.5" cy="63.0001" r="63" fill="#D9D9D9"/>
<path d="M53.3427 52.5356L49.057 39.7149C48.9355 39.3512 48.6174 39.0862 48.2353 39.0538C42.1217 38.5356 32.4451 41.551 38.3263 57.791C44.4118 74.5948 61.0749 83.3434 68.6813 85.6773C74.9445 87.5991 81.2078 80.4219 83.2244 77.8273C83.5929 77.3533 83.4245 76.681 82.8919 76.4039L70.9739 70.2033C70.6436 70.0315 70.2452 70.0573 69.9399 70.2704L65.1983 73.5803C64.8349 73.8339 64.3526 73.8214 64.0102 73.5401C61.6639 71.613 52.7763 64.1245 49.2441 58.443C49.0074 58.0622 49.0777 57.5721 49.3952 57.2555L53.1004 53.5608C53.3691 53.2927 53.463 52.8956 53.3427 52.5356Z" fill="#15779F" stroke="#15779F"/>
<path d="M73.751 63.4357C73.6796 64.1545 74.3693 64.7555 75.2914 64.778C76.2135 64.8004 77.0189 64.236 77.0903 63.5171L73.751 63.4357ZM77.0903 63.5171C77.7175 57.2032 75.2496 53.3424 71.5456 51.2192C67.9404 49.1526 63.4679 48.9106 60.4513 49.2941L60.8427 51.8639C63.2462 51.5583 66.7552 51.779 69.4791 53.3404C72.1042 54.8452 74.3131 57.7777 73.751 63.4357L77.0903 63.5171Z" fill="#15779F"/>
<path d="M83.5485 61.6321C86.3656 43.757 71.1 41.9195 63.1151 43.235" stroke="#15779F" stroke-width="3" stroke-linecap="round"/>
</svg>
