<svg width="268" height="262" viewBox="0 0 268 262" fill="none" xmlns="http://www.w3.org/2000/svg">
<circle cx="189.492" cy="48.5539" r="38.1496" fill="url(#paint0_radial_807_929)"/>
<circle cx="89.4917" cy="48.5539" r="38.1496" fill="url(#paint1_radial_807_929)"/>
<rect x="25.9095" width="216.181" height="10.4044" fill="#717171"/>
<rect x="25.9095" y="86.7036" width="216.181" height="10.4044" fill="#717171"/>
<circle opacity="0.3" cx="181.975" cy="186.809" r="38.1496" fill="url(#paint2_radial_807_929)"/>
<circle opacity="0.3" cx="90.9751" cy="186.809" r="38.1496" fill="url(#paint3_radial_807_929)"/>
<g filter="url(#filter0_d_807_929)">
<ellipse cx="182.398" cy="186.809" rx="45.6639" ry="19.6528" fill="url(#paint4_radial_807_929)"/>
</g>
<g filter="url(#filter1_d_807_929)">
<ellipse cx="90.3976" cy="186.809" rx="45.6639" ry="19.6528" fill="url(#paint5_radial_807_929)"/>
</g>
<rect x="25.9095" y="158.255" width="216.181" height="10.4044" fill="#717171"/>
<path d="M106.391 130V116.548H110.936C111.992 116.548 112.854 116.738 113.524 117.119C114.199 117.496 114.698 118.006 115.022 118.65C115.346 119.293 115.508 120.012 115.508 120.804C115.508 121.597 115.346 122.317 115.022 122.965C114.702 123.613 114.208 124.13 113.538 124.515C112.868 124.896 112.009 125.087 110.963 125.087H107.705V123.642H110.91C111.633 123.642 112.213 123.517 112.651 123.267C113.089 123.018 113.406 122.681 113.603 122.256C113.805 121.827 113.905 121.343 113.905 120.804C113.905 120.266 113.805 119.784 113.603 119.359C113.406 118.934 113.087 118.602 112.644 118.361C112.202 118.115 111.615 117.993 110.884 117.993H108.02V130H106.391ZM117.922 130V119.911H119.42V121.435H119.525C119.709 120.936 120.041 120.53 120.523 120.22C121.005 119.909 121.548 119.753 122.152 119.753C122.266 119.753 122.408 119.755 122.579 119.76C122.75 119.764 122.879 119.771 122.967 119.779V121.356C122.914 121.343 122.794 121.323 122.605 121.297C122.421 121.266 122.226 121.251 122.021 121.251C121.53 121.251 121.092 121.354 120.707 121.56C120.326 121.761 120.024 122.041 119.801 122.4C119.582 122.755 119.472 123.16 119.472 123.615V130H117.922ZM128.727 130.21C127.755 130.21 126.916 129.996 126.211 129.566C125.511 129.133 124.97 128.529 124.589 127.754C124.212 126.974 124.024 126.068 124.024 125.034C124.024 124.001 124.212 123.09 124.589 122.302C124.97 121.509 125.5 120.892 126.179 120.449C126.862 120.003 127.659 119.779 128.569 119.779C129.095 119.779 129.614 119.867 130.126 120.042C130.638 120.217 131.105 120.502 131.525 120.896C131.946 121.286 132.281 121.803 132.53 122.446C132.78 123.09 132.905 123.883 132.905 124.824V125.481H125.128V124.141H131.328C131.328 123.572 131.214 123.064 130.987 122.617C130.763 122.17 130.444 121.818 130.028 121.56C129.616 121.301 129.13 121.172 128.569 121.172C127.952 121.172 127.418 121.325 126.967 121.632C126.52 121.934 126.176 122.328 125.935 122.814C125.695 123.3 125.574 123.821 125.574 124.377V125.271C125.574 126.033 125.706 126.679 125.968 127.208C126.235 127.734 126.605 128.135 127.078 128.41C127.551 128.682 128.101 128.818 128.727 128.818C129.134 128.818 129.502 128.761 129.831 128.647C130.163 128.529 130.45 128.354 130.691 128.121C130.932 127.885 131.118 127.592 131.249 127.241L132.747 127.662C132.589 128.17 132.324 128.616 131.952 129.002C131.58 129.383 131.12 129.68 130.573 129.895C130.025 130.105 129.41 130.21 128.727 130.21ZM142.409 122.17L141.017 122.565C140.929 122.332 140.8 122.107 140.629 121.888C140.463 121.665 140.235 121.481 139.946 121.336C139.657 121.192 139.287 121.119 138.836 121.119C138.218 121.119 137.704 121.262 137.292 121.546C136.885 121.827 136.681 122.184 136.681 122.617C136.681 123.002 136.822 123.307 137.102 123.53C137.382 123.753 137.82 123.94 138.416 124.088L139.913 124.456C140.815 124.675 141.487 125.01 141.93 125.461C142.372 125.908 142.593 126.484 142.593 127.189C142.593 127.767 142.427 128.283 142.094 128.739C141.765 129.194 141.306 129.553 140.714 129.816C140.123 130.079 139.436 130.21 138.652 130.21C137.623 130.21 136.771 129.987 136.097 129.54C135.423 129.094 134.996 128.441 134.816 127.583L136.287 127.215C136.427 127.758 136.692 128.165 137.082 128.437C137.476 128.708 137.991 128.844 138.626 128.844C139.348 128.844 139.922 128.691 140.347 128.384C140.776 128.073 140.99 127.701 140.99 127.268C140.99 126.917 140.868 126.624 140.623 126.387C140.377 126.147 140.001 125.967 139.493 125.849L137.811 125.455C136.887 125.236 136.209 124.896 135.775 124.437C135.346 123.972 135.131 123.392 135.131 122.696C135.131 122.127 135.291 121.623 135.611 121.185C135.935 120.747 136.375 120.403 136.931 120.154C137.492 119.904 138.127 119.779 138.836 119.779C139.834 119.779 140.618 119.998 141.187 120.436C141.761 120.874 142.168 121.452 142.409 122.17ZM152.073 122.17L150.68 122.565C150.593 122.332 150.464 122.107 150.293 121.888C150.127 121.665 149.899 121.481 149.61 121.336C149.321 121.192 148.951 121.119 148.5 121.119C147.882 121.119 147.368 121.262 146.956 121.546C146.549 121.827 146.345 122.184 146.345 122.617C146.345 123.002 146.485 123.307 146.766 123.53C147.046 123.753 147.484 123.94 148.079 124.088L149.577 124.456C150.479 124.675 151.151 125.01 151.593 125.461C152.036 125.908 152.257 126.484 152.257 127.189C152.257 127.767 152.091 128.283 151.758 128.739C151.429 129.194 150.969 129.553 150.378 129.816C149.787 130.079 149.1 130.21 148.316 130.21C147.287 130.21 146.435 129.987 145.761 129.54C145.086 129.094 144.659 128.441 144.48 127.583L145.951 127.215C146.091 127.758 146.356 128.165 146.746 128.437C147.14 128.708 147.655 128.844 148.29 128.844C149.012 128.844 149.586 128.691 150.01 128.384C150.44 128.073 150.654 127.701 150.654 127.268C150.654 126.917 150.532 126.624 150.286 126.387C150.041 126.147 149.665 125.967 149.157 125.849L147.475 125.455C146.551 125.236 145.872 124.896 145.439 124.437C145.01 123.972 144.795 123.392 144.795 122.696C144.795 122.127 144.955 121.623 145.275 121.185C145.599 120.747 146.039 120.403 146.595 120.154C147.155 119.904 147.79 119.779 148.5 119.779C149.498 119.779 150.282 119.998 150.851 120.436C151.425 120.874 151.832 121.452 152.073 122.17ZM160.949 125.875V119.911H162.499V130H160.949V128.292H160.844C160.607 128.805 160.239 129.24 159.74 129.599C159.241 129.954 158.61 130.131 157.848 130.131C157.218 130.131 156.657 129.993 156.167 129.718C155.676 129.437 155.291 129.017 155.011 128.456C154.73 127.892 154.59 127.18 154.59 126.322V119.911H156.141V126.217C156.141 126.952 156.346 127.539 156.758 127.977C157.174 128.415 157.704 128.634 158.348 128.634C158.733 128.634 159.125 128.535 159.523 128.338C159.926 128.141 160.263 127.839 160.535 127.432C160.811 127.024 160.949 126.506 160.949 125.875ZM165.338 130V119.911H166.836V121.435H166.941C167.125 120.936 167.457 120.53 167.939 120.22C168.421 119.909 168.964 119.753 169.568 119.753C169.682 119.753 169.824 119.755 169.995 119.76C170.166 119.764 170.295 119.771 170.383 119.779V121.356C170.33 121.343 170.21 121.323 170.021 121.297C169.837 121.266 169.642 121.251 169.437 121.251C168.946 121.251 168.508 121.354 168.123 121.56C167.742 121.761 167.44 122.041 167.217 122.4C166.998 122.755 166.888 123.16 166.888 123.615V130H165.338ZM176.143 130.21C175.171 130.21 174.332 129.996 173.627 129.566C172.927 129.133 172.386 128.529 172.005 127.754C171.628 126.974 171.44 126.068 171.44 125.034C171.44 124.001 171.628 123.09 172.005 122.302C172.386 121.509 172.916 120.892 173.595 120.449C174.278 120.003 175.075 119.779 175.985 119.779C176.511 119.779 177.03 119.867 177.542 120.042C178.054 120.217 178.521 120.502 178.941 120.896C179.362 121.286 179.697 121.803 179.946 122.446C180.196 123.09 180.321 123.883 180.321 124.824V125.481H172.544V124.141H178.744C178.744 123.572 178.63 123.064 178.403 122.617C178.179 122.17 177.86 121.818 177.444 121.56C177.032 121.301 176.546 121.172 175.985 121.172C175.368 121.172 174.834 121.325 174.383 121.632C173.936 121.934 173.592 122.328 173.351 122.814C173.111 123.3 172.99 123.821 172.99 124.377V125.271C172.99 126.033 173.122 126.679 173.384 127.208C173.651 127.734 174.021 128.135 174.494 128.41C174.967 128.682 175.517 128.818 176.143 128.818C176.55 128.818 176.918 128.761 177.247 128.647C177.579 128.529 177.866 128.354 178.107 128.121C178.348 127.885 178.534 127.592 178.665 127.241L180.163 127.662C180.005 128.17 179.74 128.616 179.368 129.002C178.996 129.383 178.536 129.68 177.989 129.895C177.441 130.105 176.826 130.21 176.143 130.21Z" fill="#717171"/>
<path d="M106.391 254.853V241.401H110.936C111.992 241.401 112.854 241.591 113.524 241.972C114.199 242.349 114.698 242.859 115.022 243.503C115.346 244.146 115.508 244.865 115.508 245.657C115.508 246.45 115.346 247.17 115.022 247.818C114.702 248.466 114.208 248.983 113.538 249.368C112.868 249.749 112.009 249.94 110.963 249.94H107.705V248.495H110.91C111.633 248.495 112.213 248.37 112.651 248.12C113.089 247.871 113.406 247.534 113.603 247.109C113.805 246.68 113.905 246.196 113.905 245.657C113.905 245.119 113.805 244.637 113.603 244.212C113.406 243.787 113.087 243.455 112.644 243.214C112.202 242.969 111.615 242.846 110.884 242.846H108.02V254.853H106.391ZM117.922 254.853V244.764H119.42V246.288H119.525C119.709 245.789 120.041 245.384 120.523 245.073C121.005 244.762 121.548 244.606 122.152 244.606C122.266 244.606 122.408 244.608 122.579 244.613C122.75 244.617 122.879 244.624 122.967 244.633V246.209C122.914 246.196 122.794 246.176 122.605 246.15C122.421 246.119 122.226 246.104 122.021 246.104C121.53 246.104 121.092 246.207 120.707 246.413C120.326 246.614 120.024 246.894 119.801 247.253C119.582 247.608 119.472 248.013 119.472 248.468V254.853H117.922ZM128.727 255.063C127.755 255.063 126.916 254.849 126.211 254.42C125.511 253.986 124.97 253.382 124.589 252.607C124.212 251.827 124.024 250.921 124.024 249.887C124.024 248.854 124.212 247.943 124.589 247.155C124.97 246.362 125.5 245.745 126.179 245.303C126.862 244.856 127.659 244.633 128.569 244.633C129.095 244.633 129.614 244.72 130.126 244.895C130.638 245.07 131.105 245.355 131.525 245.749C131.946 246.139 132.281 246.656 132.53 247.299C132.78 247.943 132.905 248.736 132.905 249.677V250.334H125.128V248.994H131.328C131.328 248.425 131.214 247.917 130.987 247.47C130.763 247.023 130.444 246.671 130.028 246.413C129.616 246.154 129.13 246.025 128.569 246.025C127.952 246.025 127.418 246.178 126.967 246.485C126.52 246.787 126.176 247.181 125.935 247.667C125.695 248.153 125.574 248.674 125.574 249.23V250.124C125.574 250.886 125.706 251.532 125.968 252.061C126.235 252.587 126.605 252.988 127.078 253.263C127.551 253.535 128.101 253.671 128.727 253.671C129.134 253.671 129.502 253.614 129.831 253.5C130.163 253.382 130.45 253.207 130.691 252.974C130.932 252.738 131.118 252.445 131.249 252.094L132.747 252.515C132.589 253.023 132.324 253.469 131.952 253.855C131.58 254.236 131.12 254.533 130.573 254.748C130.025 254.958 129.41 255.063 128.727 255.063ZM142.409 247.023L141.017 247.418C140.929 247.185 140.8 246.96 140.629 246.741C140.463 246.518 140.235 246.334 139.946 246.189C139.657 246.045 139.287 245.972 138.836 245.972C138.218 245.972 137.704 246.115 137.292 246.399C136.885 246.68 136.681 247.037 136.681 247.47C136.681 247.855 136.822 248.16 137.102 248.383C137.382 248.606 137.82 248.793 138.416 248.941L139.913 249.309C140.815 249.528 141.487 249.863 141.93 250.314C142.372 250.761 142.593 251.337 142.593 252.042C142.593 252.62 142.427 253.136 142.094 253.592C141.765 254.047 141.306 254.406 140.714 254.669C140.123 254.932 139.436 255.063 138.652 255.063C137.623 255.063 136.771 254.84 136.097 254.393C135.423 253.947 134.996 253.294 134.816 252.436L136.287 252.068C136.427 252.611 136.692 253.018 137.082 253.29C137.476 253.561 137.991 253.697 138.626 253.697C139.348 253.697 139.922 253.544 140.347 253.237C140.776 252.926 140.99 252.554 140.99 252.121C140.99 251.77 140.868 251.477 140.623 251.24C140.377 251 140.001 250.82 139.493 250.702L137.811 250.308C136.887 250.089 136.209 249.749 135.775 249.29C135.346 248.825 135.131 248.245 135.131 247.549C135.131 246.98 135.291 246.476 135.611 246.038C135.935 245.6 136.375 245.257 136.931 245.007C137.492 244.757 138.127 244.633 138.836 244.633C139.834 244.633 140.618 244.851 141.187 245.289C141.761 245.727 142.168 246.305 142.409 247.023ZM152.073 247.023L150.68 247.418C150.593 247.185 150.464 246.96 150.293 246.741C150.127 246.518 149.899 246.334 149.61 246.189C149.321 246.045 148.951 245.972 148.5 245.972C147.882 245.972 147.368 246.115 146.956 246.399C146.549 246.68 146.345 247.037 146.345 247.47C146.345 247.855 146.485 248.16 146.766 248.383C147.046 248.606 147.484 248.793 148.079 248.941L149.577 249.309C150.479 249.528 151.151 249.863 151.593 250.314C152.036 250.761 152.257 251.337 152.257 252.042C152.257 252.62 152.091 253.136 151.758 253.592C151.429 254.047 150.969 254.406 150.378 254.669C149.787 254.932 149.1 255.063 148.316 255.063C147.287 255.063 146.435 254.84 145.761 254.393C145.086 253.947 144.659 253.294 144.48 252.436L145.951 252.068C146.091 252.611 146.356 253.018 146.746 253.29C147.14 253.561 147.655 253.697 148.29 253.697C149.012 253.697 149.586 253.544 150.01 253.237C150.44 252.926 150.654 252.554 150.654 252.121C150.654 251.77 150.532 251.477 150.286 251.24C150.041 251 149.665 250.82 149.157 250.702L147.475 250.308C146.551 250.089 145.872 249.749 145.439 249.29C145.01 248.825 144.795 248.245 144.795 247.549C144.795 246.98 144.955 246.476 145.275 246.038C145.599 245.6 146.039 245.257 146.595 245.007C147.155 244.757 147.79 244.633 148.5 244.633C149.498 244.633 150.282 244.851 150.851 245.289C151.425 245.727 151.832 246.305 152.073 247.023ZM160.949 250.728V244.764H162.499V254.853H160.949V253.145H160.844C160.607 253.658 160.239 254.093 159.74 254.452C159.241 254.807 158.61 254.984 157.848 254.984C157.218 254.984 156.657 254.846 156.167 254.571C155.676 254.29 155.291 253.87 155.011 253.309C154.73 252.745 154.59 252.033 154.59 251.175V244.764H156.141V251.07C156.141 251.805 156.346 252.392 156.758 252.83C157.174 253.268 157.704 253.487 158.348 253.487C158.733 253.487 159.125 253.388 159.523 253.191C159.926 252.994 160.263 252.692 160.535 252.285C160.811 251.878 160.949 251.359 160.949 250.728ZM165.338 254.853V244.764H166.836V246.288H166.941C167.125 245.789 167.457 245.384 167.939 245.073C168.421 244.762 168.964 244.606 169.568 244.606C169.682 244.606 169.824 244.608 169.995 244.613C170.166 244.617 170.295 244.624 170.383 244.633V246.209C170.33 246.196 170.21 246.176 170.021 246.15C169.837 246.119 169.642 246.104 169.437 246.104C168.946 246.104 168.508 246.207 168.123 246.413C167.742 246.614 167.44 246.894 167.217 247.253C166.998 247.608 166.888 248.013 166.888 248.468V254.853H165.338ZM176.143 255.063C175.171 255.063 174.332 254.849 173.627 254.42C172.927 253.986 172.386 253.382 172.005 252.607C171.628 251.827 171.44 250.921 171.44 249.887C171.44 248.854 171.628 247.943 172.005 247.155C172.386 246.362 172.916 245.745 173.595 245.303C174.278 244.856 175.075 244.633 175.985 244.633C176.511 244.633 177.03 244.72 177.542 244.895C178.054 245.07 178.521 245.355 178.941 245.749C179.362 246.139 179.697 246.656 179.946 247.299C180.196 247.943 180.321 248.736 180.321 249.677V250.334H172.544V248.994H178.744C178.744 248.425 178.63 247.917 178.403 247.47C178.179 247.023 177.86 246.671 177.444 246.413C177.032 246.154 176.546 246.025 175.985 246.025C175.368 246.025 174.834 246.178 174.383 246.485C173.936 246.787 173.592 247.181 173.351 247.667C173.111 248.153 172.99 248.674 172.99 249.23V250.124C172.99 250.886 173.122 251.532 173.384 252.061C173.651 252.587 174.021 252.988 174.494 253.263C174.967 253.535 175.517 253.671 176.143 253.671C176.55 253.671 176.918 253.614 177.247 253.5C177.579 253.382 177.866 253.207 178.107 252.974C178.348 252.738 178.534 252.445 178.665 252.094L180.163 252.515C180.005 253.023 179.74 253.469 179.368 253.855C178.996 254.236 178.536 254.533 177.989 254.748C177.441 254.958 176.826 255.063 176.143 255.063Z" fill="#717171"/>
<rect x="25.9095" y="204.958" width="216.181" height="10.4044" fill="#717171"/>
<path d="M134.75 159.538C135.427 160.215 136.525 160.215 137.202 159.538L148.238 148.503C148.915 147.825 148.915 146.727 148.238 146.05C147.56 145.373 146.463 145.373 145.785 146.05L135.976 155.86L126.167 146.05C125.489 145.373 124.391 145.373 123.714 146.05C123.037 146.727 123.037 147.825 123.714 148.503L134.75 159.538ZM134.242 138.659L134.242 158.312L137.71 158.312L137.71 138.659L134.242 138.659Z" fill="#717171"/>
<path d="M137.202 214.236C136.525 213.558 135.427 213.558 134.75 214.236L123.714 225.271C123.037 225.948 123.037 227.046 123.714 227.723C124.391 228.401 125.489 228.401 126.167 227.723L135.976 217.914L145.785 227.723C146.463 228.401 147.56 228.401 148.238 227.723C148.915 227.046 148.915 225.948 148.238 225.271L137.202 214.236ZM137.71 233.958L137.71 215.462L134.242 215.462L134.242 233.958L137.71 233.958Z" fill="#717171"/>
<defs>
<filter id="filter0_d_807_929" x="132.11" y="167.156" width="100.576" height="48.554" filterUnits="userSpaceOnUse" color-interpolation-filters="sRGB">
<feFlood flood-opacity="0" result="BackgroundImageFix"/>
<feColorMatrix in="SourceAlpha" type="matrix" values="0 0 0 0 0 0 0 0 0 0 0 0 0 0 0 0 0 0 127 0" result="hardAlpha"/>
<feOffset dy="4.62419"/>
<feGaussianBlur stdDeviation="2.31209"/>
<feComposite in2="hardAlpha" operator="out"/>
<feColorMatrix type="matrix" values="0 0 0 0 0 0 0 0 0 0 0 0 0 0 0 0 0 0 0.25 0"/>
<feBlend mode="normal" in2="BackgroundImageFix" result="effect1_dropShadow_807_929"/>
<feBlend mode="normal" in="SourceGraphic" in2="effect1_dropShadow_807_929" result="shape"/>
</filter>
<filter id="filter1_d_807_929" x="40.1096" y="167.156" width="100.576" height="48.554" filterUnits="userSpaceOnUse" color-interpolation-filters="sRGB">
<feFlood flood-opacity="0" result="BackgroundImageFix"/>
<feColorMatrix in="SourceAlpha" type="matrix" values="0 0 0 0 0 0 0 0 0 0 0 0 0 0 0 0 0 0 127 0" result="hardAlpha"/>
<feOffset dy="4.62419"/>
<feGaussianBlur stdDeviation="2.31209"/>
<feComposite in2="hardAlpha" operator="out"/>
<feColorMatrix type="matrix" values="0 0 0 0 0 0 0 0 0 0 0 0 0 0 0 0 0 0 0.25 0"/>
<feBlend mode="normal" in2="BackgroundImageFix" result="effect1_dropShadow_807_929"/>
<feBlend mode="normal" in="SourceGraphic" in2="effect1_dropShadow_807_929" result="shape"/>
</filter>
<radialGradient id="paint0_radial_807_929" cx="0" cy="0" r="1" gradientUnits="userSpaceOnUse" gradientTransform="translate(200.419 39.7523) rotate(103.101) scale(48.206)">
<stop stop-color="#FFF5D2"/>
<stop offset="1" stop-color="#8D7932"/>
</radialGradient>
<radialGradient id="paint1_radial_807_929" cx="0" cy="0" r="1" gradientUnits="userSpaceOnUse" gradientTransform="translate(100.419 39.7523) rotate(103.101) scale(48.206)">
<stop stop-color="#FFF5D2"/>
<stop offset="1" stop-color="#8D7932"/>
</radialGradient>
<radialGradient id="paint2_radial_807_929" cx="0" cy="0" r="1" gradientUnits="userSpaceOnUse" gradientTransform="translate(192.903 178.007) rotate(103.101) scale(48.206)">
<stop stop-color="#FFF5D2"/>
<stop offset="1" stop-color="#8D7932"/>
</radialGradient>
<radialGradient id="paint3_radial_807_929" cx="0" cy="0" r="1" gradientUnits="userSpaceOnUse" gradientTransform="translate(101.902 178.007) rotate(103.101) scale(48.206)">
<stop stop-color="#FFF5D2"/>
<stop offset="1" stop-color="#8D7932"/>
</radialGradient>
<radialGradient id="paint4_radial_807_929" cx="0" cy="0" r="1" gradientUnits="userSpaceOnUse" gradientTransform="translate(195.477 182.275) rotate(118.403) scale(27.4969 52.1117)">
<stop stop-color="#FFF5D2"/>
<stop offset="1" stop-color="#8D7932"/>
</radialGradient>
<radialGradient id="paint5_radial_807_929" cx="0" cy="0" r="1" gradientUnits="userSpaceOnUse" gradientTransform="translate(103.477 182.275) rotate(118.403) scale(27.4969 52.1117)">
<stop stop-color="#FFF5D2"/>
<stop offset="1" stop-color="#8D7932"/>
</radialGradient>
</defs>
</svg>
