<svg width="267" height="217" viewBox="0 0 267 217" fill="none" xmlns="http://www.w3.org/2000/svg">
<circle cx="133.498" cy="44.0929" r="43.2335" fill="url(#paint0_radial_807_916)"/>
<circle cx="133.498" cy="44.0929" r="43.2335" fill="url(#paint1_radial_807_916)"/>
<circle cx="133.498" cy="44.0929" r="37.5944" fill="url(#paint2_radial_807_916)"/>
<path d="M176.732 44.0929C176.732 51.2027 174.978 58.2028 171.627 64.4731C168.275 70.7433 163.429 76.0903 157.517 80.0403C151.606 83.9903 144.811 86.4214 137.736 87.1183C130.66 87.8151 123.522 86.7563 116.953 84.0355C110.385 81.3147 104.588 77.0159 100.078 71.52C95.5677 66.024 92.4823 59.5005 91.0952 52.5273C89.7082 45.5542 90.0623 38.3465 92.1261 31.5429C94.19 24.7392 97.9 18.5496 102.927 13.5222L133.498 44.0929H176.732Z" fill="url(#paint3_radial_807_916)"/>
<path d="M134.172 40.9272V32.2586H137.101C137.778 32.2586 138.334 32.3743 138.769 32.6056C139.203 32.8342 139.525 33.1489 139.734 33.5496C139.942 33.9503 140.047 34.406 140.047 34.9167C140.047 35.4275 139.942 35.8804 139.734 36.2754C139.525 36.6705 139.205 36.9809 138.773 37.2067C138.341 37.4296 137.789 37.541 137.118 37.541H134.747V36.5929H137.084C137.547 36.5929 137.919 36.5252 138.201 36.3897C138.486 36.2543 138.692 36.0624 138.819 35.8141C138.949 35.5629 139.014 35.2638 139.014 34.9167C139.014 34.5696 138.949 34.2663 138.819 34.0067C138.69 33.7471 138.482 33.5467 138.197 33.4056C137.912 33.2617 137.535 33.1898 137.067 33.1898H135.222V40.9272H134.172ZM138.252 37.0331L140.385 40.9272H139.166L137.067 37.0331H138.252ZM144.317 41.0627C143.69 41.0627 143.15 40.9244 142.696 40.6479C142.244 40.3685 141.896 39.9791 141.65 39.4796C141.407 38.9774 141.286 38.3932 141.286 37.7273C141.286 37.0613 141.407 36.4744 141.65 35.9665C141.896 35.4557 142.237 35.0578 142.674 34.7728C143.115 34.485 143.628 34.3411 144.215 34.3411C144.554 34.3411 144.888 34.3975 145.218 34.5104C145.548 34.6233 145.849 34.8067 146.12 35.0606C146.391 35.3118 146.607 35.6448 146.767 36.0596C146.928 36.4744 147.009 36.9851 147.009 37.5918V38.0151H141.997V37.1516H145.993C145.993 36.7848 145.919 36.4575 145.773 36.1696C145.629 35.8818 145.423 35.6546 145.155 35.4882C144.889 35.3217 144.576 35.2384 144.215 35.2384C143.817 35.2384 143.473 35.3372 143.182 35.5347C142.894 35.7294 142.673 35.9834 142.518 36.2966C142.363 36.6098 142.285 36.9456 142.285 37.304V37.8797C142.285 38.3707 142.37 38.7869 142.539 39.1283C142.711 39.4669 142.949 39.7251 143.254 39.9029C143.559 40.0779 143.913 40.1654 144.317 40.1654C144.579 40.1654 144.816 40.1287 145.028 40.0553C145.242 39.9791 145.427 39.8662 145.582 39.7167C145.737 39.5643 145.857 39.3752 145.942 39.1495L146.907 39.4204C146.806 39.7477 146.635 40.0355 146.395 40.2839C146.155 40.5294 145.859 40.7213 145.506 40.8595C145.153 40.995 144.757 41.0627 144.317 41.0627ZM153.133 35.8818L152.236 36.1358C152.18 35.9862 152.096 35.8409 151.986 35.6998C151.879 35.5559 151.732 35.4374 151.546 35.3442C151.36 35.2511 151.122 35.2046 150.831 35.2046C150.433 35.2046 150.101 35.2963 149.836 35.4797C149.574 35.6603 149.443 35.8903 149.443 36.1696C149.443 36.4179 149.533 36.6141 149.713 36.758C149.894 36.9019 150.176 37.0218 150.56 37.1178L151.525 37.3548C152.106 37.4959 152.539 37.7118 152.824 38.0024C153.109 38.2902 153.252 38.6613 153.252 39.1156C153.252 39.4881 153.145 39.8211 152.93 40.1146C152.719 40.408 152.422 40.6394 152.041 40.8087C151.66 40.978 151.217 41.0627 150.712 41.0627C150.049 41.0627 149.5 40.9188 149.066 40.631C148.631 40.3431 148.356 39.9227 148.24 39.3696L149.189 39.1326C149.279 39.4825 149.45 39.7449 149.701 39.9199C149.955 40.0948 150.286 40.1823 150.695 40.1823C151.161 40.1823 151.531 40.0835 151.804 39.886C152.081 39.6856 152.219 39.4458 152.219 39.1664C152.219 38.9407 152.14 38.7516 151.982 38.5992C151.824 38.444 151.581 38.3283 151.254 38.2521L150.171 37.9982C149.575 37.8571 149.138 37.6384 148.858 37.3421C148.582 37.043 148.444 36.6691 148.444 36.2204C148.444 35.8536 148.547 35.5291 148.753 35.2469C148.961 34.9647 149.245 34.7432 149.603 34.5823C149.965 34.4215 150.374 34.3411 150.831 34.3411C151.474 34.3411 151.979 34.4822 152.346 34.7644C152.716 35.0465 152.978 35.419 153.133 35.8818ZM154.756 40.9272V34.4257H155.755V40.9272H154.756ZM155.264 33.3421C155.069 33.3421 154.901 33.2758 154.76 33.1432C154.622 33.0106 154.553 32.8511 154.553 32.6649C154.553 32.4787 154.622 32.3192 154.76 32.1866C154.901 32.054 155.069 31.9877 155.264 31.9877C155.458 31.9877 155.625 32.054 155.763 32.1866C155.904 32.3192 155.975 32.4787 155.975 32.6649C155.975 32.8511 155.904 33.0106 155.763 33.1432C155.625 33.2758 155.458 33.3421 155.264 33.3421ZM158.583 37.0162V40.9272H157.584V34.4257H158.549V35.4416H158.634C158.786 35.1114 159.018 34.8462 159.328 34.6458C159.639 34.4427 160.039 34.3411 160.53 34.3411C160.97 34.3411 161.356 34.4314 161.686 34.612C162.016 34.7897 162.273 35.0606 162.456 35.4247C162.64 35.7859 162.731 36.243 162.731 36.7961V40.9272H161.732V36.8638C161.732 36.353 161.6 35.9552 161.334 35.6702C161.069 35.3823 160.705 35.2384 160.242 35.2384C159.924 35.2384 159.639 35.3076 159.387 35.4458C159.139 35.5841 158.943 35.7859 158.799 36.0511C158.655 36.3164 158.583 36.6381 158.583 37.0162ZM170.55 41.0627C169.941 41.0627 169.416 40.9188 168.976 40.631C168.535 40.3431 168.197 39.9467 167.96 39.4415C167.723 38.9364 167.604 38.3594 167.604 37.7104C167.604 37.05 167.726 36.4673 167.968 35.9622C168.214 35.4543 168.555 35.0578 168.993 34.7728C169.433 34.485 169.946 34.3411 170.533 34.3411C170.99 34.3411 171.402 34.4257 171.769 34.595C172.136 34.7644 172.437 35.0014 172.671 35.3061C172.905 35.6109 173.05 35.9665 173.107 36.3728H172.108C172.032 36.0765 171.862 35.8141 171.6 35.5855C171.34 35.3541 170.99 35.2384 170.55 35.2384C170.161 35.2384 169.819 35.34 169.526 35.5432C169.235 35.7435 169.008 36.0271 168.844 36.394C168.684 36.758 168.603 37.1855 168.603 37.6765C168.603 38.1788 168.682 38.6162 168.84 38.9886C169.001 39.3611 169.227 39.6504 169.517 39.8564C169.811 40.0624 170.155 40.1654 170.55 40.1654C170.81 40.1654 171.045 40.1202 171.257 40.0299C171.469 39.9396 171.648 39.8098 171.795 39.6405C171.941 39.4712 172.046 39.268 172.108 39.031H173.107C173.05 39.4147 172.911 39.7604 172.688 40.068C172.468 40.3728 172.176 40.6154 171.812 40.796C171.45 40.9738 171.03 41.0627 170.55 41.0627ZM177.208 41.0627C176.621 41.0627 176.106 40.923 175.663 40.6437C175.223 40.3643 174.879 39.9735 174.631 39.4712C174.385 38.9689 174.262 38.3819 174.262 37.7104C174.262 37.0331 174.385 36.4419 174.631 35.9368C174.879 35.4317 175.223 35.0395 175.663 34.7601C176.106 34.4808 176.621 34.3411 177.208 34.3411C177.795 34.3411 178.309 34.4808 178.749 34.7601C179.192 35.0395 179.536 35.4317 179.782 35.9368C180.03 36.4419 180.154 37.0331 180.154 37.7104C180.154 38.3819 180.03 38.9689 179.782 39.4712C179.536 39.9735 179.192 40.3643 178.749 40.6437C178.309 40.923 177.795 41.0627 177.208 41.0627ZM177.208 40.1654C177.654 40.1654 178.021 40.0511 178.309 39.8225C178.597 39.5939 178.81 39.2934 178.948 38.9209C179.086 38.5484 179.155 38.1449 179.155 37.7104C179.155 37.2758 179.086 36.8709 178.948 36.4956C178.81 36.1202 178.597 35.8169 178.309 35.5855C178.021 35.3541 177.654 35.2384 177.208 35.2384C176.762 35.2384 176.396 35.3541 176.108 35.5855C175.82 35.8169 175.607 36.1202 175.469 36.4956C175.33 36.8709 175.261 37.2758 175.261 37.7104C175.261 38.1449 175.33 38.5484 175.469 38.9209C175.607 39.2934 175.82 39.5939 176.108 39.8225C176.396 40.0511 176.762 40.1654 177.208 40.1654ZM181.679 40.9272V34.4257H182.644V35.4077H182.712C182.831 35.086 183.045 34.825 183.355 34.6247C183.666 34.4243 184.016 34.3241 184.405 34.3241C184.478 34.3241 184.57 34.3256 184.68 34.3284C184.79 34.3312 184.874 34.3354 184.93 34.3411V35.3569C184.896 35.3485 184.818 35.3358 184.697 35.3188C184.579 35.2991 184.453 35.2892 184.32 35.2892C184.004 35.2892 183.722 35.3555 183.474 35.4882C183.228 35.618 183.034 35.7986 182.89 36.0299C182.749 36.2585 182.678 36.5195 182.678 36.813V40.9272H181.679ZM188.642 41.0627C188.016 41.0627 187.475 40.9244 187.021 40.6479C186.569 40.3685 186.221 39.9791 185.975 39.4796C185.733 38.9774 185.611 38.3932 185.611 37.7273C185.611 37.0613 185.733 36.4744 185.975 35.9665C186.221 35.4557 186.562 35.0578 187 34.7728C187.44 34.485 187.954 34.3411 188.54 34.3411C188.879 34.3411 189.213 34.3975 189.544 34.5104C189.874 34.6233 190.174 34.8067 190.445 35.0606C190.716 35.3118 190.932 35.6448 191.093 36.0596C191.254 36.4744 191.334 36.9851 191.334 37.5918V38.0151H186.323V37.1516H190.318C190.318 36.7848 190.245 36.4575 190.098 36.1696C189.954 35.8818 189.748 35.6546 189.48 35.4882C189.215 35.3217 188.902 35.2384 188.54 35.2384C188.143 35.2384 187.798 35.3372 187.508 35.5347C187.22 35.7294 186.998 35.9834 186.843 36.2966C186.688 36.6098 186.61 36.9456 186.61 37.304V37.8797C186.61 38.3707 186.695 38.7869 186.864 39.1283C187.036 39.4669 187.275 39.7251 187.58 39.9029C187.884 40.0779 188.239 40.1654 188.642 40.1654C188.905 40.1654 189.142 40.1287 189.353 40.0553C189.568 39.9791 189.752 39.8662 189.908 39.7167C190.063 39.5643 190.183 39.3752 190.267 39.1495L191.233 39.4204C191.131 39.7477 190.96 40.0355 190.72 40.2839C190.481 40.5294 190.184 40.7213 189.831 40.8595C189.479 40.995 189.082 41.0627 188.642 41.0627Z" fill="black"/>
<path d="M134.548 59.3264H135.801L138.747 66.5221H138.848L141.794 59.3264H143.047V67.9951H142.065V61.4089H141.98L139.272 67.9951H138.323L135.614 61.4089H135.53V67.9951H134.548V59.3264ZM147.742 68.1306C147.116 68.1306 146.575 67.9923 146.121 67.7158C145.67 67.4364 145.321 67.047 145.076 66.5475C144.833 66.0452 144.712 65.4611 144.712 64.7952C144.712 64.1292 144.833 63.5423 145.076 63.0343C145.321 62.5236 145.663 62.1257 146.1 61.8407C146.54 61.5529 147.054 61.4089 147.641 61.4089C147.979 61.4089 148.314 61.4654 148.644 61.5783C148.974 61.6911 149.275 61.8746 149.545 62.1285C149.816 62.3797 150.032 62.7126 150.193 63.1274C150.354 63.5423 150.434 64.053 150.434 64.6597V65.083H145.423V64.2195H149.419C149.419 63.8527 149.345 63.5253 149.198 63.2375C149.054 62.9497 148.848 62.7225 148.58 62.556C148.315 62.3895 148.002 62.3063 147.641 62.3063C147.243 62.3063 146.899 62.4051 146.608 62.6026C146.32 62.7973 146.099 63.0513 145.943 63.3645C145.788 63.6777 145.711 64.0135 145.711 64.3719V64.9475C145.711 65.4385 145.795 65.8548 145.965 66.1962C146.137 66.5348 146.375 66.793 146.68 66.9708C146.985 67.1457 147.339 67.2332 147.742 67.2332C148.005 67.2332 148.242 67.1965 148.453 67.1232C148.668 67.047 148.853 66.9341 149.008 66.7845C149.163 66.6322 149.283 66.4431 149.368 66.2174L150.333 66.4883C150.231 66.8156 150.06 67.1034 149.821 67.3517C149.581 67.5972 149.284 67.7891 148.932 67.9274C148.579 68.0628 148.183 68.1306 147.742 68.1306ZM154.781 61.4936V62.3402H151.412V61.4936H154.781ZM152.394 59.9359H153.393V66.1327C153.393 66.4149 153.434 66.6265 153.516 66.7676C153.6 66.9059 153.708 66.999 153.837 67.047C153.97 67.0921 154.11 67.1147 154.257 67.1147C154.367 67.1147 154.457 67.1091 154.527 67.0978C154.598 67.0837 154.654 67.0724 154.697 67.0639L154.9 67.9613C154.832 67.9867 154.738 68.012 154.616 68.0374C154.495 68.0657 154.341 68.0798 154.155 68.0798C153.873 68.0798 153.596 68.0191 153.325 67.8978C153.057 67.7764 152.834 67.5916 152.657 67.3433C152.482 67.095 152.394 66.7817 152.394 66.4036V59.9359ZM158.197 68.1475C157.785 68.1475 157.411 68.0699 157.076 67.9147C156.74 67.7567 156.473 67.5295 156.276 67.2332C156.078 66.9341 155.979 66.5729 155.979 66.1496C155.979 65.7772 156.053 65.4752 156.199 65.2438C156.346 65.0096 156.542 64.8262 156.788 64.6936C157.033 64.5609 157.304 64.4622 157.6 64.3973C157.9 64.3296 158.2 64.2759 158.502 64.2364C158.897 64.1856 159.217 64.1475 159.463 64.1221C159.711 64.0939 159.892 64.0474 160.005 63.9825C160.12 63.9176 160.178 63.8047 160.178 63.6438V63.61C160.178 63.1923 160.064 62.8678 159.835 62.6364C159.61 62.4051 159.267 62.2894 158.807 62.2894C158.33 62.2894 157.956 62.3938 157.685 62.6026C157.414 62.8114 157.224 63.0343 157.114 63.2714L156.166 62.9327C156.335 62.5377 156.561 62.2301 156.843 62.01C157.128 61.7871 157.438 61.6319 157.774 61.5444C158.113 61.4541 158.446 61.4089 158.773 61.4089C158.982 61.4089 159.222 61.4343 159.492 61.4851C159.766 61.5331 160.03 61.6333 160.284 61.7857C160.541 61.938 160.754 62.168 160.923 62.4756C161.092 62.7832 161.177 63.1952 161.177 63.7116V67.9951H160.178V67.1147H160.127C160.06 67.2558 159.947 67.4068 159.789 67.5676C159.631 67.7285 159.421 67.8653 159.158 67.9782C158.896 68.0911 158.575 68.1475 158.197 68.1475ZM158.35 67.2502C158.745 67.2502 159.078 67.1726 159.349 67.0174C159.622 66.8621 159.828 66.6618 159.967 66.4163C160.108 66.1708 160.178 65.9126 160.178 65.6417V64.7274C160.136 64.7782 160.043 64.8248 159.899 64.8671C159.758 64.9066 159.594 64.9419 159.408 64.9729C159.224 65.0011 159.045 65.0265 158.87 65.0491C158.698 65.0689 158.558 65.0858 158.451 65.0999C158.192 65.1338 157.949 65.1888 157.723 65.265C157.5 65.3384 157.32 65.4498 157.181 65.5994C157.046 65.7461 156.978 65.9465 156.978 66.2004C156.978 66.5475 157.107 66.8099 157.363 66.9877C157.623 67.1627 157.952 67.2502 158.35 67.2502ZM163.999 59.3264V67.9951H163V59.3264H163.999ZM170.18 59.3264V67.9951H169.181V59.3264H170.18ZM173.923 68.1475C173.511 68.1475 173.137 68.0699 172.801 67.9147C172.466 67.7567 172.199 67.5295 172.001 67.2332C171.804 66.9341 171.705 66.5729 171.705 66.1496C171.705 65.7772 171.778 65.4752 171.925 65.2438C172.072 65.0096 172.268 64.8262 172.513 64.6936C172.759 64.5609 173.03 64.4622 173.326 64.3973C173.625 64.3296 173.926 64.2759 174.228 64.2364C174.623 64.1856 174.943 64.1475 175.189 64.1221C175.437 64.0939 175.617 64.0474 175.73 63.9825C175.846 63.9176 175.904 63.8047 175.904 63.6438V63.61C175.904 63.1923 175.79 62.8678 175.561 62.6364C175.335 62.4051 174.992 62.2894 174.533 62.2894C174.056 62.2894 173.682 62.3938 173.411 62.6026C173.14 62.8114 172.949 63.0343 172.839 63.2714L171.891 62.9327C172.061 62.5377 172.286 62.2301 172.569 62.01C172.854 61.7871 173.164 61.6319 173.5 61.5444C173.838 61.4541 174.171 61.4089 174.499 61.4089C174.707 61.4089 174.947 61.4343 175.218 61.4851C175.492 61.5331 175.756 61.6333 176.01 61.7857C176.267 61.938 176.48 62.168 176.649 62.4756C176.818 62.7832 176.903 63.1952 176.903 63.7116V67.9951H175.904V67.1147H175.853C175.785 67.2558 175.673 67.4068 175.515 67.5676C175.356 67.7285 175.146 67.8653 174.884 67.9782C174.621 68.0911 174.301 68.1475 173.923 68.1475ZM174.075 67.2502C174.47 67.2502 174.803 67.1726 175.074 67.0174C175.348 66.8621 175.554 66.6618 175.692 66.4163C175.833 66.1708 175.904 65.9126 175.904 65.6417V64.7274C175.862 64.7782 175.768 64.8248 175.625 64.8671C175.483 64.9066 175.32 64.9419 175.134 64.9729C174.95 65.0011 174.771 65.0265 174.596 65.0491C174.424 65.0689 174.284 65.0858 174.177 65.0999C173.917 65.1338 173.675 65.1888 173.449 65.265C173.226 65.3384 173.045 65.4498 172.907 65.5994C172.772 65.7461 172.704 65.9465 172.704 66.2004C172.704 66.5475 172.832 66.8099 173.089 66.9877C173.349 67.1627 173.677 67.2502 174.075 67.2502ZM179.137 70.4332C178.967 70.4332 178.816 70.4191 178.684 70.3909C178.551 70.3655 178.459 70.3401 178.409 70.3147L178.663 69.4343C178.905 69.4963 179.12 69.5189 179.306 69.502C179.492 69.485 179.657 69.4018 179.801 69.2522C179.948 69.1055 180.082 68.8671 180.203 68.5369L180.39 68.029L177.985 61.4936H179.069L180.864 66.6745H180.931L182.726 61.4936H183.81L181.05 68.9433C180.926 69.2791 180.772 69.557 180.589 69.7771C180.405 70 180.192 70.1651 179.949 70.2723C179.71 70.3796 179.439 70.4332 179.137 70.4332ZM187.621 68.1306C186.995 68.1306 186.454 67.9923 186 67.7158C185.549 67.4364 185.2 67.047 184.955 66.5475C184.712 66.0452 184.591 65.4611 184.591 64.7952C184.591 64.1292 184.712 63.5423 184.955 63.0343C185.2 62.5236 185.542 62.1257 185.979 61.8407C186.419 61.5529 186.933 61.4089 187.52 61.4089C187.858 61.4089 188.193 61.4654 188.523 61.5783C188.853 61.6911 189.153 61.8746 189.424 62.1285C189.695 62.3797 189.911 62.7126 190.072 63.1274C190.233 63.5423 190.313 64.053 190.313 64.6597V65.083H185.302V64.2195H189.297C189.297 63.8527 189.224 63.5253 189.077 63.2375C188.933 62.9497 188.727 62.7225 188.459 62.556C188.194 62.3895 187.881 62.3063 187.52 62.3063C187.122 62.3063 186.778 62.4051 186.487 62.6026C186.199 62.7973 185.978 63.0513 185.822 63.3645C185.667 63.6777 185.59 64.0135 185.59 64.3719V64.9475C185.59 65.4385 185.674 65.8548 185.843 66.1962C186.016 66.5348 186.254 66.793 186.559 66.9708C186.864 67.1457 187.218 67.2332 187.621 67.2332C187.884 67.2332 188.121 67.1965 188.332 67.1232C188.547 67.047 188.732 66.9341 188.887 66.7845C189.042 66.6322 189.162 66.4431 189.247 66.2174L190.212 66.4883C190.11 66.8156 189.939 67.1034 189.7 67.3517C189.46 67.5972 189.163 67.7891 188.811 67.9274C188.458 68.0628 188.061 68.1306 187.621 68.1306ZM191.833 67.9951V61.4936H192.798V62.4756H192.866C192.984 62.1539 193.199 61.8929 193.509 61.6925C193.819 61.4922 194.169 61.392 194.559 61.392C194.632 61.392 194.724 61.3934 194.834 61.3963C194.944 61.3991 195.027 61.4033 195.084 61.4089V62.4248C195.05 62.4163 194.972 62.4036 194.851 62.3867C194.732 62.367 194.607 62.3571 194.474 62.3571C194.158 62.3571 193.876 62.4234 193.628 62.556C193.382 62.6858 193.187 62.8664 193.043 63.0978C192.902 63.3264 192.832 63.5874 192.832 63.8809V67.9951H191.833Z" fill="black"/>
<circle cx="81.7891" cy="124.626" r="43.2335" fill="url(#paint4_radial_807_916)"/>
<circle cx="81.7891" cy="124.626" r="43.2335" fill="url(#paint5_radial_807_916)"/>
<circle cx="81.7891" cy="124.626" r="37.5944" fill="url(#paint6_radial_807_916)"/>
<path d="M125.023 124.626C125.023 131.735 123.269 138.735 119.918 145.006C116.566 151.276 111.72 156.623 105.808 160.573C99.8968 164.523 93.1023 166.954 86.0267 167.651C78.9511 168.348 71.8129 167.289 65.2443 164.568C58.6757 161.847 52.8795 157.549 48.3691 152.053C43.8587 146.557 40.7733 140.033 39.3863 133.06C37.9992 126.087 38.3533 118.879 40.4172 112.076C42.481 105.272 46.191 99.0823 51.2184 94.0549L81.7891 124.626H125.023Z" fill="url(#paint7_radial_807_916)"/>
<circle cx="185.211" cy="124.626" r="43.2335" fill="url(#paint8_radial_807_916)"/>
<circle cx="185.211" cy="124.626" r="43.2335" fill="url(#paint9_radial_807_916)"/>
<circle cx="185.211" cy="124.626" r="37.5944" fill="url(#paint10_radial_807_916)"/>
<path d="M228.444 124.626C228.444 131.735 226.691 138.735 223.34 145.006C219.988 151.276 215.142 156.623 209.23 160.573C203.319 164.523 196.524 166.954 189.449 167.651C182.373 168.348 175.235 167.289 168.666 164.568C162.098 161.847 156.301 157.549 151.791 152.053C147.281 146.557 144.195 140.033 142.808 133.06C141.421 126.087 141.775 118.879 143.839 112.076C145.903 105.272 149.613 99.0823 154.64 94.0549L185.211 124.626H228.444Z" fill="url(#paint11_radial_807_916)"/>
<circle cx="80.1522" cy="200.494" r="16.5" fill="url(#paint12_radial_807_916)"/>
<circle cx="130.152" cy="200.494" r="16.5" fill="url(#paint13_radial_807_916)"/>
<circle cx="180.152" cy="200.494" r="16.5" fill="url(#paint14_radial_807_916)"/>
<defs>
<radialGradient id="paint0_radial_807_916" cx="0" cy="0" r="1" gradientUnits="userSpaceOnUse" gradientTransform="translate(145.881 34.1184) rotate(103.101) scale(54.6301)">
<stop stop-color="#FFF5D2"/>
<stop offset="1" stop-color="#8D7932"/>
</radialGradient>
<radialGradient id="paint1_radial_807_916" cx="0" cy="0" r="1" gradientUnits="userSpaceOnUse" gradientTransform="translate(133.498 44.0929) rotate(90) scale(43.2335)">
<stop offset="0.791667" stop-color="white"/>
<stop offset="1" stop-color="#555555"/>
</radialGradient>
<radialGradient id="paint2_radial_807_916" cx="0" cy="0" r="1" gradientUnits="userSpaceOnUse" gradientTransform="translate(133.498 44.0929) rotate(90) scale(37.5944)">
<stop offset="0.125" stop-color="#C7C7C7"/>
<stop offset="1" stop-color="#474747"/>
</radialGradient>
<radialGradient id="paint3_radial_807_916" cx="0" cy="0" r="1" gradientUnits="userSpaceOnUse" gradientTransform="translate(133.498 44.0929) rotate(90) scale(43.2335)">
<stop offset="0.197917" stop-color="#FCFCFC"/>
<stop offset="0.786458" stop-color="#BEBEBE"/>
<stop offset="1" stop-color="#9C9C9C"/>
</radialGradient>
<radialGradient id="paint4_radial_807_916" cx="0" cy="0" r="1" gradientUnits="userSpaceOnUse" gradientTransform="translate(94.1724 114.651) rotate(103.101) scale(54.6301)">
<stop stop-color="#FFF5D2"/>
<stop offset="1" stop-color="#8D7932"/>
</radialGradient>
<radialGradient id="paint5_radial_807_916" cx="0" cy="0" r="1" gradientUnits="userSpaceOnUse" gradientTransform="translate(81.7891 124.626) rotate(90) scale(43.2335)">
<stop offset="0.791667" stop-color="white"/>
<stop offset="1" stop-color="#555555"/>
</radialGradient>
<radialGradient id="paint6_radial_807_916" cx="0" cy="0" r="1" gradientUnits="userSpaceOnUse" gradientTransform="translate(81.7891 124.626) rotate(90) scale(37.5944)">
<stop offset="0.125" stop-color="#C7C7C7"/>
<stop offset="1" stop-color="#474747"/>
</radialGradient>
<radialGradient id="paint7_radial_807_916" cx="0" cy="0" r="1" gradientUnits="userSpaceOnUse" gradientTransform="translate(94.1724 114.651) rotate(103.101) scale(54.6301)">
<stop stop-color="#FFF5D2"/>
<stop offset="1" stop-color="#8D7932"/>
</radialGradient>
<radialGradient id="paint8_radial_807_916" cx="0" cy="0" r="1" gradientUnits="userSpaceOnUse" gradientTransform="translate(197.594 114.651) rotate(103.101) scale(54.6301)">
<stop stop-color="#FFF5D2"/>
<stop offset="1" stop-color="#8D7932"/>
</radialGradient>
<radialGradient id="paint9_radial_807_916" cx="0" cy="0" r="1" gradientUnits="userSpaceOnUse" gradientTransform="translate(185.211 124.626) rotate(90) scale(43.2335)">
<stop offset="0.791667" stop-color="white"/>
<stop offset="1" stop-color="#555555"/>
</radialGradient>
<radialGradient id="paint10_radial_807_916" cx="0" cy="0" r="1" gradientUnits="userSpaceOnUse" gradientTransform="translate(185.211 124.626) rotate(90) scale(37.5944)">
<stop offset="0.125" stop-color="#C7C7C7"/>
<stop offset="1" stop-color="#474747"/>
</radialGradient>
<radialGradient id="paint11_radial_807_916" cx="0" cy="0" r="1" gradientUnits="userSpaceOnUse" gradientTransform="translate(185.211 124.626) rotate(90) scale(43.2335)">
<stop offset="0.189998" stop-color="#A5BDCE"/>
<stop offset="1" stop-color="#616A6D"/>
</radialGradient>
<radialGradient id="paint12_radial_807_916" cx="0" cy="0" r="1" gradientUnits="userSpaceOnUse" gradientTransform="translate(86.1522 197.494) rotate(107.103) scale(20.4022)">
<stop offset="0.0104167" stop-color="#FCFCFC"/>
<stop offset="0.641164" stop-color="#BEBEBE"/>
<stop offset="1" stop-color="#9C9C9C"/>
</radialGradient>
<radialGradient id="paint13_radial_807_916" cx="0" cy="0" r="1" gradientUnits="userSpaceOnUse" gradientTransform="translate(134.878 196.687) rotate(103.101) scale(20.8495)">
<stop stop-color="#FFF5D2"/>
<stop offset="1" stop-color="#8D7932"/>
</radialGradient>
<radialGradient id="paint14_radial_807_916" cx="0" cy="0" r="1" gradientUnits="userSpaceOnUse" gradientTransform="translate(184.152 197.494) rotate(101.592) scale(19.906)">
<stop stop-color="#A5BDCE"/>
<stop offset="0.847419" stop-color="#616A6D"/>
</radialGradient>
</defs>
</svg>
