<svg width="163" height="163" viewBox="0 0 163 163" fill="none" xmlns="http://www.w3.org/2000/svg">
<circle cx="81.9238" cy="81.2744" r="81" fill="white"/>
<circle cx="81.9238" cy="81.2744" r="70.4348" fill="url(#paint0_radial_669_3699)"/>
<path d="M82.2695 63.9873V55.3186H85.1985C85.8786 55.3186 86.4345 55.4414 86.8662 55.6869C87.3008 55.9295 87.6225 56.2583 87.8313 56.6731C88.0401 57.0879 88.1445 57.5507 88.1445 58.0614C88.1445 58.5722 88.0401 59.0364 87.8313 59.454C87.6253 59.8717 87.3064 60.2046 86.8747 60.453C86.4429 60.6985 85.8899 60.8212 85.2154 60.8212H83.116V59.89H85.1816C85.6472 59.89 86.0211 59.8096 86.3033 59.6487C86.5855 59.4879 86.79 59.2706 86.917 58.9969C87.0468 58.7203 87.1117 58.4085 87.1117 58.0614C87.1117 57.7144 87.0468 57.404 86.917 57.1302C86.79 56.8565 86.584 56.6421 86.299 56.4869C86.014 56.3288 85.6359 56.2498 85.1647 56.2498H83.3192V63.9873H82.2695ZM92.2715 64.1228C91.6845 64.1228 91.1695 63.9831 90.7265 63.7037C90.2863 63.4243 89.942 63.0335 89.6937 62.5312C89.4482 62.0289 89.3255 61.442 89.3255 60.7704C89.3255 60.0932 89.4482 59.502 89.6937 58.9969C89.942 58.4918 90.2863 58.0995 90.7265 57.8202C91.1695 57.5408 91.6845 57.4011 92.2715 57.4011C92.8584 57.4011 93.372 57.5408 93.8122 57.8202C94.2552 58.0995 94.5995 58.4918 94.845 58.9969C95.0933 59.502 95.2175 60.0932 95.2175 60.7704C95.2175 61.442 95.0933 62.0289 94.845 62.5312C94.5995 63.0335 94.2552 63.4243 93.8122 63.7037C93.372 63.9831 92.8584 64.1228 92.2715 64.1228ZM92.2715 63.2254C92.7173 63.2254 93.0841 63.1111 93.372 62.8826C93.6598 62.654 93.8728 62.3535 94.0111 61.981C94.1494 61.6085 94.2185 61.205 94.2185 60.7704C94.2185 60.3358 94.1494 59.9309 94.0111 59.5556C93.8728 59.1803 93.6598 58.877 93.372 58.6456C93.0841 58.4142 92.7173 58.2985 92.2715 58.2985C91.8256 58.2985 91.4588 58.4142 91.1709 58.6456C90.8831 58.877 90.6701 59.1803 90.5318 59.5556C90.3935 59.9309 90.3244 60.3358 90.3244 60.7704C90.3244 61.205 90.3935 61.6085 90.5318 61.981C90.6701 62.3535 90.8831 62.654 91.1709 62.8826C91.4588 63.1111 91.8256 63.2254 92.2715 63.2254ZM97.7412 55.3186V63.9873H96.7423V55.3186H97.7412ZM100.214 66.4254C100.045 66.4254 99.8939 66.4113 99.7613 66.383C99.6287 66.3576 99.537 66.3323 99.4862 66.3069L99.7402 65.4264C99.9828 65.4885 100.197 65.5111 100.384 65.4942C100.57 65.4772 100.735 65.394 100.879 65.2444C101.025 65.0977 101.16 64.8593 101.281 64.5291L101.467 64.0212L99.0629 57.4858H100.146L101.941 62.6667H102.009L103.804 57.4858H104.887L102.127 64.9354C102.003 65.2712 101.849 65.5492 101.666 65.7693C101.483 65.9922 101.27 66.1573 101.027 66.2645C100.787 66.3718 100.516 66.4254 100.214 66.4254ZM106.206 63.9873V57.4858H107.171V58.5017H107.255C107.391 58.1546 107.61 57.8851 107.911 57.6932C108.213 57.4985 108.576 57.4011 108.999 57.4011C109.428 57.4011 109.785 57.4985 110.07 57.6932C110.358 57.8851 110.582 58.1546 110.743 58.5017H110.811C110.977 58.1659 111.227 57.8992 111.56 57.7017C111.893 57.5013 112.292 57.4011 112.758 57.4011C113.339 57.4011 113.815 57.5831 114.184 57.9472C114.554 58.3084 114.739 58.8713 114.739 59.636V63.9873H113.74V59.636C113.74 59.1563 113.609 58.8135 113.346 58.6075C113.084 58.4015 112.775 58.2985 112.419 58.2985C111.962 58.2985 111.608 58.4368 111.357 58.7133C111.106 58.987 110.98 59.3341 110.98 59.7545V63.9873H109.964V59.5344C109.964 59.1648 109.844 58.8671 109.605 58.6413C109.365 58.4128 109.056 58.2985 108.678 58.2985C108.418 58.2985 108.175 58.3676 107.95 58.5059C107.727 58.6442 107.546 58.836 107.408 59.0815C107.272 59.3242 107.205 59.605 107.205 59.9239V63.9873H106.206ZM119.291 64.1228C118.665 64.1228 118.124 63.9845 117.67 63.7079C117.219 63.4286 116.87 63.0392 116.625 62.5397C116.382 62.0374 116.261 61.4533 116.261 60.7873C116.261 60.1214 116.382 59.5344 116.625 59.0265C116.87 58.5158 117.212 58.1179 117.649 57.8329C118.089 57.545 118.603 57.4011 119.19 57.4011C119.528 57.4011 119.863 57.4576 120.193 57.5704C120.523 57.6833 120.824 57.8667 121.094 58.1207C121.365 58.3718 121.581 58.7048 121.742 59.1196C121.903 59.5344 121.983 60.0452 121.983 60.6519V61.0752H116.972V60.2117H120.967C120.967 59.8448 120.894 59.5175 120.747 59.2297C120.603 58.9419 120.397 58.7147 120.129 58.5482C119.864 58.3817 119.551 58.2985 119.19 58.2985C118.792 58.2985 118.448 58.3972 118.157 58.5948C117.869 58.7895 117.648 59.0434 117.492 59.3567C117.337 59.6699 117.26 60.0057 117.26 60.3641V60.9397C117.26 61.4307 117.344 61.8469 117.513 62.1884C117.686 62.527 117.924 62.7852 118.229 62.963C118.534 63.1379 118.888 63.2254 119.291 63.2254C119.554 63.2254 119.791 63.1887 120.002 63.1154C120.217 63.0392 120.402 62.9263 120.557 62.7767C120.712 62.6244 120.832 62.4353 120.917 62.2095L121.882 62.4804C121.78 62.8078 121.609 63.0956 121.37 63.3439C121.13 63.5894 120.833 63.7813 120.481 63.9196C120.128 64.055 119.731 64.1228 119.291 64.1228ZM123.503 63.9873V57.4858H124.468V58.4678H124.536C124.654 58.1461 124.869 57.8851 125.179 57.6847C125.489 57.4844 125.839 57.3842 126.229 57.3842C126.302 57.3842 126.394 57.3856 126.504 57.3884C126.614 57.3913 126.697 57.3955 126.754 57.4011V58.417C126.72 58.4085 126.642 58.3958 126.521 58.3789C126.402 58.3591 126.277 58.3493 126.144 58.3493C125.828 58.3493 125.546 58.4156 125.298 58.5482C125.052 58.678 124.857 58.8586 124.713 59.09C124.572 59.3186 124.502 59.5796 124.502 59.8731V63.9873H123.503Z" fill="black"/>
<defs>
<radialGradient id="paint0_radial_669_3699" cx="0" cy="0" r="1" gradientUnits="userSpaceOnUse" gradientTransform="translate(106.616 59.783) rotate(130.515) scale(85.0642)">
<stop stop-color="#D2F7E5"/>
<stop offset="1" stop-color="#A8D1E3"/>
</radialGradient>
</defs>
</svg>
