<svg width="454" height="222" viewBox="0 0 454 222" fill="none" xmlns="http://www.w3.org/2000/svg">
<rect y="54" width="454" height="152" rx="25.9651" fill="#D2E5F3"/>
<ellipse cx="110.5" cy="110.88" rx="27.5" ry="20.8796" fill="url(#paint0_radial_729_2915)"/>
<ellipse cx="350.5" cy="110.274" rx="27.5" ry="21.2736" fill="url(#paint1_radial_729_2915)"/>
<circle cx="231.503" cy="146.218" r="22.5031" fill="url(#paint2_radial_729_2915)"/>
<rect x="454" y="53.6614" width="453.999" height="53.6613" rx="4.32752" transform="rotate(-180 454 53.6614)" fill="#728389"/>
<path d="M194.29 23.4316C194.225 22.8497 193.954 22.3989 193.479 22.0792C193.004 21.7555 192.405 21.5936 191.684 21.5936C191.168 21.5936 190.721 21.6756 190.344 21.8395C189.967 21.9993 189.674 22.2206 189.465 22.5034C189.26 22.782 189.158 23.0996 189.158 23.4562C189.158 23.7553 189.227 24.0135 189.367 24.2307C189.51 24.4479 189.696 24.6303 189.926 24.7778C190.16 24.9212 190.41 25.0421 190.676 25.1405C190.942 25.2347 191.198 25.3126 191.444 25.374L192.674 25.6937C193.075 25.792 193.487 25.9252 193.909 26.0932C194.331 26.2613 194.723 26.4826 195.083 26.7571C195.444 27.0317 195.735 27.3718 195.956 27.7775C196.182 28.1832 196.294 28.6689 196.294 29.2344C196.294 29.9475 196.11 30.5806 195.741 31.1338C195.376 31.6871 194.846 32.1235 194.149 32.4432C193.456 32.7628 192.618 32.9226 191.635 32.9226C190.692 32.9226 189.877 32.773 189.188 32.4739C188.5 32.1747 187.961 31.7506 187.572 31.2014C187.182 30.6482 186.967 29.9925 186.926 29.2344H188.832C188.869 29.6893 189.016 30.0683 189.274 30.3716C189.537 30.6708 189.871 30.8941 190.276 31.0416C190.686 31.1851 191.135 31.2568 191.623 31.2568C192.159 31.2568 192.637 31.1728 193.055 31.0047C193.477 30.8326 193.809 30.5949 194.051 30.2917C194.292 29.9843 194.413 29.6258 194.413 29.216C194.413 28.843 194.307 28.5377 194.094 28.3C193.885 28.0624 193.6 27.8656 193.239 27.7099C192.883 27.5542 192.479 27.4169 192.028 27.2981L190.541 26.8924C189.533 26.6178 188.733 26.2141 188.143 25.6814C187.557 25.1487 187.264 24.4438 187.264 23.5668C187.264 22.8415 187.461 22.2083 187.854 21.6674C188.248 21.1264 188.781 20.7064 189.453 20.4072C190.125 20.104 190.883 19.9523 191.727 19.9523C192.579 19.9523 193.331 20.1019 193.983 20.4011C194.639 20.7002 195.155 21.1121 195.532 21.6366C195.909 22.1571 196.106 22.7554 196.122 23.4316H194.29ZM204.398 28.798V23.2718H206.242V32.7136H204.435V31.0785H204.336C204.119 31.5826 203.771 32.0026 203.291 32.3387C202.816 32.6706 202.224 32.8366 201.515 32.8366C200.908 32.8366 200.371 32.7034 199.904 32.437C199.441 32.1665 199.076 31.767 198.81 31.2383C198.548 30.7097 198.417 30.056 198.417 29.2774V23.2718H200.255V29.0561C200.255 29.6995 200.433 30.2118 200.789 30.5929C201.146 30.974 201.609 31.1646 202.179 31.1646C202.523 31.1646 202.865 31.0785 203.205 30.9064C203.549 30.7343 203.834 30.474 204.06 30.1257C204.289 29.7774 204.402 29.3348 204.398 28.798ZM208.859 32.7136V20.1245H210.697V24.8024H210.807C210.914 24.6057 211.068 24.3782 211.269 24.12C211.469 23.8619 211.748 23.6365 212.105 23.4439C212.461 23.2472 212.932 23.1488 213.518 23.1488C214.281 23.1488 214.961 23.3414 215.559 23.7266C216.157 24.1119 216.627 24.6671 216.967 25.3925C217.311 26.1178 217.483 26.9907 217.483 28.0111C217.483 29.0315 217.313 29.9065 216.973 30.6359C216.633 31.3613 216.166 31.9207 215.571 32.3141C214.977 32.7034 214.299 32.898 213.537 32.898C212.963 32.898 212.494 32.8017 212.129 32.6091C211.768 32.4165 211.486 32.1911 211.281 31.9329C211.076 31.6748 210.918 31.4453 210.807 31.2445H210.654V32.7136H208.859ZM210.66 27.9927C210.66 28.6566 210.756 29.2385 210.949 29.7385C211.141 30.2384 211.42 30.6298 211.785 30.9125C212.15 31.1912 212.596 31.3305 213.125 31.3305C213.674 31.3305 214.133 31.1851 214.502 30.8941C214.871 30.599 215.149 30.1995 215.338 29.6954C215.53 29.1914 215.627 28.6238 215.627 27.9927C215.627 27.3698 215.533 26.8104 215.344 26.3145C215.16 25.8187 214.881 25.4273 214.508 25.1405C214.139 24.8536 213.678 24.7102 213.125 24.7102C212.592 24.7102 212.141 24.8474 211.773 25.122C211.408 25.3966 211.131 25.7798 210.943 26.2715C210.754 26.7633 210.66 27.337 210.66 27.9927ZM226.622 25.5769L224.956 25.872C224.887 25.6589 224.776 25.456 224.625 25.2634C224.477 25.0708 224.276 24.913 224.022 24.7901C223.768 24.6671 223.45 24.6057 223.069 24.6057C222.549 24.6057 222.114 24.7225 221.766 24.956C221.418 25.1855 221.244 25.4826 221.244 25.8474C221.244 26.1629 221.36 26.417 221.594 26.6096C221.828 26.8022 222.205 26.96 222.725 27.0829L224.225 27.4272C225.094 27.628 225.741 27.9374 226.167 28.3554C226.594 28.7734 226.807 29.3164 226.807 29.9843C226.807 30.5499 226.643 31.0539 226.315 31.4965C225.991 31.935 225.538 32.2792 224.956 32.5292C224.379 32.7792 223.709 32.9042 222.946 32.9042C221.889 32.9042 221.026 32.6788 220.358 32.228C219.69 31.7731 219.281 31.1277 219.129 30.2917L220.906 30.0212C221.016 30.4843 221.244 30.8347 221.588 31.0724C221.932 31.3059 222.381 31.4227 222.934 31.4227C223.536 31.4227 224.018 31.2978 224.379 31.0478C224.739 30.7937 224.92 30.4843 224.92 30.1196C224.92 29.8245 224.809 29.5766 224.588 29.3758C224.37 29.175 224.036 29.0233 223.586 28.9209L221.987 28.5705C221.106 28.3697 220.455 28.0501 220.033 27.6116C219.615 27.1731 219.406 26.6178 219.406 25.9457C219.406 25.3884 219.561 24.9007 219.873 24.4827C220.184 24.0647 220.615 23.7389 221.164 23.5053C221.713 23.2677 222.342 23.1488 223.051 23.1488C224.071 23.1488 224.874 23.3701 225.461 23.8127C226.047 24.2512 226.434 24.8393 226.622 25.5769ZM233.235 23.2718V24.747H228.078V23.2718H233.235ZM229.461 21.0096H231.299V29.9413C231.299 30.2978 231.352 30.5663 231.458 30.7466C231.565 30.9228 231.702 31.0437 231.87 31.1092C232.042 31.1707 232.229 31.2014 232.43 31.2014C232.577 31.2014 232.706 31.1912 232.817 31.1707C232.928 31.1502 233.014 31.1338 233.075 31.1215L233.407 32.6399C233.301 32.6808 233.149 32.7218 232.952 32.7628C232.756 32.8079 232.51 32.8325 232.215 32.8366C231.731 32.8448 231.28 32.7587 230.862 32.5784C230.444 32.3981 230.106 32.1194 229.848 31.7424C229.59 31.3654 229.461 30.892 229.461 30.3224V21.0096ZM235.268 32.7136V23.2718H237.045V24.7716H237.143C237.315 24.2635 237.618 23.8639 238.053 23.573C238.491 23.2779 238.987 23.1304 239.54 23.1304C239.655 23.1304 239.79 23.1345 239.946 23.1427C240.106 23.1509 240.231 23.1611 240.321 23.1734V24.9315C240.247 24.911 240.116 24.8884 239.928 24.8638C239.739 24.8352 239.551 24.8208 239.362 24.8208C238.928 24.8208 238.54 24.913 238.2 25.0974C237.864 25.2777 237.598 25.5298 237.401 25.8535C237.204 26.1732 237.106 26.5379 237.106 26.9477V32.7136H235.268ZM244.575 32.9226C243.976 32.9226 243.436 32.812 242.952 32.5907C242.468 32.3653 242.085 32.0395 241.802 31.6133C241.524 31.1871 241.384 30.6646 241.384 30.0458C241.384 29.5131 241.487 29.0746 241.692 28.7303C241.897 28.3861 242.173 28.1136 242.522 27.9128C242.87 27.712 243.259 27.5603 243.69 27.4579C244.12 27.3554 244.558 27.2776 245.005 27.2243C245.571 27.1587 246.03 27.1055 246.382 27.0645C246.734 27.0194 246.991 26.9477 247.15 26.8493C247.31 26.751 247.39 26.5912 247.39 26.3699V26.3268C247.39 25.79 247.238 25.374 246.935 25.079C246.636 24.7839 246.189 24.6364 245.595 24.6364C244.976 24.6364 244.489 24.7737 244.132 25.0483C243.78 25.3187 243.536 25.6199 243.401 25.9519L241.673 25.5585C241.878 24.9847 242.177 24.5217 242.571 24.1692C242.968 23.8127 243.425 23.5545 243.942 23.3947C244.458 23.2308 245.001 23.1488 245.571 23.1488C245.948 23.1488 246.347 23.1939 246.769 23.284C247.195 23.3701 247.593 23.5299 247.962 23.7635C248.335 23.9971 248.64 24.3311 248.878 24.7655C249.115 25.1958 249.234 25.7552 249.234 26.4436V32.7136H247.439V31.4227H247.366C247.247 31.6604 247.068 31.894 246.831 32.1235C246.593 32.353 246.288 32.5436 245.915 32.6952C245.542 32.8468 245.095 32.9226 244.575 32.9226ZM244.974 31.4473C245.482 31.4473 245.917 31.3469 246.277 31.1461C246.642 30.9453 246.919 30.683 247.107 30.3593C247.3 30.0315 247.396 29.6811 247.396 29.3082V28.091C247.331 28.1566 247.204 28.2181 247.015 28.2755C246.831 28.3287 246.62 28.3759 246.382 28.4168C246.144 28.4537 245.913 28.4886 245.687 28.5213C245.462 28.55 245.273 28.5746 245.122 28.5951C244.765 28.6402 244.44 28.716 244.144 28.8225C243.854 28.9291 243.62 29.0828 243.444 29.2836C243.272 29.4803 243.186 29.7425 243.186 30.0704C243.186 30.5253 243.354 30.8695 243.69 31.1031C244.026 31.3326 244.454 31.4473 244.974 31.4473ZM256.09 23.2718V24.747H250.932V23.2718H256.09ZM252.315 21.0096H254.153V29.9413C254.153 30.2978 254.207 30.5663 254.313 30.7466C254.42 30.9228 254.557 31.0437 254.725 31.1092C254.897 31.1707 255.084 31.2014 255.284 31.2014C255.432 31.2014 255.561 31.1912 255.672 31.1707C255.782 31.1502 255.868 31.1338 255.93 31.1215L256.262 32.6399C256.155 32.6808 256.004 32.7218 255.807 32.7628C255.61 32.8079 255.364 32.8325 255.069 32.8366C254.586 32.8448 254.135 32.7587 253.717 32.5784C253.299 32.3981 252.961 32.1194 252.703 31.7424C252.445 31.3654 252.315 30.892 252.315 30.3224V21.0096ZM262.091 32.9042C261.161 32.9042 260.359 32.7054 259.687 32.3079C259.019 31.9063 258.503 31.3428 258.138 30.6175C257.778 29.888 257.597 29.0336 257.597 28.0542C257.597 27.087 257.778 26.2346 258.138 25.497C258.503 24.7593 259.011 24.1836 259.663 23.7697C260.318 23.3558 261.085 23.1488 261.962 23.1488C262.494 23.1488 263.011 23.2369 263.511 23.4131C264.011 23.5894 264.459 23.866 264.857 24.243C265.254 24.62 265.568 25.1097 265.797 25.7121C266.027 26.3104 266.142 27.0378 266.142 27.8943V28.5459H258.636V27.169H264.341C264.341 26.6854 264.242 26.2572 264.046 25.8843C263.849 25.5072 263.572 25.2101 263.216 24.9929C262.863 24.7757 262.449 24.6671 261.974 24.6671C261.458 24.6671 261.007 24.7942 260.622 25.0483C260.241 25.2982 259.945 25.6261 259.736 26.0318C259.532 26.4334 259.429 26.8698 259.429 27.3411V28.4168C259.429 29.0479 259.54 29.5848 259.761 30.0274C259.986 30.4699 260.3 30.808 260.702 31.0416C261.103 31.2711 261.572 31.3859 262.109 31.3859C262.458 31.3859 262.775 31.3367 263.062 31.2383C263.349 31.1359 263.597 30.9843 263.806 30.7834C264.015 30.5826 264.175 30.3347 264.285 30.0397L266.025 30.3532C265.886 30.8654 265.636 31.3141 265.275 31.6994C264.918 32.0805 264.47 32.3776 263.929 32.5907C263.392 32.7997 262.779 32.9042 262.091 32.9042Z" fill="white"/>
<rect y="167.721" width="453.999" height="53.6613" rx="4.32752" fill="#728389"/>
<path d="M194.29 185.094C194.225 184.512 193.954 184.061 193.479 183.742C193.004 183.418 192.405 183.256 191.684 183.256C191.168 183.256 190.721 183.338 190.344 183.502C189.967 183.662 189.674 183.883 189.465 184.166C189.26 184.444 189.158 184.762 189.158 185.119C189.158 185.418 189.227 185.676 189.367 185.893C189.51 186.11 189.696 186.293 189.926 186.44C190.16 186.584 190.41 186.704 190.676 186.803C190.942 186.897 191.198 186.975 191.444 187.036L192.674 187.356C193.075 187.454 193.487 187.588 193.909 187.756C194.331 187.924 194.723 188.145 195.083 188.419C195.444 188.694 195.735 189.034 195.956 189.44C196.182 189.846 196.294 190.331 196.294 190.897C196.294 191.61 196.11 192.243 195.741 192.796C195.376 193.349 194.846 193.786 194.149 194.106C193.456 194.425 192.618 194.585 191.635 194.585C190.692 194.585 189.877 194.435 189.188 194.136C188.5 193.837 187.961 193.413 187.572 192.864C187.182 192.311 186.967 191.655 186.926 190.897H188.832C188.869 191.352 189.016 191.731 189.274 192.034C189.537 192.333 189.871 192.556 190.276 192.704C190.686 192.847 191.135 192.919 191.623 192.919C192.159 192.919 192.637 192.835 193.055 192.667C193.477 192.495 193.809 192.257 194.051 191.954C194.292 191.647 194.413 191.288 194.413 190.878C194.413 190.505 194.307 190.2 194.094 189.962C193.885 189.725 193.6 189.528 193.239 189.372C192.883 189.217 192.479 189.079 192.028 188.96L190.541 188.555C189.533 188.28 188.733 187.876 188.143 187.344C187.557 186.811 187.264 186.106 187.264 185.229C187.264 184.504 187.461 183.871 187.854 183.33C188.248 182.789 188.781 182.369 189.453 182.07C190.125 181.766 190.883 181.615 191.727 181.615C192.579 181.615 193.331 181.764 193.983 182.063C194.639 182.363 195.155 182.774 195.532 183.299C195.909 183.819 196.106 184.418 196.122 185.094H194.29ZM204.398 190.46V184.934H206.242V194.376H204.435V192.741H204.336C204.119 193.245 203.771 193.665 203.291 194.001C202.816 194.333 202.224 194.499 201.515 194.499C200.908 194.499 200.371 194.366 199.904 194.099C199.441 193.829 199.076 193.429 198.81 192.901C198.548 192.372 198.417 191.718 198.417 190.94V184.934H200.255V190.718C200.255 191.362 200.433 191.874 200.789 192.255C201.146 192.636 201.609 192.827 202.179 192.827C202.523 192.827 202.865 192.741 203.205 192.569C203.549 192.397 203.834 192.136 204.06 191.788C204.289 191.44 204.402 190.997 204.398 190.46ZM208.859 194.376V181.787H210.697V186.465H210.807C210.914 186.268 211.068 186.041 211.269 185.782C211.469 185.524 211.748 185.299 212.105 185.106C212.461 184.91 212.932 184.811 213.518 184.811C214.281 184.811 214.961 185.004 215.559 185.389C216.157 185.774 216.627 186.329 216.967 187.055C217.311 187.78 217.483 188.653 217.483 189.673C217.483 190.694 217.313 191.569 216.973 192.298C216.633 193.024 216.166 193.583 215.571 193.976C214.977 194.366 214.299 194.56 213.537 194.56C212.963 194.56 212.494 194.464 212.129 194.271C211.768 194.079 211.486 193.853 211.281 193.595C211.076 193.337 210.918 193.108 210.807 192.907H210.654V194.376H208.859ZM210.66 189.655C210.66 190.319 210.756 190.901 210.949 191.401C211.141 191.901 211.42 192.292 211.785 192.575C212.15 192.854 212.596 192.993 213.125 192.993C213.674 192.993 214.133 192.847 214.502 192.556C214.871 192.261 215.149 191.862 215.338 191.358C215.53 190.854 215.627 190.286 215.627 189.655C215.627 189.032 215.533 188.473 215.344 187.977C215.16 187.481 214.881 187.09 214.508 186.803C214.139 186.516 213.678 186.373 213.125 186.373C212.592 186.373 212.141 186.51 211.773 186.784C211.408 187.059 211.131 187.442 210.943 187.934C210.754 188.426 210.66 188.999 210.66 189.655ZM226.622 187.239L224.956 187.534C224.887 187.321 224.776 187.118 224.625 186.926C224.477 186.733 224.276 186.575 224.022 186.452C223.768 186.329 223.45 186.268 223.069 186.268C222.549 186.268 222.114 186.385 221.766 186.618C221.418 186.848 221.244 187.145 221.244 187.51C221.244 187.825 221.36 188.079 221.594 188.272C221.828 188.465 222.205 188.622 222.725 188.745L224.225 189.09C225.094 189.29 225.741 189.6 226.167 190.018C226.594 190.436 226.807 190.979 226.807 191.647C226.807 192.212 226.643 192.716 226.315 193.159C225.991 193.597 225.538 193.942 224.956 194.192C224.379 194.442 223.709 194.567 222.946 194.567C221.889 194.567 221.026 194.341 220.358 193.89C219.69 193.435 219.281 192.79 219.129 191.954L220.906 191.684C221.016 192.147 221.244 192.497 221.588 192.735C221.932 192.968 222.381 193.085 222.934 193.085C223.536 193.085 224.018 192.96 224.379 192.71C224.739 192.456 224.92 192.147 224.92 191.782C224.92 191.487 224.809 191.239 224.588 191.038C224.37 190.837 224.036 190.686 223.586 190.583L221.987 190.233C221.106 190.032 220.455 189.712 220.033 189.274C219.615 188.835 219.406 188.28 219.406 187.608C219.406 187.051 219.561 186.563 219.873 186.145C220.184 185.727 220.615 185.401 221.164 185.168C221.713 184.93 222.342 184.811 223.051 184.811C224.071 184.811 224.874 185.032 225.461 185.475C226.047 185.914 226.434 186.502 226.622 187.239ZM233.235 184.934V186.409H228.078V184.934H233.235ZM229.461 182.672H231.299V191.604C231.299 191.96 231.352 192.229 231.458 192.409C231.565 192.585 231.702 192.706 231.87 192.772C232.042 192.833 232.229 192.864 232.43 192.864C232.577 192.864 232.706 192.854 232.817 192.833C232.928 192.813 233.014 192.796 233.075 192.784L233.407 194.302C233.301 194.343 233.149 194.384 232.952 194.425C232.756 194.47 232.51 194.495 232.215 194.499C231.731 194.507 231.28 194.421 230.862 194.241C230.444 194.06 230.106 193.782 229.848 193.405C229.59 193.028 229.461 192.554 229.461 191.985V182.672ZM235.268 194.376V184.934H237.045V186.434H237.143C237.315 185.926 237.618 185.526 238.053 185.235C238.491 184.94 238.987 184.793 239.54 184.793C239.655 184.793 239.79 184.797 239.946 184.805C240.106 184.813 240.231 184.823 240.321 184.836V186.594C240.247 186.573 240.116 186.551 239.928 186.526C239.739 186.498 239.551 186.483 239.362 186.483C238.928 186.483 238.54 186.575 238.2 186.76C237.864 186.94 237.598 187.192 237.401 187.516C237.204 187.836 237.106 188.2 237.106 188.61V194.376H235.268ZM244.575 194.585C243.976 194.585 243.436 194.474 242.952 194.253C242.468 194.028 242.085 193.702 241.802 193.276C241.524 192.849 241.384 192.327 241.384 191.708C241.384 191.175 241.487 190.737 241.692 190.393C241.897 190.048 242.173 189.776 242.522 189.575C242.87 189.374 243.259 189.223 243.69 189.12C244.12 189.018 244.558 188.94 245.005 188.887C245.571 188.821 246.03 188.768 246.382 188.727C246.734 188.682 246.991 188.61 247.15 188.512C247.31 188.413 247.39 188.254 247.39 188.032V187.989C247.39 187.452 247.238 187.036 246.935 186.741C246.636 186.446 246.189 186.299 245.595 186.299C244.976 186.299 244.489 186.436 244.132 186.711C243.78 186.981 243.536 187.282 243.401 187.614L241.673 187.221C241.878 186.647 242.177 186.184 242.571 185.832C242.968 185.475 243.425 185.217 243.942 185.057C244.458 184.893 245.001 184.811 245.571 184.811C245.948 184.811 246.347 184.856 246.769 184.946C247.195 185.032 247.593 185.192 247.962 185.426C248.335 185.659 248.64 185.993 248.878 186.428C249.115 186.858 249.234 187.418 249.234 188.106V194.376H247.439V193.085H247.366C247.247 193.323 247.068 193.556 246.831 193.786C246.593 194.015 246.288 194.206 245.915 194.358C245.542 194.509 245.095 194.585 244.575 194.585ZM244.974 193.11C245.482 193.11 245.917 193.009 246.277 192.808C246.642 192.608 246.919 192.345 247.107 192.022C247.3 191.694 247.396 191.343 247.396 190.971V189.753C247.331 189.819 247.204 189.88 247.015 189.938C246.831 189.991 246.62 190.038 246.382 190.079C246.144 190.116 245.913 190.151 245.687 190.184C245.462 190.212 245.273 190.237 245.122 190.257C244.765 190.303 244.44 190.378 244.144 190.485C243.854 190.591 243.62 190.745 243.444 190.946C243.272 191.143 243.186 191.405 243.186 191.733C243.186 192.188 243.354 192.532 243.69 192.765C244.026 192.995 244.454 193.11 244.974 193.11ZM256.09 184.934V186.409H250.932V184.934H256.09ZM252.315 182.672H254.153V191.604C254.153 191.96 254.207 192.229 254.313 192.409C254.42 192.585 254.557 192.706 254.725 192.772C254.897 192.833 255.084 192.864 255.284 192.864C255.432 192.864 255.561 192.854 255.672 192.833C255.782 192.813 255.868 192.796 255.93 192.784L256.262 194.302C256.155 194.343 256.004 194.384 255.807 194.425C255.61 194.47 255.364 194.495 255.069 194.499C254.586 194.507 254.135 194.421 253.717 194.241C253.299 194.06 252.961 193.782 252.703 193.405C252.445 193.028 252.315 192.554 252.315 191.985V182.672ZM262.091 194.567C261.161 194.567 260.359 194.368 259.687 193.97C259.019 193.569 258.503 193.005 258.138 192.28C257.778 191.55 257.597 190.696 257.597 189.717C257.597 188.749 257.778 187.897 258.138 187.159C258.503 186.422 259.011 185.846 259.663 185.432C260.318 185.018 261.085 184.811 261.962 184.811C262.494 184.811 263.011 184.899 263.511 185.075C264.011 185.252 264.459 185.528 264.857 185.905C265.254 186.282 265.568 186.772 265.797 187.374C266.027 187.973 266.142 188.7 266.142 189.557V190.208H258.636V188.831H264.341C264.341 188.348 264.242 187.92 264.046 187.547C263.849 187.17 263.572 186.872 263.216 186.655C262.863 186.438 262.449 186.329 261.974 186.329C261.458 186.329 261.007 186.457 260.622 186.711C260.241 186.961 259.945 187.288 259.736 187.694C259.532 188.096 259.429 188.532 259.429 189.003V190.079C259.429 190.71 259.54 191.247 259.761 191.69C259.986 192.132 260.3 192.47 260.702 192.704C261.103 192.933 261.572 193.048 262.109 193.048C262.458 193.048 262.775 192.999 263.062 192.901C263.349 192.798 263.597 192.647 263.806 192.446C264.015 192.245 264.175 191.997 264.285 191.702L266.025 192.016C265.886 192.528 265.636 192.976 265.275 193.362C264.918 193.743 264.47 194.04 263.929 194.253C263.392 194.462 262.779 194.567 262.091 194.567Z" fill="white"/>
<rect x="40" y="53" width="132" height="37" fill="#D9D9D9"/>
<rect x="40" y="53" width="132" height="37" fill="url(#paint3_linear_729_2915)"/>
<rect x="40" y="131" width="132" height="37" fill="#D9D9D9"/>
<rect x="40" y="131" width="132" height="37" fill="url(#paint4_linear_729_2915)"/>
<path d="M47.3831 77V64.4108H51.8704C52.8499 64.4108 53.6613 64.5891 54.3047 64.9456C54.9481 65.3022 55.4296 65.7898 55.7492 66.4086C56.0689 67.0233 56.2287 67.7159 56.2287 68.4863C56.2287 69.2609 56.0668 69.9575 55.7431 70.5763C55.4234 71.191 54.9399 71.6787 54.2924 72.0393C53.649 72.3959 52.8396 72.5741 51.8643 72.5741H48.7785V70.9636H51.6922C52.311 70.9636 52.813 70.857 53.1982 70.644C53.5834 70.4268 53.8662 70.1317 54.0465 69.7588C54.2268 69.3859 54.317 68.9617 54.317 68.4863C54.317 68.011 54.2268 67.5889 54.0465 67.22C53.8662 66.8512 53.5814 66.5623 53.192 66.3533C52.8068 66.1443 52.2987 66.0398 51.6676 66.0398H49.2825V77H47.3831ZM60.9711 77.209C60.3728 77.209 59.8319 77.0984 59.3483 76.8771C58.8648 76.6517 58.4816 76.3259 58.1988 75.8997C57.9202 75.4735 57.7808 74.951 57.7808 74.3322C57.7808 73.7994 57.8833 73.3609 58.0882 73.0167C58.2931 72.6725 58.5697 72.4 58.918 72.1992C59.2664 71.9984 59.6557 71.8467 60.086 71.7443C60.5163 71.6418 60.9547 71.564 61.4014 71.5107C61.967 71.4451 62.4259 71.3918 62.7784 71.3509C63.1308 71.3058 63.3869 71.2341 63.5468 71.1357C63.7066 71.0374 63.7865 70.8775 63.7865 70.6562V70.6132C63.7865 70.0764 63.6349 69.6604 63.3316 69.3654C63.0325 69.0703 62.5858 68.9228 61.9916 68.9228C61.3727 68.9228 60.8851 69.0601 60.5286 69.3346C60.1761 69.6051 59.9323 69.9063 59.7971 70.2382L58.0697 69.8448C58.2746 69.2711 58.5738 68.808 58.9672 68.4556C59.3647 68.0991 59.8216 67.8409 60.338 67.6811C60.8543 67.5172 61.3973 67.4352 61.967 67.4352C62.344 67.4352 62.7435 67.4803 63.1656 67.5704C63.5918 67.6565 63.9893 67.8163 64.3582 68.0499C64.7311 68.2835 65.0364 68.6175 65.2741 69.0519C65.5118 69.4822 65.6306 70.0415 65.6306 70.73V77H63.8357V75.7091H63.7619C63.6431 75.9468 63.4648 76.1804 63.2271 76.4099C62.9894 76.6394 62.6841 76.8299 62.3112 76.9816C61.9383 77.1332 61.4916 77.209 60.9711 77.209ZM61.3707 75.7337C61.8789 75.7337 62.3132 75.6333 62.6739 75.4325C63.0386 75.2317 63.3152 74.9694 63.5037 74.6457C63.6963 74.3178 63.7926 73.9675 63.7926 73.5945V72.3774C63.7271 72.443 63.6 72.5045 63.4115 72.5618C63.2271 72.6151 63.0161 72.6622 62.7784 72.7032C62.5407 72.7401 62.3091 72.7749 62.0838 72.8077C61.8584 72.8364 61.6699 72.861 61.5182 72.8815C61.1617 72.9266 60.8359 73.0024 60.5408 73.1089C60.2499 73.2155 60.0163 73.3691 59.8401 73.5699C59.668 73.7667 59.5819 74.0289 59.5819 74.3568C59.5819 74.8117 59.7499 75.1559 60.086 75.3895C60.422 75.619 60.8502 75.7337 61.3707 75.7337ZM71.6132 77.1844C70.851 77.1844 70.1707 76.9898 69.5724 76.6004C68.9782 76.207 68.511 75.6476 68.1709 74.9223C67.8348 74.1928 67.6668 73.3179 67.6668 72.2975C67.6668 71.2771 67.8369 70.4042 68.177 69.6789C68.5213 68.9535 68.9925 68.3982 69.5908 68.013C70.1892 67.6278 70.8674 67.4352 71.6255 67.4352C72.2115 67.4352 72.6828 67.5335 73.0393 67.7302C73.4 67.9229 73.6786 68.1482 73.8753 68.4064C74.0761 68.6646 74.2319 68.892 74.3425 69.0887H74.4532V64.4108H76.2911V77H74.4962V75.5309H74.3425C74.2319 75.7317 74.072 75.9611 73.863 76.2193C73.6581 76.4775 73.3754 76.7029 73.0147 76.8955C72.6541 77.0881 72.1869 77.1844 71.6132 77.1844ZM72.0189 75.6169C72.5476 75.6169 72.9943 75.4776 73.359 75.1989C73.7278 74.9161 74.0065 74.5248 74.195 74.0248C74.3876 73.5249 74.4839 72.9429 74.4839 72.2791C74.4839 71.6234 74.3896 71.0497 74.2011 70.5579C74.0126 70.0661 73.736 69.683 73.3713 69.4084C73.0066 69.1338 72.5558 68.9965 72.0189 68.9965C71.4657 68.9965 71.0047 69.14 70.6358 69.4268C70.267 69.7137 69.9883 70.1051 69.7998 70.6009C69.6154 71.0968 69.5232 71.6562 69.5232 72.2791C69.5232 72.9102 69.6175 73.4777 69.806 73.9818C69.9945 74.4859 70.2732 74.8854 70.642 75.1805C71.0149 75.4714 71.4739 75.6169 72.0189 75.6169Z" fill="white"/>
<path d="M46.3831 159V146.411H50.8704C51.8499 146.411 52.6613 146.589 53.3047 146.946C53.9481 147.302 54.4296 147.79 54.7492 148.409C55.0689 149.023 55.2287 149.716 55.2287 150.486C55.2287 151.261 55.0668 151.958 54.7431 152.576C54.4234 153.191 53.9399 153.679 53.2924 154.039C52.649 154.396 51.8396 154.574 50.8643 154.574H47.7785V152.964H50.6922C51.311 152.964 51.813 152.857 52.1982 152.644C52.5834 152.427 52.8662 152.132 53.0465 151.759C53.2268 151.386 53.317 150.962 53.317 150.486C53.317 150.011 53.2268 149.589 53.0465 149.22C52.8662 148.851 52.5814 148.562 52.192 148.353C51.8068 148.144 51.2987 148.04 50.6676 148.04H48.2825V159H46.3831ZM59.9711 159.209C59.3728 159.209 58.8319 159.098 58.3483 158.877C57.8648 158.652 57.4816 158.326 57.1988 157.9C56.9202 157.473 56.7808 156.951 56.7808 156.332C56.7808 155.799 56.8833 155.361 57.0882 155.017C57.2931 154.672 57.5697 154.4 57.918 154.199C58.2664 153.998 58.6557 153.847 59.086 153.744C59.5163 153.642 59.9547 153.564 60.4014 153.511C60.967 153.445 61.4259 153.392 61.7784 153.351C62.1308 153.306 62.3869 153.234 62.5468 153.136C62.7066 153.037 62.7865 152.878 62.7865 152.656V152.613C62.7865 152.076 62.6349 151.66 62.3316 151.365C62.0325 151.07 61.5858 150.923 60.9916 150.923C60.3727 150.923 59.8851 151.06 59.5286 151.335C59.1761 151.605 58.9323 151.906 58.7971 152.238L57.0697 151.845C57.2746 151.271 57.5738 150.808 57.9672 150.456C58.3647 150.099 58.8216 149.841 59.338 149.681C59.8543 149.517 60.3973 149.435 60.967 149.435C61.344 149.435 61.7435 149.48 62.1656 149.57C62.5918 149.656 62.9893 149.816 63.3582 150.05C63.7311 150.283 64.0364 150.617 64.2741 151.052C64.5118 151.482 64.6306 152.042 64.6306 152.73V159H62.8357V157.709H62.7619C62.6431 157.947 62.4648 158.18 62.2271 158.41C61.9894 158.639 61.6841 158.83 61.3112 158.982C60.9383 159.133 60.4916 159.209 59.9711 159.209ZM60.3707 157.734C60.8789 157.734 61.3132 157.633 61.6739 157.433C62.0386 157.232 62.3152 156.969 62.5037 156.646C62.6963 156.318 62.7926 155.967 62.7926 155.595V154.377C62.7271 154.443 62.6 154.504 62.4115 154.562C62.2271 154.615 62.0161 154.662 61.7784 154.703C61.5407 154.74 61.3091 154.775 61.0838 154.808C60.8584 154.836 60.6699 154.861 60.5182 154.881C60.1617 154.927 59.8359 155.002 59.5408 155.109C59.2499 155.215 59.0163 155.369 58.8401 155.57C58.668 155.767 58.5819 156.029 58.5819 156.357C58.5819 156.812 58.7499 157.156 59.086 157.389C59.422 157.619 59.8502 157.734 60.3707 157.734ZM70.6132 159.184C69.851 159.184 69.1707 158.99 68.5724 158.6C67.9782 158.207 67.511 157.648 67.1709 156.922C66.8348 156.193 66.6668 155.318 66.6668 154.298C66.6668 153.277 66.8369 152.404 67.177 151.679C67.5213 150.954 67.9925 150.398 68.5908 150.013C69.1892 149.628 69.8674 149.435 70.6255 149.435C71.2115 149.435 71.6828 149.534 72.0393 149.73C72.4 149.923 72.6786 150.148 72.8753 150.406C73.0761 150.665 73.2319 150.892 73.3425 151.089H73.4532V146.411H75.2911V159H73.4962V157.531H73.3425C73.2319 157.732 73.072 157.961 72.863 158.219C72.6581 158.478 72.3754 158.703 72.0147 158.896C71.6541 159.088 71.1869 159.184 70.6132 159.184ZM71.0189 157.617C71.5476 157.617 71.9943 157.478 72.359 157.199C72.7278 156.916 73.0065 156.525 73.195 156.025C73.3876 155.525 73.4839 154.943 73.4839 154.279C73.4839 153.623 73.3896 153.05 73.2011 152.558C73.0126 152.066 72.736 151.683 72.3713 151.408C72.0066 151.134 71.5558 150.997 71.0189 150.997C70.4657 150.997 70.0047 151.14 69.6358 151.427C69.267 151.714 68.9883 152.105 68.7998 152.601C68.6154 153.097 68.5232 153.656 68.5232 154.279C68.5232 154.91 68.6175 155.478 68.806 155.982C68.9945 156.486 69.2732 156.885 69.642 157.18C70.0149 157.471 70.4739 157.617 71.0189 157.617Z" fill="white"/>
<rect x="285" y="53" width="132" height="37" fill="#D9D9D9"/>
<rect x="285" y="53" width="132" height="37" fill="url(#paint5_linear_729_2915)"/>
<rect x="285" y="131" width="132" height="37" fill="#D9D9D9"/>
<rect x="285" y="131" width="132" height="37" fill="url(#paint6_linear_729_2915)"/>
<g filter="url(#filter0_f_729_2915)">
<path d="M351 39V77.9477L351 114.649L351 170.649" stroke="url(#paint7_linear_729_2915)" stroke-width="8.65505"/>
</g>
<path d="M351 39V77.9477V114.149L351 169.149" stroke="#F6FCFD" stroke-width="2.59651"/>
<g filter="url(#filter1_f_729_2915)">
<path d="M350.684 190.158L360.803 166.79H340.565L350.684 190.158Z" fill="#1CDEF8"/>
</g>
<path d="M350.685 184.966L357.805 168.088H343.564L350.685 184.966Z" fill="white"/>
<g filter="url(#filter2_f_729_2915)">
<ellipse cx="350.897" cy="39.6166" rx="12.9826" ry="13.6514" fill="#15EEFC"/>
</g>
<g filter="url(#filter3_f_729_2915)">
<ellipse cx="350.897" cy="39.6166" rx="12.9826" ry="13.6514" fill="white"/>
</g>
<path d="M348.412 45.0213C347.482 45.0213 346.68 44.8225 346.008 44.425C345.34 44.0234 344.824 43.4599 344.459 42.7346C344.099 42.0051 343.918 41.1507 343.918 40.1713C343.918 39.2041 344.099 38.3517 344.459 37.6141C344.824 36.8764 345.332 36.3007 345.984 35.8868C346.639 35.4729 347.406 35.2659 348.283 35.2659C348.815 35.2659 349.332 35.354 349.832 35.5302C350.332 35.7064 350.781 35.9831 351.178 36.3601C351.576 36.7371 351.889 37.2268 352.119 37.8292C352.348 38.4275 352.463 39.1549 352.463 40.0114V40.663H344.957V39.2861H350.662C350.662 38.8025 350.563 38.3743 350.367 38.0013C350.17 37.6243 349.893 37.3272 349.537 37.11C349.184 36.8928 348.77 36.7842 348.295 36.7842C347.779 36.7842 347.328 36.9113 346.943 37.1653C346.562 37.4153 346.267 37.7432 346.058 38.1489C345.853 38.5505 345.75 38.9869 345.75 39.4582V40.5339C345.75 41.165 345.861 41.7019 346.082 42.1445C346.307 42.587 346.621 42.9251 347.023 43.1587C347.424 43.3882 347.893 43.503 348.43 43.503C348.779 43.503 349.096 43.4538 349.383 43.3554C349.67 43.253 349.918 43.1013 350.127 42.9005C350.336 42.6997 350.496 42.4518 350.606 42.1568L352.346 42.4703C352.207 42.9825 351.957 43.4312 351.596 43.8165C351.239 44.1976 350.791 44.4947 350.25 44.7078C349.713 44.9168 349.1 45.0213 348.412 45.0213ZM359.868 34.7373V35.9974H354.311V34.7373H359.868Z" fill="#10BAD1"/>
<g filter="url(#filter4_f_729_2915)">
<path d="M110.086 39V77.9477L110.086 114.649L110.086 170.649" stroke="url(#paint8_linear_729_2915)" stroke-width="8.65505"/>
</g>
<path d="M110.086 39V77.9477V114.149L110.086 169.149" stroke="#F6FCFD" stroke-width="2.59651"/>
<g filter="url(#filter5_f_729_2915)">
<path d="M109.77 190.158L119.889 166.79H99.6513L109.77 190.158Z" fill="#1CDEF8"/>
</g>
<path d="M109.771 184.966L116.891 168.088H102.65L109.771 184.966Z" fill="white"/>
<g filter="url(#filter6_f_729_2915)">
<ellipse cx="109.983" cy="39.6166" rx="12.9826" ry="13.6514" fill="#15EEFC"/>
</g>
<g filter="url(#filter7_f_729_2915)">
<ellipse cx="109.983" cy="39.6166" rx="12.9826" ry="13.6514" fill="white"/>
</g>
<path d="M107.498 45.0213C106.568 45.0213 105.766 44.8225 105.094 44.425C104.426 44.0234 103.91 43.4599 103.545 42.7346C103.185 42.0051 103.004 41.1507 103.004 40.1713C103.004 39.2041 103.185 38.3517 103.545 37.6141C103.91 36.8764 104.418 36.3007 105.07 35.8868C105.725 35.4729 106.492 35.2659 107.369 35.2659C107.901 35.2659 108.418 35.354 108.918 35.5302C109.418 35.7064 109.866 35.9831 110.264 36.3601C110.661 36.7371 110.975 37.2268 111.204 37.8292C111.434 38.4275 111.549 39.1549 111.549 40.0114V40.663H104.043V39.2861H109.748C109.748 38.8025 109.649 38.3743 109.453 38.0013C109.256 37.6243 108.979 37.3272 108.623 37.11C108.27 36.8928 107.856 36.7842 107.381 36.7842C106.865 36.7842 106.414 36.9113 106.029 37.1653C105.648 37.4153 105.352 37.7432 105.143 38.1489C104.939 38.5505 104.836 38.9869 104.836 39.4582V40.5339C104.836 41.165 104.947 41.7019 105.168 42.1445C105.393 42.587 105.707 42.9251 106.109 43.1587C106.51 43.3882 106.979 43.503 107.516 43.503C107.865 43.503 108.182 43.4538 108.469 43.3554C108.756 43.253 109.004 43.1013 109.213 42.9005C109.422 42.6997 109.582 42.4518 109.692 42.1568L111.432 42.4703C111.293 42.9825 111.043 43.4312 110.682 43.8165C110.325 44.1976 109.877 44.4947 109.336 44.7078C108.799 44.9168 108.186 45.0213 107.498 45.0213ZM118.954 34.7373V35.9974H113.397V34.7373H118.954Z" fill="#10BAD1"/>
<path d="M293.383 77V64.4108H297.87C298.85 64.4108 299.661 64.5891 300.305 64.9456C300.948 65.3022 301.43 65.7898 301.749 66.4086C302.069 67.0233 302.229 67.7159 302.229 68.4863C302.229 69.2609 302.067 69.9575 301.743 70.5763C301.423 71.191 300.94 71.6787 300.292 72.0393C299.649 72.3959 298.84 72.5741 297.864 72.5741H294.778V70.9636H297.692C298.311 70.9636 298.813 70.857 299.198 70.644C299.583 70.4268 299.866 70.1317 300.046 69.7588C300.227 69.3859 300.317 68.9617 300.317 68.4863C300.317 68.011 300.227 67.5889 300.046 67.22C299.866 66.8512 299.581 66.5623 299.192 66.3533C298.807 66.1443 298.299 66.0398 297.668 66.0398H295.283V77H293.383ZM306.971 77.209C306.373 77.209 305.832 77.0984 305.348 76.8771C304.865 76.6517 304.482 76.3259 304.199 75.8997C303.92 75.4735 303.781 74.951 303.781 74.3322C303.781 73.7994 303.883 73.3609 304.088 73.0167C304.293 72.6725 304.57 72.4 304.918 72.1992C305.266 71.9984 305.656 71.8467 306.086 71.7443C306.516 71.6418 306.955 71.564 307.401 71.5107C307.967 71.4451 308.426 71.3918 308.778 71.3509C309.131 71.3058 309.387 71.2341 309.547 71.1357C309.707 71.0374 309.786 70.8775 309.786 70.6562V70.6132C309.786 70.0764 309.635 69.6604 309.332 69.3654C309.032 69.0703 308.586 68.9228 307.992 68.9228C307.373 68.9228 306.885 69.0601 306.529 69.3346C306.176 69.6051 305.932 69.9063 305.797 70.2382L304.07 69.8448C304.275 69.2711 304.574 68.808 304.967 68.4556C305.365 68.0991 305.822 67.8409 306.338 67.6811C306.854 67.5172 307.397 67.4352 307.967 67.4352C308.344 67.4352 308.744 67.4803 309.166 67.5704C309.592 67.6565 309.989 67.8163 310.358 68.0499C310.731 68.2835 311.036 68.6175 311.274 69.0519C311.512 69.4822 311.631 70.0415 311.631 70.73V77H309.836V75.7091H309.762C309.643 75.9468 309.465 76.1804 309.227 76.4099C308.989 76.6394 308.684 76.8299 308.311 76.9816C307.938 77.1332 307.492 77.209 306.971 77.209ZM307.371 75.7337C307.879 75.7337 308.313 75.6333 308.674 75.4325C309.039 75.2317 309.315 74.9694 309.504 74.6457C309.696 74.3178 309.793 73.9675 309.793 73.5945V72.3774C309.727 72.443 309.6 72.5045 309.412 72.5618C309.227 72.6151 309.016 72.6622 308.778 72.7032C308.541 72.7401 308.309 72.7749 308.084 72.8077C307.858 72.8364 307.67 72.861 307.518 72.8815C307.162 72.9266 306.836 73.0024 306.541 73.1089C306.25 73.2155 306.016 73.3691 305.84 73.5699C305.668 73.7667 305.582 74.0289 305.582 74.3568C305.582 74.8117 305.75 75.1559 306.086 75.3895C306.422 75.619 306.85 75.7337 307.371 75.7337ZM317.613 77.1844C316.851 77.1844 316.171 76.9898 315.572 76.6004C314.978 76.207 314.511 75.6476 314.171 74.9223C313.835 74.1928 313.667 73.3179 313.667 72.2975C313.667 71.2771 313.837 70.4042 314.177 69.6789C314.521 68.9535 314.993 68.3982 315.591 68.013C316.189 67.6278 316.867 67.4352 317.626 67.4352C318.212 67.4352 318.683 67.5335 319.039 67.7302C319.4 67.9229 319.679 68.1482 319.875 68.4064C320.076 68.6646 320.232 68.892 320.343 69.0887H320.453V64.4108H322.291V77H320.496V75.5309H320.343C320.232 75.7317 320.072 75.9611 319.863 76.2193C319.658 76.4775 319.375 76.7029 319.015 76.8955C318.654 77.0881 318.187 77.1844 317.613 77.1844ZM318.019 75.6169C318.548 75.6169 318.994 75.4776 319.359 75.1989C319.728 74.9161 320.006 74.5248 320.195 74.0248C320.388 73.5249 320.484 72.9429 320.484 72.2791C320.484 71.6234 320.39 71.0497 320.201 70.5579C320.013 70.0661 319.736 69.683 319.371 69.4084C319.007 69.1338 318.556 68.9965 318.019 68.9965C317.466 68.9965 317.005 69.14 316.636 69.4268C316.267 69.7137 315.988 70.1051 315.8 70.6009C315.615 71.0968 315.523 71.6562 315.523 72.2791C315.523 72.9102 315.617 73.4777 315.806 73.9818C315.994 74.4859 316.273 74.8854 316.642 75.1805C317.015 75.4714 317.474 75.6169 318.019 75.6169Z" fill="white"/>
<path d="M292.383 159V146.411H296.87C297.85 146.411 298.661 146.589 299.305 146.946C299.948 147.302 300.43 147.79 300.749 148.409C301.069 149.023 301.229 149.716 301.229 150.486C301.229 151.261 301.067 151.958 300.743 152.576C300.423 153.191 299.94 153.679 299.292 154.039C298.649 154.396 297.84 154.574 296.864 154.574H293.778V152.964H296.692C297.311 152.964 297.813 152.857 298.198 152.644C298.583 152.427 298.866 152.132 299.046 151.759C299.227 151.386 299.317 150.962 299.317 150.486C299.317 150.011 299.227 149.589 299.046 149.22C298.866 148.851 298.581 148.562 298.192 148.353C297.807 148.144 297.299 148.04 296.668 148.04H294.283V159H292.383ZM305.971 159.209C305.373 159.209 304.832 159.098 304.348 158.877C303.865 158.652 303.482 158.326 303.199 157.9C302.92 157.473 302.781 156.951 302.781 156.332C302.781 155.799 302.883 155.361 303.088 155.017C303.293 154.672 303.57 154.4 303.918 154.199C304.266 153.998 304.656 153.847 305.086 153.744C305.516 153.642 305.955 153.564 306.401 153.511C306.967 153.445 307.426 153.392 307.778 153.351C308.131 153.306 308.387 153.234 308.547 153.136C308.707 153.037 308.786 152.878 308.786 152.656V152.613C308.786 152.076 308.635 151.66 308.332 151.365C308.032 151.07 307.586 150.923 306.992 150.923C306.373 150.923 305.885 151.06 305.529 151.335C305.176 151.605 304.932 151.906 304.797 152.238L303.07 151.845C303.275 151.271 303.574 150.808 303.967 150.456C304.365 150.099 304.822 149.841 305.338 149.681C305.854 149.517 306.397 149.435 306.967 149.435C307.344 149.435 307.744 149.48 308.166 149.57C308.592 149.656 308.989 149.816 309.358 150.05C309.731 150.283 310.036 150.617 310.274 151.052C310.512 151.482 310.631 152.042 310.631 152.73V159H308.836V157.709H308.762C308.643 157.947 308.465 158.18 308.227 158.41C307.989 158.639 307.684 158.83 307.311 158.982C306.938 159.133 306.492 159.209 305.971 159.209ZM306.371 157.734C306.879 157.734 307.313 157.633 307.674 157.433C308.039 157.232 308.315 156.969 308.504 156.646C308.696 156.318 308.793 155.967 308.793 155.595V154.377C308.727 154.443 308.6 154.504 308.412 154.562C308.227 154.615 308.016 154.662 307.778 154.703C307.541 154.74 307.309 154.775 307.084 154.808C306.858 154.836 306.67 154.861 306.518 154.881C306.162 154.927 305.836 155.002 305.541 155.109C305.25 155.215 305.016 155.369 304.84 155.57C304.668 155.767 304.582 156.029 304.582 156.357C304.582 156.812 304.75 157.156 305.086 157.389C305.422 157.619 305.85 157.734 306.371 157.734ZM316.613 159.184C315.851 159.184 315.171 158.99 314.572 158.6C313.978 158.207 313.511 157.648 313.171 156.922C312.835 156.193 312.667 155.318 312.667 154.298C312.667 153.277 312.837 152.404 313.177 151.679C313.521 150.954 313.993 150.398 314.591 150.013C315.189 149.628 315.867 149.435 316.626 149.435C317.212 149.435 317.683 149.534 318.039 149.73C318.4 149.923 318.679 150.148 318.875 150.406C319.076 150.665 319.232 150.892 319.343 151.089H319.453V146.411H321.291V159H319.496V157.531H319.343C319.232 157.732 319.072 157.961 318.863 158.219C318.658 158.478 318.375 158.703 318.015 158.896C317.654 159.088 317.187 159.184 316.613 159.184ZM317.019 157.617C317.548 157.617 317.994 157.478 318.359 157.199C318.728 156.916 319.006 156.525 319.195 156.025C319.388 155.525 319.484 154.943 319.484 154.279C319.484 153.623 319.39 153.05 319.201 152.558C319.013 152.066 318.736 151.683 318.371 151.408C318.007 151.134 317.556 150.997 317.019 150.997C316.466 150.997 316.005 151.14 315.636 151.427C315.267 151.714 314.988 152.105 314.8 152.601C314.615 153.097 314.523 153.656 314.523 154.279C314.523 154.91 314.617 155.478 314.806 155.982C314.994 156.486 315.273 156.885 315.642 157.18C316.015 157.471 316.474 157.617 317.019 157.617Z" fill="white"/>
<defs>
<filter id="filter0_f_729_2915" x="343.21" y="35.538" width="15.5793" height="138.573" filterUnits="userSpaceOnUse" color-interpolation-filters="sRGB">
<feFlood flood-opacity="0" result="BackgroundImageFix"/>
<feBlend mode="normal" in="SourceGraphic" in2="BackgroundImageFix" result="shape"/>
<feGaussianBlur stdDeviation="1.73101" result="effect1_foregroundBlur_729_2915"/>
</filter>
<filter id="filter1_f_729_2915" x="337.103" y="163.328" width="27.1618" height="30.2927" filterUnits="userSpaceOnUse" color-interpolation-filters="sRGB">
<feFlood flood-opacity="0" result="BackgroundImageFix"/>
<feBlend mode="normal" in="SourceGraphic" in2="BackgroundImageFix" result="shape"/>
<feGaussianBlur stdDeviation="1.73101" result="effect1_foregroundBlur_729_2915"/>
</filter>
<filter id="filter2_f_729_2915" x="334.452" y="22.5032" width="32.8894" height="34.2268" filterUnits="userSpaceOnUse" color-interpolation-filters="sRGB">
<feFlood flood-opacity="0" result="BackgroundImageFix"/>
<feBlend mode="normal" in="SourceGraphic" in2="BackgroundImageFix" result="shape"/>
<feGaussianBlur stdDeviation="1.73101" result="effect1_foregroundBlur_729_2915"/>
</filter>
<filter id="filter3_f_729_2915" x="334.452" y="22.5032" width="32.8894" height="34.2268" filterUnits="userSpaceOnUse" color-interpolation-filters="sRGB">
<feFlood flood-opacity="0" result="BackgroundImageFix"/>
<feBlend mode="normal" in="SourceGraphic" in2="BackgroundImageFix" result="shape"/>
<feGaussianBlur stdDeviation="1.73101" result="effect1_foregroundBlur_729_2915"/>
</filter>
<filter id="filter4_f_729_2915" x="102.296" y="35.538" width="15.5793" height="138.573" filterUnits="userSpaceOnUse" color-interpolation-filters="sRGB">
<feFlood flood-opacity="0" result="BackgroundImageFix"/>
<feBlend mode="normal" in="SourceGraphic" in2="BackgroundImageFix" result="shape"/>
<feGaussianBlur stdDeviation="1.73101" result="effect1_foregroundBlur_729_2915"/>
</filter>
<filter id="filter5_f_729_2915" x="96.1893" y="163.328" width="27.1618" height="30.2927" filterUnits="userSpaceOnUse" color-interpolation-filters="sRGB">
<feFlood flood-opacity="0" result="BackgroundImageFix"/>
<feBlend mode="normal" in="SourceGraphic" in2="BackgroundImageFix" result="shape"/>
<feGaussianBlur stdDeviation="1.73101" result="effect1_foregroundBlur_729_2915"/>
</filter>
<filter id="filter6_f_729_2915" x="93.538" y="22.5032" width="32.8894" height="34.2268" filterUnits="userSpaceOnUse" color-interpolation-filters="sRGB">
<feFlood flood-opacity="0" result="BackgroundImageFix"/>
<feBlend mode="normal" in="SourceGraphic" in2="BackgroundImageFix" result="shape"/>
<feGaussianBlur stdDeviation="1.73101" result="effect1_foregroundBlur_729_2915"/>
</filter>
<filter id="filter7_f_729_2915" x="93.538" y="22.5032" width="32.8894" height="34.2268" filterUnits="userSpaceOnUse" color-interpolation-filters="sRGB">
<feFlood flood-opacity="0" result="BackgroundImageFix"/>
<feBlend mode="normal" in="SourceGraphic" in2="BackgroundImageFix" result="shape"/>
<feGaussianBlur stdDeviation="1.73101" result="effect1_foregroundBlur_729_2915"/>
</filter>
<radialGradient id="paint0_radial_729_2915" cx="0" cy="0" r="1" gradientUnits="userSpaceOnUse" gradientTransform="translate(118.377 106.062) rotate(107.042) scale(26.877 34.1112)">
<stop stop-color="#FFF5D2"/>
<stop offset="1" stop-color="#8D7932"/>
</radialGradient>
<radialGradient id="paint1_radial_729_2915" cx="0" cy="0" r="1" gradientUnits="userSpaceOnUse" gradientTransform="translate(358.377 105.365) rotate(106.744) scale(27.3409 34.1651)">
<stop stop-color="#FFF5D2"/>
<stop offset="1" stop-color="#8D7932"/>
</radialGradient>
<radialGradient id="paint2_radial_729_2915" cx="0" cy="0" r="1" gradientUnits="userSpaceOnUse" gradientTransform="translate(237.949 141.026) rotate(103.101) scale(28.435)">
<stop stop-color="#FFF5D2"/>
<stop offset="1" stop-color="#8D7932"/>
</radialGradient>
<linearGradient id="paint3_linear_729_2915" x1="106" y1="53" x2="106" y2="90" gradientUnits="userSpaceOnUse">
<stop stop-color="#1B8842"/>
<stop offset="1" stop-color="#15779F"/>
</linearGradient>
<linearGradient id="paint4_linear_729_2915" x1="106" y1="131" x2="106" y2="168" gradientUnits="userSpaceOnUse">
<stop stop-color="#1B8842"/>
<stop offset="1" stop-color="#15779F"/>
</linearGradient>
<linearGradient id="paint5_linear_729_2915" x1="351" y1="53" x2="351" y2="90" gradientUnits="userSpaceOnUse">
<stop stop-color="#1B8842"/>
<stop offset="1" stop-color="#15779F"/>
</linearGradient>
<linearGradient id="paint6_linear_729_2915" x1="351" y1="131" x2="351" y2="168" gradientUnits="userSpaceOnUse">
<stop stop-color="#1B8842"/>
<stop offset="1" stop-color="#15779F"/>
</linearGradient>
<linearGradient id="paint7_linear_729_2915" x1="353.813" y1="39" x2="353.813" y2="225.083" gradientUnits="userSpaceOnUse">
<stop stop-color="#F6FCFD"/>
<stop offset="0.216313" stop-color="#3DDBFE"/>
<stop offset="0.51321" stop-color="#3DDBFE"/>
<stop offset="0.765625" stop-color="#4BDFFF"/>
<stop offset="1" stop-color="#DFF9FF"/>
</linearGradient>
<linearGradient id="paint8_linear_729_2915" x1="112.899" y1="39" x2="112.899" y2="225.083" gradientUnits="userSpaceOnUse">
<stop stop-color="#F6FCFD"/>
<stop offset="0.216313" stop-color="#3DDBFE"/>
<stop offset="0.51321" stop-color="#3DDBFE"/>
<stop offset="0.765625" stop-color="#4BDFFF"/>
<stop offset="1" stop-color="#DFF9FF"/>
</linearGradient>
</defs>
</svg>
