<svg width="396" height="272" viewBox="0 0 396 272" fill="none" xmlns="http://www.w3.org/2000/svg">
<mask id="mask0_32_335" style="mask-type:alpha" maskUnits="userSpaceOnUse" x="0" y="51" width="304" height="221">
<rect y="51" width="304" height="221" rx="42.8375" fill="#D9D9D9"/>
</mask>
<g mask="url(#mask0_32_335)">
<circle cx="108.563" cy="85.3587" r="16.9611" fill="url(#paint0_radial_32_335)" stroke="white" stroke-width="1.90005"/>
<circle cx="144.664" cy="85.3587" r="16.9611" fill="url(#paint1_radial_32_335)" stroke="white" stroke-width="1.90005"/>
<circle cx="180.765" cy="85.3587" r="16.9611" fill="url(#paint2_radial_32_335)" stroke="white" stroke-width="1.90005"/>
<circle cx="72.4619" cy="85.3587" r="16.9611" fill="url(#paint3_radial_32_335)" stroke="white" stroke-width="1.90005"/>
<circle cx="36.3609" cy="85.3587" r="16.9611" fill="url(#paint4_radial_32_335)" stroke="white" stroke-width="1.90005"/>
<circle cx="0.259777" cy="85.3587" r="16.9611" fill="url(#paint5_radial_32_335)" stroke="white" stroke-width="1.90005"/>
<circle cx="108.563" cy="210.311" r="16.9611" fill="url(#paint6_radial_32_335)" stroke="white" stroke-width="1.90005"/>
<circle cx="144.664" cy="210.311" r="16.9611" fill="url(#paint7_radial_32_335)" stroke="white" stroke-width="1.90005"/>
<circle cx="180.765" cy="210.311" r="16.9611" fill="url(#paint8_radial_32_335)" stroke="white" stroke-width="1.90005"/>
<circle cx="72.4619" cy="210.311" r="16.9611" fill="url(#paint9_radial_32_335)" stroke="white" stroke-width="1.90005"/>
<circle cx="36.3609" cy="210.311" r="16.9611" fill="url(#paint10_radial_32_335)" stroke="white" stroke-width="1.90005"/>
<circle cx="0.259777" cy="210.311" r="16.9611" fill="url(#paint11_radial_32_335)" stroke="white" stroke-width="1.90005"/>
<circle cx="108.563" cy="147.834" r="16.9611" fill="url(#paint12_radial_32_335)" stroke="white" stroke-width="1.90005"/>
<circle cx="144.664" cy="147.834" r="16.9611" fill="url(#paint13_radial_32_335)" stroke="white" stroke-width="1.90005"/>
<circle cx="180.765" cy="147.834" r="16.9611" fill="url(#paint14_radial_32_335)" stroke="white" stroke-width="1.90005"/>
<circle cx="72.4619" cy="147.834" r="16.9611" fill="url(#paint15_radial_32_335)" stroke="white" stroke-width="1.90005"/>
<circle cx="36.3609" cy="147.834" r="16.9611" fill="url(#paint16_radial_32_335)" stroke="white" stroke-width="1.90005"/>
<circle cx="0.259777" cy="147.834" r="16.9611" fill="url(#paint17_radial_32_335)" stroke="white" stroke-width="1.90005"/>
<circle cx="90.6514" cy="116.49" r="16.9611" fill="url(#paint18_radial_32_335)" stroke="white" stroke-width="1.90005"/>
<circle cx="90.6514" cy="54.0079" r="16.9611" fill="url(#paint19_radial_32_335)" stroke="white" stroke-width="1.90005"/>
<circle cx="126.753" cy="116.49" r="16.9611" fill="url(#paint20_radial_32_335)" stroke="white" stroke-width="1.90005"/>
<circle cx="126.753" cy="54.0079" r="16.9611" fill="url(#paint21_radial_32_335)" stroke="white" stroke-width="1.90005"/>
<circle cx="162.854" cy="116.49" r="16.9611" fill="url(#paint22_radial_32_335)" stroke="white" stroke-width="1.90005"/>
<circle cx="162.854" cy="54.0079" r="16.9611" fill="url(#paint23_radial_32_335)" stroke="white" stroke-width="1.90005"/>
<circle cx="54.5503" cy="116.49" r="16.9611" fill="url(#paint24_radial_32_335)" stroke="white" stroke-width="1.90005"/>
<circle cx="54.5503" cy="54.0079" r="16.9611" fill="url(#paint25_radial_32_335)" stroke="white" stroke-width="1.90005"/>
<circle cx="18.4492" cy="116.49" r="16.9611" fill="url(#paint26_radial_32_335)" stroke="white" stroke-width="1.90005"/>
<circle cx="18.4492" cy="54.0079" r="16.9611" fill="url(#paint27_radial_32_335)" stroke="white" stroke-width="1.90005"/>
<circle cx="90.6514" cy="241.442" r="16.9611" fill="url(#paint28_radial_32_335)" stroke="white" stroke-width="1.90005"/>
<circle cx="108.702" cy="272.514" r="16.9611" fill="url(#paint29_radial_32_335)" stroke="white" stroke-width="1.90005"/>
<circle cx="126.753" cy="241.442" r="16.9611" fill="url(#paint30_radial_32_335)" stroke="white" stroke-width="1.90005"/>
<circle cx="144.803" cy="272.514" r="16.9611" fill="url(#paint31_radial_32_335)" stroke="white" stroke-width="1.90005"/>
<circle cx="162.854" cy="241.442" r="16.9611" fill="url(#paint32_radial_32_335)" stroke="white" stroke-width="1.90005"/>
<circle cx="180.904" cy="272.514" r="16.9611" fill="url(#paint33_radial_32_335)" stroke="white" stroke-width="1.90005"/>
<circle cx="54.5503" cy="241.442" r="16.9611" fill="url(#paint34_radial_32_335)" stroke="white" stroke-width="1.90005"/>
<circle cx="72.6006" cy="272.514" r="16.9611" fill="url(#paint35_radial_32_335)" stroke="white" stroke-width="1.90005"/>
<circle cx="18.4492" cy="241.442" r="16.9611" fill="url(#paint36_radial_32_335)" stroke="white" stroke-width="1.90005"/>
<circle cx="36.5" cy="272.514" r="16.9611" fill="url(#paint37_radial_32_335)" stroke="white" stroke-width="1.90005"/>
<circle cx="90.6514" cy="178.966" r="16.9611" fill="url(#paint38_radial_32_335)" stroke="white" stroke-width="1.90005"/>
<circle cx="126.753" cy="178.966" r="16.9611" fill="url(#paint39_radial_32_335)" stroke="white" stroke-width="1.90005"/>
<circle cx="162.854" cy="178.966" r="16.9611" fill="url(#paint40_radial_32_335)" stroke="white" stroke-width="1.90005"/>
<circle cx="54.5503" cy="178.966" r="16.9611" fill="url(#paint41_radial_32_335)" stroke="white" stroke-width="1.90005"/>
<circle cx="18.4492" cy="178.966" r="16.9611" fill="url(#paint42_radial_32_335)" stroke="white" stroke-width="1.90005"/>
</g>
<g filter="url(#filter0_d_32_335)">
<path d="M107.5 116.5L152.5 70.6007L152.5 162.399L107.5 116.5Z" fill="url(#paint43_linear_32_335)"/>
<circle cx="245" cy="121.5" r="105.652" fill="url(#paint44_radial_32_335)"/>
<path d="M258.994 89.0695V80.4008H261.923C262.603 80.4008 263.159 80.5235 263.59 80.769C264.025 81.0117 264.347 81.3404 264.555 81.7553C264.764 82.1701 264.869 82.6328 264.869 83.1436C264.869 83.6544 264.764 84.1185 264.555 84.5362C264.349 84.9538 264.031 85.2868 263.599 85.5351C263.167 85.7806 262.614 85.9034 261.94 85.9034H259.84V84.9722H261.906C262.371 84.9722 262.745 84.8917 263.027 84.7309C263.31 84.57 263.514 84.3528 263.641 84.079C263.771 83.8025 263.836 83.4907 263.836 83.1436C263.836 82.7965 263.771 82.4861 263.641 82.2124C263.514 81.9387 263.308 81.7242 263.023 81.569C262.738 81.411 262.36 81.332 261.889 81.332H260.043V89.0695H258.994ZM268.996 89.2049C268.409 89.2049 267.894 89.0652 267.451 88.7859C267.01 88.5065 266.666 88.1157 266.418 87.6134C266.172 87.1111 266.05 86.5242 266.05 85.8526C266.05 85.1753 266.172 84.5841 266.418 84.079C266.666 83.5739 267.01 83.1817 267.451 82.9023C267.894 82.623 268.409 82.4833 268.996 82.4833C269.583 82.4833 270.096 82.623 270.536 82.9023C270.979 83.1817 271.324 83.5739 271.569 84.079C271.817 84.5841 271.942 85.1753 271.942 85.8526C271.942 86.5242 271.817 87.1111 271.569 87.6134C271.324 88.1157 270.979 88.5065 270.536 88.7859C270.096 89.0652 269.583 89.2049 268.996 89.2049ZM268.996 88.3076C269.441 88.3076 269.808 88.1933 270.096 87.9647C270.384 87.7361 270.597 87.4356 270.735 87.0631C270.874 86.6906 270.943 86.2871 270.943 85.8526C270.943 85.418 270.874 85.0131 270.735 84.6378C270.597 84.2625 270.384 83.9591 270.096 83.7277C269.808 83.4963 269.441 83.3806 268.996 83.3806C268.55 83.3806 268.183 83.4963 267.895 83.7277C267.607 83.9591 267.394 84.2625 267.256 84.6378C267.118 85.0131 267.049 85.418 267.049 85.8526C267.049 86.2871 267.118 86.6906 267.256 87.0631C267.394 87.4356 267.607 87.7361 267.895 87.9647C268.183 88.1933 268.55 88.3076 268.996 88.3076ZM274.465 80.4008V89.0695H273.466V80.4008H274.465ZM276.938 91.5075C276.769 91.5075 276.618 91.4934 276.485 91.4652C276.353 91.4398 276.261 91.4144 276.21 91.389L276.464 90.5086C276.707 90.5707 276.921 90.5933 277.108 90.5763C277.294 90.5594 277.459 90.4761 277.603 90.3266C277.75 90.1799 277.884 89.9414 278.005 89.6113L278.191 89.1033L275.787 82.5679H276.871L278.665 87.7488H278.733L280.528 82.5679H281.611L278.852 90.0176C278.727 90.3534 278.574 90.6313 278.39 90.8514C278.207 91.0744 277.994 91.2395 277.751 91.3467C277.511 91.4539 277.24 91.5075 276.938 91.5075ZM282.93 89.0695V82.5679H283.895V83.5838H283.98C284.115 83.2367 284.334 82.9672 284.636 82.7753C284.938 82.5806 285.3 82.4833 285.723 82.4833C286.152 82.4833 286.509 82.5806 286.794 82.7753C287.082 82.9672 287.306 83.2367 287.467 83.5838H287.535C287.702 83.248 287.951 82.9813 288.284 82.7838C288.617 82.5835 289.017 82.4833 289.482 82.4833C290.063 82.4833 290.539 82.6653 290.909 83.0293C291.278 83.3905 291.463 83.9535 291.463 84.7182V89.0695H290.464V84.7182C290.464 84.2385 290.333 83.8956 290.07 83.6896C289.808 83.4836 289.499 83.3806 289.143 83.3806C288.686 83.3806 288.332 83.5189 288.081 83.7954C287.83 84.0692 287.704 84.4162 287.704 84.8367V89.0695H286.688V84.6166C286.688 84.2469 286.569 83.9492 286.329 83.7235C286.089 83.4949 285.78 83.3806 285.402 83.3806C285.142 83.3806 284.899 83.4498 284.674 83.588C284.451 83.7263 284.27 83.9182 284.132 84.1637C283.996 84.4064 283.929 84.6871 283.929 85.006V89.0695H282.93ZM296.015 89.2049C295.389 89.2049 294.849 89.0666 294.394 88.7901C293.943 88.5107 293.594 88.1213 293.349 87.6219C293.106 87.1196 292.985 86.5354 292.985 85.8695C292.985 85.2035 293.106 84.6166 293.349 84.1087C293.594 83.5979 293.936 83.2 294.373 82.915C294.813 82.6272 295.327 82.4833 295.914 82.4833C296.252 82.4833 296.587 82.5397 296.917 82.6526C297.247 82.7655 297.548 82.9489 297.819 83.2029C298.089 83.454 298.305 83.787 298.466 84.2018C298.627 84.6166 298.707 85.1274 298.707 85.734V86.1573H293.696V85.2938H297.692C297.692 84.927 297.618 84.5997 297.471 84.3118C297.328 84.024 297.122 83.7969 296.853 83.6304C296.588 83.4639 296.275 83.3806 295.914 83.3806C295.516 83.3806 295.172 83.4794 294.881 83.6769C294.593 83.8716 294.372 84.1256 294.216 84.4388C294.061 84.752 293.984 85.0878 293.984 85.4462V86.0219C293.984 86.5129 294.068 86.9291 294.238 87.2705C294.41 87.6092 294.648 87.8674 294.953 88.0451C295.258 88.2201 295.612 88.3076 296.015 88.3076C296.278 88.3076 296.515 88.2709 296.726 88.1975C296.941 88.1213 297.126 88.0084 297.281 87.8589C297.436 87.7065 297.556 87.5174 297.641 87.2917L298.606 87.5626C298.504 87.8899 298.334 88.1778 298.094 88.4261C297.854 88.6716 297.558 88.8635 297.205 89.0017C296.852 89.1372 296.456 89.2049 296.015 89.2049ZM300.227 89.0695V82.5679H301.192V83.5499H301.26C301.378 83.2283 301.593 82.9672 301.903 82.7669C302.214 82.5665 302.563 82.4664 302.953 82.4664C303.026 82.4664 303.118 82.4678 303.228 82.4706C303.338 82.4734 303.421 82.4776 303.478 82.4833V83.4992C303.444 83.4907 303.366 83.478 303.245 83.4611C303.126 83.4413 303.001 83.4314 302.868 83.4314C302.552 83.4314 302.27 83.4977 302.022 83.6304C301.776 83.7602 301.581 83.9408 301.438 84.1722C301.296 84.4007 301.226 84.6617 301.226 84.9552V89.0695H300.227Z" fill="black"/>
</g>
<defs>
<filter id="filter0_d_32_335" x="102.5" y="0" width="293" height="263" filterUnits="userSpaceOnUse" color-interpolation-filters="sRGB">
<feFlood flood-opacity="0" result="BackgroundImageFix"/>
<feColorMatrix in="SourceAlpha" type="matrix" values="0 0 0 0 0 0 0 0 0 0 0 0 0 0 0 0 0 0 127 0" result="hardAlpha"/>
<feOffset dx="5" dy="10"/>
<feGaussianBlur stdDeviation="5"/>
<feComposite in2="hardAlpha" operator="out"/>
<feColorMatrix type="matrix" values="0 0 0 0 0 0 0 0 0 0 0 0 0 0 0 0 0 0 0.2 0"/>
<feBlend mode="normal" in2="BackgroundImageFix" result="effect1_dropShadow_32_335"/>
<feBlend mode="normal" in="SourceGraphic" in2="effect1_dropShadow_32_335" result="shape"/>
</filter>
<radialGradient id="paint0_radial_32_335" cx="0" cy="0" r="1" gradientUnits="userSpaceOnUse" gradientTransform="translate(108.412 85.3928) rotate(124.853) scale(13.3382)">
<stop offset="0.140625" stop-color="#A8D1E3"/>
<stop offset="1" stop-color="#D2F7E5"/>
</radialGradient>
<radialGradient id="paint1_radial_32_335" cx="0" cy="0" r="1" gradientUnits="userSpaceOnUse" gradientTransform="translate(144.512 85.3928) rotate(124.853) scale(13.3382)">
<stop offset="0.140625" stop-color="#A8D1E3"/>
<stop offset="1" stop-color="#D2F7E5"/>
</radialGradient>
<radialGradient id="paint2_radial_32_335" cx="0" cy="0" r="1" gradientUnits="userSpaceOnUse" gradientTransform="translate(180.613 85.3928) rotate(124.853) scale(13.3382)">
<stop offset="0.140625" stop-color="#A8D1E3"/>
<stop offset="1" stop-color="#D2F7E5"/>
</radialGradient>
<radialGradient id="paint3_radial_32_335" cx="0" cy="0" r="1" gradientUnits="userSpaceOnUse" gradientTransform="translate(72.3106 85.3928) rotate(124.853) scale(13.3382)">
<stop offset="0.140625" stop-color="#A8D1E3"/>
<stop offset="1" stop-color="#D2F7E5"/>
</radialGradient>
<radialGradient id="paint4_radial_32_335" cx="0" cy="0" r="1" gradientUnits="userSpaceOnUse" gradientTransform="translate(36.2095 85.3928) rotate(124.853) scale(13.3382)">
<stop offset="0.140625" stop-color="#A8D1E3"/>
<stop offset="1" stop-color="#D2F7E5"/>
</radialGradient>
<radialGradient id="paint5_radial_32_335" cx="0" cy="0" r="1" gradientUnits="userSpaceOnUse" gradientTransform="translate(0.108399 85.3928) rotate(124.853) scale(13.3382)">
<stop offset="0.140625" stop-color="#A8D1E3"/>
<stop offset="1" stop-color="#D2F7E5"/>
</radialGradient>
<radialGradient id="paint6_radial_32_335" cx="0" cy="0" r="1" gradientUnits="userSpaceOnUse" gradientTransform="translate(108.412 210.345) rotate(124.853) scale(13.3382)">
<stop offset="0.140625" stop-color="#A8D1E3"/>
<stop offset="1" stop-color="#D2F7E5"/>
</radialGradient>
<radialGradient id="paint7_radial_32_335" cx="0" cy="0" r="1" gradientUnits="userSpaceOnUse" gradientTransform="translate(144.512 210.345) rotate(124.853) scale(13.3382)">
<stop offset="0.140625" stop-color="#A8D1E3"/>
<stop offset="1" stop-color="#D2F7E5"/>
</radialGradient>
<radialGradient id="paint8_radial_32_335" cx="0" cy="0" r="1" gradientUnits="userSpaceOnUse" gradientTransform="translate(180.613 210.345) rotate(124.853) scale(13.3382)">
<stop offset="0.140625" stop-color="#A8D1E3"/>
<stop offset="1" stop-color="#D2F7E5"/>
</radialGradient>
<radialGradient id="paint9_radial_32_335" cx="0" cy="0" r="1" gradientUnits="userSpaceOnUse" gradientTransform="translate(72.3106 210.345) rotate(124.853) scale(13.3382)">
<stop offset="0.140625" stop-color="#A8D1E3"/>
<stop offset="1" stop-color="#D2F7E5"/>
</radialGradient>
<radialGradient id="paint10_radial_32_335" cx="0" cy="0" r="1" gradientUnits="userSpaceOnUse" gradientTransform="translate(36.2095 210.345) rotate(124.853) scale(13.3382)">
<stop offset="0.140625" stop-color="#A8D1E3"/>
<stop offset="1" stop-color="#D2F7E5"/>
</radialGradient>
<radialGradient id="paint11_radial_32_335" cx="0" cy="0" r="1" gradientUnits="userSpaceOnUse" gradientTransform="translate(0.108399 210.345) rotate(124.853) scale(13.3382)">
<stop offset="0.140625" stop-color="#A8D1E3"/>
<stop offset="1" stop-color="#D2F7E5"/>
</radialGradient>
<radialGradient id="paint12_radial_32_335" cx="0" cy="0" r="1" gradientUnits="userSpaceOnUse" gradientTransform="translate(108.412 147.869) rotate(124.853) scale(13.3382)">
<stop offset="0.140625" stop-color="#A8D1E3"/>
<stop offset="1" stop-color="#D2F7E5"/>
</radialGradient>
<radialGradient id="paint13_radial_32_335" cx="0" cy="0" r="1" gradientUnits="userSpaceOnUse" gradientTransform="translate(144.512 147.869) rotate(124.853) scale(13.3382)">
<stop offset="0.140625" stop-color="#A8D1E3"/>
<stop offset="1" stop-color="#D2F7E5"/>
</radialGradient>
<radialGradient id="paint14_radial_32_335" cx="0" cy="0" r="1" gradientUnits="userSpaceOnUse" gradientTransform="translate(180.613 147.869) rotate(124.853) scale(13.3382)">
<stop offset="0.140625" stop-color="#A8D1E3"/>
<stop offset="1" stop-color="#D2F7E5"/>
</radialGradient>
<radialGradient id="paint15_radial_32_335" cx="0" cy="0" r="1" gradientUnits="userSpaceOnUse" gradientTransform="translate(72.3106 147.869) rotate(124.853) scale(13.3382)">
<stop offset="0.140625" stop-color="#A8D1E3"/>
<stop offset="1" stop-color="#D2F7E5"/>
</radialGradient>
<radialGradient id="paint16_radial_32_335" cx="0" cy="0" r="1" gradientUnits="userSpaceOnUse" gradientTransform="translate(36.2095 147.869) rotate(124.853) scale(13.3382)">
<stop offset="0.140625" stop-color="#A8D1E3"/>
<stop offset="1" stop-color="#D2F7E5"/>
</radialGradient>
<radialGradient id="paint17_radial_32_335" cx="0" cy="0" r="1" gradientUnits="userSpaceOnUse" gradientTransform="translate(0.108399 147.869) rotate(124.853) scale(13.3382)">
<stop offset="0.140625" stop-color="#A8D1E3"/>
<stop offset="1" stop-color="#D2F7E5"/>
</radialGradient>
<radialGradient id="paint18_radial_32_335" cx="0" cy="0" r="1" gradientUnits="userSpaceOnUse" gradientTransform="translate(90.5 116.524) rotate(124.853) scale(13.3382)">
<stop offset="0.140625" stop-color="#A8D1E3"/>
<stop offset="1" stop-color="#D2F7E5"/>
</radialGradient>
<radialGradient id="paint19_radial_32_335" cx="0" cy="0" r="1" gradientUnits="userSpaceOnUse" gradientTransform="translate(90.5 54.0421) rotate(124.853) scale(13.3382)">
<stop offset="0.140625" stop-color="#A8D1E3"/>
<stop offset="1" stop-color="#D2F7E5"/>
</radialGradient>
<radialGradient id="paint20_radial_32_335" cx="0" cy="0" r="1" gradientUnits="userSpaceOnUse" gradientTransform="translate(126.602 116.524) rotate(124.853) scale(13.3382)">
<stop offset="0.140625" stop-color="#A8D1E3"/>
<stop offset="1" stop-color="#D2F7E5"/>
</radialGradient>
<radialGradient id="paint21_radial_32_335" cx="0" cy="0" r="1" gradientUnits="userSpaceOnUse" gradientTransform="translate(126.602 54.0421) rotate(124.853) scale(13.3382)">
<stop offset="0.140625" stop-color="#A8D1E3"/>
<stop offset="1" stop-color="#D2F7E5"/>
</radialGradient>
<radialGradient id="paint22_radial_32_335" cx="0" cy="0" r="1" gradientUnits="userSpaceOnUse" gradientTransform="translate(162.703 116.524) rotate(124.853) scale(13.3382)">
<stop offset="0.140625" stop-color="#A8D1E3"/>
<stop offset="1" stop-color="#D2F7E5"/>
</radialGradient>
<radialGradient id="paint23_radial_32_335" cx="0" cy="0" r="1" gradientUnits="userSpaceOnUse" gradientTransform="translate(162.703 54.0421) rotate(124.853) scale(13.3382)">
<stop offset="0.140625" stop-color="#A8D1E3"/>
<stop offset="1" stop-color="#D2F7E5"/>
</radialGradient>
<radialGradient id="paint24_radial_32_335" cx="0" cy="0" r="1" gradientUnits="userSpaceOnUse" gradientTransform="translate(54.3989 116.524) rotate(124.853) scale(13.3382)">
<stop offset="0.140625" stop-color="#A8D1E3"/>
<stop offset="1" stop-color="#D2F7E5"/>
</radialGradient>
<radialGradient id="paint25_radial_32_335" cx="0" cy="0" r="1" gradientUnits="userSpaceOnUse" gradientTransform="translate(54.3989 54.0421) rotate(124.853) scale(13.3382)">
<stop offset="0.140625" stop-color="#A8D1E3"/>
<stop offset="1" stop-color="#D2F7E5"/>
</radialGradient>
<radialGradient id="paint26_radial_32_335" cx="0" cy="0" r="1" gradientUnits="userSpaceOnUse" gradientTransform="translate(18.2979 116.524) rotate(124.853) scale(13.3382)">
<stop offset="0.140625" stop-color="#A8D1E3"/>
<stop offset="1" stop-color="#D2F7E5"/>
</radialGradient>
<radialGradient id="paint27_radial_32_335" cx="0" cy="0" r="1" gradientUnits="userSpaceOnUse" gradientTransform="translate(18.2979 54.0421) rotate(124.853) scale(13.3382)">
<stop offset="0.140625" stop-color="#A8D1E3"/>
<stop offset="1" stop-color="#D2F7E5"/>
</radialGradient>
<radialGradient id="paint28_radial_32_335" cx="0" cy="0" r="1" gradientUnits="userSpaceOnUse" gradientTransform="translate(90.5 241.476) rotate(124.853) scale(13.3382)">
<stop offset="0.140625" stop-color="#A8D1E3"/>
<stop offset="1" stop-color="#D2F7E5"/>
</radialGradient>
<radialGradient id="paint29_radial_32_335" cx="0" cy="0" r="1" gradientUnits="userSpaceOnUse" gradientTransform="translate(108.551 272.548) rotate(124.853) scale(13.3382)">
<stop offset="0.140625" stop-color="#A8D1E3"/>
<stop offset="1" stop-color="#D2F7E5"/>
</radialGradient>
<radialGradient id="paint30_radial_32_335" cx="0" cy="0" r="1" gradientUnits="userSpaceOnUse" gradientTransform="translate(126.602 241.476) rotate(124.853) scale(13.3382)">
<stop offset="0.140625" stop-color="#A8D1E3"/>
<stop offset="1" stop-color="#D2F7E5"/>
</radialGradient>
<radialGradient id="paint31_radial_32_335" cx="0" cy="0" r="1" gradientUnits="userSpaceOnUse" gradientTransform="translate(144.652 272.548) rotate(124.853) scale(13.3382)">
<stop offset="0.140625" stop-color="#A8D1E3"/>
<stop offset="1" stop-color="#D2F7E5"/>
</radialGradient>
<radialGradient id="paint32_radial_32_335" cx="0" cy="0" r="1" gradientUnits="userSpaceOnUse" gradientTransform="translate(162.703 241.476) rotate(124.853) scale(13.3382)">
<stop offset="0.140625" stop-color="#A8D1E3"/>
<stop offset="1" stop-color="#D2F7E5"/>
</radialGradient>
<radialGradient id="paint33_radial_32_335" cx="0" cy="0" r="1" gradientUnits="userSpaceOnUse" gradientTransform="translate(180.752 272.548) rotate(124.853) scale(13.3382)">
<stop offset="0.140625" stop-color="#A8D1E3"/>
<stop offset="1" stop-color="#D2F7E5"/>
</radialGradient>
<radialGradient id="paint34_radial_32_335" cx="0" cy="0" r="1" gradientUnits="userSpaceOnUse" gradientTransform="translate(54.3989 241.476) rotate(124.853) scale(13.3382)">
<stop offset="0.140625" stop-color="#A8D1E3"/>
<stop offset="1" stop-color="#D2F7E5"/>
</radialGradient>
<radialGradient id="paint35_radial_32_335" cx="0" cy="0" r="1" gradientUnits="userSpaceOnUse" gradientTransform="translate(72.4492 272.548) rotate(124.853) scale(13.3382)">
<stop offset="0.140625" stop-color="#A8D1E3"/>
<stop offset="1" stop-color="#D2F7E5"/>
</radialGradient>
<radialGradient id="paint36_radial_32_335" cx="0" cy="0" r="1" gradientUnits="userSpaceOnUse" gradientTransform="translate(18.2979 241.476) rotate(124.853) scale(13.3382)">
<stop offset="0.140625" stop-color="#A8D1E3"/>
<stop offset="1" stop-color="#D2F7E5"/>
</radialGradient>
<radialGradient id="paint37_radial_32_335" cx="0" cy="0" r="1" gradientUnits="userSpaceOnUse" gradientTransform="translate(36.3486 272.548) rotate(124.853) scale(13.3382)">
<stop offset="0.140625" stop-color="#A8D1E3"/>
<stop offset="1" stop-color="#D2F7E5"/>
</radialGradient>
<radialGradient id="paint38_radial_32_335" cx="0" cy="0" r="1" gradientUnits="userSpaceOnUse" gradientTransform="translate(90.5 179) rotate(124.853) scale(13.3382)">
<stop offset="0.140625" stop-color="#A8D1E3"/>
<stop offset="1" stop-color="#D2F7E5"/>
</radialGradient>
<radialGradient id="paint39_radial_32_335" cx="0" cy="0" r="1" gradientUnits="userSpaceOnUse" gradientTransform="translate(126.602 179) rotate(124.853) scale(13.3382)">
<stop offset="0.140625" stop-color="#A8D1E3"/>
<stop offset="1" stop-color="#D2F7E5"/>
</radialGradient>
<radialGradient id="paint40_radial_32_335" cx="0" cy="0" r="1" gradientUnits="userSpaceOnUse" gradientTransform="translate(162.703 179) rotate(124.853) scale(13.3382)">
<stop offset="0.140625" stop-color="#A8D1E3"/>
<stop offset="1" stop-color="#D2F7E5"/>
</radialGradient>
<radialGradient id="paint41_radial_32_335" cx="0" cy="0" r="1" gradientUnits="userSpaceOnUse" gradientTransform="translate(54.3989 179) rotate(124.853) scale(13.3382)">
<stop offset="0.140625" stop-color="#A8D1E3"/>
<stop offset="1" stop-color="#D2F7E5"/>
</radialGradient>
<radialGradient id="paint42_radial_32_335" cx="0" cy="0" r="1" gradientUnits="userSpaceOnUse" gradientTransform="translate(18.2979 179) rotate(124.853) scale(13.3382)">
<stop offset="0.140625" stop-color="#A8D1E3"/>
<stop offset="1" stop-color="#D2F7E5"/>
</radialGradient>
<linearGradient id="paint43_linear_32_335" x1="107.5" y1="116.5" x2="167.5" y2="116.5" gradientUnits="userSpaceOnUse">
<stop stop-color="#158D44"/>
<stop offset="0.791667" stop-color="white" stop-opacity="0.5"/>
</linearGradient>
<radialGradient id="paint44_radial_32_335" cx="0" cy="0" r="1" gradientUnits="userSpaceOnUse" gradientTransform="translate(282.037 89.263) rotate(130.515) scale(127.596)">
<stop stop-color="#D2F7E5"/>
<stop offset="1" stop-color="#A8D1E3"/>
</radialGradient>
</defs>
</svg>
