<svg width="572" height="316" viewBox="0 0 572 316" fill="none" xmlns="http://www.w3.org/2000/svg">
<rect x="104" y="259.5" width="114" height="22" rx="2" fill="#158D44"/>
<rect x="244" y="252.5" width="114" height="29" rx="2" fill="#158D44"/>
<path fill-rule="evenodd" clip-rule="evenodd" d="M333.693 2.23205C333.693 1.46225 334.526 0.981125 335.193 1.36603L462.231 74.7113C462.54 74.89 462.731 75.2201 462.731 75.5773V81.268C462.731 82.0378 461.897 82.5189 461.231 82.134L334.193 8.78868C333.883 8.61004 333.693 8.27992 333.693 7.92265V2.23205Z" fill="#9B9B9B"/>
<path fill-rule="evenodd" clip-rule="evenodd" d="M462.731 76.7321C462.731 75.9623 461.897 75.4811 461.231 75.866L295.222 171.711C294.912 171.89 294.722 172.22 294.722 172.577V178.268C294.722 179.038 295.555 179.519 296.222 179.134L462.231 83.2887C462.54 83.11 462.731 82.7799 462.731 82.4226V76.7321Z" fill="#9B9B9B"/>
<path fill-rule="evenodd" clip-rule="evenodd" d="M294.722 172.577C294.722 172.22 294.531 171.89 294.222 171.711L167.184 98.366C166.517 97.9811 165.684 98.4623 165.684 99.2321V104.923C165.684 105.28 165.875 105.61 166.184 105.789L293.222 179.134C293.889 179.519 294.722 179.038 294.722 178.268V172.577Z" fill="#9B9B9B"/>
<path fill-rule="evenodd" clip-rule="evenodd" d="M165.684 98.0773C165.684 97.7201 165.875 97.39 166.184 97.2113L332.193 1.36603C332.86 0.981127 333.693 1.46225 333.693 2.23205V7.92265C333.693 8.27992 333.502 8.61004 333.193 8.78868L167.184 104.634C166.517 105.019 165.684 104.538 165.684 103.768V98.0773Z" fill="#9B9B9B"/>
<path d="M333.193 0.788672C333.502 0.610039 333.884 0.610042 334.193 0.788675L461.231 74.134C461.897 74.5189 461.897 75.4811 461.231 75.866L295.222 171.711C294.912 171.89 294.531 171.89 294.222 171.711L167.184 98.366C166.517 97.9811 166.517 97.0189 167.184 96.634L333.193 0.788672Z" fill="url(#paint0_linear_837_966)"/>
<path fill-rule="evenodd" clip-rule="evenodd" d="M335.181 2.23205C335.181 1.46225 336.014 0.981125 336.681 1.36603L430.744 55.6735C431.054 55.8521 431.244 56.1823 431.244 56.5395V57.5579C431.244 58.3277 430.411 58.8088 429.744 58.4239L335.681 4.1164C335.372 3.93777 335.181 3.60765 335.181 3.25038V2.23205Z" fill="#6C7478"/>
<path fill-rule="evenodd" clip-rule="evenodd" d="M431.245 57.6942C431.245 56.9244 430.411 56.4433 429.745 56.8282L304.941 128.884C304.632 129.062 304.441 129.392 304.441 129.75V130.768C304.441 131.538 305.274 132.019 305.941 131.634L430.745 59.5786C431.054 59.3999 431.245 59.0698 431.245 58.7125V57.6942Z" fill="#6C7478"/>
<path fill-rule="evenodd" clip-rule="evenodd" d="M304.441 129.75C304.441 129.392 304.25 129.062 303.941 128.884L209.877 74.5761C209.211 74.1912 208.377 74.6723 208.377 75.4421V76.4605C208.377 76.8177 208.568 77.1479 208.877 77.3265L302.941 131.634C303.607 132.019 304.441 131.538 304.441 130.768V129.75Z" fill="#6C7478"/>
<path fill-rule="evenodd" clip-rule="evenodd" d="M208.377 74.2874C208.377 73.9302 208.568 73.6 208.877 73.4214L333.681 1.36603C334.348 0.981125 335.181 1.46225 335.181 2.23205V3.25038C335.181 3.60765 334.99 3.93777 334.681 4.11641L209.877 76.1718C209.211 76.5567 208.377 76.0756 208.377 75.3058V74.2874Z" fill="#6C7478"/>
<path d="M334.681 0.788674C334.99 0.610041 335.372 0.610042 335.681 0.788675L429.744 55.0962C430.411 55.4811 430.411 56.4433 429.744 56.8282L304.941 128.884C304.631 129.062 304.25 129.062 303.941 128.884L209.877 74.5761C209.211 74.1912 209.211 73.229 209.877 72.8441L334.681 0.788674Z" fill="url(#paint1_linear_837_966)"/>
<path fill-rule="evenodd" clip-rule="evenodd" d="M334.354 5.23205C334.354 4.46225 335.188 3.98113 335.854 4.36603L419.351 52.5727C419.66 52.7513 419.851 53.0814 419.851 53.4387V56.6755C419.851 57.4453 419.018 57.9264 418.351 57.5415L334.854 9.33489C334.545 9.15626 334.354 8.82613 334.354 8.46887V5.23205Z" fill="#AAA7A7"/>
<path fill-rule="evenodd" clip-rule="evenodd" d="M419.851 54.5934C419.851 53.8236 419.017 53.3425 418.351 53.7274L306.996 118.018C306.687 118.197 306.496 118.527 306.496 118.884V122.121C306.496 122.891 307.329 123.372 307.996 122.987L419.351 58.6962C419.66 58.5176 419.851 58.1875 419.851 57.8302V54.5934Z" fill="#AAA7A7"/>
<path fill-rule="evenodd" clip-rule="evenodd" d="M306.496 118.884C306.496 118.527 306.306 118.197 305.996 118.018L222.5 69.8114C221.833 69.4265 221 69.9076 221 70.6774V73.9142C221 74.2715 221.191 74.6016 221.5 74.7803L304.996 122.987C305.663 123.372 306.496 122.891 306.496 122.121V118.884Z" fill="#AAA7A7"/>
<path fill-rule="evenodd" clip-rule="evenodd" d="M221 69.5227C221 69.1655 221.191 68.8353 221.5 68.6567L332.855 4.36603C333.521 3.98113 334.355 4.46225 334.355 5.23205V8.46887C334.355 8.82613 334.164 9.15626 333.855 9.33489L222.5 73.6256C221.833 74.0105 221 73.5294 221 72.7596V69.5227Z" fill="#AAA7A7"/>
<path d="M333.855 3.78867C334.164 3.61004 334.545 3.61004 334.855 3.78868L418.351 51.9953C419.018 52.3802 419.018 53.3425 418.351 53.7274L306.996 118.018C306.687 118.197 306.306 118.197 305.996 118.018L222.5 69.8114C221.833 69.4265 221.833 68.4643 222.5 68.0794L333.855 3.78867Z" fill="url(#paint2_linear_837_966)"/>
<path fill-rule="evenodd" clip-rule="evenodd" d="M230.076 91.5L280.306 120.5V122.5L230.076 93.5V91.5Z" fill="#1E8145"/>
<path fill-rule="evenodd" clip-rule="evenodd" d="M280.306 120.5L269.914 126.5V128.5L280.306 122.5V120.5Z" fill="#1E8145"/>
<path fill-rule="evenodd" clip-rule="evenodd" d="M269.914 126.5L219.684 97.5V99.5L269.914 128.5V126.5Z" fill="#1E8145"/>
<path fill-rule="evenodd" clip-rule="evenodd" d="M219.684 97.5L230.076 91.5V93.5L219.684 99.5V97.5Z" fill="#1E8145"/>
<path d="M230.076 91.5L280.306 120.5L269.914 126.5L219.684 97.5L230.076 91.5Z" fill="#158D44"/>
<path fill-rule="evenodd" clip-rule="evenodd" d="M204.684 99.5L267.038 135.5V137.5L204.684 101.5V99.5Z" fill="#1E7E43"/>
<path fill-rule="evenodd" clip-rule="evenodd" d="M267.038 135.5L251.45 144.5V146.5L267.038 137.5V135.5Z" fill="#1E7E43"/>
<path fill-rule="evenodd" clip-rule="evenodd" d="M251.45 144.5L189.096 108.5V110.5L251.45 146.5V144.5Z" fill="#1E7E43"/>
<path fill-rule="evenodd" clip-rule="evenodd" d="M189.096 108.5L204.684 99.5V101.5L189.096 110.5V108.5Z" fill="#1E7E43"/>
<path d="M204.684 99.5L267.038 135.5L251.45 144.5L189.096 108.5L204.684 99.5Z" fill="#1B8A46"/>
<path fill-rule="evenodd" clip-rule="evenodd" d="M229.296 89.5L276 116.464V118.621L229.296 91.6571V89.5Z" fill="#A3A1A1"/>
<path fill-rule="evenodd" clip-rule="evenodd" d="M276 116.464L267.593 121.318V123.475L276 118.622V116.464Z" fill="#A3A1A1"/>
<path fill-rule="evenodd" clip-rule="evenodd" d="M267.593 121.318L220.89 94.3536V96.5107L267.593 123.475V121.318Z" fill="#A3A1A1"/>
<path fill-rule="evenodd" clip-rule="evenodd" d="M220.89 94.3536L229.296 89.5V91.6571L220.89 96.5107V94.3536Z" fill="#A3A1A1"/>
<path d="M229.296 89.5L276 116.464L267.593 121.318L220.89 94.3536L229.296 89.5Z" fill="#A8D0EE"/>
<path fill-rule="evenodd" clip-rule="evenodd" d="M209.684 101.232C209.684 100.462 210.517 99.9811 211.184 100.366L262.878 130.211C263.187 130.39 263.378 130.72 263.378 131.077V132.768C263.378 133.538 262.544 134.019 261.878 133.634L210.184 103.789C209.875 103.61 209.684 103.28 209.684 102.923V101.232Z" fill="#455A64"/>
<path fill-rule="evenodd" clip-rule="evenodd" d="M263.377 132.232C263.377 131.462 262.544 130.981 261.877 131.366L197.193 168.711C196.884 168.89 196.693 169.22 196.693 169.577V171.268C196.693 172.038 197.527 172.519 198.193 172.134L262.877 134.789C263.187 134.61 263.377 134.28 263.377 133.923V132.232Z" fill="#455A64"/>
<path fill-rule="evenodd" clip-rule="evenodd" d="M196.694 169.577C196.694 169.22 196.503 168.89 196.194 168.711L144.5 138.866C143.833 138.481 143 138.962 143 139.732V141.423C143 141.78 143.191 142.11 143.5 142.289L195.194 172.134C195.86 172.519 196.694 172.038 196.694 171.268V169.577Z" fill="#455A64"/>
<path fill-rule="evenodd" clip-rule="evenodd" d="M143 138.577C143 138.22 143.191 137.89 143.5 137.711L208.184 100.366C208.851 99.9811 209.684 100.462 209.684 101.232V102.923C209.684 103.28 209.493 103.61 209.184 103.789L144.5 141.134C143.833 141.519 143 141.038 143 140.268V138.577Z" fill="#455A64"/>
<path d="M209.184 99.7887C209.493 99.61 209.875 99.61 210.184 99.7887L261.878 129.634C262.544 130.019 262.544 130.981 261.878 131.366L197.194 168.711C196.884 168.89 196.503 168.89 196.194 168.711L144.5 138.866C143.833 138.481 143.833 137.519 144.5 137.134L209.184 99.7887Z" fill="#10BAD1"/>
<path fill-rule="evenodd" clip-rule="evenodd" d="M432.693 68.5L446.549 76.5V78.5L432.693 70.5V68.5Z" fill="#247243"/>
<path fill-rule="evenodd" clip-rule="evenodd" d="M446.55 76.5L399.784 103.5V105.5L446.55 78.5V76.5Z" fill="#247243"/>
<path fill-rule="evenodd" clip-rule="evenodd" d="M399.784 103.5L385.928 95.5V97.5L399.784 105.5V103.5Z" fill="#247243"/>
<path fill-rule="evenodd" clip-rule="evenodd" d="M385.928 95.5L432.693 68.5V70.5L385.928 97.5V95.5Z" fill="#247243"/>
<path d="M432.693 68.5L446.55 76.5L399.784 103.5L385.928 95.5L432.693 68.5Z" fill="#158D44"/>
<path fill-rule="evenodd" clip-rule="evenodd" d="M371.458 104.5L385.314 112.5V114.5L371.458 106.5V104.5Z" fill="#247243"/>
<path fill-rule="evenodd" clip-rule="evenodd" d="M385.315 112.5L338.549 139.5V141.5L385.315 114.5V112.5Z" fill="#247243"/>
<path fill-rule="evenodd" clip-rule="evenodd" d="M338.549 139.5L324.693 131.5V133.5L338.549 141.5V139.5Z" fill="#247243"/>
<path fill-rule="evenodd" clip-rule="evenodd" d="M324.693 131.5L371.458 104.5V106.5L324.693 133.5V131.5Z" fill="#247243"/>
<path d="M371.458 104.5L385.315 112.5L338.549 139.5L324.693 131.5L371.458 104.5Z" fill="#158D44"/>
<path fill-rule="evenodd" clip-rule="evenodd" d="M433.693 67.5L441.487 72V75L433.693 70.5V67.5Z" fill="#E6E6E6"/>
<path fill-rule="evenodd" clip-rule="evenodd" d="M441.487 72L398.186 97V100L441.487 75V72Z" fill="#E6E6E6"/>
<path fill-rule="evenodd" clip-rule="evenodd" d="M398.186 97L390.392 92.5V95.5L398.186 100V97Z" fill="#E6E6E6"/>
<path fill-rule="evenodd" clip-rule="evenodd" d="M390.392 92.5L433.693 67.5V70.5L390.392 95.5V92.5Z" fill="#E6E6E6"/>
<path d="M433.693 67.5L441.487 72L398.186 97L390.392 92.5L433.693 67.5Z" fill="#D2E5F3"/>
<path fill-rule="evenodd" clip-rule="evenodd" d="M372.458 103.5L380.253 108V111L372.458 106.5V103.5Z" fill="#E6E6E6"/>
<path fill-rule="evenodd" clip-rule="evenodd" d="M380.253 108L336.952 133V136L380.253 111V108Z" fill="#E6E6E6"/>
<path fill-rule="evenodd" clip-rule="evenodd" d="M336.951 133L329.157 128.5V131.5L336.951 136V133Z" fill="#E6E6E6"/>
<path fill-rule="evenodd" clip-rule="evenodd" d="M329.157 128.5L372.458 103.5V106.5L329.157 131.5V128.5Z" fill="#E6E6E6"/>
<path d="M372.458 103.5L380.253 108L336.951 133L329.157 128.5L372.458 103.5Z" fill="#D2E5F3"/>
<path d="M307.278 70.5V58.8636H309.034V68.9886H314.307V70.5H307.278ZM325.521 62.6477H323.749C323.68 62.2689 323.554 61.9356 323.368 61.6477C323.182 61.3598 322.955 61.1155 322.686 60.9148C322.417 60.714 322.116 60.5625 321.783 60.4602C321.453 60.358 321.103 60.3068 320.732 60.3068C320.061 60.3068 319.461 60.4754 318.93 60.8125C318.404 61.1496 317.987 61.6439 317.68 62.2955C317.377 62.947 317.226 63.7424 317.226 64.6818C317.226 65.6288 317.377 66.428 317.68 67.0795C317.987 67.7311 318.406 68.2235 318.936 68.5568C319.466 68.8902 320.063 69.0568 320.726 69.0568C321.093 69.0568 321.442 69.0076 321.771 68.9091C322.105 68.8068 322.406 68.6572 322.675 68.4602C322.944 68.2633 323.171 68.0227 323.357 67.7386C323.546 67.4508 323.677 67.1212 323.749 66.75L325.521 66.7557C325.427 67.3277 325.243 67.8542 324.97 68.3352C324.701 68.8125 324.355 69.2254 323.93 69.5739C323.51 69.9186 323.029 70.1856 322.487 70.375C321.946 70.5644 321.355 70.6591 320.714 70.6591C319.707 70.6591 318.809 70.4205 318.021 69.9432C317.233 69.4621 316.612 68.7746 316.158 67.8807C315.707 66.9867 315.482 65.9205 315.482 64.6818C315.482 63.4394 315.709 62.3731 316.163 61.483C316.618 60.589 317.239 59.9034 318.027 59.4261C318.815 58.9451 319.711 58.7045 320.714 58.7045C321.332 58.7045 321.908 58.7936 322.442 58.9716C322.98 59.1458 323.463 59.4034 323.891 59.7443C324.319 60.0814 324.673 60.4943 324.953 60.983C325.233 61.4678 325.423 62.0227 325.521 62.6477ZM331.389 70.5H327.622V58.8636H331.509C332.649 58.8636 333.628 59.0966 334.446 59.5625C335.264 60.0246 335.891 60.6894 336.327 61.5568C336.766 62.4205 336.986 63.4564 336.986 64.6648C336.986 65.8769 336.764 66.9186 336.321 67.7898C335.882 68.661 335.245 69.3314 334.412 69.8011C333.579 70.267 332.571 70.5 331.389 70.5ZM329.378 68.9659H331.293C332.179 68.9659 332.916 68.7992 333.503 68.4659C334.09 68.1288 334.529 67.642 334.821 67.0057C335.113 66.3655 335.259 65.5852 335.259 64.6648C335.259 63.7519 335.113 62.9773 334.821 62.3409C334.533 61.7045 334.103 61.2216 333.531 60.892C332.959 60.5625 332.249 60.3977 331.401 60.3977H329.378V68.9659Z" fill="white"/>
<rect y="246.5" width="207" height="19" rx="2" fill="#15779F"/>
<rect x="253" y="246.5" width="96" height="19" rx="2" fill="#A8D0EE"/>
<rect x="384" y="239.5" width="146" height="26" rx="2" fill="#A4A2A2"/>
<rect x="400.5" y="235" width="116" height="4" rx="1.5" fill="#E6E6E6" stroke="#B9B9B9"/>
<rect y="265.5" width="98" height="13" rx="2" fill="#10BAD1"/>
<rect x="98" y="265.5" width="108" height="7" fill="#10BAD1"/>
<rect x="253" y="265.5" width="17" height="7" fill="#10BAD1"/>
<rect x="330" y="265.5" width="17" height="7" fill="#10BAD1"/>
<rect x="110" y="278.5" width="160" height="5" fill="#10BAD1"/>
<rect x="328" y="278.5" width="22" height="5" fill="#10BAD1"/>
<rect x="110" y="281.5" width="420" height="34" fill="url(#paint3_linear_837_966)"/>
<path d="M238.153 292.54C238.044 292.195 237.896 291.886 237.71 291.614C237.528 291.337 237.311 291.102 237.057 290.909C236.803 290.712 236.513 290.562 236.188 290.46C235.866 290.358 235.511 290.307 235.125 290.307C234.47 290.307 233.879 290.475 233.352 290.812C232.826 291.15 232.409 291.644 232.102 292.295C231.799 292.943 231.648 293.737 231.648 294.676C231.648 295.619 231.801 296.417 232.108 297.068C232.415 297.72 232.835 298.214 233.369 298.551C233.903 298.888 234.511 299.057 235.193 299.057C235.826 299.057 236.377 298.928 236.847 298.67C237.32 298.413 237.686 298.049 237.943 297.58C238.205 297.106 238.335 296.549 238.335 295.909L238.79 295.994H235.46V294.545H240.034V295.869C240.034 296.847 239.826 297.695 239.409 298.415C238.996 299.131 238.424 299.684 237.693 300.074C236.966 300.464 236.133 300.659 235.193 300.659C234.14 300.659 233.216 300.417 232.42 299.932C231.629 299.447 231.011 298.759 230.568 297.869C230.125 296.975 229.903 295.915 229.903 294.688C229.903 293.759 230.032 292.926 230.29 292.188C230.547 291.449 230.909 290.822 231.375 290.307C231.845 289.788 232.396 289.392 233.028 289.119C233.665 288.843 234.36 288.705 235.114 288.705C235.742 288.705 236.328 288.797 236.869 288.983C237.415 289.169 237.9 289.432 238.324 289.773C238.752 290.114 239.106 290.519 239.386 290.989C239.667 291.455 239.856 291.972 239.955 292.54H238.153ZM243.825 288.864V300.5H242.126V288.864H243.825ZM248.651 300.693C248.098 300.693 247.598 300.591 247.151 300.386C246.704 300.178 246.349 299.877 246.088 299.483C245.83 299.089 245.702 298.606 245.702 298.034C245.702 297.542 245.796 297.136 245.986 296.818C246.175 296.5 246.431 296.248 246.753 296.062C247.075 295.877 247.435 295.737 247.832 295.642C248.23 295.547 248.635 295.475 249.048 295.426C249.571 295.366 249.995 295.316 250.321 295.278C250.647 295.237 250.884 295.17 251.031 295.08C251.179 294.989 251.253 294.841 251.253 294.636V294.597C251.253 294.1 251.113 293.716 250.832 293.443C250.556 293.17 250.143 293.034 249.594 293.034C249.022 293.034 248.571 293.161 248.241 293.415C247.916 293.665 247.69 293.943 247.565 294.25L245.969 293.886C246.158 293.356 246.435 292.928 246.798 292.602C247.166 292.273 247.588 292.034 248.065 291.886C248.543 291.735 249.045 291.659 249.571 291.659C249.92 291.659 250.289 291.701 250.679 291.784C251.073 291.864 251.44 292.011 251.781 292.227C252.126 292.443 252.408 292.752 252.628 293.153C252.848 293.551 252.957 294.068 252.957 294.705V300.5H251.298V299.307H251.23C251.12 299.527 250.955 299.742 250.736 299.955C250.516 300.167 250.234 300.343 249.889 300.483C249.545 300.623 249.132 300.693 248.651 300.693ZM249.02 299.33C249.49 299.33 249.891 299.237 250.224 299.051C250.562 298.866 250.817 298.623 250.991 298.324C251.17 298.021 251.259 297.697 251.259 297.352V296.227C251.198 296.288 251.08 296.345 250.906 296.398C250.736 296.447 250.541 296.491 250.321 296.528C250.101 296.562 249.887 296.595 249.679 296.625C249.471 296.652 249.296 296.674 249.156 296.693C248.827 296.735 248.526 296.805 248.253 296.903C247.984 297.002 247.768 297.144 247.605 297.33C247.446 297.511 247.366 297.754 247.366 298.057C247.366 298.477 247.522 298.795 247.832 299.011C248.143 299.223 248.539 299.33 249.02 299.33ZM261.76 293.903L260.22 294.176C260.156 293.979 260.054 293.792 259.913 293.614C259.777 293.436 259.591 293.29 259.357 293.176C259.122 293.062 258.828 293.006 258.476 293.006C257.995 293.006 257.593 293.114 257.271 293.33C256.949 293.542 256.788 293.816 256.788 294.153C256.788 294.445 256.896 294.68 257.112 294.858C257.328 295.036 257.677 295.182 258.158 295.295L259.544 295.614C260.347 295.799 260.946 296.085 261.339 296.472C261.733 296.858 261.93 297.36 261.93 297.977C261.93 298.5 261.779 298.966 261.476 299.375C261.177 299.78 260.758 300.098 260.22 300.33C259.686 300.561 259.067 300.676 258.362 300.676C257.385 300.676 256.588 300.468 255.97 300.051C255.353 299.631 254.974 299.034 254.834 298.261L256.476 298.011C256.578 298.439 256.788 298.763 257.107 298.983C257.425 299.199 257.839 299.307 258.351 299.307C258.908 299.307 259.353 299.191 259.686 298.96C260.019 298.725 260.186 298.439 260.186 298.102C260.186 297.83 260.084 297.6 259.879 297.415C259.679 297.229 259.37 297.089 258.953 296.994L257.476 296.67C256.661 296.485 256.059 296.189 255.669 295.784C255.283 295.379 255.089 294.866 255.089 294.244C255.089 293.729 255.233 293.278 255.521 292.892C255.809 292.506 256.207 292.205 256.714 291.989C257.222 291.769 257.804 291.659 258.459 291.659C259.402 291.659 260.144 291.864 260.686 292.273C261.228 292.678 261.586 293.222 261.76 293.903ZM270.338 293.903L268.798 294.176C268.734 293.979 268.632 293.792 268.491 293.614C268.355 293.436 268.17 293.29 267.935 293.176C267.7 293.062 267.406 293.006 267.054 293.006C266.573 293.006 266.171 293.114 265.849 293.33C265.527 293.542 265.366 293.816 265.366 294.153C265.366 294.445 265.474 294.68 265.69 294.858C265.906 295.036 266.255 295.182 266.736 295.295L268.122 295.614C268.925 295.799 269.524 296.085 269.918 296.472C270.312 296.858 270.509 297.36 270.509 297.977C270.509 298.5 270.357 298.966 270.054 299.375C269.755 299.78 269.336 300.098 268.798 300.33C268.264 300.561 267.645 300.676 266.94 300.676C265.963 300.676 265.166 300.468 264.548 300.051C263.931 299.631 263.552 299.034 263.412 298.261L265.054 298.011C265.156 298.439 265.366 298.763 265.685 298.983C266.003 299.199 266.418 299.307 266.929 299.307C267.486 299.307 267.931 299.191 268.264 298.96C268.598 298.725 268.764 298.439 268.764 298.102C268.764 297.83 268.662 297.6 268.457 297.415C268.257 297.229 267.948 297.089 267.531 296.994L266.054 296.67C265.24 296.485 264.637 296.189 264.247 295.784C263.861 295.379 263.668 294.866 263.668 294.244C263.668 293.729 263.812 293.278 264.099 292.892C264.387 292.506 264.785 292.205 265.293 291.989C265.8 291.769 266.382 291.659 267.037 291.659C267.98 291.659 268.723 291.864 269.264 292.273C269.806 292.678 270.164 293.222 270.338 293.903ZM283.151 293.903L281.611 294.176C281.546 293.979 281.444 293.792 281.304 293.614C281.168 293.436 280.982 293.29 280.747 293.176C280.512 293.062 280.219 293.006 279.866 293.006C279.385 293.006 278.984 293.114 278.662 293.33C278.34 293.542 278.179 293.816 278.179 294.153C278.179 294.445 278.287 294.68 278.503 294.858C278.719 295.036 279.067 295.182 279.548 295.295L280.935 295.614C281.738 295.799 282.336 296.085 282.73 296.472C283.124 296.858 283.321 297.36 283.321 297.977C283.321 298.5 283.17 298.966 282.866 299.375C282.567 299.78 282.149 300.098 281.611 300.33C281.077 300.561 280.457 300.676 279.753 300.676C278.776 300.676 277.978 300.468 277.361 300.051C276.743 299.631 276.365 299.034 276.224 298.261L277.866 298.011C277.969 298.439 278.179 298.763 278.497 298.983C278.815 299.199 279.23 299.307 279.741 299.307C280.298 299.307 280.743 299.191 281.077 298.96C281.41 298.725 281.577 298.439 281.577 298.102C281.577 297.83 281.474 297.6 281.27 297.415C281.069 297.229 280.76 297.089 280.344 296.994L278.866 296.67C278.052 296.485 277.45 296.189 277.06 295.784C276.673 295.379 276.48 294.866 276.48 294.244C276.48 293.729 276.624 293.278 276.912 292.892C277.2 292.506 277.598 292.205 278.105 291.989C278.613 291.769 279.194 291.659 279.849 291.659C280.793 291.659 281.535 291.864 282.077 292.273C282.618 292.678 282.976 293.222 283.151 293.903ZM290.717 296.881V291.773H292.422V300.5H290.751V298.989H290.661C290.46 299.455 290.138 299.843 289.695 300.153C289.255 300.46 288.708 300.614 288.053 300.614C287.492 300.614 286.996 300.491 286.564 300.244C286.136 299.994 285.799 299.625 285.553 299.136C285.31 298.648 285.189 298.044 285.189 297.324V291.773H286.888V297.119C286.888 297.714 287.053 298.187 287.382 298.54C287.712 298.892 288.14 299.068 288.666 299.068C288.984 299.068 289.301 298.989 289.615 298.83C289.933 298.67 290.196 298.43 290.405 298.108C290.617 297.786 290.721 297.377 290.717 296.881ZM294.841 300.5V288.864H296.54V293.188H296.642C296.741 293.006 296.883 292.795 297.068 292.557C297.254 292.318 297.511 292.11 297.841 291.932C298.17 291.75 298.606 291.659 299.148 291.659C299.852 291.659 300.481 291.837 301.034 292.193C301.587 292.549 302.021 293.062 302.335 293.733C302.653 294.403 302.812 295.21 302.812 296.153C302.812 297.097 302.655 297.905 302.341 298.58C302.027 299.25 301.595 299.767 301.045 300.131C300.496 300.491 299.869 300.67 299.165 300.67C298.634 300.67 298.201 300.581 297.864 300.403C297.53 300.225 297.269 300.017 297.08 299.778C296.89 299.54 296.744 299.328 296.642 299.142H296.5V300.5H294.841ZM296.506 296.136C296.506 296.75 296.595 297.288 296.773 297.75C296.951 298.212 297.208 298.574 297.545 298.835C297.883 299.093 298.295 299.222 298.784 299.222C299.292 299.222 299.716 299.087 300.057 298.818C300.398 298.545 300.655 298.176 300.83 297.71C301.008 297.244 301.097 296.72 301.097 296.136C301.097 295.561 301.009 295.044 300.835 294.585C300.665 294.127 300.407 293.765 300.062 293.5C299.722 293.235 299.295 293.102 298.784 293.102C298.292 293.102 297.875 293.229 297.534 293.483C297.197 293.737 296.941 294.091 296.767 294.545C296.593 295 296.506 295.53 296.506 296.136ZM311.26 293.903L309.72 294.176C309.656 293.979 309.554 293.792 309.413 293.614C309.277 293.436 309.091 293.29 308.857 293.176C308.622 293.062 308.328 293.006 307.976 293.006C307.495 293.006 307.093 293.114 306.771 293.33C306.449 293.542 306.288 293.816 306.288 294.153C306.288 294.445 306.396 294.68 306.612 294.858C306.828 295.036 307.177 295.182 307.658 295.295L309.044 295.614C309.847 295.799 310.446 296.085 310.839 296.472C311.233 296.858 311.43 297.36 311.43 297.977C311.43 298.5 311.279 298.966 310.976 299.375C310.677 299.78 310.258 300.098 309.72 300.33C309.186 300.561 308.567 300.676 307.862 300.676C306.885 300.676 306.088 300.468 305.47 300.051C304.853 299.631 304.474 299.034 304.334 298.261L305.976 298.011C306.078 298.439 306.288 298.763 306.607 298.983C306.925 299.199 307.339 299.307 307.851 299.307C308.408 299.307 308.853 299.191 309.186 298.96C309.519 298.725 309.686 298.439 309.686 298.102C309.686 297.83 309.584 297.6 309.379 297.415C309.179 297.229 308.87 297.089 308.453 296.994L306.976 296.67C306.161 296.485 305.559 296.189 305.169 295.784C304.783 295.379 304.589 294.866 304.589 294.244C304.589 293.729 304.733 293.278 305.021 292.892C305.309 292.506 305.707 292.205 306.214 291.989C306.722 291.769 307.304 291.659 307.959 291.659C308.902 291.659 309.644 291.864 310.186 292.273C310.728 292.678 311.086 293.222 311.26 293.903ZM317.372 291.773V293.136H312.605V291.773H317.372ZM313.884 289.682H315.582V297.938C315.582 298.267 315.632 298.515 315.73 298.682C315.829 298.845 315.955 298.956 316.111 299.017C316.27 299.074 316.442 299.102 316.628 299.102C316.764 299.102 316.884 299.093 316.986 299.074C317.088 299.055 317.168 299.04 317.224 299.028L317.531 300.432C317.433 300.47 317.293 300.508 317.111 300.545C316.929 300.587 316.702 300.61 316.429 300.614C315.982 300.621 315.565 300.542 315.179 300.375C314.793 300.208 314.48 299.951 314.241 299.602C314.003 299.254 313.884 298.816 313.884 298.29V289.682ZM319.251 300.5V291.773H320.893V293.159H320.984C321.143 292.689 321.424 292.32 321.825 292.051C322.231 291.778 322.689 291.642 323.2 291.642C323.306 291.642 323.431 291.646 323.575 291.653C323.723 291.661 323.839 291.67 323.922 291.682V293.307C323.854 293.288 323.732 293.267 323.558 293.244C323.384 293.218 323.21 293.205 323.036 293.205C322.634 293.205 322.276 293.29 321.962 293.46C321.651 293.627 321.405 293.86 321.223 294.159C321.041 294.455 320.95 294.792 320.95 295.17V300.5H319.251ZM327.854 300.693C327.301 300.693 326.801 300.591 326.354 300.386C325.907 300.178 325.553 299.877 325.291 299.483C325.034 299.089 324.905 298.606 324.905 298.034C324.905 297.542 325 297.136 325.189 296.818C325.378 296.5 325.634 296.248 325.956 296.062C326.278 295.877 326.638 295.737 327.036 295.642C327.433 295.547 327.839 295.475 328.251 295.426C328.774 295.366 329.198 295.316 329.524 295.278C329.85 295.237 330.087 295.17 330.234 295.08C330.382 294.989 330.456 294.841 330.456 294.636V294.597C330.456 294.1 330.316 293.716 330.036 293.443C329.759 293.17 329.346 293.034 328.797 293.034C328.225 293.034 327.774 293.161 327.445 293.415C327.119 293.665 326.893 293.943 326.768 294.25L325.172 293.886C325.361 293.356 325.638 292.928 326.001 292.602C326.369 292.273 326.791 292.034 327.268 291.886C327.746 291.735 328.248 291.659 328.774 291.659C329.123 291.659 329.492 291.701 329.882 291.784C330.276 291.864 330.643 292.011 330.984 292.227C331.329 292.443 331.611 292.752 331.831 293.153C332.051 293.551 332.161 294.068 332.161 294.705V300.5H330.501V299.307H330.433C330.323 299.527 330.159 299.742 329.939 299.955C329.719 300.167 329.437 300.343 329.092 300.483C328.748 300.623 328.335 300.693 327.854 300.693ZM328.223 299.33C328.693 299.33 329.094 299.237 329.428 299.051C329.765 298.866 330.02 298.623 330.195 298.324C330.373 298.021 330.462 297.697 330.462 297.352V296.227C330.401 296.288 330.284 296.345 330.109 296.398C329.939 296.447 329.744 296.491 329.524 296.528C329.304 296.562 329.09 296.595 328.882 296.625C328.674 296.652 328.5 296.674 328.359 296.693C328.03 296.735 327.729 296.805 327.456 296.903C327.187 297.002 326.971 297.144 326.808 297.33C326.649 297.511 326.57 297.754 326.57 298.057C326.57 298.477 326.725 298.795 327.036 299.011C327.346 299.223 327.742 299.33 328.223 299.33ZM338.497 291.773V293.136H333.73V291.773H338.497ZM335.009 289.682H336.707V297.938C336.707 298.267 336.757 298.515 336.855 298.682C336.954 298.845 337.08 298.956 337.236 299.017C337.395 299.074 337.567 299.102 337.753 299.102C337.889 299.102 338.009 299.093 338.111 299.074C338.213 299.055 338.293 299.04 338.349 299.028L338.656 300.432C338.558 300.47 338.418 300.508 338.236 300.545C338.054 300.587 337.827 300.61 337.554 300.614C337.107 300.621 336.69 300.542 336.304 300.375C335.918 300.208 335.605 299.951 335.366 299.602C335.128 299.254 335.009 298.816 335.009 298.29V289.682ZM344.044 300.676C343.184 300.676 342.444 300.492 341.822 300.125C341.205 299.754 340.728 299.233 340.391 298.562C340.057 297.888 339.891 297.098 339.891 296.193C339.891 295.299 340.057 294.511 340.391 293.83C340.728 293.148 341.197 292.616 341.8 292.233C342.406 291.85 343.114 291.659 343.925 291.659C344.417 291.659 344.894 291.741 345.357 291.903C345.819 292.066 346.233 292.322 346.601 292.67C346.968 293.019 347.258 293.472 347.47 294.028C347.682 294.581 347.788 295.254 347.788 296.045V296.648H340.851V295.375H346.124C346.124 294.928 346.033 294.532 345.851 294.188C345.669 293.839 345.413 293.564 345.084 293.364C344.758 293.163 344.375 293.062 343.936 293.062C343.459 293.062 343.042 293.18 342.686 293.415C342.334 293.646 342.061 293.949 341.868 294.324C341.679 294.695 341.584 295.098 341.584 295.534V296.528C341.584 297.112 341.686 297.608 341.891 298.017C342.099 298.426 342.389 298.739 342.76 298.955C343.131 299.167 343.565 299.273 344.061 299.273C344.383 299.273 344.677 299.227 344.942 299.136C345.207 299.042 345.436 298.902 345.629 298.716C345.822 298.53 345.97 298.301 346.072 298.028L347.68 298.318C347.552 298.792 347.321 299.206 346.987 299.562C346.658 299.915 346.243 300.189 345.743 300.386C345.247 300.58 344.68 300.676 344.044 300.676Z" fill="#717171"/>
<ellipse cx="125" cy="275.5" rx="5" ry="3" fill="url(#paint4_radial_837_966)"/>
<ellipse cx="143" cy="275.5" rx="5" ry="3" fill="url(#paint5_radial_837_966)"/>
<ellipse cx="179" cy="275.5" rx="5" ry="3" fill="url(#paint6_radial_837_966)"/>
<ellipse cx="197" cy="275.5" rx="5" ry="3" fill="url(#paint7_radial_837_966)"/>
<ellipse cx="262" cy="275.5" rx="5" ry="3" fill="url(#paint8_radial_837_966)"/>
<ellipse cx="339" cy="275.5" rx="5" ry="3" fill="url(#paint9_radial_837_966)"/>
<circle cx="276" cy="275.5" r="4" fill="url(#paint10_radial_837_966)"/>
<circle cx="285" cy="272.5" r="4" fill="url(#paint11_radial_837_966)"/>
<circle cx="300" cy="270.5" r="4" fill="url(#paint12_radial_837_966)"/>
<circle cx="308" cy="276.5" r="4" fill="url(#paint13_radial_837_966)"/>
<circle cx="294" cy="277.5" r="4" fill="url(#paint14_radial_837_966)"/>
<circle cx="314" cy="270.5" r="4" fill="url(#paint15_radial_837_966)"/>
<circle cx="323" cy="275.5" r="4" fill="url(#paint16_radial_837_966)"/>
<ellipse cx="161" cy="275.5" rx="5" ry="3" fill="url(#paint17_radial_837_966)"/>
<rect x="384" y="265.5" width="24" height="16" fill="#D9D9D9"/>
<rect x="505" y="265.5" width="24" height="16" fill="#D9D9D9"/>
<path d="M437.278 226.5V214.864H439.034V224.989H444.307V226.5H437.278ZM455.521 218.648H453.749C453.68 218.269 453.554 217.936 453.368 217.648C453.182 217.36 452.955 217.116 452.686 216.915C452.417 216.714 452.116 216.562 451.783 216.46C451.453 216.358 451.103 216.307 450.732 216.307C450.061 216.307 449.461 216.475 448.93 216.812C448.404 217.15 447.987 217.644 447.68 218.295C447.377 218.947 447.226 219.742 447.226 220.682C447.226 221.629 447.377 222.428 447.68 223.08C447.987 223.731 448.406 224.223 448.936 224.557C449.466 224.89 450.063 225.057 450.726 225.057C451.093 225.057 451.442 225.008 451.771 224.909C452.105 224.807 452.406 224.657 452.675 224.46C452.944 224.263 453.171 224.023 453.357 223.739C453.546 223.451 453.677 223.121 453.749 222.75L455.521 222.756C455.427 223.328 455.243 223.854 454.97 224.335C454.701 224.812 454.355 225.225 453.93 225.574C453.51 225.919 453.029 226.186 452.487 226.375C451.946 226.564 451.355 226.659 450.714 226.659C449.707 226.659 448.809 226.42 448.021 225.943C447.233 225.462 446.612 224.775 446.158 223.881C445.707 222.987 445.482 221.92 445.482 220.682C445.482 219.439 445.709 218.373 446.163 217.483C446.618 216.589 447.239 215.903 448.027 215.426C448.815 214.945 449.711 214.705 450.714 214.705C451.332 214.705 451.908 214.794 452.442 214.972C452.98 215.146 453.463 215.403 453.891 215.744C454.319 216.081 454.673 216.494 454.953 216.983C455.233 217.468 455.423 218.023 455.521 218.648ZM461.389 226.5H457.622V214.864H461.509C462.649 214.864 463.628 215.097 464.446 215.562C465.264 216.025 465.891 216.689 466.327 217.557C466.766 218.42 466.986 219.456 466.986 220.665C466.986 221.877 466.764 222.919 466.321 223.79C465.882 224.661 465.245 225.331 464.412 225.801C463.579 226.267 462.571 226.5 461.389 226.5ZM459.378 224.966H461.293C462.179 224.966 462.916 224.799 463.503 224.466C464.09 224.129 464.529 223.642 464.821 223.006C465.113 222.366 465.259 221.585 465.259 220.665C465.259 219.752 465.113 218.977 464.821 218.341C464.533 217.705 464.103 217.222 463.531 216.892C462.959 216.562 462.249 216.398 461.401 216.398H459.378V224.966ZM473.267 229.773V217.773H474.926V219.188H475.068C475.167 219.006 475.309 218.795 475.494 218.557C475.68 218.318 475.938 218.11 476.267 217.932C476.597 217.75 477.032 217.659 477.574 217.659C478.278 217.659 478.907 217.837 479.46 218.193C480.013 218.549 480.447 219.062 480.761 219.733C481.08 220.403 481.239 221.21 481.239 222.153C481.239 223.097 481.081 223.905 480.767 224.58C480.453 225.25 480.021 225.767 479.472 226.131C478.922 226.491 478.295 226.67 477.591 226.67C477.061 226.67 476.627 226.581 476.29 226.403C475.956 226.225 475.695 226.017 475.506 225.778C475.316 225.54 475.17 225.328 475.068 225.142H474.966V229.773H473.267ZM474.932 222.136C474.932 222.75 475.021 223.288 475.199 223.75C475.377 224.212 475.634 224.574 475.972 224.835C476.309 225.093 476.722 225.222 477.21 225.222C477.718 225.222 478.142 225.087 478.483 224.818C478.824 224.545 479.081 224.176 479.256 223.71C479.434 223.244 479.523 222.72 479.523 222.136C479.523 221.561 479.436 221.044 479.261 220.585C479.091 220.127 478.833 219.765 478.489 219.5C478.148 219.235 477.722 219.102 477.21 219.102C476.718 219.102 476.301 219.229 475.96 219.483C475.623 219.737 475.367 220.091 475.193 220.545C475.019 221 474.932 221.53 474.932 222.136ZM485.682 226.693C485.129 226.693 484.629 226.591 484.182 226.386C483.735 226.178 483.381 225.877 483.119 225.483C482.862 225.089 482.733 224.606 482.733 224.034C482.733 223.542 482.828 223.136 483.017 222.818C483.206 222.5 483.462 222.248 483.784 222.062C484.106 221.877 484.466 221.737 484.864 221.642C485.261 221.547 485.667 221.475 486.08 221.426C486.602 221.366 487.027 221.316 487.352 221.278C487.678 221.237 487.915 221.17 488.062 221.08C488.21 220.989 488.284 220.841 488.284 220.636V220.597C488.284 220.1 488.144 219.716 487.864 219.443C487.587 219.17 487.174 219.034 486.625 219.034C486.053 219.034 485.602 219.161 485.273 219.415C484.947 219.665 484.722 219.943 484.597 220.25L483 219.886C483.189 219.356 483.466 218.928 483.83 218.602C484.197 218.273 484.619 218.034 485.097 217.886C485.574 217.735 486.076 217.659 486.602 217.659C486.951 217.659 487.32 217.701 487.71 217.784C488.104 217.864 488.472 218.011 488.812 218.227C489.157 218.443 489.439 218.752 489.659 219.153C489.879 219.551 489.989 220.068 489.989 220.705V226.5H488.33V225.307H488.261C488.152 225.527 487.987 225.742 487.767 225.955C487.547 226.167 487.265 226.343 486.92 226.483C486.576 226.623 486.163 226.693 485.682 226.693ZM486.051 225.33C486.521 225.33 486.922 225.237 487.256 225.051C487.593 224.866 487.848 224.623 488.023 224.324C488.201 224.021 488.29 223.697 488.29 223.352V222.227C488.229 222.288 488.112 222.345 487.938 222.398C487.767 222.447 487.572 222.491 487.352 222.528C487.133 222.562 486.919 222.595 486.71 222.625C486.502 222.652 486.328 222.674 486.188 222.693C485.858 222.735 485.557 222.805 485.284 222.903C485.015 223.002 484.799 223.144 484.636 223.33C484.477 223.511 484.398 223.754 484.398 224.057C484.398 224.477 484.553 224.795 484.864 225.011C485.174 225.223 485.57 225.33 486.051 225.33ZM493.95 221.318V226.5H492.251V217.773H493.882V219.193H493.99C494.191 218.731 494.505 218.36 494.933 218.08C495.365 217.799 495.909 217.659 496.564 217.659C497.159 217.659 497.679 217.784 498.126 218.034C498.573 218.28 498.92 218.648 499.166 219.136C499.412 219.625 499.536 220.229 499.536 220.949V226.5H497.837V221.153C497.837 220.521 497.672 220.027 497.342 219.67C497.013 219.311 496.56 219.131 495.984 219.131C495.59 219.131 495.24 219.216 494.933 219.386C494.63 219.557 494.39 219.807 494.212 220.136C494.037 220.462 493.95 220.856 493.95 221.318ZM505.575 226.676C504.715 226.676 503.975 226.492 503.354 226.125C502.736 225.754 502.259 225.233 501.922 224.562C501.589 223.888 501.422 223.098 501.422 222.193C501.422 221.299 501.589 220.511 501.922 219.83C502.259 219.148 502.729 218.616 503.331 218.233C503.937 217.85 504.645 217.659 505.456 217.659C505.948 217.659 506.426 217.741 506.888 217.903C507.35 218.066 507.765 218.322 508.132 218.67C508.5 219.019 508.789 219.472 509.001 220.028C509.214 220.581 509.32 221.254 509.32 222.045V222.648H502.382V221.375H507.655C507.655 220.928 507.564 220.532 507.382 220.188C507.2 219.839 506.945 219.564 506.615 219.364C506.289 219.163 505.907 219.062 505.467 219.062C504.99 219.062 504.573 219.18 504.217 219.415C503.865 219.646 503.592 219.949 503.399 220.324C503.21 220.695 503.115 221.098 503.115 221.534V222.528C503.115 223.112 503.217 223.608 503.422 224.017C503.63 224.426 503.92 224.739 504.291 224.955C504.662 225.167 505.096 225.273 505.592 225.273C505.914 225.273 506.208 225.227 506.473 225.136C506.738 225.042 506.967 224.902 507.161 224.716C507.354 224.53 507.501 224.301 507.604 224.028L509.212 224.318C509.083 224.792 508.852 225.206 508.518 225.562C508.189 225.915 507.774 226.189 507.274 226.386C506.778 226.58 506.212 226.676 505.575 226.676ZM512.903 214.864V226.5H511.205V214.864H512.903Z" fill="#455A64"/>
<path d="M446.261 188.5H444.398L448.585 176.864H450.614L454.801 188.5H452.938L449.648 178.977H449.557L446.261 188.5ZM446.574 183.943H452.619V185.42H446.574V183.943ZM465.599 180.648H463.827C463.759 180.269 463.632 179.936 463.446 179.648C463.26 179.36 463.033 179.116 462.764 178.915C462.495 178.714 462.194 178.562 461.861 178.46C461.531 178.358 461.181 178.307 460.81 178.307C460.139 178.307 459.539 178.475 459.009 178.812C458.482 179.15 458.065 179.644 457.759 180.295C457.455 180.947 457.304 181.742 457.304 182.682C457.304 183.629 457.455 184.428 457.759 185.08C458.065 185.731 458.484 186.223 459.014 186.557C459.545 186.89 460.141 187.057 460.804 187.057C461.171 187.057 461.52 187.008 461.849 186.909C462.183 186.807 462.484 186.657 462.753 186.46C463.022 186.263 463.249 186.023 463.435 185.739C463.624 185.451 463.755 185.121 463.827 184.75L465.599 184.756C465.505 185.328 465.321 185.854 465.048 186.335C464.779 186.812 464.433 187.225 464.009 187.574C463.588 187.919 463.107 188.186 462.565 188.375C462.024 188.564 461.433 188.659 460.793 188.659C459.785 188.659 458.887 188.42 458.099 187.943C457.312 187.462 456.69 186.775 456.236 185.881C455.785 184.987 455.56 183.92 455.56 182.682C455.56 181.439 455.787 180.373 456.241 179.483C456.696 178.589 457.317 177.903 458.105 177.426C458.893 176.945 459.789 176.705 460.793 176.705C461.41 176.705 461.986 176.794 462.52 176.972C463.058 177.146 463.541 177.403 463.969 177.744C464.397 178.081 464.751 178.494 465.031 178.983C465.312 179.468 465.501 180.023 465.599 180.648ZM467.7 188.5V176.864H474.916V178.375H469.456V181.92H474.399V183.426H469.456V188.5H467.7Z" fill="#455A64"/>
<path d="M438.045 154.5H434.278V142.864H438.165C439.305 142.864 440.284 143.097 441.102 143.562C441.92 144.025 442.547 144.689 442.983 145.557C443.422 146.42 443.642 147.456 443.642 148.665C443.642 149.877 443.42 150.919 442.977 151.79C442.538 152.661 441.902 153.331 441.068 153.801C440.235 154.267 439.227 154.5 438.045 154.5ZM436.034 152.966H437.949C438.835 152.966 439.572 152.799 440.159 152.466C440.746 152.129 441.186 151.642 441.477 151.006C441.769 150.366 441.915 149.585 441.915 148.665C441.915 147.752 441.769 146.977 441.477 146.341C441.189 145.705 440.759 145.222 440.188 144.892C439.616 144.562 438.905 144.398 438.057 144.398H436.034V152.966ZM445.689 154.5V145.773H447.331V147.159H447.422C447.581 146.689 447.861 146.32 448.263 146.051C448.668 145.778 449.126 145.642 449.638 145.642C449.744 145.642 449.869 145.646 450.013 145.653C450.161 145.661 450.276 145.67 450.359 145.682V147.307C450.291 147.288 450.17 147.267 449.996 147.244C449.821 147.218 449.647 147.205 449.473 147.205C449.071 147.205 448.714 147.29 448.399 147.46C448.089 147.627 447.842 147.86 447.661 148.159C447.479 148.455 447.388 148.792 447.388 149.17V154.5H445.689ZM451.83 154.5V145.773H453.528V154.5H451.83ZM452.688 144.426C452.392 144.426 452.138 144.328 451.926 144.131C451.718 143.93 451.614 143.691 451.614 143.415C451.614 143.134 451.718 142.896 451.926 142.699C452.138 142.498 452.392 142.398 452.688 142.398C452.983 142.398 453.235 142.498 453.443 142.699C453.655 142.896 453.761 143.134 453.761 143.415C453.761 143.691 453.655 143.93 453.443 144.131C453.235 144.328 452.983 144.426 452.688 144.426ZM463.28 145.773L460.115 154.5H458.297L455.126 145.773H456.95L459.161 152.489H459.251L461.456 145.773H463.28ZM468.341 154.676C467.481 154.676 466.741 154.492 466.119 154.125C465.502 153.754 465.025 153.233 464.688 152.562C464.354 151.888 464.188 151.098 464.188 150.193C464.188 149.299 464.354 148.511 464.688 147.83C465.025 147.148 465.494 146.616 466.097 146.233C466.703 145.85 467.411 145.659 468.222 145.659C468.714 145.659 469.191 145.741 469.653 145.903C470.116 146.066 470.53 146.322 470.898 146.67C471.265 147.019 471.555 147.472 471.767 148.028C471.979 148.581 472.085 149.254 472.085 150.045V150.648H465.148V149.375H470.42C470.42 148.928 470.33 148.532 470.148 148.188C469.966 147.839 469.71 147.564 469.381 147.364C469.055 147.163 468.672 147.062 468.233 147.062C467.756 147.062 467.339 147.18 466.983 147.415C466.631 147.646 466.358 147.949 466.165 148.324C465.975 148.695 465.881 149.098 465.881 149.534V150.528C465.881 151.112 465.983 151.608 466.188 152.017C466.396 152.426 466.686 152.739 467.057 152.955C467.428 153.167 467.862 153.273 468.358 153.273C468.68 153.273 468.973 153.227 469.239 153.136C469.504 153.042 469.733 152.902 469.926 152.716C470.119 152.53 470.267 152.301 470.369 152.028L471.977 152.318C471.848 152.792 471.617 153.206 471.284 153.562C470.955 153.915 470.54 154.189 470.04 154.386C469.544 154.58 468.977 154.676 468.341 154.676ZM480.097 142.864V154.5H478.341V142.864H480.097ZM492.318 146.648H490.545C490.477 146.269 490.35 145.936 490.165 145.648C489.979 145.36 489.752 145.116 489.483 144.915C489.214 144.714 488.913 144.562 488.58 144.46C488.25 144.358 487.9 144.307 487.528 144.307C486.858 144.307 486.258 144.475 485.727 144.812C485.201 145.15 484.784 145.644 484.477 146.295C484.174 146.947 484.023 147.742 484.023 148.682C484.023 149.629 484.174 150.428 484.477 151.08C484.784 151.731 485.203 152.223 485.733 152.557C486.263 152.89 486.86 153.057 487.523 153.057C487.89 153.057 488.239 153.008 488.568 152.909C488.902 152.807 489.203 152.657 489.472 152.46C489.741 152.263 489.968 152.023 490.153 151.739C490.343 151.451 490.473 151.121 490.545 150.75L492.318 150.756C492.223 151.328 492.04 151.854 491.767 152.335C491.498 152.812 491.152 153.225 490.727 153.574C490.307 153.919 489.826 154.186 489.284 154.375C488.742 154.564 488.152 154.659 487.511 154.659C486.504 154.659 485.606 154.42 484.818 153.943C484.03 153.462 483.409 152.775 482.955 151.881C482.504 150.987 482.278 149.92 482.278 148.682C482.278 147.439 482.506 146.373 482.96 145.483C483.415 144.589 484.036 143.903 484.824 143.426C485.612 142.945 486.508 142.705 487.511 142.705C488.129 142.705 488.705 142.794 489.239 142.972C489.777 143.146 490.259 143.403 490.688 143.744C491.116 144.081 491.47 144.494 491.75 144.983C492.03 145.468 492.22 146.023 492.318 146.648ZM502.193 154.676C501.348 154.676 500.621 154.485 500.011 154.102C499.405 153.716 498.939 153.184 498.614 152.506C498.288 151.828 498.125 151.051 498.125 150.176C498.125 149.29 498.292 148.508 498.625 147.83C498.958 147.148 499.428 146.616 500.034 146.233C500.64 145.85 501.354 145.659 502.176 145.659C502.839 145.659 503.43 145.782 503.949 146.028C504.468 146.271 504.886 146.612 505.205 147.051C505.527 147.491 505.718 148.004 505.778 148.591H504.125C504.034 148.182 503.826 147.83 503.5 147.534C503.178 147.239 502.746 147.091 502.205 147.091C501.731 147.091 501.316 147.216 500.96 147.466C500.608 147.712 500.333 148.064 500.136 148.523C499.939 148.977 499.841 149.515 499.841 150.136C499.841 150.773 499.938 151.322 500.131 151.784C500.324 152.246 500.597 152.604 500.949 152.858C501.305 153.112 501.723 153.239 502.205 153.239C502.527 153.239 502.818 153.18 503.08 153.062C503.345 152.941 503.566 152.769 503.744 152.545C503.926 152.322 504.053 152.053 504.125 151.739H505.778C505.718 152.303 505.534 152.807 505.227 153.25C504.92 153.693 504.509 154.042 503.994 154.295C503.483 154.549 502.883 154.676 502.193 154.676ZM509.294 149.318V154.5H507.595V142.864H509.271V147.193H509.379C509.584 146.723 509.896 146.35 510.317 146.074C510.737 145.797 511.286 145.659 511.964 145.659C512.563 145.659 513.086 145.782 513.533 146.028C513.983 146.275 514.332 146.642 514.578 147.131C514.828 147.616 514.953 148.222 514.953 148.949V154.5H513.254V149.153C513.254 148.513 513.089 148.017 512.76 147.665C512.43 147.309 511.972 147.131 511.385 147.131C510.983 147.131 510.624 147.216 510.305 147.386C509.991 147.557 509.743 147.807 509.561 148.136C509.383 148.462 509.294 148.856 509.294 149.318ZM517.22 154.5V145.773H518.919V154.5H517.22ZM518.078 144.426C517.783 144.426 517.529 144.328 517.317 144.131C517.108 143.93 517.004 143.691 517.004 143.415C517.004 143.134 517.108 142.896 517.317 142.699C517.529 142.498 517.783 142.398 518.078 142.398C518.374 142.398 518.625 142.498 518.834 142.699C519.046 142.896 519.152 143.134 519.152 143.415C519.152 143.691 519.046 143.93 518.834 144.131C518.625 144.328 518.374 144.426 518.078 144.426ZM521.205 157.773V145.773H522.864V147.188H523.006C523.104 147.006 523.246 146.795 523.432 146.557C523.617 146.318 523.875 146.11 524.205 145.932C524.534 145.75 524.97 145.659 525.511 145.659C526.216 145.659 526.845 145.837 527.398 146.193C527.951 146.549 528.384 147.062 528.699 147.733C529.017 148.403 529.176 149.21 529.176 150.153C529.176 151.097 529.019 151.905 528.705 152.58C528.39 153.25 527.958 153.767 527.409 154.131C526.86 154.491 526.233 154.67 525.528 154.67C524.998 154.67 524.564 154.581 524.227 154.403C523.894 154.225 523.633 154.017 523.443 153.778C523.254 153.54 523.108 153.328 523.006 153.142H522.903V157.773H521.205ZM522.869 150.136C522.869 150.75 522.958 151.288 523.136 151.75C523.314 152.212 523.572 152.574 523.909 152.835C524.246 153.093 524.659 153.222 525.148 153.222C525.655 153.222 526.08 153.087 526.42 152.818C526.761 152.545 527.019 152.176 527.193 151.71C527.371 151.244 527.46 150.72 527.46 150.136C527.46 149.561 527.373 149.044 527.199 148.585C527.028 148.127 526.771 147.765 526.426 147.5C526.085 147.235 525.659 147.102 525.148 147.102C524.655 147.102 524.239 147.229 523.898 147.483C523.561 147.737 523.305 148.091 523.131 148.545C522.956 149 522.869 149.53 522.869 150.136Z" fill="#455A64"/>
<path d="M1.27841 237.5V225.864H8.49432V227.375H3.03409V230.92H7.97727V232.426H3.03409V237.5H1.27841ZM12.2159 225.864V237.5H10.517V225.864H12.2159ZM18.2628 237.676C17.4029 237.676 16.6624 237.492 16.0412 237.125C15.4238 236.754 14.9465 236.233 14.6094 235.562C14.276 234.888 14.1094 234.098 14.1094 233.193C14.1094 232.299 14.276 231.511 14.6094 230.83C14.9465 230.148 15.4162 229.616 16.0185 229.233C16.6245 228.85 17.3329 228.659 18.1435 228.659C18.6359 228.659 19.1132 228.741 19.5753 228.903C20.0374 229.066 20.4522 229.322 20.8196 229.67C21.187 230.019 21.4768 230.472 21.6889 231.028C21.901 231.581 22.0071 232.254 22.0071 233.045V233.648H15.0696V232.375H20.3423C20.3423 231.928 20.2514 231.532 20.0696 231.188C19.8878 230.839 19.6321 230.564 19.3026 230.364C18.9768 230.163 18.5942 230.062 18.1548 230.062C17.6776 230.062 17.2609 230.18 16.9048 230.415C16.5526 230.646 16.2798 230.949 16.0866 231.324C15.8973 231.695 15.8026 232.098 15.8026 232.534V233.528C15.8026 234.112 15.9048 234.608 16.1094 235.017C16.3177 235.426 16.6075 235.739 16.9787 235.955C17.3499 236.167 17.7836 236.273 18.2798 236.273C18.6018 236.273 18.8954 236.227 19.1605 236.136C19.4257 236.042 19.6548 235.902 19.848 235.716C20.0412 235.53 20.1889 235.301 20.2912 235.028L21.8991 235.318C21.7704 235.792 21.5393 236.206 21.206 236.562C20.8764 236.915 20.4616 237.189 19.9616 237.386C19.4654 237.58 18.8991 237.676 18.2628 237.676ZM25.0298 228.773L26.956 232.17L28.8991 228.773H30.7571L28.0355 233.136L30.7798 237.5H28.9219L26.956 234.239L24.9957 237.5H23.1321L25.848 233.136L23.1662 228.773H25.0298ZM32.5014 237.5V228.773H34.2003V237.5H32.5014ZM33.3594 227.426C33.0639 227.426 32.8101 227.328 32.598 227.131C32.3897 226.93 32.2855 226.691 32.2855 226.415C32.2855 226.134 32.3897 225.896 32.598 225.699C32.8101 225.498 33.0639 225.398 33.3594 225.398C33.6548 225.398 33.9067 225.498 34.1151 225.699C34.3272 225.896 34.4332 226.134 34.4332 226.415C34.4332 226.691 34.3272 226.93 34.1151 227.131C33.9067 227.328 33.6548 227.426 33.3594 227.426ZM36.6222 237.5V225.864H38.321V230.188H38.4233C38.5218 230.006 38.6638 229.795 38.8494 229.557C39.035 229.318 39.2926 229.11 39.6222 228.932C39.9517 228.75 40.3873 228.659 40.929 228.659C41.6335 228.659 42.2623 228.837 42.8153 229.193C43.3684 229.549 43.8021 230.062 44.1165 230.733C44.4347 231.403 44.5938 232.21 44.5938 233.153C44.5938 234.097 44.4366 234.905 44.1222 235.58C43.8078 236.25 43.3759 236.767 42.8267 237.131C42.2775 237.491 41.6506 237.67 40.946 237.67C40.4157 237.67 39.982 237.581 39.6449 237.403C39.3116 237.225 39.0502 237.017 38.8608 236.778C38.6714 236.54 38.5256 236.328 38.4233 236.142H38.2812V237.5H36.6222ZM38.2869 233.136C38.2869 233.75 38.3759 234.288 38.554 234.75C38.732 235.212 38.9896 235.574 39.3267 235.835C39.6638 236.093 40.0767 236.222 40.5653 236.222C41.0729 236.222 41.4972 236.087 41.8381 235.818C42.179 235.545 42.4366 235.176 42.6108 234.71C42.7888 234.244 42.8778 233.72 42.8778 233.136C42.8778 232.561 42.7907 232.044 42.6165 231.585C42.446 231.127 42.1884 230.765 41.8438 230.5C41.5028 230.235 41.0767 230.102 40.5653 230.102C40.0729 230.102 39.6562 230.229 39.3153 230.483C38.9782 230.737 38.7225 231.091 38.5483 231.545C38.3741 232 38.2869 232.53 38.2869 233.136ZM48.2003 225.864V237.5H46.5014V225.864H48.2003ZM54.2472 237.676C53.3873 237.676 52.6468 237.492 52.0256 237.125C51.4081 236.754 50.9309 236.233 50.5938 235.562C50.2604 234.888 50.0938 234.098 50.0938 233.193C50.0938 232.299 50.2604 231.511 50.5938 230.83C50.9309 230.148 51.4006 229.616 52.0028 229.233C52.6089 228.85 53.3172 228.659 54.1278 228.659C54.6203 228.659 55.0975 228.741 55.5597 228.903C56.0218 229.066 56.4366 229.322 56.804 229.67C57.1714 230.019 57.4612 230.472 57.6733 231.028C57.8854 231.581 57.9915 232.254 57.9915 233.045V233.648H51.054V232.375H56.3267C56.3267 231.928 56.2358 231.532 56.054 231.188C55.8722 230.839 55.6165 230.564 55.2869 230.364C54.9612 230.163 54.5786 230.062 54.1392 230.062C53.6619 230.062 53.2453 230.18 52.8892 230.415C52.5369 230.646 52.2642 230.949 52.071 231.324C51.8816 231.695 51.7869 232.098 51.7869 232.534V233.528C51.7869 234.112 51.8892 234.608 52.0938 235.017C52.3021 235.426 52.5919 235.739 52.9631 235.955C53.3343 236.167 53.768 236.273 54.2642 236.273C54.5862 236.273 54.8797 236.227 55.1449 236.136C55.41 236.042 55.6392 235.902 55.8324 235.716C56.0256 235.53 56.1733 235.301 56.2756 235.028L57.8835 235.318C57.7547 235.792 57.5237 236.206 57.1903 236.562C56.8608 236.915 56.446 237.189 55.946 237.386C55.4498 237.58 54.8835 237.676 54.2472 237.676ZM70.6506 230.903L69.1108 231.176C69.0464 230.979 68.9441 230.792 68.804 230.614C68.6676 230.436 68.482 230.29 68.2472 230.176C68.0123 230.062 67.7188 230.006 67.3665 230.006C66.8854 230.006 66.4839 230.114 66.1619 230.33C65.84 230.542 65.679 230.816 65.679 231.153C65.679 231.445 65.7869 231.68 66.0028 231.858C66.2188 232.036 66.5672 232.182 67.0483 232.295L68.4347 232.614C69.2377 232.799 69.8362 233.085 70.2301 233.472C70.6241 233.858 70.821 234.36 70.821 234.977C70.821 235.5 70.6695 235.966 70.3665 236.375C70.0672 236.78 69.6487 237.098 69.1108 237.33C68.5767 237.561 67.9574 237.676 67.2528 237.676C66.2756 237.676 65.4782 237.468 64.8608 237.051C64.2434 236.631 63.8646 236.034 63.7244 235.261L65.3665 235.011C65.4688 235.439 65.679 235.763 65.9972 235.983C66.3153 236.199 66.7301 236.307 67.2415 236.307C67.7983 236.307 68.2434 236.191 68.5767 235.96C68.91 235.725 69.0767 235.439 69.0767 235.102C69.0767 234.83 68.9744 234.6 68.7699 234.415C68.5691 234.229 68.2604 234.089 67.8438 233.994L66.3665 233.67C65.5521 233.485 64.9498 233.189 64.5597 232.784C64.1733 232.379 63.9801 231.866 63.9801 231.244C63.9801 230.729 64.1241 230.278 64.4119 229.892C64.6998 229.506 65.0975 229.205 65.6051 228.989C66.1127 228.769 66.6941 228.659 67.3494 228.659C68.2926 228.659 69.035 228.864 69.5767 229.273C70.1184 229.678 70.4763 230.222 70.6506 230.903ZM78.2173 233.881V228.773H79.9219V237.5H78.2514V235.989H78.1605C77.9598 236.455 77.6378 236.843 77.1946 237.153C76.7552 237.46 76.2079 237.614 75.5526 237.614C74.992 237.614 74.4957 237.491 74.0639 237.244C73.6359 236.994 73.2988 236.625 73.0526 236.136C72.8101 235.648 72.6889 235.044 72.6889 234.324V228.773H74.3878V234.119C74.3878 234.714 74.5526 235.187 74.8821 235.54C75.2116 235.892 75.6397 236.068 76.1662 236.068C76.4844 236.068 76.8007 235.989 77.1151 235.83C77.4332 235.67 77.6965 235.43 77.9048 235.108C78.117 234.786 78.2211 234.377 78.2173 233.881ZM82.3409 237.5V225.864H84.0398V230.188H84.142C84.2405 230.006 84.3826 229.795 84.5682 229.557C84.7538 229.318 85.0114 229.11 85.3409 228.932C85.6705 228.75 86.1061 228.659 86.6477 228.659C87.3523 228.659 87.9811 228.837 88.5341 229.193C89.0871 229.549 89.5208 230.062 89.8352 230.733C90.1534 231.403 90.3125 232.21 90.3125 233.153C90.3125 234.097 90.1553 234.905 89.8409 235.58C89.5265 236.25 89.0947 236.767 88.5455 237.131C87.9962 237.491 87.3693 237.67 86.6648 237.67C86.1345 237.67 85.7008 237.581 85.3636 237.403C85.0303 237.225 84.7689 237.017 84.5795 236.778C84.3902 236.54 84.2443 236.328 84.142 236.142H84V237.5H82.3409ZM84.0057 233.136C84.0057 233.75 84.0947 234.288 84.2727 234.75C84.4508 235.212 84.7083 235.574 85.0455 235.835C85.3826 236.093 85.7955 236.222 86.2841 236.222C86.7917 236.222 87.2159 236.087 87.5568 235.818C87.8977 235.545 88.1553 235.176 88.3295 234.71C88.5076 234.244 88.5966 233.72 88.5966 233.136C88.5966 232.561 88.5095 232.044 88.3352 231.585C88.1648 231.127 87.9072 230.765 87.5625 230.5C87.2216 230.235 86.7955 230.102 86.2841 230.102C85.7917 230.102 85.375 230.229 85.0341 230.483C84.697 230.737 84.4413 231.091 84.267 231.545C84.0928 232 84.0057 232.53 84.0057 233.136ZM98.7599 230.903L97.2202 231.176C97.1558 230.979 97.0535 230.792 96.9134 230.614C96.777 230.436 96.5914 230.29 96.3565 230.176C96.1217 230.062 95.8281 230.006 95.4759 230.006C94.9948 230.006 94.5933 230.114 94.2713 230.33C93.9493 230.542 93.7884 230.816 93.7884 231.153C93.7884 231.445 93.8963 231.68 94.1122 231.858C94.3281 232.036 94.6766 232.182 95.1577 232.295L96.544 232.614C97.3471 232.799 97.9455 233.085 98.3395 233.472C98.7334 233.858 98.9304 234.36 98.9304 234.977C98.9304 235.5 98.7789 235.966 98.4759 236.375C98.1766 236.78 97.758 237.098 97.2202 237.33C96.6861 237.561 96.0668 237.676 95.3622 237.676C94.3849 237.676 93.5876 237.468 92.9702 237.051C92.3527 236.631 91.974 236.034 91.8338 235.261L93.4759 235.011C93.5781 235.439 93.7884 235.763 94.1065 235.983C94.4247 236.199 94.8395 236.307 95.3509 236.307C95.9077 236.307 96.3527 236.191 96.6861 235.96C97.0194 235.725 97.1861 235.439 97.1861 235.102C97.1861 234.83 97.0838 234.6 96.8793 234.415C96.6785 234.229 96.3698 234.089 95.9531 233.994L94.4759 233.67C93.6615 233.485 93.0592 233.189 92.669 232.784C92.2827 232.379 92.0895 231.866 92.0895 231.244C92.0895 230.729 92.2334 230.278 92.5213 229.892C92.8092 229.506 93.2069 229.205 93.7145 228.989C94.2221 228.769 94.8035 228.659 95.4588 228.659C96.402 228.659 97.1444 228.864 97.6861 229.273C98.2277 229.678 98.5857 230.222 98.7599 230.903ZM104.872 228.773V230.136H100.105V228.773H104.872ZM101.384 226.682H103.082V234.938C103.082 235.267 103.132 235.515 103.23 235.682C103.329 235.845 103.455 235.956 103.611 236.017C103.77 236.074 103.942 236.102 104.128 236.102C104.264 236.102 104.384 236.093 104.486 236.074C104.588 236.055 104.668 236.04 104.724 236.028L105.031 237.432C104.933 237.47 104.793 237.508 104.611 237.545C104.429 237.587 104.202 237.61 103.929 237.614C103.482 237.621 103.065 237.542 102.679 237.375C102.293 237.208 101.98 236.951 101.741 236.602C101.503 236.254 101.384 235.816 101.384 235.29V226.682ZM106.751 237.5V228.773H108.393V230.159H108.484C108.643 229.689 108.924 229.32 109.325 229.051C109.731 228.778 110.189 228.642 110.7 228.642C110.806 228.642 110.931 228.646 111.075 228.653C111.223 228.661 111.339 228.67 111.422 228.682V230.307C111.354 230.288 111.232 230.267 111.058 230.244C110.884 230.218 110.71 230.205 110.536 230.205C110.134 230.205 109.776 230.29 109.462 230.46C109.151 230.627 108.905 230.86 108.723 231.159C108.541 231.455 108.45 231.792 108.45 232.17V237.5H106.751ZM115.354 237.693C114.801 237.693 114.301 237.591 113.854 237.386C113.407 237.178 113.053 236.877 112.791 236.483C112.534 236.089 112.405 235.606 112.405 235.034C112.405 234.542 112.5 234.136 112.689 233.818C112.878 233.5 113.134 233.248 113.456 233.062C113.778 232.877 114.138 232.737 114.536 232.642C114.933 232.547 115.339 232.475 115.751 232.426C116.274 232.366 116.698 232.316 117.024 232.278C117.35 232.237 117.587 232.17 117.734 232.08C117.882 231.989 117.956 231.841 117.956 231.636V231.597C117.956 231.1 117.816 230.716 117.536 230.443C117.259 230.17 116.846 230.034 116.297 230.034C115.725 230.034 115.274 230.161 114.945 230.415C114.619 230.665 114.393 230.943 114.268 231.25L112.672 230.886C112.861 230.356 113.138 229.928 113.501 229.602C113.869 229.273 114.291 229.034 114.768 228.886C115.246 228.735 115.748 228.659 116.274 228.659C116.623 228.659 116.992 228.701 117.382 228.784C117.776 228.864 118.143 229.011 118.484 229.227C118.829 229.443 119.111 229.752 119.331 230.153C119.551 230.551 119.661 231.068 119.661 231.705V237.5H118.001V236.307H117.933C117.823 236.527 117.659 236.742 117.439 236.955C117.219 237.167 116.937 237.343 116.592 237.483C116.248 237.623 115.835 237.693 115.354 237.693ZM115.723 236.33C116.193 236.33 116.594 236.237 116.928 236.051C117.265 235.866 117.52 235.623 117.695 235.324C117.873 235.021 117.962 234.697 117.962 234.352V233.227C117.901 233.288 117.784 233.345 117.609 233.398C117.439 233.447 117.244 233.491 117.024 233.528C116.804 233.562 116.59 233.595 116.382 233.625C116.174 233.652 116 233.674 115.859 233.693C115.53 233.735 115.229 233.805 114.956 233.903C114.687 234.002 114.471 234.144 114.308 234.33C114.149 234.511 114.07 234.754 114.07 235.057C114.07 235.477 114.225 235.795 114.536 236.011C114.846 236.223 115.242 236.33 115.723 236.33ZM125.997 228.773V230.136H121.23V228.773H125.997ZM122.509 226.682H124.207V234.938C124.207 235.267 124.257 235.515 124.355 235.682C124.454 235.845 124.58 235.956 124.736 236.017C124.895 236.074 125.067 236.102 125.253 236.102C125.389 236.102 125.509 236.093 125.611 236.074C125.713 236.055 125.793 236.04 125.849 236.028L126.156 237.432C126.058 237.47 125.918 237.508 125.736 237.545C125.554 237.587 125.327 237.61 125.054 237.614C124.607 237.621 124.19 237.542 123.804 237.375C123.418 237.208 123.105 236.951 122.866 236.602C122.628 236.254 122.509 235.816 122.509 235.29V226.682ZM131.544 237.676C130.684 237.676 129.944 237.492 129.322 237.125C128.705 236.754 128.228 236.233 127.891 235.562C127.557 234.888 127.391 234.098 127.391 233.193C127.391 232.299 127.557 231.511 127.891 230.83C128.228 230.148 128.697 229.616 129.3 229.233C129.906 228.85 130.614 228.659 131.425 228.659C131.917 228.659 132.394 228.741 132.857 228.903C133.319 229.066 133.733 229.322 134.101 229.67C134.468 230.019 134.758 230.472 134.97 231.028C135.182 231.581 135.288 232.254 135.288 233.045V233.648H128.351V232.375H133.624C133.624 231.928 133.533 231.532 133.351 231.188C133.169 230.839 132.913 230.564 132.584 230.364C132.258 230.163 131.875 230.062 131.436 230.062C130.959 230.062 130.542 230.18 130.186 230.415C129.834 230.646 129.561 230.949 129.368 231.324C129.179 231.695 129.084 232.098 129.084 232.534V233.528C129.084 234.112 129.186 234.608 129.391 235.017C129.599 235.426 129.889 235.739 130.26 235.955C130.631 236.167 131.065 236.273 131.561 236.273C131.883 236.273 132.177 236.227 132.442 236.136C132.707 236.042 132.936 235.902 133.129 235.716C133.322 235.53 133.47 235.301 133.572 235.028L135.18 235.318C135.052 235.792 134.821 236.206 134.487 236.562C134.158 236.915 133.743 237.189 133.243 237.386C132.747 237.58 132.18 237.676 131.544 237.676Z" fill="#455A64"/>
<g filter="url(#filter0_d_837_966)">
<line x1="275.431" y1="186.009" x2="208.5" y2="147.366" stroke="#10BAD1" stroke-width="2"/>
</g>
<g filter="url(#filter1_d_837_966)">
<line x1="408.98" y1="86.5129" x2="488.591" y2="132.476" stroke="#D2E5F3" stroke-width="2"/>
</g>
<g filter="url(#filter2_d_837_966)">
<line x1="359.97" y1="126.445" x2="441.123" y2="173.299" stroke="#4CAF4F" stroke-width="2"/>
</g>
<g filter="url(#filter3_d_837_966)">
<line x1="211.5" y1="242.679" x2="273.933" y2="206.634" stroke="#10BAD1" stroke-width="2"/>
</g>
<g filter="url(#filter4_d_837_966)">
<rect x="241" y="182.5" width="61" height="33" rx="10" fill="white"/>
</g>
<path d="M255.278 205.5V193.864H262.494V195.375H257.034V198.92H261.977V200.426H257.034V205.5H255.278ZM274.761 199.682C274.761 200.924 274.534 201.992 274.08 202.886C273.625 203.777 273.002 204.462 272.21 204.943C271.422 205.42 270.527 205.659 269.523 205.659C268.515 205.659 267.616 205.42 266.824 204.943C266.036 204.462 265.415 203.775 264.96 202.881C264.506 201.987 264.278 200.92 264.278 199.682C264.278 198.439 264.506 197.373 264.96 196.483C265.415 195.589 266.036 194.903 266.824 194.426C267.616 193.945 268.515 193.705 269.523 193.705C270.527 193.705 271.422 193.945 272.21 194.426C273.002 194.903 273.625 195.589 274.08 196.483C274.534 197.373 274.761 198.439 274.761 199.682ZM273.023 199.682C273.023 198.735 272.869 197.937 272.562 197.29C272.259 196.638 271.843 196.146 271.312 195.812C270.786 195.475 270.189 195.307 269.523 195.307C268.852 195.307 268.254 195.475 267.727 195.812C267.201 196.146 266.784 196.638 266.477 197.29C266.174 197.937 266.023 198.735 266.023 199.682C266.023 200.629 266.174 201.428 266.477 202.08C266.784 202.727 267.201 203.22 267.727 203.557C268.254 203.89 268.852 204.057 269.523 204.057C270.189 204.057 270.786 203.89 271.312 203.557C271.843 203.22 272.259 202.727 272.562 202.08C272.869 201.428 273.023 200.629 273.023 199.682ZM284.825 197.54C284.715 197.195 284.568 196.886 284.382 196.614C284.2 196.337 283.982 196.102 283.729 195.909C283.475 195.712 283.185 195.562 282.859 195.46C282.537 195.358 282.183 195.307 281.797 195.307C281.142 195.307 280.551 195.475 280.024 195.812C279.498 196.15 279.081 196.644 278.774 197.295C278.471 197.943 278.32 198.737 278.32 199.676C278.32 200.619 278.473 201.417 278.78 202.068C279.087 202.72 279.507 203.214 280.041 203.551C280.575 203.888 281.183 204.057 281.865 204.057C282.498 204.057 283.049 203.928 283.518 203.67C283.992 203.413 284.357 203.049 284.615 202.58C284.876 202.106 285.007 201.549 285.007 200.909L285.462 200.994H282.132V199.545H286.706V200.869C286.706 201.847 286.498 202.695 286.081 203.415C285.668 204.131 285.096 204.684 284.365 205.074C283.638 205.464 282.804 205.659 281.865 205.659C280.812 205.659 279.888 205.417 279.092 204.932C278.301 204.447 277.683 203.759 277.24 202.869C276.797 201.975 276.575 200.915 276.575 199.688C276.575 198.759 276.704 197.926 276.962 197.188C277.219 196.449 277.581 195.822 278.047 195.307C278.517 194.788 279.068 194.392 279.7 194.119C280.337 193.843 281.032 193.705 281.786 193.705C282.414 193.705 283 193.797 283.541 193.983C284.087 194.169 284.571 194.432 284.996 194.773C285.424 195.114 285.778 195.519 286.058 195.989C286.339 196.455 286.528 196.972 286.626 197.54H284.825Z" fill="#455A64"/>
<g opacity="0.5" filter="url(#filter5_d_837_966)">
<line x1="382.248" y1="186.798" x2="277.904" y2="126.386" stroke="#A8D0EE" stroke-width="3"/>
</g>
<g filter="url(#filter6_d_837_966)">
<line x1="352.64" y1="246.746" x2="446.904" y2="192.322" stroke="#4CAF4F" stroke-width="2"/>
</g>
<g filter="url(#filter7_d_837_966)">
<line x1="299.548" y1="239.734" x2="371.744" y2="198.051" stroke="#D2E5F3" stroke-width="2"/>
</g>
<g filter="url(#filter8_d_837_966)">
<rect x="333" y="182.5" width="61" height="33" rx="10" fill="white"/>
</g>
<path d="M356.943 197.648H355.17C355.102 197.269 354.975 196.936 354.79 196.648C354.604 196.36 354.377 196.116 354.108 195.915C353.839 195.714 353.538 195.562 353.205 195.46C352.875 195.358 352.525 195.307 352.153 195.307C351.483 195.307 350.883 195.475 350.352 195.812C349.826 196.15 349.409 196.644 349.102 197.295C348.799 197.947 348.648 198.742 348.648 199.682C348.648 200.629 348.799 201.428 349.102 202.08C349.409 202.731 349.828 203.223 350.358 203.557C350.888 203.89 351.485 204.057 352.148 204.057C352.515 204.057 352.864 204.008 353.193 203.909C353.527 203.807 353.828 203.657 354.097 203.46C354.366 203.263 354.593 203.023 354.778 202.739C354.968 202.451 355.098 202.121 355.17 201.75L356.943 201.756C356.848 202.328 356.665 202.854 356.392 203.335C356.123 203.812 355.777 204.225 355.352 204.574C354.932 204.919 354.451 205.186 353.909 205.375C353.367 205.564 352.777 205.659 352.136 205.659C351.129 205.659 350.231 205.42 349.443 204.943C348.655 204.462 348.034 203.775 347.58 202.881C347.129 201.987 346.903 200.92 346.903 199.682C346.903 198.439 347.131 197.373 347.585 196.483C348.04 195.589 348.661 194.903 349.449 194.426C350.237 193.945 351.133 193.705 352.136 193.705C352.754 193.705 353.33 193.794 353.864 193.972C354.402 194.146 354.884 194.403 355.312 194.744C355.741 195.081 356.095 195.494 356.375 195.983C356.655 196.468 356.845 197.023 356.943 197.648ZM369.152 199.682C369.152 200.924 368.925 201.992 368.47 202.886C368.016 203.777 367.393 204.462 366.601 204.943C365.813 205.42 364.917 205.659 363.913 205.659C362.906 205.659 362.006 205.42 361.214 204.943C360.427 204.462 359.805 203.775 359.351 202.881C358.896 201.987 358.669 200.92 358.669 199.682C358.669 198.439 358.896 197.373 359.351 196.483C359.805 195.589 360.427 194.903 361.214 194.426C362.006 193.945 362.906 193.705 363.913 193.705C364.917 193.705 365.813 193.945 366.601 194.426C367.393 194.903 368.016 195.589 368.47 196.483C368.925 197.373 369.152 198.439 369.152 199.682ZM367.413 199.682C367.413 198.735 367.26 197.937 366.953 197.29C366.65 196.638 366.233 196.146 365.703 195.812C365.177 195.475 364.58 195.307 363.913 195.307C363.243 195.307 362.644 195.475 362.118 195.812C361.591 196.146 361.175 196.638 360.868 197.29C360.565 197.937 360.413 198.735 360.413 199.682C360.413 200.629 360.565 201.428 360.868 202.08C361.175 202.727 361.591 203.22 362.118 203.557C362.644 203.89 363.243 204.057 363.913 204.057C364.58 204.057 365.177 203.89 365.703 203.557C366.233 203.22 366.65 202.727 366.953 202.08C367.26 201.428 367.413 200.629 367.413 199.682ZM379.216 197.54C379.106 197.195 378.958 196.886 378.773 196.614C378.591 196.337 378.373 196.102 378.119 195.909C377.866 195.712 377.576 195.562 377.25 195.46C376.928 195.358 376.574 195.307 376.188 195.307C375.532 195.307 374.941 195.475 374.415 195.812C373.888 196.15 373.472 196.644 373.165 197.295C372.862 197.943 372.71 198.737 372.71 199.676C372.71 200.619 372.864 201.417 373.17 202.068C373.477 202.72 373.898 203.214 374.432 203.551C374.966 203.888 375.574 204.057 376.256 204.057C376.888 204.057 377.439 203.928 377.909 203.67C378.383 203.413 378.748 203.049 379.006 202.58C379.267 202.106 379.398 201.549 379.398 200.909L379.852 200.994H376.523V199.545H381.097V200.869C381.097 201.847 380.888 202.695 380.472 203.415C380.059 204.131 379.487 204.684 378.756 205.074C378.028 205.464 377.195 205.659 376.256 205.659C375.203 205.659 374.278 205.417 373.483 204.932C372.691 204.447 372.074 203.759 371.631 202.869C371.188 201.975 370.966 200.915 370.966 199.688C370.966 198.759 371.095 197.926 371.352 197.188C371.61 196.449 371.972 195.822 372.438 195.307C372.907 194.788 373.458 194.392 374.091 194.119C374.727 193.843 375.422 193.705 376.176 193.705C376.805 193.705 377.39 193.797 377.932 193.983C378.477 194.169 378.962 194.432 379.386 194.773C379.814 195.114 380.169 195.519 380.449 195.989C380.729 196.455 380.919 196.972 381.017 197.54H379.216Z" fill="#455A64"/>
<defs>
<filter id="filter0_d_837_966" x="204" y="146.5" width="75.9312" height="48.3747" filterUnits="userSpaceOnUse" color-interpolation-filters="sRGB">
<feFlood flood-opacity="0" result="BackgroundImageFix"/>
<feColorMatrix in="SourceAlpha" type="matrix" values="0 0 0 0 0 0 0 0 0 0 0 0 0 0 0 0 0 0 127 0" result="hardAlpha"/>
<feOffset dy="4"/>
<feGaussianBlur stdDeviation="2"/>
<feComposite in2="hardAlpha" operator="out"/>
<feColorMatrix type="matrix" values="0 0 0 0 0 0 0 0 0 0 0 0 0 0 0 0 0 0 0.45 0"/>
<feBlend mode="normal" in2="BackgroundImageFix" result="effect1_dropShadow_837_966"/>
<feBlend mode="normal" in="SourceGraphic" in2="effect1_dropShadow_837_966" result="shape"/>
</filter>
<filter id="filter1_d_837_966" x="404.48" y="85.6469" width="88.6108" height="55.6955" filterUnits="userSpaceOnUse" color-interpolation-filters="sRGB">
<feFlood flood-opacity="0" result="BackgroundImageFix"/>
<feColorMatrix in="SourceAlpha" type="matrix" values="0 0 0 0 0 0 0 0 0 0 0 0 0 0 0 0 0 0 127 0" result="hardAlpha"/>
<feOffset dy="4"/>
<feGaussianBlur stdDeviation="2"/>
<feComposite in2="hardAlpha" operator="out"/>
<feColorMatrix type="matrix" values="0 0 0 0 0 0 0 0 0 0 0 0 0 0 0 0 0 0 0.45 0"/>
<feBlend mode="normal" in2="BackgroundImageFix" result="effect1_dropShadow_837_966"/>
<feBlend mode="normal" in="SourceGraphic" in2="effect1_dropShadow_837_966" result="shape"/>
</filter>
<filter id="filter2_d_837_966" x="355.47" y="125.578" width="90.1538" height="56.5862" filterUnits="userSpaceOnUse" color-interpolation-filters="sRGB">
<feFlood flood-opacity="0" result="BackgroundImageFix"/>
<feColorMatrix in="SourceAlpha" type="matrix" values="0 0 0 0 0 0 0 0 0 0 0 0 0 0 0 0 0 0 127 0" result="hardAlpha"/>
<feOffset dy="4"/>
<feGaussianBlur stdDeviation="2"/>
<feComposite in2="hardAlpha" operator="out"/>
<feColorMatrix type="matrix" values="0 0 0 0 0 0 0 0 0 0 0 0 0 0 0 0 0 0 0.45 0"/>
<feBlend mode="normal" in2="BackgroundImageFix" result="effect1_dropShadow_837_966"/>
<feBlend mode="normal" in="SourceGraphic" in2="effect1_dropShadow_837_966" result="shape"/>
</filter>
<filter id="filter3_d_837_966" x="207" y="205.768" width="71.4326" height="45.7776" filterUnits="userSpaceOnUse" color-interpolation-filters="sRGB">
<feFlood flood-opacity="0" result="BackgroundImageFix"/>
<feColorMatrix in="SourceAlpha" type="matrix" values="0 0 0 0 0 0 0 0 0 0 0 0 0 0 0 0 0 0 127 0" result="hardAlpha"/>
<feOffset dy="4"/>
<feGaussianBlur stdDeviation="2"/>
<feComposite in2="hardAlpha" operator="out"/>
<feColorMatrix type="matrix" values="0 0 0 0 0 0 0 0 0 0 0 0 0 0 0 0 0 0 0.45 0"/>
<feBlend mode="normal" in2="BackgroundImageFix" result="effect1_dropShadow_837_966"/>
<feBlend mode="normal" in="SourceGraphic" in2="effect1_dropShadow_837_966" result="shape"/>
</filter>
<filter id="filter4_d_837_966" x="237" y="182.5" width="69" height="41" filterUnits="userSpaceOnUse" color-interpolation-filters="sRGB">
<feFlood flood-opacity="0" result="BackgroundImageFix"/>
<feColorMatrix in="SourceAlpha" type="matrix" values="0 0 0 0 0 0 0 0 0 0 0 0 0 0 0 0 0 0 127 0" result="hardAlpha"/>
<feOffset dy="4"/>
<feGaussianBlur stdDeviation="2"/>
<feComposite in2="hardAlpha" operator="out"/>
<feColorMatrix type="matrix" values="0 0 0 0 0 0 0 0 0 0 0 0 0 0 0 0 0 0 0.25 0"/>
<feBlend mode="normal" in2="BackgroundImageFix" result="effect1_dropShadow_837_966"/>
<feBlend mode="normal" in="SourceGraphic" in2="effect1_dropShadow_837_966" result="shape"/>
</filter>
<filter id="filter5_d_837_966" x="273.152" y="125.088" width="113.848" height="71.008" filterUnits="userSpaceOnUse" color-interpolation-filters="sRGB">
<feFlood flood-opacity="0" result="BackgroundImageFix"/>
<feColorMatrix in="SourceAlpha" type="matrix" values="0 0 0 0 0 0 0 0 0 0 0 0 0 0 0 0 0 0 127 0" result="hardAlpha"/>
<feOffset dy="4"/>
<feGaussianBlur stdDeviation="2"/>
<feComposite in2="hardAlpha" operator="out"/>
<feColorMatrix type="matrix" values="0 0 0 0 0 0 0 0 0 0 0 0 0 0 0 0 0 0 0.45 0"/>
<feBlend mode="normal" in2="BackgroundImageFix" result="effect1_dropShadow_837_966"/>
<feBlend mode="normal" in="SourceGraphic" in2="effect1_dropShadow_837_966" result="shape"/>
</filter>
<filter id="filter6_d_837_966" x="348.14" y="191.456" width="103.264" height="64.1555" filterUnits="userSpaceOnUse" color-interpolation-filters="sRGB">
<feFlood flood-opacity="0" result="BackgroundImageFix"/>
<feColorMatrix in="SourceAlpha" type="matrix" values="0 0 0 0 0 0 0 0 0 0 0 0 0 0 0 0 0 0 127 0" result="hardAlpha"/>
<feOffset dy="4"/>
<feGaussianBlur stdDeviation="2"/>
<feComposite in2="hardAlpha" operator="out"/>
<feColorMatrix type="matrix" values="0 0 0 0 0 0 0 0 0 0 0 0 0 0 0 0 0 0 0.45 0"/>
<feBlend mode="normal" in2="BackgroundImageFix" result="effect1_dropShadow_837_966"/>
<feBlend mode="normal" in="SourceGraphic" in2="effect1_dropShadow_837_966" result="shape"/>
</filter>
<filter id="filter7_d_837_966" x="295.048" y="197.185" width="81.1963" height="51.4145" filterUnits="userSpaceOnUse" color-interpolation-filters="sRGB">
<feFlood flood-opacity="0" result="BackgroundImageFix"/>
<feColorMatrix in="SourceAlpha" type="matrix" values="0 0 0 0 0 0 0 0 0 0 0 0 0 0 0 0 0 0 127 0" result="hardAlpha"/>
<feOffset dy="4"/>
<feGaussianBlur stdDeviation="2"/>
<feComposite in2="hardAlpha" operator="out"/>
<feColorMatrix type="matrix" values="0 0 0 0 0 0 0 0 0 0 0 0 0 0 0 0 0 0 0.45 0"/>
<feBlend mode="normal" in2="BackgroundImageFix" result="effect1_dropShadow_837_966"/>
<feBlend mode="normal" in="SourceGraphic" in2="effect1_dropShadow_837_966" result="shape"/>
</filter>
<filter id="filter8_d_837_966" x="329" y="182.5" width="69" height="41" filterUnits="userSpaceOnUse" color-interpolation-filters="sRGB">
<feFlood flood-opacity="0" result="BackgroundImageFix"/>
<feColorMatrix in="SourceAlpha" type="matrix" values="0 0 0 0 0 0 0 0 0 0 0 0 0 0 0 0 0 0 127 0" result="hardAlpha"/>
<feOffset dy="4"/>
<feGaussianBlur stdDeviation="2"/>
<feComposite in2="hardAlpha" operator="out"/>
<feColorMatrix type="matrix" values="0 0 0 0 0 0 0 0 0 0 0 0 0 0 0 0 0 0 0.25 0"/>
<feBlend mode="normal" in2="BackgroundImageFix" result="effect1_dropShadow_837_966"/>
<feBlend mode="normal" in="SourceGraphic" in2="effect1_dropShadow_837_966" result="shape"/>
</filter>
<linearGradient id="paint0_linear_837_966" x1="314.207" y1="0.5" x2="314.207" y2="172" gradientUnits="userSpaceOnUse">
<stop offset="0.473958" stop-color="#B9B9B9"/>
<stop offset="1" stop-color="#E6E6E6"/>
</linearGradient>
<linearGradient id="paint1_linear_837_966" x1="319.811" y1="0.5" x2="319.811" y2="129.172" gradientUnits="userSpaceOnUse">
<stop stop-color="#99A7B1"/>
<stop offset="0.463542" stop-color="#5D6E7A"/>
<stop offset="1" stop-color="#96A1A9"/>
</linearGradient>
<linearGradient id="paint2_linear_837_966" x1="320.426" y1="3.5" x2="320.426" y2="118.307" gradientUnits="userSpaceOnUse">
<stop stop-color="#F5F5F5"/>
<stop offset="0.520833" stop-color="#B9B9B9"/>
<stop offset="1" stop-color="#D2CFCF"/>
</linearGradient>
<linearGradient id="paint3_linear_837_966" x1="416.25" y1="272.63" x2="416.26" y2="299.203" gradientUnits="userSpaceOnUse">
<stop stop-color="#5FB280"/>
<stop offset="1" stop-color="#D2E5F3"/>
</linearGradient>
<radialGradient id="paint4_radial_837_966" cx="0" cy="0" r="1" gradientUnits="userSpaceOnUse" gradientTransform="translate(126.432 274.808) rotate(111.201) scale(3.96017 6.04783)">
<stop stop-color="#FFF5D2"/>
<stop offset="1" stop-color="#8D7932"/>
</radialGradient>
<radialGradient id="paint5_radial_837_966" cx="0" cy="0" r="1" gradientUnits="userSpaceOnUse" gradientTransform="translate(144.432 274.808) rotate(111.201) scale(3.96017 6.04783)">
<stop stop-color="#FFF5D2"/>
<stop offset="1" stop-color="#8D7932"/>
</radialGradient>
<radialGradient id="paint6_radial_837_966" cx="0" cy="0" r="1" gradientUnits="userSpaceOnUse" gradientTransform="translate(180.432 274.808) rotate(111.201) scale(3.96017 6.04783)">
<stop stop-color="#FFF5D2"/>
<stop offset="1" stop-color="#8D7932"/>
</radialGradient>
<radialGradient id="paint7_radial_837_966" cx="0" cy="0" r="1" gradientUnits="userSpaceOnUse" gradientTransform="translate(198.432 274.808) rotate(111.201) scale(3.96017 6.04783)">
<stop stop-color="#FFF5D2"/>
<stop offset="1" stop-color="#8D7932"/>
</radialGradient>
<radialGradient id="paint8_radial_837_966" cx="0" cy="0" r="1" gradientUnits="userSpaceOnUse" gradientTransform="translate(263.432 274.808) rotate(111.201) scale(3.96017 6.04783)">
<stop stop-color="#FFF5D2"/>
<stop offset="1" stop-color="#8D7932"/>
</radialGradient>
<radialGradient id="paint9_radial_837_966" cx="0" cy="0" r="1" gradientUnits="userSpaceOnUse" gradientTransform="translate(340.432 274.808) rotate(111.201) scale(3.96017 6.04783)">
<stop stop-color="#FFF5D2"/>
<stop offset="1" stop-color="#8D7932"/>
</radialGradient>
<radialGradient id="paint10_radial_837_966" cx="0" cy="0" r="1" gradientUnits="userSpaceOnUse" gradientTransform="translate(277.146 274.577) rotate(103.101) scale(5.05442)">
<stop stop-color="#FFF5D2"/>
<stop offset="1" stop-color="#8D7932"/>
</radialGradient>
<radialGradient id="paint11_radial_837_966" cx="0" cy="0" r="1" gradientUnits="userSpaceOnUse" gradientTransform="translate(286.146 271.577) rotate(103.101) scale(5.05442)">
<stop stop-color="#FFF5D2"/>
<stop offset="1" stop-color="#8D7932"/>
</radialGradient>
<radialGradient id="paint12_radial_837_966" cx="0" cy="0" r="1" gradientUnits="userSpaceOnUse" gradientTransform="translate(301.146 269.577) rotate(103.101) scale(5.05442)">
<stop stop-color="#FFF5D2"/>
<stop offset="1" stop-color="#8D7932"/>
</radialGradient>
<radialGradient id="paint13_radial_837_966" cx="0" cy="0" r="1" gradientUnits="userSpaceOnUse" gradientTransform="translate(309.146 275.577) rotate(103.101) scale(5.05442)">
<stop stop-color="#FFF5D2"/>
<stop offset="1" stop-color="#8D7932"/>
</radialGradient>
<radialGradient id="paint14_radial_837_966" cx="0" cy="0" r="1" gradientUnits="userSpaceOnUse" gradientTransform="translate(295.146 276.577) rotate(103.101) scale(5.05442)">
<stop stop-color="#FFF5D2"/>
<stop offset="1" stop-color="#8D7932"/>
</radialGradient>
<radialGradient id="paint15_radial_837_966" cx="0" cy="0" r="1" gradientUnits="userSpaceOnUse" gradientTransform="translate(315.146 269.577) rotate(103.101) scale(5.05442)">
<stop stop-color="#FFF5D2"/>
<stop offset="1" stop-color="#8D7932"/>
</radialGradient>
<radialGradient id="paint16_radial_837_966" cx="0" cy="0" r="1" gradientUnits="userSpaceOnUse" gradientTransform="translate(324.146 274.577) rotate(103.101) scale(5.05442)">
<stop stop-color="#FFF5D2"/>
<stop offset="1" stop-color="#8D7932"/>
</radialGradient>
<radialGradient id="paint17_radial_837_966" cx="0" cy="0" r="1" gradientUnits="userSpaceOnUse" gradientTransform="translate(162.432 274.808) rotate(111.201) scale(3.96017 6.04783)">
<stop stop-color="#FFF5D2"/>
<stop offset="1" stop-color="#8D7932"/>
</radialGradient>
</defs>
</svg>
