<svg width="56" height="80" viewBox="0 0 56 80" fill="none" xmlns="http://www.w3.org/2000/svg">
<path d="M50.1162 54.435C50.1162 65.4807 41.1619 74.435 30.1162 74.4349L25 74.4349C13.9543 74.4349 4.99995 65.4806 4.99995 54.4349L4.99995 5L50.1162 5.00001L50.1162 54.435Z" fill="white"/>
<path d="M4.99995 2.5L2.49995 2.5L2.49995 5L2.49995 54.4349C2.49995 66.8614 12.5736 76.9349 25 76.9349L30.1162 76.9349C42.5426 76.935 52.6162 66.8614 52.6162 54.435L52.6162 5.00001L52.6162 2.50001L50.1162 2.50001L4.99995 2.5Z" stroke="#3DDBFE" stroke-opacity="0.4" stroke-width="5"/>
<path d="M50.1162 54.4349C50.1162 65.4806 41.1619 74.435 30.1162 74.4349L25 74.4349C13.9543 74.4349 4.99995 65.4806 4.99995 54.4349L4.99995 21.2315L50.1162 21.2315L50.1162 54.4349Z" fill="#B9B9B9"/>
</svg>
