<svg width="231" height="217" viewBox="0 0 231 217" fill="none" xmlns="http://www.w3.org/2000/svg">
<rect x="13.6001" y="39.3668" width="200.4" height="137.116" rx="20" fill="#D2E5F3"/>
<circle cx="90.5339" cy="55.4981" r="16.1313" fill="url(#paint0_radial_738_3202)"/>
<circle cx="73.4718" cy="84.9686" r="16.4415" fill="url(#paint1_radial_738_3202)"/>
<circle cx="107.286" cy="82.7972" r="16.1313" fill="url(#paint2_radial_738_3202)"/>
<circle cx="132.103" cy="103.271" r="16.1313" fill="url(#paint3_radial_738_3202)"/>
<circle cx="150.095" cy="74.7315" r="16.1313" fill="url(#paint4_radial_738_3202)"/>
<ellipse cx="179.256" cy="88.0708" rx="16.1313" ry="16.4415" fill="url(#paint5_radial_738_3202)"/>
<circle cx="163.745" cy="116.301" r="16.1313" fill="url(#paint6_radial_738_3202)"/>
<ellipse cx="190.734" cy="133.673" rx="16.4415" ry="16.1313" fill="url(#paint7_radial_738_3202)"/>
<circle cx="175.533" cy="55.4981" r="16.1313" fill="url(#paint8_radial_738_3202)"/>
<ellipse cx="124.347" cy="55.4981" rx="16.4415" ry="16.1313" fill="url(#paint9_radial_738_3202)"/>
<ellipse cx="93.6362" cy="112.578" rx="16.1313" ry="16.7517" fill="url(#paint10_radial_738_3202)"/>
<circle cx="62.9246" cy="133.362" r="16.4415" fill="url(#paint11_radial_738_3202)"/>
<ellipse cx="46.7933" cy="104.512" rx="16.4415" ry="16.7517" fill="url(#paint12_radial_738_3202)"/>
<ellipse cx="30.0416" cy="133.052" rx="16.4415" ry="16.7517" fill="url(#paint13_radial_738_3202)"/>
<ellipse cx="31.5929" cy="74.4213" rx="16.1313" ry="16.4415" fill="url(#paint14_radial_738_3202)"/>
<ellipse cx="58.8918" cy="55.8083" rx="16.1313" ry="16.4415" fill="url(#paint15_radial_738_3202)"/>
<circle cx="121.556" cy="133.673" r="16.1313" fill="url(#paint16_radial_738_3202)"/>
<rect x="214" y="39.3669" width="200.4" height="38.4669" rx="16" transform="rotate(-180 214 39.3669)" fill="url(#paint17_radial_738_3202)"/>
<rect x="214" y="39.3669" width="200.4" height="38.4669" rx="16" transform="rotate(-180 214 39.3669)" fill="#189FB0"/>
<path d="M95.3135 24.4475V15.423H98.5302C99.2294 15.423 99.8096 15.5434 100.271 15.7843C100.735 16.0252 101.082 16.3586 101.311 16.7846C101.54 17.2076 101.654 17.6967 101.654 18.252C101.654 18.8042 101.538 19.2904 101.306 19.7105C101.077 20.1277 100.731 20.4523 100.266 20.6843C99.8052 20.9164 99.225 21.0325 98.5258 21.0325H96.089V19.8603H98.4024C98.8431 19.8603 99.2015 19.7972 99.4776 19.6708C99.7567 19.5445 99.9609 19.3609 100.09 19.12C100.219 18.8791 100.284 18.5898 100.284 18.252C100.284 17.9112 100.218 17.616 100.086 17.3663C99.9565 17.1166 99.7523 16.9256 99.4732 16.7934C99.1971 16.6583 98.8343 16.5907 98.3848 16.5907H96.6751V24.4475H95.3135ZM99.7684 20.3759L101.998 24.4475H100.447L98.2614 20.3759H99.7684ZM103.206 24.4475V17.6791H104.523V24.4475H103.206ZM103.871 16.6348C103.642 16.6348 103.445 16.5584 103.28 16.4056C103.119 16.2499 103.038 16.0649 103.038 15.8504C103.038 15.633 103.119 15.448 103.28 15.2952C103.445 15.1395 103.642 15.0617 103.871 15.0617C104.1 15.0617 104.295 15.1395 104.457 15.2952C104.621 15.448 104.704 15.633 104.704 15.8504C104.704 16.0649 104.621 16.2499 104.457 16.4056C104.295 16.5584 104.1 16.6348 103.871 16.6348ZM106.401 24.4475V15.423H107.719V18.7763H107.798C107.875 18.6353 107.985 18.4723 108.129 18.2872C108.273 18.1021 108.472 17.9406 108.728 17.8025C108.984 17.6615 109.321 17.591 109.741 17.591C110.288 17.591 110.775 17.7291 111.204 18.0052C111.633 18.2813 111.97 18.6794 112.213 19.1994C112.46 19.7193 112.584 20.345 112.584 21.0765C112.584 21.808 112.462 22.4352 112.218 22.9581C111.974 23.4781 111.639 23.879 111.213 24.1611C110.787 24.4401 110.301 24.5797 109.755 24.5797C109.343 24.5797 109.007 24.5106 108.746 24.3726C108.487 24.2345 108.284 24.0729 108.137 23.8879C107.991 23.7028 107.877 23.5383 107.798 23.3943H107.688V24.4475H106.401ZM107.692 21.0633C107.692 21.5392 107.761 21.9563 107.9 22.3147C108.038 22.6731 108.237 22.9537 108.499 23.1564C108.76 23.3561 109.08 23.456 109.459 23.456C109.853 23.456 110.182 23.3517 110.446 23.1432C110.711 22.9316 110.911 22.6452 111.046 22.2839C111.184 21.9226 111.253 21.5157 111.253 21.0633C111.253 20.6168 111.185 20.2158 111.05 19.8603C110.918 19.5049 110.718 19.2243 110.451 19.0187C110.186 18.8131 109.856 18.7102 109.459 18.7102C109.078 18.7102 108.754 18.8086 108.49 19.0055C108.229 19.2023 108.03 19.477 107.895 19.8295C107.76 20.182 107.692 20.5933 107.692 21.0633ZM114.169 24.4475V15.423H115.486V18.7763H115.566C115.642 18.6353 115.752 18.4723 115.896 18.2872C116.04 18.1021 116.24 17.9406 116.495 17.8025C116.751 17.6615 117.089 17.591 117.509 17.591C118.055 17.591 118.543 17.7291 118.972 18.0052C119.401 18.2813 119.737 18.6794 119.981 19.1994C120.228 19.7193 120.351 20.345 120.351 21.0765C120.351 21.808 120.229 22.4352 119.985 22.9581C119.742 23.4781 119.407 23.879 118.981 24.1611C118.555 24.4401 118.069 24.5797 117.522 24.5797C117.111 24.5797 116.775 24.5106 116.513 24.3726C116.255 24.2345 116.052 24.0729 115.905 23.8879C115.758 23.7028 115.645 23.5383 115.566 23.3943H115.456V24.4475H114.169ZM115.46 21.0633C115.46 21.5392 115.529 21.9563 115.667 22.3147C115.805 22.6731 116.005 22.9537 116.266 23.1564C116.528 23.3561 116.848 23.456 117.227 23.456C117.621 23.456 117.95 23.3517 118.214 23.1432C118.478 22.9316 118.678 22.6452 118.813 22.2839C118.951 21.9226 119.02 21.5157 119.02 21.0633C119.02 20.6168 118.953 20.2158 118.818 19.8603C118.685 19.5049 118.486 19.2243 118.218 19.0187C117.954 18.8131 117.624 18.7102 117.227 18.7102C116.845 18.7102 116.522 18.8086 116.258 19.0055C115.996 19.2023 115.798 19.477 115.663 19.8295C115.528 20.182 115.46 20.5933 115.46 21.0633ZM124.682 24.5841C124.047 24.5841 123.493 24.4387 123.02 24.1478C122.547 23.857 122.18 23.4501 121.919 22.9272C121.657 22.4043 121.527 21.7933 121.527 21.0941C121.527 20.392 121.657 19.7781 121.919 19.2522C122.18 18.7264 122.547 18.3181 123.02 18.0272C123.493 17.7364 124.047 17.591 124.682 17.591C125.316 17.591 125.87 17.7364 126.343 18.0272C126.816 18.3181 127.183 18.7264 127.444 19.2522C127.706 19.7781 127.837 20.392 127.837 21.0941C127.837 21.7933 127.706 22.4043 127.444 22.9272C127.183 23.4501 126.816 23.857 126.343 24.1478C125.87 24.4387 125.316 24.5841 124.682 24.5841ZM124.686 23.4781C125.097 23.4781 125.438 23.3694 125.708 23.152C125.979 22.9346 126.178 22.6452 126.308 22.2839C126.44 21.9226 126.506 21.5245 126.506 21.0897C126.506 20.6579 126.44 20.2613 126.308 19.9C126.178 19.5357 125.979 19.2434 125.708 19.0231C125.438 18.8028 125.097 18.6926 124.686 18.6926C124.272 18.6926 123.928 18.8028 123.655 19.0231C123.385 19.2434 123.183 19.5357 123.051 19.9C122.922 20.2613 122.857 20.6579 122.857 21.0897C122.857 21.5245 122.922 21.9226 123.051 22.2839C123.183 22.6452 123.385 22.9346 123.655 23.152C123.928 23.3694 124.272 23.4781 124.686 23.4781ZM130.625 20.4288V24.4475H129.307V17.6791H130.572V18.7807H130.656C130.811 18.4223 131.055 18.1345 131.387 17.9171C131.722 17.6997 132.144 17.591 132.652 17.591C133.113 17.591 133.517 17.6879 133.864 17.8818C134.21 18.0728 134.479 18.3577 134.67 18.7367C134.861 19.1156 134.956 19.5842 134.956 20.1423V24.4475H133.639V20.301C133.639 19.8104 133.511 19.427 133.256 19.1509C133 18.8718 132.649 18.7323 132.202 18.7323C131.897 18.7323 131.625 18.7984 131.387 18.9306C131.152 19.0628 130.966 19.2566 130.828 19.5122C130.692 19.7649 130.625 20.0704 130.625 20.4288Z" fill="white"/>
<rect x="13.6001" y="149.804" width="200.4" height="26.2959" fill="#D9D9D9"/>
<rect x="13.6001" y="149.804" width="200.4" height="26.2959" fill="url(#paint18_linear_738_3202)"/>
<path d="M95.3135 167.045V158.021H98.6183C99.2588 158.021 99.789 158.127 100.209 158.338C100.629 158.547 100.944 158.83 101.152 159.189C101.361 159.544 101.465 159.945 101.465 160.392C101.465 160.768 101.396 161.085 101.258 161.343C101.12 161.599 100.935 161.805 100.703 161.96C100.473 162.113 100.221 162.225 99.9447 162.295V162.383C100.244 162.398 100.537 162.495 100.822 162.674C101.109 162.85 101.347 163.102 101.535 163.428C101.723 163.754 101.817 164.15 101.817 164.617C101.817 165.079 101.709 165.493 101.491 165.86C101.277 166.224 100.945 166.514 100.496 166.728C100.046 166.94 99.4717 167.045 98.7726 167.045H95.3135ZM96.6751 165.878H98.6404C99.2925 165.878 99.7596 165.751 100.042 165.499C100.324 165.246 100.465 164.93 100.465 164.551C100.465 164.266 100.393 164.005 100.249 163.767C100.105 163.529 99.8992 163.34 99.6318 163.199C99.3675 163.058 99.0531 162.987 98.6889 162.987H96.6751V165.878ZM96.6751 161.925H98.4994C98.8049 161.925 99.0796 161.866 99.3234 161.749C99.5701 161.631 99.7655 161.467 99.9094 161.255C100.056 161.041 100.13 160.788 100.13 160.497C100.13 160.124 99.999 159.811 99.7376 159.559C99.4761 159.306 99.0752 159.18 98.5346 159.18H96.6751V161.925ZM107.614 164.238V160.277H108.936V167.045H107.641V165.873H107.57C107.414 166.235 107.165 166.536 106.821 166.777C106.48 167.015 106.056 167.134 105.548 167.134C105.113 167.134 104.728 167.038 104.393 166.847C104.061 166.653 103.8 166.367 103.609 165.988C103.421 165.609 103.327 165.14 103.327 164.582V160.277H104.644V164.424C104.644 164.885 104.772 165.252 105.028 165.525C105.283 165.798 105.615 165.935 106.023 165.935C106.27 165.935 106.516 165.873 106.759 165.75C107.006 165.626 107.21 165.44 107.372 165.19C107.536 164.941 107.617 164.623 107.614 164.238ZM115.778 161.929L114.584 162.141C114.534 161.988 114.455 161.843 114.346 161.705C114.24 161.567 114.097 161.454 113.914 161.365C113.732 161.277 113.505 161.233 113.231 161.233C112.858 161.233 112.547 161.317 112.297 161.484C112.047 161.649 111.923 161.862 111.923 162.123C111.923 162.35 112.006 162.532 112.174 162.67C112.341 162.808 112.612 162.921 112.985 163.009L114.06 163.256C114.683 163.4 115.147 163.622 115.452 163.921C115.758 164.221 115.911 164.61 115.911 165.089C115.911 165.494 115.793 165.856 115.558 166.173C115.326 166.487 115.001 166.734 114.584 166.913C114.17 167.092 113.69 167.182 113.143 167.182C112.385 167.182 111.767 167.02 111.288 166.697C110.809 166.371 110.515 165.909 110.407 165.309L111.68 165.115C111.76 165.447 111.923 165.698 112.169 165.869C112.416 166.036 112.738 166.12 113.134 166.12C113.566 166.12 113.911 166.03 114.17 165.851C114.428 165.669 114.558 165.447 114.558 165.186C114.558 164.974 114.478 164.797 114.32 164.653C114.164 164.509 113.925 164.4 113.602 164.327L112.456 164.075C111.824 163.931 111.357 163.702 111.055 163.388C110.755 163.074 110.605 162.676 110.605 162.194C110.605 161.794 110.717 161.445 110.94 161.145C111.163 160.845 111.472 160.612 111.865 160.444C112.259 160.274 112.71 160.189 113.218 160.189C113.95 160.189 114.525 160.348 114.945 160.665C115.366 160.979 115.643 161.401 115.778 161.929ZM117.465 167.045V158.021H118.782V161.374H118.862C118.938 161.233 119.048 161.07 119.192 160.885C119.336 160.7 119.536 160.538 119.792 160.4C120.047 160.259 120.385 160.189 120.805 160.189C121.351 160.189 121.839 160.327 122.268 160.603C122.697 160.879 123.033 161.277 123.277 161.797C123.524 162.317 123.647 162.943 123.647 163.674C123.647 164.406 123.525 165.033 123.281 165.556C123.038 166.076 122.703 166.477 122.277 166.759C121.851 167.038 121.365 167.178 120.818 167.178C120.407 167.178 120.071 167.109 119.809 166.97C119.551 166.832 119.348 166.671 119.201 166.486C119.054 166.301 118.941 166.136 118.862 165.992H118.752V167.045H117.465ZM118.756 163.661C118.756 164.137 118.825 164.554 118.963 164.913C119.101 165.271 119.301 165.552 119.562 165.754C119.824 165.954 120.144 166.054 120.523 166.054C120.917 166.054 121.246 165.95 121.51 165.741C121.774 165.53 121.974 165.243 122.109 164.882C122.247 164.52 122.316 164.114 122.316 163.661C122.316 163.215 122.249 162.814 122.114 162.458C121.982 162.103 121.782 161.822 121.514 161.617C121.25 161.411 120.92 161.308 120.523 161.308C120.141 161.308 119.818 161.407 119.554 161.603C119.292 161.8 119.094 162.075 118.959 162.427C118.824 162.78 118.756 163.191 118.756 163.661ZM127.096 167.195C126.667 167.195 126.28 167.116 125.933 166.957C125.586 166.796 125.312 166.562 125.109 166.257C124.909 165.951 124.809 165.577 124.809 165.133C124.809 164.751 124.883 164.437 125.03 164.19C125.177 163.943 125.375 163.748 125.625 163.604C125.874 163.46 126.153 163.351 126.462 163.278C126.77 163.204 127.085 163.149 127.405 163.11C127.81 163.063 128.139 163.025 128.392 162.996C128.645 162.964 128.828 162.912 128.943 162.842C129.057 162.771 129.115 162.657 129.115 162.498V162.467C129.115 162.082 129.006 161.784 128.788 161.573C128.574 161.361 128.254 161.255 127.828 161.255C127.384 161.255 127.035 161.354 126.779 161.55C126.526 161.744 126.352 161.96 126.255 162.198L125.017 161.916C125.163 161.505 125.378 161.173 125.66 160.92C125.945 160.665 126.272 160.48 126.643 160.365C127.013 160.248 127.402 160.189 127.81 160.189C128.08 160.189 128.367 160.221 128.669 160.286C128.975 160.348 129.26 160.462 129.524 160.63C129.792 160.797 130.011 161.036 130.181 161.348C130.351 161.656 130.436 162.057 130.436 162.551V167.045H129.15V166.12H129.097C129.012 166.29 128.884 166.458 128.714 166.622C128.543 166.787 128.324 166.923 128.057 167.032C127.79 167.141 127.469 167.195 127.096 167.195ZM127.383 166.138C127.747 166.138 128.058 166.066 128.317 165.922C128.578 165.778 128.777 165.59 128.912 165.358C129.05 165.123 129.119 164.872 129.119 164.604V163.732C129.072 163.779 128.981 163.823 128.846 163.864C128.714 163.902 128.562 163.936 128.392 163.965C128.221 163.992 128.056 164.017 127.894 164.04C127.732 164.061 127.597 164.078 127.489 164.093C127.233 164.125 126.999 164.18 126.788 164.256C126.579 164.332 126.412 164.443 126.286 164.587C126.162 164.728 126.101 164.916 126.101 165.151C126.101 165.477 126.221 165.723 126.462 165.891C126.703 166.055 127.01 166.138 127.383 166.138ZM132.191 167.045V160.277H133.465V161.352H133.535C133.659 160.988 133.876 160.702 134.188 160.493C134.502 160.281 134.857 160.176 135.254 160.176C135.336 160.176 135.433 160.179 135.545 160.184C135.659 160.19 135.749 160.198 135.814 160.207V161.467C135.761 161.452 135.667 161.436 135.531 161.418C135.396 161.398 135.261 161.387 135.126 161.387C134.815 161.387 134.537 161.454 134.293 161.586C134.052 161.715 133.861 161.896 133.72 162.128C133.579 162.357 133.509 162.618 133.509 162.912V167.045H132.191Z" fill="white"/>
<g filter="url(#filter0_f_738_3202)">
<path d="M190.734 165.315L197.987 148.563H183.48L190.734 165.315Z" fill="#1CDEF8"/>
</g>
<path d="M190.734 161.592L195.838 149.494H185.629L190.734 161.592Z" fill="white"/>
<g filter="url(#filter1_f_738_3202)">
<path d="M64.7858 165.315L72.0395 148.563H57.5321L64.7858 165.315Z" fill="#1CDEF8"/>
</g>
<path d="M64.786 161.592L69.8904 149.494H59.6815L64.786 161.592Z" fill="white"/>
<g filter="url(#filter2_f_738_3202)">
<path d="M175.533 26.9582V54.8777L181.427 86.5198L164.365 115.99L190.734 133.052V150.424" stroke="url(#paint19_linear_738_3202)" stroke-width="6.20433"/>
</g>
<path d="M175.533 26.9582V54.8777L181.427 86.5198L164.365 115.99L190.734 133.052V149.804" stroke="#F6FCFD" stroke-width="1.8613"/>
<g filter="url(#filter3_f_738_3202)">
<ellipse cx="175.533" cy="29.299" rx="9.3065" ry="9.78592" fill="#15EEFC"/>
</g>
<g filter="url(#filter4_f_738_3202)">
<ellipse cx="175.533" cy="29.299" rx="9.3065" ry="9.78592" fill="white"/>
</g>
<path d="M173.752 33.2701C173.085 33.2701 172.511 33.1277 172.029 32.8427C171.55 32.5548 171.18 32.1509 170.919 31.6309C170.66 31.108 170.531 30.4955 170.531 29.7934C170.531 29.1001 170.66 28.4891 170.919 27.9603C171.18 27.4315 171.544 27.0188 172.011 26.7221C172.481 26.4254 173.031 26.2771 173.659 26.2771C174.041 26.2771 174.412 26.3402 174.77 26.4665C175.128 26.5928 175.45 26.7911 175.735 27.0614C176.02 27.3317 176.245 27.6827 176.409 28.1146C176.574 28.5435 176.656 29.0649 176.656 29.6789V30.1459H171.276V29.1589H175.365C175.365 28.8122 175.294 28.5053 175.153 28.2379C175.012 27.9677 174.814 27.7547 174.558 27.599C174.306 27.4433 174.009 27.3655 173.668 27.3655C173.298 27.3655 172.975 27.4565 172.699 27.6387C172.426 27.8179 172.214 28.0529 172.064 28.3437C171.917 28.6316 171.844 28.9444 171.844 29.2823V30.0534C171.844 30.5058 171.923 30.8906 172.082 31.2079C172.244 31.5252 172.468 31.7675 172.756 31.935C173.044 32.0995 173.38 32.1817 173.765 32.1817C174.015 32.1817 174.243 32.1465 174.448 32.076C174.654 32.0025 174.832 31.8939 174.981 31.7499C175.131 31.606 175.246 31.4282 175.325 31.2167L176.572 31.4415C176.472 31.8087 176.293 32.1303 176.035 32.4065C175.779 32.6797 175.457 32.8927 175.07 33.0454C174.685 33.1952 174.246 33.2701 173.752 33.2701ZM181.965 25.8981V26.8014H177.981V25.8981H181.965Z" fill="#10BAD1"/>
<g filter="url(#filter5_f_738_3202)">
<ellipse cx="58.8917" cy="29.299" rx="9.3065" ry="9.78592" fill="#15EEFC"/>
</g>
<g filter="url(#filter6_f_738_3202)">
<ellipse cx="58.8917" cy="29.299" rx="9.3065" ry="9.78592" fill="white"/>
</g>
<path d="M57.1107 33.2701C56.4438 33.2701 55.8695 33.1277 55.3877 32.8427C54.9089 32.5548 54.5387 32.1509 54.2773 31.6309C54.0188 31.108 53.8895 30.4955 53.8895 29.7934C53.8895 29.1001 54.0188 28.4891 54.2773 27.9603C54.5387 27.4315 54.903 27.0188 55.3701 26.7221C55.8401 26.4254 56.3895 26.2771 57.0181 26.2771C57.4 26.2771 57.7702 26.3402 58.1286 26.4665C58.487 26.5928 58.8086 26.7911 59.0936 27.0614C59.3785 27.3317 59.6033 27.6827 59.7678 28.1146C59.9323 28.5435 60.0145 29.0649 60.0145 29.6789V30.1459H54.6342V29.1589H58.7234C58.7234 28.8122 58.6529 28.5053 58.5119 28.2379C58.3709 27.9677 58.1726 27.7547 57.917 27.599C57.6644 27.4433 57.3677 27.3655 57.0269 27.3655C56.6568 27.3655 56.3336 27.4565 56.0575 27.6387C55.7843 27.8179 55.5728 28.0529 55.423 28.3437C55.2761 28.6316 55.2027 28.9444 55.2027 29.2823V30.0534C55.2027 30.5058 55.282 30.8906 55.4406 31.2079C55.6022 31.5252 55.8269 31.7675 56.1148 31.935C56.4027 32.0995 56.739 32.1817 57.1239 32.1817C57.3736 32.1817 57.6012 32.1465 57.8069 32.076C58.0125 32.0025 58.1902 31.8939 58.3401 31.7499C58.4899 31.606 58.6045 31.4282 58.6838 31.2167L59.9308 31.4415C59.8309 31.8087 59.6517 32.1303 59.3932 32.4065C59.1376 32.6797 58.816 32.8927 58.4282 33.0454C58.0434 33.1952 57.6042 33.2701 57.1107 33.2701ZM65.3233 25.8981V26.8014H61.3398V25.8981H65.3233Z" fill="#10BAD1"/>
<g filter="url(#filter7_f_738_3202)">
<path d="M58.8915 38.7465V57.6697L74.4024 87.4505L48.0339 107.615L64.4754 133.673V149.494" stroke="url(#paint20_linear_738_3202)" stroke-width="6.20433"/>
</g>
<path d="M58.8915 39.3669V57.6697L74.4024 87.4505L48.0339 107.615L64.4754 133.673V149.494" stroke="white" stroke-width="1.8613"/>
<rect y="176.1" width="230.4" height="40" fill="#115C7B"/>
<path d="M109.287 193.41H107.912C107.859 193.117 107.761 192.858 107.617 192.635C107.473 192.411 107.297 192.222 107.088 192.066C106.88 191.911 106.646 191.793 106.387 191.714C106.132 191.634 105.86 191.595 105.572 191.595C105.052 191.595 104.587 191.726 104.175 191.987C103.767 192.248 103.444 192.632 103.206 193.137C102.971 193.642 102.853 194.259 102.853 194.988C102.853 195.722 102.971 196.342 103.206 196.847C103.444 197.353 103.769 197.735 104.18 197.993C104.591 198.252 105.054 198.381 105.568 198.381C105.853 198.381 106.123 198.343 106.379 198.266C106.637 198.187 106.871 198.071 107.079 197.918C107.288 197.765 107.464 197.579 107.608 197.358C107.755 197.135 107.856 196.88 107.912 196.592L109.287 196.596C109.214 197.04 109.071 197.448 108.86 197.821C108.651 198.191 108.382 198.512 108.053 198.782C107.727 199.049 107.354 199.256 106.934 199.403C106.514 199.55 106.056 199.623 105.559 199.623C104.778 199.623 104.081 199.438 103.47 199.068C102.859 198.695 102.378 198.162 102.025 197.469C101.675 196.775 101.501 195.948 101.501 194.988C101.501 194.024 101.677 193.197 102.029 192.507C102.382 191.814 102.864 191.282 103.475 190.912C104.086 190.539 104.781 190.352 105.559 190.352C106.038 190.352 106.484 190.421 106.899 190.559C107.316 190.694 107.69 190.894 108.022 191.159C108.354 191.42 108.629 191.74 108.846 192.119C109.064 192.495 109.211 192.926 109.287 193.41ZM113.728 199.637C113.061 199.637 112.486 199.494 112.005 199.209C111.526 198.921 111.156 198.517 110.894 197.997C110.636 197.475 110.506 196.862 110.506 196.16C110.506 195.467 110.636 194.856 110.894 194.327C111.156 193.798 111.52 193.385 111.987 193.089C112.457 192.792 113.006 192.644 113.635 192.644C114.017 192.644 114.387 192.707 114.745 192.833C115.104 192.959 115.426 193.158 115.711 193.428C115.995 193.698 116.22 194.049 116.385 194.481C116.549 194.91 116.631 195.431 116.631 196.045V196.512H111.251V195.525H115.34C115.34 195.179 115.27 194.872 115.129 194.604C114.988 194.334 114.79 194.121 114.534 193.965C114.281 193.81 113.985 193.732 113.644 193.732C113.274 193.732 112.951 193.823 112.674 194.005C112.401 194.184 112.19 194.419 112.04 194.71C111.893 194.998 111.82 195.311 111.82 195.649V196.42C111.82 196.872 111.899 197.257 112.058 197.574C112.219 197.892 112.444 198.134 112.732 198.301C113.02 198.466 113.356 198.548 113.741 198.548C113.991 198.548 114.218 198.513 114.424 198.442C114.629 198.369 114.807 198.26 114.957 198.116C115.107 197.972 115.221 197.795 115.301 197.583L116.548 197.808C116.448 198.175 116.269 198.497 116.01 198.773C115.755 199.046 115.433 199.259 115.045 199.412C114.66 199.562 114.221 199.637 113.728 199.637ZM119.411 190.476V199.5H118.093V190.476H119.411ZM122.501 190.476V199.5H121.183V190.476H122.501Z" fill="white"/>
<defs>
<filter id="filter0_f_738_3202" x="180.998" y="146.081" width="19.471" height="21.7152" filterUnits="userSpaceOnUse" color-interpolation-filters="sRGB">
<feFlood flood-opacity="0" result="BackgroundImageFix"/>
<feBlend mode="normal" in="SourceGraphic" in2="BackgroundImageFix" result="shape"/>
<feGaussianBlur stdDeviation="1.24087" result="effect1_foregroundBlur_738_3202"/>
</filter>
<filter id="filter1_f_738_3202" x="55.0502" y="146.081" width="19.471" height="21.7152" filterUnits="userSpaceOnUse" color-interpolation-filters="sRGB">
<feFlood flood-opacity="0" result="BackgroundImageFix"/>
<feBlend mode="normal" in="SourceGraphic" in2="BackgroundImageFix" result="shape"/>
<feGaussianBlur stdDeviation="1.24087" result="effect1_foregroundBlur_738_3202"/>
</filter>
<filter id="filter2_f_738_3202" x="157.72" y="24.4765" width="38.598" height="128.43" filterUnits="userSpaceOnUse" color-interpolation-filters="sRGB">
<feFlood flood-opacity="0" result="BackgroundImageFix"/>
<feBlend mode="normal" in="SourceGraphic" in2="BackgroundImageFix" result="shape"/>
<feGaussianBlur stdDeviation="1.24087" result="effect1_foregroundBlur_738_3202"/>
</filter>
<filter id="filter3_f_738_3202" x="163.745" y="17.0314" width="23.5765" height="24.5353" filterUnits="userSpaceOnUse" color-interpolation-filters="sRGB">
<feFlood flood-opacity="0" result="BackgroundImageFix"/>
<feBlend mode="normal" in="SourceGraphic" in2="BackgroundImageFix" result="shape"/>
<feGaussianBlur stdDeviation="1.24087" result="effect1_foregroundBlur_738_3202"/>
</filter>
<filter id="filter4_f_738_3202" x="163.745" y="17.0314" width="23.5765" height="24.5353" filterUnits="userSpaceOnUse" color-interpolation-filters="sRGB">
<feFlood flood-opacity="0" result="BackgroundImageFix"/>
<feBlend mode="normal" in="SourceGraphic" in2="BackgroundImageFix" result="shape"/>
<feGaussianBlur stdDeviation="1.24087" result="effect1_foregroundBlur_738_3202"/>
</filter>
<filter id="filter5_f_738_3202" x="47.1035" y="17.0314" width="23.5765" height="24.5353" filterUnits="userSpaceOnUse" color-interpolation-filters="sRGB">
<feFlood flood-opacity="0" result="BackgroundImageFix"/>
<feBlend mode="normal" in="SourceGraphic" in2="BackgroundImageFix" result="shape"/>
<feGaussianBlur stdDeviation="1.24087" result="effect1_foregroundBlur_738_3202"/>
</filter>
<filter id="filter6_f_738_3202" x="47.1035" y="17.0314" width="23.5765" height="24.5353" filterUnits="userSpaceOnUse" color-interpolation-filters="sRGB">
<feFlood flood-opacity="0" result="BackgroundImageFix"/>
<feBlend mode="normal" in="SourceGraphic" in2="BackgroundImageFix" result="shape"/>
<feGaussianBlur stdDeviation="1.24087" result="effect1_foregroundBlur_738_3202"/>
</filter>
<filter id="filter7_f_738_3202" x="41.416" y="36.2648" width="39.4242" height="115.711" filterUnits="userSpaceOnUse" color-interpolation-filters="sRGB">
<feFlood flood-opacity="0" result="BackgroundImageFix"/>
<feBlend mode="normal" in="SourceGraphic" in2="BackgroundImageFix" result="shape"/>
<feGaussianBlur stdDeviation="1.24087" result="effect1_foregroundBlur_738_3202"/>
</filter>
<radialGradient id="paint0_radial_738_3202" cx="0" cy="0" r="1" gradientUnits="userSpaceOnUse" gradientTransform="translate(90.5339 55.4981) rotate(90) scale(16.1313)">
<stop offset="0.197917" stop-color="#FCFCFC"/>
<stop offset="0.786458" stop-color="#BEBEBE"/>
<stop offset="1" stop-color="#9C9C9C"/>
</radialGradient>
<radialGradient id="paint1_radial_738_3202" cx="0" cy="0" r="1" gradientUnits="userSpaceOnUse" gradientTransform="translate(73.4718 84.9686) rotate(90) scale(16.4415)">
<stop offset="0.197917" stop-color="#FCFCFC"/>
<stop offset="0.786458" stop-color="#BEBEBE"/>
<stop offset="1" stop-color="#9C9C9C"/>
</radialGradient>
<radialGradient id="paint2_radial_738_3202" cx="0" cy="0" r="1" gradientUnits="userSpaceOnUse" gradientTransform="translate(107.286 82.7972) rotate(90) scale(16.1313)">
<stop offset="0.197917" stop-color="#FCFCFC"/>
<stop offset="0.786458" stop-color="#BEBEBE"/>
<stop offset="1" stop-color="#9C9C9C"/>
</radialGradient>
<radialGradient id="paint3_radial_738_3202" cx="0" cy="0" r="1" gradientUnits="userSpaceOnUse" gradientTransform="translate(132.103 103.271) rotate(90) scale(16.1313)">
<stop offset="0.197917" stop-color="#FCFCFC"/>
<stop offset="0.786458" stop-color="#BEBEBE"/>
<stop offset="1" stop-color="#9C9C9C"/>
</radialGradient>
<radialGradient id="paint4_radial_738_3202" cx="0" cy="0" r="1" gradientUnits="userSpaceOnUse" gradientTransform="translate(150.095 74.7315) rotate(90) scale(16.1313)">
<stop offset="0.197917" stop-color="#FCFCFC"/>
<stop offset="0.786458" stop-color="#BEBEBE"/>
<stop offset="1" stop-color="#9C9C9C"/>
</radialGradient>
<radialGradient id="paint5_radial_738_3202" cx="0" cy="0" r="1" gradientUnits="userSpaceOnUse" gradientTransform="translate(179.256 88.0709) rotate(90) scale(16.4415 16.1313)">
<stop offset="0.197917" stop-color="#FCFCFC"/>
<stop offset="0.786458" stop-color="#BEBEBE"/>
<stop offset="1" stop-color="#9C9C9C"/>
</radialGradient>
<radialGradient id="paint6_radial_738_3202" cx="0" cy="0" r="1" gradientUnits="userSpaceOnUse" gradientTransform="translate(163.745 116.301) rotate(90) scale(16.1313)">
<stop offset="0.197917" stop-color="#FCFCFC"/>
<stop offset="0.786458" stop-color="#BEBEBE"/>
<stop offset="1" stop-color="#9C9C9C"/>
</radialGradient>
<radialGradient id="paint7_radial_738_3202" cx="0" cy="0" r="1" gradientUnits="userSpaceOnUse" gradientTransform="translate(190.734 133.673) rotate(90) scale(16.1313 16.4415)">
<stop offset="0.197917" stop-color="#FCFCFC"/>
<stop offset="0.786458" stop-color="#BEBEBE"/>
<stop offset="1" stop-color="#9C9C9C"/>
</radialGradient>
<radialGradient id="paint8_radial_738_3202" cx="0" cy="0" r="1" gradientUnits="userSpaceOnUse" gradientTransform="translate(175.533 55.4981) rotate(90) scale(16.1313)">
<stop offset="0.197917" stop-color="#FCFCFC"/>
<stop offset="0.786458" stop-color="#BEBEBE"/>
<stop offset="1" stop-color="#9C9C9C"/>
</radialGradient>
<radialGradient id="paint9_radial_738_3202" cx="0" cy="0" r="1" gradientUnits="userSpaceOnUse" gradientTransform="translate(124.347 55.4981) rotate(90) scale(16.1313 16.4415)">
<stop offset="0.197917" stop-color="#FCFCFC"/>
<stop offset="0.786458" stop-color="#BEBEBE"/>
<stop offset="1" stop-color="#9C9C9C"/>
</radialGradient>
<radialGradient id="paint10_radial_738_3202" cx="0" cy="0" r="1" gradientUnits="userSpaceOnUse" gradientTransform="translate(93.6362 112.578) rotate(90) scale(16.7517 16.1313)">
<stop offset="0.197917" stop-color="#FCFCFC"/>
<stop offset="0.786458" stop-color="#BEBEBE"/>
<stop offset="1" stop-color="#9C9C9C"/>
</radialGradient>
<radialGradient id="paint11_radial_738_3202" cx="0" cy="0" r="1" gradientUnits="userSpaceOnUse" gradientTransform="translate(62.9246 133.362) rotate(90) scale(16.4415)">
<stop offset="0.197917" stop-color="#FCFCFC"/>
<stop offset="0.786458" stop-color="#BEBEBE"/>
<stop offset="1" stop-color="#9C9C9C"/>
</radialGradient>
<radialGradient id="paint12_radial_738_3202" cx="0" cy="0" r="1" gradientUnits="userSpaceOnUse" gradientTransform="translate(46.7933 104.512) rotate(90) scale(16.7517 16.4415)">
<stop offset="0.197917" stop-color="#FCFCFC"/>
<stop offset="0.786458" stop-color="#BEBEBE"/>
<stop offset="1" stop-color="#9C9C9C"/>
</radialGradient>
<radialGradient id="paint13_radial_738_3202" cx="0" cy="0" r="1" gradientUnits="userSpaceOnUse" gradientTransform="translate(30.0416 133.052) rotate(90) scale(16.7517 16.4415)">
<stop offset="0.197917" stop-color="#FCFCFC"/>
<stop offset="0.786458" stop-color="#BEBEBE"/>
<stop offset="1" stop-color="#9C9C9C"/>
</radialGradient>
<radialGradient id="paint14_radial_738_3202" cx="0" cy="0" r="1" gradientUnits="userSpaceOnUse" gradientTransform="translate(31.5929 74.4213) rotate(90) scale(16.4415 16.1313)">
<stop offset="0.197917" stop-color="#FCFCFC"/>
<stop offset="0.786458" stop-color="#BEBEBE"/>
<stop offset="1" stop-color="#9C9C9C"/>
</radialGradient>
<radialGradient id="paint15_radial_738_3202" cx="0" cy="0" r="1" gradientUnits="userSpaceOnUse" gradientTransform="translate(58.8918 55.8083) rotate(90) scale(16.4415 16.1313)">
<stop offset="0.197917" stop-color="#FCFCFC"/>
<stop offset="0.786458" stop-color="#BEBEBE"/>
<stop offset="1" stop-color="#9C9C9C"/>
</radialGradient>
<radialGradient id="paint16_radial_738_3202" cx="0" cy="0" r="1" gradientUnits="userSpaceOnUse" gradientTransform="translate(121.556 133.673) rotate(90) scale(16.1313)">
<stop offset="0.197917" stop-color="#FCFCFC"/>
<stop offset="0.786458" stop-color="#BEBEBE"/>
<stop offset="1" stop-color="#9C9C9C"/>
</radialGradient>
<radialGradient id="paint17_radial_738_3202" cx="0" cy="0" r="1" gradientUnits="userSpaceOnUse" gradientTransform="translate(342.9 54.1629) rotate(140.486) scale(37.2023 82.7136)">
<stop stop-color="#FFF5D2"/>
<stop offset="1" stop-color="#8D7932"/>
</radialGradient>
<linearGradient id="paint18_linear_738_3202" x1="113.8" y1="149.804" x2="113.8" y2="176.1" gradientUnits="userSpaceOnUse">
<stop stop-color="#1B8842"/>
<stop offset="1" stop-color="#15779F"/>
</linearGradient>
<linearGradient id="paint19_linear_738_3202" x1="177.549" y1="26.9582" x2="177.549" y2="160.351" gradientUnits="userSpaceOnUse">
<stop stop-color="#F6FCFD"/>
<stop offset="0.216313" stop-color="#3DDBFE"/>
<stop offset="0.51321" stop-color="#3DDBFE"/>
<stop offset="0.765625" stop-color="#4BDFFF"/>
<stop offset="1" stop-color="#DFF9FF"/>
</linearGradient>
<linearGradient id="paint20_linear_738_3202" x1="69.1287" y1="38.7465" x2="69.1287" y2="149.494" gradientUnits="userSpaceOnUse">
<stop stop-color="#F6FCFD"/>
<stop offset="0.216313" stop-color="#3DDBFE"/>
<stop offset="0.51321" stop-color="#3DDBFE"/>
<stop offset="0.765625" stop-color="#4BDFFF"/>
<stop offset="1" stop-color="#DFF9FF"/>
</linearGradient>
</defs>
</svg>
