<svg width="231" height="217" viewBox="0 0 231 217" fill="none" xmlns="http://www.w3.org/2000/svg">
<rect x="15.5999" y="103.99" width="199.2" height="72.8" rx="20" fill="#D2E5F3"/>
<rect x="15.8691" y="150.017" width="198.534" height="26.296" fill="#D9D9D9"/>
<rect x="15.8691" y="150.017" width="198.534" height="26.296" fill="url(#paint0_linear_738_3302)"/>
<path d="M98.9822 167.258V158.318H102.256C102.891 158.318 103.416 158.423 103.832 158.632C104.248 158.839 104.56 159.12 104.766 159.475C104.973 159.827 105.076 160.224 105.076 160.667C105.076 161.039 105.008 161.353 104.871 161.61C104.734 161.863 104.551 162.066 104.321 162.221C104.094 162.372 103.844 162.483 103.57 162.552V162.64C103.867 162.654 104.157 162.75 104.439 162.928C104.724 163.103 104.96 163.351 105.146 163.674C105.332 163.997 105.426 164.39 105.426 164.853C105.426 165.31 105.318 165.72 105.103 166.084C104.89 166.445 104.561 166.732 104.116 166.944C103.671 167.154 103.102 167.258 102.409 167.258H98.9822ZM100.331 166.102H102.278C102.924 166.102 103.387 165.976 103.666 165.726C103.946 165.476 104.085 165.163 104.085 164.788C104.085 164.505 104.014 164.246 103.872 164.011C103.729 163.775 103.525 163.587 103.26 163.447C102.998 163.308 102.687 163.238 102.326 163.238H100.331V166.102ZM100.331 162.186H102.138C102.441 162.186 102.713 162.128 102.955 162.011C103.199 161.895 103.393 161.732 103.535 161.522C103.681 161.31 103.754 161.06 103.754 160.771C103.754 160.402 103.624 160.092 103.365 159.842C103.106 159.591 102.709 159.466 102.173 159.466H100.331V162.186ZM111.168 164.478V160.553H112.478V167.258H111.195V166.097H111.125C110.97 166.455 110.723 166.754 110.383 166.992C110.045 167.228 109.624 167.346 109.121 167.346C108.69 167.346 108.309 167.251 107.977 167.062C107.648 166.87 107.389 166.586 107.2 166.211C107.014 165.835 106.921 165.371 106.921 164.818V160.553H108.226V164.661C108.226 165.118 108.353 165.482 108.606 165.752C108.859 166.023 109.188 166.158 109.592 166.158C109.837 166.158 110.08 166.097 110.321 165.975C110.566 165.853 110.768 165.668 110.928 165.421C111.091 165.173 111.171 164.859 111.168 164.478ZM119.256 162.19L118.073 162.4C118.024 162.248 117.945 162.104 117.838 161.968C117.733 161.831 117.59 161.719 117.41 161.631C117.229 161.544 117.004 161.5 116.733 161.5C116.364 161.5 116.055 161.583 115.808 161.749C115.56 161.912 115.437 162.123 115.437 162.382C115.437 162.606 115.52 162.787 115.686 162.924C115.851 163.06 116.119 163.172 116.489 163.26L117.554 163.504C118.171 163.647 118.631 163.866 118.933 164.163C119.236 164.46 119.387 164.846 119.387 165.32C119.387 165.722 119.271 166.08 119.038 166.394C118.808 166.705 118.487 166.95 118.073 167.127C117.663 167.305 117.187 167.394 116.646 167.394C115.895 167.394 115.282 167.234 114.808 166.914C114.334 166.591 114.043 166.132 113.935 165.538L115.197 165.346C115.275 165.675 115.437 165.924 115.681 166.093C115.926 166.259 116.244 166.342 116.637 166.342C117.065 166.342 117.407 166.253 117.663 166.075C117.919 165.895 118.047 165.675 118.047 165.416C118.047 165.207 117.969 165.031 117.811 164.888C117.657 164.745 117.42 164.638 117.1 164.565L115.965 164.316C115.339 164.174 114.876 163.947 114.577 163.635C114.28 163.324 114.131 162.929 114.131 162.452C114.131 162.056 114.242 161.71 114.463 161.413C114.684 161.116 114.99 160.885 115.38 160.719C115.77 160.55 116.217 160.466 116.72 160.466C117.445 160.466 118.015 160.623 118.431 160.937C118.848 161.249 119.123 161.666 119.256 162.19ZM120.927 167.258V158.318H122.233V161.64H122.311C122.387 161.5 122.496 161.339 122.639 161.156C122.781 160.972 122.979 160.812 123.232 160.675C123.485 160.536 123.82 160.466 124.236 160.466C124.778 160.466 125.261 160.603 125.686 160.876C126.111 161.15 126.444 161.544 126.685 162.059C126.93 162.574 127.052 163.194 127.052 163.919C127.052 164.644 126.931 165.265 126.69 165.783C126.448 166.298 126.116 166.695 125.694 166.975C125.272 167.251 124.791 167.389 124.249 167.389C123.842 167.389 123.509 167.321 123.25 167.184C122.994 167.047 122.793 166.887 122.647 166.704C122.502 166.521 122.39 166.358 122.311 166.215H122.202V167.258H120.927ZM122.206 163.906C122.206 164.377 122.275 164.791 122.412 165.146C122.548 165.501 122.746 165.779 123.005 165.979C123.264 166.177 123.582 166.276 123.957 166.276C124.347 166.276 124.673 166.173 124.935 165.966C125.197 165.757 125.395 165.473 125.529 165.115C125.665 164.757 125.734 164.354 125.734 163.906C125.734 163.463 125.667 163.066 125.533 162.714C125.402 162.362 125.204 162.084 124.939 161.88C124.677 161.676 124.35 161.575 123.957 161.575C123.579 161.575 123.258 161.672 122.997 161.867C122.738 162.062 122.541 162.334 122.407 162.683C122.273 163.033 122.206 163.44 122.206 163.906ZM130.469 167.407C130.044 167.407 129.66 167.328 129.317 167.171C128.973 167.011 128.701 166.78 128.5 166.477C128.302 166.174 128.203 165.803 128.203 165.364C128.203 164.985 128.276 164.674 128.422 164.43C128.567 164.185 128.764 163.992 129.011 163.849C129.258 163.706 129.535 163.599 129.84 163.526C130.146 163.453 130.457 163.398 130.775 163.36C131.176 163.314 131.502 163.276 131.753 163.247C132.003 163.215 132.185 163.164 132.298 163.094C132.412 163.024 132.468 162.91 132.468 162.753V162.723C132.468 162.341 132.361 162.046 132.145 161.837C131.933 161.627 131.616 161.522 131.194 161.522C130.754 161.522 130.408 161.62 130.155 161.815C129.905 162.007 129.731 162.221 129.635 162.456L128.409 162.177C128.554 161.77 128.767 161.441 129.046 161.19C129.328 160.937 129.653 160.754 130.019 160.64C130.386 160.524 130.772 160.466 131.176 160.466C131.444 160.466 131.728 160.498 132.028 160.562C132.33 160.623 132.613 160.736 132.874 160.902C133.139 161.068 133.356 161.305 133.525 161.614C133.694 161.919 133.778 162.317 133.778 162.806V167.258H132.503V166.342H132.451C132.367 166.51 132.24 166.676 132.071 166.839C131.902 167.002 131.686 167.138 131.421 167.245C131.156 167.353 130.839 167.407 130.469 167.407ZM130.753 166.359C131.114 166.359 131.422 166.288 131.678 166.145C131.937 166.003 132.134 165.816 132.268 165.586C132.404 165.354 132.473 165.105 132.473 164.84V163.976C132.426 164.022 132.336 164.066 132.202 164.107C132.071 164.144 131.921 164.178 131.753 164.207C131.584 164.233 131.419 164.258 131.259 164.281C131.099 164.302 130.965 164.319 130.858 164.334C130.604 164.366 130.373 164.419 130.164 164.495C129.957 164.571 129.791 164.68 129.666 164.823C129.544 164.962 129.483 165.148 129.483 165.381C129.483 165.704 129.602 165.949 129.84 166.115C130.079 166.278 130.383 166.359 130.753 166.359ZM135.517 167.258V160.553H136.778V161.618H136.848C136.97 161.257 137.186 160.974 137.494 160.767C137.806 160.557 138.158 160.453 138.551 160.453C138.632 160.453 138.728 160.456 138.839 160.461C138.952 160.467 139.041 160.475 139.105 160.483V161.732C139.053 161.717 138.96 161.701 138.826 161.684C138.692 161.663 138.558 161.653 138.424 161.653C138.116 161.653 137.841 161.719 137.599 161.85C137.36 161.978 137.171 162.157 137.031 162.387C136.892 162.614 136.822 162.873 136.822 163.164V167.258H135.517Z" fill="white"/>
<path d="M62.912 124.786L22.6804 136.583L35.6598 124.021L62.912 124.786Z" fill="#B9B9B9"/>
<path d="M178.79 116.216L137.935 106.8L155.403 102.204L178.79 116.216Z" fill="#B9B9B9"/>
<path d="M39.6485 133.776L67.9424 146.67L59.5732 133.798L39.6485 133.776Z" fill="#B9B9B9"/>
<path d="M143.976 150.508L214.639 145.992L185.761 131.595L143.976 150.508Z" fill="#B9B9B9"/>
<path d="M174.856 95.0384L197.508 116.338L193.717 101.46L174.856 95.0384Z" fill="#B9B9B9"/>
<path d="M127.475 143.674L182.989 129.442L160.971 126.294L127.475 143.674Z" fill="#B9B9B9"/>
<path d="M122.351 115.035L152.559 122.402L141.927 111.325L122.351 115.035Z" fill="#B9B9B9"/>
<path d="M60.375 135.968L179.982 135.266L137.679 119.891L60.375 135.968Z" fill="#B9B9B9"/>
<path d="M215.759 123.101L140.401 140.197L168.497 142.609L215.759 123.101Z" fill="#B9B9B9"/>
<path d="M136.32 125.894L205.513 117.766L180.247 112.121L136.32 125.894Z" fill="#B9B9B9"/>
<path d="M142.322 93.9004L42.8149 124.347L74.3886 105.705L142.322 93.9004Z" fill="#B9B9B9"/>
<path d="M75.0186 113.099L17.8193 128.522L36.0979 114.777L75.0186 113.099Z" fill="#B9B9B9"/>
<path d="M117.809 111.71L52.5228 125.178L79.0831 131.89L117.809 111.71Z" fill="#B9B9B9"/>
<path d="M78.7801 150.895L15.6001 131.893L35.4242 146.383L78.7801 150.895Z" fill="#B9B9B9"/>
<path d="M127.733 134.913L67.3637 151.44L74.3404 141.171L127.733 134.913Z" fill="#B9B9B9"/>
<path d="M106.502 145.253L138.711 128.932L136.936 138.83L106.502 145.253Z" fill="#B9B9B9"/>
<path d="M89.4004 103.382L27.2991 111.19L35.6601 102.013L89.4004 103.382Z" fill="#B9B9B9"/>
<path d="M128.813 132.678L185.388 125.866L176.552 121.832L128.813 132.678Z" fill="#B9B9B9"/>
<path d="M54.6813 115.127L139.743 100.708L128.608 110.786L54.6813 115.127Z" fill="#B9B9B9"/>
<path d="M198.895 142.244L113.034 150.017L124.94 143.857L198.895 142.244Z" fill="#B9B9B9"/>
<path d="M150.85 125.052L65.0416 116.675L77.8163 112.836L150.85 125.052Z" fill="#B9B9B9"/>
<path d="M21.5266 110.719L53.8678 109.916L49.0576 115.088L21.5266 110.719Z" fill="#B9B9B9"/>
<path d="M156.751 107.402L189.092 106.599L184.282 111.771L156.751 107.402Z" fill="#B9B9B9"/>
<path d="M180.107 121.168L212.449 120.365L207.638 125.537L180.107 121.168Z" fill="#B9B9B9"/>
<rect x="214.403" y="104.609" width="198.534" height="38.1086" rx="16" transform="rotate(-180 214.403 104.609)" fill="url(#paint1_radial_738_3302)"/>
<rect x="214.403" y="104.609" width="198.534" height="38.1086" rx="16" transform="rotate(-180 214.403 104.609)" fill="#189FB0"/>
<path d="M98.9822 89.949V81.0086H102.169C102.862 81.0086 103.436 81.1279 103.893 81.3666C104.353 81.6052 104.697 81.9355 104.924 82.3575C105.151 82.7766 105.264 83.2612 105.264 83.8112C105.264 84.3584 105.149 84.84 104.919 85.2562C104.692 85.6694 104.349 85.991 103.889 86.2209C103.432 86.4509 102.857 86.5658 102.165 86.5658H99.7505V85.4046H102.042C102.479 85.4046 102.834 85.342 103.108 85.2169C103.384 85.0917 103.586 84.9099 103.714 84.6712C103.842 84.4326 103.906 84.1459 103.906 83.8112C103.906 83.4736 103.841 83.1811 103.71 82.9338C103.582 82.6864 103.38 82.4972 103.103 82.3663C102.83 82.2324 102.47 82.1654 102.025 82.1654H100.331V89.949H98.9822ZM103.396 85.9154L105.605 89.949H104.068L101.903 85.9154H103.396ZM106.801 89.949V83.2437H108.106V89.949H106.801ZM107.46 82.2091C107.233 82.2091 107.038 82.1334 106.875 81.9821C106.715 81.8278 106.635 81.6445 106.635 81.432C106.635 81.2167 106.715 81.0333 106.875 80.882C107.038 80.7278 107.233 80.6506 107.46 80.6506C107.687 80.6506 107.88 80.7278 108.041 80.882C108.204 81.0333 108.285 81.2167 108.285 81.432C108.285 81.6445 108.204 81.8278 108.041 81.9821C107.88 82.1334 107.687 82.2091 107.46 82.2091ZM109.967 89.949V81.0086H111.272V84.3307H111.351C111.426 84.191 111.535 84.0295 111.678 83.8461C111.821 83.6628 112.019 83.5027 112.272 83.3659C112.525 83.2262 112.86 83.1564 113.276 83.1564C113.817 83.1564 114.3 83.2932 114.725 83.5668C115.15 83.8403 115.483 84.2347 115.725 84.7498C115.969 85.2649 116.092 85.8848 116.092 86.6095C116.092 87.3341 115.971 87.9555 115.729 88.4735C115.488 88.9886 115.156 89.3859 114.734 89.6653C114.312 89.9418 113.83 90.08 113.289 90.08C112.881 90.08 112.548 90.0116 112.289 89.8748C112.033 89.738 111.832 89.578 111.687 89.3946C111.541 89.2113 111.429 89.0483 111.351 88.9057H111.241V89.949H109.967ZM111.246 86.5964C111.246 87.0678 111.314 87.4811 111.451 87.8362C111.588 88.1912 111.786 88.4691 112.045 88.67C112.304 88.8679 112.621 88.9668 112.996 88.9668C113.386 88.9668 113.712 88.8635 113.974 88.6569C114.236 88.4473 114.434 88.1636 114.568 87.8056C114.705 87.4476 114.773 87.0446 114.773 86.5964C114.773 86.154 114.706 85.7568 114.572 85.4046C114.441 85.0525 114.243 84.7745 113.979 84.5708C113.717 84.3671 113.389 84.2652 112.996 84.2652C112.618 84.2652 112.298 84.3627 112.036 84.5577C111.777 84.7527 111.581 85.0248 111.447 85.374C111.313 85.7233 111.246 86.1307 111.246 86.5964ZM117.662 89.949V81.0086H118.967V84.3307H119.046C119.121 84.191 119.231 84.0295 119.373 83.8461C119.516 83.6628 119.714 83.5027 119.967 83.3659C120.22 83.2262 120.555 83.1564 120.971 83.1564C121.512 83.1564 121.995 83.2932 122.42 83.5668C122.845 83.8403 123.178 84.2347 123.42 84.7498C123.664 85.2649 123.787 85.8848 123.787 86.6095C123.787 87.3341 123.666 87.9555 123.424 88.4735C123.183 88.9886 122.851 89.3859 122.429 89.6653C122.007 89.9418 121.525 90.08 120.984 90.08C120.577 90.08 120.243 90.0116 119.984 89.8748C119.728 89.738 119.527 89.578 119.382 89.3946C119.236 89.2113 119.124 89.0483 119.046 88.9057H118.937V89.949H117.662ZM118.941 86.5964C118.941 87.0678 119.009 87.4811 119.146 87.8362C119.283 88.1912 119.481 88.4691 119.74 88.67C119.999 88.8679 120.316 88.9668 120.692 88.9668C121.082 88.9668 121.408 88.8635 121.669 88.6569C121.931 88.4473 122.129 88.1636 122.263 87.8056C122.4 87.4476 122.468 87.0446 122.468 86.5964C122.468 86.154 122.401 85.7568 122.268 85.4046C122.137 85.0525 121.939 84.7745 121.674 84.5708C121.412 84.3671 121.084 84.2652 120.692 84.2652C120.313 84.2652 119.993 84.3627 119.731 84.5577C119.472 84.7527 119.276 85.0248 119.142 85.374C119.008 85.7233 118.941 86.1307 118.941 86.5964ZM128.077 90.0844C127.448 90.0844 126.9 89.9403 126.431 89.6522C125.963 89.3641 125.599 88.961 125.34 88.443C125.081 87.9249 124.951 87.3196 124.951 86.6269C124.951 85.9314 125.081 85.3231 125.34 84.8022C125.599 84.2812 125.963 83.8767 126.431 83.5886C126.9 83.3005 127.448 83.1564 128.077 83.1564C128.705 83.1564 129.254 83.3005 129.723 83.5886C130.191 83.8767 130.555 84.2812 130.814 84.8022C131.073 85.3231 131.203 85.9314 131.203 86.6269C131.203 87.3196 131.073 87.9249 130.814 88.443C130.555 88.961 130.191 89.3641 129.723 89.6522C129.254 89.9403 128.705 90.0844 128.077 90.0844ZM128.081 88.9886C128.489 88.9886 128.826 88.881 129.094 88.6656C129.362 88.4502 129.56 88.1636 129.688 87.8056C129.819 87.4476 129.884 87.0533 129.884 86.6226C129.884 86.1948 129.819 85.8019 129.688 85.4439C129.56 85.083 129.362 84.7934 129.094 84.5752C128.826 84.3569 128.489 84.2478 128.081 84.2478C127.671 84.2478 127.33 84.3569 127.06 84.5752C126.792 84.7934 126.593 85.083 126.462 85.4439C126.334 85.8019 126.27 86.1948 126.27 86.6226C126.27 87.0533 126.334 87.4476 126.462 87.8056C126.593 88.1636 126.792 88.4502 127.06 88.6656C127.33 88.881 127.671 88.9886 128.081 88.9886ZM133.965 85.9677V89.949H132.659V83.2437H133.912V84.3351H133.995C134.15 83.98 134.391 83.6948 134.72 83.4794C135.052 83.2641 135.469 83.1564 135.973 83.1564C136.43 83.1564 136.83 83.2524 137.173 83.4445C137.517 83.6337 137.783 83.916 137.972 84.2914C138.161 84.6668 138.256 85.131 138.256 85.684V89.949H136.951V85.8411C136.951 85.3551 136.824 84.9753 136.571 84.7018C136.318 84.4253 135.97 84.287 135.528 84.287C135.225 84.287 134.956 84.3525 134.72 84.4835C134.487 84.6145 134.302 84.8065 134.166 85.0597C134.032 85.31 133.965 85.6127 133.965 85.9677Z" fill="white"/>
<g filter="url(#filter0_f_738_3302)">
<path d="M92 104.79L65.9636 113.138L126.814 108.528L74.5688 127.582H180.904L151.708 138.339L195.656 142.949L145.561 151.246" stroke="#E66868" stroke-width="6.14655"/>
</g>
<g filter="url(#filter1_f_738_3302)">
<path d="M147.098 165.384L154.284 148.788H139.912L147.098 165.384Z" fill="#E66868"/>
</g>
<path d="M146.791 159.237L151.049 149.556H142.532L146.791 159.237Z" fill="white"/>
<g filter="url(#filter2_f_738_3302)">
<ellipse cx="94.4198" cy="100.085" rx="9.21982" ry="9.69478" fill="#E66868"/>
</g>
<ellipse cx="94.1122" cy="100.839" rx="7.06853" ry="7.37586" fill="white"/>
<path d="M92.6551 104.14C91.9944 104.14 91.4255 103.999 90.9482 103.717C90.4738 103.432 90.1071 103.031 89.8481 102.516C89.592 101.998 89.4639 101.391 89.4639 100.696C89.4639 100.009 89.592 99.4037 89.8481 98.8798C90.1071 98.356 90.468 97.9471 90.9307 97.6532C91.3964 97.3592 91.9406 97.2122 92.5634 97.2122C92.9417 97.2122 93.3084 97.2748 93.6635 97.4C94.0186 97.5251 94.3372 97.7215 94.6195 97.9893C94.9018 98.257 95.1245 98.6048 95.2874 99.0326C95.4504 99.4575 95.5319 99.9741 95.5319 100.582V101.045H90.2017V100.067H94.2528C94.2528 99.7238 94.183 99.4197 94.0433 99.1549C93.9036 98.8871 93.7071 98.6761 93.454 98.5219C93.2037 98.3676 92.9097 98.2905 92.5721 98.2905C92.2054 98.2905 91.8853 98.3807 91.6117 98.5612C91.3411 98.7387 91.1315 98.9715 90.9831 99.2596C90.8376 99.5449 90.7648 99.8548 90.7648 100.189V100.953C90.7648 101.402 90.8434 101.783 91.0006 102.097C91.1606 102.411 91.3833 102.652 91.6685 102.817C91.9537 102.98 92.2869 103.062 92.6682 103.062C92.9155 103.062 93.1411 103.027 93.3448 102.957C93.5485 102.884 93.7246 102.777 93.873 102.634C94.0215 102.492 94.135 102.315 94.2135 102.106L95.449 102.329C95.35 102.692 95.1725 103.011 94.9164 103.285C94.6632 103.555 94.3445 103.766 93.9603 103.918C93.5791 104.066 93.144 104.14 92.6551 104.14ZM100.791 96.8368V97.7317H96.8448V96.8368H100.791Z" fill="#10BAD1"/>
<path d="M91.6 103.99L65.9636 113.138L126.814 108.528L74.5688 127.582H180.904L151.708 138.339L195.656 142.949L145.561 151.246" stroke="white" stroke-width="1.84396"/>
<rect x="0.399902" y="176.1" width="230.4" height="40" fill="#115C7B"/>
<path d="M116.087 197.41H114.712C114.659 197.116 114.561 196.858 114.417 196.635C114.273 196.411 114.096 196.222 113.888 196.066C113.679 195.911 113.446 195.793 113.187 195.714C112.932 195.634 112.66 195.595 112.372 195.595C111.852 195.595 111.386 195.726 110.975 195.987C110.567 196.248 110.244 196.632 110.006 197.137C109.771 197.642 109.653 198.259 109.653 198.988C109.653 199.722 109.771 200.342 110.006 200.847C110.244 201.353 110.568 201.734 110.98 201.993C111.391 202.252 111.854 202.381 112.368 202.381C112.653 202.381 112.923 202.343 113.178 202.266C113.437 202.187 113.671 202.071 113.879 201.918C114.088 201.765 114.264 201.579 114.408 201.358C114.555 201.135 114.656 200.88 114.712 200.592L116.087 200.596C116.013 201.04 115.871 201.448 115.659 201.821C115.451 202.191 115.182 202.512 114.853 202.782C114.527 203.049 114.154 203.256 113.734 203.403C113.314 203.55 112.855 203.623 112.359 203.623C111.577 203.623 110.881 203.438 110.27 203.068C109.659 202.695 109.177 202.162 108.825 201.469C108.475 200.775 108.3 199.948 108.3 198.988C108.3 198.024 108.477 197.197 108.829 196.507C109.182 195.814 109.664 195.282 110.275 194.912C110.886 194.539 111.58 194.352 112.359 194.352C112.838 194.352 113.284 194.421 113.698 194.559C114.116 194.694 114.49 194.894 114.822 195.159C115.154 195.42 115.429 195.74 115.646 196.119C115.863 196.495 116.01 196.926 116.087 197.41ZM120.527 203.637C119.861 203.637 119.286 203.494 118.804 203.209C118.326 202.921 117.955 202.517 117.694 201.997C117.436 201.475 117.306 200.862 117.306 200.16C117.306 199.467 117.436 198.856 117.694 198.327C117.955 197.798 118.32 197.385 118.787 197.089C119.257 196.792 119.806 196.644 120.435 196.644C120.817 196.644 121.187 196.707 121.545 196.833C121.904 196.959 122.225 197.158 122.51 197.428C122.795 197.698 123.02 198.049 123.184 198.481C123.349 198.91 123.431 199.431 123.431 200.045V200.512H118.051V199.525H122.14C122.14 199.179 122.07 198.872 121.929 198.604C121.788 198.334 121.589 198.121 121.334 197.965C121.081 197.81 120.784 197.732 120.444 197.732C120.074 197.732 119.75 197.823 119.474 198.005C119.201 198.184 118.99 198.419 118.84 198.71C118.693 198.998 118.619 199.311 118.619 199.649V200.42C118.619 200.872 118.699 201.257 118.857 201.574C119.019 201.892 119.244 202.134 119.532 202.301C119.819 202.466 120.156 202.548 120.541 202.548C120.79 202.548 121.018 202.513 121.224 202.442C121.429 202.369 121.607 202.26 121.757 202.116C121.907 201.972 122.021 201.795 122.101 201.583L123.348 201.808C123.248 202.175 123.068 202.497 122.81 202.773C122.554 203.046 122.233 203.259 121.845 203.412C121.46 203.562 121.021 203.637 120.527 203.637ZM126.211 194.476V203.5H124.893V194.476H126.211ZM129.301 194.476V203.5H127.983V194.476H129.301Z" fill="white"/>
<defs>
<filter id="filter0_f_738_3302" x="62.5668" y="99.4051" width="136.05" height="57.332" filterUnits="userSpaceOnUse" color-interpolation-filters="sRGB">
<feFlood flood-opacity="0" result="BackgroundImageFix"/>
<feBlend mode="normal" in="SourceGraphic" in2="BackgroundImageFix" result="shape"/>
<feGaussianBlur stdDeviation="1.22931" result="effect1_foregroundBlur_738_3302"/>
</filter>
<filter id="filter1_f_738_3302" x="137.453" y="146.329" width="19.2893" height="21.5129" filterUnits="userSpaceOnUse" color-interpolation-filters="sRGB">
<feFlood flood-opacity="0" result="BackgroundImageFix"/>
<feBlend mode="normal" in="SourceGraphic" in2="BackgroundImageFix" result="shape"/>
<feGaussianBlur stdDeviation="1.22931" result="effect1_foregroundBlur_738_3302"/>
</filter>
<filter id="filter2_f_738_3302" x="82.7413" y="87.9316" width="23.3569" height="24.3068" filterUnits="userSpaceOnUse" color-interpolation-filters="sRGB">
<feFlood flood-opacity="0" result="BackgroundImageFix"/>
<feBlend mode="normal" in="SourceGraphic" in2="BackgroundImageFix" result="shape"/>
<feGaussianBlur stdDeviation="1.22931" result="effect1_foregroundBlur_738_3302"/>
</filter>
<linearGradient id="paint0_linear_738_3302" x1="115.136" y1="150.017" x2="115.136" y2="176.313" gradientUnits="userSpaceOnUse">
<stop stop-color="#1B8842"/>
<stop offset="1" stop-color="#15779F"/>
</linearGradient>
<radialGradient id="paint1_radial_738_3302" cx="0" cy="0" r="1" gradientUnits="userSpaceOnUse" gradientTransform="translate(342.102 119.267) rotate(140.486) scale(36.8558 81.9432)">
<stop stop-color="#FFF5D2"/>
<stop offset="1" stop-color="#8D7932"/>
</radialGradient>
</defs>
</svg>
