<svg width="163" height="163" viewBox="0 0 163 163" fill="none" xmlns="http://www.w3.org/2000/svg">
<circle cx="81.0762" cy="81.2744" r="81" fill="url(#paint0_radial_666_3554)"/>
<circle cx="81.0752" cy="81.2744" r="70.4348" fill="url(#paint1_radial_666_3554)"/>
<path d="M162.076 81.2744C162.076 94.5949 158.791 107.71 152.512 119.458C146.233 131.205 137.153 141.223 126.077 148.623C115.002 156.024 102.272 160.579 89.0156 161.884C75.7592 163.19 62.3854 161.206 50.0788 156.109C37.7722 151.011 26.9128 142.957 18.4623 132.66C10.0119 122.363 4.23127 110.141 1.63256 97.0767C-0.966143 84.0121 -0.30274 70.5083 3.56401 57.7613C7.43076 45.0144 14.3815 33.4178 23.8005 23.9988L81.0762 81.2744H162.076Z" fill="url(#paint2_radial_666_3554)"/>
<path d="M81.26 63.9875V54.2353H84.5552C85.3203 54.2353 85.9457 54.3734 86.4314 54.6496C86.9203 54.9226 87.2822 55.2924 87.5171 55.7591C87.752 56.2257 87.8695 56.7464 87.8695 57.321C87.8695 57.8956 87.752 58.4178 87.5171 58.8876C87.2854 59.3574 86.9266 59.732 86.4409 60.0114C85.9552 60.2876 85.333 60.4257 84.5743 60.4257H82.2124V59.3781H84.5362C85.06 59.3781 85.4806 59.2876 85.7981 59.1067C86.1155 58.9257 86.3457 58.6813 86.4886 58.3733C86.6346 58.0622 86.7076 57.7114 86.7076 57.321C86.7076 56.9305 86.6346 56.5813 86.4886 56.2734C86.3457 55.9654 86.114 55.7242 85.7933 55.5495C85.4727 55.3718 85.0473 55.2829 84.5171 55.2829H82.441V63.9875H81.26ZM92.5123 64.1399C91.852 64.1399 91.2726 63.9828 90.7742 63.6685C90.279 63.3542 89.8917 62.9145 89.6123 62.3495C89.3361 61.7844 89.198 61.1241 89.198 60.3685C89.198 59.6066 89.3361 58.9416 89.6123 58.3733C89.8917 57.8051 90.279 57.3638 90.7742 57.0495C91.2726 56.7353 91.852 56.5781 92.5123 56.5781C93.1726 56.5781 93.7504 56.7353 94.2456 57.0495C94.744 57.3638 95.1313 57.8051 95.4075 58.3733C95.6869 58.9416 95.8265 59.6066 95.8265 60.3685C95.8265 61.1241 95.6869 61.7844 95.4075 62.3495C95.1313 62.9145 94.744 63.3542 94.2456 63.6685C93.7504 63.9828 93.1726 64.1399 92.5123 64.1399ZM92.5123 63.1304C93.0139 63.1304 93.4266 63.0018 93.7504 62.7447C94.0742 62.4876 94.3139 62.1495 94.4694 61.7304C94.625 61.3114 94.7027 60.8574 94.7027 60.3685C94.7027 59.8797 94.625 59.4241 94.4694 59.0019C94.3139 58.5797 94.0742 58.2384 93.7504 57.9781C93.4266 57.7178 93.0139 57.5876 92.5123 57.5876C92.0107 57.5876 91.598 57.7178 91.2742 57.9781C90.9504 58.2384 90.7107 58.5797 90.5552 59.0019C90.3996 59.4241 90.3218 59.8797 90.3218 60.3685C90.3218 60.8574 90.3996 61.3114 90.5552 61.7304C90.7107 62.1495 90.9504 62.4876 91.2742 62.7447C91.598 63.0018 92.0107 63.1304 92.5123 63.1304ZM98.6658 54.2353V63.9875H97.542V54.2353H98.6658ZM101.448 66.7304C101.257 66.7304 101.088 66.7145 100.938 66.6828C100.789 66.6542 100.686 66.6256 100.629 66.597L100.915 65.6066C101.188 65.6764 101.429 65.7018 101.638 65.6828C101.848 65.6637 102.034 65.5701 102.196 65.4018C102.361 65.2367 102.511 64.9685 102.648 64.5971L102.857 64.0256L100.153 56.6733H101.372L103.391 62.5019H103.467L105.486 56.6733H106.705L103.6 65.0542C103.461 65.432 103.288 65.7447 103.081 65.9923C102.875 66.2431 102.635 66.4288 102.362 66.5494C102.092 66.6701 101.788 66.7304 101.448 66.7304ZM108.188 63.9875V56.6733H109.274V57.8162H109.369C109.522 57.4257 109.768 57.1225 110.107 56.9067C110.447 56.6876 110.855 56.5781 111.331 56.5781C111.814 56.5781 112.215 56.6876 112.536 56.9067C112.86 57.1225 113.112 57.4257 113.293 57.8162H113.369C113.556 57.4384 113.837 57.1384 114.212 56.9162C114.587 56.6908 115.036 56.5781 115.56 56.5781C116.214 56.5781 116.749 56.7829 117.164 57.1924C117.58 57.5987 117.788 58.2321 117.788 59.0924V63.9875H116.664V59.0924C116.664 58.5527 116.517 58.167 116.222 57.9352C115.926 57.7035 115.579 57.5876 115.179 57.5876C114.664 57.5876 114.266 57.7432 113.983 58.0543C113.701 58.3622 113.56 58.7527 113.56 59.2257V63.9875H112.417V58.9781C112.417 58.5622 112.282 58.2273 112.012 57.9733C111.742 57.7162 111.395 57.5876 110.969 57.5876C110.677 57.5876 110.404 57.6654 110.15 57.821C109.899 57.9765 109.696 58.1924 109.541 58.4686C109.388 58.7416 109.312 59.0574 109.312 59.4162V63.9875H108.188ZM122.91 64.1399C122.205 64.1399 121.597 63.9844 121.086 63.6733C120.578 63.359 120.186 62.9209 119.91 62.359C119.637 61.7939 119.5 61.1368 119.5 60.3876C119.5 59.6384 119.637 58.9781 119.91 58.4067C120.186 57.8321 120.57 57.3844 121.062 57.0638C121.557 56.74 122.135 56.5781 122.795 56.5781C123.176 56.5781 123.552 56.6416 123.924 56.7686C124.295 56.8956 124.633 57.1019 124.938 57.3876C125.243 57.6702 125.486 58.0448 125.667 58.5114C125.848 58.9781 125.938 59.5527 125.938 60.2352V60.7114H120.3V59.74H124.795C124.795 59.3273 124.713 58.959 124.548 58.6352C124.386 58.3114 124.154 58.0559 123.852 57.8686C123.554 57.6813 123.202 57.5876 122.795 57.5876C122.348 57.5876 121.96 57.6987 121.633 57.921C121.31 58.14 121.06 58.4257 120.886 58.7781C120.711 59.1305 120.624 59.5082 120.624 59.9114V60.559C120.624 61.1114 120.719 61.5796 120.91 61.9638C121.103 62.3447 121.371 62.6352 121.714 62.8352C122.057 63.032 122.456 63.1304 122.91 63.1304C123.205 63.1304 123.471 63.0891 123.71 63.0066C123.951 62.9209 124.159 62.7939 124.333 62.6257C124.508 62.4542 124.643 62.2415 124.738 61.9876L125.824 62.2923C125.71 62.6606 125.517 62.9844 125.248 63.2637C124.978 63.5399 124.644 63.7558 124.248 63.9114C123.851 64.0637 123.405 64.1399 122.91 64.1399ZM127.648 63.9875V56.6733H128.733V57.7781H128.81C128.943 57.4162 129.184 57.1225 129.533 56.8972C129.883 56.6718 130.276 56.5591 130.714 56.5591C130.797 56.5591 130.9 56.5606 131.024 56.5638C131.148 56.567 131.241 56.5718 131.305 56.5781V57.721C131.267 57.7114 131.179 57.6971 131.043 57.6781C130.909 57.6559 130.768 57.6448 130.619 57.6448C130.263 57.6448 129.946 57.7194 129.667 57.8686C129.39 58.0146 129.171 58.2178 129.009 58.4781C128.851 58.7352 128.771 59.0289 128.771 59.359V63.9875H127.648Z" fill="black"/>
<path d="M89.6974 104.948V114.7H88.5545L83.2403 107.043H83.1451V114.7H81.9641V104.948H83.107L88.4403 112.624H88.5355V104.948H89.6974ZM91.9081 114.7V107.386H93.0319V114.7H91.9081ZM92.4795 106.167C92.2605 106.167 92.0716 106.093 91.9128 105.943C91.7573 105.794 91.6795 105.615 91.6795 105.405C91.6795 105.196 91.7573 105.016 91.9128 104.867C92.0716 104.718 92.2605 104.643 92.4795 104.643C92.6985 104.643 92.8858 104.718 93.0414 104.867C93.2001 105.016 93.2795 105.196 93.2795 105.405C93.2795 105.615 93.2001 105.794 93.0414 105.943C92.8858 106.093 92.6985 106.167 92.4795 106.167ZM98.0616 114.853C97.3759 114.853 96.7854 114.691 96.2902 114.367C95.7949 114.043 95.414 113.597 95.1473 113.029C94.8807 112.461 94.7473 111.812 94.7473 111.081C94.7473 110.339 94.8838 109.683 95.1568 109.115C95.433 108.543 95.8172 108.097 96.3092 107.777C96.8044 107.453 97.3822 107.291 98.0425 107.291C98.5568 107.291 99.0203 107.386 99.433 107.577C99.8457 107.767 100.184 108.034 100.447 108.377C100.711 108.72 100.874 109.12 100.938 109.577H99.8139C99.7282 109.243 99.5378 108.948 99.2425 108.691C98.9505 108.431 98.5568 108.301 98.0616 108.301C97.6235 108.301 97.2394 108.415 96.9092 108.643C96.5822 108.869 96.3267 109.188 96.1426 109.6C95.9616 110.01 95.8711 110.491 95.8711 111.043C95.8711 111.608 95.96 112.1 96.1378 112.52C96.3187 112.939 96.5727 113.264 96.8997 113.496C97.2298 113.727 97.6171 113.843 98.0616 113.843C98.3536 113.843 98.6187 113.793 98.8568 113.691C99.0949 113.589 99.2965 113.443 99.4616 113.253C99.6266 113.062 99.7441 112.834 99.8139 112.567H100.938C100.874 112.999 100.717 113.388 100.466 113.734C100.219 114.077 99.8901 114.35 99.4806 114.553C99.0743 114.753 98.6013 114.853 98.0616 114.853ZM103.628 112.034L103.609 110.643H103.838L107.038 107.386H108.428L105.019 110.834H104.923L103.628 112.034ZM102.581 114.7V104.948H103.704V114.7H102.581ZM107.228 114.7L104.371 111.081L105.171 110.3L108.657 114.7H107.228ZM112.64 114.853C111.935 114.853 111.327 114.697 110.816 114.386C110.308 114.072 109.916 113.634 109.64 113.072C109.367 112.507 109.23 111.85 109.23 111.1C109.23 110.351 109.367 109.691 109.64 109.12C109.916 108.545 110.3 108.097 110.792 107.777C111.288 107.453 111.865 107.291 112.526 107.291C112.907 107.291 113.283 107.354 113.654 107.481C114.026 107.608 114.364 107.815 114.669 108.101C114.973 108.383 115.216 108.758 115.397 109.224C115.578 109.691 115.669 110.266 115.669 110.948V111.424H110.03V110.453H114.526C114.526 110.04 114.443 109.672 114.278 109.348C114.116 109.024 113.884 108.769 113.583 108.581C113.284 108.394 112.932 108.301 112.526 108.301C112.078 108.301 111.691 108.412 111.364 108.634C111.04 108.853 110.791 109.139 110.616 109.491C110.442 109.843 110.354 110.221 110.354 110.624V111.272C110.354 111.824 110.45 112.293 110.64 112.677C110.834 113.058 111.102 113.348 111.445 113.548C111.788 113.745 112.186 113.843 112.64 113.843C112.935 113.843 113.202 113.802 113.44 113.719C113.681 113.634 113.889 113.507 114.064 113.339C114.238 113.167 114.373 112.954 114.469 112.7L115.554 113.005C115.44 113.373 115.248 113.697 114.978 113.977C114.708 114.253 114.375 114.469 113.978 114.624C113.581 114.777 113.135 114.853 112.64 114.853ZM118.502 104.948V114.7H117.378V104.948H118.502ZM120.96 110.586C120.96 109.386 121.116 108.283 121.427 107.277C121.741 106.267 122.189 105.339 122.77 104.491H123.76C123.532 104.805 123.317 105.193 123.117 105.653C122.92 106.11 122.747 106.613 122.598 107.162C122.449 107.708 122.332 108.274 122.246 108.858C122.163 109.442 122.122 110.018 122.122 110.586C122.122 111.342 122.195 112.108 122.341 112.886C122.487 113.664 122.684 114.386 122.932 115.053C123.179 115.719 123.455 116.262 123.76 116.681H122.77C122.189 115.834 121.741 114.907 121.427 113.9C121.116 112.891 120.96 111.786 120.96 110.586ZM133.304 104.948V114.7H132.161L126.847 107.043H126.752V114.7H125.571V104.948H126.714L132.047 112.624H132.142V104.948H133.304ZM135.515 114.7V107.386H136.639V114.7H135.515ZM136.086 106.167C135.867 106.167 135.678 106.093 135.519 105.943C135.364 105.794 135.286 105.615 135.286 105.405C135.286 105.196 135.364 105.016 135.519 104.867C135.678 104.718 135.867 104.643 136.086 104.643C136.305 104.643 136.492 104.718 136.648 104.867C136.807 105.016 136.886 105.196 136.886 105.405C136.886 105.615 136.807 105.794 136.648 105.943C136.492 106.093 136.305 106.167 136.086 106.167ZM141.555 110.586C141.555 111.786 141.398 112.891 141.084 113.9C140.773 114.907 140.327 115.834 139.746 116.681H138.755C138.984 116.367 139.196 115.98 139.393 115.519C139.593 115.062 139.768 114.561 139.917 114.015C140.066 113.466 140.182 112.899 140.265 112.315C140.35 111.727 140.393 111.151 140.393 110.586C140.393 109.831 140.32 109.064 140.174 108.286C140.028 107.508 139.831 106.786 139.584 106.12C139.336 105.453 139.06 104.91 138.755 104.491H139.746C140.327 105.339 140.773 106.267 141.084 107.277C141.398 108.283 141.555 109.386 141.555 110.586Z" fill="black"/>
<defs>
<radialGradient id="paint0_radial_666_3554" cx="0" cy="0" r="1" gradientUnits="userSpaceOnUse" gradientTransform="translate(81.0762 81.2744) rotate(90) scale(81)">
<stop offset="0.189998" stop-color="#A5BDCE"/>
<stop offset="1" stop-color="#616A6D"/>
</radialGradient>
<radialGradient id="paint1_radial_666_3554" cx="0" cy="0" r="1" gradientUnits="userSpaceOnUse" gradientTransform="translate(105.767 59.783) rotate(130.515) scale(85.0642)">
<stop stop-color="#D2F7E5"/>
<stop offset="1" stop-color="#A8D1E3"/>
</radialGradient>
<radialGradient id="paint2_radial_666_3554" cx="0" cy="0" r="1" gradientUnits="userSpaceOnUse" gradientTransform="translate(81.0762 81.2744) rotate(90) scale(81)">
<stop offset="0.189998" stop-color="#A5BDCE"/>
<stop offset="1" stop-color="#616A6D"/>
</radialGradient>
</defs>
</svg>
