<svg width="454" height="190" viewBox="0 0 454 190" fill="none" xmlns="http://www.w3.org/2000/svg">
<rect y="35.4999" width="454" height="140" rx="25.9651" fill="#D2E5F3"/>
<ellipse cx="110.5" cy="108.5" rx="27.5" ry="18" fill="url(#paint0_radial_846_401)"/>
<ellipse cx="350.5" cy="108" rx="27.5" ry="18.5" fill="url(#paint1_radial_846_401)"/>
<circle cx="231.503" cy="127.718" r="22.5031" fill="url(#paint2_radial_846_401)"/>
<rect x="454" y="50.1614" width="453.999" height="50" rx="4.32752" transform="rotate(-180 454 50.1614)" fill="#728389"/>
<path d="M219.543 19.7183H217.625C217.551 19.3085 217.414 18.9479 217.213 18.6365C217.012 18.325 216.766 18.0607 216.475 17.8435C216.184 17.6263 215.858 17.4624 215.498 17.3517C215.141 17.2411 214.762 17.1858 214.361 17.1858C213.635 17.1858 212.986 17.3681 212.412 17.7328C211.842 18.0976 211.392 18.6324 211.06 19.3372C210.732 20.0421 210.568 20.9027 210.568 21.919C210.568 22.9435 210.732 23.8082 211.06 24.513C211.392 25.2179 211.844 25.7506 212.418 26.1113C212.992 26.4719 213.637 26.6522 214.354 26.6522C214.752 26.6522 215.129 26.5989 215.486 26.4924C215.846 26.3817 216.172 26.2199 216.463 26.0068C216.754 25.7937 217 25.5334 217.201 25.2261C217.405 24.9146 217.547 24.5581 217.625 24.1565L219.543 24.1627C219.44 24.7815 219.241 25.3511 218.946 25.8715C218.655 26.3879 218.28 26.8346 217.821 27.2116C217.367 27.5845 216.846 27.8734 216.26 28.0783C215.674 28.2832 215.035 28.3857 214.342 28.3857C213.252 28.3857 212.281 28.1275 211.429 27.6112C210.576 27.0907 209.904 26.3469 209.412 25.3798C208.925 24.4126 208.681 23.259 208.681 21.919C208.681 20.5748 208.927 19.4212 209.418 18.4582C209.91 17.4911 210.582 16.7493 211.435 16.233C212.287 15.7125 213.256 15.4523 214.342 15.4523C215.01 15.4523 215.633 15.5486 216.211 15.7412C216.793 15.9297 217.315 16.2084 217.778 16.5772C218.241 16.9419 218.625 17.3886 218.928 17.9173C219.231 18.4418 219.436 19.0422 219.543 19.7183ZM223.506 22.6075V28.2136H221.668V15.6244H223.481V20.3085H223.598C223.819 19.8003 224.158 19.3966 224.612 19.0975C225.067 18.7983 225.661 18.6488 226.395 18.6488C227.043 18.6488 227.608 18.7819 228.092 19.0483C228.579 19.3147 228.956 19.7122 229.223 20.2408C229.493 20.7654 229.628 21.4211 229.628 22.2079V28.2136H227.79V22.4292C227.79 21.7366 227.612 21.1998 227.256 20.8187C226.899 20.4334 226.403 20.2408 225.768 20.2408C225.334 20.2408 224.944 20.333 224.6 20.5175C224.26 20.7019 223.992 20.9723 223.795 21.3289C223.602 21.6813 223.506 22.1075 223.506 22.6075ZM232.081 28.2136V18.7717H233.919V28.2136H232.081ZM233.009 17.3148C232.69 17.3148 232.415 17.2083 232.186 16.9952C231.96 16.778 231.847 16.5198 231.847 16.2207C231.847 15.9174 231.96 15.6592 232.186 15.4461C232.415 15.2289 232.69 15.1203 233.009 15.1203C233.329 15.1203 233.601 15.2289 233.827 15.4461C234.056 15.6592 234.171 15.9174 234.171 16.2207C234.171 16.5198 234.056 16.778 233.827 16.9952C233.601 17.2083 233.329 17.3148 233.009 17.3148ZM236.392 31.7543V18.7717H238.187V20.3023H238.34C238.447 20.1056 238.601 19.8782 238.801 19.62C239.002 19.3618 239.281 19.1364 239.637 18.9438C239.994 18.7471 240.465 18.6488 241.051 18.6488C241.813 18.6488 242.494 18.8414 243.092 19.2266C243.69 19.6118 244.159 20.1671 244.5 20.8924C244.844 21.6178 245.016 22.4907 245.016 23.5111C245.016 24.5315 244.846 25.4064 244.506 26.1359C244.166 26.8612 243.698 27.4206 243.104 27.814C242.51 28.2033 241.832 28.398 241.07 28.398C240.496 28.398 240.027 28.3017 239.662 28.1091C239.301 27.9165 239.019 27.6911 238.814 27.4329C238.609 27.1747 238.451 26.9452 238.34 26.7444H238.23V31.7543H236.392ZM238.193 23.4926C238.193 24.1565 238.289 24.7384 238.482 25.2384C238.674 25.7383 238.953 26.1297 239.318 26.4125C239.682 26.6911 240.129 26.8305 240.658 26.8305C241.207 26.8305 241.666 26.685 242.035 26.394C242.403 26.099 242.682 25.6994 242.871 25.1954C243.063 24.6913 243.16 24.1237 243.16 23.4926C243.16 22.8697 243.065 22.3103 242.877 21.8145C242.692 21.3186 242.414 20.9273 242.041 20.6404C241.672 20.3535 241.211 20.2101 240.658 20.2101C240.125 20.2101 239.674 20.3474 239.305 20.622C238.941 20.8965 238.664 21.2797 238.476 21.7715C238.287 22.2632 238.193 22.8369 238.193 23.4926Z" fill="white"/>
<rect y="149.5" width="454" height="40" rx="4.32752" fill="#728389"/>
<path d="M200.569 164.594C200.503 164.012 200.233 163.561 199.757 163.242C199.282 162.918 198.684 162.756 197.962 162.756C197.446 162.756 196.999 162.838 196.622 163.002C196.245 163.162 195.952 163.383 195.743 163.666C195.538 163.944 195.436 164.262 195.436 164.618C195.436 164.918 195.506 165.176 195.645 165.393C195.788 165.61 195.975 165.793 196.204 165.94C196.438 166.084 196.688 166.204 196.954 166.303C197.221 166.397 197.477 166.475 197.723 166.536L198.952 166.856C199.354 166.954 199.765 167.088 200.188 167.256C200.61 167.424 201.001 167.645 201.362 167.919C201.722 168.194 202.013 168.534 202.235 168.94C202.46 169.346 202.573 169.831 202.573 170.397C202.573 171.11 202.388 171.743 202.019 172.296C201.655 172.849 201.124 173.286 200.427 173.605C199.735 173.925 198.897 174.085 197.913 174.085C196.971 174.085 196.155 173.935 195.467 173.636C194.778 173.337 194.239 172.913 193.85 172.364C193.461 171.811 193.245 171.155 193.205 170.397H195.11C195.147 170.852 195.295 171.231 195.553 171.534C195.815 171.833 196.149 172.056 196.555 172.204C196.964 172.347 197.413 172.419 197.901 172.419C198.438 172.419 198.915 172.335 199.333 172.167C199.755 171.995 200.087 171.757 200.329 171.454C200.571 171.147 200.692 170.788 200.692 170.378C200.692 170.005 200.585 169.7 200.372 169.462C200.163 169.225 199.878 169.028 199.518 168.872C199.161 168.716 198.757 168.579 198.307 168.46L196.819 168.055C195.811 167.78 195.012 167.376 194.422 166.844C193.836 166.311 193.543 165.606 193.543 164.729C193.543 164.004 193.739 163.371 194.133 162.83C194.526 162.289 195.059 161.869 195.731 161.57C196.403 161.266 197.161 161.115 198.005 161.115C198.858 161.115 199.61 161.264 200.261 161.563C200.917 161.863 201.433 162.274 201.81 162.799C202.187 163.319 202.384 163.918 202.4 164.594H200.569ZM210.676 169.96V164.434H212.52V173.876H210.713V172.241H210.614C210.397 172.745 210.049 173.165 209.569 173.501C209.094 173.833 208.502 173.999 207.793 173.999C207.186 173.999 206.65 173.866 206.182 173.599C205.719 173.329 205.355 172.929 205.088 172.401C204.826 171.872 204.695 171.218 204.695 170.44V164.434H206.533V170.218C206.533 170.862 206.711 171.374 207.068 171.755C207.424 172.136 207.887 172.327 208.457 172.327C208.801 172.327 209.143 172.241 209.483 172.069C209.828 171.897 210.112 171.636 210.338 171.288C210.567 170.94 210.68 170.497 210.676 169.96ZM215.137 173.876V161.287H216.975V165.965H217.086C217.192 165.768 217.346 165.541 217.547 165.282C217.748 165.024 218.026 164.799 218.383 164.606C218.739 164.409 219.211 164.311 219.797 164.311C220.559 164.311 221.239 164.504 221.837 164.889C222.436 165.274 222.905 165.829 223.245 166.555C223.589 167.28 223.761 168.153 223.761 169.173C223.761 170.194 223.591 171.069 223.251 171.798C222.911 172.524 222.444 173.083 221.85 173.476C221.256 173.866 220.577 174.06 219.815 174.06C219.241 174.06 218.772 173.964 218.407 173.771C218.047 173.579 217.764 173.353 217.559 173.095C217.354 172.837 217.196 172.608 217.086 172.407H216.932V173.876H215.137ZM216.938 169.155C216.938 169.819 217.035 170.401 217.227 170.901C217.42 171.401 217.698 171.792 218.063 172.075C218.428 172.353 218.875 172.493 219.403 172.493C219.952 172.493 220.411 172.347 220.78 172.056C221.149 171.761 221.428 171.362 221.616 170.858C221.809 170.354 221.905 169.786 221.905 169.155C221.905 168.532 221.811 167.973 221.622 167.477C221.438 166.981 221.159 166.59 220.786 166.303C220.418 166.016 219.956 165.872 219.403 165.872C218.87 165.872 218.42 166.01 218.051 166.284C217.686 166.559 217.41 166.942 217.221 167.434C217.033 167.926 216.938 168.499 216.938 169.155ZM232.901 166.739L231.235 167.034C231.165 166.821 231.054 166.618 230.903 166.426C230.755 166.233 230.555 166.075 230.3 165.952C230.046 165.829 229.729 165.768 229.348 165.768C228.827 165.768 228.393 165.885 228.044 166.118C227.696 166.348 227.522 166.645 227.522 167.01C227.522 167.325 227.639 167.579 227.872 167.772C228.106 167.965 228.483 168.122 229.003 168.245L230.503 168.589C231.372 168.79 232.02 169.1 232.446 169.518C232.872 169.936 233.085 170.479 233.085 171.147C233.085 171.712 232.921 172.216 232.593 172.659C232.27 173.097 231.817 173.442 231.235 173.692C230.657 173.941 229.987 174.066 229.225 174.066C228.167 174.066 227.305 173.841 226.637 173.39C225.969 172.935 225.559 172.29 225.407 171.454L227.184 171.184C227.295 171.647 227.522 171.997 227.866 172.235C228.21 172.468 228.659 172.585 229.212 172.585C229.815 172.585 230.296 172.46 230.657 172.21C231.018 171.956 231.198 171.647 231.198 171.282C231.198 170.987 231.087 170.739 230.866 170.538C230.649 170.337 230.315 170.186 229.864 170.083L228.266 169.733C227.385 169.532 226.733 169.212 226.311 168.774C225.893 168.335 225.684 167.78 225.684 167.108C225.684 166.551 225.84 166.063 226.151 165.645C226.463 165.227 226.893 164.901 227.442 164.668C227.991 164.43 228.62 164.311 229.329 164.311C230.35 164.311 231.153 164.532 231.739 164.975C232.325 165.413 232.712 166.002 232.901 166.739ZM239.513 164.434V165.909H234.356V164.434H239.513ZM235.739 162.172H237.577V171.104C237.577 171.46 237.63 171.729 237.737 171.909C237.843 172.085 237.981 172.206 238.149 172.272C238.321 172.333 238.507 172.364 238.708 172.364C238.856 172.364 238.985 172.353 239.095 172.333C239.206 172.313 239.292 172.296 239.353 172.284L239.685 173.802C239.579 173.843 239.427 173.884 239.231 173.925C239.034 173.97 238.788 173.995 238.493 173.999C238.009 174.007 237.559 173.921 237.141 173.741C236.723 173.56 236.384 173.282 236.126 172.905C235.868 172.528 235.739 172.054 235.739 171.485V162.172ZM241.546 173.876V164.434H243.323V165.934H243.421C243.593 165.426 243.897 165.026 244.331 164.735C244.77 164.44 245.265 164.293 245.819 164.293C245.933 164.293 246.069 164.297 246.224 164.305C246.384 164.313 246.509 164.323 246.599 164.336V166.094C246.526 166.073 246.394 166.051 246.206 166.026C246.017 165.997 245.829 165.983 245.64 165.983C245.206 165.983 244.819 166.075 244.479 166.26C244.143 166.44 243.876 166.692 243.679 167.016C243.483 167.335 243.384 167.7 243.384 168.11V173.876H241.546ZM250.853 174.085C250.255 174.085 249.714 173.974 249.23 173.753C248.747 173.528 248.364 173.202 248.081 172.776C247.802 172.349 247.663 171.827 247.663 171.208C247.663 170.675 247.765 170.237 247.97 169.893C248.175 169.548 248.452 169.276 248.8 169.075C249.148 168.874 249.538 168.723 249.968 168.62C250.398 168.518 250.837 168.44 251.283 168.387C251.849 168.321 252.308 168.268 252.66 168.227C253.013 168.182 253.269 168.11 253.429 168.012C253.589 167.913 253.668 167.753 253.668 167.532V167.489C253.668 166.952 253.517 166.536 253.214 166.241C252.914 165.946 252.468 165.799 251.873 165.799C251.255 165.799 250.767 165.936 250.41 166.211C250.058 166.481 249.814 166.782 249.679 167.114L247.952 166.721C248.157 166.147 248.456 165.684 248.849 165.332C249.247 164.975 249.704 164.717 250.22 164.557C250.736 164.393 251.279 164.311 251.849 164.311C252.226 164.311 252.625 164.356 253.048 164.446C253.474 164.532 253.871 164.692 254.24 164.926C254.613 165.159 254.918 165.493 255.156 165.928C255.394 166.358 255.513 166.917 255.513 167.606V173.876H253.718V172.585H253.644C253.525 172.823 253.347 173.056 253.109 173.286C252.871 173.515 252.566 173.706 252.193 173.857C251.82 174.009 251.374 174.085 250.853 174.085ZM251.253 172.61C251.761 172.61 252.195 172.509 252.556 172.308C252.921 172.108 253.197 171.845 253.386 171.522C253.578 171.194 253.675 170.843 253.675 170.47V169.253C253.609 169.319 253.482 169.38 253.293 169.438C253.109 169.491 252.898 169.538 252.66 169.579C252.423 169.616 252.191 169.651 251.966 169.684C251.74 169.712 251.552 169.737 251.4 169.757C251.044 169.802 250.718 169.878 250.423 169.985C250.132 170.091 249.898 170.245 249.722 170.446C249.55 170.643 249.464 170.905 249.464 171.233C249.464 171.688 249.632 172.032 249.968 172.265C250.304 172.495 250.732 172.61 251.253 172.61ZM262.368 164.434V165.909H257.211V164.434H262.368ZM258.594 162.172H260.432V171.104C260.432 171.46 260.485 171.729 260.592 171.909C260.698 172.085 260.835 172.206 261.003 172.272C261.176 172.333 261.362 172.364 261.563 172.364C261.71 172.364 261.839 172.353 261.95 172.333C262.061 172.313 262.147 172.296 262.208 172.284L262.54 173.802C262.434 173.843 262.282 173.884 262.085 173.925C261.889 173.97 261.643 173.995 261.348 173.999C260.864 174.007 260.413 173.921 259.995 173.741C259.577 173.56 259.239 173.282 258.981 172.905C258.723 172.528 258.594 172.054 258.594 171.485V162.172ZM268.369 174.066C267.439 174.066 266.638 173.868 265.966 173.47C265.298 173.069 264.781 172.505 264.417 171.78C264.056 171.05 263.876 170.196 263.876 169.216C263.876 168.249 264.056 167.397 264.417 166.659C264.781 165.922 265.289 165.346 265.941 164.932C266.597 164.518 267.363 164.311 268.24 164.311C268.773 164.311 269.289 164.399 269.789 164.575C270.289 164.752 270.738 165.028 271.135 165.405C271.533 165.782 271.846 166.272 272.076 166.874C272.305 167.473 272.42 168.2 272.42 169.057V169.708H264.914V168.331H270.619C270.619 167.848 270.521 167.419 270.324 167.047C270.127 166.67 269.851 166.372 269.494 166.155C269.142 165.938 268.728 165.829 268.252 165.829C267.736 165.829 267.285 165.956 266.9 166.211C266.519 166.461 266.224 166.788 266.015 167.194C265.81 167.596 265.707 168.032 265.707 168.503V169.579C265.707 170.21 265.818 170.747 266.039 171.19C266.265 171.632 266.578 171.97 266.98 172.204C267.381 172.433 267.851 172.548 268.388 172.548C268.736 172.548 269.053 172.499 269.34 172.401C269.627 172.298 269.875 172.147 270.084 171.946C270.293 171.745 270.453 171.497 270.564 171.202L272.303 171.515C272.164 172.028 271.914 172.476 271.553 172.862C271.197 173.243 270.748 173.54 270.207 173.753C269.67 173.962 269.058 174.066 268.369 174.066Z" fill="white"/>
<rect x="40" y="50" width="132" height="40" fill="#D9D9D9"/>
<rect x="40" y="50" width="132" height="40" fill="url(#paint3_linear_846_401)"/>
<rect x="40" y="125.5" width="132" height="25" fill="#D9D9D9"/>
<rect x="40" y="125.5" width="132" height="25" fill="url(#paint4_linear_846_401)"/>
<path d="M47.3831 83.4999V70.9108H51.8704C52.8499 70.9108 53.6613 71.089 54.3047 71.4456C54.9481 71.8021 55.4296 72.2898 55.7492 72.9086C56.0689 73.5233 56.2287 74.2158 56.2287 74.9863C56.2287 75.7608 56.0668 76.4575 55.7431 77.0763C55.4234 77.691 54.9399 78.1786 54.2924 78.5393C53.649 78.8958 52.8396 79.0741 51.8643 79.0741H48.7785V77.4635H51.6922C52.311 77.4635 52.813 77.357 53.1982 77.1439C53.5834 76.9267 53.8662 76.6316 54.0465 76.2587C54.2268 75.8858 54.317 75.4616 54.317 74.9863C54.317 74.5109 54.2268 74.0888 54.0465 73.72C53.8662 73.3512 53.5814 73.0622 53.192 72.8532C52.8068 72.6442 52.2987 72.5397 51.6676 72.5397H49.2825V83.4999H47.3831ZM60.9711 83.7089C60.3728 83.7089 59.8319 83.5983 59.3483 83.377C58.8648 83.1516 58.4816 82.8258 58.1988 82.3996C57.9202 81.9734 57.7808 81.4509 57.7808 80.8321C57.7808 80.2994 57.8833 79.8609 58.0882 79.5167C58.2931 79.1724 58.5697 78.8999 58.918 78.6991C59.2664 78.4983 59.6557 78.3467 60.086 78.2442C60.5163 78.1418 60.9547 78.0639 61.4014 78.0106C61.967 77.9451 62.4259 77.8918 62.7784 77.8508C63.1308 77.8057 63.3869 77.734 63.5468 77.6357C63.7066 77.5373 63.7865 77.3775 63.7865 77.1562V77.1132C63.7865 76.5763 63.6349 76.1604 63.3316 75.8653C63.0325 75.5702 62.5858 75.4227 61.9916 75.4227C61.3727 75.4227 60.8851 75.56 60.5286 75.8346C60.1761 76.105 59.9323 76.4062 59.7971 76.7382L58.0697 76.3448C58.2746 75.771 58.5738 75.308 58.9672 74.9555C59.3647 74.599 59.8216 74.3408 60.338 74.181C60.8543 74.0171 61.3973 73.9351 61.967 73.9351C62.344 73.9351 62.7435 73.9802 63.1656 74.0704C63.5918 74.1564 63.9893 74.3162 64.3582 74.5498C64.7311 74.7834 65.0364 75.1174 65.2741 75.5518C65.5118 75.9821 65.6306 76.5415 65.6306 77.2299V83.4999H63.8357V82.2091H63.7619C63.6431 82.4467 63.4648 82.6803 63.2271 82.9098C62.9894 83.1393 62.6841 83.3299 62.3112 83.4815C61.9383 83.6331 61.4916 83.7089 60.9711 83.7089ZM61.3707 82.2336C61.8789 82.2336 62.3132 82.1332 62.6739 81.9324C63.0386 81.7316 63.3152 81.4694 63.5037 81.1456C63.6963 80.8178 63.7926 80.4674 63.7926 80.0945V78.8774C63.7271 78.9429 63.6 79.0044 63.4115 79.0618C63.2271 79.115 63.0161 79.1622 62.7784 79.2032C62.5407 79.24 62.3091 79.2749 62.0838 79.3077C61.8584 79.3363 61.6699 79.3609 61.5182 79.3814C61.1617 79.4265 60.8359 79.5023 60.5408 79.6089C60.2499 79.7154 60.0163 79.8691 59.8401 80.0699C59.668 80.2666 59.5819 80.5289 59.5819 80.8567C59.5819 81.3116 59.7499 81.6558 60.086 81.8894C60.422 82.1189 60.8502 82.2336 61.3707 82.2336ZM71.6132 83.6844C70.851 83.6844 70.1707 83.4897 69.5724 83.1004C68.9782 82.707 68.511 82.1476 68.1709 81.4222C67.8348 80.6928 67.6668 79.8179 67.6668 78.7974C67.6668 77.777 67.8369 76.9042 68.177 76.1788C68.5213 75.4535 68.9925 74.8982 69.5908 74.513C70.1892 74.1277 70.8674 73.9351 71.6255 73.9351C72.2115 73.9351 72.6828 74.0335 73.0393 74.2302C73.4 74.4228 73.6786 74.6482 73.8753 74.9064C74.0761 75.1645 74.2319 75.392 74.3425 75.5887H74.4532V70.9108H76.2911V83.4999H74.4962V82.0308H74.3425C74.2319 82.2316 74.072 82.4611 73.863 82.7193C73.6581 82.9774 73.3754 83.2028 73.0147 83.3954C72.6541 83.588 72.1869 83.6844 71.6132 83.6844ZM72.0189 82.1169C72.5476 82.1169 72.9943 81.9775 73.359 81.6989C73.7278 81.4161 74.0065 81.0247 74.195 80.5248C74.3876 80.0248 74.4839 79.4429 74.4839 78.779C74.4839 78.1233 74.3896 77.5496 74.2011 77.0578C74.0126 76.5661 73.736 76.1829 73.3713 75.9083C73.0066 75.6338 72.5558 75.4965 72.0189 75.4965C71.4657 75.4965 71.0047 75.6399 70.6358 75.9268C70.267 76.2136 69.9883 76.605 69.7998 77.1009C69.6154 77.5967 69.5232 78.1561 69.5232 78.779C69.5232 79.4101 69.6175 79.9777 69.806 80.4817C69.9945 80.9858 70.2732 81.3854 70.642 81.6804C71.0149 81.9714 71.4739 82.1169 72.0189 82.1169Z" fill="white"/>
<path d="M46.3831 143.5V130.911H50.8704C51.8499 130.911 52.6613 131.089 53.3047 131.446C53.9481 131.802 54.4296 132.29 54.7492 132.909C55.0689 133.523 55.2287 134.216 55.2287 134.986C55.2287 135.761 55.0668 136.457 54.7431 137.076C54.4234 137.691 53.9399 138.179 53.2924 138.539C52.649 138.896 51.8396 139.074 50.8643 139.074H47.7785V137.464H50.6922C51.311 137.464 51.813 137.357 52.1982 137.144C52.5834 136.927 52.8662 136.632 53.0465 136.259C53.2268 135.886 53.317 135.462 53.317 134.986C53.317 134.511 53.2268 134.089 53.0465 133.72C52.8662 133.351 52.5814 133.062 52.192 132.853C51.8068 132.644 51.2987 132.54 50.6676 132.54H48.2825V143.5H46.3831ZM59.9711 143.709C59.3728 143.709 58.8319 143.598 58.3483 143.377C57.8648 143.152 57.4816 142.826 57.1988 142.4C56.9202 141.973 56.7808 141.451 56.7808 140.832C56.7808 140.299 56.8833 139.861 57.0882 139.517C57.2931 139.172 57.5697 138.9 57.918 138.699C58.2664 138.498 58.6557 138.347 59.086 138.244C59.5163 138.142 59.9547 138.064 60.4014 138.011C60.967 137.945 61.4259 137.892 61.7784 137.851C62.1308 137.806 62.3869 137.734 62.5468 137.636C62.7066 137.537 62.7865 137.377 62.7865 137.156V137.113C62.7865 136.576 62.6349 136.16 62.3316 135.865C62.0325 135.57 61.5858 135.423 60.9916 135.423C60.3727 135.423 59.8851 135.56 59.5286 135.835C59.1761 136.105 58.9323 136.406 58.7971 136.738L57.0697 136.345C57.2746 135.771 57.5738 135.308 57.9672 134.956C58.3647 134.599 58.8216 134.341 59.338 134.181C59.8543 134.017 60.3973 133.935 60.967 133.935C61.344 133.935 61.7435 133.98 62.1656 134.07C62.5918 134.156 62.9893 134.316 63.3582 134.55C63.7311 134.783 64.0364 135.117 64.2741 135.552C64.5118 135.982 64.6306 136.541 64.6306 137.23V143.5H62.8357V142.209H62.7619C62.6431 142.447 62.4648 142.68 62.2271 142.91C61.9894 143.139 61.6841 143.33 61.3112 143.481C60.9383 143.633 60.4916 143.709 59.9711 143.709ZM60.3707 142.234C60.8789 142.234 61.3132 142.133 61.6739 141.932C62.0386 141.732 62.3152 141.469 62.5037 141.146C62.6963 140.818 62.7926 140.467 62.7926 140.094V138.877C62.7271 138.943 62.6 139.004 62.4115 139.062C62.2271 139.115 62.0161 139.162 61.7784 139.203C61.5407 139.24 61.3091 139.275 61.0838 139.308C60.8584 139.336 60.6699 139.361 60.5182 139.381C60.1617 139.426 59.8359 139.502 59.5408 139.609C59.2499 139.715 59.0163 139.869 58.8401 140.07C58.668 140.267 58.5819 140.529 58.5819 140.857C58.5819 141.312 58.7499 141.656 59.086 141.889C59.422 142.119 59.8502 142.234 60.3707 142.234ZM70.6132 143.684C69.851 143.684 69.1707 143.49 68.5724 143.1C67.9782 142.707 67.511 142.148 67.1709 141.422C66.8348 140.693 66.6668 139.818 66.6668 138.797C66.6668 137.777 66.8369 136.904 67.177 136.179C67.5213 135.453 67.9925 134.898 68.5908 134.513C69.1892 134.128 69.8674 133.935 70.6255 133.935C71.2115 133.935 71.6828 134.033 72.0393 134.23C72.4 134.423 72.6786 134.648 72.8753 134.906C73.0761 135.165 73.2319 135.392 73.3425 135.589H73.4532V130.911H75.2911V143.5H73.4962V142.031H73.3425C73.2319 142.232 73.072 142.461 72.863 142.719C72.6581 142.977 72.3754 143.203 72.0147 143.395C71.6541 143.588 71.1869 143.684 70.6132 143.684ZM71.0189 142.117C71.5476 142.117 71.9943 141.978 72.359 141.699C72.7278 141.416 73.0065 141.025 73.195 140.525C73.3876 140.025 73.4839 139.443 73.4839 138.779C73.4839 138.123 73.3896 137.55 73.2011 137.058C73.0126 136.566 72.736 136.183 72.3713 135.908C72.0066 135.634 71.5558 135.496 71.0189 135.496C70.4657 135.496 70.0047 135.64 69.6358 135.927C69.267 136.214 68.9883 136.605 68.7998 137.101C68.6154 137.597 68.5232 138.156 68.5232 138.779C68.5232 139.41 68.6175 139.978 68.806 140.482C68.9945 140.986 69.2732 141.385 69.642 141.68C70.0149 141.971 70.4739 142.117 71.0189 142.117Z" fill="white"/>
<rect x="285" y="50" width="132" height="40" fill="#D9D9D9"/>
<rect x="285" y="50" width="132" height="40" fill="url(#paint5_linear_846_401)"/>
<rect x="285" y="125.5" width="132" height="25" fill="#D9D9D9"/>
<rect x="285" y="125.5" width="132" height="25" fill="url(#paint6_linear_846_401)"/>
<g filter="url(#filter0_f_846_401)">
<path d="M351 49V79.2509V107.757V151.252" stroke="url(#paint7_linear_846_401)" stroke-width="8.65505"/>
</g>
<path d="M351 49V79.2808V107.426V150.187" stroke="#F6FCFD" stroke-width="2.59651"/>
<g filter="url(#filter1_f_846_401)">
<path d="M350.684 171.658L360.803 146.768H340.565L350.684 171.658Z" fill="#1CDEF8"/>
</g>
<path d="M350.685 166.127L357.805 148.151H343.564L350.685 166.127Z" fill="white"/>
<g filter="url(#filter2_f_846_401)">
<ellipse cx="350.897" cy="34.6514" rx="12.9826" ry="13.6514" fill="#15EEFC"/>
</g>
<g filter="url(#filter3_f_846_401)">
<ellipse cx="350.897" cy="34.6514" rx="12.9826" ry="13.6514" fill="white"/>
</g>
<path d="M348.412 40.0561C347.482 40.0561 346.68 39.8573 346.008 39.4598C345.34 39.0582 344.824 38.4947 344.459 37.7694C344.099 37.0399 343.918 36.1855 343.918 35.206C343.918 34.2389 344.099 33.3865 344.459 32.6489C344.824 31.9112 345.332 31.3355 345.984 30.9216C346.639 30.5076 347.406 30.3007 348.283 30.3007C348.815 30.3007 349.332 30.3888 349.832 30.565C350.332 30.7412 350.781 31.0179 351.178 31.3949C351.576 31.7719 351.889 32.2616 352.119 32.864C352.348 33.4623 352.463 34.1897 352.463 35.0462V35.6978H344.957V34.3209H350.662C350.662 33.8373 350.563 33.4091 350.367 33.0361C350.17 32.6591 349.893 32.362 349.537 32.1448C349.184 31.9276 348.77 31.819 348.295 31.819C347.779 31.819 347.328 31.9461 346.943 32.2001C346.562 32.4501 346.267 32.778 346.058 33.1837C345.853 33.5853 345.75 34.0217 345.75 34.493V35.5687C345.75 36.1998 345.861 36.7367 346.082 37.1792C346.307 37.6218 346.621 37.9599 347.023 38.1935C347.424 38.423 347.893 38.5377 348.43 38.5377C348.779 38.5377 349.096 38.4886 349.383 38.3902C349.67 38.2878 349.918 38.1361 350.127 37.9353C350.336 37.7345 350.496 37.4866 350.606 37.1915L352.346 37.505C352.207 38.0173 351.957 38.466 351.596 38.8512C351.239 39.2324 350.791 39.5295 350.25 39.7426C349.713 39.9516 349.1 40.0561 348.412 40.0561ZM359.868 29.7721V31.0322H354.311V29.7721H359.868Z" fill="#10BAD1"/>
<g filter="url(#filter4_f_846_401)">
<path d="M110 48L110.026 77.872L110.05 106.021L110.086 148.972" stroke="url(#paint8_linear_846_401)" stroke-width="8.65505"/>
</g>
<path d="M110 49.139L110.026 78.5032L110.05 105.797L110.086 147.263" stroke="#F6FCFD" stroke-width="2.59651"/>
<g filter="url(#filter5_f_846_401)">
<path d="M109.77 171.193L119.889 144.576H99.6513L109.77 171.193Z" fill="#1CDEF8"/>
</g>
<path d="M109.771 165.279L116.891 146.055H102.65L109.771 165.279Z" fill="white"/>
<g filter="url(#filter6_f_846_401)">
<ellipse cx="109.983" cy="34.6514" rx="12.9826" ry="13.6514" fill="#15EEFC"/>
</g>
<g filter="url(#filter7_f_846_401)">
<ellipse cx="109.983" cy="34.6514" rx="12.9826" ry="13.6514" fill="white"/>
</g>
<path d="M107.498 40.0561C106.568 40.0561 105.766 39.8573 105.094 39.4598C104.426 39.0582 103.91 38.4947 103.545 37.7694C103.185 37.0399 103.004 36.1855 103.004 35.206C103.004 34.2389 103.185 33.3865 103.545 32.6489C103.91 31.9112 104.418 31.3355 105.07 30.9216C105.725 30.5076 106.492 30.3007 107.369 30.3007C107.901 30.3007 108.418 30.3888 108.918 30.565C109.418 30.7412 109.866 31.0179 110.264 31.3949C110.661 31.7719 110.975 32.2616 111.204 32.864C111.434 33.4623 111.549 34.1897 111.549 35.0462V35.6978H104.043V34.3209H109.748C109.748 33.8373 109.649 33.4091 109.453 33.0361C109.256 32.6591 108.979 32.362 108.623 32.1448C108.27 31.9276 107.856 31.819 107.381 31.819C106.865 31.819 106.414 31.9461 106.029 32.2001C105.648 32.4501 105.352 32.778 105.143 33.1837C104.939 33.5853 104.836 34.0217 104.836 34.493V35.5687C104.836 36.1998 104.947 36.7367 105.168 37.1792C105.393 37.6218 105.707 37.9599 106.109 38.1935C106.51 38.423 106.979 38.5377 107.516 38.5377C107.865 38.5377 108.182 38.4886 108.469 38.3902C108.756 38.2878 109.004 38.1361 109.213 37.9353C109.422 37.7345 109.582 37.4866 109.692 37.1915L111.432 37.505C111.293 38.0173 111.043 38.466 110.682 38.8512C110.325 39.2324 109.877 39.5295 109.336 39.7426C108.799 39.9516 108.186 40.0561 107.498 40.0561ZM118.954 29.7721V31.0322H113.397V29.7721H118.954Z" fill="#10BAD1"/>
<path d="M293.383 83.4999V70.9108H297.87C298.85 70.9108 299.661 71.089 300.305 71.4456C300.948 71.8021 301.43 72.2898 301.749 72.9086C302.069 73.5233 302.229 74.2158 302.229 74.9863C302.229 75.7608 302.067 76.4575 301.743 77.0763C301.423 77.691 300.94 78.1786 300.292 78.5393C299.649 78.8958 298.84 79.0741 297.864 79.0741H294.778V77.4635H297.692C298.311 77.4635 298.813 77.357 299.198 77.1439C299.583 76.9267 299.866 76.6316 300.046 76.2587C300.227 75.8858 300.317 75.4616 300.317 74.9863C300.317 74.5109 300.227 74.0888 300.046 73.72C299.866 73.3512 299.581 73.0622 299.192 72.8532C298.807 72.6442 298.299 72.5397 297.668 72.5397H295.283V83.4999H293.383ZM306.971 83.7089C306.373 83.7089 305.832 83.5983 305.348 83.377C304.865 83.1516 304.482 82.8258 304.199 82.3996C303.92 81.9734 303.781 81.4509 303.781 80.8321C303.781 80.2994 303.883 79.8609 304.088 79.5167C304.293 79.1724 304.57 78.8999 304.918 78.6991C305.266 78.4983 305.656 78.3467 306.086 78.2442C306.516 78.1418 306.955 78.0639 307.401 78.0106C307.967 77.9451 308.426 77.8918 308.778 77.8508C309.131 77.8057 309.387 77.734 309.547 77.6357C309.707 77.5373 309.786 77.3775 309.786 77.1562V77.1132C309.786 76.5763 309.635 76.1604 309.332 75.8653C309.032 75.5702 308.586 75.4227 307.992 75.4227C307.373 75.4227 306.885 75.56 306.529 75.8346C306.176 76.105 305.932 76.4062 305.797 76.7382L304.07 76.3448C304.275 75.771 304.574 75.308 304.967 74.9555C305.365 74.599 305.822 74.3408 306.338 74.181C306.854 74.0171 307.397 73.9351 307.967 73.9351C308.344 73.9351 308.744 73.9802 309.166 74.0704C309.592 74.1564 309.989 74.3162 310.358 74.5498C310.731 74.7834 311.036 75.1174 311.274 75.5518C311.512 75.9821 311.631 76.5415 311.631 77.2299V83.4999H309.836V82.2091H309.762C309.643 82.4467 309.465 82.6803 309.227 82.9098C308.989 83.1393 308.684 83.3299 308.311 83.4815C307.938 83.6331 307.492 83.7089 306.971 83.7089ZM307.371 82.2336C307.879 82.2336 308.313 82.1332 308.674 81.9324C309.039 81.7316 309.315 81.4694 309.504 81.1456C309.696 80.8178 309.793 80.4674 309.793 80.0945V78.8774C309.727 78.9429 309.6 79.0044 309.412 79.0618C309.227 79.115 309.016 79.1622 308.778 79.2032C308.541 79.24 308.309 79.2749 308.084 79.3077C307.858 79.3363 307.67 79.3609 307.518 79.3814C307.162 79.4265 306.836 79.5023 306.541 79.6089C306.25 79.7154 306.016 79.8691 305.84 80.0699C305.668 80.2666 305.582 80.5289 305.582 80.8567C305.582 81.3116 305.75 81.6558 306.086 81.8894C306.422 82.1189 306.85 82.2336 307.371 82.2336ZM317.613 83.6844C316.851 83.6844 316.171 83.4897 315.572 83.1004C314.978 82.707 314.511 82.1476 314.171 81.4222C313.835 80.6928 313.667 79.8179 313.667 78.7974C313.667 77.777 313.837 76.9042 314.177 76.1788C314.521 75.4535 314.993 74.8982 315.591 74.513C316.189 74.1277 316.867 73.9351 317.626 73.9351C318.212 73.9351 318.683 74.0335 319.039 74.2302C319.4 74.4228 319.679 74.6482 319.875 74.9064C320.076 75.1645 320.232 75.392 320.343 75.5887H320.453V70.9108H322.291V83.4999H320.496V82.0308H320.343C320.232 82.2316 320.072 82.4611 319.863 82.7193C319.658 82.9774 319.375 83.2028 319.015 83.3954C318.654 83.588 318.187 83.6844 317.613 83.6844ZM318.019 82.1169C318.548 82.1169 318.994 81.9775 319.359 81.6989C319.728 81.4161 320.006 81.0247 320.195 80.5248C320.388 80.0248 320.484 79.4429 320.484 78.779C320.484 78.1233 320.39 77.5496 320.201 77.0578C320.013 76.5661 319.736 76.1829 319.371 75.9083C319.007 75.6338 318.556 75.4965 318.019 75.4965C317.466 75.4965 317.005 75.6399 316.636 75.9268C316.267 76.2136 315.988 76.605 315.8 77.1009C315.615 77.5967 315.523 78.1561 315.523 78.779C315.523 79.4101 315.617 79.9777 315.806 80.4817C315.994 80.9858 316.273 81.3854 316.642 81.6804C317.015 81.9714 317.474 82.1169 318.019 82.1169Z" fill="white"/>
<path d="M292.383 143.5V130.911H296.87C297.85 130.911 298.661 131.089 299.305 131.446C299.948 131.802 300.43 132.29 300.749 132.909C301.069 133.523 301.229 134.216 301.229 134.986C301.229 135.761 301.067 136.457 300.743 137.076C300.423 137.691 299.94 138.179 299.292 138.539C298.649 138.896 297.84 139.074 296.864 139.074H293.778V137.464H296.692C297.311 137.464 297.813 137.357 298.198 137.144C298.583 136.927 298.866 136.632 299.046 136.259C299.227 135.886 299.317 135.462 299.317 134.986C299.317 134.511 299.227 134.089 299.046 133.72C298.866 133.351 298.581 133.062 298.192 132.853C297.807 132.644 297.299 132.54 296.668 132.54H294.283V143.5H292.383ZM305.971 143.709C305.373 143.709 304.832 143.598 304.348 143.377C303.865 143.152 303.482 142.826 303.199 142.4C302.92 141.973 302.781 141.451 302.781 140.832C302.781 140.299 302.883 139.861 303.088 139.517C303.293 139.172 303.57 138.9 303.918 138.699C304.266 138.498 304.656 138.347 305.086 138.244C305.516 138.142 305.955 138.064 306.401 138.011C306.967 137.945 307.426 137.892 307.778 137.851C308.131 137.806 308.387 137.734 308.547 137.636C308.707 137.537 308.786 137.377 308.786 137.156V137.113C308.786 136.576 308.635 136.16 308.332 135.865C308.032 135.57 307.586 135.423 306.992 135.423C306.373 135.423 305.885 135.56 305.529 135.835C305.176 136.105 304.932 136.406 304.797 136.738L303.07 136.345C303.275 135.771 303.574 135.308 303.967 134.956C304.365 134.599 304.822 134.341 305.338 134.181C305.854 134.017 306.397 133.935 306.967 133.935C307.344 133.935 307.744 133.98 308.166 134.07C308.592 134.156 308.989 134.316 309.358 134.55C309.731 134.783 310.036 135.117 310.274 135.552C310.512 135.982 310.631 136.541 310.631 137.23V143.5H308.836V142.209H308.762C308.643 142.447 308.465 142.68 308.227 142.91C307.989 143.139 307.684 143.33 307.311 143.481C306.938 143.633 306.492 143.709 305.971 143.709ZM306.371 142.234C306.879 142.234 307.313 142.133 307.674 141.932C308.039 141.732 308.315 141.469 308.504 141.146C308.696 140.818 308.793 140.467 308.793 140.094V138.877C308.727 138.943 308.6 139.004 308.412 139.062C308.227 139.115 308.016 139.162 307.778 139.203C307.541 139.24 307.309 139.275 307.084 139.308C306.858 139.336 306.67 139.361 306.518 139.381C306.162 139.426 305.836 139.502 305.541 139.609C305.25 139.715 305.016 139.869 304.84 140.07C304.668 140.267 304.582 140.529 304.582 140.857C304.582 141.312 304.75 141.656 305.086 141.889C305.422 142.119 305.85 142.234 306.371 142.234ZM316.613 143.684C315.851 143.684 315.171 143.49 314.572 143.1C313.978 142.707 313.511 142.148 313.171 141.422C312.835 140.693 312.667 139.818 312.667 138.797C312.667 137.777 312.837 136.904 313.177 136.179C313.521 135.453 313.993 134.898 314.591 134.513C315.189 134.128 315.867 133.935 316.626 133.935C317.212 133.935 317.683 134.033 318.039 134.23C318.4 134.423 318.679 134.648 318.875 134.906C319.076 135.165 319.232 135.392 319.343 135.589H319.453V130.911H321.291V143.5H319.496V142.031H319.343C319.232 142.232 319.072 142.461 318.863 142.719C318.658 142.977 318.375 143.203 318.015 143.395C317.654 143.588 317.187 143.684 316.613 143.684ZM317.019 142.117C317.548 142.117 317.994 141.978 318.359 141.699C318.728 141.416 319.006 141.025 319.195 140.525C319.388 140.025 319.484 139.443 319.484 138.779C319.484 138.123 319.39 137.55 319.201 137.058C319.013 136.566 318.736 136.183 318.371 135.908C318.007 135.634 317.556 135.496 317.019 135.496C316.466 135.496 316.005 135.64 315.636 135.927C315.267 136.214 314.988 136.605 314.8 137.101C314.615 137.597 314.523 138.156 314.523 138.779C314.523 139.41 314.617 139.978 314.806 140.482C314.994 140.986 315.273 141.385 315.642 141.68C316.015 141.971 316.474 142.117 317.019 142.117Z" fill="white"/>
<defs>
<filter id="filter0_f_846_401" x="343.21" y="45.538" width="15.5793" height="109.176" filterUnits="userSpaceOnUse" color-interpolation-filters="sRGB">
<feFlood flood-opacity="0" result="BackgroundImageFix"/>
<feBlend mode="normal" in="SourceGraphic" in2="BackgroundImageFix" result="shape"/>
<feGaussianBlur stdDeviation="1.73101" result="effect1_foregroundBlur_846_401"/>
</filter>
<filter id="filter1_f_846_401" x="337.103" y="143.306" width="27.1618" height="31.8146" filterUnits="userSpaceOnUse" color-interpolation-filters="sRGB">
<feFlood flood-opacity="0" result="BackgroundImageFix"/>
<feBlend mode="normal" in="SourceGraphic" in2="BackgroundImageFix" result="shape"/>
<feGaussianBlur stdDeviation="1.73101" result="effect1_foregroundBlur_846_401"/>
</filter>
<filter id="filter2_f_846_401" x="334.452" y="17.538" width="32.8894" height="34.2268" filterUnits="userSpaceOnUse" color-interpolation-filters="sRGB">
<feFlood flood-opacity="0" result="BackgroundImageFix"/>
<feBlend mode="normal" in="SourceGraphic" in2="BackgroundImageFix" result="shape"/>
<feGaussianBlur stdDeviation="1.73101" result="effect1_foregroundBlur_846_401"/>
</filter>
<filter id="filter3_f_846_401" x="334.452" y="17.538" width="32.8894" height="34.2268" filterUnits="userSpaceOnUse" color-interpolation-filters="sRGB">
<feFlood flood-opacity="0" result="BackgroundImageFix"/>
<feBlend mode="normal" in="SourceGraphic" in2="BackgroundImageFix" result="shape"/>
<feGaussianBlur stdDeviation="1.73101" result="effect1_foregroundBlur_846_401"/>
</filter>
<filter id="filter4_f_846_401" x="102.21" y="44.5332" width="15.6652" height="107.905" filterUnits="userSpaceOnUse" color-interpolation-filters="sRGB">
<feFlood flood-opacity="0" result="BackgroundImageFix"/>
<feBlend mode="normal" in="SourceGraphic" in2="BackgroundImageFix" result="shape"/>
<feGaussianBlur stdDeviation="1.73101" result="effect1_foregroundBlur_846_401"/>
</filter>
<filter id="filter5_f_846_401" x="96.1893" y="141.114" width="27.1618" height="33.5411" filterUnits="userSpaceOnUse" color-interpolation-filters="sRGB">
<feFlood flood-opacity="0" result="BackgroundImageFix"/>
<feBlend mode="normal" in="SourceGraphic" in2="BackgroundImageFix" result="shape"/>
<feGaussianBlur stdDeviation="1.73101" result="effect1_foregroundBlur_846_401"/>
</filter>
<filter id="filter6_f_846_401" x="93.538" y="17.538" width="32.8894" height="34.2268" filterUnits="userSpaceOnUse" color-interpolation-filters="sRGB">
<feFlood flood-opacity="0" result="BackgroundImageFix"/>
<feBlend mode="normal" in="SourceGraphic" in2="BackgroundImageFix" result="shape"/>
<feGaussianBlur stdDeviation="1.73101" result="effect1_foregroundBlur_846_401"/>
</filter>
<filter id="filter7_f_846_401" x="93.538" y="17.538" width="32.8894" height="34.2268" filterUnits="userSpaceOnUse" color-interpolation-filters="sRGB">
<feFlood flood-opacity="0" result="BackgroundImageFix"/>
<feBlend mode="normal" in="SourceGraphic" in2="BackgroundImageFix" result="shape"/>
<feGaussianBlur stdDeviation="1.73101" result="effect1_foregroundBlur_846_401"/>
</filter>
<radialGradient id="paint0_radial_846_401" cx="0" cy="0" r="1" gradientUnits="userSpaceOnUse" gradientTransform="translate(118.377 104.347) rotate(109.574) scale(23.5115 33.616)">
<stop stop-color="#FFF5D2"/>
<stop offset="1" stop-color="#8D7932"/>
</radialGradient>
<radialGradient id="paint1_radial_846_401" cx="0" cy="0" r="1" gradientUnits="userSpaceOnUse" gradientTransform="translate(358.377 103.732) rotate(109.083) scale(24.0922 33.7171)">
<stop stop-color="#FFF5D2"/>
<stop offset="1" stop-color="#8D7932"/>
</radialGradient>
<radialGradient id="paint2_radial_846_401" cx="0" cy="0" r="1" gradientUnits="userSpaceOnUse" gradientTransform="translate(237.949 122.526) rotate(103.101) scale(28.435)">
<stop stop-color="#FFF5D2"/>
<stop offset="1" stop-color="#8D7932"/>
</radialGradient>
<linearGradient id="paint3_linear_846_401" x1="106" y1="50" x2="106" y2="90" gradientUnits="userSpaceOnUse">
<stop stop-color="#1B8842"/>
<stop offset="1" stop-color="#15779F"/>
</linearGradient>
<linearGradient id="paint4_linear_846_401" x1="106" y1="125.5" x2="106" y2="150.5" gradientUnits="userSpaceOnUse">
<stop stop-color="#1B8842"/>
<stop offset="1" stop-color="#15779F"/>
</linearGradient>
<linearGradient id="paint5_linear_846_401" x1="351" y1="50" x2="351" y2="90" gradientUnits="userSpaceOnUse">
<stop stop-color="#1B8842"/>
<stop offset="1" stop-color="#15779F"/>
</linearGradient>
<linearGradient id="paint6_linear_846_401" x1="351" y1="125.5" x2="351" y2="150.5" gradientUnits="userSpaceOnUse">
<stop stop-color="#1B8842"/>
<stop offset="1" stop-color="#15779F"/>
</linearGradient>
<linearGradient id="paint7_linear_846_401" x1="22527.7" y1="49" x2="22527.7" y2="193.532" gradientUnits="userSpaceOnUse">
<stop stop-color="#F6FCFD"/>
<stop offset="0.216313" stop-color="#3DDBFE"/>
<stop offset="0.51321" stop-color="#3DDBFE"/>
<stop offset="0.765625" stop-color="#4BDFFF"/>
<stop offset="1" stop-color="#DFF9FF"/>
</linearGradient>
<linearGradient id="paint8_linear_846_401" x1="111.894" y1="47.9979" x2="112.052" y2="190.72" gradientUnits="userSpaceOnUse">
<stop stop-color="#F6FCFD"/>
<stop offset="0.216313" stop-color="#3DDBFE"/>
<stop offset="0.51321" stop-color="#3DDBFE"/>
<stop offset="0.765625" stop-color="#4BDFFF"/>
<stop offset="1" stop-color="#DFF9FF"/>
</linearGradient>
</defs>
</svg>
