<svg width="54" height="80" viewBox="0 0 54 80" fill="none" xmlns="http://www.w3.org/2000/svg">
<path d="M48.2842 54.435C48.2842 65.4807 39.3299 74.435 28.2842 74.4349L25 74.4349C13.9543 74.4349 5.00005 65.4806 5.00005 54.4349L5.00005 5L48.2842 5.00001L48.2842 54.435Z" fill="white"/>
<path d="M5.00005 2.5L2.50005 2.5L2.50005 5L2.50005 54.4349C2.50005 66.8614 12.5736 76.9349 25 76.9349L28.2842 76.9349C40.7106 76.935 50.7842 66.8614 50.7842 54.435L50.7842 5.00001L50.7842 2.50001L48.2842 2.50001L5.00005 2.5Z" stroke="#3DDBFE" stroke-opacity="0.4" stroke-width="5"/>
<path d="M48.2842 59.1052C48.2842 67.5716 41.4208 74.435 32.9544 74.435L20.3298 74.4349C11.8634 74.4349 5.00005 67.5716 5.00005 59.1052L48.2842 59.1052Z" fill="#C4C4C4"/>
</svg>
