<svg width="444" height="352" viewBox="0 0 444 352" fill="none" xmlns="http://www.w3.org/2000/svg">
<circle cx="175.917" cy="175.917" r="175.917" fill="url(#paint0_radial_806_840)"/>
<mask id="mask0_806_840" style="mask-type:alpha" maskUnits="userSpaceOnUse" x="0" y="0" width="352" height="352">
<circle cx="175.917" cy="175.917" r="175.917" fill="#D9D9D9"/>
</mask>
<g mask="url(#mask0_806_840)">
<path d="M-154.441 17.3532C-156.58 16.2416 -156.021 13.0366 -153.631 12.7155L33.0088 -12.3596C33.4602 -12.4202 33.9197 -12.3548 34.3362 -12.1706L158.433 42.7182C160.7 43.7211 160.24 47.0665 157.786 47.4197L-40.5954 75.9724C-41.1062 76.046 -41.6273 75.9576 -42.0852 75.7197L-154.441 17.3532Z" fill="#4064A9" fill-opacity="0.5"/>
<path d="M-154.441 22.7076C-156.58 21.596 -156.021 18.391 -153.631 18.0699L33.0088 -7.0052C33.4602 -7.06585 33.9197 -7.00044 34.3362 -6.81619L158.433 48.0726C160.7 49.0755 160.24 52.4208 157.786 52.7741L-40.5954 81.3268C-41.1062 81.4003 -41.6273 81.3119 -42.0852 81.074L-154.441 22.7076Z" fill="#4064A9" fill-opacity="0.5"/>
<path d="M-66.3155 70.7249L145.495 39.0193" stroke="#F5F7FA" stroke-width="1.4813"/>
<path d="M-77.6428 61.9411L130.285 31.7444" stroke="#F5F7FA" stroke-width="1.4813"/>
<path d="M-90.6757 55.1415L113.09 24.4698" stroke="#F5F7FA" stroke-width="1.4813"/>
<path d="M-104.559 48.3417L97.8786 17.8562" stroke="#F5F7FA" stroke-width="1.4813"/>
<line x1="-120.39" y1="41.7786" x2="98.0501" y2="10.6132" stroke="#F5F7FA" stroke-width="1.4813"/>
<line x1="-137.673" y1="34.979" x2="80.7671" y2="3.81367" stroke="#F5F7FA" stroke-width="1.4813"/>
<line x1="-149.289" y1="28.1793" x2="69.1514" y2="-2.98601" stroke="#F5F7FA" stroke-width="1.4813"/>
<line x1="-159.489" y1="21.3794" x2="58.9514" y2="-9.78588" stroke="#F5F7FA" stroke-width="1.4813"/>
<path fill-rule="evenodd" clip-rule="evenodd" d="M-158.393 20.4129V12.7632L-39.9255 73.8098L162.148 44.8215L163.355 53.235L-41.4203 82.6109L-158.393 20.4129Z" fill="#4064A9"/>
<path fill-rule="evenodd" clip-rule="evenodd" d="M86.7097 40.7706C86.4168 40.8106 86.1186 40.7622 85.8535 40.6314L5.60212 1.04071C4.29208 0.394426 4.60935 -1.55728 6.05665 -1.75534L7.32059 -1.92831C7.61348 -1.96839 7.91167 -1.91992 8.17679 -1.78912L88.4281 37.8015C89.7382 38.4478 89.4209 40.3995 87.9736 40.5976L86.7097 40.7706Z" fill="#B9B9B9"/>
<path fill-rule="evenodd" clip-rule="evenodd" d="M92.575 53.9752C92.0583 54.0619 91.5275 53.9815 91.0596 53.7458L-15.6791 -0.020813C-17.8051 -1.09173 -17.3261 -4.25611 -14.9783 -4.64975C-14.4617 -4.73637 -13.9308 -4.65601 -13.463 -4.42034L93.2758 49.3463C95.4018 50.4172 94.9227 53.5816 92.575 53.9752Z" fill="#717171"/>
<path fill-rule="evenodd" clip-rule="evenodd" d="M-1.85376 -17.9489L11.7539 -19.8023L119.818 31.2348C119.884 31.2626 119.957 31.2925 120.036 31.3248C121.16 31.7858 123.512 32.7506 126.038 35.4761C128.696 38.3441 131.359 42.9137 133.742 50.4281C135.945 57.3763 142.668 74.25 148.933 89.5943C152.047 97.2205 155.02 104.402 157.215 109.677C158.312 112.315 159.215 114.475 159.843 115.976C160.012 116.38 160.161 116.736 160.288 117.04L292.267 183.018L279.439 185.247L153.521 122.894L152.984 121.618L156.904 119.967C152.984 121.618 152.984 121.618 152.984 121.618L152.983 121.615L152.98 121.608L152.727 121.005C152.56 120.606 152.313 120.018 151.998 119.265C151.368 117.76 150.464 115.594 149.364 112.95C147.164 107.664 144.184 100.464 141.061 92.8154C134.852 77.6102 127.968 60.3587 125.636 53.0041C123.483 46.2157 121.326 42.9102 119.803 41.2661C118.56 39.9254 117.652 39.5503 116.749 39.1774C116.63 39.1281 116.51 39.0788 116.39 39.0272L116.305 38.9905L-1.85376 -17.9489Z" fill="#F5F5F5"/>
<path fill-rule="evenodd" clip-rule="evenodd" d="M-104.492 5.75164L-91.2906 3.96802L13.549 53.0836C13.6134 53.1104 13.684 53.1391 13.7605 53.1702C14.8507 53.6138 17.1328 54.5424 19.5832 57.1651C22.1617 59.9252 24.7453 64.3228 27.0572 71.5542C29.1949 78.2408 35.7175 94.4793 41.7957 109.246C44.8166 116.585 47.7008 123.496 49.8301 128.573C50.8946 131.111 51.7701 133.19 52.3794 134.634C52.5433 135.023 52.688 135.365 52.8118 135.658L181.208 198.903L168.762 201.048L46.2462 141.292L45.7258 140.064L49.5283 138.475C45.7258 140.064 45.7258 140.064 45.7258 140.064L45.7247 140.061L45.7216 140.054L45.4764 139.474C45.3137 139.09 45.0748 138.524 44.7692 137.8C44.158 136.351 43.2802 134.267 42.2132 131.722C40.0794 126.635 37.1879 119.706 34.1581 112.346C28.1349 97.713 21.4557 81.111 19.193 74.0333C17.1044 67.5004 15.0123 64.3194 13.5342 62.7372C12.3288 61.447 11.4478 61.086 10.5719 60.7272C10.456 60.6797 10.3401 60.6322 10.2236 60.5826L10.1406 60.5473L-104.492 5.75164Z" fill="#F5F5F5"/>
<path d="M5.6353 149.664C3.49545 148.553 4.05479 145.348 6.44467 145.026L193.085 119.951C193.536 119.891 193.996 119.956 194.412 120.14L318.508 175.029C320.776 176.032 320.316 179.377 317.861 179.731L119.481 208.283C118.97 208.357 118.449 208.268 117.991 208.031L5.6353 149.664Z" fill="#4064A9" fill-opacity="0.8"/>
<path d="M5.6353 155.018C3.49545 153.907 4.05479 150.702 6.44467 150.381L193.085 125.306C193.536 125.245 193.996 125.31 194.412 125.495L318.508 180.383C320.776 181.386 320.316 184.732 317.861 185.085L119.481 213.638C118.97 213.711 118.449 213.623 117.991 213.385L5.6353 155.018Z" fill="#4064A9" fill-opacity="0.5"/>
<path d="M109.783 201.71L302.895 171.288" stroke="#F5F7FA" stroke-width="1.4813"/>
<path d="M82.4337 194.252L289.007 164.674" stroke="#F5F7FA" stroke-width="1.4813"/>
<path d="M69.4006 187.452L273.796 158.061" stroke="#F5F7FA" stroke-width="1.4813"/>
<path d="M55.518 180.653L259.908 151.448" stroke="#F5F7FA" stroke-width="1.4813"/>
<path d="M48.939 172.611L245.358 144.834" stroke="#F5F7FA" stroke-width="1.4813"/>
<path d="M35.0508 165.336L230.808 137.559" stroke="#F5F7FA" stroke-width="1.4813"/>
<path d="M23.8082 158.722L214.936 130.285" stroke="#F5F7FA" stroke-width="1.4813"/>
<path d="M12.5654 152.109L201.71 123.671" stroke="#F5F7FA" stroke-width="1.4813"/>
<path fill-rule="evenodd" clip-rule="evenodd" d="M6.61374 154.754L5.95239 144.834L120.151 206.121L318.106 175.917L318.767 184.515L118.657 214.922L6.61374 154.754Z" fill="#4064A9"/>
<g filter="url(#filter0_d_806_840)">
<path fill-rule="evenodd" clip-rule="evenodd" d="M246.786 173.082C246.493 173.122 246.195 173.073 245.93 172.943L165.679 133.352C164.368 132.706 164.686 130.754 166.133 130.556L167.397 130.383C167.69 130.343 167.988 130.391 168.253 130.522L248.505 170.113C249.815 170.759 249.497 172.711 248.05 172.909L246.786 173.082Z" fill="#B9B9B9"/>
</g>
<g filter="url(#filter1_d_806_840)">
<path fill-rule="evenodd" clip-rule="evenodd" d="M134.732 188.401C134.439 188.441 134.141 188.393 133.876 188.262L53.6246 148.671C52.3145 148.025 52.6318 146.073 54.0791 145.875L55.3431 145.702C55.6359 145.662 55.9341 145.711 56.1992 145.842L136.451 185.432C137.761 186.079 137.443 188.03 135.996 188.228L134.732 188.401Z" fill="#B9B9B9"/>
</g>
<path fill-rule="evenodd" clip-rule="evenodd" d="M252.652 186.286C252.135 186.373 251.604 186.293 251.136 186.057L144.398 132.29C142.272 131.219 142.751 128.055 145.098 127.661C145.615 127.575 146.146 127.655 146.614 127.891L253.352 181.657C255.478 182.728 254.999 185.893 252.652 186.286Z" fill="#717171"/>
<path fill-rule="evenodd" clip-rule="evenodd" d="M138.615 201.606C138.098 201.692 137.567 201.612 137.099 201.376L30.3604 147.61C28.2344 146.539 28.7135 143.375 31.0612 142.981C31.5779 142.894 32.1087 142.975 32.5766 143.21L139.315 196.977C141.441 198.048 140.962 201.212 138.615 201.606Z" fill="#717171"/>
<path fill-rule="evenodd" clip-rule="evenodd" d="M44.1599 135.697L57.7676 133.844L165.832 184.881C165.898 184.909 165.971 184.938 166.05 184.971C167.173 185.432 169.526 186.397 172.051 189.122C174.709 191.99 177.372 196.56 179.755 204.074C181.959 211.022 188.682 227.896 194.947 243.24C198.061 250.866 201.034 258.048 203.229 263.323C204.326 265.961 205.228 268.121 205.856 269.622C206.025 270.026 206.174 270.382 206.302 270.686L326.377 343.277L313.548 345.506L199.535 276.54L198.998 275.264L202.918 273.613C198.998 275.264 198.998 275.263 198.998 275.263L198.997 275.261L198.994 275.253L198.741 274.651C198.573 274.252 198.327 273.664 198.012 272.911C197.382 271.406 196.477 269.24 195.377 266.596C193.178 261.31 190.198 254.11 187.075 246.461C180.866 231.256 173.982 214.005 171.649 206.65C169.496 199.862 167.34 196.556 165.816 194.912C164.574 193.571 163.666 193.196 162.763 192.823C162.643 192.774 162.524 192.725 162.404 192.673L162.318 192.636L44.1599 135.697Z" fill="#F5F5F5"/>
<path fill-rule="evenodd" clip-rule="evenodd" d="M159.961 120.359L173.568 118.506L281.632 169.543C281.699 169.571 281.772 169.601 281.85 169.633C282.974 170.094 285.326 171.059 287.852 173.784C290.51 176.652 293.173 181.222 295.556 188.736C297.76 195.684 304.483 212.558 310.748 227.902C313.862 235.529 316.835 242.71 319.029 247.985C320.127 250.623 321.029 252.783 321.657 254.284C321.826 254.688 321.975 255.044 322.103 255.348L442.178 327.94L429.349 330.168L315.335 261.202L314.799 259.926L318.718 258.275C314.799 259.926 314.799 259.925 314.799 259.925L314.798 259.923L314.795 259.916L314.542 259.313C314.374 258.914 314.128 258.326 313.813 257.573C313.183 256.068 312.278 253.902 311.178 251.258C308.979 245.972 305.998 238.772 302.875 231.123C296.667 215.918 289.782 198.667 287.45 191.312C285.297 184.524 283.141 181.218 281.617 179.574C280.375 178.233 279.467 177.858 278.564 177.485C278.444 177.436 278.325 177.387 278.205 177.335L278.119 177.299L159.961 120.359Z" fill="#F5F5F5"/>
<path d="M164.012 283.675C161.872 282.563 162.431 279.358 164.821 279.037L351.461 253.962C351.913 253.902 352.372 253.967 352.789 254.151L476.885 309.04C479.153 310.043 478.692 313.388 476.238 313.741L277.857 342.294C277.346 342.368 276.825 342.279 276.367 342.041L164.012 283.675Z" fill="#4064A9" fill-opacity="0.5"/>
<path d="M164.012 289.029C161.872 287.918 162.431 284.713 164.821 284.392L351.461 259.316C351.913 259.256 352.372 259.321 352.789 259.505L476.885 314.394C479.153 315.397 478.692 318.743 476.238 319.096L277.857 347.648C277.346 347.722 276.825 347.634 276.367 347.396L164.012 289.029Z" fill="#4064A9" fill-opacity="0.5"/>
<line x1="252.172" y1="337.283" x2="475.43" y2="304.134" stroke="#F5F7FA" stroke-width="1.4813"/>
<line x1="240.844" y1="328.5" x2="459.284" y2="297.334" stroke="#F5F7FA" stroke-width="1.4813"/>
<line x1="227.811" y1="321.7" x2="446.251" y2="290.534" stroke="#F5F7FA" stroke-width="1.4813"/>
<line x1="213.928" y1="314.9" x2="432.369" y2="283.735" stroke="#F5F7FA" stroke-width="1.4813"/>
<line x1="210.203" y1="306.13" x2="416.503" y2="276.935" stroke="#F5F7FA" stroke-width="1.4813"/>
<path d="M195.758 299.588L399.187 269.899" stroke="#F5F7FA" stroke-width="1.4813"/>
<path d="M179.224 292.975L387.57 263.099" stroke="#F5F7FA" stroke-width="1.4813"/>
<path d="M164.674 287.023L377.371 256.299" stroke="#F5F7FA" stroke-width="1.4813"/>
<path fill-rule="evenodd" clip-rule="evenodd" d="M160.06 286.735V279.085L278.528 340.132L480.601 311.143L481.808 319.557L277.033 348.933L160.06 286.735Z" fill="#4064A9"/>
<path fill-rule="evenodd" clip-rule="evenodd" d="M405.163 307.093C404.87 307.133 404.572 307.084 404.307 306.953L324.055 267.363C322.745 266.717 323.063 264.765 324.51 264.567L325.774 264.394C326.067 264.354 326.365 264.402 326.63 264.533L406.882 304.124C408.192 304.77 407.874 306.722 406.427 306.92L405.163 307.093Z" fill="#B9B9B9"/>
<path fill-rule="evenodd" clip-rule="evenodd" d="M293.109 322.412C292.816 322.452 292.518 322.404 292.252 322.273L212.001 282.682C210.691 282.036 211.008 280.084 212.456 279.886L213.72 279.713C214.012 279.673 214.311 279.722 214.576 279.852L294.827 319.443C296.137 320.089 295.82 322.041 294.373 322.239L293.109 322.412Z" fill="#B9B9B9"/>
<path fill-rule="evenodd" clip-rule="evenodd" d="M411.028 320.297C410.511 320.384 409.981 320.303 409.513 320.068L302.774 266.301C300.648 265.23 301.127 262.066 303.475 261.672C303.991 261.586 304.522 261.666 304.99 261.902L411.729 315.668C413.855 316.739 413.376 319.904 411.028 320.297Z" fill="#717171"/>
<path fill-rule="evenodd" clip-rule="evenodd" d="M296.991 335.617C296.474 335.703 295.943 335.623 295.475 335.387L188.737 281.621C186.611 280.55 187.09 277.385 189.437 276.992C189.954 276.905 190.485 276.985 190.953 277.221L297.692 330.988C299.818 332.059 299.338 335.223 296.991 335.617Z" fill="#717171"/>
<path fill-rule="evenodd" clip-rule="evenodd" d="M210.575 272.971L224.183 271.118L332.247 322.155C332.313 322.183 332.386 322.212 332.465 322.245C333.589 322.706 335.941 323.671 338.467 326.396C341.125 329.264 343.788 333.834 346.171 341.348C348.374 348.296 355.097 365.17 361.363 380.514C364.476 388.14 367.449 395.322 369.644 400.597C370.741 403.235 371.644 405.395 372.272 406.896C372.441 407.3 372.59 407.656 372.718 407.96L492.792 480.552L479.964 482.78L365.95 413.814L365.414 412.538L369.333 410.887C365.414 412.538 365.413 412.537 365.413 412.537L365.412 412.535L365.409 412.528L365.157 411.925C364.989 411.526 364.743 410.938 364.428 410.185C363.798 408.68 362.893 406.514 361.793 403.87C359.594 398.584 356.613 391.384 353.49 383.735C347.282 368.53 340.397 351.279 338.065 343.924C335.912 337.136 333.755 333.83 332.232 332.186C330.989 330.845 330.081 330.47 329.178 330.097C329.059 330.048 328.94 329.999 328.819 329.947L328.734 329.911L210.575 272.971Z" fill="#F5F5F5"/>
<path fill-rule="evenodd" clip-rule="evenodd" d="M327.144 257.633L340.751 255.78L448.815 306.817C448.882 306.845 448.955 306.875 449.034 306.907C450.157 307.368 452.51 308.333 455.035 311.058C457.693 313.926 460.356 318.496 462.739 326.01C464.943 332.958 471.666 349.832 477.931 365.176C481.045 372.803 484.018 379.984 486.212 385.259C487.31 387.897 488.212 390.057 488.84 391.558C489.009 391.962 489.158 392.318 489.286 392.622L609.361 465.214L596.532 467.442L482.518 398.476L481.982 397.2L485.901 395.549C481.982 397.2 481.982 397.199 481.982 397.199L481.981 397.197L481.978 397.19L481.725 396.587C481.557 396.188 481.311 395.6 480.996 394.847C480.366 393.342 479.461 391.176 478.361 388.532C476.162 383.246 473.181 376.046 470.058 368.398C463.85 353.192 456.965 335.941 454.633 328.586C452.48 321.798 450.324 318.492 448.8 316.848C447.558 315.508 446.65 315.132 445.747 314.76C445.627 314.71 445.508 314.661 445.388 314.609L445.302 314.573L327.144 257.633Z" fill="#F5F5F5"/>
</g>
<path d="M189.383 76.457H187.622C187.517 75.9504 187.335 75.5053 187.075 75.1218C186.819 74.7383 186.506 74.4163 186.137 74.1559C185.773 73.8907 185.368 73.6919 184.923 73.5593C184.478 73.4267 184.014 73.3604 183.531 73.3604C182.65 73.3604 181.852 73.583 181.137 74.0281C180.427 74.4731 179.861 75.1289 179.44 75.9954C179.023 76.8619 178.815 77.9248 178.815 79.1843C178.815 80.4438 179.023 81.5067 179.44 82.3732C179.861 83.2397 180.427 83.8955 181.137 84.3406C181.852 84.7856 182.65 85.0082 183.531 85.0082C184.014 85.0082 184.478 84.9419 184.923 84.8093C185.368 84.6767 185.773 84.4802 186.137 84.2198C186.506 83.9547 186.819 83.6303 187.075 83.2468C187.335 82.8585 187.517 82.4135 187.622 81.9116H189.383C189.25 82.6549 189.009 83.3202 188.658 83.9073C188.308 84.4944 187.872 84.994 187.352 85.4059C186.831 85.8131 186.246 86.1232 185.597 86.3363C184.953 86.5494 184.265 86.6559 183.531 86.6559C182.29 86.6559 181.187 86.3529 180.221 85.7468C179.255 85.1407 178.495 84.279 177.941 83.1616C177.387 82.0442 177.11 80.7184 177.11 79.1843C177.11 77.6502 177.387 76.3245 177.941 75.207C178.495 74.0896 179.255 73.2279 180.221 72.6218C181.187 72.0157 182.29 71.7127 183.531 71.7127C184.265 71.7127 184.953 71.8192 185.597 72.0323C186.246 72.2454 186.831 72.5579 187.352 72.9698C187.872 73.377 188.308 73.8742 188.658 74.4613C189.009 75.0437 189.25 75.7089 189.383 76.457ZM196.434 86.6843C195.449 86.6843 194.585 86.4499 193.841 85.9812C193.103 85.5124 192.525 84.8567 192.108 84.0138C191.696 83.171 191.491 82.1862 191.491 81.0593C191.491 79.9229 191.696 78.931 192.108 78.0835C192.525 77.2359 193.103 76.5778 193.841 76.109C194.585 75.6403 195.449 75.4059 196.434 75.4059C197.419 75.4059 198.28 75.6403 199.019 76.109C199.762 76.5778 200.34 77.2359 200.752 78.0835C201.169 78.931 201.377 79.9229 201.377 81.0593C201.377 82.1862 201.169 83.171 200.752 84.0138C200.34 84.8567 199.762 85.5124 199.019 85.9812C198.28 86.4499 197.419 86.6843 196.434 86.6843ZM196.434 85.1786C197.182 85.1786 197.797 84.9869 198.28 84.6033C198.763 84.2198 199.121 83.7156 199.353 83.0906C199.585 82.4656 199.701 81.7885 199.701 81.0593C199.701 80.3301 199.585 79.6507 199.353 79.021C199.121 78.3912 198.763 77.8822 198.28 77.494C197.797 77.1057 197.182 76.9116 196.434 76.9116C195.686 76.9116 195.07 77.1057 194.587 77.494C194.104 77.8822 193.747 78.3912 193.515 79.021C193.283 79.6507 193.167 80.3301 193.167 81.0593C193.167 81.7885 193.283 82.4656 193.515 83.0906C193.747 83.7156 194.104 84.2198 194.587 84.6033C195.07 84.9869 195.686 85.1786 196.434 85.1786ZM205.612 79.8945V86.457H203.935V75.5479H205.555V77.2525H205.697C205.953 76.6985 206.341 76.2534 206.862 75.9173C207.382 75.5763 208.055 75.4059 208.879 75.4059C209.617 75.4059 210.264 75.5574 210.818 75.8604C211.372 76.1587 211.802 76.6133 212.11 77.2241C212.418 77.8301 212.572 78.5972 212.572 79.5252V86.457H210.896V79.6388C210.896 78.7818 210.673 78.1142 210.228 77.636C209.783 77.1531 209.172 76.9116 208.396 76.9116C207.861 76.9116 207.382 77.0276 206.961 77.2596C206.544 77.4916 206.215 77.8301 205.974 78.2752C205.732 78.7203 205.612 79.2601 205.612 79.8945ZM219.754 86.6843C218.845 86.6843 218.042 86.4547 217.346 85.9954C216.65 85.5314 216.106 84.878 215.713 84.0352C215.32 83.1876 215.123 82.1862 215.123 81.0309C215.123 79.8851 215.32 78.8907 215.713 78.0479C216.106 77.2051 216.653 76.5541 217.353 76.0948C218.054 75.6355 218.864 75.4059 219.782 75.4059C220.493 75.4059 221.054 75.5243 221.466 75.761C221.882 75.993 222.2 76.2582 222.417 76.5565C222.64 76.85 222.813 77.0915 222.936 77.2809H223.078V71.9116H224.754V86.457H223.135V84.7809H222.936C222.813 84.9798 222.638 85.2307 222.41 85.5337C222.183 85.832 221.859 86.0996 221.437 86.3363C221.016 86.5683 220.455 86.6843 219.754 86.6843ZM219.981 85.1786C220.654 85.1786 221.222 85.0034 221.686 84.6531C222.15 84.2979 222.503 83.8079 222.744 83.1829C222.986 82.5531 223.106 81.8263 223.106 81.0025C223.106 80.1881 222.988 79.4755 222.751 78.8647C222.514 78.2492 222.164 77.771 221.7 77.43C221.236 77.0844 220.663 76.9116 219.981 76.9116C219.271 76.9116 218.679 77.0939 218.206 77.4585C217.737 77.8183 217.384 78.3084 217.147 78.9286C216.915 79.5442 216.799 80.2354 216.799 81.0025C216.799 81.779 216.918 82.4845 217.155 83.119C217.396 83.7487 217.751 84.2506 218.22 84.6246C218.693 84.994 219.281 85.1786 219.981 85.1786ZM234.932 81.9968V75.5479H236.608V86.457H234.932V84.6104H234.818C234.562 85.1644 234.165 85.6355 233.625 86.0238C233.085 86.4073 232.403 86.5991 231.579 86.5991C230.897 86.5991 230.291 86.4499 229.761 86.1516C229.231 85.8486 228.814 85.3941 228.511 84.788C228.208 84.1772 228.057 83.4078 228.057 82.4798V75.5479H229.733V82.3661C229.733 83.1616 229.955 83.796 230.4 84.2695C230.85 84.743 231.423 84.9798 232.119 84.9798C232.536 84.9798 232.959 84.8732 233.39 84.6602C233.826 84.4471 234.191 84.1204 234.484 83.68C234.782 83.2397 234.932 82.6786 234.932 81.9968ZM244.109 86.6843C243.087 86.6843 242.206 86.4428 241.467 85.9599C240.729 85.4769 240.161 84.8117 239.763 83.9641C239.365 83.1166 239.166 82.1483 239.166 81.0593C239.166 79.9513 239.37 78.9736 239.777 78.1261C240.189 77.2738 240.762 76.6085 241.496 76.1303C242.234 75.6474 243.096 75.4059 244.081 75.4059C244.848 75.4059 245.539 75.5479 246.155 75.832C246.77 76.1161 247.275 76.5138 247.668 77.0252C248.061 77.5366 248.305 78.1332 248.399 78.815H246.723C246.595 78.3178 246.311 77.8775 245.871 77.494C245.435 77.1057 244.848 76.9116 244.109 76.9116C243.456 76.9116 242.883 77.082 242.391 77.4229C241.903 77.7591 241.522 78.235 241.247 78.8505C240.977 79.4613 240.842 80.1786 240.842 81.0025C240.842 81.8453 240.975 82.5792 241.24 83.2042C241.51 83.8292 241.889 84.3145 242.377 84.6602C242.869 85.0058 243.447 85.1786 244.109 85.1786C244.545 85.1786 244.94 85.1029 245.296 84.9513C245.651 84.7998 245.951 84.582 246.198 84.2979C246.444 84.0138 246.619 83.6729 246.723 83.2752H248.399C248.305 83.9192 248.07 84.4992 247.696 85.0153C247.327 85.5266 246.837 85.9338 246.226 86.2369C245.62 86.5352 244.914 86.6843 244.109 86.6843ZM255.594 75.5479V76.9684H249.94V75.5479H255.594ZM251.588 72.9343H253.264V83.332C253.264 83.8055 253.333 84.1606 253.47 84.3974C253.612 84.6294 253.792 84.7856 254.01 84.8661C254.233 84.9419 254.467 84.9798 254.713 84.9798C254.898 84.9798 255.049 84.9703 255.168 84.9513C255.286 84.9277 255.381 84.9087 255.452 84.8945L255.793 86.4002C255.679 86.4428 255.52 86.4854 255.317 86.5281C255.113 86.5754 254.855 86.5991 254.543 86.5991C254.069 86.5991 253.605 86.4973 253.151 86.2937C252.701 86.0901 252.327 85.7799 252.028 85.3633C251.735 84.9466 251.588 84.421 251.588 83.7866V72.9343ZM258.115 86.457V75.5479H259.791V86.457H258.115ZM258.967 73.7298C258.641 73.7298 258.359 73.6185 258.122 73.396C257.89 73.1734 257.774 72.9059 257.774 72.5934C257.774 72.2809 257.89 72.0134 258.122 71.7908C258.359 71.5683 258.641 71.457 258.967 71.457C259.294 71.457 259.573 71.5683 259.805 71.7908C260.042 72.0134 260.161 72.2809 260.161 72.5934C260.161 72.9059 260.042 73.1734 259.805 73.396C259.573 73.6185 259.294 73.7298 258.967 73.7298ZM271.782 75.5479L267.748 86.457H266.043L262.009 75.5479H263.827L266.839 84.2411H266.952L269.964 75.5479H271.782ZM278.177 86.6843C277.126 86.6843 276.219 86.4523 275.457 85.9883C274.7 85.5195 274.115 84.8661 273.703 84.0281C273.296 83.1853 273.092 82.2051 273.092 81.0877C273.092 79.9703 273.296 78.9854 273.703 78.1332C274.115 77.2762 274.688 76.6085 275.422 76.1303C276.16 75.6474 277.022 75.4059 278.007 75.4059C278.575 75.4059 279.136 75.5006 279.69 75.69C280.244 75.8794 280.748 76.1871 281.203 76.6133C281.657 77.0347 282.02 77.5934 282.29 78.2894C282.559 78.9854 282.694 79.8424 282.694 80.8604V81.5707H274.285V80.1218H280.99C280.99 79.5063 280.867 78.957 280.62 78.4741C280.379 77.9911 280.033 77.61 279.584 77.3306C279.138 77.0513 278.613 76.9116 278.007 76.9116C277.339 76.9116 276.762 77.0773 276.274 77.4087C275.791 77.7354 275.419 78.1616 275.159 78.6871C274.898 79.2127 274.768 79.7762 274.768 80.3775V81.3434C274.768 82.1673 274.91 82.8656 275.194 83.4386C275.483 84.0067 275.883 84.44 276.395 84.7383C276.906 85.0318 277.5 85.1786 278.177 85.1786C278.618 85.1786 279.015 85.1171 279.37 84.994C279.73 84.8661 280.04 84.6767 280.301 84.4258C280.561 84.1701 280.763 83.8529 280.905 83.4741L282.524 83.9286C282.353 84.4779 282.067 84.9608 281.665 85.3775C281.262 85.7894 280.765 86.1114 280.173 86.3434C279.581 86.5707 278.916 86.6843 278.177 86.6843ZM294.079 86.7127C293.388 86.7127 292.761 86.5825 292.197 86.3221C291.634 86.0569 291.186 85.6758 290.855 85.1786C290.523 84.6767 290.358 84.0707 290.358 83.3604C290.358 82.7354 290.481 82.2288 290.727 81.8406C290.973 81.4476 291.302 81.1398 291.714 80.9173C292.126 80.6947 292.581 80.529 293.078 80.4201C293.58 80.3065 294.084 80.2165 294.591 80.1502C295.254 80.065 295.791 80.0011 296.203 79.9585C296.62 79.9111 296.923 79.833 297.112 79.7241C297.306 79.6152 297.403 79.4258 297.403 79.1559V79.0991C297.403 78.3983 297.211 77.8538 296.828 77.4656C296.449 77.0773 295.874 76.8832 295.102 76.8832C294.302 76.8832 293.674 77.0584 293.22 77.4087C292.765 77.7591 292.446 78.1332 292.261 78.5309L290.67 77.9627C290.954 77.2998 291.333 76.7837 291.807 76.4144C292.285 76.0404 292.806 75.7799 293.369 75.6332C293.937 75.4817 294.496 75.4059 295.045 75.4059C295.396 75.4059 295.798 75.4485 296.253 75.5337C296.712 75.6142 297.155 75.7823 297.581 76.038C298.012 76.2937 298.369 76.6796 298.653 77.1957C298.937 77.7118 299.079 78.4031 299.079 79.2695V86.457H297.403V84.9798H297.318C297.204 85.2165 297.015 85.4698 296.75 85.7397C296.485 86.0096 296.132 86.2392 295.691 86.4286C295.251 86.618 294.714 86.7127 294.079 86.7127ZM294.335 85.207C294.998 85.207 295.557 85.0768 296.011 84.8164C296.47 84.556 296.816 84.2198 297.048 83.8079C297.285 83.396 297.403 82.9627 297.403 82.5082V80.9741C297.332 81.0593 297.176 81.1374 296.934 81.2085C296.698 81.2747 296.423 81.3339 296.111 81.386C295.803 81.4334 295.502 81.476 295.209 81.5138C294.92 81.547 294.685 81.5754 294.505 81.5991C294.07 81.6559 293.663 81.7482 293.284 81.8761C292.91 81.9992 292.607 82.1862 292.375 82.4371C292.147 82.6834 292.034 83.0195 292.034 83.4457C292.034 84.0281 292.249 84.4684 292.68 84.7667C293.116 85.0603 293.667 85.207 294.335 85.207ZM306.258 86.6843C305.349 86.6843 304.546 86.4547 303.85 85.9954C303.154 85.5314 302.61 84.878 302.217 84.0352C301.824 83.1876 301.627 82.1862 301.627 81.0309C301.627 79.8851 301.824 78.8907 302.217 78.0479C302.61 77.2051 303.157 76.5541 303.857 76.0948C304.558 75.6355 305.368 75.4059 306.286 75.4059C306.997 75.4059 307.558 75.5243 307.97 75.761C308.386 75.993 308.703 76.2582 308.921 76.5565C309.144 76.85 309.317 77.0915 309.44 77.2809H309.582V71.9116H311.258V86.457H309.639V84.7809H309.44C309.317 84.9798 309.141 85.2307 308.914 85.5337C308.687 85.832 308.363 86.0996 307.941 86.3363C307.52 86.5683 306.959 86.6843 306.258 86.6843ZM306.485 85.1786C307.158 85.1786 307.726 85.0034 308.19 84.6531C308.654 84.2979 309.006 83.8079 309.248 83.1829C309.489 82.5531 309.61 81.8263 309.61 81.0025C309.61 80.1881 309.492 79.4755 309.255 78.8647C309.018 78.2492 308.668 77.771 308.204 77.43C307.74 77.0844 307.167 76.9116 306.485 76.9116C305.775 76.9116 305.183 77.0939 304.71 77.4585C304.241 77.8183 303.888 78.3084 303.651 78.9286C303.419 79.5442 303.303 80.2354 303.303 81.0025C303.303 81.779 303.422 82.4845 303.658 83.119C303.9 83.7487 304.255 84.2506 304.724 84.6246C305.197 84.994 305.784 85.1786 306.485 85.1786ZM316.237 79.8945V86.457H314.56V71.9116H316.237V77.2525H316.379C316.634 76.689 317.018 76.2416 317.529 75.9102C318.045 75.574 318.732 75.4059 319.589 75.4059C320.332 75.4059 320.983 75.555 321.542 75.8533C322.101 76.1469 322.534 76.5991 322.842 77.2099C323.154 77.8159 323.31 78.5877 323.31 79.5252V86.457H321.634V79.6388C321.634 78.7724 321.409 78.1024 320.96 77.6289C320.515 77.1507 319.897 76.9116 319.106 76.9116C318.557 76.9116 318.064 77.0276 317.629 77.2596C317.198 77.4916 316.857 77.8301 316.606 78.2752C316.36 78.7203 316.237 79.2601 316.237 79.8945ZM330.951 86.6843C329.9 86.6843 328.993 86.4523 328.231 85.9883C327.473 85.5195 326.888 84.8661 326.476 84.0281C326.069 83.1853 325.866 82.2051 325.866 81.0877C325.866 79.9703 326.069 78.9854 326.476 78.1332C326.888 77.2762 327.461 76.6085 328.195 76.1303C328.934 75.6474 329.795 75.4059 330.78 75.4059C331.348 75.4059 331.91 75.5006 332.464 75.69C333.017 75.8794 333.522 76.1871 333.976 76.6133C334.431 77.0347 334.793 77.5934 335.063 78.2894C335.333 78.9854 335.468 79.8424 335.468 80.8604V81.5707H327.059V80.1218H333.763C333.763 79.5063 333.64 78.957 333.394 78.4741C333.152 77.9911 332.807 77.61 332.357 77.3306C331.912 77.0513 331.386 76.9116 330.78 76.9116C330.113 76.9116 329.535 77.0773 329.047 77.4087C328.564 77.7354 328.193 78.1616 327.932 78.6871C327.672 79.2127 327.542 79.7762 327.542 80.3775V81.3434C327.542 82.1673 327.684 82.8656 327.968 83.4386C328.257 84.0067 328.657 84.44 329.168 84.7383C329.679 85.0318 330.274 85.1786 330.951 85.1786C331.391 85.1786 331.789 85.1171 332.144 84.994C332.504 84.8661 332.814 84.6767 333.074 84.4258C333.335 84.1701 333.536 83.8529 333.678 83.4741L335.297 83.9286C335.127 84.4779 334.84 84.9608 334.438 85.3775C334.035 85.7894 333.538 86.1114 332.946 86.3434C332.355 86.5707 331.689 86.6843 330.951 86.6843ZM345.745 77.9911L344.239 78.4173C344.144 78.1663 344.005 77.9225 343.82 77.6857C343.64 77.4442 343.394 77.2454 343.081 77.0891C342.769 76.9329 342.369 76.8548 341.881 76.8548C341.214 76.8548 340.657 77.0086 340.212 77.3164C339.772 77.6194 339.552 78.0053 339.552 78.4741C339.552 78.8907 339.703 79.2198 340.006 79.4613C340.309 79.7028 340.783 79.904 341.427 80.065L343.046 80.4627C344.021 80.6995 344.748 81.0617 345.226 81.5494C345.705 82.0323 345.944 82.6549 345.944 83.4173C345.944 84.0423 345.764 84.601 345.404 85.0934C345.049 85.5858 344.552 85.9741 343.912 86.2582C343.273 86.5423 342.53 86.6843 341.682 86.6843C340.57 86.6843 339.649 86.4428 338.919 85.9599C338.19 85.4769 337.729 84.7714 337.535 83.8434L339.125 83.4457C339.277 84.0328 339.563 84.4731 339.985 84.7667C340.411 85.0603 340.967 85.207 341.654 85.207C342.435 85.207 343.055 85.0413 343.515 84.7099C343.979 84.3737 344.211 83.9712 344.211 83.5025C344.211 83.1237 344.078 82.8065 343.813 82.5508C343.548 82.2904 343.141 82.0962 342.591 81.9684L340.773 81.5423C339.774 81.3055 339.04 80.9386 338.571 80.4414C338.107 79.9395 337.875 79.3121 337.875 78.5593C337.875 77.9438 338.048 77.3993 338.394 76.9258C338.744 76.4523 339.22 76.0806 339.821 75.8107C340.428 75.5408 341.114 75.4059 341.881 75.4059C342.961 75.4059 343.808 75.6426 344.424 76.1161C345.044 76.5896 345.484 77.2146 345.745 77.9911ZM348.467 86.457V75.5479H350.143V86.457H348.467ZM349.319 73.7298C348.992 73.7298 348.711 73.6185 348.474 73.396C348.242 73.1734 348.126 72.9059 348.126 72.5934C348.126 72.2809 348.242 72.0134 348.474 71.7908C348.711 71.5683 348.992 71.457 349.319 71.457C349.646 71.457 349.925 71.5683 350.157 71.7908C350.394 72.0134 350.512 72.2809 350.512 72.5934C350.512 72.9059 350.394 73.1734 350.157 73.396C349.925 73.6185 349.646 73.7298 349.319 73.7298ZM362.133 75.5479L358.099 86.457H356.395L352.361 75.5479H354.179L357.19 84.2411H357.304L360.315 75.5479H362.133ZM368.529 86.6843C367.478 86.6843 366.571 86.4523 365.809 85.9883C365.051 85.5195 364.466 84.8661 364.054 84.0281C363.647 83.1853 363.444 82.2051 363.444 81.0877C363.444 79.9703 363.647 78.9854 364.054 78.1332C364.466 77.2762 365.039 76.6085 365.773 76.1303C366.512 75.6474 367.374 75.4059 368.358 75.4059C368.927 75.4059 369.488 75.5006 370.042 75.69C370.596 75.8794 371.1 76.1871 371.554 76.6133C372.009 77.0347 372.371 77.5934 372.641 78.2894C372.911 78.9854 373.046 79.8424 373.046 80.8604V81.5707H364.637V80.1218H371.341C371.341 79.5063 371.218 78.957 370.972 78.4741C370.731 77.9911 370.385 77.61 369.935 77.3306C369.49 77.0513 368.964 76.9116 368.358 76.9116C367.691 76.9116 367.113 77.0773 366.625 77.4087C366.142 77.7354 365.771 78.1616 365.51 78.6871C365.25 79.2127 365.12 79.7762 365.12 80.3775V81.3434C365.12 82.1673 365.262 82.8656 365.546 83.4386C365.835 84.0067 366.235 84.44 366.746 84.7383C367.258 85.0318 367.852 85.1786 368.529 85.1786C368.969 85.1786 369.367 85.1171 369.722 84.994C370.082 84.8661 370.392 84.6767 370.652 84.4258C370.913 84.1701 371.114 83.8529 371.256 83.4741L372.875 83.9286C372.705 84.4779 372.419 84.9608 372.016 85.3775C371.614 85.7894 371.116 86.1114 370.525 86.3434C369.933 86.5707 369.267 86.6843 368.529 86.6843Z" fill="#113147"/>
<line x1="202.132" y1="147.702" x2="292.074" y2="98.7622" stroke="#113147"/>
<line x1="77.9018" y1="159.564" x2="292.177" y2="98.7205" stroke="#113147"/>
<defs>
<filter id="filter0_d_806_840" x="161.852" y="130.369" width="90.4795" height="48.7262" filterUnits="userSpaceOnUse" color-interpolation-filters="sRGB">
<feFlood flood-opacity="0" result="BackgroundImageFix"/>
<feColorMatrix in="SourceAlpha" type="matrix" values="0 0 0 0 0 0 0 0 0 0 0 0 0 0 0 0 0 0 127 0" result="hardAlpha"/>
<feOffset dy="3"/>
<feGaussianBlur stdDeviation="1.5"/>
<feComposite in2="hardAlpha" operator="out"/>
<feColorMatrix type="matrix" values="0 0 0 0 0 0 0 0 0 0 0 0 0 0 0 0 0 0 0.3 0"/>
<feBlend mode="normal" in2="BackgroundImageFix" result="effect1_dropShadow_806_840"/>
<feBlend mode="normal" in="SourceGraphic" in2="effect1_dropShadow_806_840" result="shape"/>
</filter>
<filter id="filter1_d_806_840" x="48.7979" y="145.689" width="92.4795" height="50.7262" filterUnits="userSpaceOnUse" color-interpolation-filters="sRGB">
<feFlood flood-opacity="0" result="BackgroundImageFix"/>
<feColorMatrix in="SourceAlpha" type="matrix" values="0 0 0 0 0 0 0 0 0 0 0 0 0 0 0 0 0 0 127 0" result="hardAlpha"/>
<feOffset dy="4"/>
<feGaussianBlur stdDeviation="2"/>
<feComposite in2="hardAlpha" operator="out"/>
<feColorMatrix type="matrix" values="0 0 0 0 0 0 0 0 0 0 0 0 0 0 0 0 0 0 0.4 0"/>
<feBlend mode="normal" in2="BackgroundImageFix" result="effect1_dropShadow_806_840"/>
<feBlend mode="normal" in="SourceGraphic" in2="effect1_dropShadow_806_840" result="shape"/>
</filter>
<radialGradient id="paint0_radial_806_840" cx="0" cy="0" r="1" gradientUnits="userSpaceOnUse" gradientTransform="translate(175.917 175.917) rotate(90) scale(175.917)">
<stop stop-color="#B9B9B9" stop-opacity="0"/>
<stop offset="0.651042" stop-color="#B9B9B9"/>
</radialGradient>
</defs>
</svg>
